<?xml version="1.0" encoding="utf-8"?>
<!-- Generator: Adobe Illustrator 27.8.0, SVG Export Plug-In . SVG Version: 6.00 Build 0)  -->
<svg version="1.1" id="Capa_1" xmlns="http://www.w3.org/2000/svg" xmlns:xlink="http://www.w3.org/1999/xlink" x="0px" y="0px"
	 viewBox="0 0 259.2 259.2" enable-background="new 0 0 259.2 259.2" xml:space="preserve">
<g>
	<g>
		<path fill="#FFFFFF" d="M0,259.2C0,172.81,0,86.42,0,0c86.38,0,172.77,0,259.2,0c0,86.38,0,172.79,0,259.2
			C172.82,259.2,86.42,259.2,0,259.2z M176.34,94.08c-1.74,0.65-3.31,1.22-4.85,1.83c-2.07,0.82-4.16,1.58-6.18,2.52
			c-3.59,1.67-3.51,6.38-0.78,8.04c1.41,0.86,2.64,2.04,3.91,3.12c1.61,1.36,3.16,2.8,4.79,4.15c3.07,2.53,6.2,4.99,9.26,7.53
			c3.34,2.77,6.6,5.64,9.94,8.41c3.03,2.51,6.17,4.9,9.19,7.42c1.75,1.46,3.7,1.53,5.63,0.84c1.18-0.42,2.06-1.46,2.31-2.85
			c0.45-2.5,0.94-5,1.4-7.5c0.19-1.05,0.36-2.11,0.54-3.16c0.37-2.18,0.73-4.37,1.12-6.55c0.4-2.18,0.89-4.34,1.25-6.53
			c0.41-2.5,0.71-5.01,1.1-7.51c0.32-2.08,0.71-4.15,1.08-6.22c0.43-2.46,0.92-4.9,1.26-7.37c0.25-1.81,0.42-3.65,0.4-5.47
			c-0.02-1.62-0.79-3.07-2.48-3.4c-1.37-0.26-2.93-0.37-4.23,0.04c-3.67,1.14-7.26,2.57-10.86,3.91c-0.57,0.21-1,0.19-1.3-0.38
			c-0.47-0.91-0.84-1.9-1.41-2.74c-1.82-2.65-3.53-5.39-5.61-7.82c-2.9-3.38-6.01-6.6-9.19-9.72c-3.18-3.12-6.62-5.97-10.53-8.17
			c-3.42-1.92-6.6-4.19-10.32-5.64c-5.55-2.16-10.94-4.69-16.93-5.43c-3.07-0.38-6.12-1.07-9.2-1.22
			c-7.21-0.35-14.42-0.38-21.55,1.15c-1.7,0.37-3.5,0.41-5.13,0.97c-4.68,1.63-9.39,3.25-13.9,5.28c-3.6,1.62-7.13,3.58-10.34,5.87
			c-3.85,2.74-7.42,5.9-10.92,9.08c-2.32,2.11-4.42,4.5-6.44,6.91c-1.67,2-3.13,4.19-4.59,6.36c-1.05,1.57-1.98,3.23-2.88,4.89
			c-0.6,1.1-1.25,2.25-1.5,3.45c-0.31,1.53-0.17,3.15,1.17,4.28c3.8,3.22,7.7,6.32,11.41,9.63c2.75,2.45,6.42,1.47,8.13-1.87
			c0.64-1.26,1.05-2.66,1.8-3.84c1.99-3.11,3.91-6.3,6.25-9.14c2.01-2.43,4.61-4.37,6.88-6.6c2.8-2.76,6.22-4.55,9.57-6.46
			c2.98-1.7,6.14-3,9.45-3.83c3.61-0.9,7.22-1.92,10.9-2.34c3.49-0.4,7.07-0.09,10.61-0.08c0.32,0,0.64,0.01,0.95,0.08
			c2.13,0.44,4.28,0.8,6.38,1.36c2.6,0.69,5.23,1.35,7.71,2.36c2.56,1.05,4.92,2.57,7.43,3.76c4.18,1.98,7.55,5.02,10.84,8.14
			c1.86,1.77,3.57,3.72,5.2,5.71C174.28,90.79,175.24,92.45,176.34,94.08z M82.19,152.42c3.74-1.48,7.43-2.82,11.01-4.42
			c2.67-1.19,3.5-3.86,2.05-6.4c-0.62-1.09-1.69-1.97-2.68-2.8c-3.14-2.62-6.36-5.17-9.52-7.76c-1.11-0.91-2.13-1.93-3.24-2.84
			c-3.14-2.58-6.32-5.11-9.45-7.69c-1.51-1.24-2.93-2.58-4.44-3.82c-3.05-2.5-6.15-4.93-9.19-7.44c-1.27-1.05-4.42-1.6-5.72-0.62
			c-0.84,0.63-1.76,1.59-1.98,2.55c-0.96,4.33-1.69,8.72-2.49,13.09c-0.19,1.05-0.34,2.11-0.52,3.17c-0.24,1.44-0.48,2.88-0.75,4.32
			c-0.38,2.06-0.82,4.11-1.15,6.18c-0.28,1.76-0.4,3.54-0.67,5.3c-0.3,1.96-0.69,3.91-1.02,5.86c-0.38,2.19-0.79,4.37-1.08,6.56
			c-0.27,2.08-0.52,4.18-0.56,6.28c-0.03,1.65,0.99,2.88,2.58,3.18c1.37,0.25,2.93,0.35,4.24-0.05c3.41-1.04,6.74-2.37,10.08-3.61
			c1.58-0.59,1.82-0.5,2.63,1.03c0.67,1.26,1.33,2.54,2.12,3.72c1.12,1.68,2.32,3.32,3.57,4.91c1.87,2.38,3.65,4.85,5.76,7
			c2.36,2.41,4.98,4.59,7.6,6.72c2.25,1.82,4.64,3.47,7.02,5.11c4.37,3.02,9.08,5.4,14.06,7.22c3.2,1.18,6.45,2.24,9.72,3.19
			c1.62,0.47,3.34,0.62,5.03,0.87c2.51,0.38,5.02,0.93,7.54,1.03c7.25,0.29,14.51,0.38,21.67-1.16c1.74-0.37,3.58-0.42,5.25-1
			c4.61-1.6,9.25-3.17,13.68-5.18c3.67-1.67,7.23-3.71,10.56-6c4.17-2.86,8.05-6.13,11.61-9.75c3.13-3.18,6.15-6.45,8.56-10.24
			c1.7-2.67,3.48-5.3,5.14-8c0.42-0.68,0.65-1.54,0.76-2.35c0.32-2.3-0.75-3.78-2.6-5.18c-3.43-2.59-6.59-5.53-9.87-8.3
			c-2.86-2.41-6.21-2.31-8.33,1.91c-0.3,0.6-0.37,1.33-0.74,1.88c-2.14,3.19-4.24,6.42-6.54,9.5c-2.42,3.24-5.31,6.06-8.59,8.42
			c-2.54,1.83-5.16,3.58-7.87,5.16c-2.12,1.23-4.34,2.43-6.67,3.13c-4.12,1.24-8.33,2.25-12.56,3.07c-2.52,0.49-5.14,0.63-7.71,0.57
			c-4.04-0.1-8.08-0.48-11.99-1.63c-2.54-0.75-5.15-1.36-7.59-2.37c-2.59-1.07-4.99-2.63-7.54-3.81c-3.87-1.79-6.97-4.61-10.04-7.43
			c-2.13-1.95-4.04-4.17-5.9-6.39C84.18,155.64,83.21,153.93,82.19,152.42z"/>
		<path d="M176.34,94.08c-1.1-1.63-2.06-3.29-3.27-4.76c-1.63-1.99-3.34-3.94-5.2-5.71c-3.29-3.13-6.66-6.16-10.84-8.14
			c-2.51-1.19-4.87-2.71-7.43-3.76c-2.48-1.01-5.11-1.68-7.71-2.36c-2.1-0.55-4.25-0.92-6.38-1.36c-0.31-0.06-0.63-0.08-0.95-0.08
			c-3.54,0-7.12-0.31-10.61,0.08c-3.67,0.42-7.29,1.43-10.9,2.34c-3.32,0.83-6.48,2.13-9.45,3.83c-3.35,1.92-6.77,3.71-9.57,6.46
			c-2.26,2.23-4.86,4.17-6.88,6.6c-2.34,2.83-4.26,6.03-6.25,9.14c-0.76,1.18-1.16,2.58-1.8,3.84c-1.7,3.34-5.38,4.33-8.13,1.87
			c-3.71-3.31-7.61-6.41-11.41-9.63c-1.34-1.13-1.49-2.75-1.17-4.28c0.25-1.2,0.9-2.35,1.5-3.45c0.9-1.66,1.83-3.32,2.88-4.89
			c1.45-2.17,2.91-4.36,4.59-6.36c2.02-2.41,4.11-4.8,6.44-6.91c3.51-3.18,7.08-6.34,10.92-9.08c3.21-2.29,6.74-4.25,10.34-5.87
			c4.51-2.03,9.22-3.64,13.9-5.28c1.62-0.57,3.43-0.61,5.13-0.97c7.12-1.53,14.34-1.5,21.55-1.15c3.08,0.15,6.13,0.84,9.2,1.22
			c6,0.74,11.39,3.27,16.93,5.43c3.72,1.45,6.91,3.72,10.32,5.64c3.92,2.2,7.35,5.05,10.53,8.17c3.18,3.12,6.29,6.34,9.19,9.72
			c2.08,2.43,3.8,5.17,5.61,7.82c0.58,0.84,0.94,1.83,1.41,2.74c0.3,0.57,0.73,0.59,1.3,0.38c3.61-1.34,7.19-2.77,10.86-3.91
			c1.3-0.4,2.86-0.3,4.23-0.04c1.69,0.33,2.46,1.78,2.48,3.4c0.02,1.82-0.15,3.66-0.4,5.47c-0.34,2.47-0.84,4.92-1.26,7.37
			c-0.36,2.07-0.75,4.14-1.08,6.22c-0.39,2.5-0.68,5.02-1.1,7.51c-0.36,2.18-0.85,4.35-1.25,6.53c-0.4,2.18-0.75,4.36-1.12,6.55
			c-0.18,1.05-0.34,2.11-0.54,3.16c-0.46,2.5-0.95,4.99-1.4,7.5c-0.25,1.39-1.13,2.43-2.31,2.85c-1.93,0.68-3.88,0.62-5.63-0.84
			c-3.02-2.52-6.16-4.91-9.19-7.42c-3.34-2.77-6.61-5.63-9.94-8.41c-3.06-2.54-6.19-5-9.26-7.53c-1.63-1.34-3.18-2.78-4.79-4.15
			c-1.27-1.08-2.5-2.26-3.91-3.12c-2.73-1.66-2.81-6.37,0.78-8.04c2.01-0.94,4.11-1.7,6.18-2.52
			C173.04,95.29,174.6,94.73,176.34,94.08z"/>
		<path d="M82.19,152.42c1.02,1.51,1.99,3.22,3.23,4.7c1.86,2.23,3.77,4.44,5.9,6.39c3.08,2.81,6.17,5.64,10.04,7.43
			c2.56,1.18,4.95,2.73,7.54,3.81c2.44,1.01,5.05,1.62,7.59,2.37c3.91,1.15,7.95,1.53,11.99,1.63c2.57,0.07,5.19-0.08,7.71-0.57
			c4.23-0.82,8.44-1.82,12.56-3.07c2.33-0.7,4.55-1.9,6.67-3.13c2.71-1.58,5.33-3.33,7.87-5.16c3.28-2.36,6.17-5.19,8.59-8.42
			c2.3-3.08,4.4-6.3,6.54-9.5c0.37-0.54,0.43-1.28,0.74-1.88c2.12-4.22,5.48-4.32,8.33-1.91c3.29,2.77,6.45,5.71,9.87,8.3
			c1.85,1.4,2.92,2.88,2.6,5.18c-0.11,0.81-0.34,1.67-0.76,2.35c-1.66,2.7-3.44,5.33-5.14,8c-2.41,3.78-5.43,7.05-8.56,10.24
			c-3.56,3.62-7.45,6.89-11.61,9.75c-3.33,2.28-6.88,4.33-10.56,6c-4.43,2.01-9.07,3.59-13.68,5.18c-1.66,0.58-3.5,0.62-5.25,1
			c-7.16,1.54-14.42,1.45-21.67,1.16c-2.52-0.1-5.03-0.65-7.54-1.03c-1.68-0.25-3.41-0.4-5.03-0.87c-3.27-0.96-6.52-2.02-9.72-3.19
			c-4.97-1.83-9.69-4.2-14.06-7.22c-2.38-1.65-4.78-3.29-7.02-5.11c-2.63-2.13-5.24-4.31-7.6-6.72c-2.11-2.15-3.89-4.62-5.76-7
			c-1.25-1.59-2.44-3.23-3.57-4.91c-0.79-1.18-1.45-2.46-2.12-3.72c-0.81-1.53-1.05-1.61-2.63-1.03c-3.35,1.25-6.67,2.58-10.08,3.61
			c-1.31,0.4-2.87,0.3-4.24,0.05c-1.59-0.29-2.61-1.53-2.58-3.18c0.04-2.1,0.29-4.2,0.56-6.28c0.29-2.2,0.71-4.38,1.08-6.56
			c0.34-1.95,0.73-3.9,1.02-5.86c0.27-1.76,0.39-3.54,0.67-5.3c0.33-2.07,0.78-4.12,1.15-6.18c0.26-1.44,0.5-2.88,0.75-4.32
			c0.18-1.05,0.32-2.11,0.52-3.17c0.8-4.37,1.53-8.75,2.49-13.09c0.21-0.96,1.13-1.92,1.98-2.55c1.3-0.98,4.45-0.43,5.72,0.62
			c3.04,2.51,6.14,4.94,9.19,7.44c1.51,1.24,2.93,2.58,4.44,3.82c3.14,2.58,6.31,5.11,9.45,7.69c1.11,0.91,2.13,1.93,3.24,2.84
			c3.17,2.6,6.38,5.14,9.52,7.76c0.99,0.83,2.06,1.71,2.68,2.8c1.45,2.55,0.62,5.22-2.05,6.4
			C89.63,149.59,85.93,150.93,82.19,152.42z"/>
	</g>
</g>
</svg>
