<?xml version="1.0" encoding="utf-8"?>
<!-- Generator: Adobe Illustrator 27.8.0, SVG Export Plug-In . SVG Version: 6.00 Build 0)  -->
<svg version="1.1" id="Capa_1" xmlns="http://www.w3.org/2000/svg" xmlns:xlink="http://www.w3.org/1999/xlink" x="0px" y="0px"
	 viewBox="0 0 259.2 259.2" enable-background="new 0 0 259.2 259.2" xml:space="preserve">
<g>
	<g>
		<path fill="#FFFFFF" d="M259.2,259.2c-86.41,0-172.81,0-259.2,0C0,172.79,0,86.39,0,0c86.41,0,172.81,0,259.2,0
			C259.2,86.41,259.2,172.81,259.2,259.2z M40.04,129.44c-0.4,6.81,0.11,13.56,1.73,20.18c1.92,7.88,4.5,15.55,8.61,22.58
			c2.57,4.4,5.33,8.71,8.36,12.8c3.4,4.58,7.43,8.63,11.75,12.4c5.4,4.72,11.3,8.72,17.62,12.07c4.64,2.46,9.42,4.62,14.54,5.91
			c4.89,1.23,9.82,2.36,14.74,3.47c1.23,0.28,2.51,0.44,3.77,0.49c2.39,0.1,4.79,0.07,7.19,0.11c5.54,0.08,11.09,0.03,16.54-1.11
			c3.5-0.73,6.96-1.66,10.42-2.58c4.63-1.23,9.04-3.07,13.32-5.17c4.87-2.39,9.41-5.34,13.91-8.38c3.15-2.13,4.39-5.6,3.35-9
			c-1.16-3.8-5.93-6.36-9.57-4.75c-1.58,0.7-2.98,1.82-4.44,2.77c-4.47,2.92-9.05,5.67-14.04,7.59c-4.41,1.7-8.82,3.43-13.57,4.05
			c-2.71,0.36-5.39,1.22-8.1,1.31c-7.52,0.25-15.05,0.29-22.47-1.49c-5.28-1.26-10.41-2.92-15.33-5.21
			c-4.53-2.11-8.87-4.56-12.8-7.63c-3.17-2.48-6.31-5.04-9.11-7.92c-4.35-4.46-8.07-9.44-11.14-14.91
			c-2.87-5.09-5.17-10.38-6.85-15.97c-1.99-6.65-2.87-13.43-2.93-20.37c-0.04-5.29,0.29-10.54,1.38-15.68
			c1.44-6.79,3.75-13.33,7.02-19.47c2.72-5.11,5.98-9.87,9.78-14.28c3.67-4.26,7.78-8.01,12.31-11.3c4.81-3.49,9.96-6.42,15.5-8.65
			c4.7-1.89,9.53-3.33,14.52-4.25c3.81-0.7,7.62-1.24,11.5-1.17c1.76,0.03,3.53-0.13,5.27,0.03c3.99,0.37,8.02,0.64,11.95,1.4
			c7.31,1.41,14.28,3.95,20.71,7.7c3.81,2.22,7.51,4.7,11,7.4c4.3,3.32,8.16,7.16,11.38,11.57c2.18,2.99,4.28,6.05,6.2,9.22
			c3.42,5.65,5.76,11.78,7.47,18.14c0.67,2.49,1.08,5.06,1.49,7.61c0.35,2.15,0.71,4.34,0.74,6.51c0.07,5.62,0.14,11.22-0.83,16.82
			c-0.67,3.87-1.47,7.68-2.77,11.35c-1.37,3.85-3.07,7.59-4.68,11.36c-1.27,2.99-0.7,7.28,3.73,9.6c2.84,1.48,6.76,1.01,9.02-2.03
			c1.1-1.48,1.97-3.18,2.72-4.87c1.44-3.27,2.95-6.54,4.02-9.95c1.33-4.24,2.31-8.6,3.31-12.95c0.51-2.24,0.88-4.54,1.05-6.83
			c0.2-2.63,0.1-5.28,0.14-7.92c0.07-5.67-0.07-11.33-1.31-16.89c-0.86-3.84-1.72-7.7-2.94-11.44c-1.29-3.96-2.72-7.92-4.58-11.64
			c-2.06-4.11-4.59-8.01-7.07-11.89c-3.04-4.76-6.79-8.99-10.82-12.92c-5.43-5.31-11.42-9.93-18.03-13.76
			c-5.77-3.35-11.8-6.09-18.16-8.01c-4.26-1.28-8.65-2.11-12.99-3.11c-1.08-0.25-2.19-0.5-3.29-0.54
			c-3.71-0.13-7.43-0.21-11.15-0.24c-5.74-0.04-11.49,0.11-17.11,1.44c-3.48,0.82-6.92,1.84-10.36,2.82
			c-7.45,2.13-14.25,5.65-20.75,9.77c-6.54,4.15-12.36,9.2-17.6,14.89c-2.32,2.51-4.48,5.19-6.49,7.96c-2.04,2.8-3.99,5.7-5.64,8.74
			c-2.14,3.94-4.24,7.96-5.79,12.15c-1.71,4.61-2.85,9.45-4.09,14.22c-0.61,2.34-1.1,4.75-1.24,7.16
			C39.89,122.32,40.04,125.89,40.04,129.44z M130.05,73.47c-2.57,0.24-5.15,0.39-7.7,0.75c-1.37,0.19-2.68,0.75-4.02,1.13
			c-6.94,2-12.39,6.13-16.47,12.01c-3.45,4.97-4.8,10.61-4.54,16.66c0.14,3.32,1.96,5.71,5.22,6.59c2.72,0.73,6.75,0,8.14-3.13
			c0.64-1.44,0.85-3.12,1.04-4.72c0.36-3.14,1.13-6.11,3.01-8.69c3.41-4.68,8.37-6.38,13.83-6.63c2.61-0.12,5.32,0.37,7.88,1
			c4.83,1.19,8.49,4.01,10.23,8.81c0.69,1.92,1.11,3.98,1.35,6.02c0.53,4.47-0.26,8.71-3.19,12.26c-1.78,2.15-3.83,4.07-5.78,6.07
			c-3.49,3.56-7.23,6.89-10.06,11.06c-2.13,3.14-4.04,6.38-5.16,10.04c-1.11,3.64-1.92,7.34-1.73,11.16c0.1,1.87,0.3,3.79,1.62,5.39
			c1.72,2.07,3.82,2.97,6.52,2.8c2.82-0.18,5.44-2.02,5.93-4.83c0.4-2.3,0.41-4.67,0.49-7.01c0.1-3.02,0.94-5.8,2.5-8.36
			c2.18-3.58,5.12-6.51,8.05-9.45c4.39-4.42,8.75-8.84,11.89-14.33c2.4-4.21,3.27-8.77,3.45-13.51c0.03-0.9-0.39-1.8-0.41-2.71
			c-0.08-3.85-1.01-7.5-2.56-10.98c-3.41-7.68-9.28-12.73-17.16-15.42C138.44,74.1,134.32,73.32,130.05,73.47z M129.69,169.18
			c-4.88-0.39-10.54,4.01-10.52,10.53c0.01,5.96,5.86,10.29,9.96,10.43c5.66,0.2,11.12-4.62,11.12-10.6
			C140.25,173.3,134.76,168.79,129.69,169.18z"/>
		<path d="M40.04,129.44c0-3.56-0.15-7.13,0.05-10.67c0.14-2.4,0.64-4.82,1.24-7.16c1.24-4.78,2.38-9.61,4.09-14.22
			c1.55-4.19,3.66-8.2,5.79-12.15c1.65-3.04,3.6-5.94,5.64-8.74c2.01-2.76,4.18-5.44,6.49-7.96c5.24-5.69,11.05-10.74,17.6-14.89
			c6.5-4.12,13.31-7.65,20.75-9.77c3.44-0.98,6.88-2,10.36-2.82c5.62-1.32,11.36-1.48,17.11-1.44c3.72,0.02,7.43,0.11,11.15,0.24
			c1.1,0.04,2.21,0.29,3.29,0.54c4.34,1,8.74,1.82,12.99,3.11c6.36,1.92,12.39,4.66,18.16,8.01c6.6,3.83,12.59,8.45,18.03,13.76
			c4.02,3.93,7.77,8.15,10.82,12.92c2.48,3.89,5.01,7.78,7.07,11.89c1.86,3.72,3.29,7.68,4.58,11.64c1.21,3.74,2.08,7.6,2.94,11.44
			c1.24,5.56,1.38,11.22,1.31,16.89c-0.03,2.64,0.06,5.29-0.14,7.92c-0.17,2.29-0.54,4.59-1.05,6.83c-1,4.34-1.98,8.7-3.31,12.95
			c-1.07,3.4-2.58,6.67-4.02,9.95c-0.75,1.7-1.62,3.39-2.72,4.87c-2.25,3.04-6.18,3.51-9.02,2.03c-4.43-2.31-5-6.61-3.73-9.6
			c1.61-3.77,3.31-7.5,4.68-11.36c1.3-3.67,2.1-7.48,2.77-11.35c0.97-5.6,0.89-11.2,0.83-16.82c-0.03-2.17-0.39-4.35-0.74-6.51
			c-0.41-2.55-0.82-5.12-1.49-7.61c-1.71-6.36-4.05-12.5-7.47-18.14c-1.92-3.16-4.02-6.23-6.2-9.22
			c-3.21-4.41-7.08-8.25-11.38-11.57c-3.49-2.7-7.19-5.17-11-7.4c-6.44-3.75-13.41-6.29-20.71-7.7c-3.93-0.76-7.95-1.03-11.95-1.4
			c-1.74-0.16-3.51,0-5.27-0.03c-3.88-0.07-7.7,0.46-11.5,1.17c-4.99,0.92-9.81,2.36-14.52,4.25c-5.53,2.22-10.68,5.16-15.5,8.65
			c-4.53,3.28-8.64,7.04-12.31,11.3c-3.8,4.41-7.05,9.16-9.78,14.28c-3.27,6.14-5.59,12.68-7.02,19.47
			c-1.09,5.14-1.42,10.39-1.38,15.68c0.06,6.95,0.94,13.72,2.93,20.37c1.67,5.59,3.98,10.88,6.85,15.97
			c3.08,5.47,6.8,10.45,11.14,14.91c2.8,2.87,5.94,5.44,9.11,7.92c3.93,3.08,8.27,5.53,12.8,7.63c4.92,2.29,10.05,3.94,15.33,5.21
			c7.41,1.78,14.94,1.74,22.47,1.49c2.71-0.09,5.39-0.95,8.1-1.31c4.75-0.63,9.16-2.35,13.57-4.05c4.99-1.93,9.57-4.67,14.04-7.59
			c1.46-0.96,2.86-2.07,4.44-2.77c3.64-1.61,8.41,0.95,9.57,4.75c1.04,3.4-0.21,6.87-3.35,9c-4.5,3.04-9.04,6-13.91,8.38
			c-4.28,2.1-8.69,3.94-13.32,5.17c-3.46,0.92-6.92,1.85-10.42,2.58c-5.45,1.14-11,1.19-16.54,1.11c-2.4-0.03-4.8-0.01-7.19-0.11
			c-1.26-0.05-2.54-0.21-3.77-0.49c-4.92-1.12-9.84-2.24-14.74-3.47c-5.11-1.29-9.9-3.45-14.54-5.91
			c-6.32-3.35-12.22-7.34-17.62-12.07c-4.31-3.77-8.34-7.82-11.75-12.4c-3.03-4.08-5.79-8.4-8.36-12.8
			c-4.11-7.03-6.69-14.7-8.61-22.58C40.15,143,39.64,136.25,40.04,129.44z"/>
		<path d="M130.05,73.47c4.27-0.14,8.38,0.63,12.36,1.98c7.88,2.69,13.75,7.74,17.16,15.42c1.54,3.48,2.48,7.13,2.56,10.98
			c0.02,0.9,0.44,1.81,0.41,2.71c-0.18,4.74-1.05,9.3-3.45,13.51c-3.13,5.48-7.49,9.91-11.89,14.33c-2.92,2.94-5.87,5.87-8.05,9.45
			c-1.56,2.56-2.4,5.34-2.5,8.36c-0.08,2.34-0.09,4.72-0.49,7.01c-0.49,2.81-3.11,4.65-5.93,4.83c-2.7,0.17-4.8-0.73-6.52-2.8
			c-1.32-1.59-1.53-3.52-1.62-5.39c-0.2-3.81,0.61-7.52,1.73-11.16c1.12-3.66,3.03-6.9,5.16-10.04c2.83-4.17,6.57-7.5,10.06-11.06
			c1.96-2,4.01-3.92,5.78-6.07c2.93-3.55,3.72-7.79,3.19-12.26c-0.24-2.03-0.66-4.1-1.35-6.02c-1.74-4.81-5.41-7.62-10.23-8.81
			c-2.56-0.63-5.27-1.12-7.88-1c-5.46,0.25-10.42,1.95-13.83,6.63c-1.88,2.58-2.65,5.55-3.01,8.69c-0.18,1.6-0.4,3.27-1.04,4.72
			c-1.39,3.13-5.42,3.87-8.14,3.13c-3.26-0.88-5.08-3.27-5.22-6.59c-0.25-6.05,1.09-11.69,4.54-16.66c4.07-5.88,9.52-10,16.47-12.01
			c1.34-0.39,2.65-0.94,4.02-1.13C124.9,73.86,127.48,73.71,130.05,73.47z"/>
		<path d="M129.69,169.18c5.06-0.39,10.56,4.11,10.56,10.35c0,5.99-5.46,10.8-11.12,10.6c-4.1-0.15-9.95-4.47-9.96-10.43
			C119.16,173.19,124.82,168.79,129.69,169.18z"/>
	</g>
</g>
</svg>
