<?xml version="1.0" encoding="utf-8"?>
<!-- Generator: Adobe Illustrator 27.8.0, SVG Export Plug-In . SVG Version: 6.00 Build 0)  -->
<svg version="1.1" id="Capa_1" xmlns="http://www.w3.org/2000/svg" xmlns:xlink="http://www.w3.org/1999/xlink" x="0px" y="0px"
	 viewBox="0 0 259.2 259.2" enable-background="new 0 0 259.2 259.2" xml:space="preserve">
<g>
	<g>
		<path fill="#FFFFFF" d="M0,259.2C0,172.81,0,86.41,0,0c86.38,0,172.77,0,259.2,0c0,86.39,0,172.79,0,259.2
			C172.82,259.2,86.41,259.2,0,259.2z M129.66,218.36c10.47,0,20.94,0.02,31.41-0.02c1.58-0.01,3.22-0.09,4.74-0.5
			c8.92-2.37,14.39-8.08,15.96-17.25c0.45-2.66,0.39-5.4,0.54-8.11c0.39-7.02,0.77-14.04,1.13-21.07c0.22-4.23,0.35-8.46,0.56-12.69
			c0.43-8.5,0.92-16.99,1.35-25.49c0.37-7.34,0.67-14.69,1-22.04c0.09-1.91,0.14-3.83,0.32-5.74c0.19-2.01-0.87-3.18-2.92-3.08
			c-0.84,0.04-1.67,0.14-2.51,0.14c-34.33,0.01-68.66,0.01-102.99,0c-0.6,0-1.2-0.02-1.8-0.07c-2.89-0.25-3.81,0.62-3.61,3.45
			c0.02,0.32,0.02,0.64,0.04,0.96c0.17,3.83,0.31,7.66,0.5,11.49c0.52,10.29,1.07,20.59,1.6,30.88c0.34,6.54,0.67,13.09,0.99,19.63
			c0.26,5.35,0.48,10.7,0.76,16.05c0.29,5.38,0.38,10.79,1.02,16.13c0.62,5.13,3.27,9.37,7.32,12.64c4.08,3.3,8.76,4.73,14,4.7
			C109.27,218.31,119.47,218.36,129.66,218.36z M96.35,59.33c-0.33,0-0.77,0-1.21,0c-5.99,0-11.99,0-17.98,0
			c-4.45,0-8.48,1.3-11.67,4.44c-5.02,4.93-6.31,11.03-4.94,17.76c0.87,4.26,3.02,7.77,6.61,10.35c3.15,2.26,6.7,3.06,10.5,3.06
			c34.25,0,68.49,0.01,102.74-0.02c1.91,0,3.84-0.09,5.72-0.41c4.34-0.76,7.8-3.1,10.2-6.74c2.94-4.47,3.79-9.47,2.68-14.69
			c-1.16-5.44-4.02-9.67-9.19-12.13c-2.43-1.16-5-1.6-7.66-1.61c-6.11-0.01-12.23-0.02-18.34,0.01c-0.83,0-1.15-0.18-1.29-1.07
			c-0.47-3.12-1.66-5.98-3.53-8.54c-4.11-5.6-9.6-8.75-16.56-8.87c-8.51-0.15-17.03-0.22-25.53,0.02
			c-8.21,0.23-14.37,4.19-18.13,11.53C97.69,54.5,97.18,56.89,96.35,59.33z"/>
		<path d="M129.66,218.36c-10.19,0-20.38-0.04-30.57,0.02c-5.23,0.03-9.91-1.4-14-4.7c-4.05-3.27-6.7-7.51-7.32-12.64
			c-0.65-5.34-0.74-10.75-1.02-16.13c-0.28-5.35-0.5-10.7-0.76-16.05c-0.32-6.54-0.65-13.09-0.99-19.63
			c-0.53-10.29-1.08-20.59-1.6-30.88c-0.19-3.83-0.34-7.66-0.5-11.49c-0.01-0.32-0.02-0.64-0.04-0.96c-0.2-2.82,0.72-3.7,3.61-3.45
			c0.6,0.05,1.2,0.07,1.8,0.07c34.33,0,68.66,0,102.99,0c0.84,0,1.67-0.1,2.51-0.14c2.05-0.1,3.11,1.07,2.92,3.08
			c-0.18,1.91-0.23,3.82-0.32,5.74c-0.34,7.35-0.64,14.69-1,22.04c-0.42,8.5-0.91,16.99-1.35,25.49c-0.22,4.23-0.35,8.46-0.56,12.69
			c-0.36,7.02-0.74,14.05-1.13,21.07c-0.15,2.71-0.09,5.45-0.54,8.11c-1.57,9.16-7.03,14.87-15.96,17.25
			c-1.52,0.4-3.16,0.49-4.74,0.5C150.6,218.38,140.13,218.36,129.66,218.36z M108.87,160.43c0-12.24,0-24.48,0-36.71
			c0-2.79-1.98-4.37-4.68-3.77c-2.13,0.47-2.94,1.61-2.94,4.12c0,24.24,0,48.47,0,72.71c0,0.32-0.02,0.64,0.02,0.96
			c0.23,2.17,1.5,3.36,3.61,3.38c2.61,0.02,4-1.34,4-3.97C108.87,184.9,108.87,172.67,108.87,160.43z M133.55,160.56
			c0-4.2,0-8.4,0-12.6c0-8.04,0-16.08,0-24.12c0-2.1-0.79-3.29-2.45-3.79c-3.01-0.9-5.17,0.77-5.17,4.01c0,24.24,0,48.47,0,72.71
			c0,0.32-0.02,0.64,0.02,0.96c0.19,1.42,0.68,2.61,2.18,3.14c3.01,1.06,5.42-0.62,5.43-3.84
			C133.56,184.87,133.55,172.72,133.55,160.56z M150.6,160.41c0,6.2,0,12.4,0,18.6c0,6.08,0,12.16,0,18.24
			c0,1.88,0.77,3.12,2.18,3.62c3.03,1.08,5.43-0.67,5.44-3.95c0-24.31,0-48.63,0-72.94c0-0.28,0.02-0.56-0.01-0.84
			c-0.18-1.68-1.07-2.72-2.67-3.13c-2.88-0.73-4.93,0.85-4.93,3.82C150.6,136.02,150.6,148.21,150.6,160.41z"/>
		<path d="M96.35,59.33c0.83-2.43,1.34-4.82,2.41-6.92c3.76-7.34,9.91-11.3,18.13-11.53c8.51-0.24,17.02-0.16,25.53-0.02
			c6.96,0.12,12.46,3.27,16.56,8.87c1.87,2.56,3.07,5.41,3.53,8.54c0.13,0.9,0.46,1.08,1.29,1.07c6.11-0.03,12.23-0.02,18.34-0.01
			c2.66,0,5.23,0.45,7.66,1.61c5.17,2.46,8.03,6.69,9.19,12.13c1.11,5.22,0.27,10.22-2.68,14.69c-2.4,3.64-5.86,5.98-10.2,6.74
			c-1.87,0.33-3.81,0.41-5.72,0.41c-34.25,0.02-68.49,0.02-102.74,0.02c-3.79,0-7.35-0.79-10.5-3.06
			c-3.58-2.58-5.73-6.09-6.61-10.35c-1.38-6.73-0.08-12.83,4.94-17.76c3.19-3.14,7.22-4.44,11.67-4.44c5.99-0.01,11.99,0,17.98,0
			C95.58,59.33,96.02,59.33,96.35,59.33z"/>
		<path fill="#FFFFFF" d="M108.87,160.43c0,12.24,0,24.48,0,36.71c0,2.63-1.39,4-4,3.97c-2.1-0.02-3.37-1.2-3.61-3.38
			c-0.03-0.32-0.02-0.64-0.02-0.96c0-24.24,0-48.47,0-72.71c0-2.52,0.81-3.65,2.94-4.12c2.7-0.6,4.68,0.98,4.68,3.77
			C108.87,135.95,108.87,148.19,108.87,160.43z"/>
		<path fill="#FFFFFF" d="M133.55,160.56c0,12.16,0.01,24.32,0,36.48c0,3.22-2.42,4.9-5.43,3.84c-1.49-0.53-1.99-1.72-2.18-3.14
			c-0.04-0.32-0.02-0.64-0.02-0.96c0-24.24,0-48.47,0-72.71c0-3.24,2.16-4.91,5.17-4.01c1.66,0.5,2.45,1.69,2.45,3.79
			c0.01,8.04,0,16.08,0,24.12C133.55,152.16,133.55,156.36,133.55,160.56z"/>
		<path fill="#FFFFFF" d="M150.6,160.41c0-12.2,0-24.39,0-36.59c0-2.97,2.06-4.56,4.93-3.82c1.6,0.41,2.49,1.45,2.67,3.13
			c0.03,0.28,0.01,0.56,0.01,0.84c0,24.31,0,48.63,0,72.94c0,3.29-2.4,5.03-5.44,3.95c-1.41-0.5-2.18-1.74-2.18-3.62
			c-0.01-6.08,0-12.16,0-18.24C150.6,172.81,150.6,166.61,150.6,160.41z"/>
	</g>
</g>
</svg>
