<?xml version="1.0" encoding="utf-8"?>
<!-- Generator: Adobe Illustrator 27.8.0, SVG Export Plug-In . SVG Version: 6.00 Build 0)  -->
<svg version="1.1" id="Capa_1" xmlns="http://www.w3.org/2000/svg" xmlns:xlink="http://www.w3.org/1999/xlink" x="0px" y="0px"
	 viewBox="0 0 259.2 259.2" enable-background="new 0 0 259.2 259.2" xml:space="preserve">
<g>
	<g>
		<path fill="#FFFFFF" d="M0,0c86.39,0,172.79,0,259.2,0c0,86.38,0,172.77,0,259.2c-86.39,0-172.79,0-259.2,0C0,172.82,0,86.41,0,0z
			 M83.93,74.41c-0.54,0-0.9-0.01-1.25,0c-5.57,0.23-11.17-0.48-16.73,0.46c-3.81,0.64-7.43,1.81-10.67,3.87
			c-5.18,3.29-9.3,7.6-11.72,13.33c-0.89,2.1-1.82,4.26-2.22,6.48c-0.41,2.26-0.24,4.62-0.24,6.94c-0.01,30.96-0.01,61.93,0,92.89
			c0,2.68,0.1,5.36,0.17,8.04c0.01,0.39,0.08,0.8,0.21,1.17c0.58,1.64,1.17,3.27,1.8,4.89c1.42,3.67,3.63,6.84,6.4,9.56
			c2.54,2.49,5.46,4.52,8.76,5.93c1.71,0.73,3.41,1.6,5.2,2c1.77,0.4,3.65,0.38,5.48,0.38c17.58,0.03,35.17,0.03,52.75,0.03
			c8.59,0,17.19,0.01,25.78-0.04c1.83-0.01,3.76,0.07,5.46-0.46c2.48-0.77,4.84-1.96,7.17-3.14c4.59-2.34,8.07-5.93,10.83-10.22
			c3.16-4.9,4.25-10.4,4.4-16.12c0.1-3.8,0.02-7.6,0.02-11.4c0-0.42,0-0.85,0-1.34c3.64,0,7.11-0.05,10.58,0.01
			c3.64,0.07,7.22-0.19,10.75-1.21c4.44-1.28,8.4-3.41,11.82-6.5c3.1-2.81,5.61-6.11,7.24-9.98c0.89-2.11,1.81-4.26,2.21-6.48
			c0.41-2.26,0.24-4.62,0.24-6.94c0.01-27.8,0.01-55.61,0.01-83.41c0-0.56,0-1.12-0.01-1.68c-0.04-1.79-0.34-3.45-1.73-4.8
			c-1.94-1.89-3.76-3.91-5.67-5.83c-6.17-6.2-12.35-12.39-18.55-18.56c-2.8-2.79-5.77-5.42-8.44-8.33
			c-1.57-1.72-3.38-2.27-5.52-2.27c-22.3,0-44.6-0.01-66.9,0.07c-2.1,0.01-4.21,0.04-6.34,0.79c-5.78,2.04-10.72,5.18-14.64,9.91
			c-1.94,2.35-3.51,4.93-4.58,7.77c-1.64,4.34-2.11,8.88-2.08,13.49C83.95,67.25,83.93,70.76,83.93,74.41z"/>
		<path d="M83.93,74.41c0-3.65,0.02-7.17,0-10.68c-0.03-4.61,0.43-9.15,2.08-13.49c1.07-2.84,2.64-5.43,4.58-7.77
			c3.92-4.73,8.85-7.87,14.64-9.91c2.13-0.75,4.24-0.79,6.34-0.79c22.3-0.08,44.6-0.06,66.9-0.07c2.14,0,3.94,0.55,5.52,2.27
			c2.67,2.91,5.64,5.54,8.44,8.33c6.2,6.17,12.38,12.36,18.55,18.56c1.91,1.92,3.73,3.94,5.67,5.83c1.39,1.35,1.69,3.01,1.73,4.8
			c0.01,0.56,0.01,1.12,0.01,1.68c0,27.8,0,55.61-0.01,83.41c0,2.32,0.17,4.69-0.24,6.94c-0.4,2.22-1.33,4.38-2.21,6.48
			c-1.63,3.88-4.14,7.17-7.24,9.98c-3.41,3.1-7.37,5.22-11.82,6.5c-3.53,1.02-7.11,1.28-10.75,1.21c-3.47-0.07-6.94-0.01-10.58-0.01
			c0,0.49,0,0.92,0,1.34c0,3.8,0.08,7.6-0.02,11.4c-0.15,5.72-1.25,11.22-4.4,16.12c-2.76,4.29-6.24,7.88-10.83,10.22
			c-2.32,1.19-4.69,2.37-7.17,3.14c-1.71,0.53-3.63,0.45-5.46,0.46c-8.59,0.05-17.18,0.04-25.78,0.04c-17.58,0-35.17,0-52.75-0.03
			c-1.83,0-3.71,0.01-5.48-0.38c-1.79-0.4-3.49-1.27-5.2-2c-3.3-1.41-6.22-3.44-8.76-5.93c-2.77-2.72-4.99-5.9-6.4-9.56
			c-0.63-1.62-1.22-3.25-1.8-4.89c-0.13-0.37-0.2-0.78-0.21-1.17c-0.07-2.68-0.17-5.36-0.17-8.04c-0.01-30.96-0.01-61.93,0-92.89
			c0-2.32-0.17-4.69,0.24-6.94c0.4-2.22,1.33-4.38,2.22-6.48c2.42-5.73,6.54-10.04,11.72-13.33c3.25-2.06,6.87-3.23,10.67-3.87
			c5.56-0.94,11.16-0.23,16.73-0.46C83.04,74.4,83.39,74.41,83.93,74.41z M170.02,47.75c-0.59,0-1.02,0-1.46,0
			c-18.66,0-37.32-0.01-55.99,0.01c-3.69,0-6.68,1.77-9.11,4.36c-2.54,2.71-3.44,6.21-3.45,9.8c-0.05,31.4-0.05,62.8,0.01,94.2
			c0,2,0.38,4.04,0.9,5.98c1.49,5.58,6.69,9.26,12.47,9.27c25.02,0.02,50.03,0.02,75.05-0.01c1.34,0,2.71-0.15,4-0.48
			c5.94-1.54,9.84-6.38,9.88-12.55c0.15-25.68,0.06-51.36,0.06-77.04c0-0.43,0-0.85,0-1.37c-0.58,0-1.01,0-1.44,0
			c-6.71,0-13.43,0.03-20.14-0.02c-1.58-0.01-3.16-0.24-4.73-0.46c-3.15-0.45-6.04-4.23-6.05-7.29c-0.02-7.24-0.01-14.48-0.01-21.72
			C170.02,49.59,170.02,48.76,170.02,47.75z M83.93,90.72c-4.41,0-8.64-0.04-12.87,0.02c-1.34,0.02-2.71,0.15-4,0.47
			c-5.99,1.51-9.9,6.4-9.92,12.51c-0.14,32-0.05,64.01-0.09,96.01c0,3.03,0.52,5.81,2.12,8.41c2.37,3.84,5.77,6.15,10.26,6.17
			c25.46,0.08,50.92,0.05,76.37,0.02c1.33,0,2.71-0.14,3.99-0.49c2.76-0.75,5.03-2.33,6.77-4.63c2.13-2.82,2.83-6.1,2.89-9.53
			c0.06-3.56,0.01-7.12,0.01-10.68c0-0.42,0-0.84,0-1.31c-0.67,0-1.15,0-1.63,0c-14.67,0-29.33-0.03-44,0.02
			c-3.07,0.01-6.02-0.56-8.91-1.43c-4.66-1.4-8.63-3.94-12.12-7.35c-6.05-5.91-8.82-13.17-8.84-21.48
			c-0.07-21.72-0.02-43.45-0.02-65.17C83.93,91.82,83.93,91.34,83.93,90.72z M186.38,63.75c1.57,0,3.08,0,4.26,0
			c-1.38-1.38-2.87-2.87-4.26-4.26C186.38,60.74,186.38,62.24,186.38,63.75z"/>
		<path fill="#FFFFFF" d="M170.02,47.75c0,1,0,1.84,0,2.67c0,7.24-0.02,14.48,0.01,21.72c0.01,3.06,2.9,6.84,6.05,7.29
			c1.57,0.23,3.15,0.45,4.73,0.46c6.71,0.05,13.43,0.02,20.14,0.02c0.43,0,0.87,0,1.44,0c0,0.52,0,0.94,0,1.37
			c0,25.68,0.09,51.36-0.06,77.04c-0.04,6.17-3.94,11.02-9.88,12.55c-1.29,0.33-2.67,0.48-4,0.48c-25.02,0.03-50.03,0.03-75.05,0.01
			c-5.78,0-10.98-3.68-12.47-9.27c-0.52-1.94-0.89-3.98-0.9-5.98c-0.06-31.4-0.06-62.8-0.01-94.2c0.01-3.6,0.91-7.1,3.45-9.8
			c2.43-2.59,5.41-4.36,9.11-4.36c18.66-0.02,37.32-0.01,55.99-0.01C169,47.75,169.44,47.75,170.02,47.75z M151.2,106.82
			c-8.83,0-17.66,0-26.48,0c-3.98,0-6.82,2.2-8.03,6c-1.67,5.25,2.94,10.32,7.76,10.32c17.78-0.02,35.55,0.01,53.33-0.02
			c3.43-0.01,5.89-1.61,7.62-4.65c2.96-5.22-1.75-11.67-7.23-11.66C169.17,106.83,160.19,106.82,151.2,106.82z M151.31,101.29
			c9.11,0,18.23-0.12,27.33,0.06c3.54,0.07,7.54-3.64,7.65-7.61c0.12-4.53-3.4-8.45-8.24-8.48c-17.82-0.1-35.65-0.07-53.47,0
			c-1.85,0.01-3.71,0.5-5.18,1.83c-2.58,2.33-3.61,5.07-2.67,8.58c0.81,3.03,3.76,5.62,6.88,5.62
			C132.85,101.29,142.08,101.29,151.31,101.29z M135.19,128.64c0,0,0-0.01,0-0.01c-3.76,0-7.52,0.09-11.27-0.02
			c-4.15-0.13-7.58,3.4-7.56,7.63c0.02,4.98,2.9,8,8.22,8.2c6.62,0.26,13.26,0.1,19.9,0.03c1.41-0.01,2.86-0.26,4.22-0.64
			c2.11-0.58,3.59-2.18,4.51-4.02c1.14-2.3,1.1-4.8-0.22-7.12c-1.31-2.3-3.15-3.98-5.93-4.04
			C143.1,128.58,139.15,128.64,135.19,128.64z"/>
		<path fill="#FFFFFF" d="M83.93,90.72c0,0.62,0,1.1,0,1.57c0,21.72-0.05,43.45,0.02,65.17c0.03,8.31,2.79,15.56,8.84,21.48
			c3.49,3.41,7.47,5.95,12.12,7.35c2.89,0.87,5.84,1.44,8.91,1.43c14.67-0.05,29.33-0.02,44-0.02c0.48,0,0.96,0,1.63,0
			c0,0.47,0,0.89,0,1.31c0,3.56,0.05,7.12-0.01,10.68c-0.06,3.44-0.77,6.71-2.89,9.53c-1.73,2.3-4,3.88-6.77,4.63
			c-1.28,0.35-2.66,0.49-3.99,0.49c-25.46,0.03-50.92,0.06-76.37-0.02c-4.49-0.01-7.89-2.32-10.26-6.17
			c-1.6-2.6-2.13-5.38-2.12-8.41c0.04-32-0.05-64.01,0.09-96.01c0.03-6.11,3.94-11,9.92-12.51c1.29-0.33,2.66-0.46,4-0.47
			C75.29,90.68,79.53,90.72,83.93,90.72z"/>
		<path fill="#FFFFFF" d="M186.38,63.75c0-1.51,0-3,0-4.26c1.39,1.39,2.88,2.88,4.26,4.26C189.46,63.75,187.95,63.75,186.38,63.75z"
			/>
		<path d="M151.2,106.82c8.99,0,17.98,0.02,26.96-0.01c5.47-0.02,10.19,6.44,7.23,11.66c-1.72,3.04-4.19,4.64-7.62,4.65
			c-17.78,0.03-35.55,0-53.33,0.02c-4.82,0-9.43-5.07-7.76-10.32c1.21-3.8,4.05-6,8.03-6C133.54,106.81,142.37,106.82,151.2,106.82z
			"/>
		<path d="M151.31,101.29c-9.23,0-18.46,0-27.69,0c-3.12,0-6.07-2.59-6.88-5.62c-0.94-3.51,0.08-6.25,2.67-8.58
			c1.47-1.33,3.34-1.82,5.18-1.83c17.82-0.07,35.65-0.1,53.47,0c4.83,0.03,8.36,3.95,8.24,8.48c-0.11,3.97-4.11,7.68-7.65,7.61
			C169.54,101.17,160.42,101.29,151.31,101.29z"/>
		<path d="M135.19,128.64c3.96,0,7.91-0.06,11.87,0.02c2.79,0.06,4.62,1.73,5.93,4.04c1.32,2.32,1.36,4.82,0.22,7.12
			c-0.92,1.84-2.4,3.43-4.51,4.02c-1.36,0.38-2.81,0.62-4.22,0.64c-6.63,0.06-13.27,0.22-19.9-0.03c-5.31-0.21-8.19-3.23-8.22-8.2
			c-0.02-4.23,3.41-7.76,7.56-7.63c3.75,0.12,7.51,0.02,11.27,0.02C135.19,128.63,135.19,128.64,135.19,128.64z"/>
	</g>
</g>
</svg>
