<?xml version="1.0" encoding="utf-8"?>
<!-- Generator: Adobe Illustrator 27.8.0, SVG Export Plug-In . SVG Version: 6.00 Build 0)  -->
<svg version="1.1" id="Capa_1" xmlns="http://www.w3.org/2000/svg" xmlns:xlink="http://www.w3.org/1999/xlink" x="0px" y="0px"
	 viewBox="0 0 259.2 259.2" enable-background="new 0 0 259.2 259.2" xml:space="preserve">
<g>
	<g>
		<path fill="#FFFFFF" d="M0,259.2C0,172.81,0,86.41,0,0c86.39,0,172.78,0,259.2,0c0,86.39,0,172.79,0,259.2
			C172.81,259.2,86.41,259.2,0,259.2z M129.81,176.75c1.68,2.25,3.29,4.36,4.85,6.52c3.42,4.74,6.78,9.53,10.24,14.25
			c2.02,2.76,4.1,5.48,6.32,8.08c3.14,3.67,7.12,6.35,11.46,8.35c4.29,1.98,8.91,2.94,13.66,3.11c6.79,0.24,13.23-1.14,19.17-4.48
			c4.66-2.62,8.55-6.13,11.77-10.45c2.24-3.01,3.85-6.34,5.12-9.79c0.86-2.32,1.24-4.85,1.52-7.32c0.71-6.13,0.18-12.1-2.23-17.91
			c-2.44-5.88-6.08-10.74-10.92-14.84c-4.19-3.56-9.05-5.76-14.24-7.22c-2.53-0.71-5.25-0.92-7.89-1.01
			c-4.06-0.13-8.07,0.36-11.94,1.77c-2.65,0.97-5.32,1.85-7.67,3.47c-0.71,0.49-1.5,0.89-2.35,1.39c-1.22-1.73-2.34-3.41-3.56-5.03
			c-0.57-0.76-0.46-1.31,0.05-2.01c2.71-3.78,5.37-7.61,8.07-11.39c2.89-4.05,5.82-8.06,8.7-12.11c1.85-2.59,3.62-5.24,5.47-7.83
			c2.54-3.57,5.12-7.1,7.67-10.66c1.9-2.65,3.68-5.4,5.67-7.98c3.29-4.28,5.72-8.99,7.17-14.17c0.55-1.97,0.69-4.06,1-6.1
			c0.55-3.55,0.24-7.1-0.43-10.59c-0.85-4.47-2.37-8.73-4.99-12.5c-1.54-2.22-3.24-4.32-4.92-6.43c-1.79-2.26-5.82-2.6-8,0.56
			c-1.67,2.42-3.48,4.74-5.19,7.13c-2.2,3.07-4.39,6.16-6.56,9.25c-2.56,3.64-5.07,7.32-7.66,10.95c-2.9,4.08-5.89,8.11-8.79,12.19
			c-2.56,3.6-5.02,7.26-7.58,10.86c-2.97,4.18-6.02,8.3-9,12.47c-2.34,3.26-4.65,6.55-6.96,9.84c-2.4,3.42-4.77,6.86-7.18,10.27
			c-3.17,4.48-6.37,8.94-9.56,13.41c-2.17,3.05-4.36,6.08-6.47,9.17c-0.5,0.73-0.89,0.58-1.45,0.25c-1.54-0.9-3.02-1.92-4.63-2.65
			c-4.78-2.16-9.76-3.61-15.06-3.55c-3.73,0.04-7.39,0.49-11.02,1.59c-5.45,1.65-10.24,4.38-14.37,8.2
			c-3.35,3.1-6.05,6.74-8.05,10.89c-1.95,4.06-3.23,8.3-3.48,12.79c-0.34,6.06,0.23,11.98,2.84,17.62c1.38,2.99,2.93,5.87,5.03,8.37
			c3.47,4.14,7.51,7.59,12.46,9.97c3.95,1.9,8.05,3.07,12.33,3.46c7.11,0.65,13.95-0.45,20.36-3.8c3.26-1.71,6.28-3.74,8.8-6.41
			c1.99-2.11,3.87-4.34,5.62-6.66c3.28-4.35,6.44-8.79,9.63-13.21C125.03,183.5,127.39,180.16,129.81,176.75z M76.38,42.02
			c-0.66,0.32-1.88,0.63-2.73,1.37c-2.69,2.35-4.77,5.26-6.45,8.38c-2.61,4.83-4.29,9.99-4.6,15.52c-0.38,6.68,0.7,13.11,3.82,19.06
			c1.44,2.73,3.26,5.27,5.01,7.83c2.11,3.09,4.32,6.1,6.49,9.15c3.64,5.13,7.28,10.25,10.91,15.39c1.63,2.31,3.19,4.66,4.82,6.96
			c2.93,4.12,5.91,8.19,8.82,12.32c1.06,1.51,2.1,1.59,3.16,0.08c1.28-1.82,2.56-3.64,3.81-5.48c2.64-3.88,5.25-7.78,7.88-11.66
			c2.65-3.92,5.32-7.83,7.99-11.73c0.56-0.82,0.58-1.6,0-2.43c-2.04-2.94-4.03-5.92-6.11-8.84c-2.49-3.5-5.05-6.95-7.55-10.43
			c-2.11-2.94-4.2-5.89-6.3-8.84c-2.49-3.5-4.97-7.01-7.46-10.5c-3.09-4.34-6.19-8.67-9.27-13.01c-2.57-3.63-5.16-7.26-7.66-10.94
			C79.94,42.7,78.53,42.23,76.38,42.02z"/>
		<path d="M129.81,176.75c-2.43,3.41-4.78,6.75-7.18,10.07c-3.19,4.42-6.35,8.86-9.63,13.21c-1.75,2.32-3.63,4.55-5.62,6.66
			c-2.51,2.68-5.53,4.7-8.8,6.41c-6.42,3.36-13.25,4.45-20.36,3.8c-4.29-0.39-8.39-1.57-12.33-3.46c-4.96-2.39-9-5.83-12.46-9.97
			c-2.09-2.5-3.64-5.38-5.03-8.37c-2.61-5.63-3.17-11.55-2.84-17.62c0.25-4.49,1.52-8.73,3.48-12.79c2-4.15,4.7-7.79,8.05-10.89
			c4.13-3.82,8.91-6.55,14.37-8.2c3.63-1.1,7.29-1.55,11.02-1.59c5.3-0.06,10.28,1.38,15.06,3.55c1.61,0.73,3.1,1.75,4.63,2.65
			c0.56,0.33,0.96,0.47,1.45-0.25c2.11-3.09,4.3-6.12,6.47-9.17c3.18-4.47,6.39-8.93,9.56-13.41c2.41-3.41,4.78-6.85,7.18-10.27
			c2.31-3.29,4.62-6.57,6.96-9.84c2.99-4.17,6.03-8.29,9-12.47c2.56-3.6,5.02-7.26,7.58-10.86c2.9-4.08,5.88-8.11,8.79-12.19
			c2.58-3.63,5.1-7.31,7.66-10.95c2.17-3.09,4.36-6.18,6.56-9.25c1.71-2.39,3.53-4.71,5.19-7.13c2.18-3.17,6.21-2.82,8-0.56
			c1.68,2.12,3.38,4.22,4.92,6.43c2.62,3.77,4.14,8.03,4.99,12.5c0.66,3.49,0.97,7.03,0.43,10.59c-0.31,2.04-0.45,4.13-1,6.1
			c-1.45,5.18-3.88,9.89-7.17,14.17c-1.99,2.59-3.77,5.33-5.67,7.98c-2.55,3.56-5.13,7.09-7.67,10.66
			c-1.85,2.59-3.62,5.24-5.47,7.83c-2.88,4.05-5.81,8.06-8.7,12.11c-2.7,3.79-5.36,7.61-8.07,11.39c-0.51,0.71-0.62,1.26-0.05,2.01
			c1.22,1.62,2.35,3.3,3.56,5.03c0.86-0.5,1.64-0.9,2.35-1.39c2.35-1.62,5.02-2.5,7.67-3.47c3.88-1.41,7.88-1.9,11.94-1.77
			c2.65,0.09,5.36,0.3,7.89,1.01c5.19,1.46,10.04,3.66,14.24,7.22c4.83,4.1,8.48,8.96,10.92,14.84c2.41,5.81,2.94,11.78,2.23,17.91
			c-0.29,2.47-0.67,5.01-1.52,7.32c-1.28,3.45-2.88,6.78-5.12,9.79c-3.22,4.32-7.11,7.83-11.77,10.45
			c-5.94,3.33-12.38,4.71-19.17,4.48c-4.75-0.16-9.37-1.13-13.66-3.11c-4.33-2-8.31-4.68-11.46-8.35c-2.22-2.6-4.3-5.32-6.32-8.08
			c-3.46-4.72-6.82-9.51-10.24-14.25C133.1,181.11,131.49,179,129.81,176.75z M99.76,180.79c0.31-10.05-8.19-18.16-17.9-18.13
			c-9.49,0.03-17.98,8.08-17.86,18c0.13,9.91,7.71,17.8,17.87,17.86C91.76,198.59,99.77,190.87,99.76,180.79z M159.95,180.67
			c-0.07,10.03,7.74,17.81,17.75,17.84c10.15,0.03,17.95-7.84,17.99-18.06c0.04-9.51-8.15-17.83-17.95-17.79
			C168.19,162.71,159.71,170.6,159.95,180.67z"/>
		<path d="M76.38,42.02c2.15,0.21,3.56,0.68,4.58,2.17c2.5,3.68,5.09,7.31,7.66,10.94c3.08,4.35,6.18,8.67,9.27,13.01
			c2.49,3.5,4.97,7,7.46,10.5c2.1,2.95,4.19,5.91,6.3,8.84c2.51,3.49,5.07,6.93,7.55,10.43c2.07,2.92,4.06,5.9,6.11,8.84
			c0.57,0.83,0.56,1.61,0,2.43c-2.67,3.91-5.33,7.82-7.99,11.73c-2.63,3.88-5.24,7.78-7.88,11.66c-1.25,1.84-2.53,3.66-3.81,5.48
			c-1.06,1.51-2.09,1.43-3.16-0.08c-2.91-4.13-5.89-8.21-8.82-12.32c-1.64-2.3-3.2-4.65-4.82-6.96
			c-3.63-5.14-7.27-10.26-10.91-15.39c-2.16-3.05-4.38-6.06-6.49-9.15c-1.75-2.56-3.57-5.1-5.01-7.83
			c-3.12-5.95-4.21-12.37-3.82-19.06c0.32-5.53,1.99-10.7,4.6-15.52c1.68-3.11,3.77-6.02,6.45-8.38
			C74.5,42.65,75.72,42.33,76.38,42.02z"/>
		<path fill="#FFFFFF" d="M99.76,180.79c0.01,10.08-8.01,17.8-17.89,17.73c-10.16-0.06-17.74-7.95-17.87-17.86
			c-0.13-9.92,8.37-17.97,17.86-18C91.57,162.64,100.07,170.74,99.76,180.79z"/>
		<path fill="#FFFFFF" d="M159.95,180.67c-0.24-10.07,8.24-17.96,17.79-18c9.8-0.04,17.98,8.28,17.95,17.79
			c-0.04,10.22-7.83,18.09-17.99,18.06C167.68,198.48,159.88,190.7,159.95,180.67z"/>
	</g>
</g>
</svg>
