<?xml version="1.0" encoding="utf-8"?>
<!-- Generator: Adobe Illustrator 27.8.0, SVG Export Plug-In . SVG Version: 6.00 Build 0)  -->
<svg version="1.1" id="Capa_1" xmlns="http://www.w3.org/2000/svg" xmlns:xlink="http://www.w3.org/1999/xlink" x="0px" y="0px"
	 viewBox="0 0 259.2 259.2" enable-background="new 0 0 259.2 259.2" xml:space="preserve">
<g>
	<g>
		<path fill="#FFFFFF" d="M0,259.2C0,172.81,0,86.41,0,0c86.38,0,172.77,0,259.2,0c0,86.39,0,172.79,0,259.2
			C172.82,259.2,86.41,259.2,0,259.2z M42.44,136.93c0,0-0.01,0-0.01,0c0,16.88,0.05,33.76-0.03,50.63
			c-0.02,4.6,0.96,8.91,3.28,12.8c4.78,8.01,11.87,12.57,21.29,12.65c18.7,0.16,37.4,0.05,56.11,0.04c0.47,0,0.97-0.04,1.41-0.19
			c0.95-0.32,1.22-1.19,0.64-2c-2.46-3.46-3.56-7.31-3.56-11.55c0.03-25.68,0.08-51.35-0.02-77.03
			c-0.04-10.4,8.68-19.55,19.39-19.36c8.11,0.15,16.22,0.03,24.34,0.03c1.71,0,2.11-0.41,2.11-2.13c0-4.48,0.04-8.96-0.02-13.44
			c-0.02-1.79-0.13-3.6-0.45-5.35c-1.85-10.04-7.76-16.61-17.32-19.97c-1.17-0.41-1.69-0.04-1.88,1.21
			c-0.42,2.87-0.88,5.7-2.21,8.37c-4.11,8.21-10.82,12.5-19.84,12.66c-13.82,0.25-27.65,0.08-41.48,0.07
			c-3.57,0-7.01-0.8-10.12-2.49c-7.33-4-11.4-10.2-11.96-18.62c-0.08-1.14-0.68-1.64-1.76-1.24c-1.86,0.7-3.79,1.32-5.48,2.34
			c-4.28,2.58-7.65,6.08-9.85,10.64c-1.53,3.16-2.57,6.43-2.57,9.97C42.44,102.29,42.44,119.61,42.44,136.93z M217.03,160.97
			C217.03,160.97,217.03,160.97,217.03,160.97c-0.01-13.32,0-26.64-0.02-39.96c0-0.9-0.16-1.83-0.43-2.69
			c-1.77-5.8-6.95-9.54-13.18-9.54c-20.34,0-40.68,0-61.02,0.01c-1.08,0-2.15,0.06-3.23,0.15c-6.33,0.54-11.61,6.16-11.62,12.5
			c-0.03,26.4-0.04,52.8,0.06,79.19c0.01,1.95,0.56,4.14,1.55,5.81c2.54,4.28,6.42,6.64,11.56,6.63c5.63-0.02,11.27,0,16.9,0
			c15.43,0,30.85-0.06,46.28,0.03c7.33,0.04,13.26-6.36,13.19-13.13C216.93,186.96,217.03,173.96,217.03,160.97z M104.77,78.42
			c7.07,0,14.15,0.02,21.22-0.02c1.15-0.01,2.33-0.09,3.43-0.37c7.07-1.77,12.48-8.32,12.37-15.94c-0.13-8.81-7.2-15.98-16.02-15.98
			c-13.91-0.01-27.82-0.01-41.72,0.01c-1.19,0-2.42,0.04-3.56,0.33c-4.8,1.22-8.47,3.95-10.77,8.4c-3.15,6.08-2.3,12.63,1.95,17.8
			c3.19,3.88,7.47,5.83,12.6,5.78C91.1,78.38,97.93,78.42,104.77,78.42z"/>
		<path d="M42.44,136.93c0-17.32,0-34.64,0-51.95c0-3.54,1.04-6.81,2.57-9.97c2.21-4.56,5.58-8.05,9.85-10.64
			c1.68-1.02,3.62-1.64,5.48-2.34c1.07-0.4,1.68,0.1,1.76,1.24c0.55,8.41,4.63,14.61,11.96,18.62c3.11,1.7,6.55,2.49,10.12,2.49
			c13.83,0.01,27.66,0.18,41.48-0.07c9.01-0.16,15.73-4.45,19.84-12.66c1.34-2.67,1.79-5.5,2.21-8.37c0.18-1.25,0.71-1.62,1.88-1.21
			c9.56,3.36,15.47,9.93,17.32,19.97c0.32,1.75,0.43,3.56,0.45,5.35c0.06,4.48,0.02,8.96,0.02,13.44c0,1.72-0.41,2.13-2.11,2.13
			c-8.11,0-16.23,0.12-24.34-0.03c-10.71-0.2-19.43,8.96-19.39,19.36c0.09,25.68,0.05,51.35,0.02,77.03c0,4.25,1.09,8.1,3.56,11.55
			c0.58,0.81,0.31,1.69-0.64,2c-0.44,0.15-0.94,0.19-1.41,0.19c-18.7,0.01-37.41,0.12-56.11-0.04c-9.41-0.08-16.51-4.64-21.29-12.65
			c-2.32-3.89-3.3-8.2-3.28-12.8c0.08-16.88,0.03-33.76,0.03-50.63C42.44,136.93,42.44,136.93,42.44,136.93z"/>
		<path d="M217.03,160.97c0,13-0.1,26,0.04,39c0.07,6.77-5.86,13.17-13.19,13.13c-15.43-0.08-30.85-0.03-46.28-0.03
			c-5.63,0-11.27-0.02-16.9,0c-5.14,0.02-9.02-2.34-11.56-6.63c-0.99-1.67-1.54-3.85-1.55-5.81c-0.1-26.4-0.08-52.8-0.06-79.19
			c0.01-6.34,5.29-11.96,11.62-12.5c1.07-0.09,2.15-0.15,3.23-0.15c20.34-0.01,40.68-0.01,61.02-0.01c6.23,0,11.41,3.73,13.18,9.54
			c0.26,0.86,0.42,1.79,0.43,2.69C217.03,134.33,217.02,147.65,217.03,160.97C217.03,160.97,217.03,160.97,217.03,160.97z
			 M172.06,182.58c6.15,0,12.31,0,18.46,0c0.72,0,1.44,0.03,2.16-0.01c1.39-0.08,2.24-0.93,2.67-2.21c0.4-1.19-0.1-2.32-1.06-2.95
			c-0.75-0.48-1.79-0.71-2.7-0.71c-12.87-0.04-25.73-0.04-38.6-0.01c-0.88,0-1.83,0.22-2.64,0.6c-0.97,0.45-1.46,2.16-1.16,3.28
			c0.28,1.06,1.65,2,2.97,2C158.8,182.58,165.43,182.58,172.06,182.58z M172.26,145.18c6.71,0,13.41-0.01,20.12,0
			c1.41,0,2.33-0.67,2.87-1.93c0.5-1.14,0.2-2.25-0.68-2.92c-0.69-0.53-1.72-0.86-2.61-0.87c-11.7-0.06-23.39-0.04-35.09-0.04
			c-1.64,0-3.27-0.03-4.91,0.01c-1.67,0.03-2.76,1.08-2.8,2.63c-0.05,1.91,1.12,3.11,3.1,3.11
			C158.92,145.19,165.59,145.18,172.26,145.18z"/>
		<path d="M104.77,78.42c-6.83,0-13.67-0.05-20.5,0.01c-5.13,0.04-9.41-1.9-12.6-5.78c-4.26-5.17-5.1-11.72-1.95-17.8
			c2.3-4.45,5.98-7.18,10.77-8.4c1.14-0.29,2.37-0.33,3.56-0.33c13.91-0.02,27.82-0.02,41.72-0.01c8.82,0.01,15.89,7.17,16.02,15.98
			c0.11,7.62-5.3,14.17-12.37,15.94c-1.11,0.28-2.29,0.36-3.43,0.37C118.92,78.44,111.84,78.42,104.77,78.42z"/>
		<path fill="#FFFFFF" d="M172.06,182.58c-6.63,0-13.27,0-19.9,0c-1.33,0-2.69-0.94-2.97-2c-0.3-1.12,0.2-2.83,1.16-3.28
			c0.8-0.37,1.75-0.59,2.64-0.6c12.87-0.04,25.73-0.04,38.6,0.01c0.91,0,1.95,0.23,2.7,0.71c0.97,0.63,1.47,1.75,1.06,2.95
			c-0.43,1.28-1.27,2.13-2.67,2.21c-0.72,0.04-1.44,0.01-2.16,0.01C184.37,182.58,178.21,182.58,172.06,182.58z"/>
		<path fill="#FFFFFF" d="M172.26,145.18c-6.67,0-13.33,0.01-20,0c-1.98,0-3.15-1.2-3.1-3.11c0.04-1.55,1.13-2.6,2.8-2.63
			c1.64-0.03,3.27-0.01,4.91-0.01c11.7,0,23.39-0.02,35.09,0.04c0.88,0,1.91,0.34,2.61,0.87c0.89,0.68,1.18,1.78,0.68,2.92
			c-0.54,1.25-1.47,1.93-2.87,1.93C185.67,145.17,178.96,145.18,172.26,145.18z"/>
	</g>
</g>
</svg>
