<?xml version="1.0" encoding="utf-8"?>
<!-- Generator: Adobe Illustrator 27.8.0, SVG Export Plug-In . SVG Version: 6.00 Build 0)  -->
<svg version="1.1" id="Capa_1" xmlns="http://www.w3.org/2000/svg" xmlns:xlink="http://www.w3.org/1999/xlink" x="0px" y="0px"
	 viewBox="0 0 259.2 259.2" enable-background="new 0 0 259.2 259.2" xml:space="preserve">
<g>
	<g>
		<path fill="#FFFFFF" d="M0,0c86.39,0,172.78,0,259.2,0c0,86.38,0,172.77,0,259.2c-86.38,0-172.79,0-259.2,0C0,172.82,0,86.41,0,0z
			 M196.4,119c0-18.28,0.01-36.57-0.01-54.85c0-1.71-0.07-3.43-0.25-5.13c-0.41-3.78-1.89-7.13-4.42-9.97
			c-0.79-0.88-1.66-1.71-2.57-2.45c-1.43-1.17-2.81-2.46-4.42-3.33c-3.07-1.66-6.49-2.19-9.93-2.19
			c-33.25-0.04-66.5-0.03-99.76-0.01c-5.03,0-10.06,0.1-15.08,0.27c-3.68,0.13-6.96,1.61-9.84,3.79c-2.31,1.75-4.31,3.83-5.85,6.39
			c-1.89,3.14-2.98,6.47-2.99,10.06c-0.05,38.09-0.03,76.17-0.02,114.26c0,2.99,0.74,5.87,2.02,8.55c1.07,2.22,2.61,4.12,4.38,5.88
			c1.71,1.71,3.55,3.19,5.71,4.19c3.62,1.66,7.48,2.18,11.45,2.17c35.49-0.03,70.98-0.01,106.47-0.03c1.55,0,3.1-0.17,4.65-0.23
			c3.76-0.14,7.2-1.03,10.46-3.13c2.8-1.81,5.13-4,6.93-6.67c2.01-2.98,3.03-6.45,3.04-10.07C196.43,157.33,196.4,138.16,196.4,119z
			 M127.88,201.17c-17.18,0-34.37,0-51.55,0c-0.32,0-0.64-0.02-0.96-0.01c-1.8,0.09-2.88,1.39-2.27,3.08
			c0.67,1.86,1.42,3.77,2.55,5.35c1.66,2.31,3.89,4.06,6.37,5.58c3.69,2.27,7.62,3.01,11.84,3.01c28.37-0.02,56.75,0,85.12-0.02
			c4.51,0,8.93-0.42,13.17-2.26c2.83-1.22,5.84-1.95,8.28-4.02c1.65-1.41,3.56-2.51,5.21-3.92c2.73-2.34,5.08-5.08,6.87-8.18
			c1.66-2.87,3.2-5.83,4.1-9.09c0.92-3.32,1.57-6.69,1.58-10.12c0.05-28.92,0.03-57.84,0.02-86.76c0-4.26-0.6-8.37-3.14-12.03
			c-1.24-1.79-2.33-3.64-4.03-5.07c-1.87-1.56-3.81-2.97-6.13-3.74c-2.28-0.76-3.69,0.28-3.69,2.68c0,33.44,0,66.88,0,100.32
			c0,3.18,0.03,6.33-1.11,9.42c-0.87,2.35-1.61,4.71-3.2,6.74c-1.63,2.09-3.41,4.09-5.64,5.44c-3.63,2.2-7.61,3.6-11.96,3.59
			C162.16,201.17,145.02,201.17,127.88,201.17z"/>
		<path d="M196.4,119c0,19.16,0.03,38.33-0.02,57.49c-0.01,3.62-1.04,7.09-3.04,10.07c-1.8,2.67-4.13,4.87-6.93,6.67
			c-3.26,2.1-6.7,2.99-10.46,3.13c-1.55,0.06-3.1,0.23-4.65,0.23c-35.49,0.01-70.98,0-106.47,0.03c-3.98,0-7.83-0.51-11.45-2.17
			c-2.16-1-3.99-2.48-5.71-4.19c-1.77-1.77-3.32-3.67-4.38-5.88c-1.29-2.67-2.02-5.55-2.02-8.55c-0.02-38.09-0.03-76.17,0.02-114.26
			c0-3.59,1.1-6.92,2.99-10.06c1.54-2.56,3.55-4.64,5.85-6.39c2.88-2.18,6.15-3.67,9.84-3.79c5.02-0.17,10.05-0.27,15.08-0.27
			c33.25-0.02,66.5-0.03,99.76,0.01c3.44,0,6.86,0.53,9.93,2.19c1.6,0.87,2.99,2.16,4.42,3.33c0.92,0.75,1.79,1.57,2.57,2.45
			c2.53,2.85,4.01,6.19,4.42,9.97c0.18,1.7,0.25,3.42,0.25,5.13C196.41,82.43,196.4,100.72,196.4,119z M118.82,179.29
			c18.66,0,37.32,0,55.98,0c2.61,0,4.55-1.95,4.55-4.59c0-30.84,0-61.68,0-92.52c0-6.56,0-13.12,0-19.68c0-1.75-1.47-3.63-3.12-3.91
			c-0.98-0.17-1.98-0.27-2.97-0.27c-36.32-0.01-72.64-0.01-108.97-0.01c-0.36,0-0.72-0.02-1.08,0.01c-2.75,0.17-4.12,1.24-4.62,3.64
			c-0.1,0.5-0.09,1.03-0.09,1.55c0,36.8,0,73.6,0,110.4c0,0.28-0.01,0.56,0,0.84c0.1,2.6,1.76,4.57,4.69,4.56
			C81.74,179.25,100.28,179.29,118.82,179.29z"/>
		<path d="M127.88,201.17c17.14,0,34.29-0.01,51.43,0.01c4.36,0,8.33-1.39,11.96-3.59c2.23-1.35,4-3.35,5.64-5.44
			c1.58-2.03,2.32-4.38,3.2-6.74c1.14-3.08,1.11-6.24,1.11-9.42c0-33.44,0-66.88,0-100.32c0-2.4,1.4-3.44,3.69-2.68
			c2.32,0.78,4.27,2.18,6.13,3.74c1.7,1.43,2.79,3.28,4.03,5.07c2.54,3.66,3.13,7.77,3.14,12.03c0.02,28.92,0.03,57.84-0.02,86.76
			c-0.01,3.43-0.65,6.8-1.58,10.12c-0.9,3.25-2.44,6.21-4.1,9.09c-1.79,3.1-4.14,5.84-6.87,8.18c-1.65,1.41-3.56,2.51-5.21,3.92
			c-2.44,2.07-5.45,2.8-8.28,4.02c-4.24,1.83-8.67,2.25-13.17,2.26c-28.37,0.02-56.74,0-85.12,0.02c-4.22,0-8.15-0.74-11.84-3.01
			c-2.48-1.53-4.71-3.27-6.37-5.58c-1.14-1.58-1.89-3.49-2.55-5.35c-0.61-1.7,0.47-3,2.27-3.08c0.32-0.02,0.64,0.01,0.96,0.01
			C93.51,201.17,110.69,201.17,127.88,201.17z"/>
		<path fill="#FFFFFF" d="M118.82,179.29c-18.54,0-37.08-0.03-55.62,0.03c-2.93,0.01-4.59-1.96-4.69-4.56c-0.01-0.28,0-0.56,0-0.84
			c0-36.8,0-73.6,0-110.4c0-0.52-0.02-1.05,0.09-1.55c0.5-2.4,1.88-3.47,4.62-3.64c0.36-0.02,0.72-0.01,1.08-0.01
			c36.32,0,72.64,0,108.97,0.01c0.99,0,1.99,0.11,2.97,0.27c1.65,0.28,3.12,2.15,3.12,3.91c0.01,6.56,0,13.12,0,19.68
			c0,30.84,0,61.68,0,92.52c0,2.63-1.93,4.59-4.55,4.59C156.14,179.29,137.48,179.29,118.82,179.29z M108.88,120.27
			c-2.21-2.87-4.56-5.96-6.96-9.03c-2.37-3.04-6.79-4.47-10.64-2.36c-5.13,2.8-5.78,8.42-3.56,12.19c1,1.7,2.27,3.25,3.46,4.83
			c1.94,2.57,3.89,5.13,5.87,7.67c1.85,2.38,3.59,4.86,5.63,7.08c2.56,2.8,8.11,2.47,10.61,0.39c1.37-1.14,2.51-2.55,3.77-3.83
			c1.62-1.65,3.26-3.28,4.9-4.91c1.55-1.55,3.1-3.09,4.65-4.63c1.69-1.69,3.38-3.38,5.08-5.07c1.44-1.43,2.89-2.85,4.32-4.29
			c1.63-1.64,3.23-3.31,4.86-4.94c1.5-1.49,3.05-2.92,4.54-4.42c2.58-2.6,5.01-5.37,7.73-7.81c2.52-2.25,2.96-5.08,2.37-7.96
			c-1.43-6.99-9.7-8.64-14.24-4.69c-1.23,1.07-2.33,2.28-3.49,3.43c-1.49,1.49-2.98,2.98-4.47,4.47c-1.72,1.72-3.44,3.44-5.16,5.15
			c-1.46,1.46-2.93,2.92-4.39,4.38c-1.75,1.75-3.49,3.5-5.24,5.24c-1.41,1.4-2.8,2.83-4.24,4.19
			C112.5,117.01,110.69,118.62,108.88,120.27z"/>
		<path d="M108.88,120.27c1.81-1.65,3.62-3.26,5.39-4.93c1.45-1.36,2.84-2.79,4.24-4.19c1.75-1.74,3.49-3.49,5.24-5.24
			c1.46-1.46,2.93-2.92,4.39-4.38c1.72-1.72,3.44-3.43,5.16-5.15c1.49-1.49,2.98-2.98,4.47-4.47c1.16-1.15,2.26-2.36,3.49-3.43
			c4.54-3.95,12.81-2.3,14.24,4.69c0.59,2.88,0.15,5.71-2.37,7.96c-2.72,2.44-5.15,5.21-7.73,7.81c-1.49,1.5-3.04,2.93-4.54,4.42
			c-1.64,1.63-3.23,3.3-4.86,4.94c-1.43,1.44-2.88,2.86-4.32,4.29c-1.69,1.69-3.38,3.38-5.08,5.07c-1.55,1.55-3.11,3.09-4.65,4.63
			c-1.64,1.63-3.27,3.27-4.9,4.91c-1.26,1.28-2.4,2.68-3.77,3.83c-2.49,2.09-8.04,2.41-10.61-0.39c-2.03-2.22-3.78-4.69-5.63-7.08
			c-1.97-2.54-3.93-5.1-5.87-7.67c-1.19-1.58-2.46-3.13-3.46-4.83c-2.22-3.77-1.57-9.39,3.56-12.19c3.86-2.11,8.28-0.67,10.64,2.36
			C104.31,114.31,106.67,117.4,108.88,120.27z"/>
	</g>
</g>
</svg>
