<?xml version="1.0" encoding="utf-8"?>
<!-- Generator: Adobe Illustrator 27.8.0, SVG Export Plug-In . SVG Version: 6.00 Build 0)  -->
<svg version="1.1" id="Capa_1" xmlns="http://www.w3.org/2000/svg" xmlns:xlink="http://www.w3.org/1999/xlink" x="0px" y="0px"
	 viewBox="0 0 259.2 259.2" enable-background="new 0 0 259.2 259.2" xml:space="preserve">
<g>
	<g>
		<path fill="#FFFFFF" d="M0,0c86.39,0,172.79,0,259.2,0c0,86.38,0,172.77,0,259.2c-86.39,0-172.79,0-259.2,0C0,172.82,0,86.41,0,0z
			 M216.96,113.17c-1.4-13.96-10.5-32.95-26.7-48.16c-16.17-15.18-35.63-23.33-57.89-23.91c-50.69-1.32-88.98,38.33-91.04,83.21
			c-1.42,30.94,10.05,56.6,34.55,75.64c21.11,16.4,45.37,21.6,71.52,16.44c21.29-4.2,38.78-15.2,52.12-32.33
			C213.83,165.67,219.85,144.7,216.96,113.17z"/>
		<path d="M216.96,113.17c2.89,31.53-3.13,52.51-17.44,70.89c-13.33,17.13-30.83,28.13-52.12,32.33
			c-26.15,5.16-50.41-0.04-71.52-16.44c-24.5-19.04-35.97-44.7-34.55-75.64c2.05-44.88,40.35-84.53,91.04-83.21
			c22.26,0.58,41.71,8.73,57.89,23.91C206.47,80.22,215.56,99.21,216.96,113.17z M132.17,200.77c18.86-0.64,34.99-7.73,48.13-21
			c13.16-13.29,20.29-29.59,20.57-48.37c0.32-21.72-7.54-40.24-23.71-54.86c-12.7-11.48-27.79-17.47-44.99-18.11
			C132.17,105.86,132.17,153.29,132.17,200.77z"/>
		<path fill="#FFFFFF" d="M132.17,200.77c0-47.48,0-94.92,0-142.34c17.2,0.63,32.29,6.63,44.99,18.11
			c16.17,14.61,24.04,33.14,23.71,54.86c-0.28,18.79-7.41,35.08-20.57,48.37C167.16,193.05,151.03,200.13,132.17,200.77z"/>
	</g>
</g>
</svg>
