<?xml version="1.0" encoding="utf-8"?>
<!-- Generator: Adobe Illustrator 27.8.0, SVG Export Plug-In . SVG Version: 6.00 Build 0)  -->
<svg version="1.1" id="Capa_1" xmlns="http://www.w3.org/2000/svg" xmlns:xlink="http://www.w3.org/1999/xlink" x="0px" y="0px"
	 viewBox="0 0 259.2 259.2" enable-background="new 0 0 259.2 259.2" xml:space="preserve">
<g>
	<g>
		<path fill="#FFFFFF" d="M259.2,259.2c-86.39,0-172.79,0-259.2,0C0,172.81,0,86.42,0,0c86.39,0,172.79,0,259.2,0
			C259.2,86.39,259.2,172.79,259.2,259.2z M129.08,39.55c-1.8,0.08-3.59,0.12-5.39,0.25c-7.09,0.53-13.99,1.9-20.4,5.11
			c-5.06,2.53-9.51,5.94-13.11,10.26c-2.33,2.8-4.53,5.85-6.09,9.12c-2.48,5.17-3.46,10.81-3,16.57c0.42,5.21,1.34,10.32,5.01,14.44
			c2.5,2.81,5.26,5.14,9.06,6.11c7.33,1.87,14.58-2.73,16.46-9.51c1.21-4.36,0.38-8.4-1.34-12.34c-1.16-2.66-2.71-5.14-3.91-7.78
			c-0.91-1.99-1.58-4.1-1.24-6.36c0.48-3.22,2.63-5.26,5-7.16c2.69-2.15,5.92-2.96,9.2-3.38c7.06-0.9,13.5,0.45,19.03,5.36
			c4.39,3.9,6.97,8.76,8.38,14.32c1.09,4.3,1.12,8.71,0.87,13.11c-0.13,2.38-0.44,4.79-1.01,7.1c-1.45,5.87-3.89,11.37-6.62,16.74
			c-1.93,3.81-3.94,7.57-5.8,11.42c-2.24,4.63-4.51,9.25-6.48,13.99c-1.71,4.11-3.45,8.28-4.43,12.59
			c-1.34,5.89-1.99,11.94-2.89,17.93c-0.25,1.69-0.33,3.4-0.48,5.11c-0.23,2.56,1.15,4.64,3.63,4.93c2.12,0.25,4.32,0.22,6.45-0.01
			c2.11-0.22,3.18-1.64,3.34-3.75c0.16-2.1,0.32-4.21,0.48-6.31c0.36-4.47,1.25-8.83,2.92-13c0.47-1.18,0.89-2.42,1.58-3.48
			c2.04-3.09,4.08-6.18,6.33-9.12c3.3-4.3,6.66-8.56,10.2-12.66c4.91-5.68,9.87-11.29,14.01-17.59c3.67-5.58,6.51-11.48,8.07-18
			c2.44-10.25,1.97-20.19-2.84-29.75c-3.01-5.99-7.2-11.02-12.48-15.07c-3.42-2.63-7.31-4.63-11.4-5.97
			C143.36,40.55,136.28,39.6,129.08,39.55z M145.06,202.03c0.11-9.03-7.06-17.7-17.77-17.64c-9.94,0.06-17.5,7.55-17.51,17.57
			c-0.01,10.09,7.56,17.5,17.49,17.57C137.65,219.61,145.1,211.25,145.06,202.03z"/>
		<path d="M129.08,39.55c7.2,0.05,14.28,1,21.12,3.23c4.09,1.34,7.98,3.34,11.4,5.97c5.28,4.05,9.47,9.08,12.48,15.07
			c4.81,9.56,5.28,19.5,2.84,29.75c-1.55,6.52-4.39,12.42-8.07,18c-4.14,6.3-9.11,11.91-14.01,17.59c-3.54,4.1-6.91,8.36-10.2,12.66
			c-2.25,2.93-4.3,6.03-6.33,9.12c-0.69,1.05-1.11,2.29-1.58,3.48c-1.67,4.17-2.57,8.53-2.92,13c-0.17,2.1-0.32,4.21-0.48,6.31
			c-0.16,2.11-1.23,3.52-3.34,3.75c-2.13,0.23-4.32,0.26-6.45,0.01c-2.48-0.29-3.85-2.37-3.63-4.93c0.15-1.7,0.23-3.42,0.48-5.11
			c0.9-5.99,1.55-12.04,2.89-17.93c0.98-4.31,2.72-8.49,4.43-12.59c1.98-4.74,4.24-9.37,6.48-13.99c1.86-3.84,3.87-7.61,5.8-11.42
			c2.73-5.37,5.17-10.88,6.62-16.74c0.57-2.31,0.88-4.72,1.01-7.1c0.25-4.39,0.22-8.81-0.87-13.11c-1.41-5.56-3.99-10.42-8.38-14.32
			c-5.53-4.91-11.97-6.26-19.03-5.36c-3.28,0.42-6.51,1.23-9.2,3.38c-2.37,1.89-4.52,3.94-5,7.16c-0.34,2.27,0.33,4.37,1.24,6.36
			c1.21,2.64,2.75,5.13,3.91,7.78c1.72,3.94,2.55,7.98,1.34,12.34c-1.88,6.78-9.13,11.38-16.46,9.51c-3.81-0.97-6.56-3.3-9.06-6.11
			c-3.67-4.12-4.59-9.22-5.01-14.44c-0.46-5.76,0.52-11.4,3-16.57c1.57-3.27,3.76-6.32,6.09-9.12c3.61-4.32,8.06-7.73,13.11-10.26
			c6.42-3.21,13.31-4.58,20.4-5.11C125.48,39.67,127.28,39.63,129.08,39.55z"/>
		<path d="M145.06,202.03c0.04,9.22-7.41,17.58-17.79,17.51c-9.93-0.07-17.51-7.48-17.49-17.57c0.01-10.02,7.58-17.51,17.51-17.57
			C138,184.33,145.18,193,145.06,202.03z"/>
	</g>
</g>
</svg>
