<?xml version="1.0" encoding="utf-8"?>
<!-- Generator: Adobe Illustrator 27.8.0, SVG Export Plug-In . SVG Version: 6.00 Build 0)  -->
<svg version="1.1" id="Capa_1" xmlns="http://www.w3.org/2000/svg" xmlns:xlink="http://www.w3.org/1999/xlink" x="0px" y="0px"
	 viewBox="0 0 1024 1024" enable-background="new 0 0 1024 1024" xml:space="preserve">
<g>
	<g>
		<path fill="#FFFEFE" d="M0.34-0.16c339.77,0,679.54,0.01,1019.31-0.09c3.75,0,4.59,0.84,4.59,4.59
			c-0.1,338.27-0.1,676.54,0,1014.82c0,3.75-0.84,4.59-4.59,4.59c-338.27-0.1-676.54-0.1-1014.82,0c-3.75,0-4.59-0.84-4.59-4.59
			C0.35,679.39,0.34,339.61,0.34-0.16z M332.9,559.8c-0.98,2.67-0.69,5.47-0.76,8.22c-0.16,6.25,0.66,12.51-0.33,18.74
			c-2.18-1.51-4.24-3.22-6.55-4.5c-7.29-4.01-15.62,0.1-17.06,8.32c-1,5.65,0.8,10.51,4.34,14.83c3.63,4.44,8.17,7.81,13.04,10.75
			c11.93,7.2,24.99,11.7,38.28,15.47c33.61,9.53,68.02,14.08,102.8,16.37c59.27,3.91,118.15,1.6,176.29-11.37
			c20.13-4.49,40.07-9.94,57.8-21.04c12.81-8.02,19.71-19.04,19.67-35.04c-0.3-132.94-0.23-265.89-0.07-398.83
			c0.02-14.05-6.3-24.09-17.11-31.95c-12.84-9.34-27.55-14.7-42.6-18.99c-34.87-9.93-70.61-14.54-106.75-16.25
			c-56.37-2.66-112.46-0.83-167.85,11.28c-19.71,4.31-38.97,9.97-56.53,20.19c-14.66,8.52-23,20.38-22.74,38.52
			c0.63,43.8,0.17,87.62,0.19,131.44c0.03,54.64,0.1,109.29,0.16,163.93c0,2.29-0.31,4.6,1.48,6.6
			c13.53,15.15,18.8,33.67,21.79,53.19C331.42,546.37,331.02,553.23,332.9,559.8z M513.72,910.74c0,0.01,0,0.02,0,0.03
			c122.3,0,244.6-0.2,366.89,0.18c23.2,0.07,47.84-18.14,47.44-47.18c-0.45-32.82-0.13-65.65-0.12-98.47
			c0-10.99-2.99-21.01-9.74-29.74c-1.76-2.28-2.29-4.46-2.1-7.3c2.48-37.38-11.53-67.88-40.54-90.78
			c-37.85-29.87-89.65-31.95-131.4-6.23c-31.68,19.52-49.43,48.07-52.81,85.18c-0.41,4.5-1.67,5.34-5.81,5.33
			c-50.65-0.13-101.3-0.07-151.96-0.07c-53.48,0-106.97,0-160.45,0.01c-2.27,0-4,0.35-5.14-2.93c-7.14-20.6-19.89-37.04-38.14-49.06
			c-27-17.79-56.84-27.83-88.76-32.01c-1.65-0.22-2.96-0.26-2.89-2.39c0.06-1.81-0.33-3.76,2.45-3.9c0.98-0.05,1.94-0.46,2.9-0.71
			c44.97-11.81,70.72-59.42,55.79-103.13c-13.92-40.76-59.45-62.75-101.85-49.18c-40.16,12.85-63.72,52.33-54.04,92.24
			c7.51,30.97,27.2,51.1,57.95,60.12c1.88,0.55,3.94,0.6,3.51,3.66c-0.36,2.56-1.53,3.09-3.88,3.28
			c-19.95,1.65-38.92,6.86-56.47,16.55c-15.29,8.43-27.35,20.02-33.4,36.9c-4.58,12.8-4.11,25.85-1.35,38.89
			c0.71,3.35,0.44,6.06-1.48,8.92c-4.79,7.09-6.87,15.15-6.9,23.59c-0.13,34.82-0.07,69.65-0.09,104.47c0,9.3,2.85,17.74,8.26,25.19
			c9.02,12.43,21.23,18.59,36.74,18.58C268.79,910.71,391.25,910.74,513.72,910.74z M522.26,700.13c0,0.05,0,0.1,0,0.14
			c37.82,0,75.65,0.03,113.47-0.02c11.66-0.02,23.32-0.1,34.97-0.47c5.3-0.17,9.05-3.39,10.93-8.24c1.8-4.65,0.87-9.14-2.18-13.14
			c-3.42-4.47-7.99-5.9-13.53-5.9c-84.31,0.12-168.62,0.13-252.93,0.16c-11.83,0-23.66-0.09-35.49,0.04
			c-10.11,0.11-16.38,7.78-14.23,17.13c1.51,6.57,6.58,10.24,15.04,10.25C426.28,700.17,474.27,700.13,522.26,700.13z M861.24,365.2
			c-0.02,0-0.04,0-0.06,0c0,11.49,0,22.99,0,34.48c0,21.82-0.05,43.65,0.03,65.47c0.03,8.99,5.8,14.84,14.09,14.64
			c7.8-0.19,12.85-6.13,12.85-15.23c0.01-52.48,0.01-104.95,0.01-157.43c0-13.66,0.05-27.32-0.01-40.98
			c-0.03-6.65-3.08-11.43-8.33-13.48c-9.33-3.64-18.54,3-18.56,13.57C861.2,299.23,861.24,332.22,861.24,365.2z M141.68,359.35
			c-0.04,0-0.08,0-0.12,0c0,30.63-0.02,61.26,0.03,91.89c0,2.31,0.17,4.68,0.74,6.9c1.01,3.96,3.83,6.16,7.87,6.54
			c6.9,0.64,18.87-10.45,18.87-17.43c0-57.6-0.01-115.19-0.06-172.79c0-3.65-0.14-7.32-0.54-10.95c-0.45-4.19-2.69-7.38-6.26-9.68
			c-8.49-5.46-20.75,0.35-20.64,12.63C141.87,297.42,141.68,328.39,141.68,359.35z M893.37,192.03
			c-0.18-23.24-18.55-41.44-41.62-41.25c-22.62,0.19-41.01,18.62-40.9,40.99c0.11,23.33,18.4,41.77,41.37,41.7
			C874.69,233.42,893.55,214.42,893.37,192.03z M177.96,233.2c23.15-0.55,41.64-19.39,41.23-41.99
			c-0.42-22.96-19.43-41.04-42.49-40.41c-22.81,0.62-40.74,19.58-40.11,42.39C137.2,215.65,155.89,233.72,177.96,233.2z M852,496.42
			c-23.01-0.04-41.32,18.11-41.4,41.03c-0.08,22.62,17.95,40.73,40.53,40.71c22.74-0.01,42.04-18.76,41.99-40.8
			C893.07,515.07,874.37,496.46,852,496.42z"/>
		<path fill="#1D112A" d="M513.72,910.74c-122.46,0-244.93-0.03-367.39,0.04c-15.51,0.01-27.72-6.15-36.74-18.58
			c-5.41-7.45-8.26-15.89-8.26-25.19c0.02-34.82-0.05-69.65,0.09-104.47c0.03-8.44,2.12-16.49,6.9-23.59
			c1.93-2.86,2.19-5.57,1.48-8.92c-2.76-13.04-3.23-26.09,1.35-38.89c6.05-16.88,18.11-28.47,33.4-36.9
			c17.55-9.69,36.53-14.9,56.47-16.55c2.35-0.19,3.52-0.73,3.88-3.28c0.43-3.06-1.63-3.1-3.51-3.66
			c-30.74-9.02-50.43-29.15-57.95-60.12c-9.68-39.91,13.88-79.39,54.04-92.24c42.4-13.57,87.92,8.41,101.85,49.18
			c14.93,43.71-10.83,91.33-55.79,103.13c-0.97,0.25-1.93,0.66-2.9,0.71c-2.78,0.14-2.39,2.09-2.45,3.9
			c-0.07,2.13,1.25,2.18,2.89,2.39c31.92,4.19,61.75,14.22,88.76,32.01c18.25,12.02,31,28.46,38.14,49.06
			c1.14,3.28,2.87,2.93,5.14,2.93c53.48,0,106.97,0,160.45-0.01c50.65,0,101.3-0.06,151.96,0.07c4.14,0.01,5.4-0.83,5.81-5.33
			c3.39-37.11,21.13-65.67,52.81-85.18c41.75-25.72,93.55-23.64,131.4,6.23c29.01,22.9,43.02,53.4,40.54,90.78
			c-0.19,2.84,0.34,5.02,2.1,7.3c6.75,8.72,9.74,18.75,9.74,29.74c-0.01,32.82-0.33,65.65,0.12,98.47
			c0.39,29.04-24.24,47.25-47.44,47.18c-122.3-0.38-244.59-0.18-366.89-0.18C513.72,910.76,513.72,910.75,513.72,910.74z
			 M238.29,505.62l0.11,0.07c-3.35-2.78-7.55-2.12-11.34-2.42c-20.26-1.6-37.22,5.3-48.77,22.15
			c-15.24,22.23-11.47,47.43,8.83,66.38c0.4,0.51,0.72,1.12,1.21,1.52c25.02,20.68,61.37,15.58,79.36-11.45
			c20.24-30.42,2.02-67.6-26.82-75.95C240.01,505.76,239.24,504.93,238.29,505.62z M869.19,670.63l0.16-0.02
			c-0.47-0.67-0.87-1.4-1.42-2c-40.25-43.93-108.08-30.29-134.92,10.21c-7.91,11.94-13.42,24.69-13.83,39.3
			c-0.08,2.73,0.48,3.85,3.45,3.66c4.47-0.29,8.97-0.16,13.46-0.21c1.83,0.07,3.65,0.21,5.48,0.21c39.79,0.01,79.59,0,119.38-0.01
			c7.99,0,15.99-0.14,23.97,0.1c3.59,0.11,4.79-1.18,4.33-4.59c-0.44-3.29-0.44-6.66-1.13-9.89c-2.91-13.51-8.21-25.88-17.93-36.02
			C869.85,671.13,869.52,670.88,869.19,670.63z M281.95,676.69c-19.71-7.52-40.05-12.13-61.2-12.27
			c-20.33-0.14-39.92,3.64-58.39,12.43c-0.92,0.35-1.89,0.61-2.75,1.08c-15.16,8.29-26.85,18.74-24.38,38.32
			c0.47,3.7,1.11,5.73,5.81,5.71c53.98-0.22,107.97-0.16,161.95-0.18c10.5,0,20.99-0.13,31.49,0c3.19,0.04,3.91-0.93,2.41-3.66
			c-0.64-1.17-1.24-2.37-2.01-3.45C321.58,695.99,303.42,684.02,281.95,676.69z M145.55,749.83c-9.79,0.15-15.58,5.5-16.44,14.82
			c-1.23,13.44-0.67,26.91-0.54,40.35c0.19,20.6-0.79,41.21,0.61,61.78c0.48,7.04,4.14,12.08,11.1,14.34
			c5.22,2.5,10.8,1.42,16.21,1.42c176.57,0.04,353.14,0.01,529.71-0.01c64.63-0.01,129.26,0.03,193.89,0
			c5.15,0,10.35-0.26,13.87-4.99c2.09-0.02,2.57-1.82,3.41-3.16c2.61-4.14,2.66-8.83,2.67-13.48c0.02-20.11,0.08-40.23-0.04-60.34
			c-0.08-12.46,0.62-24.95-0.73-37.36c-0.67-6.21-3.85-10.83-10.34-12.46c-2.56-1.75-5.49-1.11-8.25-1.11
			c-44.31-0.06-88.62-0.08-132.93-0.08c-181.08,0.01-362.16,0.04-543.24,0.07C184.86,749.63,165.21,749.76,145.55,749.83z"/>
		<path fill="#1D112A" d="M332.9,559.8c-1.88-6.57-1.48-13.42-2.51-20.11c-2.99-19.51-8.26-38.04-21.79-53.19
			c-1.79-2-1.47-4.31-1.48-6.6c-0.07-54.64-0.13-109.29-0.16-163.93c-0.02-43.81,0.44-87.63-0.19-131.44
			c-0.26-18.13,8.08-29.99,22.74-38.52c17.56-10.21,36.83-15.88,56.53-20.19c55.39-12.11,111.48-13.94,167.85-11.28
			c36.14,1.71,71.88,6.31,106.75,16.25c15.05,4.29,29.77,9.65,42.6,18.99c10.8,7.86,17.12,17.9,17.11,31.95
			c-0.16,132.94-0.22,265.89,0.07,398.83c0.04,16.01-6.86,27.03-19.67,35.04c-17.73,11.09-37.67,16.55-57.8,21.04
			c-58.15,12.97-117.02,15.27-176.29,11.37c-34.78-2.29-69.2-6.84-102.8-16.37c-13.29-3.77-26.35-8.27-38.28-15.47
			c-4.87-2.94-9.41-6.31-13.04-10.75c-3.54-4.32-5.33-9.18-4.34-14.83c1.45-8.22,9.77-12.33,17.06-8.32
			c2.31,1.27,4.38,2.98,6.56,4.5c7.33,5.89,15.59,10.03,24.49,12.94c15.79,6.3,32.38,9.61,48.99,12.69
			c28.29,5.25,56.85,8.37,85.61,9.27c34.62,1.08,69.15-0.02,103.53-4.82c21.56-3.01,42.98-6.6,63.77-13.14
			c11.37-3.58,22.72-7.42,32.41-14.77c1.99-0.72,1.98-2.3,1.7-3.99c0.82-1.59,0.79-3.17-0.03-4.75c0.7-1.69,0.41-3.41,0.17-5.13
			c0.13-0.81,0.36-1.63,0.37-2.44c0.03-25.98,0.05-51.95,0.01-77.93c-0.01-3.14-0.41-6.29-0.63-9.43c0-5.06,0-10.12,0-15.38
			c-8.68,4.46-17.65,8.32-27.06,11.03c-43.75,12.62-88.56,17.88-133.94,18.91c-47.75,1.09-95.16-1.98-141.94-12.13
			c-18.83-4.08-37.48-8.78-55.01-18.04c-0.74,5.23,0.1,9.84,0.11,14.44c-0.26,10.45-0.57,20.91-0.77,31.36
			C333.31,530.24,333.12,545.02,332.9,559.8z M692.28,369.78l0.04-0.2c0.69-3.67,0.06-7.33-0.09-10.99c0-4.76,0-9.51,0-14.38
			c-3.41,1.7-6.9,3.58-10.51,5.18c-3.79,1.67-7.64,3.22-11.56,4.55c-44.21,15.02-90.04,20.16-136.36,21.73
			c-27.29,0.93-54.57-0.09-81.78-2.71c-30.19-2.91-59.93-7.96-88.96-16.92c-9.96-3.07-19.48-7.12-28.74-12.06c0,5.09,0,9.73,0,14.38
			c-0.12,1.98-0.36,3.96-0.36,5.93c0.01,19.58,0.08,39.16,0.09,58.74c0.01,16.37,1.18,18.14,16.5,24.18
			c1.84,0.72,3.79,1.16,5.68,1.73c1.49,0.68,2.93,1.47,4.46,2.01c21.39,7.52,43.57,11.51,65.91,14.82
			c19.9,2.95,39.93,4.65,60.02,5.54c28.63,1.27,57.27,0.96,85.78-1.75c17.89-1.7,35.75-4.24,53.42-7.77
			c20.06-4.01,39.84-8.89,58.15-18.4c3.15-1.64,6.64-3.01,8.26-6.63c0.3-1.48,0.9-2.95,0.05-4.44c1.29-8.24,0.54-16.54,0.57-24.8
			C692.89,394.94,693.59,382.34,692.28,369.78z M334.39,227.59c-1.4,26.77-0.2,53.57-0.79,80.34c-0.05,2.2,1.18,3.87,2.75,5.07
			c6.07,4.65,12.4,8.88,19.99,10.74c1.49,0.7,2.94,1.52,4.48,2.09c12.48,4.61,25.34,7.8,38.34,10.59
			c28.34,6.1,57.04,9.8,85.92,11.14c44.33,2.07,88.49-0.38,132.16-8.86c21.53-4.18,42.88-9.11,62.66-19.05
			c4.53-2.27,9.4-4.23,12.24-8.9c0.09-0.55,0.18-1.1,0.27-1.64c1.26-9.61,0.37-19.27,0.42-28.9c0.08-16.98,0.63-33.97-0.65-50.94
			c0-4.92,0-9.84,0-14.8c-3.78,1.73-7.78,3.68-11.88,5.41c-4.27,1.8-8.56,3.65-12.98,5.04c-40.28,12.65-81.79,18.01-123.77,19.65
			c-39.97,1.56-79.91,0.52-119.53-5.73c-30.41-4.8-60.68-10.21-88.54-24.33c-0.35-0.18-0.86-0.02-1.69-0.02
			C334,218.98,334.19,223.29,334.39,227.59z M684.12,187.72c4.23-1.43,7.47-4.27,7.99-8.62c0.47-3.95-3.58-5.57-6.11-7.83
			c-0.49-0.44-1.11-0.73-1.67-1.09c-9.35-5.96-19.76-9.46-30.27-12.52c-32.87-9.57-66.65-13.71-100.68-15.73
			c-22.74-1.34-45.52-1.42-68.34-0.45c-29.94,1.27-59.61,4.21-88.96,10.27c-17.91,3.7-35.66,8.07-51.78,17.12
			c-12.63,7.1-12.61,11.68-0.33,19.26c16.82,9.18,35.27,13.6,53.74,17.54c26.51,5.66,53.35,9.07,80.47,10.44
			c52.9,2.67,105.39,0.27,157.19-11.49C652.22,200.8,668.89,196.3,684.12,187.72z"/>
		<path fill="#1D112A" d="M522.26,700.13c-47.99,0-95.97,0.04-143.96-0.03c-8.47-0.01-13.53-3.68-15.04-10.25
			c-2.15-9.35,4.12-17.02,14.23-17.13c11.83-0.13,23.66-0.03,35.49-0.04c84.31-0.03,168.62-0.04,252.93-0.16
			c5.54-0.01,10.11,1.42,13.53,5.9c3.05,3.99,3.98,8.49,2.18,13.14c-1.88,4.85-5.62,8.06-10.93,8.24
			c-11.65,0.37-23.31,0.45-34.97,0.47c-37.82,0.05-75.65,0.02-113.47,0.02C522.26,700.22,522.26,700.18,522.26,700.13z"/>
		<path fill="#1D112A" d="M861.24,365.2c0-32.98-0.04-65.97,0.02-98.95c0.02-10.57,9.24-17.2,18.56-13.57
			c5.25,2.05,8.3,6.82,8.33,13.48c0.06,13.66,0.01,27.32,0.01,40.98c0,52.48,0,104.95-0.01,157.43c0,9.1-5.05,15.05-12.85,15.23
			c-8.29,0.2-14.06-5.65-14.09-14.64c-0.08-21.82-0.03-43.65-0.03-65.47c0-11.49,0-22.99,0-34.48
			C861.2,365.2,861.22,365.2,861.24,365.2z"/>
		<path fill="#1D112A" d="M141.68,359.35c0-30.96,0.19-61.93-0.09-92.88c-0.11-12.29,12.14-18.1,20.64-12.63
			c3.57,2.29,5.8,5.49,6.26,9.68c0.39,3.63,0.53,7.3,0.54,10.95c0.04,57.6,0.05,115.19,0.06,172.79c0,6.98-11.98,18.07-18.87,17.43
			c-4.04-0.38-6.86-2.58-7.87-6.54c-0.57-2.22-0.74-4.6-0.74-6.9c-0.05-30.63-0.03-61.26-0.03-91.89
			C141.59,359.35,141.63,359.35,141.68,359.35z"/>
		<path fill="#1D112A" d="M893.37,192.03c0.18,22.39-18.68,41.39-41.15,41.45c-22.97,0.06-41.26-18.37-41.37-41.7
			c-0.11-22.37,18.28-40.8,40.9-40.99C874.82,150.59,893.19,168.79,893.37,192.03z M836.98,191.6c-0.01,8.62,6.84,15.68,15.25,15.72
			c8.49,0.04,15.01-6.35,14.98-14.68c-0.02-8.19-7.06-15.45-15.1-15.59C843.79,176.91,836.99,183.45,836.98,191.6z"/>
		<path fill="#1D112A" d="M177.96,233.2c-22.07,0.53-40.76-17.54-41.38-40.01c-0.63-22.81,17.3-41.77,40.11-42.39
			c23.06-0.63,42.07,17.45,42.49,40.41C219.6,213.81,201.11,232.65,177.96,233.2z M178.15,207.06c8.57-0.02,15.14-6.43,14.96-14.61
			c-0.19-8.82-7.04-15.6-15.61-15.46c-8.15,0.13-15.16,7.09-15.05,14.92C162.57,200.65,169.24,207.08,178.15,207.06z"/>
		<path fill="#1D112A" d="M852,496.42c22.37,0.04,41.06,18.65,41.12,40.94c0.05,22.04-19.24,40.79-41.99,40.8
			c-22.58,0.01-40.61-18.09-40.53-40.71C810.68,514.53,828.99,496.38,852,496.42z M852.05,522.92c-8.09-0.15-14.87,6.19-14.99,14.04
			c-0.14,8.65,6.31,15.36,14.79,15.37c7.97,0.01,14.89-6.55,15.03-14.25C867.03,530.25,860.01,523.07,852.05,522.92z"/>
		<path fill="#894D99" d="M332.9,559.8c0.22-14.78,0.41-29.56,0.68-44.34c0.19-10.46,0.51-20.91,0.77-31.36
			c7.35,4.83,13.79,11.01,21.98,14.56c-0.01,33.68-0.01,67.36-0.02,101.04c-8.9-2.91-17.16-7.04-24.49-12.94
			c0.98-6.23,0.17-12.5,0.33-18.74C332.21,565.26,331.92,562.47,332.9,559.8z"/>
		<path fill="#B789BD" d="M893.96,877.55c-3.52,4.73-8.72,4.99-13.87,4.99c-64.63,0.03-129.26,0-193.89,0
			c-176.57,0.01-353.14,0.05-529.71,0.01c-5.41,0-10.99,1.08-16.21-1.42c0.33-12.12,1.18-24.26,0.81-36.36
			c-0.27-8.96-0.66-17.92-0.67-26.89c-0.02-15.32,0.1-30.64-0.08-45.95c-0.09-7.85-0.45-15.65,5.21-22.09
			c19.65-0.07,39.3-0.21,58.95-0.21c181.08-0.04,362.16-0.06,543.24-0.07c44.31,0,88.62,0.02,132.93,0.08
			c2.77,0,5.69-0.64,8.26,1.11c4.94,5.01,4.56,11.32,4.3,17.59c-0.54,12.57,0.73,25.1,0.16,37.7c-0.92,20.22,1.37,40.46,0.72,60.71
			C894,870.34,894.01,873.95,893.96,877.55z M199.35,807.77c-0.34,0.33-0.62,0.75-1.02,0.97c-6.93,3.87-9.53,8.87-7.98,15.39
			c1.4,5.87,6.6,9.42,14.02,9.42c45.15-0.01,90.3-0.04,135.46-0.1c6.58-0.01,12.28-5.8,12.5-12.33c0.23-6.79-3.77-10.52-9.25-13.28
			c3.95-1.65,7.33-4.06,9.13-8.04c4.27-9.46-2.02-18.12-13.41-18.14c-44.64-0.06-89.28,0-133.92,0.05c-1.81,0-3.67,0.21-5.41,0.69
			c-8.85,2.41-12.05,10.83-7.5,18.83C193.76,804.36,196.99,805.49,199.35,807.77z M444.55,764.36c-30.5,0.99-49.58,26.19-47.7,52.25
			c2.13,29.48,26.01,49.11,55.8,46c26.88-2.81,45.66-25.64,44.23-51.38C495.32,783.25,471.01,762.08,444.55,764.36z M792.5,793
			c0-0.06,0-0.13,0-0.19c12.81,0,25.63,0.13,38.44-0.05c7.08-0.1,11.33-4.51,11.41-11.15c0.08-6.92-4.29-11.77-11.4-11.8
			c-25.64-0.11-51.27-0.05-76.91,0.09c-4.09,0.02-7.76,1.43-10.01,5.39c-4.67,8.22,0.39,17.48,10.02,17.66
			C766.86,793.18,779.68,793,792.5,793z M792.7,864.86c0-0.03,0-0.05,0-0.08c12.33,0,24.65,0.1,36.98-0.04
			c8.19-0.09,12.79-4.42,12.85-11.36c0.06-6.61-5.74-12.03-13.11-11.92c-24.65,0.37-49.31,0.16-73.96,0.22
			c-8.27,0.02-13.25,4.53-13.12,11.67c0.13,7.13,5.11,11.47,13.38,11.5C768.05,864.89,780.38,864.86,792.7,864.86z M676.17,833.02
			c0-0.08,0-0.16,0-0.24c11.3,0,22.6-0.01,33.91,0.01c2.95,0,5.49-0.93,7.71-2.91c4.03-3.59,4.32-8.19,2.94-12.81
			c-1.71-5.73-6.48-7.84-11.97-7.92c-21.94-0.34-43.89-0.74-65.82,0.28c-8.04,0.37-12.04,5.08-11.78,12.43
			c0.24,6.87,4.84,11.06,12.6,11.13C654.55,833.1,665.36,833.02,676.17,833.02z M574.34,858.25c7.82-0.1,15.66,0.61,23.47-0.31
			c8.22-0.97,11.84-4.76,11.51-12.05c-0.32-7.01-4.79-11.18-12.48-11.23c-14-0.09-27.99-0.06-41.99,0.04
			c-7.51,0.06-12.37,4.66-12.4,11.43c-0.04,7.11,4.77,11.92,12.4,12.1C561.34,858.36,567.84,858.25,574.34,858.25z M575.49,791.61
			c0,0.01,0,0.02,0,0.03c7.16,0,14.32,0.11,21.48-0.03c7.74-0.15,12.46-4.53,12.45-11.27c0-7.11-4.77-12.31-12.15-12.34
			c-14.48-0.07-28.97,0.13-43.46,0.49c-7.07,0.18-11.03,4.65-10.96,11.52c0.07,6.85,4.62,11.47,11.65,11.58
			C561.5,791.7,568.49,791.61,575.49,791.61z"/>
		<path fill="#B482B8" d="M240.86,505.92c28.85,8.35,47.07,45.53,26.82,75.95c-17.99,27.03-54.34,32.13-79.36,11.45
			c-0.49-0.4-0.81-1.01-1.21-1.52c1.57-0.63,0.7-1.49,0.21-2.3c-1.46-2.41-2.98-4.79-4.38-7.24c-17.23-30.16-0.6-65.05,30.73-74.68
			c8.16-2.51,16.46-1.64,24.73-1.89c0,0-0.11-0.07-0.1-0.07C239.05,506.56,239.87,506.93,240.86,505.92z"/>
		<path fill="#B482B8" d="M870.18,671.38c9.72,10.14,15.02,22.51,17.93,36.02c0.7,3.23,0.69,6.6,1.13,9.89
			c0.45,3.4-0.74,4.7-4.33,4.59c-7.98-0.25-15.98-0.1-23.97-0.1c-39.79,0-79.59,0.01-119.38,0.01c-1.83,0-3.65-0.14-5.48-0.21
			c4.54-21.45,15.77-38.78,34.73-49.53c28.49-16.16,58.52-16.53,88.98-5.1c3.19,1.2,5.71,4.21,9.55,3.68c0,0-0.16,0.02-0.15,0.02
			C869.52,670.88,869.85,671.13,870.18,671.38z"/>
		<path fill="#B482B8" d="M281.95,676.69c21.47,7.33,39.62,19.3,52.94,37.98c0.77,1.08,1.37,2.28,2.01,3.45
			c1.5,2.73,0.78,3.7-2.41,3.66c-10.5-0.13-20.99,0-31.49,0c-53.98,0.02-107.97-0.04-161.95,0.18c-4.69,0.02-5.34-2.01-5.81-5.71
			c-2.48-19.58,9.21-30.04,24.38-38.32c0.86-0.47,1.83-0.72,2.75-1.08c1.41,1.36,3.3,1.4,5.05,1.74
			c17.98,3.57,36.25,4.33,54.48,4.82c17.61,0.47,35.17-1.15,52.57-3.98C276.95,679.04,280.31,679.85,281.95,676.69z"/>
		<path fill="#FCFAFB" d="M869.34,670.61c-3.84,0.53-6.36-2.48-9.55-3.68c-30.45-11.43-60.48-11.06-88.98,5.1
			c-18.96,10.75-30.2,28.08-34.73,49.53c-4.49,0.05-8.99-0.08-13.46,0.21c-2.97,0.19-3.53-0.93-3.45-3.66
			c0.41-14.6,5.92-27.36,13.83-39.3c26.85-40.5,94.68-54.14,134.92-10.21C868.47,669.21,868.87,669.94,869.34,670.61z"/>
		<path fill="#FCFAFB" d="M281.95,676.69c-1.64,3.16-5.01,2.35-7.5,2.75c-17.39,2.83-34.95,4.45-52.57,3.98
			c-18.23-0.49-36.49-1.25-54.48-4.82c-1.75-0.35-3.64-0.38-5.05-1.74c18.47-8.79,38.06-12.57,58.39-12.43
			C241.9,664.56,262.24,669.16,281.95,676.69z"/>
		<path fill="#894D99" d="M145.55,749.83c-5.66,6.44-5.3,14.23-5.21,22.09c0.17,15.32,0.06,30.64,0.08,45.95
			c0.01,8.97,0.4,17.93,0.67,26.89c0.37,12.1-0.48,24.24-0.81,36.36c-6.96-2.26-10.62-7.29-11.1-14.34
			c-1.41-20.57-0.43-41.19-0.61-61.78c-0.12-13.45-0.69-26.91,0.54-40.35C129.97,755.34,135.76,749.99,145.55,749.83z"/>
		<path fill="#894D99" d="M893.96,877.55c0.05-3.6,0.03-7.2,0.15-10.8c0.65-20.25-1.64-40.49-0.72-60.71
			c0.57-12.6-0.69-25.14-0.16-37.7c0.27-6.27,0.64-12.58-4.3-17.59c6.49,1.62,9.66,6.25,10.34,12.45
			c1.35,12.41,0.65,24.9,0.73,37.36c0.13,20.11,0.07,40.23,0.04,60.34c-0.01,4.65-0.06,9.34-2.67,13.48
			C896.53,875.73,896.05,877.52,893.96,877.55z"/>
		<path fill="#FCFAFB" d="M238.39,505.69c-8.27,0.25-16.57-0.62-24.73,1.89c-31.33,9.63-47.96,44.53-30.73,74.68
			c1.4,2.45,2.92,4.83,4.38,7.24c0.49,0.81,1.36,1.67-0.21,2.3c-20.31-18.95-24.08-44.15-8.83-66.38
			c11.56-16.85,28.51-23.76,48.77-22.15C230.84,503.57,235.05,502.91,238.39,505.69z"/>
		<path fill="#FCFAFB" d="M240.86,505.92c-0.99,1.01-1.81,0.63-2.57-0.3C239.24,504.93,240.01,505.76,240.86,505.92z"/>
		<path fill="#FCFAFB" d="M870.18,671.38c-0.33-0.25-0.66-0.5-0.99-0.75C869.52,670.88,869.85,671.13,870.18,671.38z"/>
		<path fill="#B482B8" d="M356.31,599.7c0.01-33.68,0.01-67.36,0.02-101.04c19.52,6.07,39.4,10.39,59.66,13.36
			c29.3,4.29,58.74,6.58,88.3,7.5c18.96,0.59,37.9-0.34,56.84-1.6c29.55-1.97,58.82-5.79,87.67-12.45
			c12.18-2.81,23.97-6.89,34.56-13.85c3.04-2,5.39-4.95,8.85-6.36c0.22,3.14,0.63,6.29,0.63,9.43c0.05,25.98,0.02,51.95-0.01,77.93
			c0,0.81-0.24,1.63-0.37,2.44c0-24.1,0-48.19,0-72.29c-1.85,28.71-0.38,57.45-1.85,86.16c-9.7,7.35-21.04,11.19-32.41,14.77
			c-20.79,6.55-42.21,10.13-63.77,13.14c-34.38,4.8-68.91,5.9-103.53,4.82c-28.75-0.9-57.31-4.03-85.61-9.27
			C388.69,609.32,372.1,606,356.31,599.7z M644.71,526.73c-4,0.77-9.85,1.89-15.69,3.03c-10.07,1.97-20.18,3.73-30.18,6.03
			c-6.48,1.49-10,8.19-8.43,14.76c1.54,6.45,7.14,9.92,14.02,8.65c4.4-0.81,8.79-1.62,13.17-2.53c10.86-2.25,21.79-4.26,32.54-6.96
			c6.44-1.62,9.05-6.77,8.04-13.52C657.32,530.49,652.78,526.78,644.71,526.73z M425.22,559.66c8.8,0.17,13.95-4.16,14.71-10.68
			c0.69-5.9-3.78-11.79-10.44-13.17c-10.37-2.15-20.78-4.07-31.19-6.02c-4.4-0.82-8.81-1.54-13.24-2.21
			c-7.58-1.14-11.97,1.5-13.55,8.04c-1.4,5.8,2.05,12.53,7.92,14.37c4.72,1.48,9.66,2.28,14.53,3.29
			C405,555.56,416.05,557.79,425.22,559.66z"/>
		<path fill="#B482B8" d="M692.18,229.29c1.28,16.96,0.73,33.96,0.65,50.94c-0.05,9.63,0.85,19.28-0.42,28.9
			c0-20.09,0-40.18,0-60.27c-1,0.57-1.18,1.18-1.18,1.78c-0.02,18.97-0.02,37.95-0.02,56.92c0,1.16-0.12,2.36,0.93,3.21
			c-2.84,4.67-7.71,6.63-12.24,8.9c-19.78,9.93-41.13,14.87-62.66,19.05c-43.67,8.48-87.82,10.93-132.16,8.86
			c-28.89-1.35-57.58-5.05-85.92-11.14c-13-2.8-25.86-5.99-38.34-10.59c-1.54-0.57-2.99-1.39-4.48-2.09
			c-0.03-12.46-0.11-24.93-0.07-37.39c0.05-14.62,0.2-29.24,0.3-43.85c0.82,0.14,1.69,0.14,2.45,0.44
			c24.51,9.72,50.42,13.21,76.26,16.59c29.38,3.85,58.95,4.68,88.6,4.55c39.23-0.18,78.03-3.77,116.34-12.26
			c17.76-3.94,35.39-8.3,49.31-21.23C690.22,229.95,691.29,229.71,692.18,229.29z M658.28,280.96c0.01-8.04-6.28-13.25-14.21-11.73
			c-4.23,0.81-8.43,1.77-12.66,2.59c-10.73,2.06-21.48,3.97-32.19,6.14c-6.16,1.25-9.91,7.47-8.87,14.11
			c0.94,6.03,6.48,10.52,12.52,9.43c15.33-2.77,30.62-5.74,45.87-8.92C655.12,291.25,658.27,286.98,658.28,280.96z M426.97,301.75
			c7.03-0.12,12.14-4.6,12.67-10.22c0.64-6.71-3.25-12.39-9.66-13.65c-13.96-2.75-27.94-5.43-41.95-7.91
			c-2.38-0.42-4.81-1.19-7.36-0.69c-5.54,1.11-9.14,5.4-9.3,11.29c-0.16,5.9,3.37,10.62,9.82,12.08c11.31,2.55,22.7,4.77,34.08,7.06
			C419.48,300.56,423.74,301.2,426.97,301.75z"/>
		<path fill="#B482B8" d="M692.23,436.75c-1.62,3.62-5.1,4.99-8.26,6.63c-18.31,9.51-38.09,14.39-58.15,18.4
			c-17.67,3.53-35.53,6.07-53.42,7.77c-28.51,2.71-57.15,3.02-85.78,1.75c-20.09-0.89-40.12-2.59-60.02-5.54
			c-22.33-3.31-44.52-7.3-65.91-14.82c-1.53-0.54-2.98-1.34-4.46-2.01c0.07-25.11,0.14-50.22,0.2-75.34
			c0.99,0.13,2.05,0.07,2.94,0.43c24.32,9.74,50.06,13.07,75.7,16.74c16.12,2.31,32.38,3.34,48.66,4.27
			c29.48,1.68,58.91,0.87,88.27-1.63c20.86-1.78,41.53-5.11,62.05-9.44c21.17-4.48,41.95-9.65,58.18-25.36
			c0.15,3.66,0.78,7.32,0.09,10.99c-1.37,1.12-1.09,2.69-1.09,4.16c-0.01,19.79-0.01,39.57,0,59.36
			C691.22,434.39,690.93,435.8,692.23,436.75z M601.83,433.61c1.16,0,2.43,0.31,3.47-0.05c9.69-3.3,19.86-4.47,29.77-6.8
			c5.47-1.29,11.14-1.88,16.36-4.08c5.43-2.29,8.12-8.39,6.53-14.01c-1.52-5.34-6.8-9.6-11.84-8.68
			c-16.04,2.95-32.06,6.09-48.02,9.48c-5.73,1.22-9.85,7.57-8.76,12.76C590.95,429.86,595.75,433.99,601.83,433.61z M424.93,433.04
			c3.35-0.1,5.34-0.01,7.26-0.76c5.01-1.95,7.83-6.32,7.44-11.69c-0.42-5.89-4.08-10.3-10.57-11.59c-14.96-2.98-29.97-5.73-45-8.37
			c-6.51-1.14-10.96,1.81-12.53,7.69c-1.62,6.07,1.39,13.38,6.97,14.88C394.23,427.43,410.16,430.75,424.93,433.04z"/>
		<path fill="#FFFEFE" d="M684.12,187.72c-15.23,8.58-31.9,13.08-48.74,16.9c-51.8,11.76-104.29,14.16-157.19,11.49
			c-27.12-1.37-53.96-4.77-80.47-10.44c-18.48-3.95-36.92-8.37-53.74-17.54c0.5-3.86,3.72-5.26,6.49-6.88
			c6.34-3.72,13.2-6.31,20.23-8.39c39.5-11.65,80.05-16.54,121.04-17.8c40.64-1.25,81.17,0.63,121.27,7.91
			c21.77,3.95,43.49,8.31,63.29,18.91C679.17,183.41,682.42,184.57,684.12,187.72z"/>
		<path fill="#FCFAFB" d="M692.23,358.59c-16.23,15.71-37.01,20.88-58.18,25.36c-20.51,4.34-41.19,7.66-62.05,9.44
			c-29.36,2.51-58.79,3.31-88.27,1.63c-16.27-0.93-32.53-1.96-48.66-4.27c-25.64-3.67-51.38-7.01-75.7-16.74
			c-0.9-0.36-1.96-0.29-2.95-0.43c-7.62-4.72-14.12-11.08-22.12-15.25c0-4.65,0-9.29,0-14.38c9.26,4.94,18.78,8.99,28.74,12.06
			c29.03,8.96,58.77,14.01,88.96,16.92c27.22,2.62,54.49,3.63,81.78,2.71c46.32-1.57,92.15-6.71,136.36-21.73
			c3.92-1.33,7.77-2.88,11.56-4.55c3.61-1.59,7.1-3.48,10.51-5.18C692.23,349.08,692.23,353.84,692.23,358.59z"/>
		<path fill="#FCFAFB" d="M692.2,485.27c-3.46,1.41-5.81,4.36-8.85,6.36c-10.59,6.96-22.38,11.04-34.56,13.85
			c-28.85,6.66-58.12,10.48-87.67,12.45c-18.94,1.26-37.88,2.18-56.84,1.6c-29.56-0.92-59-3.2-88.3-7.5
			c-20.26-2.97-40.13-7.28-59.66-13.36c-8.19-3.55-14.64-9.73-21.98-14.56c-0.01-4.61-0.85-9.22-0.11-14.45
			c17.53,9.26,36.18,13.95,55.01,18.04c46.79,10.15,94.2,13.22,141.94,12.13c45.39-1.04,90.19-6.3,133.94-18.91
			c9.41-2.71,18.38-6.58,27.06-11.03C692.2,475.15,692.2,480.21,692.2,485.27z"/>
		<path fill="#FCFAFB" d="M692.18,229.29c-0.89,0.43-1.96,0.66-2.65,1.31c-13.93,12.93-31.55,17.29-49.31,21.23
			c-38.31,8.49-77.11,12.08-116.34,12.26c-29.64,0.13-59.22-0.71-88.6-4.55c-25.85-3.38-51.76-6.88-76.26-16.59
			c-0.76-0.3-1.63-0.3-2.45-0.43c-8.12-3.88-14.38-10.54-22.18-14.9c-0.2-4.3-0.39-8.61-0.6-13.09c0.83,0,1.34-0.15,1.69,0.02
			c27.86,14.12,58.13,19.53,88.54,24.33c39.63,6.26,79.57,7.29,119.53,5.73c41.98-1.64,83.49-7,123.77-19.65
			c4.42-1.39,8.7-3.23,12.98-5.04c4.1-1.73,8.1-3.68,11.88-5.41C692.18,219.45,692.18,224.37,692.18,229.29z"/>
		<path fill="#894D99" d="M684.12,187.72c-1.7-3.15-4.95-4.31-7.82-5.85c-19.81-10.6-41.52-14.95-63.29-18.91
			c-40.11-7.28-80.63-9.16-121.27-7.91c-40.99,1.26-81.54,6.15-121.04,17.8c-7.03,2.07-13.89,4.67-20.23,8.39
			c-2.76,1.62-5.99,3.02-6.49,6.88c-12.27-7.58-12.3-12.16,0.33-19.26c16.12-9.05,33.86-13.42,51.78-17.12
			c29.34-6.06,59.01-9,88.96-10.27c22.82-0.97,45.6-0.89,68.34,0.45c34.03,2.01,67.81,6.15,100.68,15.73
			c10.51,3.06,20.92,6.56,30.27,12.52c0.56,0.36,1.18,0.65,1.67,1.09c2.53,2.26,6.58,3.89,6.11,7.83
			C691.59,183.45,688.35,186.29,684.12,187.72z"/>
		<path fill="#894D99" d="M334.39,227.59c7.8,4.37,14.05,11.02,22.18,14.9c-0.1,14.62-0.25,29.23-0.3,43.85
			c-0.04,12.46,0.04,24.93,0.07,37.39c-7.59-1.85-13.92-6.08-19.99-10.74c-1.57-1.2-2.8-2.87-2.75-5.07
			C334.19,281.16,332.99,254.36,334.39,227.59z"/>
		<path fill="#894D99" d="M334.3,358.35c8.01,4.16,14.5,10.53,22.12,15.25c-0.07,25.11-0.14,50.22-0.2,75.34
			c-1.9-0.57-3.85-1-5.68-1.73c-15.33-6.04-16.49-7.81-16.5-24.18c-0.01-19.58-0.08-39.16-0.09-58.74
			C333.95,362.3,334.18,360.32,334.3,358.35z"/>
		<path fill="#B789BD" d="M690.61,588.94c1.47-28.7-0.01-57.44,1.85-86.16c0,24.1,0,48.19,0,72.29c0.24,1.72,0.53,3.44-0.17,5.13
			c0.01,1.58,0.02,3.16,0.02,4.75C692.59,586.64,692.61,588.22,690.61,588.94z"/>
		<path fill="#B789BD" d="M692.23,436.75c-1.29-0.95-1.01-2.36-1.01-3.66c-0.01-19.79-0.01-39.57,0-59.36
			c0-1.47-0.28-3.04,1.09-4.16c0,0-0.04,0.2-0.04,0.2c0,20.85,0,41.69,0,62.54C693.12,433.8,692.53,435.28,692.23,436.75z"/>
		<path fill="#B789BD" d="M692.14,310.76c-1.05-0.86-0.93-2.06-0.93-3.21c0-18.97,0-37.95,0.02-56.92c0-0.6,0.19-1.21,1.18-1.78
			c0,20.09,0,40.18,0,60.27C692.32,309.67,692.23,310.21,692.14,310.76z"/>
		<path fill="#B482B8" d="M692.28,432.32c0-20.85,0-41.69,0-62.54c1.31,12.56,0.61,25.16,0.57,37.73
			C692.82,415.77,693.57,424.08,692.28,432.32z"/>
		<path fill="#B482B8" d="M692.31,584.95c-0.01-1.58-0.02-3.16-0.02-4.75C693.11,581.78,693.13,583.36,692.31,584.95z"/>
		<path fill="#B482B8" d="M836.98,191.6c0.01-8.15,6.81-14.69,15.14-14.55c8.04,0.13,15.08,7.4,15.1,15.59
			c0.02,8.33-6.49,14.71-14.98,14.68C843.82,207.29,836.97,200.23,836.98,191.6z"/>
		<path fill="#B482B8" d="M178.15,207.06c-8.91,0.02-15.58-6.41-15.7-15.15c-0.11-7.83,6.9-14.79,15.05-14.92
			c8.57-0.14,15.42,6.64,15.61,15.46C193.29,200.63,186.72,207.05,178.15,207.06z"/>
		<path fill="#B482B8" d="M852.05,522.92c7.95,0.15,14.98,7.33,14.83,15.16c-0.15,7.7-7.07,14.26-15.03,14.25
			c-8.47-0.01-14.92-6.71-14.79-15.37C837.19,529.11,843.96,522.77,852.05,522.92z"/>
		<path fill="#1D112A" d="M444.55,764.36c26.46-2.28,50.77,18.88,52.33,46.87c1.44,25.73-17.34,48.56-44.23,51.38
			c-29.79,3.12-53.67-16.51-55.8-46C394.97,790.55,414.05,765.36,444.55,764.36z M470.3,813.12c-0.05-12.07-10.88-22.41-23.46-22.4
			c-13.25,0-23.73,10.02-23.63,22.58c0.1,13.01,10.55,23.34,23.6,23.33C459.68,836.62,470.36,825.94,470.3,813.12z"/>
		<path fill="#FCFAFB" d="M199.35,807.77c-2.36-2.28-5.59-3.42-7.37-6.54c-4.56-8.01-1.36-16.42,7.5-18.83
			c1.74-0.47,3.6-0.69,5.41-0.69c44.64-0.06,89.28-0.12,133.92-0.05c11.38,0.02,17.68,8.68,13.41,18.14
			c-1.8,3.99-5.18,6.39-9.13,8.04c-1.49-0.09-2.99-0.25-4.48-0.25C292.18,807.64,245.77,807.71,199.35,807.77z"/>
		<path fill="#1D112A" d="M199.35,807.77c46.42-0.06,92.83-0.13,139.25-0.18c1.49,0,2.99,0.16,4.48,0.25
			c5.48,2.76,9.48,6.49,9.25,13.28c-0.22,6.53-5.93,12.33-12.5,12.33c-45.15,0.05-90.31,0.08-135.46,0.1
			c-7.42,0-12.62-3.55-14.02-9.42c-1.55-6.52,1.05-11.52,7.98-15.39C198.73,808.52,199.02,808.1,199.35,807.77z"/>
		<path fill="#1D112A" d="M792.5,793c-12.82,0-25.64,0.17-38.45-0.06c-9.63-0.17-14.69-9.44-10.02-17.66
			c2.25-3.96,5.93-5.37,10.01-5.39c25.64-0.15,51.27-0.2,76.91-0.09c7.1,0.03,11.48,4.88,11.4,11.8
			c-0.08,6.64-4.32,11.05-11.41,11.15c-12.81,0.18-25.63,0.05-38.44,0.05C792.5,792.88,792.5,792.94,792.5,793z"/>
		<path fill="#1D112A" d="M792.7,864.86c-12.33,0-24.65,0.03-36.98-0.01c-8.27-0.03-13.25-4.36-13.38-11.5
			c-0.13-7.14,4.85-11.65,13.12-11.67c24.65-0.06,49.31,0.15,73.96-0.22c7.37-0.11,13.17,5.31,13.11,11.92
			c-0.06,6.94-4.65,11.27-12.85,11.36c-12.33,0.14-24.65,0.04-36.98,0.04C792.7,864.81,792.7,864.83,792.7,864.86z"/>
		<path fill="#1D112A" d="M676.17,833.02c-10.81,0-21.61,0.08-32.42-0.03c-7.76-0.08-12.36-4.26-12.6-11.13
			c-0.26-7.35,3.73-12.05,11.78-12.43c21.93-1.02,43.88-0.62,65.82-0.28c5.49,0.09,10.26,2.19,11.97,7.92
			c1.38,4.62,1.1,9.22-2.94,12.81c-2.22,1.97-4.76,2.91-7.71,2.91c-11.3-0.02-22.6-0.01-33.91-0.01
			C676.17,832.86,676.17,832.94,676.17,833.02z"/>
		<path fill="#1D112A" d="M574.34,858.25c-6.5,0-13,0.12-19.5-0.03c-7.63-0.17-12.44-4.99-12.4-12.1
			c0.04-6.77,4.89-11.37,12.4-11.43c14-0.11,27.99-0.13,41.99-0.04c7.69,0.05,12.16,4.22,12.48,11.23
			c0.33,7.29-3.29,11.08-11.51,12.05C590,858.86,582.17,858.15,574.34,858.25z"/>
		<path fill="#1D112A" d="M575.49,791.61c-6.99,0-13.99,0.09-20.98-0.02c-7.03-0.11-11.58-4.73-11.65-11.58
			c-0.07-6.87,3.89-11.34,10.96-11.52c14.48-0.36,28.97-0.56,43.46-0.49c7.38,0.03,12.15,5.23,12.15,12.34
			c0,6.74-4.72,11.13-12.45,11.27c-7.16,0.14-14.32,0.03-21.48,0.03C575.49,791.64,575.49,791.63,575.49,791.61z"/>
		<path fill="#1D112A" d="M644.71,526.73c8.07,0.05,12.61,3.77,13.47,9.47c1.01,6.74-1.6,11.9-8.04,13.52
			c-10.75,2.7-21.68,4.7-32.54,6.96c-4.38,0.91-8.77,1.72-13.17,2.53c-6.88,1.27-12.48-2.2-14.02-8.65
			c-1.57-6.57,1.95-13.27,8.43-14.76c9.99-2.29,20.11-4.06,30.18-6.03C634.86,528.61,640.71,527.5,644.71,526.73z"/>
		<path fill="#1D112A" d="M425.22,559.66c-9.16-1.87-20.21-4.09-31.25-6.37c-4.86-1.01-9.81-1.81-14.53-3.29
			c-5.87-1.84-9.32-8.57-7.92-14.37c1.58-6.55,5.97-9.19,13.55-8.04c4.42,0.67,8.84,1.38,13.24,2.21
			c10.41,1.95,20.82,3.86,31.19,6.02c6.66,1.38,11.13,7.27,10.44,13.17C439.16,555.5,434.02,559.82,425.22,559.66z"/>
		<path fill="#1D112A" d="M658.28,280.96c-0.01,6.02-3.16,10.29-9.54,11.62c-15.25,3.17-30.54,6.15-45.87,8.92
			c-6.04,1.09-11.58-3.4-12.52-9.43c-1.04-6.64,2.71-12.86,8.87-14.11c10.7-2.17,21.46-4.08,32.19-6.14
			c4.23-0.81,8.43-1.77,12.66-2.59C652,267.71,658.29,272.92,658.28,280.96z"/>
		<path fill="#1D112A" d="M426.97,301.75c-3.22-0.56-7.49-1.19-11.71-2.04c-11.37-2.28-22.76-4.5-34.08-7.06
			c-6.44-1.45-9.97-6.18-9.82-12.08c0.16-5.89,3.76-10.18,9.3-11.29c2.55-0.51,4.98,0.26,7.36,0.69
			c14.01,2.48,27.98,5.16,41.95,7.91c6.41,1.26,10.3,6.94,9.66,13.65C439.11,297.15,434,301.63,426.97,301.75z"/>
		<path fill="#1D112A" d="M601.83,433.61c-6.08,0.38-10.88-3.75-12.48-11.37c-1.09-5.19,3.03-11.54,8.76-12.76
			c15.96-3.39,31.97-6.53,48.02-9.48c5.04-0.93,10.32,3.33,11.84,8.68c1.6,5.63-1.1,11.73-6.53,14.01
			c-5.22,2.2-10.89,2.79-16.36,4.08c-9.91,2.33-20.08,3.5-29.77,6.8C604.25,433.92,602.99,433.61,601.83,433.61z"/>
		<path fill="#1D112A" d="M424.93,433.04c-14.77-2.29-30.7-5.61-46.42-9.83c-5.58-1.5-8.59-8.81-6.97-14.88
			c1.57-5.89,6.02-8.84,12.53-7.69c15.02,2.64,30.03,5.39,45,8.37c6.49,1.29,10.15,5.7,10.57,11.59c0.38,5.37-2.44,9.74-7.44,11.69
			C430.27,433.03,428.28,432.94,424.93,433.04z"/>
		<path fill="#B482B8" d="M470.3,813.12c0.05,12.82-10.62,23.5-23.49,23.51c-13.05,0.01-23.49-10.32-23.6-23.33
			c-0.1-12.56,10.38-22.57,23.63-22.58C459.43,790.71,470.25,801.05,470.3,813.12z"/>
	</g>
</g>
</svg>
