<?xml version="1.0" encoding="utf-8"?>
<!-- Generator: Adobe Illustrator 27.8.0, SVG Export Plug-In . SVG Version: 6.00 Build 0)  -->
<svg version="1.1" id="Capa_1" xmlns="http://www.w3.org/2000/svg" xmlns:xlink="http://www.w3.org/1999/xlink" x="0px" y="0px"
	 viewBox="0 0 768 768" enable-background="new 0 0 768 768" xml:space="preserve">
<g>
	<g>
		<path fill="#FFFFFF" d="M768,768c-255.97,0-511.98,0-768,0C0,512.02,0,256.04,0,0c255.96,0,511.93,0,768,0
			C768,255.96,768,511.98,768,768z M363.52,563.69c0.03,0.66,0.15,2,0.16,3.35c0.1,15.11,0.06,30.22,0.34,45.33
			c0.06,3.5-1.19,4.06-4.32,4.04c-31.34-0.16-62.69-0.19-94.04-0.2c-5.24,0-10.53-0.15-15.71,0.51c-8.45,1.07-14.61,5.66-17.5,13.86
			c-2.79,7.92-1.62,15.27,4.13,21.62c4.97,5.49,11.35,7.17,18.57,7.16c81.92-0.07,163.84-0.06,245.76-0.07
			c4.62,0,9.24,0.09,13.86-0.03c12.14-0.32,21.73-9.42,21.92-20.71c0.21-12.14-8.63-21.43-21.15-22.16
			c-2.49-0.15-4.99-0.18-7.49-0.18c-33.22,0.04-66.44,0.09-99.66,0.15c-1.31,0-2.62,0-4.06,0c0-18.24,0-35.9,0-53.67
			c17.67-2.33,34.52-6.68,50.95-12.81c41.8-15.6,76.47-40.81,102.81-76.94c23.38-32.08,35.79-68.24,38.5-107.77
			c2.48-36.04-3.18-70.81-18.38-103.59c-20.47-44.13-52.17-78.32-94.77-101.89c-11.94-6.6-24.99-11.23-37.58-16.64
			c-1.02-0.44-2.96-0.48-3.57,0.15c-3.51,3.69-3.57,7.19-0.61,11.52c23.29,33.99,13.77,78.91-21.57,100
			c-7.27,4.33-15.52,7.02-23.63,10.61c0,8.46,0,17.78,0,27.3c1.36,0.08,2.45,0.19,3.54,0.19c43.34-0.02,86.67,0.02,130.01-0.18
			c4.65-0.02,8.05,1.42,11.31,4.53c8.23,7.83,16.65,15.46,25.02,23.14c4.25,3.9,4.47,7.65,0.31,11.5
			c-6.79,6.27-13.6,12.51-20.61,18.52c-1.56,1.34-3.96,2.43-5.98,2.44c-39.46,0.14-78.93,0.12-118.39,0.1
			c-3.87,0-5.75-1.89-5.92-5.65c-0.16-3.54,1.85-5.88,5.53-6.2c1.86-0.17,3.74-0.09,5.62-0.09c32.35,0.01,64.69,0.03,97.04,0
			c1.31,0,2.97-0.05,3.88-0.8c4.59-3.76,8.99-7.75,13.8-11.97c-5-4.44-9.5-8.54-14.16-12.47c-0.83-0.7-2.29-0.92-3.45-0.92
			c-41.46-0.03-82.92,0-124.39,0.03c-1.06,0-2.12,0.15-3.09,0.22c0,34.18,0,67.96,0,101.95c1.12,0.07,1.97,0.16,2.82,0.16
			c40.46-0.01,80.93,0,121.39-0.12c1.65-0.01,3.73-0.85,4.88-2.02c5.88-5.94,11.51-12.11,17.08-18.03
			c-5.14-5.31-10.81-11.43-16.82-17.19c-1.51-1.45-4.13-2.42-6.25-2.44c-22.73-0.19-45.46-0.16-68.19-0.17
			c-9.62,0-19.23,0.14-28.85,0.02c-4.34-0.05-6.93-2.98-6.87-7.13c0.06-3.76,2-5.32,6.91-5.33c38.34-0.06,76.68-0.14,115.02-0.03
			c2.13,0.01,4.74,1,6.3,2.43c8.55,7.85,16.87,15.95,25.21,24.03c4.66,4.52,4.7,7.89,0.09,12.46
			c-10.56,10.46-21.26,20.76-31.73,31.3c-3.14,3.16-6.46,4.42-10.93,4.41c-40.21-0.15-80.43-0.1-120.64-0.11c-3.1,0-6.19,0-9.7,0
			c0,1.66,0,2.87,0,4.08c0.01,23.48,0.04,46.95,0.02,70.43c-0.01,14.73,0.01,29.47-0.23,44.2c-0.1,6.04-3.62,10.04-9.06,11.33
			c-5.82,1.38-11.57-0.63-14.14-5.77c-1.32-2.64-1.75-5.98-1.76-9c-0.11-31.47-0.05-62.94-0.03-94.41c0-1.46,0-2.91,0-4.88
			c-2.65,0-4.87,0-7.08,0c-41.84,0-83.67-0.02-125.51,0.01c-3.35,0-6.32-0.42-8.89-2.96c-11.01-10.88-22.18-21.6-33.21-32.47
			c-4.27-4.21-4.3-7.79-0.08-11.94c10.24-10.06,20.59-20.01,30.94-29.96c0.95-0.91,2.31-1.37,3.39-2.16
			c1.1-0.82,2.49-1.59,3.04-2.73c5.77-11.89,11.06-24.03,17.16-35.75c4.22-8.12,6.2-16.36,5.47-25.46c-0.39-4.87-0.07-9.8-0.07-15.2
			c-2.88,1.41-5.05,2.62-7.34,3.56c-2.34,0.96-3.34,2.45-3.42,5.05c-0.15,4.48-0.58,8.97-1.1,13.43c-0.64,5.47-4.66,9.04-9.42,8.6
			c-4.67-0.43-8.03-4.88-7.6-10.29c0.53-6.59,1.3-13.17,1.75-19.77c0.25-3.62,1.92-6.08,5.01-7.76c4.39-2.38,8.85-4.64,13.13-7.19
			c5.53-3.29,11.34-4.88,17.83-4.42c4.6,0.32,9.24,0.19,13.86-0.03c3-0.15,5.36,0.81,7.36,2.9c4.57,4.78,9.04,9.67,13.75,14.31
			c1.9,1.88,4.17,3.5,6.53,4.78c4.05,2.2,8.41,3.85,12.43,6.09c4.01,2.24,5.47,7.4,3.65,11.42c-1.7,3.74-5.87,5.85-9.6,4.13
			c-10.08-4.62-21.43-7.22-28.32-17.14c-0.38-0.55-1.04-0.92-2.12-1.84c0,4.7,0.2,8.77-0.06,12.81c-0.23,3.47,1.11,5.87,3.65,8.05
			c6.26,5.36,12.37,10.89,18.58,16.3c2.98,2.59,4.67,5.62,4.7,9.73c0.04,5.36,0.51,10.72,0.88,16.08c0.23,3.31,0.63,6.61,0.96,9.91
			c20.08,0,39.75,0,59.59,0c0.06-1.08,0.14-1.94,0.14-2.79c0.01-34.72-0.03-69.43,0.1-104.15c0.01-3.06-0.76-4.21-3.78-5.02
			c-32.05-8.6-54.1-36.39-54.11-68.15c-0.01-15.98,4.99-30.41,14.41-43.28c2.62-3.58-0.86-5.67-1.91-8.26
			c-0.25-0.61-2.88-0.85-4.08-0.39c-6.99,2.67-14.06,5.21-20.77,8.49c-72.42,35.39-117.38,91.55-127.76,172.53
			c-6.87,53.58,4.71,103.25,36.59,147.56c29.36,40.82,68.81,67.55,116.35,82.66C338.14,558.36,350.71,560.6,363.52,563.69z
			 M371.14,239.77c0-5.99-0.26-11.72,0.09-17.42c0.26-4.25-0.56-7.42-4.68-9.41c-1.51-0.73-2.7-2.19-3.95-3.41
			c-9.82-9.56-11.98-24.69-5.3-36.89c6.6-12.06,20.05-18.04,33.39-14.84c13.49,3.24,23.27,14.99,23.56,28.82
			c0.26,11.94-5.07,21.06-14.89,27.72c-1.22,0.83-2.93,2.14-2.97,3.28c-0.27,7.44-0.14,14.9-0.14,22.85
			c2.9-0.98,5.33-1.57,7.57-2.59c29.34-13.37,37.1-51.66,15.48-75.58c-1.49-1.65-2.56-4.32-2.62-6.54
			c-0.27-10.48-0.11-20.96-0.11-31.45c0-7.18-4.53-12.33-11.64-12.42c-14.23-0.18-28.46-0.17-42.68,0.07
			c-6.68,0.11-11.22,5.29-11.18,11.63c0.08,10.98,0.13,21.96,0,32.94c-0.02,1.56-0.71,3.48-1.77,4.59
			c-9.68,10.2-13.74,22.4-13.09,36.25C337.15,217.36,352.19,235.79,371.14,239.77z M370.89,397.29c-1.55-0.07-2.66-0.16-3.77-0.16
			c-40.56,0.01-81.11,0.08-121.67-0.04c-4.31-0.01-7.59,1.05-10.55,4.24c-4.02,4.33-8.42,8.32-11.87,11.69
			c5.4,5.88,10.41,11.26,15.34,16.72c2.15,2.38,4.64,3.28,7.92,3.28c40.56-0.11,81.11-0.1,121.67-0.12c0.95,0,1.9-0.15,2.93-0.24
			C370.89,420.79,370.89,409.22,370.89,397.29z M292.19,375.37c-0.52-7.56-1-14.86-1.55-22.15c-0.04-0.56-0.4-1.23-0.83-1.6
			c-5.92-5.05-11.87-10.05-18.09-15.3c-6.24,13.32-12.17,25.99-18.29,39.05C266.73,375.37,279.25,375.37,292.19,375.37z"/>
		<path d="M363.52,563.69c-12.81-3.09-25.38-5.33-37.45-9.17c-47.53-15.11-86.98-41.85-116.35-82.66
			c-31.88-44.31-43.46-93.98-36.59-147.56c10.38-80.98,55.35-137.14,127.76-172.53c6.71-3.28,13.78-5.82,20.77-8.49
			c1.2-0.46,3.84-0.22,4.08,0.39c1.05,2.59,4.53,4.68,1.91,8.26c-9.42,12.87-14.42,27.3-14.41,43.28
			c0.01,31.76,22.06,59.56,54.11,68.15c3.02,0.81,3.8,1.96,3.78,5.02c-0.13,34.72-0.09,69.43-0.1,104.15c0,0.85-0.08,1.71-0.14,2.79
			c-19.84,0-39.51,0-59.59,0c-0.33-3.31-0.73-6.6-0.96-9.91c-0.37-5.36-0.83-10.72-0.88-16.08c-0.03-4.12-1.72-7.14-4.7-9.73
			c-6.22-5.41-12.32-10.94-18.58-16.3c-2.54-2.18-3.87-4.58-3.65-8.05c0.26-4.04,0.06-8.11,0.06-12.81
			c1.08,0.92,1.73,1.28,2.12,1.84c6.89,9.92,18.25,12.52,28.32,17.14c3.74,1.71,7.91-0.4,9.6-4.13c1.82-4.02,0.37-9.18-3.65-11.42
			c-4.02-2.24-8.38-3.89-12.43-6.09c-2.35-1.28-4.62-2.9-6.53-4.78c-4.71-4.65-9.17-9.53-13.75-14.31c-2-2.09-4.36-3.04-7.36-2.9
			c-4.61,0.22-9.26,0.35-13.86,0.03c-6.49-0.46-12.3,1.13-17.83,4.42c-4.29,2.55-8.74,4.81-13.13,7.19
			c-3.09,1.68-4.76,4.14-5.01,7.76c-0.45,6.6-1.23,13.17-1.75,19.77c-0.43,5.41,2.93,9.86,7.6,10.29c4.76,0.44,8.78-3.13,9.42-8.6
			c0.52-4.46,0.95-8.94,1.1-13.43c0.09-2.6,1.08-4.09,3.42-5.05c2.28-0.94,4.46-2.15,7.34-3.56c0,5.4-0.32,10.33,0.07,15.2
			c0.73,9.09-1.25,17.33-5.47,25.46c-6.09,11.72-11.39,23.85-17.16,35.75c-0.55,1.14-1.95,1.91-3.04,2.73
			c-1.07,0.8-2.44,1.25-3.39,2.16c-10.35,9.94-20.7,19.9-30.94,29.96c-4.23,4.15-4.19,7.73,0.08,11.94
			c11.03,10.87,22.2,21.59,33.21,32.47c2.57,2.54,5.54,2.96,8.89,2.96c41.84-0.03,83.67-0.02,125.51-0.01c2.21,0,4.43,0,7.08,0
			c0,1.97,0,3.43,0,4.88c-0.01,31.47-0.08,62.94,0.03,94.41c0.01,3.02,0.44,6.36,1.76,9c2.58,5.14,8.32,7.15,14.14,5.77
			c5.44-1.29,8.97-5.3,9.06-11.33c0.24-14.73,0.21-29.47,0.23-44.2c0.02-23.48-0.01-46.95-0.02-70.43c0-1.21,0-2.41,0-4.08
			c3.51,0,6.6,0,9.7,0c40.21,0.01,80.43-0.04,120.64,0.11c4.47,0.02,7.79-1.25,10.93-4.41c10.47-10.54,21.17-20.85,31.73-31.3
			c4.61-4.56,4.57-7.94-0.09-12.46c-8.34-8.08-16.66-16.18-25.21-24.03c-1.56-1.43-4.17-2.43-6.3-2.43
			c-38.34-0.1-76.68-0.03-115.02,0.03c-4.91,0.01-6.85,1.57-6.91,5.33c-0.07,4.16,2.53,7.08,6.87,7.13
			c9.61,0.12,19.23-0.02,28.85-0.02c22.73,0.01,45.46-0.02,68.19,0.17c2.12,0.02,4.74,0.99,6.25,2.44
			c6.02,5.76,11.69,11.88,16.82,17.19c-5.56,5.92-11.2,12.09-17.08,18.03c-1.16,1.17-3.23,2.02-4.88,2.02
			c-40.46,0.12-80.93,0.11-121.39,0.12c-0.85,0-1.7-0.09-2.82-0.16c0-33.99,0-67.77,0-101.95c0.97-0.07,2.03-0.22,3.09-0.22
			c41.46-0.03,82.92-0.05,124.39-0.03c1.17,0,2.62,0.22,3.45,0.92c4.66,3.93,9.16,8.03,14.16,12.47c-4.81,4.22-9.21,8.21-13.8,11.97
			c-0.91,0.74-2.56,0.8-3.88,0.8c-32.35,0.03-64.69,0.01-97.04,0c-1.87,0-3.76-0.07-5.62,0.09c-3.67,0.33-5.69,2.66-5.53,6.2
			c0.17,3.77,2.05,5.65,5.92,5.65c39.46,0.02,78.93,0.05,118.39-0.1c2.02-0.01,4.41-1.09,5.98-2.44
			c7.01-6.02,13.82-12.26,20.61-18.52c4.17-3.85,3.95-7.6-0.31-11.5c-8.37-7.68-16.79-15.31-25.02-23.14
			c-3.26-3.1-6.66-4.55-11.31-4.53c-43.33,0.2-86.67,0.16-130.01,0.18c-1.09,0-2.18-0.12-3.54-0.19c0-9.53,0-18.84,0-27.3
			c8.11-3.58,16.36-6.27,23.63-10.61c35.35-21.08,44.86-66.01,21.57-100c-2.97-4.33-2.9-7.83,0.61-11.52
			c0.61-0.64,2.55-0.59,3.57-0.15c12.59,5.41,25.63,10.03,37.58,16.64c42.61,23.56,74.3,57.76,94.77,101.89
			c15.21,32.78,20.86,67.54,18.38,103.59c-2.71,39.53-15.12,75.69-38.5,107.77c-26.34,36.13-61.01,61.34-102.81,76.94
			c-16.42,6.13-33.28,10.48-50.95,12.81c0,17.77,0,35.42,0,53.67c1.44,0,2.75,0,4.06,0c33.22-0.05,66.44-0.11,99.66-0.15
			c2.5,0,5,0.04,7.49,0.18c12.52,0.73,21.36,10.02,21.15,22.16c-0.19,11.29-9.78,20.39-21.92,20.71c-4.62,0.12-9.24,0.03-13.86,0.03
			c-81.92,0.01-163.84,0-245.76,0.07c-7.22,0.01-13.6-1.67-18.57-7.16c-5.75-6.35-6.92-13.7-4.13-21.62
			c2.89-8.21,9.05-12.79,17.5-13.86c5.18-0.66,10.47-0.51,15.71-0.51c31.35,0.01,62.69,0.04,94.04,0.2
			c3.13,0.02,4.38-0.54,4.32-4.04c-0.28-15.11-0.24-30.22-0.34-45.33C363.67,565.69,363.55,564.35,363.52,563.69z M290.23,249.51
			c0.24-9.71-8.03-18.5-17.59-18.71c-10.34-0.23-18.79,7.79-19.01,18.03c-0.22,9.91,8.08,18.5,18.02,18.65
			C281.78,267.65,289.98,259.72,290.23,249.51z"/>
		<path d="M371.14,239.77c-18.95-3.98-33.99-22.42-34.93-42.4c-0.65-13.86,3.42-26.05,13.09-36.25c1.06-1.11,1.75-3.04,1.77-4.59
			c0.13-10.98,0.08-21.96,0-32.94c-0.05-6.35,4.5-11.52,11.18-11.63c14.22-0.24,28.46-0.25,42.68-0.07
			c7.11,0.09,11.64,5.24,11.64,12.42c-0.01,10.48-0.16,20.97,0.11,31.45c0.06,2.22,1.12,4.89,2.62,6.54
			c21.62,23.92,13.87,62.22-15.48,75.58c-2.24,1.02-4.67,1.61-7.57,2.59c0-7.95-0.13-15.4,0.14-22.85c0.04-1.14,1.75-2.46,2.97-3.28
			c9.82-6.66,15.14-15.78,14.89-27.72c-0.3-13.82-10.08-25.58-23.56-28.82c-13.34-3.2-26.78,2.78-33.39,14.84
			c-6.68,12.2-4.52,27.33,5.3,36.89c1.25,1.22,2.44,2.68,3.95,3.41c4.12,1.99,4.94,5.17,4.68,9.41
			C370.88,228.05,371.14,233.79,371.14,239.77z"/>
		<path d="M370.89,397.29c0,11.93,0,23.5,0,35.35c-1.03,0.09-1.98,0.24-2.93,0.24c-40.56,0.03-81.11,0.01-121.67,0.12
			c-3.27,0.01-5.76-0.89-7.92-3.28c-4.93-5.45-9.93-10.84-15.34-16.72c3.45-3.37,7.85-7.36,11.87-11.69
			c2.95-3.18,6.24-4.25,10.55-4.24c40.56,0.12,81.11,0.05,121.67,0.04C368.23,397.13,369.34,397.22,370.89,397.29z"/>
		<path d="M292.19,375.37c-12.93,0-25.46,0-38.75,0c6.11-13.06,12.05-25.73,18.29-39.05c6.22,5.24,12.17,10.25,18.09,15.3
			c0.43,0.37,0.79,1.04,0.83,1.6C291.18,360.52,291.67,367.81,292.19,375.37z"/>
		<path fill="#FFFFFF" d="M290.23,249.51c-0.25,10.2-8.45,18.14-18.58,17.98c-9.94-0.16-18.23-8.75-18.02-18.65
			c0.22-10.24,8.67-18.26,19.01-18.03C282.2,231.01,290.46,239.8,290.23,249.51z"/>
	</g>
</g>
</svg>
