<?xml version="1.0" encoding="utf-8"?>
<!-- Generator: Adobe Illustrator 27.8.0, SVG Export Plug-In . SVG Version: 6.00 Build 0)  -->
<svg version="1.1" id="Capa_1" xmlns="http://www.w3.org/2000/svg" xmlns:xlink="http://www.w3.org/1999/xlink" x="0px" y="0px"
	 viewBox="0 0 768 768" enable-background="new 0 0 768 768" xml:space="preserve">
<g>
	<g>
		<path fill="#FFFFFF" d="M0,768C0,512,0,256,0,0c256,0,512,0,768,0c0,256,0,512,0,768C512,768,256,768,0,768z M381.16,195.3
			c-11.75,11.03-23.19,21.81-34.68,32.54c-34.6,32.32-69.19,64.65-103.87,96.89c-2.6,2.42-3.63,4.87-3.62,8.42
			c0.11,38.86,0.06,77.73,0.05,116.59c0,14.5,0.04,28.99,0.01,43.49c-0.01,6.35,2.28,11.63,6.84,16.05
			c4.95,4.81,10.98,5.89,17.58,5.88c66.23-0.04,132.47,0.01,198.7,0.02c12.62,0,25.24,0.04,37.86-0.07
			c10.48-0.09,18.35-5.14,21.54-14.33c1.19-3.44,1.43-7.35,1.44-11.04c0.1-52.23,0.03-104.47,0.22-156.7
			c0.01-4.06-1.23-6.71-4.09-9.32c-11.06-10.11-21.96-20.41-32.94-30.62c-25.6-23.84-51.21-47.66-76.81-71.5
			C400.07,212.92,390.75,204.23,381.16,195.3z M295.62,202.17c0-5.7,0.07-10.55-0.02-15.39c-0.11-6.36-3.59-10.05-9.98-10.09
			c-13.62-0.1-27.24-0.09-40.86,0.13c-8.65,0.14-11.62,3.39-11.62,11.97c0,21.49-0.07,42.99,0.09,64.48
			c0.03,4.07-1.08,7.05-4.18,9.79c-6.93,6.11-13.64,12.48-20.32,18.87c-9.94,9.49-9.39,25.54,1.06,34.13
			c8.91,7.33,20.23,6.89,29.51-1.69c19.17-17.72,38.15-35.65,57.2-53.5c26.07-24.43,52.12-48.87,78.19-73.3
			c2.06-1.93,4.21-3.76,6.34-5.67c22.03,20.36,43.81,40.41,65.49,60.57c26.16,24.34,52.19,48.82,78.39,73.12
			c2.2,2.04,5.1,3.77,7.97,4.58c9.63,2.69,20.49-2.21,25.24-10.91c4.93-9.02,2.78-20.58-5.26-28.02
			c-52.17-48.28-104.34-96.55-156.53-144.81c-10.32-9.54-20.84-9.47-31.16,0.22c-16.58,15.56-33.12,31.17-49.67,46.76
			C309.05,189.45,302.63,195.54,295.62,202.17z M577.16,423.97c21.07-0.01,37.1-15.71,37.16-36.41
			c0.06-21.15-16.21-38.08-36.6-38.09c-21.27-0.02-37.97,16.76-37.97,38.12C539.76,407.79,556.4,423.98,577.16,423.97z
			 M182.89,423.89c21.26,0.04,37.9-15.96,38.04-36.59c0.14-20.24-17.17-37.86-37.2-37.86c-21.1-0.01-37.34,16.49-37.47,38.04
			C146.14,408.02,162.07,423.85,182.89,423.89z M575.72,603.41c19.79,0.76,37.73-15.97,38.38-35.8
			c0.67-20.4-15.79-38.07-36.14-38.81c-20.8-0.75-37.82,15.56-38.56,36.97C538.7,585.51,555.22,602.62,575.72,603.41z
			 M183.76,603.42c20.15,0.22,36.96-16.09,37.31-36.2c0.36-20.53-16.62-38.2-36.93-38.42c-20.88-0.23-37.57,16.53-37.7,37.87
			C146.31,586.32,163.45,603.2,183.76,603.42z M380.26,603.05c20.76,0.08,37.32-15.99,37.43-36.35
			c0.12-20.74-16.45-37.68-36.98-37.8c-20.33-0.12-36.79,16.51-36.99,37.35C343.54,586.45,359.94,602.97,380.26,603.05z
			 M331.03,558.16c-32.77,0-65.2,0-97.74,0c0,4.77,0,9.31,0,14.01c32.72,0,65.12,0,97.74,0
			C331.03,567.39,331.03,562.94,331.03,558.16z M430.01,558.07c0,4.98,0,9.53,0,14.11c32.44,0,64.6,0,96.79,0c0-4.89,0-9.43,0-14.11
			C494.42,558.07,462.33,558.07,430.01,558.07z M176.77,437.41c0,26.33,0,52.34,0,78.27c4.98,0,9.54,0,14.23,0
			c0-26.21,0-52.13,0-78.27C186.17,437.41,181.58,437.41,176.77,437.41z M568.85,437.35c0,26.38,0,52.39,0,78.33
			c5.05,0,9.74,0,14.48,0c0-26.23,0-52.17,0-78.33C578.45,437.35,573.76,437.35,568.85,437.35z"/>
		<path d="M381.16,195.3c9.59,8.94,18.91,17.62,28.23,26.3c25.6,23.83,51.21,47.66,76.81,71.5c10.97,10.22,21.87,20.51,32.94,30.62
			c2.86,2.61,4.1,5.25,4.09,9.32c-0.19,52.23-0.12,104.47-0.22,156.7c-0.01,3.7-0.25,7.6-1.44,11.04
			c-3.19,9.19-11.06,14.24-21.54,14.33c-12.62,0.11-25.24,0.07-37.86,0.07c-66.23-0.01-132.47-0.06-198.7-0.02
			c-6.6,0-12.63-1.07-17.58-5.88c-4.56-4.43-6.85-9.7-6.84-16.05c0.03-14.5-0.01-28.99-0.01-43.49c0-38.86,0.06-77.73-0.05-116.59
			c-0.01-3.55,1.02-6.01,3.62-8.42c34.68-32.24,69.27-64.56,103.87-96.89C357.97,217.11,369.41,206.32,381.16,195.3z M381.14,339.7
			c-9.37,0-18.75,0-28.12,0c-15.12,0-30.24-0.03-45.36,0.03c-8.76,0.03-13.76,4.84-14.04,13.55c-0.14,4.24,0.05,8.5,0.05,12.74
			c-0.04,34.74-0.11,69.48-0.11,104.22c0,10.63,5.07,15.59,15.66,15.59c47.99-0.02,95.97-0.03,143.96-0.05
			c10.37,0,15.43-4.74,15.45-14.9c0.05-38.74,0.03-77.48-0.04-116.22c-0.02-9.98-5.15-14.95-15.09-14.96
			C429.38,339.69,405.26,339.7,381.14,339.7z M377.7,241.26c-6.28,0-12.01,0.05-17.74-0.01c-10.27-0.12-10.3-0.1-10.25,10.06
			c0.02,5.82,0,11.65,0,17.44c9.75,0,18.81,0,27.99,0C377.7,259.49,377.7,250.56,377.7,241.26z M384.65,268.71
			c9.43,0,18.56,0,27.91,0c0-7.95,0.09-15.54-0.05-23.13c-0.05-2.78-1.83-4.24-4.66-4.26c-4.24-0.02-8.48-0.02-12.72-0.03
			c-3.55,0-7.1,0-10.49,0C384.65,250.78,384.65,259.72,384.65,268.71z M377.78,275.21c-9.54,0-18.59,0-28.13,0
			c0,7.7-0.18,15.16,0.08,22.6c0.12,3.32,2.48,5.01,5.86,4.97c4.99-0.06,9.97-0.17,14.96-0.23c2.42-0.03,4.84-0.01,7.23-0.01
			C377.78,293.05,377.78,284.24,377.78,275.21z M384.78,275.19c0,9.31,0,18.25,0,27.36c8.07,0,15.69,0.18,23.29-0.15
			c1.51-0.07,4.13-2.05,4.19-3.25c0.38-7.92,0.2-15.87,0.2-23.96C402.91,275.19,393.82,275.19,384.78,275.19z"/>
		<path d="M295.62,202.17c7.01-6.63,13.43-12.71,19.87-18.78c16.55-15.59,33.09-31.2,49.67-46.76c10.32-9.68,20.84-9.76,31.16-0.22
			c52.19,48.26,104.36,96.53,156.53,144.81c8.05,7.45,10.19,19.01,5.26,28.02c-4.76,8.71-15.61,13.61-25.24,10.91
			c-2.87-0.8-5.77-2.53-7.97-4.58c-26.2-24.3-52.23-48.78-78.39-73.12c-21.67-20.16-43.46-40.21-65.49-60.57
			c-2.14,1.91-4.28,3.74-6.34,5.67c-26.07,24.43-52.12,48.87-78.19,73.3c-19.05,17.85-38.03,35.78-57.2,53.5
			c-9.28,8.58-20.61,9.01-29.51,1.69c-10.45-8.6-11-24.64-1.06-34.13c6.68-6.39,13.39-12.76,20.32-18.87
			c3.1-2.73,4.21-5.72,4.18-9.79c-0.16-21.49-0.09-42.99-0.09-64.48c0-8.58,2.97-11.83,11.62-11.97
			c13.62-0.21,27.24-0.22,40.86-0.13c6.39,0.05,9.88,3.73,9.98,10.09C295.69,191.62,295.62,196.46,295.62,202.17z"/>
		<path d="M577.16,423.97c-20.76,0.01-37.4-16.18-37.41-36.39c-0.01-21.36,16.7-38.13,37.97-38.12
			c20.39,0.01,36.66,16.95,36.6,38.09C614.26,408.26,598.23,423.96,577.16,423.97z"/>
		<path d="M182.89,423.89c-20.82-0.04-36.75-15.87-36.63-36.41c0.12-21.55,16.37-38.05,37.47-38.04c20.03,0,37.34,17.62,37.2,37.86
			C220.79,407.93,204.15,423.93,182.89,423.89z"/>
		<path d="M575.72,603.41c-20.5-0.79-37.02-17.9-36.33-37.65c0.75-21.4,17.77-37.72,38.56-36.97c20.35,0.74,36.81,18.41,36.14,38.81
			C613.45,587.44,595.52,604.17,575.72,603.41z"/>
		<path d="M183.76,603.42c-20.31-0.22-37.45-17.1-37.33-36.75c0.14-21.34,16.83-38.1,37.7-37.87c20.31,0.23,37.29,17.89,36.93,38.42
			C220.73,587.33,203.91,603.64,183.76,603.42z"/>
		<path d="M380.26,603.05c-20.33-0.08-36.72-16.59-36.54-36.79c0.19-20.84,16.66-37.47,36.99-37.35
			c20.53,0.12,37.1,17.06,36.98,37.8C417.58,587.06,401.03,603.13,380.26,603.05z"/>
		<path d="M331.03,558.16c0,4.78,0,9.23,0,14.01c-32.62,0-65.02,0-97.74,0c0-4.71,0-9.24,0-14.01
			C265.83,558.16,298.26,558.16,331.03,558.16z"/>
		<path d="M430.01,558.07c32.33,0,64.42,0,96.79,0c0,4.68,0,9.22,0,14.11c-32.19,0-64.36,0-96.79,0
			C430.01,567.61,430.01,563.05,430.01,558.07z"/>
		<path d="M176.77,437.41c4.81,0,9.4,0,14.23,0c0,26.13,0,52.06,0,78.27c-4.69,0-9.25,0-14.23,0
			C176.77,489.75,176.77,463.74,176.77,437.41z"/>
		<path d="M568.85,437.35c4.91,0,9.6,0,14.48,0c0,26.16,0,52.1,0,78.33c-4.74,0-9.43,0-14.48,0
			C568.85,489.74,568.85,463.73,568.85,437.35z"/>
		<path fill="#FFFFFF" d="M381.14,339.7c24.12,0,48.24-0.01,72.36,0.01c9.94,0.01,15.07,4.98,15.09,14.96
			c0.07,38.74,0.09,77.48,0.04,116.22c-0.01,10.17-5.08,14.9-15.45,14.9c-47.99,0.01-95.97,0.03-143.96,0.05
			c-10.59,0-15.66-4.96-15.66-15.59c0-34.74,0.08-69.48,0.11-104.22c0-4.25-0.19-8.5-0.05-12.74c0.29-8.7,5.28-13.51,14.04-13.55
			c15.12-0.06,30.24-0.03,45.36-0.03C362.4,339.69,371.77,339.7,381.14,339.7z M440.96,448.9c-40.35,0-80.25,0-120.16,0
			c0,5.61,0,10.89,0,16.27c40.24,0,80.14,0,120.16,0C440.96,459.61,440.96,454.39,440.96,448.9z M320.77,436.2
			c40.23,0,80.13,0,120.08,0c0-5.38,0-10.44,0-15.72c-40.14,0-80.07,0-120.08,0C320.77,425.82,320.77,431,320.77,436.2z
			 M440.87,392.89c-40.23,0-80.14,0-120.04,0c0,5.5,0,10.77,0,16.04c40.21,0,80.01,0,120.04,0
			C440.87,403.53,440.87,398.46,440.87,392.89z M400.33,379.72c0-6.57,0-12.86,0-19.09c-26.78,0-53.3,0-79.56,0
			c0,6.63,0,12.8,0,19.09C347.51,379.72,373.82,379.72,400.33,379.72z M445.19,371.86c0.2-0.33,0.39-0.67,0.59-1
			c-5.87-5.61-11.74-11.22-17.1-16.34c-6.25,5.92-12.06,11.43-18.4,17.44c2.25,0,3.59,0,5.09,0c0.12,2.46,0.24,4.79,0.37,7.37
			c8.39,0,16.56,0,24.92,0c0.18-2.76,0.35-5.29,0.52-7.82C442.75,371.65,443.97,371.75,445.19,371.86z"/>
		<path fill="#FFFFFF" d="M377.7,241.26c0,9.3,0,18.24,0,27.49c-9.18,0-18.24,0-27.99,0c0-5.79,0.02-11.62,0-17.44
			c-0.04-10.17-0.01-10.18,10.25-10.06C365.69,241.31,371.42,241.26,377.7,241.26z"/>
		<path fill="#FFFFFF" d="M384.65,268.71c0-8.99,0-17.93,0-27.41c3.39,0,6.94,0,10.49,0c4.24,0.01,8.48,0.01,12.72,0.03
			c2.83,0.01,4.61,1.47,4.66,4.26c0.14,7.59,0.05,15.18,0.05,23.13C403.2,268.71,394.08,268.71,384.65,268.71z"/>
		<path fill="#FFFFFF" d="M377.78,275.21c0,9.03,0,17.84,0,27.33c-2.39,0-4.81-0.03-7.23,0.01c-4.99,0.06-9.97,0.17-14.96,0.23
			c-3.38,0.04-5.74-1.65-5.86-4.97c-0.26-7.44-0.08-14.9-0.08-22.6C359.2,275.21,368.24,275.21,377.78,275.21z"/>
		<path fill="#FFFFFF" d="M384.78,275.19c9.03,0,18.13,0,27.68,0c0,8.09,0.18,16.04-0.2,23.96c-0.06,1.2-2.68,3.18-4.19,3.25
			c-7.6,0.33-15.23,0.15-23.29,0.15C384.78,293.43,384.78,284.5,384.78,275.19z"/>
		<path d="M440.96,448.9c0,5.5,0,10.71,0,16.27c-40.02,0-79.92,0-120.16,0c0-5.38,0-10.66,0-16.27
			C360.72,448.9,400.61,448.9,440.96,448.9z"/>
		<path d="M320.77,436.2c0-5.21,0-10.38,0-15.72c40.01,0,79.93,0,120.08,0c0,5.28,0,10.34,0,15.72
			C400.89,436.2,361,436.2,320.77,436.2z"/>
		<path d="M440.87,392.89c0,5.57,0,10.64,0,16.04c-40.03,0-79.83,0-120.04,0c0-5.26,0-10.54,0-16.04
			C360.73,392.89,400.65,392.89,440.87,392.89z"/>
		<path d="M400.33,379.72c-26.51,0-52.83,0-79.56,0c0-6.29,0-12.46,0-19.09c26.26,0,52.77,0,79.56,0
			C400.33,366.87,400.33,373.15,400.33,379.72z"/>
		<path d="M445.19,371.86c-1.22-0.11-2.44-0.22-4-0.35c-0.17,2.54-0.34,5.07-0.52,7.82c-8.37,0-16.53,0-24.92,0
			c-0.13-2.58-0.25-4.91-0.37-7.37c-1.5,0-2.84,0-5.09,0c6.34-6.01,12.15-11.52,18.4-17.44c5.36,5.12,11.23,10.73,17.1,16.34
			C445.58,371.19,445.39,371.53,445.19,371.86z"/>
	</g>
</g>
</svg>
