<?xml version="1.0" encoding="utf-8"?>
<!-- Generator: Adobe Illustrator 27.8.0, SVG Export Plug-In . SVG Version: 6.00 Build 0)  -->
<svg version="1.1" id="Capa_1" xmlns="http://www.w3.org/2000/svg" xmlns:xlink="http://www.w3.org/1999/xlink" x="0px" y="0px"
	 viewBox="0 0 1024 1024" enable-background="new 0 0 1024 1024" xml:space="preserve">
<g>
	<g>
		<path fill="#FFFFFF" d="M0.32,1023.68c0-341.33,0-682.67,0-1024c341.33,0,682.67,0,1024,0c0,341.33,0,682.67,0,1024
			C682.99,1023.68,341.65,1023.68,0.32,1023.68z M425.32,295.8c-1.46-0.08-2.59-0.2-3.73-0.2c-57,0.03-114-0.04-171,0.23
			c-6.57,0.03-13.33,1.18-19.66,3.01c-33.95,9.78-56.58,40.37-56.61,76.68c-0.1,111.66-0.02,223.33-0.05,334.99
			c-0.01,15.3,4.23,29.36,12.58,41.99c16.51,25,39.93,37.22,69.97,37.2c118.5-0.09,236.99-0.02,355.49-0.03
			c54.17,0,108.33,0.24,162.5-0.18c44.5-0.34,78.48-35.17,78.48-79.6c0.01-112-0.01-224-0.05-335.99c0-3.49-0.07-7.02-0.58-10.46
			c-5.88-39.54-38.07-67.63-78.03-67.75c-54.83-0.17-109.66-0.07-164.5-0.08c-2.44,0-4.89,0-7.77,0c0,10.5,0.22,20.3-0.04,30.08
			c-0.71,26.47-11.5,48.51-32.61,63.99c-9.24,6.77-11.64,13.75-10.65,23.86c0.75,7.67,4.73,12.39,12.35,13.27
			c2.31,0.26,4.66,0.23,6.99,0.23c73.33-0.05,146.66-0.11,219.99-0.17c10.04-0.01,15.36,5.01,16.05,15.13
			c0.08,1.16,0.12,2.33,0.12,3.5c-0.01,87.67-0.05,175.33-0.03,263c0,16.03-7.79,27.46-20.75,35.91
			c-8.53,5.57-18.21,5.82-27.93,5.82c-168.66,0.04-337.33-0.07-505.99,0.3c-25.09,0.06-47.32-18.66-46.86-46.5
			c1.01-61.48,0.32-122.99,0.33-184.49c0.01-47-0.02-94,0.08-141c0.04-20.67,13.57-38.23,32.88-42.26
			c6.13-1.28,12.58-1.38,18.89-1.39c51.33-0.11,102.66-0.07,154-0.08c1.95,0,3.89,0,6.16,0C425.32,321.6,425.32,309,425.32,295.8z
			 M289.55,521.24c3.47,9.29,6.5,18.25,10.21,26.91c1.15,2.7,3.76,5.77,6.36,6.61c3.96,1.28,4.95,3.97,6.02,7.1
			c6.24,18.26,15.7,34.54,29.79,47.89c10.91,10.34,23.24,17.8,38.88,18.21c20.24,0.54,35.21-9.7,48.09-23.77
			c11.52-12.58,19.21-27.47,24.58-43.62c0.56-1.7,1.84-4.01,3.25-4.42c5.86-1.7,8.65-6.05,10.52-11.16
			c2.35-6.4,4.56-12.87,6.38-19.43c5.64-20.27,8.57-40.87,3.47-61.62c-2.93-11.94-7.83-23.18-21.62-27.02
			c-1.54-17.01-11.21-28.9-24.94-37.72c-26.31-16.91-54.63-18.81-83.87-9.44c-42.69,13.68-68.34,52.89-64.22,97.35
			c0.88,9.45,1.85,10.77,10.44,11.05c42.21,1.38,81.3-8.07,115.62-33.76c3.73-2.79,7.2-5.98,11.12-8.46
			c3.92-2.48,8.4-2.71,12.16,0.36c3.59,2.93,5.4,7.09,3.63,11.6c-1.11,2.81-3.11,5.59-5.41,7.57
			c-30.83,26.49-66.94,40.45-107.12,44.24C312.32,520.69,301.65,520.71,289.55,521.24z M434.93,633.05
			c-1.11,2.75-1.77,4.63-2.61,6.43c-14.71,31.48-51.02,43.81-79.12,23.41c-9.25-6.71-16.18-15.27-20.74-25.72
			c-0.9-2.08-1.35-4.07-4.47-3.14c-16.78,5.03-33.51,10.24-47.76,20.94c-16.28,12.21-27.23,27.79-28.92,48.66
			c-0.97,12.02,3.02,16.07,15.03,16.07c65.96,0.02,131.93,0.04,197.89,0.04c13.16,0,26.32,0.02,39.48-0.14
			c7.58-0.09,11.34-3.89,11.54-11.41c0.07-2.48-0.08-5.01-0.5-7.45c-3.36-19.54-13.57-34.79-29.41-46.43
			C470.3,643.25,452.89,637.91,434.93,633.05z M574,297.39c0.16,0,0.32,0,0.49,0c0-9.32-0.18-18.65,0.04-27.97
			c0.29-12.53-4.56-22.94-12.41-32.29c-19.14-22.82-51.13-26.98-76.53-14.87c-19.64,9.36-31.36,24.98-31.81,47.44
			c-0.37,18.47-0.14,36.96-0.11,55.44c0.02,9.35,2.21,18.15,7.18,26.14c15.23,24.46,43.55,35.14,71.69,26.65
			c22.16-6.69,37.38-20.85,41.13-44.14C575.57,321.94,574,309.54,574,297.39z M665.82,610.34c0,0.01,0,0.03,0,0.04
			c28.82,0,57.63,0.12,86.45-0.06c11.6-0.07,20.12-8.6,20.01-19.3c-0.11-10.92-9.03-19.69-20.25-19.69
			c-57.3,0-114.6,0.02-171.89,0.17c-3.04,0.01-6.34,0.78-9.06,2.13c-7.98,3.96-12.02,13.34-9.96,21.94
			c2.21,9.21,9.07,14.73,18.76,14.75C608.52,610.38,637.17,610.34,665.82,610.34z M665.73,702.72c0-0.02,0-0.05,0-0.07
			c28.82,0,57.65,0.07,86.47-0.04c11.06-0.04,19.84-8.78,19.66-19.09c-0.19-10.61-9.3-19.79-19.87-19.79
			c-56.98,0-113.97,0.02-170.95,0.09c-11.63,0.02-20.29,8.41-20.37,19.45c-0.08,11.35,8.22,19.43,20.08,19.44
			C609.08,702.74,637.41,702.72,665.73,702.72z M666.25,478.33c0,0.03,0,0.05,0,0.08c-28.5,0-57-0.02-85.5,0.03
			c-2.3,0-4.71,0.15-6.89,0.8c-8.78,2.63-14.26,11.69-13.02,21.12c1.26,9.53,8.22,16.43,17.66,16.58
			c16.66,0.26,33.33,0.05,49.99,0.06c41.16,0.01,82.33,0.12,123.49,0c11.89-0.03,20.48-8.68,20.07-19.67
			c-0.38-10.11-9.4-19.4-20.82-19.18C722.92,478.7,694.58,478.33,666.25,478.33z"/>
		<path d="M425.32,295.8c0,13.2,0,25.81,0,39.01c-2.26,0-4.21,0-6.16,0c-51.33,0.01-102.67-0.03-154,0.08
			c-6.31,0.01-12.76,0.11-18.89,1.39c-19.31,4.03-32.84,21.59-32.88,42.26c-0.1,47-0.07,94-0.08,141
			c-0.01,61.5,0.67,123.01-0.33,184.49c-0.46,27.84,21.77,46.56,46.86,46.5c168.66-0.38,337.33-0.27,505.99-0.3
			c9.73,0,19.41-0.26,27.93-5.82c12.95-8.45,20.75-19.88,20.75-35.91c-0.02-87.67,0.01-175.33,0.03-263c0-1.17-0.04-2.33-0.12-3.5
			c-0.69-10.12-6-15.14-16.05-15.13c-73.33,0.06-146.66,0.12-219.99,0.17c-2.33,0-4.68,0.04-6.99-0.23
			c-7.61-0.87-11.6-5.59-12.35-13.27c-0.99-10.12,1.41-17.09,10.65-23.86c21.11-15.48,31.9-37.52,32.61-63.99
			c0.26-9.79,0.04-19.59,0.04-30.08c2.88,0,5.33,0,7.77,0c54.83,0.01,109.66-0.09,164.5,0.08c39.96,0.13,72.16,28.22,78.03,67.75
			c0.51,3.44,0.58,6.97,0.58,10.46c0.04,112,0.06,224,0.05,335.99c0,44.43-33.99,79.25-78.48,79.6
			c-54.16,0.42-108.33,0.17-162.5,0.18c-118.5,0.01-236.99-0.05-355.49,0.03c-30.05,0.02-53.46-12.2-69.97-37.2
			c-8.34-12.63-12.58-26.7-12.58-41.99c0.04-111.66-0.05-223.33,0.05-334.99c0.03-36.31,22.66-66.91,56.61-76.68
			c6.33-1.82,13.09-2.98,19.66-3.01c57-0.26,114-0.2,171-0.23C422.73,295.6,423.87,295.72,425.32,295.8z"/>
		<path d="M289.55,521.24c12.11-0.53,22.77-0.55,33.35-1.55c40.18-3.79,76.29-17.75,107.12-44.24c2.3-1.98,4.3-4.76,5.41-7.57
			c1.77-4.5-0.03-8.67-3.63-11.6c-3.76-3.06-8.24-2.84-12.16-0.36c-3.92,2.48-7.39,5.67-11.12,8.46
			c-34.32,25.69-73.42,35.14-115.62,33.76c-8.59-0.28-9.57-1.6-10.44-11.05c-4.12-44.46,21.53-83.66,64.22-97.35
			c29.24-9.37,57.55-7.47,83.87,9.44c13.73,8.82,23.39,20.71,24.94,37.72c13.79,3.84,18.69,15.09,21.62,27.02
			c5.1,20.75,2.18,41.35-3.47,61.62c-1.83,6.56-4.03,13.03-6.38,19.43c-1.88,5.11-4.67,9.46-10.52,11.16
			c-1.41,0.41-2.69,2.72-3.25,4.42c-5.36,16.15-13.05,31.03-24.58,43.62c-12.88,14.07-27.86,24.31-48.09,23.77
			c-15.64-0.41-27.97-7.87-38.88-18.21c-14.08-13.34-23.54-29.63-29.79-47.89c-1.07-3.13-2.06-5.82-6.02-7.1
			c-2.61-0.84-5.21-3.92-6.36-6.61C296.05,539.49,293.01,530.53,289.55,521.24z"/>
		<path d="M434.93,633.05c17.96,4.86,35.37,10.2,50.42,21.25c15.84,11.64,26.05,26.89,29.41,46.43c0.42,2.44,0.57,4.97,0.5,7.45
			c-0.2,7.52-3.96,11.32-11.54,11.41c-13.16,0.16-26.32,0.14-39.48,0.14c-65.96,0-131.93-0.01-197.89-0.04
			c-12.01,0-16.01-4.06-15.03-16.07c1.69-20.86,12.64-36.44,28.92-48.66c14.26-10.69,30.98-15.91,47.76-20.94
			c3.11-0.93,3.56,1.06,4.47,3.14c4.55,10.46,11.48,19.01,20.74,25.72c28.1,20.4,64.41,8.07,79.12-23.41
			C433.16,637.68,433.82,635.8,434.93,633.05z"/>
		<path d="M574,297.39c0,12.15,1.57,24.55-0.33,36.39c-3.74,23.29-18.96,37.45-41.13,44.14c-28.14,8.49-56.46-2.18-71.69-26.65
			c-4.97-7.99-7.16-16.79-7.18-26.14c-0.03-18.48-0.26-36.97,0.11-55.44c0.44-22.46,12.17-38.08,31.81-47.44
			c25.4-12.1,57.39-7.95,76.53,14.87c7.85,9.35,12.7,19.77,12.41,32.29c-0.22,9.32-0.04,18.65-0.04,27.97
			C574.33,297.39,574.17,297.39,574,297.39z M492.86,298.2c-0.03,0-0.07,0-0.1,0c0,8.99-0.08,17.99,0.02,26.98
			c0.1,8.87,4.12,15.49,11.72,17.07c5.53,1.15,11.63,1.34,17.17,0.32c9.1-1.69,13.84-8.11,14.28-17.36
			c0.21-4.32,0.09-8.66,0.06-12.99c-0.11-14.15,0.33-28.34-0.55-42.45c-0.74-11.81-9.96-17.86-23.78-17.11
			c-11.35,0.62-18.57,7.82-18.79,19.06C492.72,280.54,492.86,289.37,492.86,298.2z"/>
		<path d="M665.82,610.34c-28.65,0-57.3,0.04-85.95-0.02c-9.69-0.02-16.56-5.54-18.76-14.75c-2.06-8.6,1.98-17.98,9.96-21.94
			c2.72-1.35,6.02-2.12,9.06-2.13c57.3-0.15,114.6-0.17,171.89-0.17c11.22,0,20.14,8.76,20.25,19.69
			c0.11,10.7-8.41,19.23-20.01,19.3c-28.81,0.17-57.63,0.06-86.45,0.06C665.82,610.37,665.82,610.35,665.82,610.34z"/>
		<path d="M665.73,702.72c-28.33,0-56.65,0.02-84.98-0.01c-11.86-0.01-20.16-8.09-20.08-19.44c0.08-11.04,8.74-19.44,20.37-19.45
			c56.98-0.07,113.97-0.1,170.95-0.09c10.56,0,19.68,9.19,19.87,19.79c0.18,10.31-8.6,19.05-19.66,19.09
			c-28.82,0.11-57.65,0.04-86.47,0.04C665.73,702.67,665.73,702.69,665.73,702.72z"/>
		<path d="M666.25,478.33c28.33,0,56.67,0.37,84.99-0.18c11.42-0.22,20.44,9.07,20.82,19.18c0.41,10.99-8.19,19.64-20.07,19.67
			c-41.16,0.11-82.33,0.01-123.49,0c-16.66-0.01-33.33,0.2-49.99-0.06c-9.44-0.15-16.4-7.05-17.66-16.58
			c-1.25-9.43,4.24-18.49,13.02-21.12c2.18-0.65,4.59-0.8,6.89-0.8c28.5-0.05,57-0.03,85.5-0.03
			C666.25,478.39,666.25,478.36,666.25,478.33z"/>
		<path fill="#FFFFFF" d="M492.86,298.2c0-8.83-0.14-17.66,0.03-26.49c0.22-11.24,7.45-18.45,18.79-19.06
			c13.81-0.75,23.04,5.3,23.78,17.11c0.88,14.11,0.44,28.3,0.55,42.45c0.03,4.33,0.15,8.67-0.06,12.99
			c-0.45,9.25-5.19,15.68-14.28,17.36c-5.54,1.03-11.64,0.83-17.17-0.32c-7.6-1.58-11.62-8.2-11.72-17.07
			c-0.1-8.99-0.02-17.99-0.02-26.98C492.79,298.2,492.83,298.2,492.86,298.2z"/>
	</g>
</g>
</svg>
