<?xml version="1.0" encoding="utf-8"?>
<!-- Generator: Adobe Illustrator 27.8.0, SVG Export Plug-In . SVG Version: 6.00 Build 0)  -->
<svg version="1.1" id="Capa_1" xmlns="http://www.w3.org/2000/svg" xmlns:xlink="http://www.w3.org/1999/xlink" x="0px" y="0px"
	 viewBox="0 0 1024 1024" enable-background="new 0 0 1024 1024" xml:space="preserve">
<g>
	<g>
		<path fill="#FEFEFE" d="M511.5,1023.91c-168.97,0-337.94-0.01-506.91,0.09c-3.75,0-4.59-0.84-4.59-4.59
			C0.1,681.14,0.1,342.86,0,4.59C0,0.84,0.84,0,4.59,0c338.27,0.1,676.54,0.1,1014.82,0c3.75,0,4.59,0.84,4.59,4.59
			c-0.1,338.27-0.1,676.54,0,1014.81c0,3.75-0.84,4.6-4.59,4.59C850.11,1023.89,680.8,1023.91,511.5,1023.91z M512.17,849.03
			c0,0.02,0,0.03,0,0.05c26.5,0,52.99,0.17,79.48-0.07c12.14-0.11,24.21,0.83,36.3-3.39c7.33-2.56,14.92-4.41,21.59-8.45
			c28.99-17.55,44.19-43.18,44.46-77.29c0.11-13.5,0.14-27,0-40.49c-0.05-4.89,0.28-8.36,5.38-11.77
			c12.99-8.68,17.95-22.22,18.05-37.46c0.19-29.16,0.15-58.32,0.09-87.48c-0.01-3.64-0.16-7.41-1.11-10.89
			c-8.47-31.3-29.18-50.6-59.75-59.73c-10.76-3.22-22.01-3.07-33.17-3.13c-1.34-0.01-3.39,0.47-3.56-1.68
			c-0.13-1.64,1.61-1.81,2.83-2.27c0.62-0.23,1.21-0.53,1.83-0.77c30.49-11.71,51.13-33.28,63.16-63.35c1.02-2.54,2.25-3.53,4.9-4
			c14.36-2.58,22.36-12.18,22.42-26.63c0.04-9.5,0.05-19-0.02-28.49c-0.09-12.38-6.35-21.49-17.9-26.02
			c-2.38-0.93-3.82-2.18-4.18-4.93c-0.89-6.93-2.57-13.68-4.84-20.32c-10.03-29.28-28.73-51.4-55.27-66.99
			c-21.88-12.85-45.85-15.88-70.72-14.87c-11.81,0.48-23.65,0.21-35.48,0.32c-2.67,0.02-3.86-1-3.89-3.85
			c-0.08-7.66-0.35-15.31-0.68-22.97c-0.12-2.94,0.83-4.66,3.48-6.41c7.91-5.23,11.61-16.91,8.73-25.72
			c-3.36-10.28-12.41-17.07-22.36-16.78c-9.77,0.29-18.5,6.63-21.64,15.72c-3.29,9.53-0.29,20.32,7.83,26.32
			c2.89,2.13,4.05,4.31,3.93,7.84c-0.24,6.66-0.26,13.34,0.03,19.99c0.17,3.82-0.82,5.26-4.9,5.22
			c-14.83-0.14-29.66,0.15-44.49,0.13c-29.12-0.04-55.38,8.13-78,26.87c-24.01,19.88-39.24,44.85-43.51,76
			c-0.38,2.78-1.94,3.61-3.95,4.45c-12.7,5.3-18.11,13.21-18.19,26.81c-0.06,9.5-0.03,19-0.02,28.49c0.02,13.55,7.71,23.27,21,25.61
			c3.8,0.67,5.15,2.43,6.44,5.64c11.54,28.57,31.82,48.61,59.92,60.98c2.85,1.26,8.14,1.63,7.7,4.61c-0.38,2.56-5.6,1.1-8.61,1.09
			c-24.36-0.1-46.17,6.46-64.43,23.33c-16.27,15.03-24.97,33.28-24.95,55.54c0.02,26.66,0.04,53.32,0.07,79.98
			c0.02,17.52,5.83,32.24,20.87,42.34c1.84,1.24,2.15,2.66,2.14,4.59c-0.04,7.5-0.02,15,0.03,22.49c0.08,14.45-0.8,29,2.44,43.24
			c9.24,40.74,46.9,69.05,87.56,68.62C450.17,848.76,481.17,849.03,512.17,849.03z M845.12,253.95c0.77-18.29-6.33-33.91-16.8-45.54
			c-19.66-21.83-43.86-28.58-72.21-20.89c-25.79,7-47.79,33.95-49.09,60.49c-1.51,30.77,11.54,53.49,38.19,68.55
			c2.25,1.27,3.5,2.61,3.84,5.24c0.81,6.25,1.94,12.45,2.91,18.68c0.71,4.57,2.87,5.71,6.88,3.26c4.66-2.86,9.07-6.16,13.76-8.96
			c6.65-3.97,11.84-10.45,19.61-12.41C822.72,314.66,846.05,284.68,845.12,253.95z M287.4,321.2c0.5-3.06-1.54-4.65-3.38-6.38
			c-25.11-23.77-50.73-47.02-75.36-71.3c-5.22-5.15-9.45-5.3-13.83,0.51c-8.6,11.4-10.25,24.74-8.27,38.35
			c3.68,25.25,23.45,45.7,48.79,49.39c11.13,1.62,21.25,4.14,30.15,11.14c2.84,2.24,6.2,3.88,9.47,5.5c2.85,1.41,5.3,0.76,6.18-2.62
			C283.3,337.61,285.33,329.4,287.4,321.2z M234.42,838.1c30.26,0.71,54.95-23.76,55.15-54.29c0.2-29.39-24.53-53.8-54-53.85
			c-30.58-0.06-54.03,23.47-54.74,53.51C180.13,813.17,206.73,839.47,234.42,838.1z M245.72,214.04c-7.95-0.48-15.86,1.2-23.45,4.44
			c-10.11,4.31-10.57,6.45-2.44,13.96c22.95,21.22,45.62,42.74,68.03,64.54c5.28,5.14,9.6,4.22,12.7-2.52
			c5.37-11.66,5.93-23.88,2.78-36.02C296.8,233.22,274.09,213.22,245.72,214.04z M797.77,823.87c-0.95-2,0.36-4,2.29-5.81
			c6.55-6.14,13.15-12.21,19.59-18.47c1.74-1.69,3.18-1.94,5.27-0.82c4.58,2.47,8.02,0.31,10.85-3.18
			c3.07-3.79,2.67-7.83-0.18-11.45c-2.65-3.37-6.15-5.23-10.47-3.04c-2.32,1.17-3.92,0.79-5.73-1.01
			c-6.14-6.07-12.39-12.04-18.66-17.98c-2.35-2.22-3.44-4.62-2.78-7.97c0.8-4.05-1.18-7.24-4.53-9.21
			c-3.07-1.81-6.37-1.51-9.36,0.67c-3.31,2.41-4.85,5.71-3.59,9.57c0.96,2.96-0.09,4.7-2.02,6.55
			c-6.01,5.75-12.08,11.44-17.85,17.42c-2.29,2.38-4.1,3.23-7.3,1.65c-4.16-2.05-7.42,0.37-9.97,3.46
			c-2.87,3.47-2.97,7.29-0.49,11.09c2.31,3.54,5.45,5.81,9.64,3.76c3.69-1.8,5.82-0.26,8.24,2.14c5.9,5.86,11.48,12.07,18.04,17.24
			c1.75,1.38,2.29,3.02,1.66,5.28c-1.25,4.47,0.07,8.38,3.81,11c2.76,1.94,6.04,1.72,9,0.04
			C797.12,832.57,798.52,829.04,797.77,823.87z M274.06,553.15c0.04,0,0.07,0,0.11,0c0-3.83,0.06-7.67-0.01-11.5
			c-0.11-6.11-3.74-9.82-9.51-8.58c-8.74,1.89-17.37,4.41-25.9,7.11c-3.77,1.19-5.07,4.76-4.6,8.54c0.42,3.38,2.26,5.8,5.99,6.33
			c4.95,0.7,5.52,1.98,2.54,6.31c-4.8,6.98-9.85,13.79-14.58,20.82c-2.13,3.17-3.73,2.8-6.11,0.3c-4.7-4.95-9.55-9.76-14.5-14.45
			c-5.67-5.37-10.3-4.86-14.99,1.37c-2.6,3.45-4.7,7.48-7.91,10.22c-6.13,5.25-6.14,12.04-6.28,19.02c-0.06,2.84,0.44,5.37,3.38,6.6
			c3.19,1.34,5.1-0.88,6.69-2.92c3.27-4.19,6.41-8.5,9.29-12.96c2.1-3.25,3.86-3.4,6.55-0.68c5.03,5.09,10.11,10.15,15.47,14.87
			c5.27,4.64,10.15,3.92,14.36-1.87c7.13-9.8,14.19-19.66,21.13-29.59c2.07-2.96,3.59-3.82,7.06-1.4
			c5.86,4.08,11.67,0.63,11.82-6.56C274.13,560.48,274.06,556.81,274.06,553.15z M798.37,565c0-0.01,0-0.03,0-0.04
			c12.97,0,25.94,0.07,38.91-0.03c5.55-0.04,8.75-3.12,8.78-8c0.03-4.5-3.07-7.91-7.75-7.92c-25.94-0.07-51.88-0.11-77.83,0.06
			c-6.38,0.04-8.79,2.79-8.57,8.41c0.2,5.06,3.04,7.5,9.03,7.52C773.43,565.03,785.9,565,798.37,565z M798.66,603.06
			c0-0.01,0-0.02,0-0.03c12.99,0,25.98-0.04,38.97,0.03c3.07,0.02,5.65-0.79,7.3-3.42c1.62-2.59,1.57-5.39,0.12-8.06
			c-1.79-3.31-4.84-4.33-8.39-4.32c-16.65,0.04-33.3,0.09-49.96,0.12c-8.66,0.02-17.32-0.15-25.98,0.1
			c-6.26,0.18-8.85,2.95-8.72,8.41c0.12,5.02,2.89,7.17,9.19,7.17C773.68,603.05,786.17,603.06,798.66,603.06z M223.88,625.89
			c0,0.02,0,0.05,0,0.07c-12.82,0-25.65-0.06-38.47,0.03c-5,0.04-8.21,3.12-8.28,7.51c-0.09,4.93,3.27,8.48,8.42,8.49
			c25.15,0.06,50.29,0.07,75.44-0.02c6.11-0.02,9.14-2.95,9.11-8.13c-0.02-5.16-3.16-7.92-9.25-7.94
			C248.53,625.86,236.2,625.89,223.88,625.89z M786.95,625.93c-8.49,0-16.98-0.02-25.47,0.01c-5.99,0.02-9.37,2.81-9.47,7.73
			c-0.1,5.03,3.07,8.03,9.27,8.05c17.31,0.08,34.63,0.02,51.94-0.13c5.33-0.05,8.55-3.14,8.62-7.65c0.06-4.57-3.65-7.96-8.91-7.99
			C804.27,625.9,795.61,625.94,786.95,625.93z M799.15,466.13c10.04,0,17.64-7.04,17.66-16.33c0.02-9.06-7.79-16.8-16.86-16.69
			c-9.63,0.11-16.47,7.1-16.49,16.86C783.44,459.33,790.04,466.14,799.15,466.13z M221.97,466.15c10.14,0.1,17.92-7.2,17.81-16.7
			c-0.1-8.4-7.95-16.27-16.29-16.34c-9.5-0.08-16.65,6.92-16.87,16.52C206.39,458.95,213.01,466.07,221.97,466.15z M665.96,208.85
			c-0.58-4.02-2.9-5.8-6.73-6.18c-2.95-0.29-6.43,1.12-8.74-0.88c-2.43-2.11-0.53-5.65-1.05-8.52c-0.63-3.48-2.27-6.29-6.08-5.91
			c-3.43,0.34-5.4,2.56-5.44,6.51c-0.07,8.36-0.23,8.36-8.31,8.58c-0.33,0.01-0.67-0.01-1,0.01c-5.14,0.34-7.95,2.83-7.57,6.7
			c0.34,3.36,3.85,5.62,8.3,5.33c8.09-0.52,8.09-0.52,8.46,7.41c0.03,0.66,0.03,1.33,0.05,2c0.14,3.54,2.08,5.78,5.48,5.95
			c3.4,0.17,4.79-2.41,5.43-5.44c0.68-3.21-1.37-7.35,1.4-9.53c2.71-2.13,6.75-0.7,10.19-0.81
			C663.96,213.94,665.14,211.62,665.96,208.85z M384.6,232.02c4.17,0.07,5.1-2.26,5.59-5.42c0.41-2.61-0.61-5.8,1.2-7.72
			c1.9-2.01,5.08-0.48,7.67-0.87c3.3-0.5,5.59-2.04,5.84-5.68c0.28-3.96-2.47-5.9-5.51-5.61c-6.65,0.65-9.03-1.82-8.83-8.37
			c0.09-2.9-2.66-4.57-5.75-4.21c-2.64,0.31-5.14,1.49-4.64,4.71c0.98,6.28-2.18,8.14-7.71,7.97c-0.99-0.03-2,0.13-2.97,0.37
			c-2.89,0.71-4.79,2.3-4.51,5.59c0.27,3.12,2.18,4.75,5.08,5.24c1.46,0.25,3.01,0.25,4.48,0.06c4.28-0.55,5.74,1.43,5.34,5.45
			c-0.13,1.31-0.02,2.67,0.13,3.99C380.36,230.48,382.27,231.76,384.6,232.02z M811.38,690.45c0.11-0.75-0.54-1.54-1.51-1.93
			c-5.02-2.04-7.86-5.85-9.29-10.96c-0.43-1.54-1.74-2.56-3.42-2.34c-1.78,0.23-2.99,1.22-3.15,3.26c-0.34,4.27-2.72,6.98-6.64,8.52
			c-1.7,0.67-3.46,1.36-3.38,3.74c0.07,2.06,1.62,2.82,3.1,3.51c3.28,1.54,6.02,3.45,6.53,7.43c0.27,2.13,1.22,3.91,3.62,4.11
			c2.63,0.22,3.34-1.92,3.82-3.83c1.07-4.23,3.48-7.03,7.67-8.36C810.01,693.21,811.16,692.45,811.38,690.45z M791.01,515.67
			c0.01-4.47-3.87-8.66-7.94-8.58c-4.32,0.09-8.05,4.06-8,8.51c0.05,4.46,3.55,8.22,7.63,8.19
			C787.04,523.76,791,519.89,791.01,515.67z M235.06,387.97c-0.05-4.5-3.5-7.97-7.86-7.91c-4.42,0.06-7.6,3.47-7.6,8.16
			c0,4.57,3.34,7.91,7.81,7.8C231.94,395.92,235.11,392.58,235.06,387.97z M798.94,380.01c-4.74-0.09-7.96,3.19-8.02,8.16
			c-0.05,4.58,2.81,7.85,6.98,7.97c4.29,0.12,8.64-3.83,8.64-7.86C806.55,383.87,803.07,380.09,798.94,380.01z M262.46,691.29
			c-0.05-4.41-3.23-8.17-7.02-8.26c-4.29-0.11-8.3,3.88-8.29,8.25c0.01,4.18,3.35,7.66,7.38,7.7
			C259.08,699.02,262.51,695.69,262.46,691.29z"/>
		<path fill="#F8578C" d="M512.17,849.03c-30.99,0-61.99-0.26-92.98,0.07c-40.66,0.43-78.32-27.88-87.56-68.62
			c-3.23-14.24-2.35-28.78-2.44-43.24c-0.04-7.5-0.07-15-0.03-22.49c0.01-1.93-0.3-3.36-2.14-4.59
			c-15.03-10.09-20.84-24.81-20.87-42.34c-0.03-26.66-0.05-53.32-0.07-79.98c-0.02-22.26,8.69-40.51,24.95-55.54
			c18.26-16.87,40.07-23.43,64.43-23.33c3.01,0.01,8.24,1.47,8.61-1.09c0.44-2.98-4.84-3.35-7.7-4.61
			c-28.1-12.37-48.38-32.41-59.92-60.98c-1.29-3.2-2.64-4.96-6.44-5.64c-13.29-2.34-20.98-12.06-21-25.61
			c-0.01-9.5-0.03-19,0.02-28.49c0.08-13.6,5.49-21.51,18.19-26.81c2.01-0.84,3.57-1.67,3.95-4.45c4.27-31.15,19.5-56.12,43.51-76
			c22.62-18.74,48.88-26.91,78-26.87c14.83,0.02,29.66-0.27,44.49-0.13c4.08,0.04,5.07-1.4,4.9-5.22
			c-0.3-6.65-0.27-13.33-0.03-19.99c0.13-3.53-1.04-5.7-3.93-7.84c-8.12-6-11.12-16.79-7.83-26.32
			c3.14-9.09,11.87-15.43,21.64-15.72c9.95-0.29,19,6.5,22.36,16.78c2.88,8.8-0.82,20.49-8.73,25.72c-2.65,1.75-3.6,3.47-3.48,6.41
			c0.33,7.65,0.59,15.31,0.68,22.97c0.03,2.85,1.22,3.87,3.89,3.85c11.83-0.11,23.67,0.16,35.48-0.32
			c24.87-1.01,48.84,2.02,70.72,14.87c26.55,15.59,45.24,37.7,55.27,66.99c2.27,6.64,3.95,13.39,4.84,20.32
			c0.36,2.76,1.8,4,4.18,4.93c11.54,4.53,17.8,13.64,17.9,26.02c0.07,9.5,0.06,19,0.02,28.49c-0.06,14.45-8.06,24.05-22.42,26.63
			c-2.65,0.48-3.88,1.47-4.9,4c-12.03,30.07-32.67,51.65-63.16,63.35c-0.62,0.24-1.21,0.54-1.83,0.77
			c-1.21,0.45-2.96,0.62-2.83,2.27c0.17,2.15,2.22,1.67,3.56,1.68c11.16,0.06,22.41-0.09,33.17,3.13
			c30.57,9.14,51.28,28.43,59.75,59.73c0.94,3.48,1.1,7.25,1.11,10.89c0.05,29.16,0.1,58.32-0.09,87.48
			c-0.1,15.24-5.06,28.78-18.05,37.46c-5.1,3.41-5.43,6.88-5.38,11.77c0.14,13.5,0.11,26.99,0,40.49
			c-0.27,34.11-15.47,59.73-44.46,77.29c-6.66,4.03-14.26,5.89-21.59,8.45c-12.09,4.22-24.16,3.28-36.3,3.39
			c-26.49,0.24-52.99,0.07-79.48,0.07C512.17,849.06,512.17,849.04,512.17,849.03z M511.49,530.1c0-0.02,0-0.04,0-0.05
			c-41.32,0-82.64,0.11-123.95-0.06c-12.75-0.05-24.1,3.93-35.07,9.92c-3.4,1.86-4.46,4.23-4.44,8c0.15,20.66-0.09,41.32,0.07,61.98
			c0.39,50.96-1.42,101.95,0.99,152.87c1.04,21.91,12.01,39.43,29.53,52.54c12.84,9.61,27.74,13.48,43.53,13.53
			c51.31,0.16,102.63,0.13,153.94,0.03c11.97-0.02,23.95,0.36,35.93-0.69c30.31-2.64,56.82-26.91,61.94-56.91
			c2.26-13.22,1.57-26.57,1.64-39.83c0.35-61.47,0.18-122.95,0.31-184.43c0.01-3.24-1.06-5.32-3.7-6.97
			c-10.04-6.26-21.08-9.75-32.78-9.82C596.79,529.94,554.14,530.1,511.49,530.1z M512.09,489.05c0-0.01,0-0.02,0-0.03
			c27.99,0,55.99-0.09,83.98,0.04c10.57,0.05,20.51-2.63,29.57-7.51c31.13-16.78,47.41-43.03,48.3-78.52
			c0.27-10.65,0.11-21.32,0.25-31.98c0.13-9.88-1.29-19.55-3.92-29.03c-6.08-21.96-18.88-39.45-36.8-53.12
			c-15.97-12.18-33.88-19.09-54.4-18.97c-44.49,0.25-88.98,0.12-133.47,0.03c-12.98-0.03-25.34,2.34-37.1,7.97
			c-30.09,14.4-48.88,37.85-56.45,70.27c-3.79,16.21-3.01,32.74-2.8,49.18c0.33,25.93,8.1,49.01,26.93,67.67
			c15.24,15.09,32.97,24.18,54.93,24.04C458.1,488.91,485.1,489.05,512.09,489.05z"/>
		<path fill="#F8578C" d="M845.12,253.95c0.93,30.72-22.4,60.7-52.92,68.42c-7.76,1.96-12.95,8.44-19.61,12.41
			c-4.7,2.8-9.1,6.1-13.76,8.96c-4,2.46-6.17,1.31-6.88-3.26c-0.97-6.23-2.1-12.43-2.91-18.68c-0.34-2.63-1.59-3.97-3.84-5.24
			c-26.65-15.06-39.7-37.79-38.19-68.55c1.3-26.53,23.3-53.49,49.09-60.49c28.35-7.7,52.56-0.95,72.21,20.89
			C838.79,220.05,845.89,235.66,845.12,253.95z M791.36,278.39c1.46,0.31,2.83,1.52,4.03,2.84c3.06,3.4,5.91,3.6,9.27,0.22
			c3.22-3.24,4.1-6.09,0.47-9.62c-1.82-1.77-3.69-3.57-2.24-6.9c1.52-3.49,3.3-5.37,7.38-4.93c2.23,0.24,5.46,1.13,6.18-2.42
			c0.69-3.4,1.19-7.08-0.6-10.24c-1.49-2.63-4.52-1.3-6.82-1.36c-3.35-0.08-4.65-1.8-6.05-4.6c-1.49-2.99,0.19-4.06,1.73-5.78
			c1.81-2.03,4.45-4.02,2.67-7.3c-2.86-5.27-8.39-6.64-12.68-2.55c-3.53,3.37-5.97,0.46-8.9-0.29c-3.04-0.78-2.87-3.14-2.94-5.53
			c-0.06-2.11,0.84-4.98-1.22-6.07c-3.3-1.74-7.22-1.14-10.71-0.32c-3.11,0.73-1.57,3.9-1.91,6.03c-0.34,2.13,0.9,4.89-2.44,5.75
			c-3.21,0.83-5.96,4.16-9.8,0.35c-3.98-3.96-6.37-3.35-10.31,0.12c-3.83,3.38-2.49,6.3,0.13,9.39c1.5,1.77,2.75,3.24,1.95,6.14
			c-1.27,4.59-4.33,5-8.01,4.65c-3.66-0.35-5.26,1.05-4.81,4.77c0.14,1.14,0.05,2.33-0.06,3.49c-0.41,4.32,1.08,6.57,5.84,5.88
			c2.88-0.42,5.24-0.11,6.72,3.39c1.47,3.49,0.84,5.69-1.61,8.23c-3.92,4.06-3.54,4.62,1.38,10.12c3.22,3.6,6.07,2.54,8.26-0.41
			c3.23-4.34,6.61-2.05,10.14-1.08c3.54,0.98,2.48,3.83,2.59,6.16c0.3,6.28,0.65,6.25,8.12,6.62c5.35,0.27,6.04-2.31,5.91-6.63
			C782.88,281.19,785.63,278.56,791.36,278.39z"/>
		<path fill="#F8578C" d="M287.4,321.2c-2.08,8.2-4.11,16.4-6.25,24.58c-0.89,3.38-3.34,4.04-6.18,2.62
			c-3.27-1.62-6.63-3.26-9.47-5.5c-8.9-7-19.02-9.52-30.15-11.14c-25.34-3.69-45.1-24.14-48.79-49.39
			c-1.99-13.62-0.34-26.96,8.27-38.35c4.38-5.81,8.61-5.66,13.83-0.51c24.63,24.29,50.25,47.53,75.36,71.3
			C285.86,316.56,287.9,318.14,287.4,321.2z"/>
		<path fill="#F8578C" d="M234.42,838.1c-27.69,1.37-54.29-24.94-53.59-54.63c0.71-30.04,24.15-53.57,54.74-53.51
			c29.47,0.05,54.2,24.46,54,53.85C289.37,814.34,264.68,838.81,234.42,838.1z M235.31,746.66c-22.7-0.8-40.02,19.39-38.01,40.25
			c2,20.83,19.91,35.56,40.35,34.36c25.3-1.49,41.8-25.48,33.05-49.12c-1.87-5.06-2.24-5.23-6.31-1.93
			c-7.98,6.48-15.8,13.17-23.88,19.53c-4.87,3.83-11.64,0.93-12.27-5.13c-0.41-3.97,2.58-6.38,5.12-8.64
			c6.45-5.74,13.11-11.23,19.7-16.82c4.45-3.77,4.28-5.35-0.85-8.38C246.72,747.54,240.69,746.7,235.31,746.66z"/>
		<path fill="#F8578C" d="M245.72,214.04c28.37-0.82,51.08,19.18,57.62,44.39c3.15,12.14,2.6,24.36-2.78,36.02
			c-3.11,6.74-7.43,7.66-12.7,2.52c-22.4-21.8-45.07-43.31-68.03-64.54c-8.13-7.52-7.67-9.65,2.44-13.96
			C229.86,215.24,237.77,213.56,245.72,214.04z"/>
		<path fill="#F8578C" d="M797.77,823.87c0.75,5.18-0.65,8.7-4.58,10.94c-2.95,1.68-6.24,1.9-9-0.04c-3.74-2.63-5.06-6.54-3.81-11
			c0.63-2.26,0.09-3.9-1.66-5.28c-6.56-5.17-12.14-11.38-18.04-17.24c-2.41-2.4-4.55-3.94-8.24-2.14c-4.19,2.05-7.33-0.22-9.64-3.76
			c-2.48-3.8-2.38-7.62,0.49-11.09c2.56-3.09,5.81-5.51,9.97-3.46c3.21,1.58,5.01,0.73,7.3-1.65c5.77-5.98,11.85-11.67,17.85-17.42
			c1.93-1.85,2.99-3.58,2.02-6.55c-1.26-3.86,0.29-7.16,3.59-9.57c2.99-2.18,6.29-2.48,9.36-0.67c3.35,1.97,5.33,5.16,4.53,9.21
			c-0.66,3.35,0.43,5.75,2.78,7.97c6.27,5.94,12.52,11.9,18.66,17.98c1.81,1.79,3.41,2.18,5.73,1.01c4.32-2.19,7.83-0.33,10.47,3.04
			c2.84,3.62,3.25,7.67,0.18,11.45c-2.83,3.49-6.27,5.65-10.85,3.18c-2.08-1.12-3.52-0.87-5.27,0.82
			c-6.44,6.25-13.04,12.33-19.59,18.47C798.13,819.87,796.82,821.86,797.77,823.87z"/>
		<path fill="#F8578C" d="M274.06,553.15c0,3.67,0.06,7.33-0.01,11c-0.15,7.19-5.96,10.64-11.82,6.56c-3.48-2.42-5-1.56-7.06,1.4
			c-6.94,9.93-14,19.79-21.13,29.59c-4.21,5.79-9.09,6.51-14.36,1.87c-5.36-4.73-10.45-9.78-15.47-14.87
			c-2.69-2.73-4.46-2.58-6.55,0.68c-2.88,4.46-6.02,8.77-9.29,12.96c-1.59,2.04-3.5,4.26-6.69,2.92c-2.94-1.23-3.44-3.76-3.38-6.6
			c0.15-6.98,0.15-13.77,6.28-19.02c3.21-2.74,5.31-6.77,7.91-10.22c4.69-6.24,9.31-6.75,14.99-1.37c4.95,4.69,9.8,9.5,14.5,14.45
			c2.38,2.51,3.98,2.87,6.11-0.3c4.73-7.03,9.78-13.84,14.58-20.82c2.98-4.33,2.41-5.61-2.54-6.31c-3.73-0.53-5.57-2.95-5.99-6.33
			c-0.47-3.77,0.83-7.34,4.6-8.54c8.53-2.7,17.16-5.23,25.9-7.11c5.77-1.25,9.4,2.47,9.51,8.58c0.07,3.83,0.01,7.66,0.01,11.5
			C274.14,553.15,274.1,553.15,274.06,553.15z"/>
		<path fill="#F8578C" d="M798.37,565c-12.47,0-24.94,0.03-37.42-0.01c-5.99-0.02-8.83-2.46-9.03-7.52
			c-0.22-5.62,2.19-8.37,8.57-8.41c25.94-0.16,51.88-0.13,77.83-0.06c4.68,0.01,7.78,3.43,7.75,7.92c-0.04,4.89-3.23,7.96-8.78,8
			c-12.97,0.1-25.94,0.03-38.91,0.03C798.37,564.97,798.37,564.99,798.37,565z"/>
		<path fill="#F8578C" d="M798.66,603.06c-12.49,0-24.98,0-37.47,0c-6.3,0-9.07-2.16-9.19-7.17c-0.13-5.46,2.47-8.23,8.72-8.41
			c8.65-0.25,17.32-0.08,25.98-0.1c16.65-0.04,33.3-0.08,49.96-0.12c3.54-0.01,6.59,1.01,8.39,4.32c1.45,2.67,1.5,5.48-0.12,8.06
			c-1.65,2.63-4.23,3.44-7.3,3.42c-12.99-0.08-25.98-0.03-38.97-0.03C798.66,603.03,798.66,603.04,798.66,603.06z"/>
		<path fill="#F8578C" d="M223.88,625.89c12.32,0,24.65-0.03,36.97,0.01c6.09,0.02,9.23,2.78,9.25,7.94c0.02,5.18-3,8.11-9.11,8.13
			c-25.15,0.09-50.29,0.08-75.44,0.02c-5.15-0.01-8.51-3.56-8.42-8.49c0.08-4.39,3.28-7.48,8.28-7.51
			c12.82-0.1,25.65-0.03,38.47-0.03C223.88,625.93,223.88,625.91,223.88,625.89z"/>
		<path fill="#F8578C" d="M786.95,625.94c8.66,0,17.31-0.03,25.97,0.01c5.26,0.03,8.97,3.43,8.91,7.99
			c-0.06,4.51-3.29,7.6-8.62,7.65c-17.31,0.15-34.63,0.21-51.94,0.13c-6.2-0.03-9.37-3.03-9.27-8.05c0.1-4.92,3.48-7.71,9.47-7.73
			C769.97,625.91,778.46,625.93,786.95,625.94z"/>
		<path fill="#F8578C" d="M799.15,466.13c-9.11,0-15.71-6.8-15.69-16.16c0.02-9.76,6.86-16.75,16.49-16.86
			c9.07-0.1,16.88,7.63,16.86,16.69C816.79,459.1,809.19,466.13,799.15,466.13z"/>
		<path fill="#F8578C" d="M221.97,466.15c-8.96-0.09-15.58-7.21-15.36-16.52c0.23-9.6,7.38-16.6,16.87-16.52
			c8.34,0.07,16.19,7.95,16.29,16.34C239.89,458.95,232.11,466.25,221.97,466.15z"/>
		<path fill="#F8578C" d="M665.96,208.85c-0.83,2.77-2,5.09-5.58,5.21c-3.45,0.11-7.49-1.32-10.19,0.81
			c-2.77,2.18-0.72,6.32-1.4,9.53c-0.64,3.03-2.03,5.61-5.43,5.44c-3.4-0.17-5.34-2.41-5.48-5.95c-0.03-0.67-0.02-1.33-0.05-2
			c-0.38-7.93-0.38-7.93-8.46-7.41c-4.44,0.28-7.96-1.98-8.3-5.33c-0.39-3.87,2.42-6.36,7.57-6.7c0.33-0.02,0.67,0,1-0.01
			c8.08-0.22,8.24-0.22,8.31-8.58c0.03-3.95,2-6.16,5.44-6.51c3.82-0.38,5.45,2.43,6.08,5.91c0.52,2.87-1.39,6.41,1.05,8.52
			c2.31,2.01,5.79,0.59,8.74,0.88C663.06,203.05,665.38,204.83,665.96,208.85z"/>
		<path fill="#F8578C" d="M384.6,232.02c-2.33-0.26-4.24-1.54-4.57-4.5c-0.15-1.32-0.26-2.68-0.13-3.99c0.4-4.02-1.07-6-5.34-5.45
			c-1.47,0.19-3.02,0.18-4.48-0.06c-2.89-0.49-4.81-2.13-5.08-5.24c-0.28-3.29,1.62-4.87,4.51-5.59c0.96-0.24,1.98-0.4,2.97-0.37
			c5.52,0.17,8.68-1.69,7.71-7.97c-0.5-3.22,1.99-4.39,4.64-4.71c3.08-0.37,5.83,1.31,5.75,4.21c-0.2,6.55,2.18,9.02,8.83,8.37
			c3.04-0.3,5.79,1.65,5.51,5.61c-0.25,3.64-2.54,5.18-5.84,5.68c-2.59,0.39-5.76-1.14-7.67,0.87c-1.82,1.92-0.8,5.11-1.2,7.72
			C389.7,229.75,388.77,232.09,384.6,232.02z"/>
		<path fill="#F8578C" d="M811.38,690.45c-0.22,2-1.37,2.76-2.64,3.16c-4.19,1.33-6.61,4.13-7.67,8.36
			c-0.48,1.91-1.19,4.04-3.82,3.83c-2.4-0.2-3.35-1.98-3.62-4.11c-0.51-3.99-3.25-5.89-6.53-7.43c-1.48-0.69-3.03-1.45-3.1-3.51
			c-0.09-2.38,1.68-3.08,3.38-3.74c3.92-1.54,6.31-4.25,6.64-8.52c0.16-2.04,1.37-3.03,3.15-3.26c1.68-0.22,2.99,0.8,3.42,2.34
			c1.43,5.11,4.27,8.92,9.29,10.96C810.84,688.91,811.48,689.7,811.38,690.45z"/>
		<path fill="#F8578C" d="M791.01,515.67c-0.01,4.22-3.97,8.09-8.31,8.12c-4.08,0.03-7.58-3.73-7.63-8.19
			c-0.05-4.44,3.69-8.42,8-8.51C787.13,507.01,791.02,511.2,791.01,515.67z"/>
		<path fill="#F8578C" d="M235.06,387.97c0.05,4.61-3.12,7.95-7.65,8.06c-4.47,0.11-7.82-3.24-7.81-7.8c0-4.69,3.18-8.1,7.6-8.16
			C231.56,380,235.01,383.47,235.06,387.97z"/>
		<path fill="#F8578C" d="M798.94,380.01c4.13,0.08,7.61,3.86,7.6,8.26c-0.01,4.03-4.35,7.98-8.64,7.86
			c-4.17-0.12-7.03-3.38-6.98-7.97C790.98,383.2,794.21,379.92,798.94,380.01z"/>
		<path fill="#F8578C" d="M262.46,691.29c0.05,4.4-3.38,7.73-7.92,7.68c-4.04-0.04-7.37-3.52-7.38-7.7c-0.01-4.37,4-8.36,8.29-8.25
			C259.23,683.13,262.42,686.88,262.46,691.29z"/>
		<path fill="#FEFEFE" d="M511.49,530.1c42.65,0,85.3-0.16,127.95,0.1c11.71,0.07,22.74,3.56,32.78,9.82
			c2.65,1.65,3.71,3.73,3.7,6.97c-0.13,61.48,0.04,122.95-0.31,184.43c-0.08,13.26,0.61,26.61-1.64,39.83
			c-5.12,30-31.64,54.27-61.94,56.91c-11.98,1.04-23.96,0.66-35.93,0.69c-51.31,0.1-102.63,0.14-153.94-0.03
			c-15.79-0.05-30.69-3.92-43.53-13.53c-17.53-13.12-28.5-30.63-29.53-52.54c-2.41-50.92-0.6-101.91-0.99-152.87
			c-0.16-20.66,0.08-41.32-0.07-61.98c-0.03-3.77,1.03-6.15,4.44-8c10.96-5.99,22.32-9.97,35.07-9.92
			c41.32,0.17,82.64,0.06,123.95,0.06C511.49,530.06,511.49,530.08,511.49,530.1z M511.83,592.54c0,0.14,0,0.27,0,0.41
			c-12.99,0-25.98,0-38.97,0c-13.16,0-26.32,0.02-39.48,0.02c-14.52,0.01-23.81,9.05-23.86,23.53
			c-0.15,40.64-0.17,81.29-0.31,121.93c-0.02,7.14,2.12,13.3,7.01,18.56c10.65,11.45,21.28,22.94,31.84,34.48
			c2.96,3.24,5.59,3.59,8.77,0.23c6.29-6.65,13.05-12.87,19.08-19.74c6.37-7.28,13.44-12,23.59-10.24c1.78,0.31,3.66,0.04,5.49,0.04
			c28.99-0.02,57.97,0.06,86.96-0.08c14.15-0.07,22.9-9.32,22.88-23.3c-0.05-40.14-0.02-80.29,0.06-120.43
			c0.03-15.31-9.89-25.43-25.1-25.42C563.79,592.56,537.81,592.54,511.83,592.54z"/>
		<path fill="#FEFEFE" d="M512.09,489.05c-26.99,0-53.99-0.14-80.98,0.04c-21.96,0.14-39.7-8.94-54.93-24.04
			c-18.83-18.66-26.6-41.74-26.93-67.67c-0.21-16.44-0.99-32.97,2.8-49.18c7.58-32.42,26.37-55.87,56.45-70.27
			c11.76-5.63,24.12-8,37.1-7.97c44.49,0.09,88.98,0.21,133.47-0.03c20.52-0.11,38.43,6.79,54.4,18.97
			c17.92,13.67,30.71,31.16,36.8,53.12c2.63,9.48,4.04,19.15,3.92,29.03c-0.14,10.66,0.02,21.32-0.25,31.98
			c-0.89,35.49-17.17,61.74-48.3,78.52c-9.06,4.88-19,7.56-29.57,7.51c-27.99-0.13-55.99-0.04-83.98-0.04
			C512.09,489.03,512.09,489.04,512.09,489.05z M511.54,444.98c13.49,0,26.98,0,40.47,0c13.49,0,26.98,0.06,40.47-0.01
			c13.27-0.07,25.09-4.26,35.1-13.05c21.77-19.12,29.58-49.6,15.63-77.16c-11.39-22.49-29.32-35.65-55.26-35.71
			c-50.63-0.13-101.26-0.02-151.89-0.03c-4.84,0-9.65,0.48-14.29,1.7c-27.23,7.18-46.44,32.13-47.85,60.48
			c-1.57,31.55,23.11,65.61,61.69,63.98C460.88,444.12,486.23,444.99,511.54,444.98z"/>
		<path fill="#FEFEFE" d="M791.36,278.39c-5.72,0.18-8.48,2.8-8.32,8.15c0.13,4.32-0.56,6.9-5.91,6.63
			c-7.47-0.37-7.82-0.34-8.12-6.62c-0.11-2.32,0.96-5.18-2.59-6.16c-3.53-0.97-6.91-3.26-10.14,1.08c-2.2,2.95-5.05,4-8.26,0.41
			c-4.92-5.5-5.3-6.07-1.38-10.12c2.45-2.54,3.09-4.74,1.61-8.23c-1.48-3.51-3.84-3.81-6.72-3.39c-4.76,0.69-6.25-1.56-5.84-5.88
			c0.11-1.16,0.2-2.35,0.06-3.49c-0.45-3.72,1.15-5.13,4.81-4.77c3.68,0.35,6.74-0.06,8.01-4.65c0.8-2.9-0.45-4.37-1.95-6.14
			c-2.62-3.09-3.96-6.02-0.13-9.39c3.94-3.47,6.33-4.08,10.31-0.12c3.83,3.81,6.58,0.48,9.8-0.35c3.34-0.86,2.1-3.62,2.44-5.75
			c0.34-2.13-1.19-5.3,1.91-6.03c3.48-0.82,7.41-1.42,10.71,0.32c2.06,1.09,1.16,3.96,1.22,6.07c0.07,2.39-0.11,4.75,2.94,5.53
			c2.92,0.75,5.37,3.66,8.9,0.29c4.29-4.09,9.82-2.73,12.68,2.55c1.78,3.28-0.86,5.27-2.67,7.3c-1.53,1.72-3.22,2.8-1.73,5.78
			c1.4,2.8,2.7,4.52,6.05,4.6c2.3,0.06,5.33-1.28,6.82,1.36c1.79,3.16,1.29,6.84,0.6,10.24c-0.72,3.55-3.96,2.66-6.18,2.42
			c-4.08-0.44-5.86,1.44-7.38,4.93c-1.45,3.33,0.42,5.13,2.24,6.9c3.62,3.53,2.75,6.38-0.47,9.62c-3.36,3.38-6.21,3.18-9.27-0.22
			C794.19,279.91,792.82,278.7,791.36,278.39z M775.95,266.35c7.8-0.03,14.08-5.93,13.98-13.13c-0.1-7.3-6.06-13.47-13.12-13.58
			c-7.79-0.13-13.94,5.89-13.98,13.69C762.79,261.14,768.06,266.38,775.95,266.35z"/>
		<path fill="#FEFEFE" d="M235.31,746.66c5.38,0.04,11.42,0.88,16.9,4.11c5.14,3.03,5.3,4.61,0.85,8.38
			c-6.58,5.59-13.25,11.08-19.7,16.82c-2.54,2.26-5.53,4.67-5.12,8.64c0.63,6.06,7.4,8.97,12.27,5.13
			c8.08-6.36,15.89-13.05,23.88-19.53c4.06-3.3,4.43-3.13,6.31,1.93c8.75,23.64-7.76,47.63-33.05,49.12
			c-20.45,1.21-38.35-13.53-40.35-34.36C195.29,766.05,212.61,745.86,235.31,746.66z"/>
		<path fill="#F8578C" d="M511.83,592.54c25.98,0,51.96,0.02,77.95-0.01c15.21-0.01,25.13,10.11,25.1,25.42
			c-0.08,40.14-0.11,80.29-0.06,120.43c0.02,13.98-8.73,23.24-22.88,23.3c-28.99,0.14-57.97,0.07-86.96,0.08
			c-1.83,0-3.71,0.27-5.49-0.04c-10.15-1.76-17.22,2.96-23.59,10.24c-6.02,6.88-12.79,13.1-19.08,19.74c-3.18,3.36-5.81,3-8.77-0.23
			c-10.56-11.54-21.18-23.02-31.84-34.48c-4.89-5.26-7.03-11.42-7.01-18.56c0.14-40.64,0.17-81.29,0.31-121.93
			c0.05-14.48,9.34-23.53,23.86-23.53c13.16-0.01,26.32-0.02,39.48-0.02c12.99,0,25.98,0,38.97,0
			C511.83,592.81,511.83,592.68,511.83,592.54z M512.51,731.97c0-0.01,0-0.02,0-0.04c19.82,0,39.64-0.25,59.45,0.16
			c5.44,0.11,10.68-4.16,10.79-9.97c0.1-5.6-4.2-9.46-10.59-9.46c-40.46,0.02-80.93,0.15-121.39,0.19c-3.1,0-5.41,1.08-7.12,3.7
			c-2.22,3.41-2.33,6.91-0.53,10.4c1.83,3.56,4.81,5.09,8.95,5.06C472.21,731.9,492.36,731.97,512.51,731.97z M512.03,626.95
			c0,0.02,0,0.04,0,0.07c-20.14,0-40.29-0.03-60.43,0.02c-5.98,0.01-9.64,3.5-9.72,8.98c-0.09,5.82,3.95,9.98,9.91,10.06
			c4.99,0.06,9.99-0.02,14.98-0.03c34.8-0.02,69.59-0.03,104.39-0.08c7.46-0.01,11.39-3.75,11.04-10.32
			c-0.28-5.21-4.48-8.68-10.72-8.69C551.65,626.93,531.84,626.95,512.03,626.95z M512.07,669.9c0,0.02,0,0.04,0,0.06
			c-19.81,0-39.61-0.02-59.42,0.01c-6.47,0.01-10.61,3.36-10.71,8.49c-0.12,6.33,3.94,10.53,10.62,10.53
			c39.28,0.02,78.56-0.03,117.84-0.09c2.82,0,5.74-0.24,8.1-1.93c3.68-2.63,4.61-6.36,3.36-10.61c-1.37-4.65-4.78-6.46-9.38-6.46
			C552.35,669.89,532.21,669.9,512.07,669.9z"/>
		<path fill="#361426" d="M511.54,444.99c-25.31,0-50.67-0.86-75.94,0.2c-38.57,1.62-63.26-32.43-61.69-63.98
			c1.41-28.35,20.61-53.3,47.85-60.48c4.64-1.22,9.45-1.7,14.29-1.7c50.63,0.01,101.26-0.09,151.89,0.03
			c25.95,0.06,43.87,13.22,55.26,35.71c13.95,27.56,6.15,58.04-15.63,77.16c-10.01,8.79-21.83,12.98-35.1,13.05
			c-13.49,0.07-26.98,0.01-40.47,0.01C538.52,444.98,525.03,444.98,511.54,444.99z M479.9,381.63
			c-0.16-18.07-14.62-32.66-32.24-32.53c-17.89,0.13-32.27,14.69-32.19,32.6c0.08,17.91,14.77,32.5,32.47,32.27
			C465.36,413.74,480.05,398.87,479.9,381.63z M576.39,349.04c-18.04-0.06-32.21,14.54-32.09,33.07
			c0.11,17.25,14.64,31.64,32.03,31.71c17.97,0.08,32.39-14.31,32.32-32.25C608.58,363.72,594.08,349.1,576.39,349.04z"/>
		<path fill="#F8578C" d="M775.95,266.35c-7.89,0.03-13.16-5.2-13.12-13.03c0.04-7.8,6.19-13.81,13.98-13.69
			c7.06,0.12,13.02,6.28,13.12,13.58C790.03,260.42,783.75,266.31,775.95,266.35z"/>
		<path fill="#FEFEFE" d="M512.51,731.97c-20.15,0-40.3-0.07-60.45,0.05c-4.15,0.02-7.12-1.5-8.95-5.06c-1.8-3.49-1.69-7,0.53-10.4
			c1.71-2.62,4.01-3.7,7.12-3.7c40.46-0.04,80.93-0.16,121.39-0.19c6.39,0,10.7,3.85,10.59,9.46c-0.11,5.81-5.35,10.09-10.79,9.97
			c-19.81-0.41-39.63-0.16-59.45-0.16C512.51,731.94,512.51,731.96,512.51,731.97z"/>
		<path fill="#FEFEFE" d="M512.03,626.95c19.81,0,39.62-0.02,59.44,0.01c6.25,0.01,10.45,3.47,10.72,8.69
			c0.35,6.57-3.58,10.31-11.04,10.32c-34.8,0.04-69.59,0.05-104.39,0.08c-4.99,0-9.99,0.09-14.98,0.03
			c-5.96-0.08-10-4.23-9.91-10.06c0.09-5.48,3.74-8.96,9.72-8.98c20.14-0.05,40.29-0.02,60.43-0.02
			C512.03,626.99,512.03,626.97,512.03,626.95z"/>
		<path fill="#FEFEFE" d="M512.07,669.9c20.14,0,40.28,0,60.42,0c4.6,0,8.01,1.82,9.38,6.46c1.25,4.25,0.33,7.98-3.36,10.61
			c-2.36,1.69-5.28,1.92-8.1,1.93c-39.28,0.06-78.56,0.11-117.84,0.09c-6.68,0-10.74-4.19-10.62-10.53
			c0.1-5.13,4.23-8.48,10.71-8.49c19.81-0.03,39.61-0.01,59.42-0.01C512.07,669.94,512.07,669.92,512.07,669.9z"/>
		<path fill="#F8578C" d="M479.9,381.63c0.15,17.24-14.55,32.11-31.96,32.34c-17.7,0.23-32.39-14.36-32.47-32.27
			c-0.08-17.91,14.29-32.46,32.19-32.6C465.28,348.97,479.75,363.56,479.9,381.63z M447.06,360.96c-10.89-0.01-20,9.06-20.02,19.93
			c-0.03,10.84,9.46,21.35,19.89,20.98c11.16-0.4,20.73-7.32,21-20.71C468.15,370.04,458.63,360.97,447.06,360.96z"/>
		<path fill="#F8578C" d="M576.39,349.04c17.68,0.06,32.18,14.68,32.26,32.53c0.07,17.94-14.35,32.33-32.32,32.25
			c-17.39-0.08-31.92-14.47-32.03-31.71C544.18,363.59,558.35,348.99,576.39,349.04z M555.99,380.77
			c0.01,11.04,9.82,21.82,20.37,21.02c12.44-0.95,20.08-7.49,20.46-20.63c0.31-10.74-9.16-20.18-19.83-20.24
			C564.98,360.86,555.98,369.37,555.99,380.77z"/>
		<path fill="#FEFEFE" d="M447.06,360.96c11.57,0.01,21.09,9.08,20.86,20.19c-0.27,13.39-9.84,20.31-21,20.71
			c-10.43,0.37-19.91-10.14-19.89-20.98C427.06,370.02,436.17,360.96,447.06,360.96z"/>
		<path fill="#FEFEFE" d="M555.99,380.77c-0.01-11.41,8.99-19.91,21-19.85c10.67,0.06,20.14,9.5,19.83,20.24
			c-0.38,13.14-8.02,19.68-20.46,20.63C565.8,402.6,555.99,391.82,555.99,380.77z"/>
	</g>
</g>
</svg>
