<?xml version="1.0" encoding="utf-8"?>
<!-- Generator: Adobe Illustrator 27.8.0, SVG Export Plug-In . SVG Version: 6.00 Build 0)  -->
<svg version="1.1" id="Capa_1" xmlns="http://www.w3.org/2000/svg" xmlns:xlink="http://www.w3.org/1999/xlink" x="0px" y="0px"
	 viewBox="0 0 768 768" enable-background="new 0 0 768 768" xml:space="preserve">
<g>
	<g>
		<path fill="#FFFFFF" d="M0,0c256,0,512,0,768,0c0,256,0,512,0,768c-256,0-512,0-768,0C0,512,0,256,0,0z M430.74,586.12
			c0-2.85,0-5.45,0-8.06c0.01-75.54-0.01-151.08,0.08-226.61c0-3.44-0.85-5.09-4.52-5.07c-27.72,0.14-55.43,0.18-83.15,0.29
			c-5.26,0.02-5.24,0.11-5.24,5.09c0.02,76.79,0.04,153.58,0.05,230.36c0,1.32,0,2.63,0,4.08c-4.12,0-7.67,0-11.71,0
			c0-55.25,0-110.24,0-165.55c-4.82,0-9.17,0.14-13.5-0.05c-2.9-0.13-3.81,0.79-3.81,3.8c0.15,71.04,0.21,142.09,0.28,213.13
			c0,1.83,0,3.66,0,5.38c18.93,0,37.34,0,56.3,0c0-14.85,0-29.37,0-43.81c12.95,0,25.36,0,38.25,0c0,14.86,0,29.4,0,43.8
			c18.77,0,37.03,0,55.41,0c0-74.16,0-147.93,0-222.02c-5.68,0-11.23,0-17.29,0c0,1.75,0,3.34,0,4.92c0,50.07,0,100.14,0.02,150.2
			C441.92,586.71,441.96,586.71,430.74,586.12z M551.48,597.27c0,15.41,0,30.47,0,45.77c15.35,0,30.37,0,45.61,0
			c0-52.49,0-104.83,0-157.2c-41.94,0-83.58,0-125.44,0c0,52.55,0,104.8,0,157.08c13.6,0,26.99,0,40.78,0c0-15.37,0-30.41,0-45.65
			C525.52,597.27,538.2,597.27,551.48,597.27z M638.09,656.17c-174.76,0-349,0-523.44,0c0-5.43-0.07-10.53,0.06-15.64
			c0.02-0.94,0.61-2.17,1.34-2.75c9.15-7.11,12.32-17.8,8.31-28.49c-2.36-6.29-7.9-10.18-14.64-10.29
			c-6.52-0.11-12.86,3.4-14.79,9.41c-1.37,4.26-1.65,9-1.64,13.53c0.01,6.96,3.25,12.41,9.24,16.15c0.64,0.4,1.51,1.11,1.52,1.7
			c0.12,5.45,0.07,10.9,0.07,16.97c-4.55,0-8.86-0.82-12.65,0.23c-3.74,1.04-7.35,3.55-10.3,6.21c-3.08,2.78-4.35,6.8-3.73,11.09
			c202.58,0,404.9,0,607.23,0c-0.28-10.47-7.71-17.85-17.64-17.88c-5.95-0.02-11.9,0-18.2,0c0-6.24-0.07-12.08,0.08-17.91
			c0.02-0.82,0.95-1.93,1.76-2.36c15.24-8.06,22.35-22.95,18.29-39.45c-2.52-10.26-8.62-17.8-19.22-20.41
			c-10.07-2.47-18.89,0.47-25.55,8.46c-12.74,15.26-6.76,42.16,11.12,50.99c1.08,0.53,2.62,1.66,2.65,2.56
			C638.21,644.22,638.09,650.19,638.09,656.17z M296.74,642.91c0-47.37,0-94.26,0-141.64c-1.53,0-2.86,0-4.2,0
			c-8.49,0.01-16.98,0.02-25.47,0.03c-22.35,0.01-44.7-0.01-67.05,0.02c-7.57,0.01-7.57,0.07-7.55,7.41
			c0.04,13.11-0.06,26.22,0.18,39.33c0.07,3.71-1.19,4.59-4.71,4.53c-11.86-0.23-23.72-0.14-35.59-0.17c-2.81-0.01-5.63,0-8.6,0
			c0,30.68,0,60.57,0,90.58c5.26,0,10.19,0,15.48,0c0-9.81,0-19.37,0-28.99c9.54,0,18.71,0,28.16,0c0,9.76,0,19.22,0,28.86
			c8.57,0,16.84,0,25.49,0c0-12.54,0-24.7,0-36.88c22.65,0,44.92,0,67.49,0c0,12.51,0,24.69,0,36.92
			C285.88,642.91,291.08,642.91,296.74,642.91z M77.11,689.5c0.2,1.69,0.18,3.17,0.56,4.54c2.29,8.31,9.16,13.32,18.1,13.32
			c172.53-0.01,345.06-0.02,517.59-0.02c17.98,0,35.95,0.05,53.93-0.03c9.83-0.04,17.82-8.37,17.18-17.8
			C482.16,689.5,279.84,689.5,77.11,689.5z M109.65,187.09c-4.79,6.92-9.12,13.27-13.61,19.51c-0.53,0.73-1.94,1.02-2.98,1.14
			c-4.45,0.53-8.92,0.93-13.39,1.35c-1.94,0.18-3.25,0.71-3.34,3.09c-0.07,2.11,0.45,3.45,2.65,3.63
			c10.03,0.84,14.62,6.81,15.52,16.31c0.27,2.86,2.45,4.17,4.62,3.51c1.51-0.46,3.16-2.78,3.43-4.47c0.47-3.03-0.15-6.21-0.11-9.33
			c0.02-1.12,0.29-2.73,1.04-3.28c6.95-4.99,14.03-9.8,21.73-15.11c0.26,2.83,0.45,4.77,0.61,6.72c0.96,11.93,1.93,23.87,2.87,35.81
			c0.26,3.24,1.91,5.48,4.98,6.28c3.19,0.82,5.95-0.35,7.84-3.06c0.77-1.1,1.24-2.43,1.67-3.72c7.88-23.89,15.69-47.81,23.64-71.67
			c0.72-2.16,2.04-4.26,3.55-5.98c5.34-6.1,10.94-11.98,16.3-18.06c1.63-1.85,3.08-3.96,4.11-6.19c2.24-4.83,0.95-11.01-2.69-14.54
			c-3.42-3.3-8.94-3.95-13.94-1.52c-1.45,0.7-2.84,1.59-4.1,2.6c-6.52,5.22-12.97,10.54-19.51,15.73c-1.32,1.04-2.89,2.16-4.48,2.41
			c-15.37,2.4-30.78,4.58-46.17,6.89c-9.36,1.4-18.71,2.85-28.05,4.42c-3.82,0.64-6.21,3.42-6.62,7.08c-0.45,4.05,0.98,6.47,5,8.12
			c1.96,0.8,3.98,1.43,6.01,2.06C87.05,180.15,97.88,183.47,109.65,187.09z M456.52,186.58c-1.98,0-3.71-0.05-5.44,0.01
			c-11,0.4-20.13,7.56-22.46,17.57c-3.43,14.79,6.78,27.33,22.79,27.47c21.2,0.18,42.4,0.02,63.6-0.07
			c2.09-0.01,4.23-0.33,6.26-0.86c10.25-2.69,17.66-13.14,16.65-23.32c-1.06-10.69-9.71-19.41-20.3-20
			c-2.61-0.15-2.9-1.68-3.67-3.32c-5.43-11.64-14.83-17.98-27.4-18.12c-12.39-0.14-22.43,5.17-28.27,16.78
			C457.61,184.03,457.05,185.4,456.52,186.58z M624.15,291.45c-0.84-28.92-29.37-48.05-56.57-37.6
			c-19.28,7.41-29.34,28.46-23.27,49.52c4.44,15.4,11.36,29.81,19.19,43.74c4.51,8.02,9.68,15.7,14.81,23.35
			c2.67,3.99,5.71,3.89,8.74,0.17c1.26-1.54,2.44-3.16,3.54-4.82c11.96-18.03,21.9-37.12,29.22-57.49
			C621.79,302.89,622.74,297.09,624.15,291.45z M661.75,135.98c-0.22-21.13-16.43-37.18-37.43-37.03
			c-20.49,0.14-36.74,16.88-36.57,37.67c0.17,20.43,16.32,36.57,36.41,36.4C645.35,172.83,661.96,156.46,661.75,135.98z
			 M383.57,157.48c0-0.04,0-0.08,0-0.11c9.85,0,19.71,0.38,29.54-0.11c9.56-0.47,17.07-9.53,16.74-19.18
			c-0.32-9.35-7.77-17.02-17.22-17.36c-2.2-0.08-2.84-0.96-3.63-2.73c-4.2-9.39-11.62-14.7-21.82-14.95
			c-10.18-0.25-18.57,3.81-23.09,13.47c-1.51,3.23-3.16,4.14-6.66,3.89c-9.87-0.7-18.29,7.48-18.78,17.76
			c-0.48,10.12,7.36,19.06,17.24,19.28C365.11,157.65,374.34,157.48,383.57,157.48z M283.4,282.63
			c-0.32-18.19-11.51-31.61-26.99-34.57c-15.86-3.03-31.68,5.16-37.68,19.63c-4.01,9.69-2.86,19.22,1.01,28.71
			c5.99,14.67,14.23,27.96,23.92,40.43c4.83,6.22,6.55,6.27,11.56,0.01c8.68-10.85,16.04-22.54,22.01-35.08
			C280.45,295.01,283.37,288.12,283.4,282.63z M110.63,358.23c3.62,9,6.95,17.31,10.29,25.6c4.22,10.47,12.05,15.43,23.29,15.38
			c18.48-0.07,36.96-0.03,55.44-0.05c1.62,0,3.26,0.02,4.86-0.17c8.91-1.03,11.62-6.88,6.28-14.06
			c-5.31-7.15-12.68-10.83-21.56-10.92c-16.11-0.17-32.21-0.18-48.32-0.02c-2.95,0.03-4.46-0.94-5.75-3.44
			c-1.77-3.42-3.79-6.75-6.05-9.87c-0.86-1.18-2.64-2.26-4.07-2.35C120.58,358.04,116.09,358.23,110.63,358.23z M173.79,421.79
			c0-0.01,0-0.02,0-0.03c15.48,0,30.95-0.06,46.43,0.02c8.76,0.05,14.41,5.95,14.38,14.67c-0.02,5.12-0.02,10.23,0.01,15.35
			c0.03,5.17,1.19,6.73,4.87,6.71c3.78-0.02,4.99-1.61,5.03-6.55c0.05-5.12,0.05-10.24,0.19-15.35
			c0.39-14.25-9.44-24.61-23.64-24.76c-5.74-0.06-11.48,0.08-17.22,0.09c-26.33,0.04-52.67-0.05-79,0.13
			c-12.37,0.08-23.13,10.7-23.36,22.81c-0.18,9.48-0.04,18.97,0.04,28.46c0.03,3.94,1.59,5.59,4.9,5.58
			c3.43-0.02,5.16-1.92,5.17-5.77c0.02-9.11-0.32-18.24,0.2-27.32c0.18-3.19,1.87-6.68,3.86-9.28c2.87-3.75,7.42-4.77,12.1-4.76
			C143.09,421.8,158.44,421.79,173.79,421.79z M668.19,459.14c0.2,0.58,0.45,1.29,0.68,1.99c1.6,4.79,3.94,6.97,7.77,6.76
			c4.1-0.22,6.05-2.91,7-6.64c0.19-0.74,0.8-1.88,1.34-1.95c3.07-0.43,2.84-2.62,2.83-4.76c-0.01-2,0-3.99-0.02-5.99
			c-0.07-6.7-0.42-7-7.32-6.97c-16.97,0.08-33.94,0.16-50.91,0.22c-9.72,0.03-9.84,0.03-9.39,9.72c0.14,2.93-1.66,6.98,3.33,8.11
			c0.31,0.07,0.44,1.09,0.59,1.69c1.1,4.38,3.32,6.49,6.9,6.56c3.52,0.07,6.38-2.13,7.3-6.24c0.47-2.08,1.35-2.55,3.27-2.53
			C650.29,459.19,659.02,459.14,668.19,459.14z M292.55,198.49c0.17,0.68,0.27,1.03,0.34,1.39c0.98,4.63,3,6.86,6.43,7.12
			c3.45,0.26,5.7-1.67,7.33-6.07c0.31-0.84,0.99-2,1.7-2.17c2.48-0.59,2.63-2.31,2.59-4.28c-0.04-1.62-0.05-3.24-0.06-4.86
			c-0.03-7.01-0.25-7.18-7.46-7.13c-14.09,0.09-28.19,0.14-42.28,0.2c-3.24,0.01-6.5-0.18-9.72,0.13c-1.21,0.11-3.39,1.53-3.31,2.07
			c0.76,4.83-3.16,10.67,2.89,14.42c0.35,0.22,0.58,0.85,0.64,1.32c0.52,4.06,2.78,6.54,6.87,6.42c3.86-0.12,5.79-2.83,6.8-6.41
			c0.24-0.86,1.51-2.02,2.32-2.04C275.85,198.43,284.07,198.49,292.55,198.49z M529.51,405.89c-4.05,0-7.88-0.07-11.71,0.01
			c-14.34,0.29-24.01,10.1-24.09,24.47c-0.07,11.97-0.06,23.94-0.05,35.91c0,1.69,0.18,3.39,0.28,5.31c3.29,0,6.22,0,9.63,0
			c0-1.71,0-3.29,0-4.88c0-11.47-0.01-22.94,0.02-34.41c0.01-1.73,0.02-3.51,0.39-5.2c1.68-7.71,7.19-11.27,16.81-11.38
			C530.49,415.63,529.88,418.02,529.51,405.89z M613.15,554.76c11.59-0.32,23.07,1.89,34.33-1.15c8.23-2.21,14.36-9.96,14.81-18.39
			c0.37-6.97,0.12-13.98,0.16-20.97c0.02-3.43-2.11-4.15-4.96-4.01c-2.67,0.13-5,0.49-4.93,4.08c0.11,5.24,0.03,10.49,0.01,15.73
			c-0.04,10.38-5.05,15.26-15.52,15.23c-7.94-0.03-15.88-0.01-23.89-0.01C613.15,548.5,613.15,551.32,613.15,554.76z M678.67,434.49
			c-2.7-5.71-4.97-10.8-7.56-15.71c-0.54-1.02-2.29-1.95-3.5-1.97c-9.08-0.14-18.17-0.08-27.26,0.04c-1.1,0.01-2.8,0.45-3.2,1.22
			c-2.73,5.24-5.18,10.62-7.95,16.42C645.98,434.49,661.89,434.49,678.67,434.49z M302.15,175.6c-2.22-4.88-3.96-9.15-6.13-13.19
			c-0.66-1.23-2.51-2.54-3.85-2.57c-8.46-0.18-16.93-0.05-25.39,0.09c-0.99,0.02-2.52,0.4-2.88,1.1c-2.44,4.65-4.63,9.42-7.1,14.56
			C272.25,175.6,286.88,175.6,302.15,175.6z M541.9,405.91c0,3.58,0,6.49,0,9.86c3.93,0,7.52,0.02,11.12,0
			c4.49-0.03,9.03,0.32,13.46-0.22c14.67-1.8,22.49-13.59,19.76-29.6c-3,0-6.04,0-9.43,0c0,1.72,0.02,3.19,0,4.66
			c-0.14,11.03-4.59,15.37-15.62,15.32C554.85,405.88,548.51,405.91,541.9,405.91z M125.41,291.25c-7.04-0.01-12.69,5.73-12.71,12.9
			c-0.02,6.83,5.7,12.64,12.55,12.74c7.05,0.1,13.26-6,13.19-12.98C138.38,296.93,132.54,291.26,125.41,291.25z M243.14,354.06
			c0,5.74-0.1,10.96,0.02,16.18c0.33,14.43,11.94,24.14,28.79,20.29c0-2.68,0-5.38,0-8.39c-2.84-0.16-5.54-0.34-8.24-0.47
			c-4.3-0.22-7.44-2.43-8.97-6.26c-1.03-2.57-1.36-5.52-1.52-8.32c-0.24-4.3-0.06-8.62-0.06-13.03
			C249.61,354.06,246.55,354.06,243.14,354.06z M514.06,347.76c0-6.5-4.81-11.35-11.29-11.41c-6.64-0.06-11.95,5.02-11.86,11.33
			c0.09,6.43,5.03,11.43,11.37,11.48C508.94,359.22,514.06,354.26,514.06,347.76z M324.51,382.21c-13.33,0-26.48,0-39.8,0
			c-0.1,1.64-0.11,3-0.29,4.33c-0.47,3.45,0.74,4.92,4.45,4.8c7.85-0.24,15.72-0.11,23.58-0.13c3.95-0.01,7.9,0,12.06,0
			C324.51,388.03,324.51,385.31,324.51,382.21z M101.54,496.47c0,4.6-0.01,9.2,0,13.8c0.01,3.26,2.22,3.83,4.8,3.81
			c2.65-0.02,5.16-0.43,5.18-3.89c0.06-8.95,0.08-17.9,0.04-26.86c-0.01-3.4-2.29-3.89-5.11-3.85c-2.78,0.04-4.99,0.39-4.94,3.93
			C101.59,487.76,101.54,492.11,101.54,496.47z M111.6,548.1c0-6.38-0.02-12.59,0.01-18.8c0.01-3.29-2.22-3.97-4.76-3.9
			c-2.36,0.06-5.36-0.35-5.34,3.49c0.03,5.36-0.1,10.74,0.29,16.08c0.18,2.42,1.47,4.76,2.29,7.25
			C107.19,550.52,109.57,549.21,111.6,548.1z M465.16,303.81c0.1-4.68-3.88-8.63-8.79-8.73c-4.84-0.09-8.6,3.46-8.74,8.24
			c-0.13,4.66,3.84,8.9,8.53,9.09C460.71,312.61,465.06,308.46,465.16,303.81z M652.58,476c0,6.51,0.05,12.84-0.02,19.16
			c-0.04,3.21,1.99,4.18,4.57,4.13c2.69-0.06,5.35-0.59,5.31-4.29c-0.04-3.62-0.02-7.23-0.02-10.85
			C662.42,475.04,662.42,475.04,652.58,476z M317.06,310.18c4.59,0.04,8.2-3.34,8.3-7.78c0.11-4.77-3.6-8.66-8.31-8.7
			c-4.86-0.04-8.29,3.33-8.28,8.13C308.79,306.41,312.5,310.15,317.06,310.18z M260.71,116.43c-0.07,4.34,3.38,8.24,7.43,8.4
			c4.37,0.17,8.19-3.48,8.28-7.92c0.09-4.32-3.74-8.18-8.08-8.15C264.2,108.79,260.78,112.23,260.71,116.43z M588.3,103.01
			c1.13-0.82,2.95-1.5,3.63-2.79c0.68-1.29,0.92-3.74,0.15-4.71c-2.87-3.56-5.99-7.03-9.55-9.86c-1.24-0.99-4.41-0.67-6.04,0.23
			c-2.05,1.13-2.69,3.9-0.99,5.89c3.05,3.57,6.46,6.84,9.81,10.15C585.86,102.46,586.88,102.52,588.3,103.01z M580.11,188.97
			c0.23-0.03,0.91,0.09,1.19-0.19c3.86-3.79,7.85-7.48,11.31-11.62c0.59-0.71-0.73-3.81-1.96-4.99c-0.92-0.89-3.72-1.25-4.6-0.53
			c-3.72,3.05-7.4,6.31-10.39,10.06C573.21,184.78,575.89,188.97,580.11,188.97z M674.34,184.27c0.01-3.44-9.48-13.22-12.98-13.37
			c-3.57-0.16-6.64,4.18-4.49,6.96c3.02,3.88,6.54,7.51,10.39,10.55C670.17,190.7,674.33,187.97,674.34,184.27z M674.89,89.02
			c-0.97-1.2-1.79-3.21-3.05-3.55c-1.77-0.48-4.37-0.37-5.73,0.66c-3.05,2.31-5.59,5.31-8.28,8.08c-2.06,2.12-2.2,4.52-0.2,6.66
			c1.92,2.05,4.51,2.61,6.7,0.67c3.25-2.89,6.22-6.1,9.19-9.28C674.14,91.59,674.29,90.49,674.89,89.02z M244.63,488.49
			c0-4.7,0.05-9.79-0.02-14.87c-0.04-3.29-2.24-4.18-5.05-4.13c-2.8,0.05-4.9,0.99-4.89,4.3c0.01,2.62-0.01,5.24-0.01,7.86
			c0,8.39,0.58,8.87,9.03,7.38C243.8,489.03,243.9,488.92,244.63,488.49z M619.88,75c0.02,0,0.04,0,0.06,0c0,2-0.08,4,0.02,5.99
			c0.14,2.92,1.84,4.87,4.64,4.92c2.93,0.05,4.89-1.73,4.96-4.94c0.08-3.87,0.17-7.74,0.13-11.61c-0.04-3.24-2.15-4.84-5.05-4.82
			c-2.84,0.02-4.47,2.02-4.72,4.84C619.75,71.24,619.88,73.13,619.88,75z M683.61,141.77c0-0.01,0-0.01,0-0.02
			c1.87,0,3.75,0.08,5.61-0.02c2.96-0.15,4.63-1.85,4.67-4.75c0.04-2.96-1.68-4.69-4.62-4.79c-3.86-0.13-7.74-0.1-11.6,0.04
			c-2.74,0.1-4.62,1.67-4.55,4.45c0.06,2.7,1.49,4.82,4.51,5.07C679.61,141.91,681.62,141.77,683.61,141.77z M629.49,196.9
			c-0.03,0-0.07,0-0.1,0c0-2.11,0.16-4.23-0.04-6.32c-0.25-2.69-2.35-4.17-4.62-3.77c-1.67,0.29-4.17,2.1-4.36,3.49
			c-0.59,4.38-0.67,8.94-0.07,13.31c0.2,1.46,2.94,3.4,4.7,3.61c2.41,0.29,4.4-1.47,4.48-4.36
			C629.53,200.87,629.49,198.89,629.49,196.9z M565.78,132.16c0,0.05,0,0.1,0,0.15c-1.62,0-3.24-0.01-4.85,0
			c-3.05,0.02-5.52,0.9-5.67,4.47c-0.12,2.89,2.28,5.05,5.72,5.13c3.48,0.08,6.97,0,10.45-0.12c2.93-0.1,4.71-1.77,4.81-4.62
			c0.11-3.11-1.79-4.79-4.86-4.98C569.52,132.07,567.65,132.16,565.78,132.16z M389.71,325.49c0.01,0,0.02,0,0.03,0
			c0-1.99,0.03-3.98-0.01-5.97c-0.05-2.78-1.83-4.12-4.29-4.19c-2.61-0.07-4.13,1.54-4.17,4.22c-0.06,3.98-0.04,7.96,0.01,11.94
			c0.03,2.73,1.63,4.15,4.22,4.19c2.69,0.04,4.06-1.62,4.19-4.23C389.79,329.47,389.71,327.48,389.71,325.49z M389.77,178.65
			c-0.01,0-0.02,0-0.02,0c0-1.99,0-3.98,0-5.97c0.01-2.8-1.6-4.16-4.18-4.12c-2.48,0.04-4.27,1.27-4.29,4.08
			c-0.02,3.98-0.01,7.95-0.01,11.93c0,2.81,1.68,4.15,4.22,4.1c2.43-0.05,4.3-1.18,4.28-4.07
			C389.76,182.63,389.77,180.64,389.77,178.65z M389.64,295.58c0.03,0,0.05,0,0.08,0c0-1.87-0.03-3.73,0.01-5.6
			c0.07-2.97-1.6-4.45-4.32-4.47c-2.6-0.02-4.1,1.59-4.14,4.26c-0.06,3.98-0.08,7.96-0.03,11.94c0.03,2.77,1.9,4.45,4.27,4
			c1.56-0.3,3.38-2.23,3.98-3.85C390.17,300.01,389.64,297.7,389.64,295.58z M389.75,208.19c-0.02,0-0.04,0-0.05,0
			c0-2.12,0.02-4.24-0.01-6.36c-0.04-2.71-2.03-4.12-4.12-3.73c-1.59,0.3-3.87,2.23-4.07,3.68c-0.56,4.04-0.24,8.2-0.18,12.32
			c0.04,2.81,1.76,4.06,4.36,3.98c2.39-0.07,4.02-1.26,4.07-3.9C389.78,212.18,389.75,210.18,389.75,208.19z M389.69,237.24
			c-0.01,0-0.01,0-0.02,0c0-2.12,0.56-4.46-0.17-6.29c-0.64-1.59-2.74-3.59-4.18-3.58c-1.39,0.01-3.77,2.23-3.96,3.7
			c-0.52,4.04-0.22,8.2-0.03,12.31c0.12,2.68,1.85,4.08,4.47,3.93c2.4-0.14,3.9-1.49,3.89-4.09
			C389.69,241.22,389.69,239.23,389.69,237.24z M389.68,266.51c-0.01,0-0.01,0-0.02,0c0-2.11,0.58-4.47-0.17-6.27
			c-0.65-1.57-2.74-3.36-4.31-3.48c-1.22-0.09-3.6,2.14-3.76,3.53c-0.48,4.17-0.48,8.48,0.12,12.63c0.21,1.41,2.69,3.3,4.27,3.44
			c1.17,0.11,3.19-2.04,3.71-3.56C390.18,270.9,389.68,268.62,389.68,266.51z M500.39,127.3c-0.05,3.85,2.65,6.78,6.31,6.85
			c3.97,0.08,7.28-3.05,7.28-6.87c-0.01-3.68-3.19-6.69-7.05-6.65C503.2,120.67,500.44,123.49,500.39,127.3z M641.73,368.41
			c-3.79,0.03-6.51,2.85-6.45,6.7c0.05,3.7,3.02,6.79,6.53,6.82c3.38,0.02,6.47-3.26,6.5-6.89
			C648.35,371.32,645.44,368.38,641.73,368.41z M126.15,568.59c0-3.62,0-6.81,0-9.89c-5.55-2.08-10.95-3.96-14.44,3.25
			C115.34,566.16,120.18,567.98,126.15,568.59z M158.85,495.12c2.85,0.05,5.74-2.81,5.79-5.73c0.05-2.8-2.51-5.29-5.54-5.38
			c-3.23-0.1-5.6,2.26-5.59,5.57C153.52,492.55,155.95,495.08,158.85,495.12z M562.65,464.48c2.88,0.1,5.7-2.66,5.83-5.68
			c0.11-2.71-2.28-5.23-5.12-5.41c-3.3-0.2-5.8,2.07-5.87,5.33C557.43,461.75,559.79,464.38,562.65,464.48z M97.56,379.17
			c4.37,0,8.47,0,12.64,0c-0.85-4.79-4.4-5.72-12.64-3.71C97.56,376.51,97.56,377.6,97.56,379.17z M93.12,392.52
			c1.6-1.97,2.52-3.1,3.44-4.24c-1.03-0.76-2.13-2.22-3.07-2.13c-1.42,0.15-2.73,1.38-4.08,2.15
			C90.39,389.43,91.38,390.55,93.12,392.52z M110.32,392.16c1.43-1.61,2.37-2.66,3.3-3.71c-1.12-0.83-2.14-2.08-3.39-2.38
			c-1.8-0.43-3.8,0.29-3.4,2.57C107.02,389.77,108.72,390.63,110.32,392.16z M85.08,373.48c-1.53,1.63-2.46,2.63-3.39,3.62
			c0.98,0.86,2.08,2.53,2.92,2.41c1.38-0.19,2.59-1.55,3.87-2.41C87.55,376.11,86.61,375.11,85.08,373.48z"/>
		<path d="M430.74,586.12c11.22,0.59,11.18,0.59,11.18-10.11c-0.02-50.07-0.02-100.14-0.02-150.2c0-1.58,0-3.17,0-4.92
			c6.06,0,11.61,0,17.29,0c0,74.09,0,147.86,0,222.02c-18.38,0-36.65,0-55.41,0c0-14.41,0-28.94,0-43.8c-12.89,0-25.29,0-38.25,0
			c0,14.45,0,28.96,0,43.81c-18.96,0-37.37,0-56.3,0c0-1.71,0-3.54,0-5.38c-0.07-71.04-0.12-142.09-0.28-213.13
			c-0.01-3.01,0.91-3.93,3.81-3.8c4.33,0.19,8.68,0.05,13.5,0.05c0,55.31,0,110.3,0,165.55c4.04,0,7.59,0,11.71,0
			c0-1.45,0-2.76,0-4.08c-0.02-76.79-0.03-153.58-0.05-230.36c0-4.98-0.02-5.07,5.24-5.09c27.72-0.12,55.44-0.15,83.15-0.29
			c3.67-0.02,4.53,1.64,4.52,5.07c-0.09,75.54-0.08,151.08-0.08,226.61C430.74,580.66,430.74,583.27,430.74,586.12z M413.97,552.4
			c-6.27,0-12.19,0-18.17,0c0,6.08,0,11.87,0,17.65c6.15,0,12.05,0,18.17,0C413.97,564.08,413.97,558.39,413.97,552.4z
			 M413.81,392.41c0-6.17,0-11.85,0-17.52c-6.2,0-12.12,0-18,0c0,5.99,0,11.67,0,17.52C401.9,392.41,407.71,392.41,413.81,392.41z
			 M413.84,517.1c-6.28,0-12.09,0-18.02,0c0,6.04,0,11.82,0,17.71c6.09,0,11.91,0,18.02,0C413.84,528.84,413.84,523.03,413.84,517.1
			z M413.95,481.58c-6.29,0-12.2,0-18.11,0c0,5.95,0,11.59,0,17.21c6.18,0,12.06,0,18.11,0
			C413.95,492.97,413.95,487.41,413.95,481.58z M395.69,427.94c6.16,0,12.15,0,18.08,0c0-6.01,0-11.64,0-17.2
			c-6.23,0-12.12,0-18.08,0C395.69,416.62,395.69,422.18,395.69,427.94z M372.38,570.09c0-6.07,0-11.84,0-17.78
			c-6.19,0-12.1,0-18.12,0c0,6,0,11.78,0,17.78C360.33,570.09,366.13,570.09,372.38,570.09z M354.34,446.32c0,5.91,0,11.57,0,17.25
			c6.22,0,12.12,0,18.06,0c0-5.89,0-11.45,0-17.25C366.23,446.32,360.3,446.32,354.34,446.32z M354.39,517.1c0,6.12,0,11.88,0,17.55
			c6.21,0,12.1,0,17.99,0c0-6.01,0-11.68,0-17.55C366.33,517.1,360.54,517.1,354.39,517.1z M372.32,392.47c0-6.13,0-11.89,0-17.68
			c-6.16,0-11.97,0-17.87,0c0,6.01,0,11.78,0,17.68C360.51,392.47,366.21,392.47,372.32,392.47z M372.36,428.2
			c0-6.12,0-11.78,0-17.51c-6.19,0-12.07,0-17.97,0c0,5.97,0,11.63,0,17.51C360.48,428.2,366.27,428.2,372.36,428.2z M372.46,481.65
			c-6.3,0-12.18,0-18.13,0c0,5.94,0,11.47,0,17.16c6.16,0,12.05,0,18.13,0C372.46,493,372.46,487.44,372.46,481.65z M395.74,463.57
			c6.25,0,12.13,0,18.12,0c0-5.83,0-11.37,0-17.13c-6.14,0-12.03,0-18.12,0C395.74,452.25,395.74,457.79,395.74,463.57z"/>
		<path d="M551.48,597.27c-13.27,0-25.96,0-39.05,0c0,15.23,0,30.28,0,45.65c-13.79,0-27.18,0-40.78,0c0-52.27,0-104.52,0-157.08
			c41.86,0,83.49,0,125.44,0c0,52.36,0,104.7,0,157.2c-15.24,0-30.26,0-45.61,0C551.48,627.74,551.48,612.68,551.48,597.27z
			 M521.7,549.24c0,6.53,0,12.81,0,19.27c7.74,0,15.26,0,22.99,0c0-6.51,0-12.79,0-19.27C537.01,549.24,529.57,549.24,521.7,549.24z
			 M521.63,531.87c7.84,0,15.37,0,23.09,0c0-6.42,0-12.57,0-18.81c-7.82,0-15.37,0-23.09,0
			C521.63,519.38,521.63,525.45,521.63,531.87z M507.13,549.11c-6.88,0-13.41,0-19.99,0c0,6.64,0,13.03,0,19.36
			c6.86,0,13.36,0,19.99,0C507.13,561.91,507.13,555.72,507.13,549.11z M507.13,513.02c-6.89,0-13.44,0-20.06,0
			c0,6.41,0,12.58,0,18.85c6.81,0,13.34,0,20.06,0C507.13,525.54,507.13,519.48,507.13,513.02z M579.82,549.16
			c-6.69,0-13.11,0-19.56,0c0,6.68,0,13.09,0,19.55c6.66,0,12.97,0,19.56,0C579.82,562.19,579.82,555.88,579.82,549.16z
			 M579.91,531.95c0-6.5,0-12.57,0-18.83c-6.7,0-13.21,0-19.71,0c0,6.45,0,12.6,0,18.83C566.88,531.95,573.19,531.95,579.91,531.95z
			"/>
		<path d="M638.09,656.17c0-5.98,0.11-11.95-0.12-17.9c-0.04-0.9-1.57-2.03-2.65-2.56c-17.87-8.83-23.86-35.72-11.12-50.99
			c6.67-7.99,15.48-10.93,25.55-8.46c10.6,2.6,16.7,10.14,19.22,20.41c4.06,16.51-3.05,31.39-18.29,39.45
			c-0.8,0.42-1.73,1.54-1.76,2.36c-0.15,5.83-0.08,11.68-0.08,17.91c6.3,0,12.25-0.02,18.2,0c9.92,0.03,17.35,7.42,17.64,17.88
			c-202.33,0-404.66,0-607.23,0c-0.62-4.29,0.65-8.31,3.73-11.09c2.95-2.66,6.55-5.17,10.3-6.21c3.79-1.06,8.1-0.23,12.65-0.23
			c0-6.07,0.05-11.52-0.07-16.97c-0.01-0.58-0.89-1.3-1.52-1.7c-5.99-3.74-9.23-9.19-9.24-16.15c-0.01-4.53,0.27-9.27,1.64-13.53
			c1.93-6,8.28-9.51,14.79-9.41c6.75,0.11,12.29,4,14.64,10.29c4.01,10.69,0.84,21.38-8.31,28.49c-0.74,0.57-1.32,1.8-1.34,2.75
			c-0.13,5.1-0.06,10.21-0.06,15.64C289.1,656.17,463.33,656.17,638.09,656.17z M643.84,615.53c-2.43-2.42-4.83-4.93-7.37-7.3
			c-1.54-1.43-3.21-1.7-4.93,0.01c-1.73,1.7-1.46,3.36-0.07,4.92c3.23,3.62,6.53,7.19,9.88,10.71c1.68,1.76,3.53,1.69,5.2-0.08
			c3.25-3.44,6.5-6.89,9.67-10.4c1.53-1.7,1.78-3.57-0.07-5.27c-1.91-1.75-3.83-1.59-5.59,0.25
			C648.32,610.7,646.13,613.08,643.84,615.53z M113.12,619.84c-0.07-1.37,0.28-2.99-0.34-4.03c-0.59-0.99-2.18-1.87-3.35-1.9
			c-1.19-0.03-3.35,0.93-3.43,1.65c-0.32,2.8-0.29,5.73,0.29,8.48c0.2,0.97,2.36,2.11,3.6,2.09c1.02-0.02,2.32-1.48,2.91-2.61
			C113.32,622.51,113.04,621.09,113.12,619.84z"/>
		<path d="M296.74,642.91c-5.66,0-10.86,0-16.37,0c0-12.23,0-24.41,0-36.92c-22.57,0-44.83,0-67.49,0c0,12.17,0,24.34,0,36.88
			c-8.65,0-16.92,0-25.49,0c0-9.64,0-19.11,0-28.86c-9.46,0-18.62,0-28.16,0c0,9.62,0,19.18,0,28.99c-5.29,0-10.22,0-15.48,0
			c0-30,0-59.9,0-90.58c2.97,0,5.78-0.01,8.6,0c11.86,0.03,23.73-0.06,35.59,0.17c3.52,0.07,4.77-0.82,4.71-4.53
			c-0.24-13.11-0.14-26.22-0.18-39.33c-0.02-7.34-0.02-7.4,7.55-7.41c22.35-0.03,44.7-0.01,67.05-0.02c8.49,0,16.98-0.02,25.47-0.03
			c1.33,0,2.67,0,4.2,0C296.74,548.65,296.74,595.55,296.74,642.91z M246.35,588.34c0,0.01,0,0.03,0,0.04
			c10.59,0,21.19-0.04,31.78,0.03c3.14,0.02,5.47-0.89,5.82-4.32c0.29-2.77-2.55-5.29-6.01-5.29c-20.94,0-41.88,0.04-62.82,0.13
			c-3.79,0.02-5.99,1.87-6.02,4.68c-0.04,3.06,2.07,4.71,6.22,4.72C225.66,588.35,236.01,588.34,246.35,588.34z M191.01,578.17
			c-10.72,0-21.26,0-31.91,0c0,4.91,0,9.58,0,14.3c10.74,0,21.25,0,31.91,0C191.01,587.57,191.01,583,191.01,578.17z M240.35,539.28
			c4.47,0,8.62,0,12.72,0c0-3.32,0-6.34,0-9.33c-4.39,0-8.44,0-12.72,0C240.35,533.19,240.35,536.22,240.35,539.28z M226.83,530.06
			c-4.41,0-8.42,0-12.45,0c0,3.28,0,6.2,0,9.2c4.26,0,8.27,0,12.45,0C226.83,536.07,226.83,533.14,226.83,530.06z M266.81,539.32
			c4.29,0,8.32,0,12.52,0c0-3.24,0-6.27,0-9.26c-4.3,0-8.33,0-12.52,0C266.81,533.24,266.81,536.08,266.81,539.32z M240.46,548.45
			c0,3.24,0,6.01,0,8.8c4.47,0,8.59,0,12.58,0c0-3.14,0-5.92,0-8.8C248.68,548.45,244.63,548.45,240.46,548.45z M279.42,548.64
			c-4.49,0-8.62,0-12.53,0c0,3.14,0,5.92,0,8.7c4.37,0,8.39,0,12.53,0C279.42,554.32,279.42,551.62,279.42,548.64z M226.62,557.35
			c0-2.92,0-5.79,0-8.9c-4.12,0-8.15,0-12.29,0c0,3.08,0,5.86,0,8.9C218.45,557.35,222.38,557.35,226.62,557.35z"/>
		<path d="M77.11,689.5c202.74,0,405.05,0,607.36,0c0.64,9.43-7.35,17.76-17.18,17.8c-17.98,0.08-35.95,0.03-53.93,0.03
			c-172.53,0.01-345.06,0.01-517.59,0.02c-8.94,0-15.81-5.01-18.1-13.32C77.29,692.67,77.31,691.19,77.11,689.5z"/>
		<path d="M109.65,187.09c-11.77-3.62-22.6-6.94-33.42-10.28c-2.02-0.62-4.05-1.26-6.01-2.06c-4.01-1.65-5.45-4.07-5-8.12
			c0.41-3.67,2.8-6.44,6.62-7.08c9.33-1.57,18.69-3.02,28.05-4.42c15.39-2.31,30.8-4.5,46.17-6.89c1.59-0.25,3.16-1.36,4.48-2.41
			c6.55-5.19,12.99-10.51,19.51-15.73c1.26-1.01,2.65-1.89,4.1-2.6c5.01-2.43,10.53-1.79,13.94,1.52c3.64,3.52,4.93,9.71,2.69,14.54
			c-1.03,2.22-2.49,4.34-4.11,6.19c-5.36,6.09-10.96,11.96-16.3,18.06c-1.51,1.72-2.83,3.83-3.55,5.98
			c-7.95,23.87-15.77,47.78-23.64,71.67c-0.42,1.29-0.9,2.63-1.67,3.72c-1.89,2.71-4.65,3.88-7.84,3.06
			c-3.07-0.79-4.73-3.04-4.98-6.28c-0.94-11.94-1.91-23.87-2.87-35.81c-0.16-1.95-0.35-3.89-0.61-6.72
			c-7.7,5.31-14.78,10.12-21.73,15.11c-0.76,0.55-1.03,2.16-1.04,3.28c-0.05,3.12,0.58,6.3,0.11,9.33
			c-0.27,1.69-1.92,4.01-3.43,4.47c-2.17,0.66-4.35-0.65-4.62-3.51c-0.9-9.5-5.49-15.47-15.52-16.31c-2.21-0.18-2.73-1.53-2.65-3.63
			c0.08-2.38,1.4-2.91,3.34-3.09c4.47-0.41,8.94-0.82,13.39-1.35c1.05-0.12,2.46-0.41,2.98-1.14
			C100.53,200.36,104.85,194.01,109.65,187.09z"/>
		<path d="M456.52,186.58c0.54-1.18,1.1-2.55,1.76-3.86c5.84-11.62,15.88-16.92,28.27-16.78c12.57,0.14,21.98,6.48,27.4,18.12
			c0.76,1.64,1.05,3.18,3.67,3.32c10.6,0.59,19.24,9.31,20.3,20c1.01,10.17-6.39,20.62-16.65,23.32c-2.02,0.53-4.17,0.85-6.26,0.86
			c-21.2,0.09-42.4,0.26-63.6,0.07c-16.01-0.14-26.22-12.69-22.79-27.47c2.32-10.01,11.46-17.17,22.46-17.57
			C452.81,186.53,454.54,186.58,456.52,186.58z"/>
		<path d="M624.15,291.45c-1.41,5.63-2.37,11.43-4.32,16.87c-7.33,20.37-17.26,39.46-29.22,57.49c-1.1,1.66-2.28,3.28-3.54,4.82
			c-3.04,3.71-6.07,3.81-8.74-0.17c-5.13-7.66-10.3-15.33-14.81-23.35c-7.83-13.92-14.75-28.34-19.19-43.74
			c-6.08-21.06,3.98-42.11,23.27-49.52C594.78,243.4,623.31,262.53,624.15,291.45z M582.24,313.32c11.92,0.74,21.48-8.1,22.1-20.43
			c0.54-10.72-8.87-20.45-20.43-21.14c-11.46-0.68-21.18,7.78-22.01,18.81C560.9,303.57,571.16,313.62,582.24,313.32z"/>
		<path d="M661.75,135.98c0.21,20.48-16.4,36.86-37.58,37.04c-20.09,0.17-36.24-15.98-36.41-36.4
			c-0.17-20.79,16.08-37.53,36.57-37.67C645.31,98.8,661.53,114.84,661.75,135.98z"/>
		<path d="M383.57,157.48c-9.23,0-18.46,0.16-27.68-0.04c-9.88-0.22-17.72-9.16-17.24-19.28c0.49-10.27,8.91-18.45,18.78-17.76
			c3.5,0.25,5.15-0.67,6.66-3.89c4.52-9.66,12.91-13.72,23.09-13.47c10.2,0.25,17.62,5.55,21.82,14.95
			c0.79,1.77,1.44,2.65,3.63,2.73c9.44,0.34,16.9,8.01,17.22,17.36c0.33,9.65-7.18,18.71-16.74,19.18
			c-9.82,0.48-19.69,0.11-29.54,0.11C383.57,157.41,383.57,157.45,383.57,157.48z"/>
		<path d="M283.4,282.63c-0.03,5.48-2.95,12.38-6.17,19.13c-5.97,12.54-13.32,24.24-22.01,35.08c-5.01,6.25-6.72,6.2-11.56-0.01
			c-9.69-12.46-17.94-25.76-23.92-40.43c-3.87-9.49-5.03-19.02-1.01-28.71c6-14.48,21.81-22.67,37.68-19.63
			C271.89,251.03,283.08,264.45,283.4,282.63z M265.71,281.4c0.12-8.12-7.22-15.66-15.39-15.82c-9.05-0.17-16.46,6.94-16.47,15.81
			c-0.01,8.61,7.22,15.7,16.12,15.81C258.33,297.3,265.59,290.01,265.71,281.4z"/>
		<path d="M110.63,358.23c5.45,0,9.95-0.19,14.41,0.11c1.43,0.1,3.21,1.17,4.07,2.35c2.26,3.12,4.28,6.45,6.05,9.87
			c1.29,2.5,2.8,3.47,5.75,3.44c16.11-0.16,32.21-0.15,48.32,0.02c8.88,0.09,16.25,3.77,21.56,10.92
			c5.33,7.18,2.63,13.03-6.28,14.06c-1.61,0.19-3.24,0.17-4.86,0.17c-18.48,0.02-36.96-0.03-55.44,0.05
			c-11.24,0.04-19.06-4.91-23.29-15.38C117.58,375.53,114.25,367.23,110.63,358.23z M173.33,389.28c0.86-1.17,2.62-2.73,3.28-4.67
			c0.66-1.93-2.57-4.81-4.82-4.63c-2.67,0.22-4.64,1.66-4.49,4.46C167.44,387.17,169.06,389.03,173.33,389.28z M190.04,389.87
			c1.33-1.69,3.12-3.2,3.86-5.12c0.76-1.99-2.2-4.8-4.65-4.75c-2.74,0.06-4.46,1.6-4.77,4.28
			C184.22,386.58,186.84,389.13,190.04,389.87z M154.54,389.14c2.44,0,4.57-2.1,4.37-4.59c-0.22-2.69-1.92-4.46-4.54-4.51
			c-2.62-0.05-4.43,1.5-4.54,4.38C149.74,386.98,151.95,389.15,154.54,389.14z"/>
		<path d="M173.79,421.79c-15.35,0-30.7,0.01-46.06,0c-4.68,0-9.22,1.01-12.1,4.76c-1.99,2.6-3.68,6.09-3.86,9.28
			c-0.51,9.08-0.18,18.21-0.2,27.32c-0.01,3.84-1.74,5.75-5.17,5.77c-3.31,0.02-4.86-1.63-4.9-5.58
			c-0.08-9.48-0.22-18.97-0.04-28.46c0.22-12.11,10.99-22.73,23.36-22.81c26.33-0.18,52.67-0.09,79-0.13
			c5.74-0.01,11.48-0.15,17.22-0.09c14.2,0.15,24.03,10.51,23.64,24.76c-0.14,5.11-0.14,10.23-0.19,15.35
			c-0.05,4.94-1.26,6.52-5.03,6.55c-3.68,0.02-4.84-1.54-4.87-6.71c-0.03-5.12-0.03-10.23-0.01-15.35
			c0.03-8.72-5.61-14.62-14.38-14.67c-15.48-0.09-30.95-0.02-46.43-0.02C173.79,421.77,173.79,421.78,173.79,421.79z"/>
		<path d="M668.19,459.14c-9.17,0-17.9,0.04-26.63-0.03c-1.92-0.02-2.8,0.45-3.27,2.53c-0.92,4.12-3.77,6.31-7.3,6.24
			c-3.59-0.07-5.8-2.18-6.9-6.56c-0.15-0.6-0.28-1.62-0.59-1.69c-4.99-1.13-3.2-5.18-3.33-8.11c-0.45-9.69-0.33-9.68,9.39-9.72
			c16.97-0.06,33.94-0.13,50.91-0.22c6.9-0.03,7.25,0.27,7.32,6.97c0.02,2,0.01,3.99,0.02,5.99c0.01,2.14,0.25,4.33-2.83,4.76
			c-0.54,0.08-1.16,1.21-1.34,1.95c-0.95,3.72-2.9,6.41-7,6.64c-3.82,0.21-6.16-1.97-7.77-6.76
			C668.64,460.43,668.4,459.73,668.19,459.14z M630.75,460.25c2.03-2.39,4.29-4,4.05-5.02c-0.37-1.58-2.27-3.42-3.88-3.85
			c-0.88-0.24-3.31,2.06-3.51,3.43C627.22,456.1,629.06,457.68,630.75,460.25z M677.92,450.51c-0.55,0-1.09-0.01-1.64-0.01
			c-1,1.47-2.76,2.94-2.76,4.4c0,1.21,2.29,3.54,3.21,3.37c1.53-0.27,3.64-1.99,3.89-3.38
			C680.85,453.63,678.91,451.99,677.92,450.51z"/>
		<path d="M292.55,198.49c-8.48,0-16.7-0.06-24.92,0.09c-0.81,0.01-2.08,1.18-2.32,2.04c-1.01,3.58-2.94,6.29-6.8,6.41
			c-4.09,0.12-6.35-2.36-6.87-6.42c-0.06-0.47-0.28-1.1-0.64-1.32c-6.05-3.75-2.13-9.59-2.89-14.42c-0.08-0.54,2.1-1.95,3.31-2.07
			c3.21-0.3,6.48-0.11,9.72-0.13c14.09-0.06,28.19-0.11,42.28-0.2c7.21-0.05,7.42,0.12,7.46,7.13c0.01,1.62,0.03,3.24,0.06,4.86
			c0.04,1.97-0.11,3.69-2.59,4.28c-0.71,0.17-1.39,1.33-1.7,2.17c-1.63,4.4-3.88,6.33-7.33,6.07c-3.43-0.26-5.45-2.49-6.43-7.12
			C292.82,199.53,292.72,199.18,292.55,198.49z M300.86,199.73c1.76-2.44,3.78-4.03,3.6-5.31c-0.19-1.38-2.47-3.46-3.77-3.42
			c-1.27,0.04-3.18,2.28-3.43,3.78C297.07,195.91,299.07,197.4,300.86,199.73z M263.01,194.5c-2.3-1.62-3.83-3.53-4.97-3.31
			c-1.5,0.28-2.7,2.22-4.02,3.45c1.33,1.22,2.55,3.18,4.02,3.41C259.2,198.22,260.69,196.25,263.01,194.5z"/>
		<path d="M529.51,405.89c0.37,12.13,0.98,9.74-8.71,9.84c-9.62,0.1-15.13,3.66-16.81,11.38c-0.37,1.68-0.39,3.46-0.39,5.2
			c-0.03,11.47-0.02,22.94-0.02,34.41c0,1.59,0,3.17,0,4.88c-3.41,0-6.34,0-9.63,0c-0.11-1.93-0.28-3.62-0.28-5.31
			c-0.01-11.97-0.01-23.94,0.05-35.91c0.08-14.38,9.75-24.18,24.09-24.47C521.63,405.83,525.46,405.89,529.51,405.89z"/>
		<path d="M613.15,554.76c0-3.44,0-6.26,0-9.48c8,0,15.94-0.02,23.89,0.01c10.48,0.03,15.48-4.85,15.52-15.23
			c0.02-5.24,0.1-10.49-0.01-15.73c-0.07-3.59,2.26-3.95,4.93-4.08c2.86-0.14,4.98,0.59,4.96,4.01c-0.04,6.99,0.22,14-0.16,20.97
			c-0.45,8.43-6.58,16.17-14.81,18.39C636.22,556.65,624.75,554.44,613.15,554.76z"/>
		<path d="M678.67,434.49c-16.78,0-32.69,0-49.47,0c2.77-5.81,5.22-11.19,7.95-16.42c0.4-0.77,2.1-1.21,3.2-1.22
			c9.09-0.12,18.18-0.18,27.26-0.04c1.21,0.02,2.96,0.95,3.5,1.97C673.7,423.69,675.96,428.78,678.67,434.49z"/>
		<path d="M302.15,175.6c-15.27,0-29.89,0-45.35,0c2.47-5.14,4.66-9.92,7.1-14.56c0.36-0.69,1.89-1.08,2.88-1.1
			c8.46-0.14,16.93-0.27,25.39-0.09c1.33,0.03,3.19,1.34,3.85,2.57C298.19,166.45,299.92,170.72,302.15,175.6z"/>
		<path d="M541.9,405.91c6.61,0,12.96-0.03,19.3,0.01c11.03,0.06,15.47-4.28,15.62-15.32c0.02-1.47,0-2.94,0-4.66
			c3.4,0,6.43,0,9.43,0c2.72,16.01-5.1,27.8-19.76,29.6c-4.43,0.54-8.97,0.19-13.46,0.22c-3.6,0.02-7.19,0-11.12,0
			C541.9,412.39,541.9,409.48,541.9,405.91z"/>
		<path d="M125.41,291.25c7.13,0.01,12.97,5.67,13.04,12.65c0.07,6.98-6.14,13.09-13.19,12.98c-6.85-0.1-12.57-5.91-12.55-12.74
			C112.72,296.98,118.37,291.25,125.41,291.25z"/>
		<path d="M243.14,354.06c3.41,0,6.47,0,10.01,0c0,4.41-0.18,8.73,0.06,13.03c0.16,2.8,0.49,5.75,1.52,8.32
			c1.53,3.83,4.66,6.04,8.97,6.26c2.7,0.14,5.4,0.31,8.24,0.47c0,3.01,0,5.71,0,8.39c-16.84,3.85-28.46-5.85-28.79-20.29
			C243.04,365.03,243.14,359.8,243.14,354.06z"/>
		<path d="M514.06,347.76c0,6.51-5.11,11.46-11.78,11.4c-6.34-0.06-11.28-5.05-11.37-11.48c-0.09-6.32,5.23-11.39,11.86-11.33
			C509.25,336.4,514.05,341.26,514.06,347.76z"/>
		<path d="M324.51,382.21c0,3.1,0,5.81,0,9.01c-4.16,0-8.11-0.01-12.06,0c-7.86,0.02-15.73-0.11-23.58,0.13
			c-3.71,0.11-4.92-1.35-4.45-4.8c0.18-1.33,0.19-2.69,0.29-4.33C298.03,382.21,311.18,382.21,324.51,382.21z"/>
		<path d="M101.54,496.47c0-4.35,0.05-8.7-0.02-13.06c-0.06-3.55,2.16-3.89,4.94-3.93c2.82-0.04,5.09,0.45,5.11,3.85
			c0.04,8.95,0.02,17.9-0.04,26.86c-0.02,3.46-2.53,3.87-5.18,3.89c-2.58,0.02-4.79-0.55-4.8-3.81
			C101.53,505.67,101.54,501.07,101.54,496.47z"/>
		<path d="M111.6,548.1c-2.03,1.12-4.41,2.42-7.5,4.12c-0.82-2.49-2.11-4.83-2.29-7.25c-0.4-5.34-0.26-10.72-0.29-16.08
			c-0.03-3.84,2.98-3.43,5.34-3.49c2.53-0.07,4.77,0.62,4.76,3.9C111.58,535.51,111.6,541.71,111.6,548.1z"/>
		<path d="M465.16,303.81c-0.1,4.65-4.44,8.8-9,8.61c-4.69-0.2-8.66-4.43-8.53-9.09c0.14-4.78,3.91-8.34,8.74-8.24
			C461.27,295.18,465.26,299.13,465.16,303.81z"/>
		<path d="M652.58,476c9.85-0.97,9.84-0.97,9.84,8.15c0,3.62-0.02,7.23,0.02,10.85c0.04,3.7-2.63,4.23-5.31,4.29
			c-2.58,0.06-4.6-0.92-4.57-4.13C652.62,488.84,652.58,482.51,652.58,476z"/>
		<path d="M317.06,310.18c-4.55-0.04-8.26-3.78-8.28-8.35c-0.02-4.8,3.41-8.18,8.28-8.13c4.7,0.04,8.42,3.93,8.31,8.7
			C325.25,306.84,321.65,310.22,317.06,310.18z"/>
		<path d="M260.71,116.43c0.07-4.21,3.49-7.64,7.63-7.67c4.34-0.03,8.17,3.83,8.08,8.15c-0.09,4.44-3.91,8.09-8.28,7.92
			C264.09,124.68,260.63,120.77,260.71,116.43z"/>
		<path d="M588.3,103.01c-1.42-0.49-2.44-0.55-2.99-1.09c-3.35-3.3-6.76-6.57-9.81-10.15c-1.7-1.99-1.06-4.75,0.99-5.89
			c1.63-0.9,4.8-1.22,6.04-0.23c3.56,2.83,6.68,6.3,9.55,9.86c0.78,0.97,0.54,3.42-0.15,4.71
			C591.25,101.51,589.43,102.2,588.3,103.01z"/>
		<path d="M580.11,188.97c-4.22,0-6.9-4.19-4.45-7.27c2.99-3.75,6.67-7.01,10.39-10.06c0.88-0.72,3.68-0.36,4.6,0.53
			c1.22,1.19,2.55,4.28,1.96,4.99c-3.46,4.14-7.45,7.83-11.31,11.62C581.02,189.06,580.34,188.94,580.11,188.97z"/>
		<path d="M674.34,184.27c-0.01,3.7-4.16,6.43-7.07,4.14c-3.86-3.04-7.38-6.67-10.39-10.55c-2.16-2.77,0.91-7.12,4.49-6.96
			C664.86,171.05,674.35,180.82,674.34,184.27z"/>
		<path d="M674.89,89.02c-0.6,1.47-0.74,2.57-1.37,3.23c-2.98,3.18-5.94,6.4-9.19,9.28c-2.19,1.95-4.78,1.39-6.7-0.67
			c-2-2.14-1.86-4.54,0.2-6.66c2.69-2.77,5.23-5.77,8.28-8.08c1.36-1.03,3.96-1.14,5.73-0.66C673.1,85.81,673.92,87.82,674.89,89.02
			z"/>
		<path d="M244.63,488.49c-0.72,0.43-0.83,0.53-0.94,0.55c-8.45,1.48-9.03,1.01-9.03-7.38c0-2.62,0.02-5.24,0.01-7.86
			c-0.01-3.31,2.08-4.25,4.89-4.3c2.81-0.05,5.01,0.84,5.05,4.13C244.67,478.71,244.63,483.79,244.63,488.49z"/>
		<path d="M619.88,75c0-1.87-0.13-3.76,0.03-5.61c0.25-2.82,1.88-4.81,4.72-4.84c2.9-0.02,5.01,1.58,5.05,4.82
			c0.04,3.87-0.05,7.74-0.13,11.61c-0.07,3.21-2.02,4.99-4.96,4.94c-2.79-0.05-4.49-2.01-4.64-4.92c-0.1-1.99-0.02-3.99-0.02-5.99
			C619.92,75,619.9,75,619.88,75z"/>
		<path d="M683.61,141.77c-2,0-4,0.13-5.98-0.03c-3.02-0.25-4.45-2.37-4.51-5.07c-0.06-2.78,1.82-4.35,4.55-4.45
			c3.86-0.14,7.74-0.17,11.6-0.04c2.94,0.1,4.66,1.84,4.62,4.79c-0.04,2.9-1.71,4.6-4.67,4.75c-1.87,0.1-3.74,0.02-5.61,0.02
			C683.61,141.76,683.61,141.77,683.61,141.77z"/>
		<path d="M629.49,196.9c0,1.98,0.04,3.97-0.01,5.95c-0.08,2.89-2.07,4.65-4.48,4.36c-1.76-0.21-4.5-2.15-4.7-3.61
			c-0.6-4.37-0.52-8.93,0.07-13.31c0.19-1.39,2.68-3.2,4.36-3.49c2.27-0.4,4.36,1.08,4.62,3.77c0.2,2.09,0.04,4.21,0.04,6.32
			C629.42,196.9,629.46,196.9,629.49,196.9z"/>
		<path d="M565.78,132.16c1.87,0,3.74-0.1,5.6,0.02c3.06,0.19,4.97,1.87,4.86,4.98c-0.1,2.85-1.88,4.53-4.81,4.62
			c-3.48,0.12-6.97,0.21-10.45,0.12c-3.44-0.08-5.84-2.25-5.72-5.13c0.15-3.57,2.62-4.45,5.67-4.47c1.62-0.01,3.24,0,4.85,0
			C565.78,132.26,565.78,132.21,565.78,132.16z"/>
		<path d="M389.71,325.49c0,1.99,0.08,3.98-0.02,5.97c-0.13,2.61-1.5,4.27-4.19,4.23c-2.59-0.04-4.19-1.47-4.22-4.19
			c-0.05-3.98-0.07-7.96-0.01-11.94c0.04-2.68,1.56-4.29,4.17-4.22c2.46,0.07,4.24,1.4,4.29,4.19c0.04,1.99,0.01,3.98,0.01,5.97
			C389.73,325.49,389.72,325.49,389.71,325.49z"/>
		<path d="M389.77,178.65c0,1.99-0.01,3.98,0,5.97c0.02,2.88-1.85,4.02-4.28,4.07c-2.54,0.05-4.22-1.29-4.22-4.1
			c0-3.98-0.01-7.95,0.01-11.93c0.02-2.82,1.8-4.04,4.29-4.08c2.58-0.05,4.19,1.32,4.18,4.12c-0.01,1.99,0,3.98,0,5.97
			C389.75,178.65,389.76,178.65,389.77,178.65z"/>
		<path d="M389.64,295.58c0,2.11,0.53,4.42-0.16,6.28c-0.6,1.61-2.42,3.55-3.98,3.85c-2.37,0.45-4.23-1.23-4.27-4
			c-0.05-3.98-0.03-7.96,0.03-11.94c0.04-2.67,1.55-4.28,4.14-4.26c2.71,0.02,4.38,1.51,4.32,4.47c-0.04,1.87-0.01,3.73-0.01,5.6
			C389.69,295.58,389.66,295.58,389.64,295.58z"/>
		<path d="M389.75,208.19c0,2,0.03,3.99-0.01,5.98c-0.05,2.64-1.68,3.83-4.07,3.9c-2.6,0.08-4.32-1.17-4.36-3.98
			c-0.05-4.11-0.38-8.28,0.18-12.32c0.2-1.45,2.48-3.38,4.07-3.68c2.09-0.39,4.08,1.01,4.12,3.73c0.03,2.12,0.01,4.24,0.01,6.36
			C389.71,208.19,389.73,208.19,389.75,208.19z"/>
		<path d="M389.69,237.24c0,1.99,0,3.99,0,5.98c0,2.6-1.49,3.95-3.89,4.09c-2.62,0.15-4.35-1.26-4.47-3.93
			c-0.18-4.1-0.48-8.27,0.03-12.31c0.19-1.47,2.57-3.69,3.96-3.7c1.44-0.01,3.54,1.99,4.18,3.58c0.73,1.83,0.17,4.17,0.17,6.29
			C389.68,237.24,389.69,237.24,389.69,237.24z"/>
		<path d="M389.68,266.51c0,2.11,0.5,4.4-0.16,6.28c-0.53,1.52-2.54,3.67-3.71,3.56c-1.58-0.14-4.06-2.03-4.27-3.44
			c-0.6-4.14-0.6-8.46-0.12-12.63c0.16-1.39,2.54-3.62,3.76-3.53c1.57,0.12,3.66,1.91,4.31,3.48c0.75,1.8,0.17,4.15,0.17,6.27
			C389.67,266.51,389.68,266.51,389.68,266.51z"/>
		<path d="M500.39,127.3c0.05-3.81,2.81-6.63,6.53-6.67c3.86-0.04,7.05,2.97,7.05,6.65c0.01,3.82-3.31,6.96-7.28,6.87
			C503.04,134.08,500.34,131.15,500.39,127.3z"/>
		<path d="M641.73,368.41c3.7-0.03,6.62,2.9,6.59,6.63c-0.03,3.63-3.13,6.91-6.5,6.89c-3.51-0.02-6.48-3.12-6.53-6.82
			C635.22,371.26,637.94,368.45,641.73,368.41z"/>
		<path d="M126.15,568.59c-5.97-0.61-10.81-2.43-14.44-6.64c3.49-7.21,8.89-5.34,14.44-3.25
			C126.15,561.78,126.15,564.97,126.15,568.59z"/>
		<path d="M158.85,495.12c-2.91-0.05-5.34-2.57-5.35-5.55c-0.01-3.31,2.36-5.67,5.59-5.57c3.03,0.09,5.59,2.58,5.54,5.38
			C164.59,492.31,161.7,495.17,158.85,495.12z"/>
		<path d="M562.65,464.48c-2.86-0.1-5.22-2.73-5.16-5.75c0.07-3.27,2.57-5.54,5.87-5.33c2.84,0.18,5.22,2.7,5.12,5.41
			C568.36,461.82,565.53,464.58,562.65,464.48z"/>
		<path d="M97.56,379.17c0-1.56,0-2.66,0-3.71c8.24-2.01,11.79-1.08,12.64,3.71C106.02,379.17,101.93,379.17,97.56,379.17z"/>
		<path d="M93.12,392.52c-1.74-1.97-2.72-3.09-3.71-4.21c1.36-0.77,2.66-2.01,4.08-2.15c0.94-0.1,2.04,1.36,3.07,2.13
			C95.64,389.42,94.72,390.55,93.12,392.52z"/>
		<path d="M110.32,392.16c-1.6-1.54-3.3-2.4-3.49-3.52c-0.39-2.28,1.61-3,3.4-2.57c1.25,0.3,2.27,1.55,3.39,2.38
			C112.69,389.5,111.76,390.55,110.32,392.16z"/>
		<path d="M85.08,373.48c1.54,1.63,2.47,2.63,3.41,3.62c-1.28,0.86-2.5,2.22-3.87,2.41c-0.85,0.12-1.94-1.55-2.92-2.41
			C82.62,376.11,83.55,375.11,85.08,373.48z"/>
		<path fill="#FFFFFF" d="M413.97,552.4c0,5.99,0,11.67,0,17.65c-6.11,0-12.02,0-18.17,0c0-5.78,0-11.57,0-17.65
			C401.78,552.4,407.7,552.4,413.97,552.4z"/>
		<path fill="#FFFFFF" d="M413.81,392.41c-6.1,0-11.92,0-18,0c0-5.85,0-11.53,0-17.52c5.88,0,11.8,0,18,0
			C413.81,380.55,413.81,386.24,413.81,392.41z"/>
		<path fill="#FFFFFF" d="M413.84,517.1c0,5.93,0,11.74,0,17.71c-6.11,0-11.93,0-18.02,0c0-5.89,0-11.67,0-17.71
			C401.75,517.1,407.56,517.1,413.84,517.1z"/>
		<path fill="#FFFFFF" d="M413.95,481.58c0,5.84,0,11.4,0,17.21c-6.05,0-11.94,0-18.11,0c0-5.62,0-11.26,0-17.21
			C401.75,481.58,407.65,481.58,413.95,481.58z"/>
		<path fill="#FFFFFF" d="M395.69,427.94c0-5.76,0-11.32,0-17.2c5.96,0,11.85,0,18.08,0c0,5.56,0,11.2,0,17.2
			C407.85,427.94,401.85,427.94,395.69,427.94z"/>
		<path fill="#FFFFFF" d="M372.38,570.09c-6.26,0-12.05,0-18.12,0c0-5.99,0-11.77,0-17.78c6.02,0,11.93,0,18.12,0
			C372.38,558.24,372.38,564.01,372.38,570.09z"/>
		<path fill="#FFFFFF" d="M354.34,446.32c5.96,0,11.89,0,18.06,0c0,5.8,0,11.37,0,17.25c-5.94,0-11.84,0-18.06,0
			C354.34,457.89,354.34,452.23,354.34,446.32z"/>
		<path fill="#FFFFFF" d="M354.39,517.1c6.15,0,11.94,0,17.99,0c0,5.87,0,11.54,0,17.55c-5.9,0-11.78,0-17.99,0
			C354.39,528.97,354.39,523.22,354.39,517.1z"/>
		<path fill="#FFFFFF" d="M372.32,392.47c-6.1,0-11.81,0-17.87,0c0-5.9,0-11.66,0-17.68c5.9,0,11.71,0,17.87,0
			C372.32,380.58,372.32,386.34,372.32,392.47z"/>
		<path fill="#FFFFFF" d="M372.36,428.2c-6.1,0-11.88,0-17.97,0c0-5.88,0-11.54,0-17.51c5.9,0,11.78,0,17.97,0
			C372.36,416.42,372.36,422.08,372.36,428.2z"/>
		<path fill="#FFFFFF" d="M372.46,481.65c0,5.79,0,11.35,0,17.16c-6.08,0-11.97,0-18.13,0c0-5.68,0-11.22,0-17.16
			C360.28,481.65,366.15,481.65,372.46,481.65z"/>
		<path fill="#FFFFFF" d="M395.74,463.57c0-5.78,0-11.32,0-17.13c6.09,0,11.98,0,18.12,0c0,5.76,0,11.3,0,17.13
			C407.88,463.57,401.99,463.57,395.74,463.57z"/>
		<path fill="#FFFFFF" d="M521.7,549.24c7.86,0,15.3,0,22.99,0c0,6.48,0,12.75,0,19.27c-7.72,0-15.24,0-22.99,0
			C521.7,562.05,521.7,555.77,521.7,549.24z"/>
		<path fill="#FFFFFF" d="M521.63,531.87c0-6.42,0-12.49,0-18.81c7.72,0,15.27,0,23.09,0c0,6.24,0,12.39,0,18.81
			C537,531.87,529.47,531.87,521.63,531.87z"/>
		<path fill="#FFFFFF" d="M507.13,549.11c0,6.61,0,12.8,0,19.36c-6.63,0-13.13,0-19.99,0c0-6.33,0-12.71,0-19.36
			C493.72,549.11,500.25,549.11,507.13,549.11z"/>
		<path fill="#FFFFFF" d="M507.13,513.02c0,6.46,0,12.52,0,18.85c-6.72,0-13.24,0-20.06,0c0-6.27,0-12.44,0-18.85
			C493.69,513.02,500.24,513.02,507.13,513.02z"/>
		<path fill="#FFFFFF" d="M579.82,549.16c0,6.73,0,13.03,0,19.55c-6.59,0-12.9,0-19.56,0c0-6.46,0-12.87,0-19.55
			C566.7,549.16,573.13,549.16,579.82,549.16z"/>
		<path fill="#FFFFFF" d="M579.91,531.95c-6.72,0-13.03,0-19.71,0c0-6.23,0-12.38,0-18.83c6.5,0,13.01,0,19.71,0
			C579.91,519.38,579.91,525.45,579.91,531.95z"/>
		<path fill="#FFFFFF" d="M643.84,615.53c2.29-2.45,4.48-4.83,6.72-7.16c1.76-1.84,3.68-1.99,5.59-0.25c1.85,1.7,1.6,3.57,0.07,5.27
			c-3.17,3.51-6.42,6.96-9.67,10.4c-1.67,1.77-3.53,1.84-5.2,0.08c-3.35-3.52-6.65-7.08-9.88-10.71c-1.39-1.56-1.66-3.22,0.07-4.92
			c1.73-1.7,3.4-1.43,4.93-0.01C639.01,610.59,641.41,613.11,643.84,615.53z"/>
		<path fill="#FFFFFF" d="M113.12,619.84c-0.08,1.24,0.2,2.67-0.32,3.68c-0.59,1.13-1.9,2.59-2.91,2.61
			c-1.25,0.02-3.4-1.12-3.6-2.09c-0.58-2.74-0.6-5.68-0.29-8.48c0.08-0.72,2.25-1.68,3.43-1.65c1.17,0.03,2.76,0.91,3.35,1.9
			C113.4,616.86,113.05,618.47,113.12,619.84z"/>
		<path fill="#FFFFFF" d="M246.35,588.34c-10.35,0-20.69,0.02-31.04-0.01c-4.14-0.01-6.26-1.66-6.22-4.72
			c0.04-2.82,2.24-4.67,6.02-4.68c20.94-0.09,41.88-0.13,62.82-0.13c3.46,0,6.3,2.52,6.01,5.29c-0.35,3.43-2.68,4.34-5.82,4.32
			c-10.59-0.07-21.19-0.03-31.78-0.03C246.35,588.37,246.35,588.35,246.35,588.34z"/>
		<path fill="#FFFFFF" d="M191.01,578.17c0,4.83,0,9.39,0,14.3c-10.66,0-21.17,0-31.91,0c0-4.72,0-9.39,0-14.3
			C169.75,578.17,180.29,578.17,191.01,578.17z"/>
		<path fill="#FFFFFF" d="M240.35,539.28c0-3.06,0-6.09,0-9.33c4.28,0,8.33,0,12.72,0c0,2.99,0,6.01,0,9.33
			C248.97,539.28,244.81,539.28,240.35,539.28z"/>
		<path fill="#FFFFFF" d="M226.83,530.06c0,3.07,0,6,0,9.2c-4.17,0-8.19,0-12.45,0c0-3,0-5.92,0-9.2
			C218.41,530.06,222.43,530.06,226.83,530.06z"/>
		<path fill="#FFFFFF" d="M266.81,539.32c0-3.24,0-6.08,0-9.26c4.19,0,8.22,0,12.52,0c0,2.99,0,6.01,0,9.26
			C275.13,539.32,271.1,539.32,266.81,539.32z"/>
		<path fill="#FFFFFF" d="M240.46,548.45c4.18,0,8.23,0,12.58,0c0,2.88,0,5.67,0,8.8c-3.98,0-8.1,0-12.58,0
			C240.46,554.46,240.46,551.69,240.46,548.45z"/>
		<path fill="#FFFFFF" d="M279.42,548.64c0,2.98,0,5.68,0,8.7c-4.14,0-8.16,0-12.53,0c0-2.78,0-5.56,0-8.7
			C270.8,548.64,274.93,548.64,279.42,548.64z"/>
		<path fill="#FFFFFF" d="M226.62,557.35c-4.24,0-8.17,0-12.29,0c0-3.03,0-5.82,0-8.9c4.14,0,8.16,0,12.29,0
			C226.62,551.56,226.62,554.44,226.62,557.35z"/>
		<path fill="#FFFFFF" d="M582.24,313.32c-11.07,0.3-21.34-9.75-20.35-22.77c0.84-11.03,10.55-19.49,22.01-18.81
			c11.57,0.69,20.97,10.42,20.43,21.14C603.72,305.22,594.16,314.06,582.24,313.32z"/>
		<path fill="#FFFFFF" d="M265.71,281.4c-0.12,8.61-7.39,15.91-15.74,15.8c-8.9-0.11-16.13-7.2-16.12-15.81
			c0.01-8.87,7.42-15.99,16.47-15.81C258.49,265.74,265.83,273.28,265.71,281.4z"/>
		<path fill="#FFFFFF" d="M173.33,389.28c-4.27-0.25-5.89-2.11-6.03-4.83c-0.14-2.8,1.83-4.24,4.49-4.46
			c2.24-0.19,5.48,2.7,4.82,4.63C175.95,386.55,174.19,388.11,173.33,389.28z"/>
		<path fill="#FFFFFF" d="M190.04,389.87c-3.19-0.74-5.82-3.29-5.55-5.58c0.31-2.69,2.03-4.23,4.77-4.28
			c2.44-0.05,5.41,2.76,4.65,4.75C193.16,386.67,191.37,388.18,190.04,389.87z"/>
		<path fill="#FFFFFF" d="M154.54,389.14c-2.59,0-4.8-2.16-4.7-4.71c0.11-2.88,1.91-4.43,4.54-4.38c2.62,0.05,4.32,1.82,4.54,4.51
			C159.12,387.04,156.98,389.14,154.54,389.14z"/>
		<path fill="#FFFFFF" d="M630.75,460.25c-1.68-2.58-3.52-4.15-3.34-5.44c0.2-1.37,2.63-3.67,3.51-3.43
			c1.6,0.43,3.51,2.27,3.88,3.85C635.04,456.26,632.77,457.87,630.75,460.25z"/>
		<path fill="#FFFFFF" d="M677.92,450.51c0.99,1.48,2.93,3.12,2.71,4.38c-0.25,1.4-2.36,3.12-3.89,3.38
			c-0.92,0.16-3.21-2.16-3.21-3.37c0-1.46,1.76-2.93,2.76-4.4C676.83,450.5,677.37,450.51,677.92,450.51z"/>
		<path fill="#FFFFFF" d="M300.86,199.73c-1.79-2.33-3.79-3.82-3.6-4.95c0.25-1.5,2.16-3.74,3.43-3.78c1.3-0.05,3.58,2.04,3.77,3.42
			C304.64,195.7,302.63,197.29,300.86,199.73z"/>
		<path fill="#FFFFFF" d="M263.01,194.5c-2.31,1.75-3.8,3.72-4.97,3.55c-1.48-0.22-2.69-2.19-4.02-3.41
			c1.33-1.23,2.52-3.17,4.02-3.45C259.17,190.98,260.71,192.88,263.01,194.5z"/>
	</g>
</g>
</svg>
