<?xml version="1.0" encoding="utf-8"?>
<!-- Generator: Adobe Illustrator 27.8.0, SVG Export Plug-In . SVG Version: 6.00 Build 0)  -->
<svg version="1.1" id="Capa_1" xmlns="http://www.w3.org/2000/svg" xmlns:xlink="http://www.w3.org/1999/xlink" x="0px" y="0px"
	 viewBox="0 0 1024 1024" enable-background="new 0 0 1024 1024" xml:space="preserve">
<g>
	<g>
		<path fill="#FEFEFE" d="M0.09,512C0.09,342.86,0.11,173.73,0,4.59C0,0.84,0.84,0,4.59,0c338.27,0.1,676.54,0.1,1014.81,0
			c3.75,0,4.59,0.84,4.59,4.59c-0.1,338.27-0.1,676.54,0,1014.82c0,3.75-0.84,4.59-4.59,4.59c-338.27-0.1-676.54-0.1-1014.81,0
			c-3.75,0-4.6-0.84-4.59-4.59C0.11,850.27,0.09,681.14,0.09,512z M470.11,572.32c-14.94,26.83-31.68,50.52-49.76,73.3
			c-0.81,1.02-1.5,2.68-2.94,2.35c-1.45-0.33-1.28-2.06-1.49-3.36c-2.91-18.21-5.9-36.4-8.77-54.61c-1.5-9.52-2.77-19.07-4.23-28.6
			c-0.44-2.87,0.41-3.96,3.46-4.54c8.54-1.63,16.45-5.1,23.94-9.54c22.64-13.44,45.09-44.59,29.9-77.09
			c-1.25-2.67-0.19-4.7,1.58-6.73c6.58-7.58,11.77-16.1,16.11-25.1c9.51-19.71,18.69-39.59,28.29-59.25
			c4.47-9.15,6.19-18.96,2.35-27.96c-4.18-9.78-3.89-18.65-0.59-28.13c0.81-2.33,1.18-4.83,1.66-7.26
			c5.98-30.64,0.72-58.95-18.41-83.96c-24.8-32.43-58.24-48.62-98.7-49.95c-42.19-1.39-78.24,12.36-105.92,45.35
			c-14.13,16.84-22.1,36.07-23.71,58.04c-1.18,16.17,1.19,31.84,5.85,47.24c1.35,4.45,1.54,8.38-0.74,12.87
			c-5.22,10.29-5.68,21.09-0.89,31.78c3.67,8.19,7.74,16.2,11.45,24.37c10.1,22.21,18.92,45.11,34.85,64.14
			c1.63,1.94,0.66,3.6-0.11,5.5c-5.03,12.45-6.5,25.25-1.6,37.97c9.87,25.65,28.69,41.36,55.24,47.79c3.64,0.88,4.42,2.17,3.83,5.67
			c-2.13,12.62-3.91,25.3-5.95,37.94c-2.4,14.93-4.89,29.84-7.45,44.74c-0.17,0.98,0.29,2.61-1.26,2.9
			c-1.34,0.26-1.98-1.02-2.68-1.9c-2.38-2.98-4.74-5.99-7.06-9.02c-13.68-17.83-26.26-36.4-37.03-56.12
			c-9.97-18.25-18.92-37.01-22.76-57.67c-0.67-3.62-2.23-3.74-4.84-3.42c-9.58,1.2-18.92,3.3-28.01,6.69
			c-42.59,15.89-70.49,54.82-70.75,100.26c-0.35,60.82-0.13,121.64-0.15,182.46c0,2.83-0.03,5.67,0.14,8.49
			c0.52,8.65,6.37,14.5,15.03,14.87c4.66,0.2,9.33,0.01,13.99,0c79.98-0.08,159.96-0.16,239.94-0.23c3.17,0,6.42,0.05,9.35-1.16
			c6.51-2.68,8.83-7.97,8.83-14.75c-0.02-73.48,0.01-146.97,0.03-220.45C470.11,588.77,470.11,581.29,470.11,572.32z M834.05,636.61
			c0.01,0,0.03,0,0.04,0c0-59.65,0-119.3,0-178.95c0-10.91-6-17.11-16.84-17.09c-16.16,0.03-32.32,0.23-48.48,0.24
			c-62.15,0.03-124.3,0.01-186.45,0.03c-3.41,0-6.59-0.19-9.56,2.77c-22.83,22.78-45.85,45.36-68.87,67.94
			c-3.42,3.36-4.9,7.09-4.9,11.98c0.11,67.15,0.06,134.3,0.05,201.44c-0.01,30.32-0.09,60.65,0,90.97
			c0.03,11.34,6.02,17.61,16.49,17.62c99.47,0.04,198.94-0.01,298.42,0.12c12.26,0.02,20.34-6.74,20.26-20.12
			C833.83,754.58,834.05,695.59,834.05,636.61z M771.08,406.18c-2.82-11.16-8.47-20.41-16.09-28.48
			c-16.72-17.72-37.69-25.86-61.72-27.17c-25.5-1.39-48.9,4.06-68.91,20.7c-10.2,8.48-17.43,19.09-21.93,31.59
			c-0.94,2.62-0.44,3.73,2.47,3.44c1.32-0.13,2.66,0.02,4,0.02c51.15-0.03,102.3-0.06,153.45-0.1
			C765.14,406.18,767.92,406.18,771.08,406.18z M685.79,337.34c22.68,0.12,41.04-17.61,40.91-39.47
			c-0.13-21.22-18.16-39.63-38.84-39.66c-23.39-0.03-41.06,17.28-41.12,40.28C646.68,320.06,663.94,337.22,685.79,337.34z"/>
		<path fill="#1A3D5C" d="M470.11,572.32c0,8.97,0,16.44,0,23.92c-0.02,73.48-0.05,146.97-0.03,220.45c0,6.78-2.32,12.07-8.83,14.75
			c-2.93,1.21-6.18,1.15-9.35,1.16c-79.98,0.07-159.96,0.15-239.94,0.23c-4.66,0-9.34,0.19-13.99,0
			c-8.66-0.37-14.51-6.22-15.03-14.87c-0.17-2.82-0.14-5.66-0.14-8.49c0.02-60.82-0.19-121.64,0.15-182.46
			c0.26-45.44,28.16-84.37,70.75-100.26c9.09-3.39,18.43-5.49,28.01-6.69c2.6-0.33,4.16-0.21,4.84,3.42
			c3.84,20.65,12.79,39.42,22.76,57.67c10.77,19.72,23.35,38.29,37.03,56.12c2.33,3.03,4.68,6.04,7.06,9.02
			c0.7,0.88,1.34,2.15,2.68,1.9c1.55-0.3,1.09-1.93,1.26-2.9c2.55-14.9,5.05-29.81,7.45-44.74c2.03-12.64,3.82-25.32,5.95-37.94
			c0.59-3.5-0.19-4.79-3.83-5.67c-26.55-6.43-45.37-22.14-55.24-47.79c-4.9-12.72-3.43-25.52,1.6-37.97c0.77-1.9,1.74-3.56,0.11-5.5
			c-15.93-19.03-24.75-41.93-34.85-64.14c-3.72-8.17-7.78-16.18-11.45-24.37c-4.79-10.68-4.33-21.49,0.89-31.78
			c2.28-4.5,2.09-8.42,0.74-12.87c-4.66-15.4-7.04-31.07-5.85-47.24c1.61-21.97,9.58-41.2,23.71-58.04
			c27.68-32.98,63.73-46.74,105.92-45.35c40.46,1.33,73.91,17.52,98.7,49.95c19.12,25.01,24.39,53.32,18.41,83.96
			c-0.48,2.44-0.85,4.93-1.66,7.26c-3.3,9.47-3.59,18.34,0.59,28.13c3.84,8.99,2.12,18.81-2.35,27.96
			c-9.6,19.67-18.77,39.54-28.29,59.25c-4.34,9-9.53,17.52-16.11,25.1c-1.77,2.03-2.82,4.06-1.58,6.73
			c15.19,32.49-7.25,63.65-29.9,77.09c-7.49,4.45-15.39,7.91-23.94,9.54c-3.06,0.58-3.9,1.67-3.46,4.54
			c1.46,9.52,2.73,19.08,4.23,28.6c2.87,18.21,5.86,36.41,8.77,54.61c0.21,1.3,0.04,3.03,1.49,3.36c1.45,0.33,2.14-1.33,2.94-2.35
			C438.43,622.84,455.17,599.15,470.11,572.32z M434.77,268.76c-2.45,0.78-3.54,2.29-4.76,3.59c-8.6,9.12-17.95,17.27-28.97,23.43
			c-29.93,16.73-61.54,23.67-95.48,16.19c-4.84-1.07-5.55-0.22-5.62,4.48c-0.25,16.53,2.43,33.31-3.76,49.42
			c-0.86,2.24,0.04,4.53,1.13,6.68c5.67,11.27,10.89,22.76,16.12,34.24c5.89,12.95,10.99,26.25,20.38,37.47
			c17.36,20.72,46.78,30.27,72.49,22.26c20.13-6.27,34.27-20.06,43.98-38.18c9.8-18.29,16.89-37.92,26.75-56.21
			c1.21-2.24,1.43-4.59,0.71-6.76c-4.38-13.09-4.1-26.54-3.32-40.02c0.14-2.37-0.66-3.58-2.66-4.71
			C451.5,309.19,438.62,292.37,434.77,268.76z M384.08,529.08c14.24,0,25.14-2.61,34.2-10.16c8.76-7.3,16.99-15.16,16.49-28.07
			c-0.21-5.5-0.1-5.55-4.82-2.99c-29.21,15.84-58.33,15.99-87.26-0.64c-3.08-1.77-3.18-0.58-3.32,1.94
			c-0.35,6.36,1.1,12.17,4.79,17.41C354.54,521.26,368.29,529.55,384.08,529.08z M383.01,784.12c0,5.28,3.83,9.51,8.69,9.59
			c4.59,0.08,8.76-4.16,8.8-8.91c0.04-5.26-3.74-9.23-8.89-9.35C386.35,775.33,383.01,778.7,383.01,784.12z M382.98,731.61
			c0.01,5.15,4.06,9.34,8.97,9.26c5.06-0.08,8.83-3.84,8.86-8.84c0.03-5.21-3.91-9.17-9.07-9.11
			C386.57,722.99,382.97,726.55,382.98,731.61z"/>
		<path fill="#1A3D5C" d="M834.05,636.61c0,58.98-0.22,117.97,0.17,176.95c0.09,13.37-7.99,20.13-20.26,20.12
			c-99.47-0.13-198.94-0.08-298.42-0.12c-10.47,0-16.46-6.28-16.49-17.62c-0.09-30.32-0.01-60.65,0-90.97
			c0.01-67.15,0.06-134.3-0.05-201.44c-0.01-4.88,1.47-8.62,4.9-11.98c23.02-22.58,46.04-45.16,68.87-67.94
			c2.97-2.97,6.15-2.77,9.56-2.77c62.15-0.02,124.3,0,186.45-0.03c16.16-0.01,32.32-0.21,48.48-0.24
			c10.83-0.02,16.84,6.18,16.84,17.09c-0.01,59.65,0,119.3,0,178.95C834.08,636.61,834.06,636.61,834.05,636.61z M804.79,637.45
			c-0.02,0-0.04,0-0.06,0c0-54.15-0.06-108.31,0.11-162.46c0.01-4.22-1.36-5-5.09-4.84c-6.32,0.28-12.66,0.15-18.99,0.14
			c-61.65-0.03-123.3-0.02-184.95-0.2c-4.11-0.01-4.99,1.26-4.85,5.05c0.28,7.49,0.21,15,0.03,22.49
			c-0.31,12.67-8.21,19.58-19.15,19.16c-10.32-0.4-20.65-0.27-30.98-0.33c-4.13-0.02-8.25,0.06-12.38,0.1
			c0.17,3.76,0.49,7.51,0.5,11.27c0.03,52.47,0.01,104.95,0.01,157.42c0,38.15,0,76.3,0,114.45c0,2.42-0.7,4.6,3.53,4.59
			c89.31-0.15,178.62-0.13,267.93-0.04c3.37,0,4.46-0.71,4.45-4.35C804.75,745.75,804.79,691.6,804.79,637.45z"/>
		<path fill="#1A3D5C" d="M771.08,406.18c-3.17,0-5.95,0-8.73,0c-51.15,0.03-102.3,0.07-153.45,0.1c-1.33,0-2.68-0.14-4-0.02
			c-2.91,0.28-3.41-0.82-2.47-3.44c4.5-12.5,11.73-23.11,21.93-31.59c20.02-16.64,43.41-22.09,68.91-20.7
			c24.03,1.31,45,9.45,61.72,27.17C762.61,385.77,768.26,395.03,771.08,406.18z"/>
		<path fill="#1A3D5C" d="M685.79,337.34c-21.86-0.11-39.12-17.28-39.06-38.85c0.06-23.01,17.73-40.32,41.12-40.28
			c20.68,0.03,38.71,18.44,38.84,39.66C726.84,319.73,708.47,337.46,685.79,337.34z"/>
		<path fill="#FEFEFE" d="M434.77,268.76c3.85,23.61,16.73,40.43,36.98,51.89c1.99,1.13,2.79,2.34,2.66,4.71
			c-0.78,13.48-1.05,26.93,3.32,40.02c0.73,2.17,0.5,4.52-0.71,6.76c-9.86,18.29-16.95,37.92-26.75,56.21
			c-9.71,18.12-23.85,31.9-43.98,38.18c-25.72,8.02-55.13-1.53-72.49-22.26c-9.4-11.22-14.49-24.52-20.38-37.47
			c-5.23-11.49-10.44-22.97-16.12-34.24c-1.08-2.15-1.99-4.44-1.13-6.68c6.18-16.11,3.5-32.89,3.76-49.42
			c0.07-4.71,0.79-5.55,5.62-4.48c33.94,7.48,65.56,0.54,95.48-16.19c11.02-6.16,20.37-14.32,28.97-23.43
			C431.23,271.05,432.32,269.54,434.77,268.76z"/>
		<path fill="#FCFDFD" d="M384.08,529.08c-15.8,0.47-29.54-7.82-39.92-22.51c-3.7-5.24-5.15-11.05-4.79-17.41
			c0.14-2.52,0.24-3.71,3.32-1.94c28.92,16.64,58.05,16.48,87.26,0.64c4.73-2.56,4.61-2.52,4.82,2.99
			c0.5,12.91-7.73,20.76-16.49,28.07C409.22,526.47,398.32,529.08,384.08,529.08z"/>
		<path fill="#FCFDFD" d="M383.01,784.12c0-5.42,3.34-8.79,8.59-8.67c5.16,0.12,8.93,4.08,8.89,9.35c-0.03,4.76-4.21,8.99-8.8,8.91
			C386.84,793.62,383,789.39,383.01,784.12z"/>
		<path fill="#FCFDFD" d="M382.98,731.61c-0.01-5.06,3.59-8.63,8.76-8.69c5.15-0.06,9.1,3.9,9.07,9.11c-0.03,5-3.8,8.76-8.86,8.84
			C387.04,740.95,382.99,736.77,382.98,731.61z"/>
		<path fill="#FCFDFD" d="M804.79,637.45c0,54.15-0.04,108.31,0.09,162.46c0.01,3.64-1.08,4.35-4.45,4.35
			c-89.31-0.09-178.62-0.11-267.93,0.04c-4.23,0.01-3.53-2.17-3.53-4.59c0-38.15,0-76.3,0-114.45c0-52.47,0.02-104.95-0.01-157.42
			c0-3.76-0.32-7.51-0.5-11.27c4.13-0.04,8.26-0.13,12.38-0.1c10.33,0.06,20.67-0.07,30.98,0.33c10.94,0.43,18.85-6.49,19.15-19.16
			c0.18-7.49,0.24-15-0.03-22.49c-0.14-3.8,0.74-5.07,4.85-5.05c61.65,0.18,123.3,0.17,184.95,0.2c6.33,0,12.67,0.14,18.99-0.14
			c3.72-0.17,5.1,0.62,5.09,4.84c-0.17,54.15-0.11,108.31-0.11,162.46C804.75,637.45,804.77,637.45,804.79,637.45z M667.34,640.08
			c0,0.02,0,0.05,0,0.07c-20.98,0-41.96,0-62.94,0c-10.49,0-20.99-0.25-31.47,0.11c-9.27,0.32-14.32,5.66-14.12,13.98
			c0.19,7.92,5.71,13.15,14.3,13.5c2.66,0.11,5.33,0.12,7.99,0.12c47.61,0.04,95.23,0.09,142.84,0.09c12.15,0,24.32,0.11,36.45-0.39
			c8.91-0.37,14.71-6.51,14.34-14.05c-0.4-8.2-6.4-13.42-15.49-13.42C728.61,640.07,697.97,640.08,667.34,640.08z M666.3,609.57
			c30.8,0,61.59,0.01,92.39-0.01c8.23,0,13.44-3.25,15.33-9.42c2.96-9.69-4.04-18.17-15.1-18.18c-48.61-0.03-97.21-0.03-145.82-0.04
			c-12.82,0-25.64-0.05-38.45,0.06c-7.65,0.07-13.6,3.98-15.31,9.71c-2.92,9.81,3.56,17.84,14.58,17.85
			C604.71,609.6,635.51,609.57,666.3,609.57z M635.46,726.99c20.48,0,40.95-0.01,61.43,0.01c5.08,0,9.59-1.33,12.67-5.61
			c3.39-4.71,3.91-9.81,1.14-15c-3.09-5.78-8.2-7.73-14.52-7.72c-37.62,0.08-75.25,0.05-112.87,0.07c-3.83,0-7.67-0.09-11.48,0.18
			c-6.2,0.44-11.46,4.7-12.88,10.09c-2.53,9.6,4.4,17.94,15.08,17.96C594.51,727.02,614.98,726.98,635.46,726.99z M740.74,563.77
			c0,0.01,0,0.03,0,0.04c3.33,0,6.66,0,9.99,0c3.5,0,6.99,0.06,10.49-0.02c9.06-0.22,13.81-4.96,13.84-13.9
			c0.05-11.98,0.02-23.97,0.01-35.96c0-11.88-4.14-16.37-16.06-16.48c-13.15-0.12-26.3,0.14-39.44,0.45
			c-7.8,0.18-12.57,5.18-12.64,13.07c-0.11,13.15-0.11,26.3-0.01,39.45c0.07,8.54,4.69,13.13,13.34,13.32
			C727.09,563.89,733.92,563.77,740.74,563.77z M730.22,778.13c0,0.01,0,0.02,0,0.03c9.83,0,19.66,0.13,29.48-0.04
			c8.84-0.15,14.4-5.43,14.34-13.21c-0.06-7.78-5.76-13.48-14.22-13.51c-19.65-0.06-39.31,0.06-58.96,0.34
			c-7.85,0.11-13.1,5.54-13.13,12.81c-0.03,7.62,5.6,13.42,13.51,13.55C710.9,778.25,720.56,778.13,730.22,778.13z M598.07,751.67
			c-7.98,0-15.96-0.04-23.94,0.02c-2.8,0.02-5.64-0.04-8.26,1.36c-5.53,2.97-8.22,8.79-6.9,15.13c1.22,5.87,5.89,9.82,12.6,9.89
			c16.96,0.17,33.92,0.15,50.88,0.06c8.6-0.05,14.56-5.51,14.63-13.02c0.07-8.07-5.48-13.28-14.57-13.42
			C614.36,751.58,606.21,751.68,598.07,751.67z M628.92,559.25c0-7.88-0.31-15.14,0.12-22.35c0.25-4.19-0.86-6.88-4.61-8.78
			c-1.81-0.92-4.64-1.94-4.18-4.35c0.46-2.42,3.47-2.9,5.61-3.4c2.08-0.49,3.14-1.06,3.12-3.41c-0.09-11.91-0.04-23.83-0.04-35.63
			c-1.25-0.56-1.8,0.26-2.46,0.66c-9.06,5.53-18.14,11.05-27.15,16.67c-1.62,1.01-4.44,1.07-3.89,4.24c0.46,2.68,0.36,5.03,3.96,6.4
			c4.88,1.87,7.77,6.01,7.55,11.74c-0.22,5.54-2.63,9.43-7.84,11.57c-4.11,1.69-4.85,7.06-1.05,9.41
			C607.87,548.1,617.87,553.9,628.92,559.25z M559.44,559.47c10.6-6.09,20.37-11.67,30.1-17.32c2.23-1.3,3.37-7.25,1.33-8.11
			c-5.62-2.38-9.15-6.84-13.11-10.99c-0.58-0.61-1.85-0.75-2.81-0.76c-4.16-0.07-8.33,0.09-12.48-0.05
			c-2.53-0.08-3.17,1.1-3.04,3.32c0.1,1.66,0.01,3.32,0.01,4.98C559.44,539.95,559.44,549.37,559.44,559.47z"/>
		<path fill="#1A3D5C" d="M667.34,640.08c30.64,0,61.27-0.01,91.91,0c9.09,0,15.09,5.23,15.49,13.42
			c0.37,7.54-5.44,13.69-14.34,14.05c-12.14,0.5-24.3,0.39-36.45,0.39c-47.61,0-95.23-0.05-142.84-0.09c-2.66,0-5.33-0.01-7.99-0.12
			c-8.59-0.35-14.11-5.58-14.3-13.5c-0.2-8.31,4.85-13.66,14.12-13.98c10.48-0.36,20.98-0.11,31.47-0.11c20.98,0,41.96,0,62.94,0
			C667.34,640.12,667.34,640.1,667.34,640.08z"/>
		<path fill="#1A3D5C" d="M666.3,609.57c-30.8,0-61.59,0.03-92.39-0.01c-11.02-0.02-17.51-8.04-14.58-17.85
			c1.71-5.73,7.66-9.64,15.31-9.71c12.82-0.11,25.64-0.06,38.45-0.06c48.61,0,97.21,0,145.82,0.04c11.06,0.01,18.06,8.49,15.1,18.18
			c-1.88,6.17-7.1,9.41-15.33,9.42C727.89,609.58,697.1,609.57,666.3,609.57z"/>
		<path fill="#1A3D5C" d="M635.46,726.99c-20.48,0-40.95,0.03-61.43-0.02c-10.68-0.03-17.62-8.36-15.08-17.96
			c1.42-5.39,6.68-9.64,12.88-10.09c3.81-0.27,7.65-0.17,11.48-0.18c37.62-0.02,75.25,0.01,112.87-0.07
			c6.33-0.01,11.44,1.93,14.52,7.72c2.77,5.19,2.25,10.29-1.14,15c-3.09,4.28-7.6,5.62-12.67,5.61
			C676.41,726.98,655.94,726.99,635.46,726.99z"/>
		<path fill="#1A3D5C" d="M740.74,563.77c-6.82,0-13.65,0.12-20.47-0.03c-8.65-0.19-13.28-4.78-13.34-13.32
			c-0.1-13.15-0.09-26.3,0.01-39.45c0.06-7.88,4.83-12.88,12.64-13.07c13.14-0.31,26.3-0.56,39.44-0.45
			c11.91,0.11,16.06,4.6,16.06,16.48c0,11.99,0.04,23.97-0.01,35.96c-0.04,8.94-4.79,13.69-13.84,13.9
			c-3.49,0.08-6.99,0.02-10.49,0.02c-3.33,0-6.66,0-9.99,0C740.74,563.8,740.74,563.79,740.74,563.77z M724.78,519.12
			c-2.81,0.06-4.9,1.6-6.19,4.1c-1.61,3.11-1.24,6.3,1.05,8.82c4.23,4.66,8.55,9.28,13.19,13.53c4.49,4.12,7.79,3.72,11.9-0.79
			c6.26-6.87,12.49-13.76,18.68-20.69c3.57-3.99,3.56-8.58,0.1-11.97c-3.22-3.16-8.1-2.65-11.87,1.32
			c-3.77,3.97-7.74,7.79-11.14,12.06c-2.55,3.21-4.16,2.78-6.39-0.1C731.77,522.37,729.08,519.63,724.78,519.12z"/>
		<path fill="#1A3D5C" d="M730.22,778.13c-9.66,0-19.32,0.11-28.98-0.04c-7.91-0.12-13.54-5.93-13.51-13.55
			c0.03-7.28,5.28-12.7,13.13-12.81c19.65-0.28,39.31-0.39,58.96-0.34c8.46,0.02,14.15,5.72,14.22,13.51
			c0.06,7.78-5.5,13.06-14.34,13.21c-9.82,0.16-19.65,0.04-29.48,0.04C730.22,778.15,730.22,778.14,730.22,778.13z"/>
		<path fill="#1A3D5C" d="M598.07,751.67c8.15,0,16.3-0.09,24.44,0.03c9.08,0.14,14.63,5.35,14.57,13.42
			c-0.06,7.51-6.03,12.97-14.63,13.02c-16.96,0.09-33.92,0.11-50.88-0.06c-6.71-0.07-11.38-4.01-12.6-9.89
			c-1.32-6.34,1.36-12.15,6.9-15.13c2.61-1.41,5.46-1.34,8.26-1.36C582.1,751.63,590.08,751.67,598.07,751.67z"/>
		<path fill="#1A3D5C" d="M628.92,559.25c-11.05-5.36-21.05-11.15-30.87-17.23c-3.8-2.35-3.06-7.72,1.05-9.41
			c5.21-2.14,7.62-6.04,7.84-11.57c0.22-5.73-2.67-9.87-7.55-11.74c-3.6-1.38-3.5-3.72-3.96-6.4c-0.55-3.16,2.27-3.22,3.89-4.24
			c9.01-5.62,18.08-11.14,27.15-16.67c0.65-0.4,1.21-1.21,2.46-0.66c0,11.8-0.05,23.71,0.04,35.63c0.02,2.36-1.04,2.92-3.12,3.41
			c-2.14,0.5-5.15,0.98-5.61,3.4c-0.46,2.41,2.37,3.43,4.18,4.35c3.75,1.91,4.85,4.59,4.61,8.78
			C628.61,544.12,628.92,551.38,628.92,559.25z"/>
		<path fill="#1A3D5C" d="M559.44,559.47c0-10.1,0-19.52,0-28.94c0-1.66,0.09-3.33-0.01-4.98c-0.14-2.22,0.51-3.41,3.04-3.32
			c4.16,0.14,8.32-0.02,12.48,0.05c0.96,0.02,2.23,0.15,2.81,0.76c3.96,4.15,7.5,8.62,13.11,10.99c2.04,0.86,0.9,6.81-1.33,8.11
			C579.81,547.8,570.04,553.38,559.44,559.47z"/>
		<path fill="#FCFDFD" d="M724.78,519.12c4.31,0.51,6.99,3.25,9.34,6.29c2.23,2.88,3.84,3.3,6.39,0.1
			c3.4-4.27,7.37-8.09,11.14-12.06c3.77-3.97,8.65-4.48,11.87-1.32c3.45,3.39,3.46,7.98-0.1,11.97
			c-6.19,6.93-12.42,13.82-18.68,20.69c-4.11,4.51-7.41,4.91-11.9,0.79c-4.64-4.25-8.96-8.86-13.19-13.53
			c-2.29-2.52-2.66-5.71-1.05-8.82C719.88,520.72,721.96,519.18,724.78,519.12z"/>
	</g>
</g>
</svg>
