<?xml version="1.0" encoding="utf-8"?>
<!-- Generator: Adobe Illustrator 27.8.0, SVG Export Plug-In . SVG Version: 6.00 Build 0)  -->
<svg version="1.1" id="Capa_1" xmlns="http://www.w3.org/2000/svg" xmlns:xlink="http://www.w3.org/1999/xlink" x="0px" y="0px"
	 viewBox="0 0 1024 1024" enable-background="new 0 0 1024 1024" xml:space="preserve">
<g>
	<g>
		<path fill="#FFFFFF" d="M0,0c341.33,0,682.67,0,1024,0c0,341.33,0,682.67,0,1024c-341.33,0-682.67,0-1024,0C0,682.67,0,341.33,0,0
			z M602.78,721.18c-3.84,4.17-7.45,8.83-11.77,12.67c-35.05,31.18-75.05,38.16-119.03,23.3c-19.18-6.48-34.83-18.61-48.54-33.31
			c-1.84-1.97-3.1-3.89-6.45-1.41c-38.81,28.76-77.75,57.35-116.7,85.92c-2.39,1.75-5.02,3.3-7.75,4.43
			c-4.18,1.73-7.91,0.53-10.66-3c-2.66-3.41-2.86-7.26-0.16-10.6c3.94-4.9,7.8-10.05,12.58-14.05
			c19.29-16.13,38.87-31.93,58.45-47.73c14.91-12.03,30-23.83,44.94-35.82c6.91-5.55,6.79-10.75-0.13-16.28
			c-0.78-0.62-1.61-1.18-2.43-1.75c-37-25.54-73.99-51.09-111.01-76.59c-4.11-2.83-8.27-5.65-12.67-7.98
			c-6.75-3.58-12.85-0.36-12.84,6.43c0.05,70.66,0.08,141.32,0.14,211.98c0.01,13.08,5.58,18.72,18.36,18.72
			c125.16-0.02,250.32-0.05,375.48-0.07c31.16,0,62.33,0.09,93.49,0c12.35-0.03,18.64-6.26,18.61-17.77
			c-0.12-41.83-0.27-83.66-0.28-125.49c-0.01-28.5,0.19-56.99,0.3-85.49c0.03-8.35-6.17-12.11-13.76-8.25
			c-2.07,1.05-4.05,2.32-5.97,3.64c-39.73,27.47-79.47,54.93-119.15,82.46c-6.47,4.49-6.79,10.87-1.09,16.43
			c0.83,0.81,1.71,1.59,2.62,2.31c33.89,26.7,67.91,53.23,101.54,80.25c5.28,4.24,9.06,10.48,13.03,16.15
			c2.31,3.3,1.55,7.09-1.17,10.16c-2.76,3.11-6.37,3.57-10.07,2.31c-2.16-0.74-4.21-2.02-6.09-3.36
			c-17.36-12.36-34.74-24.69-51.99-37.2C649.71,755.59,626.92,738.82,602.78,721.18z M347.75,475.11c8.31,0,16.3,1.86,22.76-0.48
			c7.68-2.79,14.42-0.01,21.55-0.29c6.47-0.25,12.97,0.65,19.46,0.66c54.99,0.07,109.98,0.15,164.98,0.02
			c19.32-0.05,38.63-0.74,57.95-1.03c5.91-0.09,11.43-1.49,17.84,0.6c7.02,2.28,15.36,0.52,23.2,0.52c0.21-1.45,0.51-2.28,0.4-3.05
			c-0.6-4.31,1.71-5.63,5.48-7.14c10.79-4.32,21.28-9.38,31.86-14.22c2.3-1.06,4.46-2.43,7.87-4.32c-1.68,12.7-3.17,24.01-4.63,35
			c7.13,3.32,13.98,6.51,21.05,9.81c0.91-2.53,1.79-4.68,2.45-6.9c13.82-46.32,9.6-91.76-8.6-135.8
			c-23.76-57.48-63.54-100.58-119.75-128.01c-40.64-19.84-83.24-28.68-128.38-22.26c-45.25,6.44-85.73,24.15-120.71,53.55
			c-40.59,34.1-67.87,76.9-80.97,128.43c-8.5,33.42-8.78,66.88,0.58,100.23c0.96,3.41,2.24,6.73,3.33,9.99
			c7.72-3.22,14.57-6.08,21.62-9.02c-1.63-11.29-3.26-22.65-5.06-35.15c3.21,1.74,4.9,2.77,6.68,3.6
			c10.1,4.68,20.04,9.78,30.42,13.75C344.73,465.72,349.46,467.27,347.75,475.11z M396.41,654.81
			c-3.13-63,47.22-118.03,109.78-121.45c26.69-1.46,51.2,5.63,72.79,21.45c32.91,24.11,48.8,57.06,48.85,98.34
			c1.67-1.04,2.66-1.6,3.58-2.23c30.59-21.06,61.24-42.03,91.71-63.26c12.65-8.81,25.19-17.56,41.78-17.64
			c1.05-21.87-6.94-39.22-23.44-52.42c-15.35-12.28-33.57-16.42-52.86-16.42c-117.98-0.02-235.97-0.02-353.95,0.1
			c-6.62,0.01-13.34,0.6-19.85,1.79c-23.57,4.31-41.7,16.25-51.59,38.78c-3.91,8.91-5.55,18.29-4.01,28
			c12.42,1.22,17.91,2.69,27.97,9.51c20.95,14.2,41.63,28.81,62.45,43.22C364.94,633.15,380.3,643.7,396.41,654.81z M513.47,577.57
			c-38.01-1.11-71.38,30.42-72.49,68.5c-1.17,40.07,29.21,72.56,68.6,74.22c41.29,1.74,72.94-30.57,74.26-69.02
			C585.22,610.78,553.57,577.31,513.47,577.57z M816.31,501.51c13.96-14.33,27.47-28.31,36.2-46.02c3.74-7.59,5.43-15.56,3.62-24.17
			c-3.25-15.5-12.06-26.35-27.05-31.11c-16.36-5.2-31.08-1.48-42.55,11.63c-10.5,12-13.59,26.01-7.33,40.88
			C787.28,471.94,801.69,486.58,816.31,501.51z M197.89,339.34c-18.22,0.75-32.45,15.51-31.83,33.5
			c0.55,15.87,15.79,29.87,31.67,29.06c17.98-0.91,31.81-16.07,30.03-33.54c-0.41-4.06,0.81-6.54,3.38-9.14
			c7.14-7.21,14.18-14.53,21.22-21.85c3.08-3.2,4.57-6.96,3.26-11.4c-2.33-7.91-11.58-10.45-17.97-4.59
			c-7.23,6.63-14.09,13.66-20.97,20.66c-1.77,1.8-3.01,2.04-5.49,1.05C206.95,341.38,202.34,340.54,197.89,339.34z M866.31,706.84
			c-0.13-16.67-14.41-30.64-31.25-30.58c-16.69,0.07-30.48,14.33-30.34,31.38c0.13,16.18,14.42,30.21,30.62,30.04
			C852.42,737.51,866.44,723.55,866.31,706.84z M218.69,707.2c-0.1-16.71-14.51-31.08-30.96-30.86
			c-17.01,0.22-30.76,14.55-30.48,31.77c0.26,15.72,14.66,29.67,30.58,29.62C204.14,737.66,218.79,723.17,218.69,707.2z
			 M804.5,370.28c0-0.02,0-0.04,0-0.06c11.16,0,22.33,0.17,33.48-0.06c7.03-0.15,11.58-4.96,11.38-11.24
			c-0.2-6.19-5.11-10.75-12.01-10.78c-21.66-0.08-43.31-0.09-64.97,0c-2.25,0.01-4.7,0.49-6.71,1.48c-4.4,2.17-6.35,7.02-5.28,11.83
			c1.14,5.1,4.79,8.65,10.13,8.76C781.85,370.45,793.18,370.28,804.5,370.28z M207.94,813.09c0,0.02,0,0.04,0,0.06
			c-7.65,0-15.31-0.21-22.96,0.06c-6.76,0.24-11.14,4.81-11.19,10.98c-0.05,6.33,4.22,11.5,10.61,11.61
			c15.13,0.26,30.28,0.29,45.41-0.07c7.22-0.17,11.83-5.39,11.63-11.78c-0.2-6.27-5.32-10.76-12.54-10.84
			C221.92,813.03,214.93,813.09,207.94,813.09z M814.79,813.08c0,0.03,0,0.06,0,0.08c-7.16,0-14.33-0.17-21.48,0.05
			c-7.47,0.22-11.56,4.57-11.43,11.65c0.12,6.61,4.53,10.99,11.56,11.05c13.65,0.12,27.31,0.13,40.96,0.01
			c8.23-0.07,13.33-4.81,13.23-11.84c-0.1-6.67-5.31-10.97-13.37-10.99C827.78,813.07,821.29,813.08,814.79,813.08z M732.36,220.95
			c-11.13,0.1-19.55,8.61-19.45,19.67c0.09,10.77,8.76,19.37,19.4,19.25c10.91-0.12,19.96-9,19.93-19.55
			C752.2,229.56,743.27,220.86,732.36,220.95z M246.86,251.73c-11.33,0.06-19.95,8.43-19.92,19.33
			c0.03,10.28,8.88,18.95,19.33,18.93c11.18-0.02,20.12-8.68,19.97-19.35C266.1,260.27,257.28,251.67,246.86,251.73z M779.08,285.82
			c-11.33,0.07-19.37,7.96-19.37,19.03c0,10.71,8.44,19.19,18.96,19.05c10.92-0.15,19.67-8.75,19.52-19.2
			C798.03,294.01,789.68,285.76,779.08,285.82z M206.63,626.33c0.07,0,0.14,0,0.21,0c0-4.65,0.12-9.31-0.03-13.96
			c-0.21-6.51-4.82-11.15-10.95-11.25c-6.13-0.1-11.33,4.4-11.51,10.71c-0.27,9.63-0.3,19.28,0.08,28.9
			c0.29,7.31,4.55,11.43,10.61,11.36c6.61-0.08,11.14-4.56,11.54-11.82C206.83,635.64,206.63,630.98,206.63,626.33z M190.43,521.29
			c9.76-0.05,17.87-7.82,17.91-17.14c0.04-9.82-8-17.71-17.9-17.55c-9.79,0.16-17.49,7.97-17.34,17.59
			C173.24,513.58,181.11,521.34,190.43,521.29z M815.95,584.57c0.02,7.83,6.19,14.29,13.62,14.24c7.7-0.05,14.65-6.77,14.58-14.1
			c-0.08-7.81-6.5-14.02-14.45-13.99C821.74,570.77,815.94,576.61,815.95,584.57z M842.35,519.71c-8.2,0.08-14.12,6.18-13.91,14.32
			c0.2,7.69,6.16,13.47,13.81,13.38c7.94-0.09,14.61-6.6,14.42-14.1C856.49,525.73,850.06,519.63,842.35,519.71z M196.55,451.33
			c0.09,7.91,6.16,13.99,13.93,13.93c7.71-0.05,14.33-6.55,14.14-13.87c-0.2-7.6-6.6-13.93-14.17-14.01
			C202.67,437.3,196.46,443.53,196.55,451.33z M174.82,561.6c0.06,7.74,6.04,14.06,13.24,13.99c7.62-0.06,14.08-6.49,14.01-13.93
			c-0.07-7.77-6.23-13.83-13.99-13.76C180.27,547.99,174.75,553.68,174.82,561.6z M817.92,310.84c0.08,7.76,5.62,13.37,13.1,13.27
			c7.59-0.1,14.04-6.35,13.86-13.44c-0.18-7.3-6.18-12.9-13.71-12.8C823.09,297.99,817.84,303.12,817.92,310.84z M846.26,640.19
			c0.05-7.96-5.49-13.51-13.44-13.46c-7.82,0.05-13.21,5.4-13.22,13.14c-0.01,7.66,5.17,13.12,12.56,13.24
			C840.16,653.25,846.21,647.7,846.26,640.19z"/>
		<path d="M602.78,721.18c24.14,17.64,46.93,34.4,69.83,51.01c17.25,12.51,34.63,24.85,51.99,37.2c1.88,1.34,3.93,2.62,6.09,3.36
			c3.7,1.26,7.31,0.8,10.07-2.31c2.72-3.07,3.48-6.86,1.17-10.16c-3.97-5.67-7.75-11.91-13.03-16.15
			c-33.63-27.02-67.66-53.55-101.54-80.25c-0.91-0.72-1.79-1.5-2.62-2.31c-5.69-5.56-5.37-11.94,1.09-16.43
			c39.69-27.53,79.42-55,119.15-82.46c1.91-1.32,3.9-2.59,5.97-3.64c7.58-3.85,13.79-0.1,13.76,8.25c-0.1,28.5-0.31,56.99-0.3,85.49
			c0.01,41.83,0.16,83.66,0.28,125.49c0.03,11.51-6.25,17.74-18.61,17.77c-31.16,0.09-62.33,0-93.49,0
			c-125.16,0.02-250.32,0.04-375.48,0.07c-12.78,0-18.35-5.64-18.36-18.72c-0.06-70.66-0.09-141.32-0.14-211.98
			c0-6.79,6.09-10.01,12.84-6.43c4.4,2.33,8.56,5.15,12.67,7.98c37.02,25.5,74.01,51.05,111.01,76.59c0.82,0.57,1.65,1.13,2.43,1.75
			c6.91,5.53,7.03,10.73,0.13,16.28c-14.94,11.99-30.03,23.79-44.94,35.82c-19.57,15.8-39.15,31.59-58.45,47.73
			c-4.78,3.99-8.64,9.15-12.58,14.05c-2.69,3.34-2.5,7.19,0.16,10.6c2.76,3.53,6.49,4.74,10.66,3c2.73-1.13,5.36-2.68,7.75-4.43
			c38.95-28.57,77.88-57.16,116.7-85.92c3.35-2.48,4.61-0.57,6.45,1.41c13.71,14.7,29.36,26.83,48.54,33.31
			c43.98,14.86,83.98,7.88,119.03-23.3C595.34,730.01,598.94,725.36,602.78,721.18z"/>
		<path d="M347.75,475.11c1.71-7.84-3.02-9.39-8.61-11.52c-10.38-3.96-20.32-9.07-30.42-13.75c-1.79-0.83-3.47-1.86-6.68-3.6
			c1.8,12.5,3.43,23.86,5.06,35.15c-7.05,2.94-13.9,5.8-21.62,9.02c-1.1-3.26-2.38-6.58-3.33-9.99
			c-9.36-33.35-9.07-66.81-0.58-100.23c13.1-51.53,40.38-94.33,80.97-128.43c34.99-29.39,75.47-47.11,120.71-53.55
			c45.14-6.43,87.73,2.42,128.38,22.26c56.21,27.43,95.99,70.54,119.75,128.01c18.2,44.03,22.42,89.48,8.6,135.8
			c-0.66,2.21-1.54,4.36-2.45,6.9c-7.08-3.3-13.93-6.49-21.05-9.81c1.45-10.99,2.95-22.3,4.63-35c-3.41,1.88-5.57,3.26-7.87,4.32
			c-10.58,4.84-21.07,9.9-31.86,14.22c-3.77,1.51-6.08,2.83-5.48,7.14c0.11,0.77-0.2,1.6-0.4,3.05c-7.84,0-16.18,1.76-23.2-0.52
			c-6.42-2.08-11.93-0.69-17.84-0.6c-19.32,0.3-38.63,0.99-57.95,1.03c-54.99,0.13-109.98,0.05-164.98-0.02
			c-6.49-0.01-12.99-0.91-19.46-0.66c-7.12,0.28-13.87-2.5-21.55,0.29C364.05,476.98,356.06,475.11,347.75,475.11z M498.51,449.14
			c0-41.19,0-81.55,0-122.11c-2.18,0-4.01-0.12-5.82,0.02c-28.4,2.14-56.57,5.76-84.36,12.21c-3.79,0.88-5.95,2.78-7.61,6.22
			c-10.52,21.85-18.14,44.67-22.78,68.44c-2,10.22-3.12,20.6-4.74,31.54C415.5,451.61,456.92,447.72,498.51,449.14z M525.54,326.41
			c0,41.57,0,81.94,0,122.53c22.61,0,44.76,0.36,66.9-0.12c17.44-0.38,34.86-1.86,52.3-2.69c3.67-0.17,5.01-1.38,4.43-5.15
			c-1.52-9.86-2.34-19.85-4.26-29.62c-4.48-22.78-11.49-44.79-21.66-65.73c-1.62-3.34-3.47-5.42-7.54-6.11
			c-16.88-2.84-33.62-6.56-50.53-9.13C552.21,328.43,539.07,327.72,525.54,326.41z M418.81,309.75c1.5-0.11,2.16-0.1,2.79-0.22
			c23.69-4.61,47.56-7.87,71.71-8.46c4.77-0.12,5.7-1.74,5.65-6.1c-0.22-21.14-0.13-42.27-0.16-63.41c0-2.07,0-4.15,0-7.3
			C464.93,246.76,439.49,275.53,418.81,309.75z M525.41,299.58c26.65,3.07,52.54,6.06,78.51,9.05
			c-20.11-33.02-45.65-61.21-78.51-83.54C525.41,250.89,525.41,275.49,525.41,299.58z M370.06,350.77
			c-21.15,6.27-40.26,15.11-59.08,24.63c-1.01,0.51-2.05,1.81-2.26,2.9c-2.01,10.43-3.97,20.87-5.6,31.37
			c-0.24,1.54,0.85,3.98,2.13,4.97c12.8,9.97,27.1,17.2,43.09,23.05C350.9,407.53,358.81,379.15,370.06,350.77z M676.06,437.42
			c15.51-4.82,29.45-12.79,42.24-22.8c1.19-0.93,1.8-3.56,1.54-5.22c-1.56-10.02-3.32-20.02-5.38-29.95
			c-0.36-1.73-2.12-3.78-3.77-4.54c-14.5-6.69-29.08-13.2-43.72-19.57c-4.01-1.74-8.3-2.83-12.69-4.29
			c4.55,14.54,9.53,28.3,13.08,42.42C670.97,407.79,673.16,422.46,676.06,437.42z M325.16,337.94
			c18.74-6.25,37.04-12.24,55.23-18.54c2.36-0.82,4.96-2.78,6.11-4.93c13.83-25.78,29.9-49.96,49.65-71.62
			c1.67-1.84,3.28-3.73,4.92-5.6C389.8,256.52,352.42,291.38,325.16,337.94z M697.7,337.98c-26.94-46.73-64.89-80.18-114.29-100.72
			c4.58,6.13,9.62,11.8,14.46,17.65c15.46,18.67,28.18,39.16,39.89,60.33c0.81,1.46,2.11,3.17,3.57,3.67
			C659.82,325.3,678.4,331.49,697.7,337.98z"/>
		<path d="M396.41,654.81c-16.11-11.11-31.46-21.65-46.78-32.25c-20.82-14.41-41.5-29.02-62.45-43.22
			c-10.06-6.82-15.55-8.29-27.97-9.51c-1.54-9.7,0.1-19.08,4.01-28c9.89-22.53,28.01-34.46,51.59-38.78
			c6.51-1.19,13.23-1.78,19.85-1.79c117.98-0.12,235.97-0.12,353.95-0.1c19.29,0,37.51,4.14,52.86,16.42
			c16.5,13.2,24.49,30.55,23.44,52.42c-16.59,0.08-29.13,8.83-41.78,17.64c-30.47,21.23-61.13,42.19-91.71,63.26
			c-0.93,0.64-1.91,1.19-3.58,2.23c-0.05-41.29-15.94-74.24-48.85-98.34c-21.59-15.82-46.1-22.91-72.79-21.45
			C443.63,536.78,393.28,591.81,396.41,654.81z"/>
		<path d="M513.47,577.57c40.1-0.26,71.75,33.2,70.37,73.69c-1.31,38.45-32.96,70.76-74.26,69.02c-39.4-1.66-69.77-34.15-68.6-74.22
			C442.09,607.99,475.46,576.46,513.47,577.57z M539.32,675.6c-0.49-0.35-0.98-0.7-1.47-1.05c4.28-22.07,8.56-44.15,12.88-66.37
			c-6.34,0-12.44,0-18.69,0c-0.58,2.4-1.1,4.57-1.85,7.69c-5.42-7.26-12.18-9.56-20.14-9c-9.46,0.67-17.25,4.71-23.57,11.59
			c-12.77,13.89-17.17,30.67-15.2,48.94c1.15,10.64,5.82,20.04,17.08,23.73c11,3.61,20.22-0.22,28.17-7.98
			c0.64-0.63,1.32-1.23,2.05-1.9c5.11,9.71,12.09,13.24,21.39,10.29c9.66-3.07,16.58-10.04,23.23-17.24
			c-2.22-3.74-4.2-7.07-5.97-10.04C550.95,668.25,545.14,671.92,539.32,675.6z"/>
		<path d="M816.31,501.51c-14.62-14.93-29.02-29.56-37.11-48.8c-6.25-14.87-3.17-28.88,7.33-40.88
			c11.47-13.11,26.19-16.83,42.55-11.63c14.99,4.77,23.8,15.61,27.05,31.11c1.81,8.61,0.12,16.59-3.62,24.17
			C843.78,473.2,830.27,487.18,816.31,501.51z M797.71,439.32c-0.1,10.33,8.62,19.52,18.62,19.63c10.14,0.11,18.95-8.84,18.97-19.27
			c0.02-10.45-8.71-19.59-18.71-19.58C806.15,420.13,797.82,428.6,797.71,439.32z"/>
		<path d="M197.89,339.34c4.45,1.2,9.05,2.04,13.3,3.75c2.47,1,3.71,0.76,5.49-1.05c6.88-7,13.74-14.04,20.97-20.66
			c6.39-5.86,15.64-3.32,17.97,4.59c1.31,4.44-0.18,8.2-3.26,11.4c-7.04,7.31-14.07,14.63-21.22,21.85c-2.58,2.6-3.8,5.08-3.38,9.14
			c1.78,17.47-12.05,32.63-30.03,33.54c-15.87,0.8-31.12-13.19-31.67-29.06C165.45,354.84,179.68,340.09,197.89,339.34z
			 M196.89,381.93c5.94-0.01,10.99-4.98,10.91-10.73c-0.08-5.91-5.08-11.12-10.66-11.1c-5.83,0.02-11.03,5.12-10.96,10.77
			C186.25,376.73,191.3,381.94,196.89,381.93z"/>
		<path d="M866.31,706.84c0.13,16.7-13.89,30.66-30.97,30.84c-16.2,0.17-30.49-13.86-30.62-30.04
			c-0.14-17.05,13.65-31.31,30.34-31.38C851.9,676.2,866.18,690.17,866.31,706.84z M824.92,706.86c-0.05,5.83,4.9,10.89,10.66,10.9
			c5.79,0.01,10.51-4.62,10.55-10.36c0.05-6.26-4.81-11.25-10.9-11.19C829.64,696.27,824.97,701.09,824.92,706.86z"/>
		<path d="M218.69,707.2c0.1,15.97-14.55,30.46-30.85,30.52c-15.92,0.06-30.32-13.89-30.58-29.62
			c-0.28-17.22,13.47-31.55,30.48-31.77C204.18,676.12,218.58,690.48,218.69,707.2z M198.36,707.08
			c0.01-5.97-4.93-10.98-10.69-10.84c-5.61,0.14-10.58,5.12-10.56,10.59c0.01,5.48,5.51,10.94,10.95,10.87
			C193.9,717.62,198.35,713.03,198.36,707.08z"/>
		<path d="M804.5,370.28c-11.33,0-22.66,0.17-33.98-0.07c-5.34-0.11-9-3.66-10.13-8.76c-1.07-4.81,0.88-9.66,5.28-11.83
			c2-0.99,4.45-1.47,6.71-1.48c21.66-0.09,43.31-0.08,64.97,0c6.9,0.03,11.81,4.59,12.01,10.78c0.21,6.29-4.35,11.09-11.38,11.24
			c-11.16,0.24-22.32,0.06-33.48,0.06C804.5,370.24,804.5,370.26,804.5,370.28z"/>
		<path d="M207.94,813.09c6.99,0,13.98-0.06,20.96,0.02c7.22,0.08,12.34,4.57,12.54,10.84c0.2,6.38-4.41,11.61-11.63,11.78
			c-15.13,0.36-30.28,0.33-45.41,0.07c-6.39-0.11-10.66-5.28-10.61-11.61c0.05-6.17,4.43-10.74,11.19-10.98
			c7.64-0.27,15.3-0.06,22.96-0.06C207.94,813.13,207.94,813.11,207.94,813.09z"/>
		<path d="M814.79,813.08c6.49,0,12.99-0.02,19.48,0c8.05,0.02,13.27,4.33,13.37,10.99c0.1,7.03-5,11.77-13.23,11.84
			c-13.65,0.12-27.31,0.1-40.96-0.01c-7.03-0.06-11.44-4.44-11.56-11.05c-0.13-7.07,3.96-11.42,11.43-11.65
			c7.15-0.21,14.32-0.05,21.48-0.05C814.79,813.14,814.79,813.11,814.79,813.08z"/>
		<path d="M732.36,220.95c10.91-0.09,19.84,8.61,19.88,19.37c0.03,10.54-9.02,19.42-19.93,19.55c-10.64,0.12-19.31-8.48-19.4-19.25
			C712.82,229.56,721.23,221.05,732.36,220.95z"/>
		<path d="M246.86,251.73c10.43-0.06,19.25,8.55,19.39,18.92c0.15,10.67-8.79,19.32-19.97,19.35c-10.45,0.02-19.3-8.65-19.33-18.93
			C226.91,260.16,235.53,251.79,246.86,251.73z"/>
		<path d="M779.08,285.82c10.61-0.06,18.95,8.19,19.11,18.88c0.15,10.44-8.6,19.05-19.52,19.2c-10.51,0.14-18.95-8.34-18.96-19.05
			C759.7,293.79,767.74,285.89,779.08,285.82z"/>
		<path d="M206.63,626.33c0,4.65,0.2,9.32-0.05,13.95c-0.39,7.26-4.93,11.74-11.54,11.82c-6.06,0.07-10.32-4.05-10.61-11.36
			c-0.38-9.62-0.35-19.27-0.08-28.9c0.18-6.32,5.38-10.81,11.51-10.71c6.12,0.1,10.74,4.74,10.95,11.25
			c0.15,4.65,0.03,9.3,0.03,13.96C206.76,626.33,206.69,626.33,206.63,626.33z"/>
		<path d="M190.43,521.29c-9.32,0.05-17.18-7.71-17.33-17.1c-0.15-9.62,7.56-17.43,17.34-17.59c9.9-0.16,17.94,7.72,17.9,17.55
			C208.3,513.47,200.18,521.24,190.43,521.29z"/>
		<path d="M815.95,584.57c-0.02-7.96,5.79-13.81,13.75-13.85c7.95-0.04,14.38,6.18,14.45,13.99c0.07,7.33-6.88,14.05-14.58,14.1
			C822.15,598.86,815.97,592.4,815.95,584.57z"/>
		<path d="M842.35,519.71c7.71-0.08,14.13,6.03,14.32,13.6c0.18,7.5-6.48,14.02-14.42,14.1c-7.65,0.08-13.61-5.7-13.81-13.38
			C828.23,525.89,834.16,519.79,842.35,519.71z"/>
		<path d="M196.55,451.33c-0.09-7.79,6.12-14.03,13.89-13.95c7.56,0.08,13.97,6.41,14.17,14.01c0.19,7.32-6.43,13.82-14.14,13.87
			C202.72,465.31,196.65,459.24,196.55,451.33z"/>
		<path d="M174.82,561.6c-0.07-7.92,5.45-13.61,13.26-13.69c7.76-0.08,13.92,5.98,13.99,13.76c0.07,7.44-6.4,13.86-14.01,13.93
			C180.85,575.65,174.88,569.34,174.82,561.6z"/>
		<path d="M817.92,310.84c-0.08-7.72,5.17-12.86,13.25-12.97c7.53-0.1,13.53,5.5,13.71,12.8c0.18,7.09-6.27,13.34-13.86,13.44
			C823.54,324.21,817.99,318.6,817.92,310.84z"/>
		<path d="M846.26,640.19c-0.05,7.51-6.1,13.06-14.1,12.92c-7.39-0.12-12.57-5.58-12.56-13.24c0.01-7.74,5.4-13.09,13.22-13.14
			C840.77,626.69,846.31,632.24,846.26,640.19z"/>
		<path fill="#FFFFFF" d="M498.51,449.14c-41.59-1.42-83.01,2.47-125.3-3.68c1.61-10.94,2.74-21.32,4.74-31.54
			c4.65-23.77,12.26-46.59,22.78-68.44c1.66-3.44,3.82-5.34,7.61-6.22c27.78-6.45,55.96-10.06,84.36-12.21
			c1.81-0.14,3.64-0.02,5.82-0.02C498.51,367.58,498.51,407.95,498.51,449.14z"/>
		<path fill="#FFFFFF" d="M525.54,326.41c13.53,1.31,26.68,2.02,39.63,3.99c16.92,2.56,33.65,6.29,50.53,9.13
			c4.07,0.69,5.92,2.77,7.54,6.11c10.17,20.95,17.18,42.95,21.66,65.73c1.92,9.77,2.73,19.76,4.26,29.62
			c0.58,3.78-0.76,4.98-4.43,5.15c-17.44,0.83-34.86,2.31-52.3,2.69c-22.13,0.48-44.29,0.12-66.9,0.12
			C525.54,408.35,525.54,367.98,525.54,326.41z"/>
		<path fill="#FFFFFF" d="M418.81,309.75c20.68-34.22,46.12-62.99,80-85.49c0,3.16,0,5.23,0,7.3c0.02,21.14-0.07,42.28,0.16,63.41
			c0.05,4.35-0.88,5.98-5.65,6.1c-24.15,0.59-48.02,3.85-71.71,8.46C420.97,309.65,420.31,309.63,418.81,309.75z"/>
		<path fill="#FFFFFF" d="M525.41,299.58c0-24.09,0-48.69,0-74.48c32.86,22.33,58.4,50.52,78.51,83.54
			C577.95,305.64,552.05,302.66,525.41,299.58z"/>
		<path fill="#FFFFFF" d="M370.06,350.77c-11.25,28.38-19.16,56.76-21.71,86.92c-15.99-5.85-30.29-13.08-43.09-23.05
			c-1.28-0.99-2.37-3.43-2.13-4.97c1.63-10.49,3.59-20.94,5.6-31.37c0.21-1.09,1.25-2.4,2.26-2.9
			C329.8,365.89,348.91,357.04,370.06,350.77z"/>
		<path fill="#FFFFFF" d="M676.06,437.42c-2.9-14.96-5.09-29.63-8.69-43.95c-3.55-14.12-8.54-27.88-13.08-42.42
			c4.39,1.46,8.69,2.55,12.69,4.29c14.64,6.37,29.22,12.88,43.72,19.57c1.64,0.76,3.41,2.81,3.77,4.54
			c2.06,9.93,3.81,19.93,5.38,29.95c0.26,1.66-0.35,4.29-1.54,5.22C705.51,424.63,691.57,432.61,676.06,437.42z"/>
		<path fill="#FFFFFF" d="M325.16,337.94c27.26-46.56,64.64-81.43,115.91-100.69c-1.64,1.87-3.24,3.76-4.92,5.6
			c-19.75,21.66-35.82,45.84-49.65,71.62c-1.15,2.15-3.76,4.11-6.11,4.93C362.2,325.7,343.9,331.7,325.16,337.94z"/>
		<path fill="#FFFFFF" d="M697.7,337.98c-19.3-6.49-37.87-12.69-56.37-19.08c-1.45-0.5-2.76-2.21-3.57-3.67
			c-11.71-21.16-24.43-41.65-39.89-60.33c-4.84-5.84-9.88-11.52-14.46-17.65C632.81,257.8,670.76,291.25,697.7,337.98z"/>
		<path fill="#FFFFFF" d="M539.32,675.6c5.81-3.68,11.63-7.36,17.91-11.33c1.76,2.97,3.75,6.3,5.97,10.04
			c-6.65,7.19-13.57,14.17-23.23,17.24c-9.3,2.95-16.28-0.58-21.39-10.29c-0.73,0.67-1.4,1.27-2.05,1.9
			c-7.95,7.76-17.17,11.59-28.17,7.98c-11.26-3.69-15.93-13.09-17.08-23.73c-1.97-18.27,2.43-35.05,15.2-48.94
			c6.33-6.88,14.12-10.92,23.57-11.59c7.96-0.56,14.72,1.73,20.14,9c0.75-3.12,1.27-5.29,1.85-7.69c6.25,0,12.34,0,18.69,0
			c-4.31,22.23-8.59,44.3-12.88,66.37C538.34,674.91,538.83,675.25,539.32,675.6z M525.78,634.29c-0.54-5.05-3.23-8.01-7.24-9.92
			c-5.48-2.62-12.72-1.38-16.81,3.75c-9.44,11.86-12.25,25.65-9.43,40.36c1.23,6.41,6.81,8.88,13.13,6.82
			c6.19-2.02,11.14-5.93,13.03-12.13C521.36,653.68,523.39,643.93,525.78,634.29z"/>
		<path fill="#FFFFFF" d="M797.71,439.32c0.11-10.72,8.43-19.2,18.88-19.22c10-0.02,18.73,9.12,18.71,19.58
			c-0.02,10.43-8.83,19.37-18.97,19.27C806.33,458.85,797.61,449.65,797.71,439.32z M816.89,447.16c3.92-0.1,7.48-3.89,7.37-7.85
			c-0.11-4.17-3.95-7.49-8.39-7.27c-4.23,0.22-7.02,3.17-6.98,7.4C808.94,443.71,812.63,447.27,816.89,447.16z"/>
		<path fill="#FFFFFF" d="M196.89,381.93c-5.59,0.01-10.64-5.21-10.72-11.06c-0.07-5.64,5.13-10.75,10.96-10.77
			c5.58-0.01,10.58,5.19,10.66,11.1C207.88,376.95,202.83,381.92,196.89,381.93z"/>
		<path fill="#FFFFFF" d="M824.92,706.86c0.05-5.77,4.72-10.59,10.32-10.65c6.09-0.06,10.94,4.92,10.9,11.19
			c-0.04,5.74-4.76,10.37-10.55,10.36C829.82,717.75,824.87,712.69,824.92,706.86z"/>
		<path fill="#FFFFFF" d="M198.36,707.08c-0.01,5.96-4.45,10.54-10.3,10.62c-5.44,0.07-10.94-5.39-10.95-10.87
			c-0.01-5.47,4.96-10.45,10.56-10.59C193.43,696.1,198.36,701.1,198.36,707.08z"/>
		<path d="M525.78,634.29c-2.4,9.64-4.43,19.39-7.32,28.88c-1.89,6.2-6.83,10.11-13.03,12.13c-6.32,2.06-11.9-0.41-13.13-6.82
			c-2.81-14.71,0-28.5,9.43-40.36c4.09-5.14,11.33-6.37,16.81-3.75C522.55,626.28,525.25,629.24,525.78,634.29z"/>
		<path d="M816.89,447.16c-4.25,0.11-7.95-3.45-8-7.71c-0.05-4.23,2.74-7.19,6.98-7.4c4.44-0.23,8.28,3.1,8.39,7.27
			C824.37,443.27,820.81,447.05,816.89,447.16z"/>
	</g>
</g>
</svg>
