<?xml version="1.0" encoding="utf-8"?>
<!-- Generator: Adobe Illustrator 27.8.0, SVG Export Plug-In . SVG Version: 6.00 Build 0)  -->
<svg version="1.1" id="Capa_1" xmlns="http://www.w3.org/2000/svg" xmlns:xlink="http://www.w3.org/1999/xlink" x="0px" y="0px"
	 viewBox="0 0 768 768" enable-background="new 0 0 768 768" xml:space="preserve">
<g>
	<g>
		<path fill="#FFFFFF" d="M768,768c-256,0-512,0-768,0C0,512,0,256,0,0c256,0,512,0,768,0C768,256,768,512,768,768z M523.65,541.18
			c1.6,0,2.94,0,4.28,0c14.49-0.03,28.97-0.02,43.46-0.1c11.08-0.06,18.4-7.2,18.45-18.24c0.12-24.1,0.13-48.2,0.07-72.3
			c-0.03-11-7.26-18.45-18.25-18.48c-38.59-0.1-77.17-0.1-115.76,0.03c-12.37,0.04-19.08,7.11-19.09,19.49
			c-0.03,23.35-0.02,46.7-0.05,70.06c-0.02,11.96,7.29,19.48,19.22,19.53c12.36,0.05,24.72-0.03,37.09-0.05c3.22-0.01,6.43,0,9.76,0
			c0,20.54,0,40.67,0,60.92c-31.21,0-62.09,0-93.26,0c0-1.68,0-3.04,0-4.39c-0.02-63.31-0.04-126.62-0.07-189.94
			c-0.02-35.09-0.24-70.18,0.04-105.27c0.1-11.97-5.11-16.97-16.3-16.37c-9.22,0.5-18.48,0.14-27.72,0.14
			c-1.08,0-2.16-0.14-3.62-0.25c0-2.58,0.06-4.93-0.01-7.27c-0.22-7.53-4.23-11.37-11.84-11.38c-14.47-0.01-28.95,0-43.77,0
			c0-6.21,0-12.26,0-18.75c1.57,0,3.03,0.01,4.49,0c7.87-0.08,15.74,0.03,23.59-0.28c11.47-0.45,17.74-7.04,17.86-18.65
			c0.13-12.49,0.1-24.98,0.03-37.46c-0.07-11.81-7.04-18.74-18.95-18.87c-6.99-0.07-13.99,0.03-20.98,0.05
			c-19.11,0.06-38.21-0.04-57.31,0.24c-10.24,0.15-16.7,6.99-16.77,17.17c-0.09,13.36-0.12,26.72-0.01,40.09
			c0.08,10.2,6.41,16.94,16.61,17.53c6.1,0.35,12.23,0.17,18.35,0.2c4.21,0.02,8.41,0,12.65,0c0,6.54,0,12.56,0,18.86
			c-2.06,0-3.8,0-5.53,0c-12.11,0-24.23-0.01-36.34,0.01c-8.86,0.01-11.8,3.02-11.79,11.98c0,2.18,0,4.37,0,6.45
			c-1,0.17-1.37,0.28-1.74,0.28c-9.99,0.02-19.98,0.04-29.97,0.04c-11.35,0-15.41,3.99-15.41,15.25c0,98.9,0.01,197.81,0.01,296.71
			c0,1.31-0.11,2.63-0.18,4.18c-2.41,0-4.39,0-6.38,0c-9.62,0.01-19.23-0.07-28.85,0.05c-5.63,0.07-9.88,3.19-11.12,7.75
			c-2.09,7.7,3.23,14.32,11.65,14.35c14.11,0.05,28.22,0.02,42.33,0.02c132.87,0.02,265.74,0.04,398.61,0.04
			c3.62,0,7.26-0.01,10.85-0.37c4.52-0.45,7.52-3.14,9.09-7.35c1.5-4.02,0.48-7.67-2.22-10.8c-2.54-2.93-5.98-3.75-9.79-3.74
			c-23.48,0.05-46.95,0.03-70.43,0.03c-1.58,0-3.16,0-4.95,0C523.65,581.72,523.65,561.67,523.65,541.18z M421.45,273.09
			c0.17,36.22,27.12,63.25,62.86,63.04c34.72-0.2,62.4-28.23,62.16-62.95c-0.24-34.62-27.9-62.05-62.04-62.23
			C446.52,210.74,420.76,241.27,421.45,273.09z M221.08,210.66c-0.06-8.94-7.15-16.17-15.78-16.12
			c-9.57,0.06-16.52,6.84-16.53,16.11c-0.01,8.83,7.55,16.45,16.16,16.31C213.85,226.81,221.14,219.46,221.08,210.66z
			 M560.32,387.05c-0.04,8.74,7.15,16.18,15.67,16.2c8.88,0.03,16.43-7.19,16.58-15.85c0.16-8.78-7.23-16.31-16.02-16.33
			C567.4,371.06,560.37,377.98,560.32,387.05z M387.35,211.3c-5.02,0.06-8.92,2.86-10.41,6.79c-1.65,4.37-1,9.07,2.55,11.57
			c6.81,4.79,13.79,9.38,21.07,13.38c2.05,1.12,5.8,0.68,8.08-0.44c8.03-3.94,8.66-13.75,1.23-18.78
			c-5.96-4.04-12.28-7.56-18.53-11.17C389.89,211.81,388.1,211.55,387.35,211.3z M582.96,280.32c0-0.01,0-0.03,0-0.04
			c3.86,0,7.72,0.11,11.57-0.03c5.66-0.2,9.62-4.47,9.67-10.23c0.05-6.02-3.89-10.72-9.51-10.83c-7.71-0.15-15.44-0.12-23.15,0.1
			c-5.9,0.17-9.53,4.51-9.47,10.74c0.06,5.72,4.04,10.03,9.69,10.25C575.49,280.44,579.23,280.32,582.96,280.32z M550.68,320.39
			c0.04,3.81,1.49,6.59,4.92,8.68c5.86,3.57,11.76,7.08,17.73,10.46c5.49,3.12,11.46,1.57,14.64-3.61
			c3.06-4.98,1.82-10.88-3.5-14.35c-5.95-3.88-12.03-7.59-18.28-10.96C558.66,306.56,550.58,311.8,550.68,320.39z M559.36,232.34
			c0.7-0.19,2.01-0.17,2.81-0.8c7.22-5.68,14.67-11.13,21.37-17.38c3.51-3.28,2.53-8.91-0.82-12.58c-3.53-3.87-9.24-5.27-13.19-2.33
			c-6.48,4.83-12.71,10.04-18.68,15.49c-3.23,2.95-3.48,7.09-1.65,11.09C551.09,229.95,554.46,232,559.36,232.34z M513.78,198.64
			c4.83,0,8.27-2.26,9.92-7.03c2.23-6.47,4.37-12.98,6.13-19.58c0.52-1.95,0.14-4.52-0.73-6.39c-2.03-4.36-5.82-6.35-10.65-6.07
			c-4.63,0.27-7.65,2.75-9.05,7.12c-2.01,6.29-4.04,12.57-5.85,18.91C501.58,192.46,506.52,198.64,513.78,198.64z M538.26,375.82
			c-2.65-7.43-5.26-16.43-10.48-24.2c-2.49-3.71-8.05-4.04-12.31-1.87c-4.12,2.1-6.97,6.53-5.66,10.33
			c2.63,7.64,5.58,15.19,8.89,22.55c1.8,4,6.66,5.47,10.95,4.24C534.88,385.37,538.16,381.71,538.26,375.82z M442.03,161.78
			c-7.28-0.03-12.76,5.89-10.38,12.39c2.65,7.23,5.88,14.3,9.43,21.14c2.57,4.95,7.81,5.89,13.37,3.29c5.06-2.36,7.17-6.74,5.19-12
			c-2.41-6.4-5.09-12.72-8-18.92C449.91,163.99,446.84,161.66,442.03,161.78z M450.94,389.54c4.48,0.06,7.82-1.98,9.47-6.53
			c2.46-6.79,4.64-13.69,6.72-20.61c0.43-1.43,0.22-3.25-0.23-4.72c-1.36-4.44-5.14-7.12-9.81-7.31c-4.67-0.18-8.14,1.8-9.88,6.46
			c-2.36,6.3-4.36,12.73-6.38,19.15C438.64,382.94,443.55,389.44,450.94,389.54z"/>
		<path d="M523.65,541.18c0,20.49,0,40.54,0,61.14c1.78,0,3.37,0,4.95,0c23.48,0,46.95,0.03,70.43-0.03
			c3.81-0.01,7.25,0.81,9.79,3.74c2.7,3.12,3.72,6.78,2.22,10.8c-1.57,4.21-4.57,6.89-9.09,7.35c-3.59,0.36-7.23,0.37-10.85,0.37
			c-132.87,0-265.74-0.02-398.61-0.04c-14.11,0-28.22,0.04-42.33-0.02c-8.42-0.03-13.74-6.65-11.65-14.35
			c1.24-4.56,5.49-7.68,11.12-7.75c9.61-0.12,19.23-0.04,28.85-0.05c1.98,0,3.97,0,6.38,0c0.07-1.56,0.18-2.87,0.18-4.18
			c0-98.9-0.01-197.81-0.01-296.71c0-11.26,4.06-15.25,15.41-15.25c9.99,0,19.98-0.02,29.97-0.04c0.37,0,0.73-0.12,1.74-0.28
			c0-2.09,0-4.27,0-6.45c-0.01-8.96,2.93-11.97,11.79-11.98c12.11-0.02,24.23-0.01,36.34-0.01c1.74,0,3.47,0,5.53,0
			c0-6.31,0-12.32,0-18.86c-4.23,0-8.44,0.02-12.65,0c-6.12-0.03-12.25,0.15-18.35-0.2c-10.19-0.59-16.52-7.33-16.61-17.53
			c-0.11-13.36-0.08-26.72,0.01-40.09c0.07-10.17,6.53-17.02,16.77-17.17c19.1-0.28,38.21-0.18,57.31-0.24
			c6.99-0.02,13.99-0.12,20.98-0.05c11.91,0.13,18.89,7.06,18.95,18.87c0.07,12.49,0.1,24.98-0.03,37.46
			c-0.12,11.61-6.39,18.19-17.86,18.65c-7.86,0.31-15.73,0.21-23.59,0.28c-1.46,0.01-2.92,0-4.49,0c0,6.49,0,12.55,0,18.75
			c14.83,0,29.3,0,43.77,0c7.6,0,11.62,3.85,11.84,11.38c0.07,2.34,0.01,4.69,0.01,7.27c1.45,0.1,2.54,0.25,3.62,0.25
			c9.24,0,18.5,0.36,27.72-0.14c11.19-0.6,16.4,4.39,16.3,16.37c-0.28,35.09-0.05,70.18-0.04,105.27
			c0.03,63.31,0.05,126.62,0.07,189.94c0,1.36,0,2.72,0,4.39c31.17,0,62.04,0,93.26,0c0-20.25,0-40.38,0-60.92
			c-3.32,0-6.54,0-9.76,0c-12.36,0.02-24.73,0.1-37.09,0.05c-11.93-0.05-19.24-7.57-19.22-19.53c0.03-23.35,0.02-46.7,0.05-70.06
			c0.02-12.38,6.73-19.45,19.09-19.49c38.59-0.12,77.17-0.13,115.76-0.03c10.99,0.03,18.23,7.48,18.25,18.48
			c0.06,24.1,0.04,48.2-0.07,72.3c-0.05,11.04-7.37,18.18-18.45,18.24c-14.49,0.08-28.97,0.07-43.46,0.1
			C526.59,541.18,525.25,541.18,523.65,541.18z M350.84,602.1c0-27.36,0-54.23,0-81.07c-36.07,0-71.7,0-107.56,0
			c0,27.15,0,54.05,0,81.07C279.35,602.1,315.09,602.1,350.84,602.1z M342.81,392.65c0-0.02,0-0.03,0-0.05
			c8.36,0,16.72,0.05,25.08-0.02c4.86-0.04,7.52-2.76,7.48-7.37c-0.04-4.65-2.71-7.45-7.49-7.46c-16.47-0.03-32.95,0-49.42,0.09
			c-5.23,0.03-7.58,2.37-7.55,7.12c0.04,5.07,2.73,7.69,7.94,7.69C326.84,392.66,334.83,392.65,342.81,392.65z M251.41,392.65
			c0-0.03,0-0.05,0-0.08c8.47,0,16.95,0.11,25.42-0.04c4.36-0.08,6.72-2.92,6.63-7.36c-0.08-4.42-2.53-7.36-6.69-7.38
			c-16.7-0.07-33.4-0.06-50.09,0.1c-5.05,0.05-7.33,2.73-7.15,7.51c0.18,4.71,2.78,7.23,7.58,7.25
			C235.21,392.67,243.31,392.65,251.41,392.65z M343.07,431.35c0-0.09,0-0.18,0-0.28c8.49,0,16.97,0,25.46,0
			c3.43,0,5.83-1.58,6.62-4.91c0.79-3.3-0.04-6.33-3.13-8.11c-1.43-0.83-3.26-1.35-4.91-1.36c-16.1-0.09-32.2-0.07-48.3-0.02
			c-5.19,0.02-8.03,2.7-7.95,7.29c0.08,5,2.77,7.39,8.25,7.38C327.1,431.34,335.09,431.35,343.07,431.35z M251.87,431.4
			c0-0.09,0-0.18,0-0.27c7.6,0,15.2,0.01,22.8,0c6.29-0.01,8.6-1.8,8.66-6.66c0.07-5.23-2.91-7.81-9.04-7.82
			c-4.98,0-9.97,0.02-14.95,0.02c-10.59,0.01-21.18-0.03-31.77,0.04c-4.69,0.03-7.37,2.04-7.99,5.69c-0.92,5.35,2.01,8.91,7.62,8.98
			C235.42,431.47,243.64,431.4,251.87,431.4z M342.8,468.57c0,0.07,0,0.14,0,0.21c-8.22,0-16.45-0.08-24.67,0.03
			c-4.88,0.07-7.14,2.27-7.23,6.54c-0.1,4.82,2.62,8.13,7.26,8.14c16.82,0.05,33.64,0.02,50.46-0.28c1.89-0.03,4.36-1.48,5.5-3.04
			c3.6-4.98,0.04-11.44-6.27-11.57C359.5,468.45,351.15,468.57,342.8,468.57z M251.15,468.62c0,0.09,0,0.18,0,0.27
			c-8.48,0-16.96-0.08-25.45,0.04c-3.81,0.05-5.89,2.28-6.19,6.03c-0.42,5.21,2.53,8.52,7.91,8.54c15.97,0.06,31.94,0.04,47.91,0
			c5.24-0.01,8-2.54,8.09-7.19c0.09-4.88-2.59-7.59-7.94-7.66C267.37,468.55,259.26,468.62,251.15,468.62z M343.17,351.94
			c0,0.05,0,0.09,0,0.14c-8.59,0-17.19-0.07-25.78,0.03c-4.2,0.05-6.39,2.41-6.48,6.54c-0.11,4.82,2.15,7.88,6.45,7.9
			c17.31,0.08,34.63-0.01,51.94-0.06c3.25-0.01,5-1.98,5.79-4.88c1.47-5.4-1.89-9.65-7.62-9.67
			C359.36,351.92,351.26,351.94,343.17,351.94z M343.35,340.57c0-0.07,0-0.14,0-0.21c8.37,0,16.73,0.08,25.1-0.03
			c4.37-0.06,6.82-2.6,6.91-6.68c0.1-4.41-2.6-7.69-6.88-7.71c-16.98-0.08-33.96-0.04-50.94,0.08c-4.32,0.03-6.82,3.01-6.66,7.33
			c0.16,4.56,2.89,7.18,7.76,7.21C326.87,340.61,335.11,340.57,343.35,340.57z M343.08,457.17c0,0.01,0,0.02,0,0.03
			c8.35,0,16.7-0.06,25.05,0.03c3.25,0.04,5.58-1.16,6.8-4.17c2.12-5.24-1.54-10.35-7.48-10.36c-16.33-0.02-32.65,0-48.98,0.04
			c-4.99,0.01-7.52,2.48-7.54,7.17c-0.02,4.82,2.64,7.26,7.85,7.26C326.88,457.17,334.98,457.17,343.08,457.17z M251.03,351.99
			c0,0.03,0,0.06,0,0.1c-8.35,0-16.71-0.05-25.06,0.02c-3.79,0.04-6.08,2.22-6.46,5.81c-0.59,5.52,2.2,8.72,7.93,8.73
			c16.21,0.02,32.42-0.03,48.63-0.13c5.01-0.03,7.43-2.58,7.34-7.34c-0.09-4.54-2.8-7.14-7.69-7.17
			C267.49,351.95,259.26,351.99,251.03,351.99z M251.53,457.26c0-0.04,0-0.08,0-0.12c8.23,0,16.46,0.03,24.69-0.01
			c4.81-0.03,7.03-2.16,7.12-6.67c0.09-4.49-2.52-7.63-6.82-7.65c-16.83-0.08-33.67-0.11-50.5,0.1c-1.78,0.02-4.55,1.41-5.09,2.84
			c-0.93,2.43-1.01,5.52-0.42,8.11c0.66,2.94,3.53,3.44,6.34,3.42C235.07,457.23,243.3,457.26,251.53,457.26z M251.37,325.86
			c0,0.02,0,0.04,0,0.06c-7.98,0-15.97-0.05-23.95,0.02c-5.48,0.04-7.97,2.36-7.93,7.19c0.03,4.64,2.76,7.25,7.94,7.37
			c4.24,0.1,8.48-0.01,12.72-0.01c11.85-0.01,23.7,0.02,35.55-0.04c5.03-0.02,7.31-1.95,7.69-6.21c0.44-4.95-2.57-8.31-7.69-8.35
			C267.59,325.81,259.48,325.86,251.37,325.86z M553.69,494.54c0-0.02,0-0.04,0-0.06c1.49,0,2.99,0,4.48,0s2.99,0.06,4.48-0.01
			c3.83-0.18,6.07-2.49,6.29-6.42c0.27-4.77-1.7-8.09-5.58-8.25c-6.45-0.27-12.94-0.22-19.39,0.09c-3.73,0.18-5.54,3.15-5.34,7.58
			c0.2,4.33,2.36,6.9,6.1,7.04C547.72,494.63,550.71,494.54,553.69,494.54z M470.53,494.53c0-0.01,0-0.02,0-0.03
			c3,0,5.99,0.09,8.99-0.02c3.85-0.14,5.97-2.68,6.06-7.04c0.1-4.61-1.91-7.55-5.8-7.67c-5.98-0.18-11.98-0.15-17.96,0.11
			c-3.95,0.17-5.81,2.97-5.69,7.71c0.1,4.32,2.25,6.79,6.17,6.93C465.03,494.61,467.78,494.53,470.53,494.53z M553.68,506.5
			c0-0.01,0-0.03,0-0.04c-2.74,0-5.48-0.05-8.22,0.01c-4.62,0.1-6.72,2.12-6.85,6.53c-0.15,5.12,2.02,7.94,6.62,8.06
			c5.84,0.15,11.7,0.09,17.54-0.08c4.06-0.12,6.15-2.59,6.2-6.85c0.06-4.62-2.18-7.4-6.34-7.61
			C559.66,506.38,556.67,506.5,553.68,506.5z M273.4,191.75c0,0.02,0,0.03,0,0.05c-3.12,0-6.23-0.06-9.35,0.01
			c-3.63,0.08-5.75,2.23-6.16,6.08c-0.4,3.73,1.62,7.52,4.94,7.67c7.06,0.33,14.18,0.28,21.24-0.15c3.19-0.19,4.76-3.59,4.37-7.55
			c-0.38-3.84-2.31-5.99-5.69-6.1C279.63,191.67,276.52,191.75,273.4,191.75z M553.6,453.26c0,0,0-0.01,0-0.01
			c-2.87,0-5.74-0.04-8.61,0.01c-4.35,0.07-6.38,2.27-6.41,6.91c-0.04,4.77,2.06,7.41,6.33,7.5c5.99,0.13,11.98,0.13,17.97-0.02
			c4.17-0.1,6.12-2.58,6.13-7.27c0.01-4.36-2.28-6.95-6.42-7.09C559.59,453.18,556.59,453.26,553.6,453.26z M317.48,230.76
			c0,0,0-0.01,0-0.01c1.37,0,2.74,0,4.1,0c1.49,0,2.99,0.04,4.48-0.01c4.15-0.13,6.53-2.64,6.6-6.88c0.07-4.2-2.34-7.06-6.4-7.15
			c-5.97-0.13-11.94-0.11-17.91,0.04c-4,0.1-6.21,2.66-6.23,6.76c-0.02,4.05,2.62,7.11,6.4,7.24
			C311.51,230.84,314.5,230.76,317.48,230.76z M471.16,506.48c0-0.01,0-0.02,0-0.03c-2.61,0-5.23,0-7.84,0c-0.25,0-0.5,0-0.75,0.01
			c-4.11,0.17-6.23,2.2-6.47,6.18c-0.29,4.79,1.84,8.12,5.96,8.34c5.96,0.31,11.95,0.32,17.91,0.08c4-0.16,5.87-3.04,5.64-7.68
			c-0.21-4.27-2.41-6.76-6.23-6.88C476.64,506.41,473.9,506.48,471.16,506.48z M273.09,230.76c0-0.01,0-0.03,0-0.04
			c2.98,0,5.97,0.08,8.95-0.02c3.96-0.13,6.38-2.73,6.4-6.71c0.02-4.47-2.11-7.18-6.16-7.27c-6.09-0.13-12.19-0.09-18.28,0.08
			c-3.87,0.11-6.21,2.93-6.1,6.9c0.11,4.1,2.75,6.96,6.61,7.05C267.37,230.81,270.23,230.76,273.09,230.76z M317.1,191.75
			c0,0.01,0,0.02,0,0.04c-2.74,0-5.47-0.05-8.21,0.01c-4.24,0.09-6.62,2.48-6.72,6.69c-0.11,4.23,2.19,7.2,6.24,7.34
			c6.09,0.22,12.19,0.22,18.28,0.04c3.8-0.11,6.05-3.07,5.95-7.15c-0.1-4.08-2.47-6.82-6.2-6.95
			C323.33,191.66,320.21,191.75,317.1,191.75z M511.59,494.52c0-0.01,0-0.03,0-0.04c2.62,0,5.23,0.03,7.85-0.01
			c4.36-0.06,6.53-2.25,6.72-6.7c0.21-4.98-1.89-7.94-6.18-8.06c-5.47-0.15-10.96-0.09-16.44,0.13c-3.82,0.16-6.11,3.29-5.94,7.55
			c0.17,4.23,2.72,7.04,6.52,7.11C506.61,494.55,509.1,494.52,511.59,494.52z M470.88,467.64c0,0.04,0,0.07,0,0.11
			c1.5,0,2.99,0.01,4.49,0c1.62-0.01,3.25,0.05,4.86-0.1c3.52-0.33,5.38-2.89,5.36-7.21c-0.02-4.22-2.02-7.03-5.52-7.12
			c-6.11-0.15-12.23-0.17-18.33,0.02c-3.63,0.12-5.63,2.89-5.61,7.03c0.03,4.51,1.93,7.02,5.77,7.24
			C464.89,467.78,467.89,467.64,470.88,467.64z M512.04,506.44c0,0.01,0,0.03,0,0.04c-2.74,0-5.49-0.09-8.23,0.02
			c-3.84,0.16-6.02,2.54-6.17,6.53c-0.17,4.42,1.91,7.76,5.6,7.95c5.84,0.3,11.72,0.31,17.57,0.04c3.81-0.18,5.7-3.08,5.56-7.49
			c-0.13-4.28-2.33-6.9-6.1-7.06C517.53,506.34,514.78,506.44,512.04,506.44z M511.97,467.63c0,0.01,0,0.02,0,0.03
			c2.99,0,5.98,0.15,8.96-0.04c3.44-0.22,5.31-2.95,5.3-7.28c-0.01-4-1.93-6.92-5.17-7.02c-6.09-0.19-12.2-0.2-18.29,0.05
			c-3.39,0.14-5.32,3.29-5.13,7.43c0.2,4.39,2.03,6.65,5.75,6.81C506.24,467.73,509.1,467.63,511.97,467.63z"/>
		<path d="M421.45,273.09c-0.7-31.82,25.06-62.35,62.98-62.14c34.14,0.18,61.8,27.61,62.04,62.23
			c0.24,34.72-27.43,62.75-62.16,62.95C448.57,336.34,421.62,309.31,421.45,273.09z"/>
		<path d="M221.08,210.66c0.06,8.8-7.23,16.15-16.15,16.3c-8.61,0.14-16.17-7.48-16.16-16.31c0.01-9.28,6.96-16.06,16.53-16.11
			C213.93,194.48,221.02,201.72,221.08,210.66z"/>
		<path d="M560.32,387.05c0.05-9.07,7.08-15.99,16.23-15.97c8.79,0.02,16.17,7.54,16.02,16.33c-0.15,8.66-7.7,15.87-16.58,15.85
			C567.47,403.23,560.28,395.79,560.32,387.05z"/>
		<path d="M387.35,211.3c0.76,0.24,2.55,0.5,4,1.34c6.24,3.61,12.56,7.13,18.53,11.17c7.42,5.03,6.8,14.84-1.23,18.78
			c-2.28,1.12-6.03,1.56-8.08,0.44c-7.28-4-14.27-8.59-21.07-13.38c-3.55-2.5-4.2-7.2-2.55-11.57
			C378.42,214.16,382.32,211.36,387.35,211.3z"/>
		<path d="M582.96,280.32c-3.73,0-7.47,0.12-11.2-0.03c-5.65-0.22-9.63-4.53-9.69-10.25c-0.06-6.23,3.57-10.57,9.47-10.74
			c7.71-0.22,15.43-0.25,23.15-0.1c5.63,0.11,9.56,4.81,9.51,10.83c-0.05,5.76-4,10.03-9.67,10.23c-3.85,0.13-7.72,0.03-11.57,0.03
			C582.96,280.29,582.96,280.3,582.96,280.32z"/>
		<path d="M550.68,320.39c-0.1-8.59,7.99-13.83,15.51-9.77c6.25,3.37,12.34,7.07,18.28,10.96c5.31,3.47,6.56,9.37,3.5,14.35
			c-3.18,5.17-9.15,6.72-14.64,3.61c-5.97-3.39-11.87-6.89-17.73-10.46C552.17,326.98,550.72,324.2,550.68,320.39z"/>
		<path d="M559.36,232.34c-4.9-0.35-8.27-2.4-10.16-6.51c-1.84-4-1.58-8.14,1.65-11.09c5.97-5.45,12.2-10.66,18.68-15.49
			c3.94-2.94,9.66-1.55,13.19,2.33c3.35,3.68,4.34,9.31,0.82,12.58c-6.7,6.25-14.15,11.7-21.37,17.38
			C561.37,232.17,560.06,232.16,559.36,232.34z"/>
		<path d="M513.78,198.64c-7.26,0.01-12.2-6.17-10.24-13.04c1.82-6.34,3.85-12.63,5.85-18.91c1.4-4.38,4.42-6.85,9.05-7.12
			c4.83-0.28,8.62,1.71,10.65,6.07c0.87,1.87,1.25,4.44,0.73,6.39c-1.76,6.6-3.9,13.12-6.13,19.58
			C522.05,196.37,518.61,198.63,513.78,198.64z"/>
		<path d="M538.26,375.82c-0.09,5.9-3.38,9.55-8.61,11.06c-4.28,1.23-9.15-0.24-10.95-4.24c-3.31-7.36-6.26-14.92-8.89-22.55
			c-1.31-3.8,1.54-8.24,5.66-10.33c4.26-2.17,9.81-1.84,12.31,1.87C532.99,359.39,535.6,368.39,538.26,375.82z"/>
		<path d="M442.03,161.78c4.82-0.12,7.88,2.21,9.61,5.9c2.91,6.19,5.59,12.51,8,18.92c1.98,5.25-0.13,9.63-5.19,12
			c-5.56,2.6-10.8,1.66-13.37-3.29c-3.55-6.84-6.78-13.91-9.43-21.14C429.26,167.67,434.74,161.75,442.03,161.78z"/>
		<path d="M450.94,389.54c-7.39-0.1-12.3-6.6-10.12-13.55c2.02-6.42,4.02-12.86,6.38-19.15c1.75-4.66,5.21-6.64,9.88-6.46
			c4.67,0.18,8.45,2.87,9.81,7.31c0.45,1.47,0.66,3.29,0.23,4.72c-2.08,6.92-4.26,13.82-6.72,20.61
			C458.76,387.56,455.42,389.6,450.94,389.54z"/>
		<path fill="#FFFFFF" d="M350.84,602.1c-35.75,0-71.49,0-107.56,0c0-27.02,0-53.92,0-81.07c35.86,0,71.49,0,107.56,0
			C350.84,547.87,350.84,574.74,350.84,602.1z"/>
		<path fill="#FFFFFF" d="M342.81,392.65c-7.99,0-15.97,0.01-23.96,0c-5.21-0.01-7.9-2.63-7.94-7.69c-0.03-4.75,2.32-7.09,7.55-7.12
			c16.47-0.09,32.95-0.12,49.42-0.09c4.78,0.01,7.45,2.82,7.49,7.46c0.04,4.61-2.61,7.33-7.48,7.37
			c-8.36,0.07-16.72,0.02-25.08,0.02C342.81,392.62,342.81,392.64,342.81,392.65z"/>
		<path fill="#FFFFFF" d="M251.41,392.65c-8.1,0-16.2,0.02-24.3-0.01c-4.8-0.02-7.4-2.55-7.58-7.25c-0.18-4.79,2.1-7.46,7.15-7.51
			c16.7-0.16,33.4-0.16,50.09-0.1c4.16,0.02,6.61,2.96,6.69,7.38c0.08,4.44-2.27,7.28-6.63,7.36c-8.47,0.15-16.95,0.04-25.42,0.04
			C251.41,392.6,251.41,392.62,251.41,392.65z"/>
		<path fill="#FFFFFF" d="M343.07,431.35c-7.99,0-15.97-0.01-23.96,0c-5.48,0.01-8.17-2.38-8.25-7.38c-0.07-4.6,2.76-7.28,7.95-7.29
			c16.1-0.05,32.2-0.07,48.3,0.02c1.65,0.01,3.48,0.53,4.91,1.36c3.09,1.78,3.92,4.82,3.13,8.11c-0.79,3.33-3.19,4.91-6.62,4.91
			c-8.49-0.01-16.97,0-25.46,0C343.07,431.16,343.07,431.26,343.07,431.35z"/>
		<path fill="#FFFFFF" d="M251.87,431.4c-8.22,0-16.45,0.07-24.67-0.02c-5.61-0.06-8.54-3.63-7.62-8.98
			c0.62-3.65,3.29-5.66,7.99-5.69c10.59-0.07,21.18-0.03,31.77-0.04c4.98,0,9.97-0.02,14.95-0.02c6.14,0,9.11,2.59,9.04,7.82
			c-0.06,4.86-2.37,6.65-8.66,6.66c-7.6,0.01-15.2,0-22.8,0C251.87,431.23,251.87,431.31,251.87,431.4z"/>
		<path fill="#FFFFFF" d="M342.8,468.57c8.35,0,16.7-0.12,25.04,0.04c6.31,0.12,9.87,6.59,6.27,11.57c-1.13,1.57-3.61,3.01-5.5,3.04
			c-16.82,0.29-33.64,0.33-50.46,0.28c-4.64-0.01-7.35-3.32-7.26-8.14c0.08-4.28,2.35-6.48,7.23-6.54
			c8.22-0.11,16.44-0.03,24.67-0.03C342.8,468.71,342.8,468.64,342.8,468.57z"/>
		<path fill="#FFFFFF" d="M251.15,468.62c8.11,0,16.22-0.07,24.33,0.03c5.35,0.06,8.03,2.77,7.94,7.66
			c-0.09,4.66-2.84,7.18-8.09,7.19c-15.97,0.04-31.94,0.06-47.91,0c-5.38-0.02-8.32-3.33-7.91-8.54c0.3-3.75,2.38-5.98,6.19-6.03
			c8.48-0.12,16.96-0.04,25.45-0.04C251.15,468.8,251.15,468.71,251.15,468.62z"/>
		<path fill="#FFFFFF" d="M343.17,351.94c8.1,0,16.19-0.02,24.29,0.01c5.73,0.02,9.09,4.27,7.62,9.67c-0.79,2.9-2.54,4.87-5.79,4.88
			c-17.31,0.05-34.63,0.14-51.94,0.06c-4.3-0.02-6.55-3.08-6.45-7.9c0.09-4.13,2.28-6.49,6.48-6.54c8.59-0.1,17.19-0.03,25.78-0.03
			C343.17,352.03,343.17,351.99,343.17,351.94z"/>
		<path fill="#FFFFFF" d="M343.35,340.57c-8.24,0-16.48,0.04-24.72-0.02c-4.87-0.04-7.6-2.65-7.76-7.21
			c-0.16-4.32,2.34-7.29,6.66-7.33c16.98-0.12,33.96-0.15,50.94-0.08c4.28,0.02,6.98,3.3,6.88,7.71c-0.09,4.08-2.54,6.62-6.91,6.68
			c-8.36,0.11-16.73,0.03-25.1,0.03C343.35,340.42,343.35,340.5,343.35,340.57z"/>
		<path fill="#FFFFFF" d="M343.08,457.17c-8.1,0-16.2,0-24.3,0c-5.21,0-7.87-2.44-7.85-7.26c0.02-4.69,2.55-7.16,7.54-7.17
			c16.33-0.04,32.65-0.07,48.98-0.04c5.94,0.01,9.6,5.12,7.48,10.36c-1.22,3.01-3.55,4.21-6.8,4.17c-8.35-0.09-16.7-0.03-25.05-0.03
			C343.08,457.19,343.08,457.18,343.08,457.17z"/>
		<path fill="#FFFFFF" d="M251.03,351.99c8.23,0,16.46-0.04,24.69,0.01c4.88,0.03,7.6,2.63,7.69,7.17c0.09,4.77-2.33,7.31-7.34,7.34
			c-16.21,0.1-32.42,0.15-48.63,0.13c-5.73-0.01-8.52-3.21-7.93-8.73c0.38-3.58,2.67-5.77,6.46-5.81
			c8.35-0.08,16.71-0.02,25.06-0.02C251.03,352.05,251.03,352.02,251.03,351.99z"/>
		<path fill="#FFFFFF" d="M251.53,457.26c-8.23,0-16.46-0.03-24.69,0.02c-2.81,0.02-5.68-0.48-6.34-3.42
			c-0.58-2.59-0.5-5.68,0.42-8.11c0.54-1.43,3.31-2.82,5.09-2.84c16.83-0.22,33.67-0.18,50.5-0.1c4.3,0.02,6.91,3.16,6.82,7.65
			c-0.09,4.51-2.31,6.65-7.12,6.67c-8.23,0.04-16.46,0.01-24.69,0.01C251.53,457.18,251.53,457.22,251.53,457.26z"/>
		<path fill="#FFFFFF" d="M251.37,325.86c8.11,0,16.22-0.05,24.33,0.02c5.12,0.04,8.14,3.4,7.69,8.35
			c-0.38,4.26-2.67,6.19-7.69,6.21c-11.85,0.06-23.7,0.03-35.55,0.04c-4.24,0-8.48,0.11-12.72,0.01c-5.18-0.12-7.91-2.72-7.94-7.37
			c-0.03-4.82,2.45-7.14,7.93-7.19c7.98-0.06,15.97-0.02,23.95-0.02C251.37,325.9,251.37,325.88,251.37,325.86z"/>
		<path fill="#FFFFFF" d="M553.69,494.54c-2.99,0-5.98,0.09-8.96-0.02c-3.74-0.14-5.9-2.71-6.1-7.04c-0.2-4.43,1.61-7.4,5.34-7.58
			c6.45-0.31,12.94-0.36,19.39-0.09c3.88,0.16,5.84,3.48,5.58,8.25c-0.22,3.93-2.46,6.24-6.29,6.42c-1.49,0.07-2.99,0.01-4.48,0.01
			s-2.99,0-4.48,0C553.69,494.51,553.69,494.53,553.69,494.54z"/>
		<path fill="#FFFFFF" d="M470.53,494.53c-2.75,0-5.49,0.08-8.24-0.02c-3.92-0.14-6.07-2.61-6.17-6.93
			c-0.11-4.74,1.74-7.54,5.69-7.71c5.98-0.26,11.98-0.29,17.96-0.11c3.88,0.12,5.9,3.06,5.8,7.67c-0.1,4.36-2.21,6.9-6.06,7.04
			c-2.99,0.11-5.99,0.02-8.99,0.02C470.53,494.51,470.53,494.52,470.53,494.53z"/>
		<path fill="#FFFFFF" d="M553.68,506.5c2.99,0,5.98-0.12,8.96,0.03c4.16,0.2,6.4,2.99,6.34,7.61c-0.05,4.26-2.14,6.73-6.2,6.85
			c-5.84,0.17-11.7,0.22-17.54,0.08c-4.61-0.12-6.78-2.94-6.62-8.06c0.13-4.4,2.23-6.43,6.85-6.53c2.74-0.06,5.48-0.01,8.22-0.01
			C553.68,506.47,553.68,506.49,553.68,506.5z"/>
		<path fill="#FFFFFF" d="M273.4,191.75c3.12,0,6.23-0.08,9.34,0.02c3.38,0.1,5.32,2.25,5.69,6.1c0.39,3.96-1.18,7.35-4.37,7.55
			c-7.06,0.43-14.17,0.48-21.24,0.15c-3.32-0.16-5.34-3.95-4.94-7.67c0.41-3.85,2.53-6,6.16-6.08c3.11-0.07,6.23-0.01,9.35-0.01
			C273.4,191.78,273.4,191.76,273.4,191.75z"/>
		<path fill="#FFFFFF" d="M553.6,453.26c3,0,5.99-0.08,8.99,0.02c4.14,0.14,6.43,2.73,6.42,7.09c-0.01,4.69-1.96,7.17-6.13,7.27
			c-5.99,0.15-11.98,0.15-17.97,0.02c-4.27-0.09-6.37-2.73-6.33-7.5c0.04-4.63,2.06-6.84,6.41-6.91c2.87-0.04,5.74-0.01,8.61-0.01
			C553.6,453.25,553.6,453.26,553.6,453.26z"/>
		<path fill="#FFFFFF" d="M317.48,230.76c-2.98,0-5.97,0.08-8.95-0.02c-3.78-0.12-6.43-3.19-6.4-7.24c0.02-4.09,2.24-6.66,6.23-6.76
			c5.97-0.15,11.94-0.17,17.91-0.04c4.06,0.09,6.46,2.95,6.4,7.15c-0.07,4.25-2.45,6.75-6.6,6.88c-1.49,0.05-2.98,0.01-4.48,0.01
			c-1.37,0-2.74,0-4.1,0C317.48,230.75,317.48,230.76,317.48,230.76z"/>
		<path fill="#FFFFFF" d="M471.16,506.48c2.74,0,5.48-0.07,8.22,0.02c3.82,0.12,6.02,2.61,6.23,6.88c0.23,4.63-1.64,7.52-5.64,7.68
			c-5.96,0.24-11.95,0.23-17.91-0.08c-4.12-0.22-6.24-3.55-5.96-8.34c0.24-3.98,2.36-6,6.47-6.18c0.25-0.01,0.5-0.01,0.75-0.01
			c2.61,0,5.23,0,7.84,0C471.16,506.47,471.16,506.47,471.16,506.48z"/>
		<path fill="#FFFFFF" d="M273.09,230.76c-2.86,0-5.72,0.05-8.58-0.01c-3.85-0.08-6.5-2.95-6.61-7.05c-0.11-3.97,2.23-6.8,6.1-6.9
			c6.09-0.17,12.19-0.21,18.28-0.08c4.05,0.09,6.18,2.8,6.16,7.27c-0.02,3.98-2.44,6.58-6.4,6.71c-2.98,0.1-5.97,0.02-8.95,0.02
			C273.09,230.74,273.09,230.75,273.09,230.76z"/>
		<path fill="#FFFFFF" d="M317.1,191.75c3.11,0,6.22-0.09,9.33,0.02c3.73,0.13,6.1,2.87,6.2,6.95c0.1,4.07-2.14,7.03-5.95,7.15
			c-6.09,0.18-12.19,0.18-18.28-0.04c-4.05-0.15-6.35-3.12-6.24-7.34c0.11-4.2,2.48-6.6,6.72-6.69c2.74-0.06,5.47-0.01,8.21-0.01
			C317.1,191.77,317.1,191.76,317.1,191.75z"/>
		<path fill="#FFFFFF" d="M511.59,494.52c-2.49,0-4.98,0.04-7.47-0.01c-3.8-0.07-6.35-2.88-6.52-7.11
			c-0.17-4.26,2.12-7.39,5.94-7.55c5.47-0.22,10.96-0.29,16.44-0.13c4.29,0.12,6.39,3.07,6.18,8.06c-0.19,4.46-2.36,6.64-6.72,6.7
			c-2.62,0.04-5.23,0.01-7.85,0.01C511.59,494.49,511.59,494.5,511.59,494.52z"/>
		<path fill="#FFFFFF" d="M470.88,467.64c-2.99,0-5.99,0.14-8.98-0.03c-3.84-0.22-5.74-2.73-5.77-7.24
			c-0.03-4.15,1.98-6.92,5.61-7.03c6.11-0.2,12.22-0.18,18.33-0.02c3.5,0.09,5.5,2.9,5.52,7.12c0.02,4.32-1.84,6.88-5.36,7.21
			c-1.61,0.15-3.24,0.09-4.86,0.1c-1.5,0.01-2.99,0-4.49,0C470.88,467.71,470.88,467.68,470.88,467.64z"/>
		<path fill="#FFFFFF" d="M512.04,506.44c2.74,0,5.49-0.09,8.23,0.02c3.77,0.16,5.97,2.78,6.1,7.06c0.14,4.41-1.75,7.31-5.56,7.49
			c-5.85,0.27-11.73,0.26-17.57-0.04c-3.69-0.19-5.77-3.53-5.6-7.95c0.15-3.99,2.33-6.37,6.17-6.53c2.74-0.11,5.49-0.02,8.23-0.02
			C512.04,506.46,512.04,506.45,512.04,506.44z"/>
		<path fill="#FFFFFF" d="M511.97,467.63c-2.86,0-5.73,0.1-8.59-0.03c-3.72-0.16-5.55-2.42-5.75-6.81
			c-0.19-4.14,1.75-7.29,5.13-7.43c6.09-0.25,12.2-0.24,18.29-0.05c3.24,0.1,5.16,3.02,5.17,7.02c0.01,4.33-1.86,7.05-5.3,7.28
			c-2.97,0.19-5.97,0.04-8.96,0.04C511.97,467.64,511.97,467.64,511.97,467.63z"/>
	</g>
</g>
</svg>
