<?xml version="1.0" encoding="utf-8"?>
<!-- Generator: Adobe Illustrator 27.8.0, SVG Export Plug-In . SVG Version: 6.00 Build 0)  -->
<svg version="1.1" id="Capa_1" xmlns="http://www.w3.org/2000/svg" xmlns:xlink="http://www.w3.org/1999/xlink" x="0px" y="0px"
	 viewBox="0 0 768 768" enable-background="new 0 0 768 768" xml:space="preserve">
<g>
	<g>
		<path fill="#FFFFFF" d="M0,0c256,0,512,0,768,0c0,256,0,512,0,768c-256,0-512,0-768,0C0,512,0,256,0,0z M254,638.81
			c0.96-0.71,1.55-1.12,2.11-1.57c13.89-11.01,27.74-22.07,41.72-32.96c1.41-1.1,3.59-1.67,5.41-1.67
			c6.24,0.01,12.48,0.36,18.71,0.61c43.91,1.76,87.83,3.37,131.73,5.39c13.78,0.63,25.23-3.52,35.61-12.57
			c17.13-14.92,34.74-29.28,52.17-43.85c17.14-14.33,34.39-28.54,51.44-42.97c7.18-6.07,10.76-13.93,8.36-23.36
			c-2.33-9.18-8.6-14.83-17.93-16.51c-7.95-1.43-15.43,0.19-21.91,5.26c-22.61,17.69-45.16,35.45-67.84,53.05
			c-1.7,1.32-4.23,2.14-6.39,2.19c-35.33,0.7-70.66,1.26-105.99,1.8c-7.69,0.12-15.39,0.02-23.8,0.02c3.05-4.7,6.04-8.95,8.63-13.42
			c1.29-2.23,2.96-3.05,5.34-3.4c23.95-3.53,47.91-6.99,71.81-10.79c7.59-1.21,15.48-2.33,22.46-5.3
			c15.13-6.43,19.27-25.19,9.01-37.63c-6.69-8.11-15.68-9.49-25.46-8.38c-46,5.18-92.01,10.31-138.01,15.55
			c-17.97,2.05-36.1,3.66-52.84,11.3c-12.25,5.59-24.63,11.04-36.33,17.65c-17.24,9.74-33.92,20.45-51.29,31.02
			C198.84,565.57,226.37,602.11,254,638.81z M226.94,699.2c-1.13-1.66-1.93-2.91-2.81-4.09c-19.01-25.51-38.01-51.03-57.06-76.52
			c-17.4-23.29-34.82-46.56-52.32-69.78c-4.1-5.44-8.94-6.19-14.26-2.21c-16.47,12.35-32.88,24.79-49.2,37.33
			c-1.12,0.86-1.99,2.82-1.99,4.27c-0.12,34.2-0.13,68.41-0.1,102.61c0.01,17.2,13.1,30.28,30.39,30.29
			c38.7,0.02,77.39-0.02,116.09-0.15c1.86-0.01,4.05-0.6,5.5-1.7C209.74,712.79,218.12,706.11,226.94,699.2z M230.94,204.09
			c-6.25-5.72-12.07-10.96-17.78-16.32c-2.77-2.6-1.68-6.71,2.01-7.54c5.59-1.25,9.32-4.7,11.66-9.66c4.49-9.5,2.33-18.3-3.63-26.33
			c-1.62-2.19-1.92-3.78-0.96-6.32c2.46-6.52,1.28-12.86-2.35-18.62c-4.98-7.88-12.18-11.86-21.64-11.69
			c-4.53,0.08-5.23-1.42-5.33-5.87c-0.11-4.91-0.36-10.09-1.97-14.66c-5.7-16.18-25.02-24.51-38.95-16.51
			c-5.19,2.98-9.52,6.93-16.04,5.35c-0.42-0.1-0.99,0.46-1.42,0.36c-0.95-0.22-2.18-0.4-2.72-1.06c-5.07-6.19-11.78-8.27-19.38-7.48
			C95.63,69.5,84.4,83.98,85.93,101.61c0.38,4.44-0.97,6.43-5,6.38c-13.52-0.16-24.64,13.72-22.2,27.55
			c0.57,3.2,0.04,5.13-2.53,7.32c-7.14,6.1-9.95,17.17-6.43,25.25c3.84,8.83,9.33,12.09,20.29,11.9c20.1-0.35,40.21,0.08,60.3-0.34
			c5.89-0.12,9.46,0.79,11.28,7.16c1.16,4.07,4.54,7.52,7.19,11.67c-21.34,0-42.36,0-63.35,0c-0.63,10.33,6.53,21.31,16.54,25.78
			c10.24,4.58,20.79,2.84,28.41-4.59c0.7-0.69,1.79-1.4,2.69-1.4c3.93,0.02,7.86,0.31,12.16,0.52c2.46,1.71,5.33,4.5,8.76,5.95
			c13.9,5.87,31.19-2.26,36.36-16.72c0.48-1.35,1.01-3.02,2.06-3.79c2.97-2.17,6.24-3.94,9.44-5.9
			c5.97,5.42,11.94,10.85,17.76,16.14C223.55,210.92,227.09,207.65,230.94,204.09z M250.42,306.23
			c-9.43-9.03-18.61-17.81-27.85-26.67c-2.39,1.28-4.78,2.35-6.95,3.77c-4.83,3.18-9.3,2.58-14.94,1.21
			c-10.83-2.64-15.29-9.25-16.38-19.37c-0.27-2.54-1.55-3.27-3.95-3.24c-9.86,0.11-19.73,0.14-29.59,0.08
			c-2.05-0.01-2.77,0.78-3.23,2.68c-1.01,4.11-2.12,8.23-3.62,12.19c-0.56,1.47-2.11,2.96-3.58,3.62
			c-4.66,2.09-9.44,3.93-14.28,5.57c-1.46,0.49-3.46,0.51-4.84-0.1c-4.32-1.9-8.46-4.2-12.89-6.46c-9.12,8.79-18.27,17.6-27.6,26.6
			c2.24,4.34,4.6,8.45,6.48,12.77c0.7,1.61,0.83,3.86,0.3,5.53c-1.4,4.39-3.41,8.58-4.96,12.92c-0.75,2.09-1.82,3.25-4.08,3.72
			c-4.36,0.91-8.65,2.16-13.23,3.33c0,9.5-0.01,18.85,0,28.2c0.01,10.71-0.04,11.02,10.51,13.17c4.58,0.93,6.01,3.45,8.05,7.22
			c4.89,9.05,4.41,17.05-1.85,24.96c-1.3,1.64-1.03,2.95,0.5,4.5c7.1,7.2,14.09,14.5,21.04,21.85c1.52,1.61,2.69,3.54,3.74,4.95
			c5.4-2.82,9.42-5.12,13.62-7.01c1.36-0.61,3.36-0.6,4.79-0.09c5.17,1.81,10.28,3.84,15.3,6.05c1.27,0.56,2.57,1.94,3.04,3.24
			c1.45,3.98,2.63,8.07,3.66,12.18c0.55,2.19,1.52,3.02,3.83,2.97c7.24-0.13,14.48-0.01,21.73-0.05c3.23-0.02,7.31,0.93,9.45-0.65
			c2.1-1.55,2.67-5.7,3.14-8.83c0.95-6.27,4.71-8.74,10.27-11.44c8.99-4.37,16.58-4.38,24.25,1.82c1.74,1.41,3.02,0.88,4.46-0.62
			c6.16-6.37,12.45-12.62,18.62-18.98c2.41-2.49,6.17-4.95,6.53-7.78c0.36-2.85-2.51-6.28-4.39-9.19c-2.36-3.66-2.95-7-0.74-11.06
			c1.71-3.13,2.33-6.84,3.78-10.14c0.55-1.24,1.91-2.6,3.18-2.97c4.62-1.38,9.36-2.37,14.33-3.57c0-11.41-0.21-22.64,0.11-33.85
			c0.11-3.94-1.06-5.77-4.88-6.06c-8.38-0.63-14.2-4.25-15.55-13.21c-0.18-1.19-0.86-2.34-1.46-3.43c-1.57-2.84-1.57-5.42,0.19-8.35
			C246.69,314.48,248.36,310.42,250.42,306.23z M444.19,195.71c-1.79-1.4-3.65-2.67-5.29-4.18c-3.04-2.78-5.92-5.72-8.93-8.53
			c-1.58-1.47-1.87-2.68-0.71-4.79c6.09-11.08,7.91-22.97,6.22-35.47c-3.35-24.76-21.75-45.25-45.38-50.44
			c-25.79-5.67-52.18,4.74-65.76,25.94c-13.57,21.18-12.48,48.52,2.73,68.85c15.15,20.25,41.7,28.85,66.22,21.57
			c9.65-2.87,17.95-7.93,25.17-15.14c4.9,4.61,9.59,9.03,14.44,13.59C436.5,203.46,439.9,200.04,444.19,195.71z M656.69,386.68
			c1.23,0.35,2.63,0.97,4.08,1.12c2.07,0.2,4.53,0.75,6.17-0.1c2.71-1.4,5.09-1.23,7.85-0.7c4.77,0.92,8.96-0.68,12.28-4.06
			c5.84-5.94,4.73-14.88-2.47-19.62c-2.76-1.81-3.01-2.92-0.01-4.6c1.25-0.7,2.33-1.9,3.18-3.09c3.45-4.78,3.41-9.8,0.36-14.71
			c-3.39-5.46-8.51-7.6-14.74-6.55c-2.41,0.4-4.04,0.13-5.38-1.96c-1.4-2.19-3.52-2.56-5.92-1.97c-1.78,0.44-3.58,0.82-5.18,1.18
			c-2.15-4.52-3.53-9.29-6.36-12.93c-4.52-5.82-3.11-10.52,0.96-15.43c0.13-0.16,0.09-0.46,0.14-0.75
			c-3.56-3.63-7.08-7.33-10.77-10.86c-0.57-0.55-2.25-0.79-2.8-0.37c-4.49,3.42-8.8,3.41-13.17-0.13c-0.22-0.18-0.69-0.06-1.3-0.1
			c-2.1,5.28-4.21,10.55-6.3,15.8c8.14,6.62,15.09,13.68,19.4,23.64c-8.61-1.57-15.68,0.89-22.66,4.25
			c-3.78,1.82-7.8,3.31-11.86,4.36c-5.55,1.43-11.28,2.1-16.86,3.44c-5.23,1.26-9.58,1.33-14.45-2.37
			c-7.52-5.71-19.69-3.9-26.23,2.64c-7.39,7.39-8.99,18.67-3.85,27.16c4.92,8.12,13.37,12.12,22.22,10.52
			c9.72-1.76,17.3-9.06,18.97-18.79c0.43-2.5,1.4-3.27,3.71-3.62c8.15-1.21,16.28-2.54,24.38-4.01c1.44-0.26,3.06-1.12,4.02-2.22
			c7.1-8.15,17.37-10.14,26.64-4.65c3.66,2.17,7.31,2.74,11.41,2.14c4.69-0.68,9.41-1.36,14.14-1.46c2.3-0.05,4.62,1.22,7.72,2.12
			c-2.94,3.36-5.94,5.41-6.75,8.11c-0.81,2.74,0.54,6.13,1.02,9.74c-2.17,0-4.27,0-6.36,0c-18.98,0.03-37.96,0.05-56.94,0.1
			c-4.97,0.01-8.36,2.49-8.4,6.02c-0.05,4.2,3.51,7.25,8.66,7.3c4.62,0.05,9.24,0.01,13.86,0.01c6.32,0,12.65,0,19.45,0
			c-3.39,10.65-9.84,18.45-17.86,24.98c-18.87,15.4-40.07,17.5-62.95,9.9c-2.82,8.91-5.5,17.37-8.23,25.97
			c2.78,0.93,4.76,1.66,6.78,2.25c2.87,0.84,5.74,1.78,8.69,2.25c1.06,0.17,3.14-0.65,3.37-1.42c1.84-6.41,6.15-7.99,12.15-6.85
			c0.96,0.18,2.03,0.18,2.99-0.03c5.71-1.25,9.8,0.27,11.7,6.25c0.72,2.26,2.38,2.74,4.74,1.95c3.55-1.18,7.18-2.15,10.84-2.9
			c3.07-0.63,4.18-2.02,3.39-5.16c-0.54-2.15-0.57-4.42-0.83-6.58c3.93-2.12,7.98-3.69,11.3-6.23c4.49-3.42,8.42-4,12.93-0.3
			c0.73,0.6,2.96,0.46,3.68-0.21c3.62-3.41,6.96-7.1,10.57-10.87c-1.24-2.33-2.79-4.89-3.95-7.63c-0.45-1.06-0.41-2.71,0.11-3.73
			C650.65,397.63,653.57,392.43,656.69,386.68z M530.96,169.76c0,16.12-0.25,31.82,0.12,47.5c0.14,6.16,4.93,10.06,11.23,10.38
			c3.46,0.18,6.93,0.03,10.26,0.03c1.95,6.46,3.38,7.51,9.76,7.46c1.12-0.01,2.25-0.13,3.37-0.05c5.39,0.38,9.35-1.28,10.12-7.26
			c23.88,0,47.44,0,71.11,0c0.89,4.31,3.01,7.36,7.7,7.25c6.12-0.15,13.48,2.14,15.2-7.31c3.37,0,6.48,0.05,9.59-0.01
			c8.77-0.16,13.69-4.99,13.74-13.74c0.07-13.73-0.01-27.46-0.05-41.19c0-0.95-0.19-1.9-0.31-3.08
			C638.83,169.76,585.08,169.76,530.96,169.76z M381.9,318.71c15.89-1.35,31.86-2.1,47.64-4.28c9.27-1.28,18.29-4.65,27.3-7.46
			c4.01-1.25,6-4.31,5.78-8.92c-0.33-6.85-0.27-13.72-0.16-20.58c0.06-3.76-1.51-6.5-4.45-8.53c-1.94-1.34-3.98-2.6-6.12-3.57
			c-9.86-4.49-20.35-6.58-31.04-7.89c-29.78-3.67-59.5-3.68-89.01,2.07c-7.63,1.49-15.07,4.31-22.3,7.26
			c-5.16,2.1-8,6.31-7.61,12.47c0.4,6.21,0.3,12.48,0.07,18.71c-0.14,3.89,1.33,6.64,4.71,8.12c4.66,2.04,9.37,4.17,14.26,5.48
			C340.89,316.93,361.32,317.78,381.9,318.71z M302.04,366.55c0,6.45,0.01,12.56,0,18.68c-0.02,13.46,0.71,14.45,13.59,18.71
			c0.71,0.23,1.43,0.44,2.15,0.65c17.79,5.12,36.06,6.54,54.45,6.84c23.01,0.38,45.97-0.09,68.51-5.38
			c5.43-1.28,10.79-3.13,15.91-5.35c2.27-0.99,5.4-3.44,5.52-5.4c0.58-9.39,0.26-18.83,0.26-27.88c-6.19,2.03-12.1,4.33-18.2,5.88
			c-6.27,1.59-12.69,2.73-19.1,3.56c-24.36,3.15-48.82,3.38-73.25,1.37C334.88,376.82,317.9,374.85,302.04,366.55z M302.05,319.5
			c0,8.81,0.18,17.14-0.08,25.46c-0.13,4.11,1.46,6.9,5.04,8.27c6.15,2.35,12.31,5.03,18.72,6.31c35.77,7.11,71.73,6.82,107.61,1.03
			c8.04-1.3,15.87-4.22,23.59-6.97c2.2-0.79,5.12-3.53,5.24-5.52c0.56-9.16,0.25-18.37,0.25-27.77c-3.04,1.28-5.71,2.6-8.5,3.55
			c-15.39,5.2-31.4,6.83-47.47,7.99c-23.48,1.69-46.92,1.05-70.23-2.28C324.64,327.9,313.07,325.83,302.05,319.5z M530.9,157.66
			c54.29,0,108.14,0,161.97,0c0-11.44,0-22.58,0-33.76c-54.14,0-107.97,0-161.97,0C530.9,135.26,530.9,146.32,530.9,157.66z
			 M693.19,111.7c0-3.09,0.03-5.82-0.01-8.54c-0.12-9.16-5.56-14.52-14.82-14.55c-6.74-0.02-13.48,0.07-20.22,0.09
			c-4.08,0.01-8.15,0-12.81,0c0-4.38,0.09-8.48-0.02-12.57c-0.2-7.54-3.57-10.82-11.19-10.84c-14.6-0.03-29.21,0.03-43.81,0.06
			c-1,0-2,0.05-2.99,0.18c-5.96,0.79-8.85,3.99-8.97,9.95c-0.06,2.87-0.3,5.77,0.02,8.6c0.45,3.97-1.24,5-4.88,4.69
			c-3.35-0.29-6.74-0.16-10.1-0.12c-6.98,0.08-13.98,0.01-20.95,0.42c-5.03,0.29-8.63,3.2-10.44,7.9c-1.84,4.76-1.39,9.68-0.8,14.71
			C585.25,111.7,638.9,111.7,693.19,111.7z M409.77,664.81c-1.43-3.82-2.78-7.42-4.13-11.03c-0.13-0.35-0.15-0.93-0.38-1.02
			c-1.08-0.44-2.47-1.36-3.3-1.01c-6.37,2.63-11.2,1-14.79-4.77c-0.19-0.31-0.62-0.52-0.73-0.84c-0.42-1.32-1.25-2.74-1.06-3.99
			c1.33-8.84,1.4-8.83-6.85-12.32c-0.34-0.15-0.72-0.23-1.04-0.42c-2.64-1.58-4.67-1.07-6.1,1.71c-2.41,4.71-6.02,6.53-11.5,6.11
			c-3.19-0.24-5.34-0.92-7.11-3.51c-1.39-2.03-3.11-3.84-4.8-5.89c-2.34,1.05-4.5,2-6.63,2.99c-6.01,2.81-6.07,2.83-4.75,9.49
			c0.5,2.53,0.37,4.45-1.26,6.86c-3.77,5.56-8.26,7.37-14.49,4.88c-0.34-0.14-0.82-0.29-1.09-0.16c-0.87,0.43-2.14,0.82-2.43,1.55
			c-1.51,3.79-2.76,7.68-4.05,11.41c3.62,3.73,9.75,3.68,9.78,11.36c0.03,7.87-6.56,7.66-9.82,11.55c0.77,2.07,1.5,4.19,2.34,6.27
			c2.91,7.24,2.92,7.2,10.5,5.35c1.35-0.33,3.5-0.82,4.13-0.15c3.43,3.66,9.12,6.45,6.24,13.15c-0.14,0.33-0.02,0.77-0.15,1.11
			c-1.34,3.49,0.32,5.02,3.45,6.35c8.34,3.54,8.26,3.66,13.83-3.69c0.84-1.11,2.01-2.61,3.17-2.74c5.55-0.65,10.84-1.14,14.19,5.39
			c2.56,4.99,3.22,4.66,8.34,2.41c7.96-3.49,7.92-3.48,6.14-12.17c-0.25-1.21-0.32-2.97,0.36-3.76c3.8-4.44,7.93-8.4,14.52-5.07
			c0.33,0.16,0.74,0.15,1.08,0.28c2.33,0.93,3.4-0.17,4.09-2.3c1.14-3.54,2.43-7.03,3.74-10.75c-2.3-1.35-4.47-2.82-6.81-3.94
			c-2.51-1.2-2.83-2.93-2.98-5.61c-0.32-5.67,1.5-9.38,7.05-11.11C407.51,666.44,408.4,665.64,409.77,664.81z M428.43,720.55
			c24.32,0,48.07,0,71.8,0c0-27.28,0-54.19,0-81.19c-24.09,0-47.96,0-71.8,0C428.43,666.61,428.43,693.52,428.43,720.55z
			 M587.66,600.5c4.62,4.87,9.22,9.44,13.48,14.3c2.41,2.76,4.65,3.43,8.34,2.45c11.51-3.07,22.81,4.73,23.75,15.94
			c0.95,11.24-7.18,20.61-18.13,20.89c-11.35,0.29-20.64-8.82-19.48-20.26c0.49-4.82-1.13-7.59-4.11-10.55
			c-3.19-3.16-6.11-6.59-9.21-9.85c-1.17-1.23-2.52-2.3-3.78-3.44c-13.28,14.86-10.91,41.32,4.78,56.3
			c16.83,16.07,44.2,15.97,60.73-0.23c17.23-16.89,17.93-42.97,1.72-60.71C628.97,586.98,601.04,589.4,587.66,600.5z M524.24,290.11
			c-3.32,3.16-5.96,6.03-8.97,8.44c-3.27,2.62-4.11,5.01-1.26,8.58c1.7,2.13,2.98,4.51,0.87,7.72c-2.66,4.03-4.56,8.57-6.57,13
			c-0.87,1.91-1.75,2.53-3.95,2.17c-6.19-1.01-6.23-0.88-8.08,5.38c-1.37,4.63-4.02,9.55,2.65,12.5c0.3,0.13,0.6,0.54,0.67,0.87
			c0.56,2.49,2.44,2.39,4.38,2.42c6.49,0.09,12.98,0.3,19.47,0.32c0.91,0,2.28-0.54,2.66-1.24c2.5-4.72,4.79-9.55,7.26-14.58
			c-2.65-0.55-5.37-1.12-8.49-1.77c4.61-11.35,11.39-20.45,20.92-27.29c18.15-13.01,37.95-15.37,59.15-7.92
			c3.3-8.94,6.44-17.43,9.75-26.4c-5.92-1.72-11.14-3.32-16.42-4.68c-0.72-0.19-2.34,0.64-2.55,1.31c-2.19,6.91-7,8.59-13.53,7.13
			c-0.24-0.05-0.51-0.05-0.75,0.01c-6.41,1.59-11.06-0.12-13.43-6.75c-0.29-0.81-2.2-1.75-3.08-1.53
			c-5.16,1.31-10.24,2.95-15.58,4.54c0.36,2.67,0.46,5.05,1.03,7.31c0.63,2.5-0.02,3.86-2.4,4.96c-2.93,1.35-5.91,2.83-8.41,4.83
			C534.42,293.55,529.46,296.08,524.24,290.11z M462.31,414.17c-5.33,1.87-10.38,3.99-15.61,5.42c-15.98,4.35-32.4,5.87-48.87,6.29
			c-32.42,0.81-64.8,0.79-95.68-11.73c0,7.69-0.19,15.65,0.07,23.59c0.17,5.21,6.05,9.59,11.25,9.11
			c28.32-2.65,56.63-5.43,84.97-7.78c21.18-1.75,42.37-3.7,63.88-3.15C462.31,428.7,462.31,421.37,462.31,414.17z M435.29,221.11
			c1.37,1.46,2.42,2.67,3.56,3.78c11.3,10.92,22.59,21.86,33.93,32.74c6.48,6.22,12.87,12.54,19.63,18.44
			c6.05,5.28,14.71,5.44,22.03,1.08c6.07-3.61,9.26-11.32,7.76-18.84c-0.96-4.83-3.58-8.68-7.09-12.04
			c-12.69-12.17-25.35-24.38-38.03-36.56c-5.17-4.97-10.36-9.93-14.94-14.32C453.08,204.07,444.27,212.51,435.29,221.11z
			 M665.71,499.79c6.17,0,11.52,0.16,16.86-0.04c5.82-0.22,9.93-4.61,9.85-10.13c-0.08-5.54-4.31-9.72-10.08-9.92
			c-1.74-0.06-3.49,0.07-5.24,0.07c-3.68,0.01-7.35,0-11.32,0c0-4.93,0.17-9.29-0.05-13.63c-0.24-4.8-2.93-8.11-6.94-9.11
			c-6.76-1.69-12.28,2.32-12.61,9.39c-0.21,4.31-0.04,8.63-0.04,13.38c-5.84,0-10.93-0.1-16.02,0.02
			c-6.7,0.16-10.66,3.94-10.65,9.94c0.02,6.19,4.16,10.01,10.93,10.04c5.08,0.02,10.16,0,15.7,0c0,5.05-0.14,9.64,0.03,14.21
			c0.22,5.85,3.9,9.53,9.31,9.64c5.63,0.12,9.92-3.59,10.21-9.22C665.9,509.74,665.71,505.02,665.71,499.79z M225.72,226.26
			c14.14,12.77,27.77,25.42,41.78,37.61c6.8,5.92,16.62,4.92,21.85-1.37c5.29-6.36,4.3-15.08-2.57-21.34
			c-8.95-8.16-17.98-16.22-26.97-24.33c-4.33-3.91-8.63-7.85-12.9-11.75c-5.87,5.75-11.57,11.32-17.24,16.91
			C228.44,223.21,227.31,224.54,225.72,226.26z M533.36,381.99c-2.6-4.92-4.9-9.47-7.43-13.87c-0.47-0.81-1.92-1.48-2.92-1.48
			c-6.86,0.02-13.72,0.22-20.57,0.4c-0.82,0.02-2.01,0.04-2.4,0.55c-3.42,4.53-8.3,8.72-3.96,15.35c0.86,1.31,0.86,3.17,1.68,4.52
			c0.5,0.82,2.02,1.8,2.73,1.58c5.39-1.64,8.41,0.44,9.92,5.59c0.34,1.17,0.98,2.35,1.78,3.27c4.12,4.81,4.28,9.62,0.49,14.71
			c-0.52,0.7-0.75,2.42-0.29,2.93c3.53,3.97,7.26,7.77,11.2,11.91c4.98-5.25,9.99-6.41,15.65-1.43c1.44-5.32,2.48-9.94,3.98-14.4
			c0.91-2.69,0.18-4.23-1.83-6.02c-6.85-6.07-12.42-13.12-16.11-21.88C528.16,383.1,530.7,382.56,533.36,381.99z M670.94,640.74
			c-0.99,11.56-5.26,20.7-11.46,29.07c-0.53,0.71-0.63,2.53-0.12,3.08c3.33,3.53,6.71,7.07,10.42,10.18
			c3.4,2.85,7.11,2.48,9.88-1.05c7.13-9.1,11.44-19.54,13.31-30.9c0.74-4.5-1.23-7.24-5.77-8.16
			C682,641.91,676.68,641.5,670.94,640.74z M555.89,640.77c-5.92,0.81-11.46,1.39-16.92,2.39c-3.54,0.65-5.48,3.34-5.06,6.83
			c1.46,12.01,6.15,22.8,13.4,32.41c2.2,2.92,5.53,3.25,8.32,0.94c4.48-3.69,8.61-7.81,13.01-11.85
			C561.84,662.32,557.23,652.77,555.89,640.77z M671.05,628.53c6.05-0.87,11.84-1.4,17.47-2.64c3.61-0.79,5.14-3.94,4.41-7.98
			c-1.9-10.42-5.75-20.12-11.79-28.84c-3.13-4.53-7.24-5.25-11.56-1.76c-4.04,3.25-7.6,7.1-11.55,10.84
			C665.02,607.14,669.71,616.64,671.05,628.53z M568.31,599.19c-3.77-3.89-7.27-7.96-11.25-11.48c-3.96-3.5-8.05-3.04-10.78,1.45
			c-3.41,5.6-6.43,11.51-8.95,17.56c-1.69,4.07-2.41,8.59-3.2,12.98c-0.56,3.09,1.11,5.73,4.05,6.31
			c5.77,1.15,11.68,1.64,17.71,2.42C557.12,616.74,562.12,607.64,568.31,599.19z M619.85,692.22c0,5.35-0.11,10.21,0.03,15.07
			c0.14,5.01,3.14,8.07,8.19,7.56c11.14-1.11,21.18-5.48,30.3-11.84c3.02-2.11,3.62-6.01,1.49-8.57c-3.72-4.48-7.8-8.66-11.83-13.09
			C639.49,687.91,630.08,690.91,619.85,692.22z M606.38,578.05c0-5.3,0.08-10.27-0.02-15.23c-0.11-5.05-3.73-8.68-8.71-7.89
			c-10.72,1.69-20.55,5.92-29.34,12.28c-3.45,2.49-3.79,6.21-1.06,9.53c3.53,4.31,7.46,8.29,11.25,12.44
			C586.86,582.77,595.96,579.36,606.38,578.05z M647.91,588.24c3.13-3.35,6.61-6.88,9.88-10.61c4.29-4.89,3.9-8.98-1.78-12.2
			c-5.49-3.11-11.39-5.57-17.25-7.95c-3.08-1.25-6.43-2.08-9.73-2.47c-4.82-0.57-8.82,2.24-9.04,6.34
			c-0.29,5.43-0.07,10.89-0.07,16.13c5.02,1.34,9.82,2.21,14.3,3.93C638.81,583.19,643.09,585.8,647.91,588.24z M579.19,681.7
			c-3.61,3.45-7.07,6.5-10.22,9.84c-4.92,5.2-4.43,9.79,1.93,13.15c6.25,3.31,12.89,5.93,19.49,8.53c2.61,1.03,5.57,1.55,8.38,1.61
			c4.72,0.1,7.49-2.64,7.66-7.3c0.17-4.96,0.04-9.93,0.04-15.36C596.46,690.86,587.15,687.55,579.19,681.7z M349.27,231.26
			c0.06-4.6-3.16-7.99-7.83-8.28c-5.71-0.35-9.45-3.39-11.18-9.1c-1.32-4.35-5.6-6.79-9.98-5.69c-4.24,1.06-6.93,5.44-6.03,9.82
			c0.86,4.2,4.78,6.8,9.21,6.25c1.17-0.15,2.85-0.37,3.49,0.26c2.57,2.5,6.02,4.19,6.5,8.62c0.48,4.41,4.47,6.95,8.64,6.44
			C346.08,239.09,349.22,235.45,349.27,231.26z M324.46,74.3c-5.56-0.23-9.24,2.66-9.68,7.59c-0.38,4.21,2.43,8.06,6.43,8.79
			c4.95,0.92,8.49-1.7,9.84-7.26c0.71-2.93,5.11-6.28,8.09-6.54c2.16-0.18,4.56-0.37,6.35-1.43c3.33-1.97,4.3-5.98,2.95-9.52
			c-1.26-3.28-4.47-5.41-7.84-5.19c-4.03,0.26-6.7,2.51-7.66,6.44C331.98,71.1,327.99,74.44,324.46,74.3z M435.61,82.67
			c-0.03-4.78-3.38-8.19-8.22-8.36c-4.9-0.17-8.31-2.81-9.79-7.58c-1.37-4.4-5.39-6.8-9.86-5.9c-4.15,0.84-6.77,4.74-6.25,9.3
			c0.45,3.9,3.92,7.05,7.58,6.87c5.34-0.26,9.47,2.75,10.93,7.98c1.15,4.11,4.48,6.29,8.76,5.75
			C432.67,90.24,435.64,86.76,435.61,82.67z M681.06,280.97c-0.14-1.86-0.14-3.75-0.44-5.59c-0.82-5.03-4.92-8.23-10.1-8.01
			c-5.27,0.22-8.84,3.7-9.1,9c-0.13,2.62,0.04,5.25-0.09,7.86c-0.43,8.17,9.05,11.33,14.51,8.26
			C680.51,289.88,681.29,285.72,681.06,280.97z M272.93,700.18c4.81-5.16,9.62-10.32,14.24-15.28c-4.77-5.17-9.54-10.34-14.1-15.28
			c-4.78,5.16-9.63,10.39-14.35,15.49C263.61,690.29,268.38,695.35,272.93,700.18z M76.91,515.15c4.7-5.03,9.49-10.15,14.11-15.09
			c-4.8-5.19-9.56-10.34-14.01-15.16c-4.74,5.01-9.49,10.03-14.13,14.93C67.57,504.95,72.32,510.13,76.91,515.15z M63.53,253.27
			c4.74,5.03,9.48,10.07,14.1,14.99c4.86-5.15,9.7-10.27,14.34-15.17c-5.29-4.66-10.56-9.31-15.54-13.69
			C72.91,243.17,68.27,248.16,63.53,253.27z M117.71,483.62c-4.67,5.03-9.36,10.08-13.99,15.08c4.77,5.03,9.5,10.04,13.08,13.81
			c5.26-4.51,10.45-8.96,15.43-13.24C127.15,493.8,122.43,488.71,117.71,483.62z M492.3,97.67c-4.86,5.1-9.71,10.2-14.13,14.85
			c4.9,4.68,9.88,9.42,14.61,13.94c3.91-4.15,8.55-9.07,13.04-13.83C501.35,107.69,496.8,102.65,492.3,97.67z M528.25,462.84
			c0-0.99,0.02-1.99,0-2.98c-0.16-5.95-3.51-9.58-8.99-9.76c-5.82-0.19-9.6,3.14-10.09,9.07c-0.21,2.47-0.27,4.98-0.11,7.45
			c0.37,5.37,4.38,8.84,9.75,8.63C525.3,475.01,528.23,471.15,528.25,462.84z M271.16,103.04c-4.86-5.18-9.64-10.28-14.14-15.07
			c-4.72,4.99-9.45,9.98-14.03,14.83c4.75,5.02,9.4,9.93,12.72,13.43C260.88,111.83,266.05,107.41,271.16,103.04z M481.76,179.36
			c4.54,4.75,9.05,9.48,12.72,13.31c4.93-4.64,9.84-9.27,14.61-13.75c-4.5-4.76-9.16-9.69-13.62-14.41
			C490.99,169.36,486.47,174.25,481.76,179.36z M581.44,407.64c6.09,0.05,11.01-4.76,11.03-10.8c0.02-5.64-5.12-10.89-10.69-10.93
			c-6.04-0.05-10.9,4.84-10.88,10.95C570.92,402.94,575.47,407.6,581.44,407.64z M570.73,318.08c0,6.07,4.59,10.73,10.59,10.75
			c5.94,0.03,11.06-4.74,11.16-10.39c0.11-5.9-4.96-11-10.95-11.02C575.7,307.4,570.73,312.3,570.73,318.08z M409.88,223.11
			c-4.83-0.07-8.36,3.35-8.35,8.12c0,4.6,3.44,8.25,7.84,8.34c4.38,0.09,8.54-3.8,8.68-8.13
			C418.2,226.77,414.68,223.18,409.88,223.11z M297.31,187.4c4.74-0.09,8.37-3.64,8.36-8.19c-0.01-4.48-3.92-8.35-8.35-8.27
			c-4.48,0.08-8.14,3.97-8.04,8.54C289.39,184.26,292.65,187.48,297.31,187.4z M444.37,106.28c0,4.73,3.22,8.13,7.8,8.23
			c4.48,0.09,8.36-3.67,8.45-8.19c0.09-4.47-3.39-8.03-7.94-8.13C447.92,98.08,444.38,101.53,444.37,106.28z M290.01,106.04
			c-0.04,4.9,3.37,8.47,8.07,8.46c4.33-0.01,8.18-3.85,8.15-8.12c-0.03-4.42-3.65-8.11-8.06-8.23
			C293.55,98.03,290.05,101.42,290.01,106.04z M458.18,150.86c4.62-0.02,8.37-3.77,8.3-8.32c-0.07-4.37-3.49-7.69-7.95-7.71
			c-4.73-0.03-8.09,3.23-8.12,7.87C450.37,147.56,453.53,150.88,458.18,150.86z M292.42,150.81c4.64-0.08,8.05-3.57,7.92-8.1
			c-0.14-4.47-3.8-7.99-8.24-7.9c-4.58,0.09-8.05,3.67-7.91,8.16C284.34,147.6,287.8,150.9,292.42,150.81z"/>
		<path d="M254,638.81c-27.64-36.69-55.16-73.24-83.26-110.55c17.37-10.57,34.05-21.29,51.29-31.02
			c11.7-6.61,24.08-12.06,36.33-17.65c16.74-7.64,34.87-9.26,52.84-11.3c46-5.24,92.01-10.36,138.01-15.55
			c9.78-1.1,18.77,0.28,25.46,8.38c10.26,12.44,6.12,31.2-9.01,37.63c-6.98,2.97-14.86,4.09-22.46,5.3
			c-23.91,3.8-47.87,7.26-71.81,10.79c-2.37,0.35-4.04,1.16-5.34,3.4c-2.59,4.48-5.58,8.72-8.63,13.42c8.41,0,16.11,0.1,23.8-0.02
			c35.33-0.54,70.66-1.1,105.99-1.8c2.16-0.04,4.69-0.87,6.39-2.19c22.68-17.6,45.23-35.36,67.84-53.05
			c6.48-5.07,13.96-6.68,21.91-5.26c9.33,1.67,15.61,7.33,17.93,16.51c2.4,9.43-1.19,17.29-8.36,23.36
			c-17.06,14.43-34.3,28.64-51.44,42.97c-17.43,14.57-35.05,28.93-52.17,43.85c-10.38,9.04-21.83,13.2-35.61,12.57
			c-43.9-2.01-87.82-3.63-131.73-5.39c-6.24-0.25-12.48-0.6-18.71-0.61c-1.82,0-4.01,0.57-5.41,1.67
			c-13.98,10.89-27.83,21.95-41.72,32.96C255.55,637.68,254.96,638.1,254,638.81z"/>
		<path d="M226.94,699.2c-8.82,6.91-17.2,13.6-25.76,20.06c-1.45,1.1-3.65,1.69-5.5,1.7c-38.7,0.13-77.39,0.17-116.09,0.15
			c-17.28-0.01-30.37-13.1-30.39-30.29c-0.03-34.2-0.02-68.41,0.1-102.61c0.01-1.45,0.87-3.41,1.99-4.27
			c16.33-12.54,32.73-24.98,49.2-37.33c5.32-3.99,10.16-3.24,14.26,2.21c17.49,23.22,34.91,46.49,52.32,69.78
			c19.05,25.49,38.05,51.01,57.06,76.52C225.02,696.29,225.81,697.54,226.94,699.2z M130.51,627.73
			c-8.54,0.05-15.64,7.03-15.63,15.39c0,8.42,7.45,15.6,16.01,15.43c8.13-0.15,15.29-7.42,15.24-15.46
			C146.08,634.67,138.97,627.68,130.51,627.73z M160.58,667.59c-8.3-0.06-15.64,6.87-15.77,14.87c-0.14,8.59,6.91,15.76,15.55,15.82
			c8.42,0.06,15.46-6.71,15.54-14.96C175.99,674.97,168.85,667.65,160.58,667.59z"/>
		<path d="M230.94,204.09c-3.85,3.56-7.39,6.83-11.26,10.41c-5.82-5.29-11.8-10.72-17.76-16.14c-3.21,1.97-6.47,3.74-9.44,5.9
			c-1.05,0.77-1.58,2.43-2.06,3.79c-5.17,14.46-22.46,22.59-36.36,16.72c-3.43-1.45-6.3-4.24-8.76-5.95
			c-4.3-0.21-8.23-0.49-12.16-0.52c-0.9-0.01-1.99,0.71-2.69,1.4c-7.62,7.43-18.17,9.17-28.41,4.59
			c-10.01-4.47-17.17-15.46-16.54-25.78c20.99,0,42.01,0,63.35,0c-2.65-4.15-6.03-7.6-7.19-11.67c-1.82-6.37-5.38-7.28-11.28-7.16
			c-20.09,0.41-40.21-0.02-60.3,0.34c-10.97,0.19-16.45-3.07-20.29-11.9c-3.51-8.08-0.71-19.16,6.43-25.25
			c2.57-2.19,3.09-4.12,2.53-7.32c-2.44-13.84,8.67-27.71,22.2-27.55c4.03,0.05,5.38-1.94,5-6.38c-1.53-17.63,9.7-32.1,26.52-33.85
			c7.6-0.79,14.31,1.3,19.38,7.48c0.54,0.66,1.77,0.84,2.72,1.06c0.42,0.1,1-0.46,1.42-0.36c6.52,1.58,10.84-2.37,16.04-5.35
			c13.94-8,33.25,0.33,38.95,16.51c1.61,4.56,1.86,9.74,1.97,14.66c0.1,4.45,0.8,5.95,5.33,5.87c9.46-0.16,16.67,3.81,21.64,11.69
			c3.64,5.76,4.81,12.1,2.35,18.62c-0.96,2.54-0.66,4.13,0.96,6.32c5.96,8.03,8.12,16.83,3.63,26.33
			c-2.34,4.96-6.08,8.41-11.66,9.66c-3.69,0.83-4.78,4.94-2.01,7.54C218.87,193.14,224.7,198.37,230.94,204.09z M141.25,154.79
			c-18.11-2.97-26.74-11.54-25.94-25.59c0.69-12.02,10.4-21.29,23.03-21.77c5.83-0.22,11.06,1.66,15.52,5.47
			c6.86,5.86,9.33,13.53,8.66,22.22c4.16-0.59,7.96-1.14,12.37-1.77c-0.22-3.39-0.08-6.77-0.72-9.99
			c-3.42-17.27-18.38-29.24-35.89-28.94c-17.94,0.3-32.68,12.94-35.54,30.47c-3.41,20.94,11.45,40.08,32.46,41.65
			c1.05,0.08,2.89-0.61,3.16-1.37C139.57,161.8,140.33,158.28,141.25,154.79z M176.43,195.03c13.45-0.21,24.21-10.92,24.11-24.01
			c-0.1-13.41-11.47-24.43-24.92-24.14c-13.45,0.29-24.04,11.31-23.81,24.78C152.04,184.98,162.85,195.24,176.43,195.03z"/>
		<path d="M250.42,306.23c-2.05,4.19-3.72,8.25-5.96,11.98c-1.76,2.94-1.75,5.51-0.19,8.35c0.6,1.09,1.28,2.24,1.46,3.43
			c1.36,8.96,7.17,12.58,15.55,13.21c3.82,0.29,4.99,2.12,4.88,6.06c-0.33,11.21-0.11,22.44-0.11,33.85
			c-4.97,1.2-9.7,2.19-14.33,3.57c-1.27,0.38-2.63,1.73-3.18,2.97c-1.45,3.3-2.07,7.01-3.78,10.14c-2.21,4.06-1.63,7.4,0.74,11.06
			c1.88,2.91,4.75,6.34,4.39,9.19c-0.36,2.83-4.12,5.29-6.53,7.78c-6.17,6.36-12.46,12.61-18.62,18.98
			c-1.45,1.5-2.73,2.02-4.46,0.62c-7.67-6.21-15.26-6.19-24.25-1.82c-5.56,2.7-9.32,5.17-10.27,11.44
			c-0.47,3.13-1.04,7.28-3.14,8.83c-2.14,1.58-6.22,0.63-9.45,0.65c-7.24,0.05-14.49-0.08-21.73,0.05
			c-2.31,0.04-3.28-0.78-3.83-2.97c-1.03-4.11-2.21-8.2-3.66-12.18c-0.47-1.3-1.77-2.68-3.04-3.24c-5.01-2.21-10.12-4.24-15.3-6.05
			c-1.43-0.5-3.43-0.52-4.79,0.09c-4.2,1.89-8.22,4.19-13.62,7.01c-1.05-1.41-2.22-3.35-3.74-4.95
			c-6.95-7.34-13.95-14.64-21.04-21.85c-1.52-1.55-1.8-2.86-0.5-4.5c6.26-7.91,6.74-15.91,1.85-24.96
			c-2.04-3.77-3.47-6.29-8.05-7.22c-10.55-2.15-10.49-2.46-10.51-13.17c-0.01-9.35,0-18.7,0-28.2c4.58-1.18,8.87-2.42,13.23-3.33
			c2.26-0.47,3.34-1.63,4.08-3.72c1.56-4.34,3.56-8.53,4.96-12.92c0.53-1.66,0.4-3.92-0.3-5.53c-1.88-4.32-4.24-8.43-6.48-12.77
			c9.33-8.99,18.48-17.81,27.6-26.6c4.43,2.26,8.57,4.56,12.89,6.46c1.38,0.61,3.38,0.6,4.84,0.1c4.84-1.64,9.62-3.48,14.28-5.57
			c1.47-0.66,3.02-2.15,3.58-3.62c1.5-3.95,2.61-8.07,3.62-12.19c0.47-1.9,1.18-2.69,3.23-2.68c9.86,0.07,19.73,0.04,29.59-0.08
			c2.4-0.03,3.68,0.7,3.95,3.24c1.09,10.11,5.55,16.73,16.38,19.37c5.64,1.37,10.11,1.97,14.94-1.21c2.16-1.42,4.56-2.49,6.95-3.77
			C231.81,288.42,240.99,297.2,250.42,306.23z M166.14,431.95c39.4-0.02,67.59-31.88,67.27-67.71
			c-0.33-38.45-31.17-68.2-69.61-67.63c-36.64,0.54-66.73,31.62-66.2,68.37C98.13,402.04,129.25,432.45,166.14,431.95z"/>
		<path d="M444.19,195.71c-4.29,4.33-7.69,7.75-11.3,11.39c-4.84-4.56-9.54-8.98-14.44-13.59c-7.22,7.22-15.52,12.28-25.17,15.14
			c-24.51,7.28-51.06-1.32-66.22-21.57c-15.21-20.33-16.3-47.67-2.73-68.85c13.57-21.2,39.97-31.61,65.76-25.94
			c23.64,5.2,42.04,25.68,45.38,50.44c1.69,12.5-0.13,24.39-6.22,35.47c-1.16,2.11-0.86,3.32,0.71,4.79
			c3.01,2.8,5.89,5.75,8.93,8.53C440.54,193.04,442.4,194.31,444.19,195.71z M377.65,111.77c-5.53,1.14-10.35,1.84-14.99,3.18
			c-4.68,1.36-5.59,4.58-2.98,8.68c1.78,2.79,4.14,3.64,7.37,2.53c7.12-2.42,14.15-2.35,21.1,0.89c3.47,1.62,6.77,0.35,8.23-2.76
			c1.53-3.26,0.56-6.55-3.18-7.94C388.01,114.42,382.56,113.18,377.65,111.77z M345.07,126.59c-0.94,0.86-3.27,2.06-4.07,3.91
			c-2.14,4.99-3.9,10.18-5.27,15.44c-0.77,2.94-0.81,6.18-0.6,9.24c0.24,3.45,3.14,6,6.06,5.96c3.42-0.04,5.74-2.01,5.68-5.19
			c-0.14-7.57,2.03-14.39,5.07-21.18C353.68,130.88,350.56,126.76,345.07,126.59z"/>
		<path d="M656.69,386.68c-3.12,5.75-6.04,10.96-8.73,16.27c-0.52,1.03-0.56,2.67-0.11,3.73c1.16,2.73,2.71,5.29,3.95,7.63
			c-3.61,3.77-6.95,7.46-10.57,10.87c-0.71,0.67-2.95,0.81-3.68,0.21c-4.51-3.7-8.44-3.12-12.93,0.3c-3.32,2.53-7.36,4.11-11.3,6.23
			c0.25,2.16,0.29,4.43,0.83,6.58c0.79,3.13-0.32,4.53-3.39,5.16c-3.66,0.75-7.3,1.72-10.84,2.9c-2.36,0.78-4.02,0.3-4.74-1.95
			c-1.9-5.98-5.99-7.49-11.7-6.25c-0.96,0.21-2.02,0.22-2.99,0.03c-6-1.14-10.31,0.44-12.15,6.85c-0.22,0.77-2.3,1.59-3.37,1.42
			c-2.94-0.47-5.81-1.41-8.69-2.25c-2.02-0.59-4.01-1.32-6.78-2.25c2.73-8.6,5.41-17.07,8.23-25.97c22.88,7.6,44.07,5.5,62.95-9.9
			c8.01-6.54,14.47-14.33,17.86-24.98c-6.8,0-13.12,0-19.45,0c-4.62,0-9.24,0.04-13.86-0.01c-5.15-0.06-8.71-3.1-8.66-7.3
			c0.05-3.53,3.43-6,8.4-6.02c18.98-0.05,37.96-0.07,56.94-0.1c2.09,0,4.18,0,6.36,0c-0.47-3.61-1.83-7-1.02-9.74
			c0.8-2.7,3.81-4.75,6.75-8.11c-3.1-0.9-5.43-2.17-7.72-2.12c-4.72,0.1-9.45,0.78-14.14,1.46c-4.1,0.6-7.75,0.03-11.41-2.14
			c-9.27-5.49-19.54-3.5-26.64,4.65c-0.95,1.09-2.57,1.96-4.02,2.22c-8.1,1.47-16.23,2.8-24.38,4.01c-2.31,0.34-3.28,1.12-3.71,3.62
			c-1.67,9.73-9.25,17.03-18.97,18.79c-8.85,1.6-17.29-2.4-22.22-10.52c-5.14-8.49-3.54-19.77,3.85-27.16
			c6.55-6.55,18.71-8.36,26.23-2.64c4.87,3.7,9.22,3.62,14.45,2.37c5.57-1.34,11.31-2.02,16.86-3.44c4.06-1.05,8.08-2.53,11.86-4.36
			c6.98-3.37,14.05-5.82,22.66-4.25c-4.32-9.96-11.27-17.02-19.4-23.64c2.09-5.25,4.19-10.53,6.3-15.8c0.61,0.04,1.08-0.08,1.3,0.1
			c4.37,3.54,8.68,3.55,13.17,0.13c0.55-0.42,2.23-0.18,2.8,0.37c3.69,3.53,7.21,7.23,10.77,10.86c-0.05,0.29-0.01,0.59-0.14,0.75
			c-4.07,4.91-5.48,9.61-0.96,15.43c2.83,3.65,4.21,8.41,6.36,12.93c1.6-0.36,3.4-0.74,5.18-1.18c2.4-0.59,4.52-0.22,5.92,1.97
			c1.34,2.09,2.97,2.36,5.38,1.96c6.23-1.05,11.36,1.09,14.74,6.55c3.04,4.91,3.08,9.93-0.36,14.71c-0.86,1.19-1.93,2.39-3.18,3.09
			c-3,1.68-2.75,2.79,0.01,4.6c7.2,4.73,8.3,13.68,2.47,19.62c-3.33,3.38-7.52,4.98-12.28,4.06c-2.75-0.53-5.14-0.7-7.85,0.7
			c-1.64,0.85-4.1,0.3-6.17,0.1C659.32,387.65,657.92,387.03,656.69,386.68z"/>
		<path d="M530.96,169.76c54.13,0,107.87,0,161.85,0c0.12,1.18,0.31,2.13,0.31,3.08c0.04,13.73,0.12,27.46,0.05,41.19
			c-0.04,8.75-4.97,13.58-13.74,13.74c-3.11,0.06-6.22,0.01-9.59,0.01c-1.71,9.44-9.08,7.16-15.2,7.31
			c-4.69,0.11-6.81-2.95-7.7-7.25c-23.68,0-47.23,0-71.11,0c-0.77,5.99-4.74,7.64-10.12,7.26c-1.12-0.08-2.25,0.04-3.37,0.05
			c-6.37,0.05-7.81-1-9.76-7.46c-3.33,0-6.81,0.15-10.26-0.03c-6.29-0.33-11.08-4.22-11.23-10.38
			C530.71,201.58,530.96,185.88,530.96,169.76z M559.43,207.29c0-0.05,0-0.09,0-0.14c3.11,0,6.22,0.02,9.34,0
			c3.18-0.02,4.9-1.68,4.91-4.83c0.02-5.35,0.02-10.71-0.2-16.05c-0.13-3.15-1.85-5.1-5.23-5.1c-5.97,0-11.95,0.03-17.92,0.04
			c-3.43,0-4.95,1.85-4.98,5.14c-0.06,5.23-0.18,10.46-0.14,15.68c0.03,3.65,1.63,5.18,5.28,5.26
			C553.46,207.34,556.45,207.29,559.43,207.29z M663.87,207.32c0-0.06,0-0.12,0-0.18c3.24,0,6.47,0.01,9.71,0
			c3.17-0.01,4.9-1.55,4.9-4.78c0-5.35,0.08-10.71-0.13-16.06c-0.13-3.28-1.89-5.31-5.46-5.27c-5.98,0.06-11.95,0.06-17.93,0.17
			c-2.72,0.05-4.63,1.41-4.72,4.25c-0.16,5.72-0.19,11.45-0.07,17.17c0.06,3.13,1.99,4.68,5.11,4.7
			C658.14,207.33,661,207.32,663.87,207.32z M611.7,192.53c0,0.01,0,0.02,0,0.03c-4.98,0-9.96-0.05-14.93,0.02
			c-3.61,0.05-5.78,2-5.77,4.94c0.01,3.06,2.39,5.39,5.83,5.41c9.95,0.06,19.91,0.05,29.86-0.02c3.66-0.03,6.21-2.18,6.31-5.03
			c0.11-2.95-2.58-5.27-6.37-5.32C621.66,192.48,616.68,192.53,611.7,192.53z"/>
		<path d="M381.9,318.71c-20.58-0.93-41.01-1.78-60.94-7.11c-4.9-1.31-9.6-3.43-14.26-5.48c-3.38-1.48-4.85-4.24-4.71-8.12
			c0.23-6.23,0.33-12.49-0.07-18.71c-0.39-6.16,2.45-10.37,7.61-12.47c7.23-2.95,14.68-5.77,22.3-7.26
			c29.51-5.75,59.23-5.75,89.01-2.07c10.69,1.32,21.18,3.4,31.04,7.89c2.14,0.97,4.18,2.23,6.12,3.57c2.94,2.03,4.51,4.77,4.45,8.53
			c-0.11,6.86-0.18,13.73,0.16,20.58c0.22,4.6-1.76,7.66-5.78,8.92c-9.01,2.81-18.03,6.18-27.3,7.46
			C413.76,316.62,397.79,317.37,381.9,318.71z M312.72,284.49c0.16,0.51,0.33,1.02,0.49,1.52c5.51,3.87,11.94,5.44,18.37,6.82
			c25.86,5.55,51.99,5.9,78.21,3.47c12.17-1.13,24.3-2.71,35.86-7.02c2.09-0.78,3.95-2.16,6.75-3.74c-2.69-1.78-4.28-3.32-6.17-3.99
			c-5.39-1.92-10.8-3.97-16.39-5.1c-23.78-4.8-47.84-5.74-71.9-3.22c-12.09,1.26-24.07,3.95-35.99,6.47
			C318.68,280.41,315.78,282.85,312.72,284.49z"/>
		<path d="M302.04,366.55c15.85,8.3,32.83,10.27,49.83,11.67c24.44,2.01,48.9,1.78,73.25-1.37c6.42-0.83,12.83-1.97,19.1-3.56
			c6.1-1.55,12.01-3.84,18.2-5.88c0,9.05,0.32,18.49-0.26,27.88c-0.12,1.95-3.24,4.41-5.52,5.4c-5.12,2.22-10.48,4.08-15.91,5.35
			c-22.54,5.29-45.5,5.76-68.51,5.38c-18.4-0.3-36.66-1.72-54.45-6.84c-0.72-0.21-1.44-0.41-2.15-0.65
			c-12.88-4.25-13.61-5.25-13.59-18.71C302.05,379.12,302.04,373,302.04,366.55z"/>
		<path d="M302.05,319.5c11.02,6.34,22.59,8.4,34.18,10.05c23.3,3.33,46.74,3.97,70.23,2.28c16.07-1.16,32.08-2.79,47.47-7.99
			c2.79-0.94,5.46-2.27,8.5-3.55c0,9.4,0.31,18.61-0.25,27.77c-0.12,1.99-3.04,4.73-5.24,5.52c-7.72,2.75-15.55,5.67-23.59,6.97
			c-35.89,5.8-71.84,6.09-107.61-1.03c-6.41-1.27-12.57-3.96-18.72-6.31c-3.57-1.36-5.16-4.16-5.04-8.27
			C302.23,336.64,302.05,328.31,302.05,319.5z"/>
		<path d="M530.9,157.66c0-11.34,0-22.4,0-33.76c54.01,0,107.83,0,161.97,0c0,11.17,0,22.32,0,33.76
			C639.04,157.66,585.19,157.66,530.9,157.66z M611.77,135.73c0-0.01,0-0.01,0-0.02c-4.86,0-9.73-0.05-14.59,0.02
			c-3.85,0.05-6.08,1.96-6.13,5.03c-0.05,3.05,2.56,5.28,6.37,5.3c9.48,0.04,18.96,0.05,28.43,0.01c3.87-0.02,6.28-1.9,6.43-4.83
			c0.15-2.87-2.67-5.42-6.3-5.48C621.25,135.67,616.51,135.73,611.77,135.73z M559.59,135.66c0,0.02,0,0.04,0,0.06
			c-1.49,0-2.99,0-4.48,0c-1.49,0-2.99-0.07-4.48-0.02c-3.39,0.12-5.79,2.2-5.85,5c-0.06,2.7,2.48,5.28,5.61,5.33
			c6.09,0.1,12.19,0.05,18.28,0c3.28-0.03,5.08-1.87,5.35-5.04c0.25-2.89-2.14-5.19-5.49-5.31
			C565.56,135.57,562.57,135.66,559.59,135.66z"/>
		<path d="M693.19,111.7c-54.3,0-107.94,0-162,0c-0.58-5.03-1.03-9.95,0.8-14.71c1.81-4.7,5.42-7.61,10.44-7.9
			c6.97-0.4,13.96-0.34,20.95-0.42c3.37-0.04,6.76-0.17,10.1,0.12c3.64,0.31,5.33-0.72,4.88-4.69c-0.32-2.83-0.08-5.74-0.02-8.6
			c0.12-5.96,3.01-9.16,8.97-9.95c0.99-0.13,1.99-0.18,2.99-0.18c14.6-0.03,29.21-0.09,43.81-0.06c7.62,0.01,10.99,3.3,11.19,10.84
			c0.11,4.09,0.02,8.19,0.02,12.57c4.66,0,8.73,0.01,12.81,0c6.74-0.02,13.48-0.11,20.22-0.09c9.27,0.03,14.7,5.39,14.82,14.55
			C693.22,105.89,693.19,108.61,693.19,111.7z M631.79,78.22c-13.49,0-26.53,0-39.66,0c0,3.62,0,7.02,0,10.28
			c13.34,0,26.39,0,39.66,0C631.79,84.97,631.79,81.78,631.79,78.22z"/>
		<path d="M409.77,664.81c-1.37,0.83-2.26,1.63-3.29,1.95c-5.55,1.72-7.37,5.44-7.05,11.11c0.15,2.68,0.47,4.41,2.98,5.61
			c2.34,1.12,4.5,2.59,6.81,3.94c-1.3,3.72-2.6,7.21-3.74,10.75c-0.69,2.14-1.76,3.23-4.09,2.3c-0.34-0.14-0.76-0.12-1.08-0.28
			c-6.59-3.33-10.72,0.63-14.52,5.07c-0.68,0.79-0.61,2.55-0.36,3.76c1.78,8.69,1.82,8.68-6.14,12.17
			c-5.12,2.25-5.78,2.58-8.34-2.41c-3.35-6.53-8.64-6.04-14.19-5.39c-1.16,0.14-2.32,1.63-3.17,2.74
			c-5.57,7.34-5.48,7.23-13.83,3.69c-3.13-1.33-4.79-2.86-3.45-6.35c0.13-0.34,0-0.78,0.15-1.11c2.88-6.7-2.81-9.49-6.24-13.15
			c-0.62-0.67-2.77-0.18-4.13,0.15c-7.59,1.85-7.59,1.89-10.5-5.35c-0.84-2.08-1.57-4.19-2.34-6.27c3.25-3.88,9.85-3.67,9.82-11.55
			c-0.03-7.68-6.16-7.62-9.78-11.36c1.3-3.73,2.55-7.62,4.05-11.41c0.29-0.73,1.56-1.11,2.43-1.55c0.27-0.14,0.75,0.02,1.09,0.16
			c6.23,2.49,10.72,0.68,14.49-4.88c1.63-2.41,1.77-4.33,1.26-6.86c-1.33-6.65-1.27-6.68,4.75-9.49c2.13-1,4.29-1.94,6.63-2.99
			c1.69,2.04,3.41,3.85,4.8,5.89c1.77,2.59,3.92,3.26,7.11,3.51c5.48,0.42,9.09-1.39,11.5-6.11c1.42-2.78,3.45-3.29,6.1-1.71
			c0.32,0.19,0.69,0.28,1.04,0.42c8.25,3.49,8.18,3.48,6.85,12.32c-0.19,1.25,0.64,2.67,1.06,3.99c0.1,0.32,0.53,0.53,0.73,0.84
			c3.59,5.77,8.42,7.4,14.79,4.77c0.83-0.34,2.22,0.57,3.3,1.01c0.23,0.09,0.25,0.67,0.38,1.02
			C406.99,657.38,408.34,660.99,409.77,664.81z M361.48,697.02c12.34-0.04,21.74-9.51,21.72-21.88
			c-0.02-11.92-10.08-21.79-22.13-21.71c-12.02,0.08-21.75,9.75-21.74,21.62C339.35,687.41,349.08,697.06,361.48,697.02z"/>
		<path d="M428.43,720.55c0-27.03,0-53.94,0-81.19c23.85,0,47.71,0,71.8,0c0,27.01,0,53.91,0,81.19
			C476.5,720.55,452.75,720.55,428.43,720.55z M485.49,688.09c-14.33,0-28.21,0-42.15,0c0,5.55,0,10.83,0,16.1
			c14.19,0,28.06,0,42.15,0C485.49,698.68,485.49,693.51,485.49,688.09z M485.38,671.54c0-5.53,0-10.59,0-15.75
			c-14.19,0-28.17,0-42.1,0c0,5.42,0,10.47,0,15.75C457.35,671.54,471.15,671.54,485.38,671.54z"/>
		<path d="M587.66,600.5c13.38-11.09,41.31-13.52,58.09,4.85c16.21,17.74,15.51,43.82-1.72,60.71
			c-16.52,16.19-43.89,16.29-60.73,0.23c-15.69-14.98-18.06-41.44-4.78-56.3c1.26,1.14,2.61,2.21,3.78,3.44
			c3.1,3.25,6.02,6.68,9.21,9.85c2.98,2.96,4.6,5.73,4.11,10.55c-1.16,11.44,8.13,20.55,19.48,20.26
			c10.95-0.28,19.08-9.65,18.13-20.89c-0.95-11.21-12.25-19.01-23.75-15.94c-3.69,0.98-5.92,0.31-8.34-2.45
			C596.88,609.93,592.28,605.36,587.66,600.5z"/>
		<path d="M524.24,290.11c5.22,5.96,10.18,3.43,15.32-0.69c2.5-2,5.48-3.49,8.41-4.83c2.38-1.09,3.03-2.46,2.4-4.96
			c-0.57-2.26-0.68-4.64-1.03-7.31c5.34-1.6,10.42-3.23,15.58-4.54c0.88-0.22,2.79,0.71,3.08,1.53c2.37,6.63,7.02,8.34,13.43,6.75
			c0.24-0.06,0.51-0.06,0.75-0.01c6.53,1.46,11.33-0.23,13.53-7.13c0.21-0.67,1.83-1.49,2.55-1.31c5.28,1.36,10.5,2.96,16.42,4.68
			c-3.31,8.97-6.45,17.46-9.75,26.4c-21.2-7.45-41-5.09-59.15,7.92c-9.53,6.84-16.31,15.94-20.92,27.29
			c3.11,0.65,5.84,1.22,8.49,1.77c-2.47,5.03-4.76,9.86-7.26,14.58c-0.37,0.71-1.75,1.25-2.66,1.24
			c-6.49-0.02-12.98-0.23-19.47-0.32c-1.94-0.03-3.82,0.07-4.38-2.42c-0.07-0.33-0.37-0.74-0.67-0.87
			c-6.67-2.95-4.02-7.87-2.65-12.5c1.85-6.26,1.89-6.39,8.08-5.38c2.2,0.36,3.08-0.26,3.95-2.17c2.01-4.42,3.92-8.97,6.57-13
			c2.11-3.21,0.83-5.59-0.87-7.72c-2.85-3.57-2-5.96,1.26-8.58C518.27,296.14,520.92,293.27,524.24,290.11z"/>
		<path d="M462.31,414.17c0,7.2,0,14.53,0,21.74c-21.5-0.54-42.7,1.4-63.88,3.15c-28.35,2.35-56.65,5.13-84.97,7.78
			c-5.19,0.49-11.07-3.89-11.25-9.11c-0.26-7.94-0.07-15.89-0.07-23.59c30.89,12.52,63.26,12.54,95.68,11.73
			c16.47-0.41,32.89-1.93,48.87-6.29C451.93,418.16,456.98,416.04,462.31,414.17z"/>
		<path d="M435.29,221.11c8.98-8.6,17.79-17.05,26.86-25.73c4.58,4.39,9.77,9.34,14.94,14.32c12.68,12.19,25.33,24.39,38.03,36.56
			c3.51,3.36,6.13,7.21,7.09,12.04c1.49,7.52-1.7,15.23-7.76,18.84c-7.32,4.36-15.98,4.2-22.03-1.08
			c-6.76-5.9-13.15-12.23-19.63-18.44c-11.34-10.88-22.63-21.81-33.93-32.74C437.7,223.79,436.66,222.58,435.29,221.11z
			 M509.56,260.77c-1.62-2.09-2.77-3.98-4.3-5.47c-11.69-11.38-23.47-22.68-35.21-34.02c-2.15-2.08-4.13-4.35-6.43-6.24
			c-2.19-1.8-4.68-1.62-6.78,0.34c-2.25,2.09-1.9,4.44-0.2,6.69c0.82,1.09,1.82,2.05,2.8,3c10.66,10.3,21.34,20.58,32,30.87
			c2.96,2.85,5.7,5.97,8.92,8.48c1.27,0.99,3.79,1.25,5.34,0.7C507.16,264.61,508.05,262.58,509.56,260.77z"/>
		<path d="M665.71,499.79c0,5.22,0.19,9.94-0.05,14.64c-0.29,5.63-4.58,9.34-10.21,9.22c-5.41-0.11-9.09-3.79-9.31-9.64
			c-0.17-4.57-0.03-9.15-0.03-14.21c-5.54,0-10.62,0.02-15.7,0c-6.77-0.03-10.91-3.85-10.93-10.04c-0.02-6,3.94-9.78,10.65-9.94
			c5.09-0.12,10.18-0.02,16.02-0.02c0-4.75-0.17-9.07,0.04-13.38c0.34-7.07,5.85-11.08,12.61-9.39c4.01,1,6.7,4.31,6.94,9.11
			c0.21,4.34,0.05,8.7,0.05,13.63c3.97,0,7.65,0.01,11.32,0c1.75-0.01,3.49-0.13,5.24-0.07c5.77,0.19,10,4.38,10.08,9.92
			c0.08,5.51-4.03,9.91-9.85,10.13C677.23,499.95,671.88,499.79,665.71,499.79z"/>
		<path d="M225.72,226.26c1.58-1.72,2.72-3.04,3.95-4.27c5.67-5.6,11.37-11.16,17.24-16.91c4.28,3.9,8.58,7.84,12.9,11.75
			c8.98,8.12,18.02,16.17,26.97,24.33c6.87,6.26,7.86,14.99,2.57,21.34c-5.23,6.29-15.04,7.29-21.85,1.37
			C253.49,251.67,239.86,239.03,225.72,226.26z"/>
		<path d="M533.36,381.99c-2.66,0.57-5.2,1.12-8.08,1.73c3.68,8.76,9.26,15.81,16.11,21.88c2.02,1.79,2.74,3.33,1.83,6.02
			c-1.5,4.46-2.54,9.08-3.98,14.4c-5.65-4.98-10.66-3.82-15.65,1.43c-3.94-4.14-7.67-7.93-11.2-11.91
			c-0.46-0.52-0.23-2.23,0.29-2.93c3.79-5.09,3.63-9.9-0.49-14.71c-0.79-0.93-1.44-2.1-1.78-3.27c-1.5-5.15-4.53-7.23-9.92-5.59
			c-0.72,0.22-2.23-0.76-2.73-1.58c-0.82-1.35-0.83-3.21-1.68-4.52c-4.34-6.63,0.53-10.82,3.96-15.35c0.38-0.5,1.57-0.53,2.4-0.55
			c6.86-0.19,13.71-0.38,20.57-0.4c1,0,2.45,0.67,2.92,1.48C528.46,372.52,530.76,377.07,533.36,381.99z"/>
		<path d="M670.94,640.74c5.74,0.75,11.06,1.16,16.26,2.22c4.54,0.92,6.52,3.66,5.77,8.16c-1.87,11.36-6.18,21.81-13.31,30.9
			c-2.77,3.53-6.48,3.9-9.88,1.05c-3.71-3.11-7.09-6.65-10.42-10.18c-0.51-0.54-0.41-2.37,0.12-3.08
			C665.68,661.44,669.95,652.3,670.94,640.74z"/>
		<path d="M555.89,640.77c1.34,12,5.95,21.55,12.76,30.73c-4.4,4.04-8.53,8.16-13.01,11.85c-2.8,2.3-6.12,1.97-8.32-0.94
			c-7.26-9.61-11.94-20.4-13.4-32.41c-0.43-3.49,1.52-6.18,5.06-6.83C544.43,642.16,549.97,641.58,555.89,640.77z"/>
		<path d="M671.05,628.53c-1.34-11.88-6.03-21.38-13.02-30.38c3.95-3.75,7.51-7.59,11.55-10.84c4.33-3.49,8.43-2.77,11.56,1.76
			c6.04,8.73,9.89,18.42,11.79,28.84c0.73,4.03-0.8,7.18-4.41,7.98C682.88,627.13,677.09,627.65,671.05,628.53z"/>
		<path d="M568.31,599.19c-6.19,8.44-11.18,17.54-12.42,29.24c-6.03-0.79-11.94-1.28-17.71-2.42c-2.93-0.58-4.6-3.22-4.05-6.31
			c0.79-4.39,1.51-8.91,3.2-12.98c2.52-6.05,5.54-11.96,8.95-17.56c2.73-4.48,6.82-4.95,10.78-1.45
			C561.04,591.23,564.54,595.3,568.31,599.19z"/>
		<path d="M619.85,692.22c10.23-1.31,19.64-4.31,28.18-10.87c4.03,4.42,8.11,8.6,11.83,13.09c2.13,2.57,1.53,6.46-1.49,8.57
			c-9.12,6.36-19.16,10.73-30.3,11.84c-5.06,0.51-8.05-2.55-8.19-7.56C619.74,702.43,619.85,697.57,619.85,692.22z"/>
		<path d="M606.38,578.05c-10.42,1.31-19.52,4.72-27.89,11.13c-3.78-4.15-7.71-8.13-11.25-12.44c-2.73-3.33-2.39-7.04,1.06-9.53
			c8.79-6.35,18.62-10.59,29.34-12.28c4.99-0.79,8.61,2.84,8.71,7.89C606.46,567.79,606.38,572.75,606.38,578.05z"/>
		<path d="M647.91,588.24c-4.82-2.44-9.1-5.05-13.7-6.82c-4.48-1.72-9.29-2.59-14.3-3.93c0-5.24-0.22-10.7,0.07-16.13
			c0.22-4.1,4.22-6.92,9.04-6.34c3.3,0.39,6.65,1.22,9.73,2.47c5.86,2.38,11.76,4.83,17.25,7.95c5.68,3.22,6.07,7.31,1.78,12.2
			C654.53,581.35,651.05,584.89,647.91,588.24z"/>
		<path d="M579.19,681.7c7.97,5.86,17.27,9.16,27.27,10.47c0,5.42,0.13,10.4-0.04,15.36c-0.16,4.66-2.93,7.4-7.66,7.3
			c-2.81-0.06-5.77-0.58-8.38-1.61c-6.6-2.59-13.23-5.22-19.49-8.53c-6.36-3.36-6.85-7.95-1.93-13.15
			C572.12,688.2,575.58,685.15,579.19,681.7z"/>
		<path d="M349.27,231.26c-0.05,4.19-3.19,7.83-7.18,8.31c-4.17,0.5-8.15-2.03-8.64-6.44c-0.48-4.43-3.93-6.12-6.5-8.62
			c-0.65-0.63-2.33-0.4-3.49-0.26c-4.43,0.55-8.35-2.05-9.21-6.25c-0.9-4.38,1.79-8.75,6.03-9.82c4.37-1.1,8.66,1.35,9.98,5.69
			c1.73,5.71,5.47,8.76,11.18,9.1C346.12,223.27,349.33,226.67,349.27,231.26z"/>
		<path d="M324.46,74.3c3.53,0.15,7.51-3.2,8.47-7.11c0.96-3.93,3.63-6.18,7.66-6.44c3.37-0.22,6.59,1.91,7.84,5.19
			c1.35,3.53,0.38,7.55-2.95,9.52c-1.78,1.05-4.19,1.24-6.35,1.43c-2.98,0.26-7.39,3.61-8.09,6.54c-1.35,5.56-4.89,8.17-9.84,7.26
			c-3.99-0.74-6.8-4.59-6.43-8.79C315.22,76.95,318.9,74.07,324.46,74.3z"/>
		<path d="M435.61,82.67c0.02,4.09-2.94,7.57-6.86,8.06c-4.28,0.54-7.61-1.65-8.76-5.75c-1.46-5.23-5.59-8.24-10.93-7.98
			c-3.66,0.18-7.13-2.97-7.58-6.87c-0.52-4.56,2.1-8.46,6.25-9.3c4.47-0.91,8.49,1.5,9.86,5.9c1.48,4.77,4.89,7.41,9.79,7.58
			C432.23,74.48,435.59,77.89,435.61,82.67z"/>
		<path d="M681.06,280.97c0.23,4.75-0.54,8.91-5.22,11.53c-5.46,3.06-14.95-0.1-14.51-8.26c0.14-2.61-0.04-5.25,0.09-7.86
			c0.26-5.3,3.83-8.78,9.1-9c5.18-0.22,9.29,2.98,10.1,8.01C680.92,277.22,680.92,279.11,681.06,280.97z"/>
		<path d="M272.93,700.18c-4.56-4.84-9.32-9.89-14.21-15.08c4.73-5.1,9.57-10.33,14.35-15.49c4.56,4.94,9.33,10.11,14.1,15.28
			C282.55,689.86,277.74,695.02,272.93,700.18z"/>
		<path d="M76.91,515.15c-4.59-5.01-9.34-10.19-14.03-15.32c4.64-4.9,9.39-9.93,14.13-14.93c4.45,4.82,9.21,9.96,14.01,15.16
			C86.4,504.99,81.61,510.11,76.91,515.15z"/>
		<path d="M63.53,253.27c4.75-5.1,9.38-10.09,12.9-13.87c4.98,4.38,10.26,9.03,15.54,13.69c-4.63,4.9-9.47,10.02-14.34,15.17
			C73,263.34,68.26,258.3,63.53,253.27z"/>
		<path d="M117.71,483.62c4.72,5.09,9.45,10.18,14.52,15.65c-4.98,4.27-10.18,8.73-15.43,13.24c-3.57-3.77-8.31-8.78-13.08-13.81
			C108.35,493.7,113.04,488.65,117.71,483.62z"/>
		<path d="M492.3,97.67c4.5,4.98,9.05,10.02,13.51,14.96c-4.49,4.76-9.12,9.68-13.04,13.83c-4.73-4.51-9.7-9.26-14.61-13.94
			C482.6,107.87,487.45,102.78,492.3,97.67z"/>
		<path d="M528.25,462.84c-0.01,8.31-2.95,12.16-9.44,12.41c-5.37,0.21-9.38-3.26-9.75-8.63c-0.17-2.47-0.1-4.98,0.11-7.45
			c0.5-5.93,4.28-9.26,10.09-9.07c5.48,0.18,8.83,3.81,8.99,9.76C528.27,460.85,528.25,461.85,528.25,462.84z"/>
		<path d="M271.16,103.04c-5.11,4.36-10.29,8.79-15.45,13.2c-3.32-3.51-7.97-8.42-12.72-13.43c4.59-4.85,9.32-9.85,14.03-14.83
			C261.52,92.76,266.3,97.86,271.16,103.04z"/>
		<path d="M481.76,179.36c4.72-5.11,9.23-10,13.71-14.85c4.46,4.72,9.12,9.65,13.62,14.41c-4.76,4.48-9.68,9.11-14.61,13.75
			C490.81,188.84,486.3,184.12,481.76,179.36z"/>
		<path d="M581.44,407.64c-5.97-0.05-10.52-4.7-10.54-10.78c-0.02-6.1,4.84-10.99,10.88-10.95c5.57,0.04,10.71,5.3,10.69,10.93
			C592.45,402.88,587.53,407.69,581.44,407.64z"/>
		<path d="M570.73,318.08c0-5.78,4.97-10.68,10.81-10.66c5.99,0.02,11.05,5.12,10.95,11.02c-0.1,5.64-5.23,10.41-11.16,10.39
			C575.32,328.8,570.73,324.14,570.73,318.08z"/>
		<path d="M409.88,223.11c4.8,0.07,8.32,3.66,8.17,8.33c-0.14,4.32-4.3,8.21-8.68,8.13c-4.4-0.09-7.84-3.74-7.84-8.34
			C401.52,226.46,405.04,223.04,409.88,223.11z"/>
		<path d="M297.31,187.4c-4.66,0.09-7.92-3.13-8.02-7.92c-0.1-4.57,3.56-8.46,8.04-8.54c4.43-0.08,8.33,3.79,8.35,8.27
			C305.68,183.75,302.05,187.31,297.31,187.4z"/>
		<path d="M444.37,106.28c0-4.75,3.55-8.2,8.31-8.1c4.56,0.1,8.04,3.66,7.94,8.13c-0.09,4.53-3.97,8.29-8.45,8.19
			C447.59,114.4,444.37,111.01,444.37,106.28z"/>
		<path d="M290.01,106.04c0.04-4.62,3.54-8.01,8.16-7.89c4.41,0.12,8.03,3.81,8.06,8.23c0.03,4.27-3.82,8.11-8.15,8.12
			C293.38,114.52,289.97,110.94,290.01,106.04z"/>
		<path d="M458.18,150.86c-4.65,0.02-7.81-3.3-7.78-8.17c0.04-4.64,3.4-7.89,8.12-7.87c4.46,0.03,7.88,3.34,7.95,7.71
			C466.55,147.09,462.8,150.85,458.18,150.86z"/>
		<path d="M292.42,150.81c-4.62,0.08-8.08-3.21-8.23-7.83c-0.14-4.49,3.33-8.07,7.91-8.16c4.44-0.09,8.1,3.42,8.24,7.9
			C300.47,147.24,297.06,150.73,292.42,150.81z"/>
		<path fill="#FFFFFF" d="M130.51,627.73c8.46-0.05,15.57,6.94,15.62,15.36c0.05,8.04-7.11,15.31-15.24,15.46
			c-8.56,0.16-16.01-7.02-16.01-15.43C114.87,634.76,121.97,627.78,130.51,627.73z"/>
		<path fill="#FFFFFF" d="M160.58,667.59c8.27,0.05,15.41,7.38,15.32,15.73c-0.09,8.25-7.12,15.03-15.54,14.96
			c-8.65-0.07-15.69-7.23-15.55-15.82C144.93,674.46,152.28,667.54,160.58,667.59z"/>
		<path fill="#FFFFFF" d="M141.25,154.79c-0.92,3.49-1.68,7.01-2.87,10.38c-0.27,0.76-2.11,1.45-3.16,1.37
			c-21.01-1.57-35.88-20.71-32.46-41.65c2.86-17.53,17.6-30.17,35.54-30.47c17.51-0.29,32.47,11.67,35.89,28.94
			c0.64,3.22,0.49,6.6,0.72,9.99c-4.41,0.63-8.21,1.18-12.37,1.77c0.67-8.69-1.8-16.36-8.66-22.22c-4.46-3.81-9.69-5.69-15.52-5.47
			c-12.64,0.48-22.34,9.74-23.03,21.77C114.51,143.24,123.14,151.82,141.25,154.79z"/>
		<path fill="#FFFFFF" d="M176.43,195.03c-13.59,0.21-24.39-10.05-24.62-23.37c-0.23-13.47,10.36-24.49,23.81-24.78
			c13.45-0.29,24.82,10.73,24.92,24.14C200.64,184.11,189.89,194.82,176.43,195.03z M187.96,170.93
			c-0.01-6.37-5.68-11.88-12.11-11.75c-6.14,0.12-11.22,5.41-11.24,11.72c-0.02,6.41,5,11.72,11.12,11.75
			C182.11,182.69,187.96,177.08,187.96,170.93z"/>
		<path fill="#FFFFFF" d="M166.14,431.95c-36.89,0.5-68.01-29.91-68.54-66.97c-0.52-36.75,29.57-67.83,66.2-68.37
			c38.43-0.57,69.27,29.18,69.61,67.63C233.73,400.07,205.55,431.94,166.14,431.95z M165.62,409.67c2.78,0.62,6.32,0.37,8.21,2.01
			c6.24,5.41,6.01,5.68,13.63,2.49c1.49-0.62,3.15-1.1,4.36-2.09c0.95-0.78,2.09-2.45,1.84-3.38c-1.44-5.42,0.35-9.39,4.67-12.6
			c0.99-0.73,1.85-1.7,2.59-2.69c1.63-2.16,3.47-3.03,6.37-2.62c5.56,0.79,5.6,0.56,7.28-4.65c0.77-2.37,1.71-4.71,2.18-7.15
			c0.23-1.17-0.07-3.25-0.82-3.67c-5.29-2.94-6.43-7.43-5.54-12.93c0.16-0.97-0.24-2.05,0-2.98c0.34-1.32,0.71-2.88,1.62-3.75
			c5.43-5.21,5.48-5.15,2.89-12.29c-0.38-1.05-0.94-2.06-1.18-3.15c-0.6-2.78-2.39-3.75-4.9-3.01c-4.39,1.29-7.02-1.13-10.03-3.74
			c-4.18-3.62-6.79-7.4-5.21-13.21c0.22-0.81-0.89-2.51-1.8-3c-3.07-1.64-6.39-2.82-9.51-4.37c-2.09-1.03-3.61-0.62-4.72,1.29
			c-2.59,4.48-6.34,5.35-11.45,5.49c-5.67,0.16-9.85-0.78-12.77-5.79c-0.99-1.7-2.39-2.21-4.41-1.17c-2.77,1.42-5.69,2.56-8.59,3.7
			c-2.37,0.94-3.34,2.18-2.84,5.03c0.42,2.38,0.48,5.55-0.77,7.35c-2.16,3.11-5.38,5.51-8.33,8.01c-0.81,0.69-2.26,0.95-3.39,0.88
			c-6.9-0.43-6.9-0.48-9.21,6.25c-0.49,1.42-0.8,2.91-1.44,4.25c-1,2.1-0.43,3.59,1.43,4.75c3.99,2.49,5.69,5.95,4.71,10.66
			c-0.22,1.08-0.21,2.27-0.02,3.36c0.53,3.05-0.75,5.2-3.35,6.41c-4.03,1.87-4.27,4.59-2.32,8.08c0.36,0.65,0.55,1.39,0.81,2.09
			c2.52,6.78,2.52,6.78,9.54,6.88c0.25,0,0.5-0.04,0.75-0.02c2.22,0.23,12.44,10.75,11.97,12.84c-1.52,6.69,1.7,9.84,7.65,11.42
			c1.55,0.41,2.93,1.58,4.48,1.82c1.16,0.19,3.02-0.13,3.62-0.93C156.63,411.51,159.88,408.38,165.62,409.67z"/>
		<path fill="#FFFFFF" d="M377.65,111.77c4.9,1.41,10.36,2.65,15.55,4.58c3.74,1.39,4.71,4.68,3.18,7.94
			c-1.46,3.11-4.76,4.38-8.23,2.76c-6.95-3.24-13.98-3.31-21.1-0.89c-3.24,1.1-5.59,0.25-7.37-2.53c-2.62-4.1-1.71-7.32,2.98-8.68
			C367.3,113.61,372.12,112.91,377.65,111.77z"/>
		<path fill="#FFFFFF" d="M345.07,126.59c5.5,0.16,8.61,4.28,6.87,8.18c-3.04,6.79-5.21,13.61-5.07,21.18
			c0.06,3.18-2.26,5.15-5.68,5.19c-2.93,0.04-5.82-2.51-6.06-5.96c-0.21-3.06-0.17-6.3,0.6-9.24c1.38-5.25,3.13-10.45,5.27-15.44
			C341.79,128.65,344.12,127.46,345.07,126.59z"/>
		<path fill="#FFFFFF" d="M559.43,207.29c-2.99,0-5.98,0.05-8.96-0.01c-3.65-0.08-5.25-1.61-5.28-5.26
			c-0.04-5.23,0.09-10.45,0.14-15.68c0.03-3.29,1.55-5.13,4.98-5.14c5.97-0.01,11.95-0.04,17.92-0.04c3.37,0,5.1,1.95,5.23,5.1
			c0.22,5.34,0.22,10.7,0.2,16.05c-0.01,3.15-1.72,4.81-4.91,4.83c-3.11,0.02-6.22,0-9.34,0
			C559.43,207.2,559.43,207.24,559.43,207.29z M554.84,190.95c0,2.44,0,4.49,0,6.66c3.06,0,5.85,0,8.86,0c0-2.28,0-4.33,0-6.66
			C560.78,190.95,557.87,190.95,554.84,190.95z"/>
		<path fill="#FFFFFF" d="M663.87,207.32c-2.86,0-5.73,0.01-8.59,0c-3.12-0.02-5.04-1.57-5.11-4.7c-0.12-5.72-0.09-11.45,0.07-17.17
			c0.08-2.84,2-4.2,4.72-4.25c5.97-0.11,11.95-0.11,17.93-0.17c3.57-0.04,5.33,1.99,5.46,5.27c0.21,5.35,0.13,10.7,0.13,16.06
			c0,3.23-1.73,4.77-4.9,4.78c-3.24,0.01-6.47,0-9.71,0C663.87,207.2,663.87,207.26,663.87,207.32z M659.91,197.55
			c3.16,0,6.05,0,8.99,0c0-2.42,0-4.49,0-6.75c-3.09,0-5.99,0-9.26,0c0,1.35-0.03,2.44,0.01,3.53
			C659.71,195.41,659.83,196.5,659.91,197.55z"/>
		<path fill="#FFFFFF" d="M611.7,192.53c4.98,0,9.96-0.05,14.93,0.02c3.79,0.05,6.48,2.37,6.37,5.32c-0.1,2.85-2.65,5-6.31,5.03
			c-9.95,0.07-19.91,0.08-29.86,0.02c-3.44-0.02-5.82-2.35-5.83-5.41c-0.01-2.94,2.17-4.88,5.77-4.94
			c4.98-0.07,9.95-0.02,14.93-0.02C611.7,192.55,611.7,192.54,611.7,192.53z"/>
		<path fill="#FFFFFF" d="M312.72,284.49c3.07-1.64,5.97-4.08,9.23-4.78c11.92-2.53,23.89-5.21,35.99-6.47
			c24.06-2.51,48.12-1.58,71.9,3.22c5.58,1.13,11,3.18,16.39,5.1c1.89,0.67,3.47,2.21,6.17,3.99c-2.8,1.58-4.67,2.96-6.75,3.74
			c-11.55,4.31-23.68,5.89-35.86,7.02c-26.22,2.43-52.35,2.07-78.21-3.47c-6.42-1.38-12.86-2.95-18.37-6.82
			C313.04,285.51,312.88,285,312.72,284.49z"/>
		<path fill="#FFFFFF" d="M611.77,135.73c4.74,0,9.48-0.06,14.22,0.02c3.63,0.07,6.46,2.62,6.3,5.48c-0.16,2.93-2.57,4.81-6.43,4.83
			c-9.48,0.04-18.96,0.03-28.43-0.01c-3.82-0.02-6.43-2.25-6.37-5.3c0.05-3.07,2.29-4.98,6.13-5.03c4.86-0.07,9.73-0.02,14.59-0.02
			C611.77,135.72,611.77,135.73,611.77,135.73z"/>
		<path fill="#FFFFFF" d="M559.59,135.66c2.99,0,5.97-0.09,8.95,0.02c3.35,0.13,5.74,2.42,5.49,5.31c-0.27,3.17-2.08,5.01-5.35,5.04
			c-6.09,0.05-12.19,0.1-18.28,0c-3.13-0.05-5.67-2.63-5.61-5.33c0.06-2.81,2.46-4.89,5.85-5c1.49-0.05,2.99,0.01,4.48,0.02
			c1.49,0,2.99,0,4.48,0C559.59,135.7,559.59,135.68,559.59,135.66z"/>
		<path fill="#FFFFFF" d="M631.79,78.22c0,3.56,0,6.75,0,10.28c-13.27,0-26.32,0-39.66,0c0-3.26,0-6.66,0-10.28
			C605.26,78.22,618.3,78.22,631.79,78.22z"/>
		<path fill="#FFFFFF" d="M361.48,697.02c-12.4,0.04-22.13-9.61-22.15-21.97c-0.01-11.87,9.72-21.54,21.74-21.62
			c12.05-0.08,22.12,9.79,22.13,21.71C383.23,687.51,373.82,696.98,361.48,697.02z"/>
		<path fill="#FFFFFF" d="M485.49,688.09c0,5.41,0,10.59,0,16.1c-14.08,0-27.96,0-42.15,0c0-5.27,0-10.55,0-16.1
			C457.28,688.09,471.16,688.09,485.49,688.09z"/>
		<path fill="#FFFFFF" d="M485.38,671.54c-14.23,0-28.03,0-42.1,0c0-5.29,0-10.34,0-15.75c13.93,0,27.91,0,42.1,0
			C485.38,660.95,485.38,666.01,485.38,671.54z"/>
		<path fill="#FFFFFF" d="M509.56,260.77c-1.51,1.81-2.41,3.84-3.85,4.35c-1.55,0.55-4.08,0.28-5.34-0.7
			c-3.22-2.51-5.97-5.63-8.92-8.48c-10.67-10.29-21.34-20.58-32-30.87c-0.98-0.95-1.98-1.91-2.8-3c-1.7-2.24-2.04-4.6,0.2-6.69
			c2.1-1.95,4.59-2.14,6.78-0.34c2.3,1.89,4.28,4.17,6.43,6.24c11.74,11.34,23.51,22.64,35.21,34.02
			C506.8,256.79,507.94,258.68,509.56,260.77z"/>
		<path d="M187.96,170.93c0.01,6.15-5.85,11.76-12.23,11.73c-6.11-0.03-11.14-5.35-11.12-11.75c0.02-6.31,5.1-11.61,11.24-11.72
			C182.27,159.05,187.95,164.56,187.96,170.93z"/>
		<path d="M165.62,409.67c-5.74-1.29-8.99,1.84-12.01,5.91c-0.6,0.8-2.46,1.12-3.62,0.93c-1.55-0.25-2.93-1.41-4.48-1.82
			c-5.95-1.58-9.17-4.73-7.65-11.42c0.47-2.09-9.75-12.61-11.97-12.84c-0.25-0.03-0.5,0.02-0.75,0.02c-7.01-0.1-7.01-0.1-9.54-6.88
			c-0.26-0.7-0.45-1.45-0.81-2.09c-1.95-3.49-1.71-6.21,2.32-8.08c2.6-1.21,3.88-3.36,3.35-6.41c-0.19-1.09-0.2-2.28,0.02-3.36
			c0.98-4.72-0.72-8.17-4.71-10.66c-1.85-1.16-2.43-2.65-1.43-4.75c0.64-1.34,0.96-2.83,1.44-4.25c2.31-6.73,2.31-6.67,9.21-6.25
			c1.12,0.07,2.57-0.2,3.39-0.88c2.95-2.49,6.17-4.9,8.33-8.01c1.25-1.8,1.2-4.97,0.77-7.35c-0.51-2.84,0.47-4.09,2.84-5.03
			c2.9-1.15,5.82-2.28,8.59-3.7c2.02-1.04,3.42-0.53,4.41,1.17c2.92,5.02,7.1,5.95,12.77,5.79c5.1-0.14,8.85-1.01,11.45-5.49
			c1.11-1.92,2.63-2.33,4.72-1.29c3.13,1.55,6.44,2.73,9.51,4.37c0.92,0.49,2.02,2.19,1.8,3c-1.58,5.81,1.03,9.59,5.21,13.21
			c3.01,2.61,5.64,5.03,10.03,3.74c2.51-0.74,4.3,0.23,4.9,3.01c0.23,1.08,0.79,2.09,1.18,3.15c2.6,7.14,2.54,7.08-2.89,12.29
			c-0.91,0.88-1.28,2.44-1.62,3.75c-0.24,0.93,0.16,2.01,0,2.98c-0.89,5.5,0.25,9.99,5.54,12.93c0.75,0.42,1.04,2.5,0.82,3.67
			c-0.47,2.43-1.41,4.77-2.18,7.15c-1.69,5.21-1.72,5.43-7.28,4.65c-2.9-0.41-4.74,0.45-6.37,2.62c-0.75,0.99-1.61,1.96-2.59,2.69
			c-4.32,3.2-6.1,7.18-4.67,12.6c0.25,0.93-0.89,2.61-1.84,3.38c-1.21,0.99-2.87,1.46-4.36,2.09c-7.61,3.18-7.39,2.91-13.63-2.49
			C171.94,410.04,168.4,410.29,165.62,409.67z M166.21,394.48c16.94,0.37,29.46-14.75,29.26-29.69
			c-0.22-16.07-14.37-29.95-30.48-29.75c-16.39,0.21-29.65,13.98-29.42,30.55C135.79,381.58,149.74,394.73,166.21,394.48z"/>
		<path d="M554.84,190.95c3.03,0,5.94,0,8.86,0c0,2.33,0,4.38,0,6.66c-3.01,0-5.79,0-8.86,0
			C554.84,195.44,554.84,193.4,554.84,190.95z"/>
		<path d="M659.91,197.55c-0.09-1.05-0.21-2.14-0.25-3.23c-0.04-1.08-0.01-2.17-0.01-3.53c3.26,0,6.16,0,9.26,0
			c0,2.26,0,4.34,0,6.75C665.96,197.55,663.07,197.55,659.91,197.55z"/>
		<path fill="#FFFFFF" d="M166.21,394.48c-16.47,0.25-30.42-12.9-30.65-28.89c-0.23-16.57,13.03-30.34,29.42-30.55
			c16.12-0.21,30.26,13.67,30.48,29.75C195.67,379.73,183.15,394.85,166.21,394.48z M184.14,364.95
			c-0.09-9.97-8.91-18.68-18.77-18.54c-10.29,0.14-18.51,8.59-18.32,18.8c0.19,9.92,8.49,18.2,18.2,18.16
			C175.41,383.33,184.24,374.72,184.14,364.95z"/>
		<path d="M184.14,364.95c0.09,9.78-8.73,18.39-18.88,18.43c-9.71,0.04-18.01-8.25-18.2-18.16c-0.2-10.22,8.03-18.66,18.32-18.8
			C175.23,346.27,184.05,354.98,184.14,364.95z"/>
	</g>
</g>
</svg>
