<?xml version="1.0" encoding="utf-8"?>
<!-- Generator: Adobe Illustrator 27.8.0, SVG Export Plug-In . SVG Version: 6.00 Build 0)  -->
<svg version="1.1" id="Capa_1" xmlns="http://www.w3.org/2000/svg" xmlns:xlink="http://www.w3.org/1999/xlink" x="0px" y="0px"
	 viewBox="0 0 1024 1024" enable-background="new 0 0 1024 1024" xml:space="preserve">
<g>
	<g>
		<path fill="#FEFEFE" d="M1023.91,512c0,169.14-0.01,338.27,0.09,507.41c0,3.75-0.84,4.59-4.59,4.59
			c-338.27-0.1-676.54-0.1-1014.81,0c-3.75,0-4.59-0.84-4.59-4.59C0.1,681.14,0.1,342.86,0,4.59C0,0.84,0.84,0,4.59,0
			c338.27,0.1,676.54,0.1,1014.81,0c3.75,0,4.6,0.84,4.59,4.59C1023.89,173.73,1023.91,342.86,1023.91,512z M812.74,881.95
			c-0.01-9.32-0.23-18.65,0.02-27.97c0.3-10.99,0.26-22.03-1.98-32.76c-7.63-36.42-27.38-64.21-60.26-82.2
			c-5.61-3.07-11.48-5.64-17.37-8.51c0.87-1.27,1.62-2.36,2.37-3.45c19.24-28.13,24.52-58.44,14.44-91.25
			c-5.12-16.66-13.85-31.41-23.57-45.66c-11.35-16.64-18.23-33.89-13.39-54.94c4.69-20.38,2.11-40.89-3.76-60.95
			c-4.58-15.66-11.52-30.27-19.41-44.47c-1.98-3.57-3.03-7.1-2.97-11.27c0.2-16.16-0.04-32.32,0.18-48.47
			c0.05-3.71-1.16-5.55-4.45-7.16c-35.07-17.15-70.67-32.98-108-44.6c-21.41-6.66-43.18-12.1-65.7-12.05
			c-16.75,0.03-33.1,4.18-49.31,8.31c-29.2,7.44-56.93,18.95-84.48,30.9c-12.15,5.27-24.19,10.74-35.95,16.85
			c-4.05,2.11-6.21,4.69-6.08,9.88c0.39,16.31,0,32.65,0.07,48.97c0.01,3.13-0.71,5.84-2.35,8.42c-4.54,7.15-8.25,14.73-11.69,22.47
			c-12.65,28.5-16.93,58.07-11.1,88.82c2.35,12.4,0.63,23.89-5.21,35.02c-4.78,9.12-10.44,17.69-15.86,26.4
			c-11.39,18.29-19.11,37.87-20.54,59.48c-1.61,24.27,5.45,46.24,19.29,66.09c1.71,2.46,2.15,3.26-1.29,4.66
			c-15.84,6.49-29.82,15.86-41.74,28.26c-20.51,21.32-31.64,46.82-33.25,76.21c-0.82,14.95-0.25,29.97-0.3,44.95
			c-3.14,0.31-6.28,0.54-9.41,0.94c-7.59,0.97-12.6,6.56-12.79,14.14c-0.26,10.79,6.41,17.73,17.33,18
			c2.33,0.06,4.66,0.06,6.99,0.06c200.21,0,400.42,0.01,600.63,0c3.16,0,6.34,0.09,9.49-0.19c8.44-0.75,15.67-8.96,15.29-17.37
			c-0.37-8.3-6.96-15.14-14.99-14.81C818.68,882.83,815.71,882.22,812.74,881.95z M340.59,324.89c13.87-6.09,26.91-12.24,40.27-17.6
			c28.94-11.61,58.56-21.13,89.22-27.18c17.16-3.38,34.38-6.72,51.92-4.75c20.29,2.28,40.16,6.93,59.87,12.29
			c31.8,8.65,62.15,21.05,91.92,35.01c5.3,2.49,5.39,2.44,5.2-3.35c-0.43-13.62-0.78-27.24-1.48-40.84
			c-0.24-4.66,1.96-5.65,5.94-6.53c18.77-4.13,37.49-8.48,56.14-13.1c6.93-1.72,11.98-6.36,12.91-13.64
			c0.89-6.92-2.69-12.09-8.87-15.3c-3.23-1.68-6.55-3.22-9.8-4.86c-44.01-22.2-88.02-44.41-132.02-66.63
			c-26.38-13.32-52.74-26.69-79.15-39.96c-7.43-3.74-15.1-3.71-22.64-0.31c-6.2,2.8-12.3,5.86-18.39,8.91
			c-30.75,15.41-61.43,30.97-92.25,46.24c-37.9,18.79-75.9,37.38-113.9,55.98c-8.38,4.1-12.33,10.72-12.35,19.9
			c-0.04,16.66-0.13,33.32-0.11,49.98c0.01,10.77,7.05,18.45,16.77,18.49c9.47,0.04,17.13-8.23,17.17-18.73
			c0.05-13.49,0.05-26.99-0.13-40.48c-0.05-3.49,0.75-4.42,4.16-3.01c10.73,4.42,21.54,8.63,32.3,12.98
			c10.82,4.38,10.31,4.36,9.24,16.27C341.36,297.87,341.21,311.15,340.59,324.89z M326.19,157.01c-3.97,0-6.6,0-9.24,0
			c-30.49,0.02-60.97,0.23-91.45-0.01c-19.22-0.15-39.66,16.98-39.62,39.63c0.33,154.42,0.16,308.85,0.16,463.27
			c0,33.32-0.02,66.63,0.05,99.95c0.02,8.32,5.75,15.91,12.53,17.08c8.79,1.52,15.96-2.3,18.86-10.12c1.18-3.18,1.18-6.53,1.17-9.86
			c-0.11-18.97-0.29-37.94-0.32-56.91c-0.06-28.97-0.27-57.93,0.05-86.9c0.21-18.95,0.25-37.92,0.07-56.85
			c-0.18-19.13,0.4-38.25,0.02-57.38c-0.52-26.62,0.02-53.26-0.01-79.9c-0.03-29.47-0.2-58.93-0.26-88.39
			c-0.04-22.32-0.26-44.65,0.09-66.96c0.32-20.62-0.55-41.26,0.74-61.86c0.4-6.37,4.04-10.56,10.2-11.73
			c2.27-0.43,4.61-0.69,6.93-0.7c22.32-0.12,44.64-0.25,66.96-0.17c3.64,0.01,5.42-1.1,7.12-4.46
			C314.81,175.63,317.07,165.18,326.19,157.01z M691.45,157.1c7.12,4.63,9.68,10.71,12.26,16.78c1.55,3.66,3.14,7.32,4.49,11.05
			c1.16,3.21,2.98,4.39,6.61,4.36c24.49-0.2,48.98-0.13,73.47-0.09c11.86,0.02,17.52,5.63,17.59,17.34c0.05,8.5,0.01,16.99,0,25.49
			c-0.02,173.26-0.03,346.51-0.04,519.77c0,3.99-0.11,7.99,0.1,11.98c0.4,7.6,9.42,15.99,18.53,13.32
			c8.43-2.47,13.54-8.57,13.6-18.42c0.12-21.81,0.08-43.62,0.35-65.43c0.33-26.45-0.26-52.91-0.36-79.36
			c-0.07-18.64,0.01-37.28,0-55.91c0-33.6-0.02-67.21-0.02-100.81c-0.01-86.96-0.29-173.92,0.16-260.88
			c0.11-20.29-18.82-39.43-39.42-39.28c-33.15,0.25-66.3,0.09-99.45,0.1C697.22,157.1,695.12,157.1,691.45,157.1z M278.83,412.99
			c0-0.01,0-0.02,0-0.02c5.83,0,11.66,0.03,17.49-0.01c9.06-0.07,15.02-7.26,13.63-16.23c-2.35-15.22-4.64-30.45-6.91-45.68
			c-0.96-6.45-2.2-12.7-7.3-17.47c-6.77-6.34-14.68-8.6-23.41-5.77c-9.13,2.96-15.39,8.88-16.41,19.18
			c-0.56,5.62-1.68,11.17-2.45,16.77c-1.59,11.69-3.45,23.35-4.56,35.09c-0.84,8.84,4.59,14.11,13.42,14.15
			C267.83,413.02,273.33,412.99,278.83,412.99z M766.35,420.09c0-0.01,0-0.01,0-0.02c1.66,0,3.35-0.16,4.99,0.03
			c8.85,1.02,14.07-6.01,13.61-13.27c-0.22-3.48,0.1-6.99-0.05-10.48c-0.3-6.97-5.19-11.77-12.12-11.87
			c-4.49-0.06-8.99-0.01-13.47,0.23c-6.19,0.33-10.1,4.15-10.55,10.34c-0.33,4.47-0.53,8.97-0.38,13.44
			c0.2,5.6,3.92,12.46,11.99,11.63C762.34,419.92,764.36,420.09,766.35,420.09z M766.29,479.99c1.5,0,2.99,0,4.49,0
			c9.35-0.01,14.04-4.63,14.15-14.02c0.04-3.49,0.14-7-0.09-10.48c-0.43-6.32-5.85-11.3-12.21-11.37
			c-3.99-0.04-7.99-0.02-11.98,0.07c-7.51,0.18-11.61,4.25-11.9,11.68c-0.14,3.49-0.28,6.98-0.38,10.47
			c-0.24,8.44,6.31,14.96,13.44,13.68C763.25,479.77,764.79,479.99,766.29,479.99z M766.35,361.04c0-0.01,0-0.02,0-0.03
			c1.99,0,3.99,0.05,5.98-0.01c6.49-0.18,10.65-3.39,12.02-9.65c1.14-5.23,1-10.63,0.23-15.85c-0.99-6.73-5.95-10.39-12.94-10.41
			c-3.65-0.01-7.31-0.08-10.96,0.03c-7.02,0.21-11.77,4.94-11.97,11.92c-0.11,4.15-0.16,8.31-0.02,12.45
			c0.24,6.87,4.86,11.36,11.69,11.54C762.36,361.09,764.35,361.04,766.35,361.04z M765.59,539.06c0-0.01,0-0.02,0-0.03
			c2.5,0,5,0.12,7.49-0.02c6.18-0.37,11.41-5.38,11.74-11.46c0.23-4.15,0.25-8.33-0.02-12.48c-0.4-6.13-4.8-10.9-10.11-11.05
			c-5.32-0.16-10.66-0.15-15.98,0.06c-5.65,0.22-9.59,4.2-9.91,9.77c-0.23,3.99-0.41,7.98-0.42,11.97
			c-0.01,7.32,4.76,14.43,13.21,13.27C762.9,538.91,764.26,539.06,765.59,539.06z"/>
		<path fill="#12232A" d="M209.08,881.94c0.06-14.99-0.52-30.01,0.3-44.95c1.62-29.39,12.75-54.89,33.25-76.21
			c11.93-12.4,25.9-21.77,41.74-28.26c3.43-1.41,3-2.2,1.29-4.66c-13.83-19.85-20.9-41.81-19.29-66.09
			c1.43-21.61,9.15-41.19,20.54-59.48c5.42-8.71,11.08-17.29,15.86-26.4c5.84-11.13,7.56-22.63,5.21-35.02
			c-5.83-30.75-1.55-60.32,11.1-88.82c3.44-7.74,7.15-15.31,11.69-22.47c1.64-2.59,2.37-5.29,2.35-8.42
			c-0.07-16.32,0.32-32.66-0.07-48.97c-0.12-5.19,2.03-7.78,6.08-9.88c11.75-6.11,23.8-11.58,35.95-16.85
			c27.56-11.95,55.28-23.46,84.48-30.9c16.21-4.13,32.56-8.28,49.31-8.31c22.52-0.04,44.29,5.39,65.7,12.05
			c37.34,11.62,72.94,27.45,108,44.6c3.29,1.61,4.5,3.45,4.45,7.16c-0.22,16.16,0.02,32.32-0.18,48.47
			c-0.05,4.16,0.99,7.7,2.97,11.27c7.89,14.19,14.82,28.8,19.41,44.47c5.87,20.06,8.45,40.57,3.76,60.95
			c-4.84,21.05,2.03,38.29,13.39,54.94c9.72,14.25,18.45,29,23.57,45.66c10.08,32.81,4.8,63.12-14.44,91.25
			c-0.75,1.09-1.5,2.19-2.37,3.45c5.89,2.87,11.77,5.45,17.37,8.51c32.88,17.99,52.63,45.78,60.26,82.2
			c2.25,10.73,2.28,21.76,1.98,32.76c-0.25,9.32-0.03,18.65-0.02,27.97c-10.26-0.02-20.53-0.04-30.79-0.05
			c0.03-13,0.32-26,0.03-38.99c-0.71-31.7-14.54-56.47-41.59-72.76c-21.5-12.94-45.81-20.05-68.72-30.1
			c-15.63-6.86-31.38-13.42-47.08-20.11c1.65-5.75,4.51-11.07,5.66-17.01c1.35-6.94-0.84-11.54-7.33-14.41
			c-3.79-1.68-7.52-3.55-11.39-5.04c-7.56-2.91-14.44-8.97-23.5-5.45c0-11.2,0-22.4,0-34.46c-12.62,8.78-24.26,16.99-37.32,22.89
			c-17.95,8.1-36.5,12.2-56.14,8.43c-18.17-3.49-34.62-11.11-49.73-21.7c-3.72-2.61-7.45-5.22-11.96-8.38c0,11.91,0,22.67,0,33.44
			c-5.47-2.13-10.63-1.35-15.8,1.24c-6.52,3.27-13.17,6.25-19.76,9.38c-6.81,3.24-9.04,7.67-6.93,14.93
			c1.57,5.39,3.74,10.6,5.65,15.89c-0.89,0.43-1.77,0.9-2.68,1.29c-34.1,14.59-68.43,28.69-102.25,43.91
			c-33.75,15.18-50.23,42.33-51.1,79.08c-0.3,12.65-0.18,25.31-0.26,37.96C229.53,881.91,219.31,881.93,209.08,881.94z M628.55,478
			c-1.02-8.73-2.09-17.08-2.91-25.45c-0.34-3.44-1.6-4.97-5.3-5.4c-16.81-1.97-32.85-6.77-48.01-14.32
			c-23.92-11.91-44.01-28.39-59.42-50.35c-2.14-3.05-3.58-3.05-5.88-0.13c-4.62,5.87-9.26,11.77-14.39,17.19
			c-25.66,27.1-57.37,42.47-94.09,47.81c-3.03,0.44-3.63,1.62-3.88,4.36c-0.78,8.67-1.24,17.41-3,26.09
			c-2.18-0.81-4.01-1.58-5.91-2.17c-12.89-4-25.35,2.01-28.86,13.88c-3.99,13.51,3.02,26.34,16.39,29.97
			c7.06,1.91,13.71-0.19,20.51-2.51c0.42,2.23,0.83,4.17,1.16,6.13c2.69,15.99,7.38,31.39,14.37,45.99
			c15.02,31.37,38.95,53.86,70.25,68.53c17.88,8.38,36.42,10.22,55.04,2.44c36.38-15.2,63.25-40.42,79.17-76.74
			c5.96-13.59,10.05-27.81,12.23-42.51c0.56-3.76,1.64-4.2,4.92-2.7c3.8,1.73,7.95,2.23,12.18,2.05
			c8.93-0.39,17.83-7.12,20.58-15.68c3.02-9.41,0.02-19.11-7.41-25.06C647.46,472.35,638.26,473.25,628.55,478z M656.79,598.17
			c11.81-0.03,20.83-8.84,20.78-20.3c-0.05-10.91-9.94-20.8-20.8-20.8c-11.62,0-20.75,8.93-20.77,20.31
			C635.98,589.26,644.92,598.2,656.79,598.17z M363.26,598.18c11.78,0.18,20.69-8.05,20.95-19.35c0.28-11.99-8.81-21.65-20.5-21.76
			c-11.17-0.11-20.47,8.86-20.64,19.91C342.88,589.03,351.42,598,363.26,598.18z"/>
		<path fill="#CD3E3E" d="M340.59,324.89c0.62-13.74,0.76-27.02,1.95-40.2c1.07-11.91,1.59-11.89-9.24-16.27
			c-10.76-4.35-21.57-8.56-32.3-12.98c-3.41-1.41-4.21-0.48-4.16,3.01c0.18,13.49,0.18,26.99,0.13,40.48
			c-0.04,10.5-7.7,18.77-17.17,18.73c-9.72-0.04-16.76-7.72-16.77-18.49c-0.02-16.66,0.07-33.32,0.11-49.98
			c0.02-9.17,3.97-15.8,12.35-19.9c38-18.6,75.99-37.19,113.9-55.98c30.82-15.28,61.5-30.84,92.25-46.24
			c6.09-3.05,12.19-6.1,18.39-8.91c7.54-3.41,15.21-3.43,22.64,0.31c26.41,13.27,52.77,26.64,79.15,39.96
			c44,22.22,88.01,44.42,132.02,66.63c3.26,1.64,6.57,3.18,9.8,4.86c6.18,3.22,9.76,8.38,8.87,15.3
			c-0.94,7.28-5.99,11.92-12.91,13.64c-18.65,4.62-37.38,8.96-56.14,13.1c-3.98,0.88-6.18,1.87-5.94,6.53
			c0.7,13.6,1.05,27.22,1.48,40.84c0.18,5.79,0.1,5.83-5.2,3.35c-29.77-13.96-60.12-26.36-91.92-35.01
			c-19.71-5.36-39.58-10.01-59.87-12.29c-17.54-1.97-34.77,1.36-51.92,4.75c-30.66,6.05-60.27,15.56-89.22,27.18
			C367.51,312.65,354.46,318.8,340.59,324.89z"/>
		<path fill="#CD3E3E" d="M326.19,157.01c-9.12,8.17-11.37,18.62-15.96,27.73c-1.69,3.36-3.47,4.48-7.12,4.46
			c-22.32-0.09-44.64,0.04-66.96,0.17c-2.31,0.01-4.65,0.27-6.93,0.7c-6.15,1.17-9.8,5.35-10.2,11.73
			c-1.29,20.61-0.42,41.24-0.74,61.86c-0.35,22.32-0.13,44.64-0.09,66.96c0.05,29.47,0.23,58.93,0.26,88.39
			c0.02,26.63-0.52,53.27,0.01,79.9c0.38,19.13-0.2,38.25-0.02,57.38c0.18,18.93,0.14,37.9-0.07,56.85
			c-0.32,28.96-0.11,57.93-0.05,86.9c0.04,18.97,0.22,37.94,0.32,56.91c0.02,3.33,0.01,6.68-1.17,9.86
			c-2.91,7.83-10.07,11.64-18.86,10.12c-6.78-1.17-12.51-8.76-12.53-17.08c-0.07-33.32-0.05-66.63-0.05-99.95
			c0-154.42,0.17-308.85-0.16-463.27c-0.05-22.65,20.4-39.78,39.62-39.63c30.48,0.25,60.97,0.03,91.45,0.01
			C319.58,157.01,322.22,157.01,326.19,157.01z"/>
		<path fill="#CD3E3E" d="M691.45,157.1c3.68,0,5.78,0,7.88,0c33.15-0.01,66.3,0.14,99.45-0.1c20.6-0.15,39.52,18.99,39.42,39.28
			c-0.45,86.96-0.18,173.92-0.16,260.88c0.01,33.6,0.02,67.21,0.02,100.81c0,18.64-0.08,37.28,0,55.91
			c0.1,26.45,0.69,52.91,0.36,79.36c-0.27,21.81-0.23,43.62-0.35,65.43c-0.05,9.85-5.17,15.95-13.6,18.42
			c-9.11,2.67-18.13-5.72-18.53-13.32c-0.21-3.98-0.1-7.98-0.1-11.98c0.01-173.26,0.03-346.51,0.04-519.77c0-8.5,0.05-16.99,0-25.49
			c-0.07-11.7-5.74-17.32-17.59-17.34c-24.49-0.04-48.98-0.11-73.47,0.09c-3.63,0.03-5.45-1.15-6.61-4.36
			c-1.35-3.74-2.94-7.39-4.49-11.05C701.13,167.82,698.57,161.73,691.45,157.1z"/>
		<path fill="#CD3E3E" d="M781.95,881.89c10.26,0.02,20.53,0.04,30.79,0.05c2.96,0.28,5.94,0.88,8.89,0.77
			c8.03-0.32,14.61,6.52,14.99,14.81c0.38,8.41-6.85,16.62-15.29,17.37c-3.14,0.28-6.32,0.19-9.49,0.19
			c-200.21,0.01-400.42,0-600.63,0c-2.33,0-4.66-0.01-6.99-0.06c-10.92-0.28-17.58-7.21-17.33-18c0.18-7.58,5.2-13.17,12.79-14.14
			c3.13-0.4,6.27-0.63,9.41-0.94c10.22-0.01,20.45-0.03,30.67-0.04c1.61,1.34,3.52,0.72,5.28,0.72
			c55.79,0.01,111.58-0.05,167.36-0.05c121.4,0,242.79,0.03,364.19,0.04C778.4,882.61,780.27,882.91,781.95,881.89z"/>
		<path fill="#CD3E3E" d="M278.83,412.99c-5.5,0-11,0.02-16.49-0.01c-8.83-0.04-14.25-5.31-13.42-14.15
			c1.11-11.74,2.97-23.4,4.56-35.09c0.76-5.6,1.89-11.16,2.45-16.77c1.02-10.3,7.28-16.22,16.41-19.18
			c8.73-2.83,16.64-0.57,23.41,5.77c5.1,4.78,6.33,11.02,7.3,17.47c2.27,15.23,4.56,30.46,6.91,45.68
			c1.39,8.97-4.57,16.17-13.63,16.23c-5.83,0.04-11.66,0.01-17.49,0.01C278.83,412.98,278.83,412.99,278.83,412.99z"/>
		<path fill="#CD3E3E" d="M766.35,420.09c-2,0-4.01-0.17-5.99,0.03c-8.07,0.83-11.79-6.03-11.99-11.63
			c-0.16-4.47,0.05-8.97,0.38-13.44c0.45-6.19,4.37-10,10.55-10.34c4.48-0.24,8.98-0.29,13.47-0.23c6.93,0.1,11.82,4.89,12.12,11.87
			c0.15,3.49-0.17,7,0.05,10.48c0.46,7.26-4.76,14.29-13.61,13.27c-1.64-0.19-3.32-0.03-4.99-0.03
			C766.35,420.08,766.35,420.09,766.35,420.09z"/>
		<path fill="#CD3E3E" d="M766.29,479.99c-1.5,0-3.03-0.22-4.48,0.04c-7.13,1.28-13.68-5.24-13.44-13.68
			c0.1-3.49,0.24-6.98,0.38-10.47c0.29-7.44,4.4-11.5,11.9-11.68c3.99-0.1,7.98-0.12,11.98-0.07c6.36,0.07,11.78,5.05,12.21,11.37
			c0.23,3.48,0.13,6.98,0.09,10.48c-0.11,9.39-4.8,14.01-14.15,14.02C769.28,479.99,767.78,479.99,766.29,479.99z"/>
		<path fill="#CD3E3E" d="M766.35,361.04c-1.99,0-3.99,0.04-5.98-0.01c-6.83-0.18-11.45-4.67-11.69-11.54
			c-0.14-4.15-0.09-8.3,0.02-12.45c0.19-6.98,4.95-11.7,11.97-11.92c3.65-0.11,7.31-0.04,10.96-0.03c7,0.02,11.96,3.68,12.94,10.41
			c0.77,5.22,0.91,10.62-0.23,15.85c-1.37,6.26-5.53,9.47-12.02,9.65c-1.99,0.05-3.98,0.01-5.98,0.01
			C766.35,361.02,766.35,361.03,766.35,361.04z"/>
		<path fill="#CD3E3E" d="M765.59,539.06c-1.33,0-2.68-0.16-3.99,0.03c-8.44,1.16-13.22-5.95-13.21-13.27
			c0.01-3.99,0.19-7.99,0.42-11.97c0.32-5.57,4.25-9.55,9.91-9.77c5.32-0.21,10.66-0.21,15.98-0.06c5.31,0.16,9.71,4.93,10.11,11.05
			c0.27,4.14,0.24,8.33,0.02,12.48c-0.33,6.07-5.56,11.09-11.74,11.46c-2.49,0.15-4.99,0.02-7.49,0.02
			C765.59,539.04,765.59,539.05,765.59,539.06z"/>
		<path fill="#FEFEFE" d="M781.95,881.89c-1.68,1.02-3.55,0.71-5.35,0.71c-121.4-0.01-242.79-0.04-364.19-0.04
			c-55.79,0-111.58,0.06-167.36,0.05c-1.76,0-3.68,0.62-5.28-0.72c0.07-12.65-0.05-25.31,0.26-37.96
			c0.88-36.76,17.35-63.9,51.1-79.08c33.82-15.21,68.15-29.31,102.25-43.91c0.91-0.39,1.79-0.86,2.68-1.28
			c0.53,0.6,1.17,1.13,1.58,1.81c11.22,18.03,25.6,33.05,43.16,44.97c5.09,3.45,10.53,5.42,16.88,3.62
			c7.42-2.1,13.89-6.03,20.45-9.86c8.93-5.2,8.97-5.13,13.45,4.17c5.13,10.63,17.04,14.54,27.75,9.53c6.4-3,9.79-8.29,12.23-14.36
			c1.47-3.67,3.29-3.81,6.3-1.95c4.65,2.88,9.42,5.57,14.16,8.29c8.68,4.98,17.35,7.2,26.6,1.03
			c17.18-11.45,31.54-25.58,42.42-43.19c0.92-1.49,1.35-3.49,3.56-3.79c15.7,6.69,31.45,13.26,47.08,20.11
			c22.91,10.05,47.22,17.16,68.72,30.1c27.05,16.28,40.88,41.05,41.59,72.76C782.27,855.89,781.97,868.9,781.95,881.89z
			 M490.49,822.94c0.17,11.83,8.09,19.63,19.41,19.7c12.24,0.07,20-8.17,20.89-19.76c0.77-10.1-9.45-19.77-20.21-19.84
			C499.48,802.98,490.59,811.78,490.49,822.94z"/>
		<path fill="#FEFEFE" d="M628.55,478c9.71-4.75,18.92-5.65,27.74,1.41c7.43,5.94,10.43,15.64,7.41,25.06
			c-2.75,8.56-11.65,15.29-20.58,15.68c-4.23,0.18-8.38-0.32-12.18-2.05c-3.28-1.49-4.36-1.06-4.92,2.7
			c-2.17,14.69-6.27,28.92-12.23,42.51c-15.92,36.32-42.79,61.54-79.17,76.74c-18.62,7.78-37.16,5.94-55.04-2.44
			c-31.3-14.66-55.23-37.15-70.25-68.53c-6.99-14.59-11.68-30-14.37-45.99c-0.33-1.95-0.73-3.89-1.16-6.13
			c-6.8,2.32-13.45,4.43-20.51,2.51c-13.37-3.62-20.37-16.46-16.39-29.97c3.5-11.87,15.97-17.89,28.86-13.88
			c1.89,0.59,3.73,1.36,5.91,2.17c1.76-8.69,2.22-17.42,3-26.09c0.25-2.75,0.85-3.92,3.88-4.36c36.72-5.34,68.44-20.72,94.09-47.81
			c5.13-5.42,9.77-11.32,14.39-17.19c2.3-2.92,3.74-2.92,5.88,0.13c15.4,21.96,35.5,38.44,59.42,50.35
			c15.16,7.55,31.2,12.36,48.01,14.32c3.7,0.43,4.97,1.96,5.3,5.4C626.46,460.92,627.53,469.26,628.55,478z"/>
		<path fill="#CD3E3E" d="M624.59,719.93c-2.21,0.3-2.64,2.3-3.56,3.79c-10.88,17.6-25.24,31.74-42.42,43.19
			c-9.25,6.17-17.92,3.95-26.6-1.03c-4.75-2.72-9.51-5.42-14.16-8.29c-3.01-1.86-4.83-1.72-6.3,1.95
			c-2.44,6.07-5.82,11.36-12.23,14.36c-10.71,5.02-22.62,1.11-27.75-9.53c-4.48-9.3-4.52-9.36-13.45-4.17
			c-6.57,3.82-13.03,7.76-20.45,9.86c-6.35,1.8-11.79-0.16-16.88-3.62c-17.56-11.93-31.94-26.94-43.16-44.97
			c-0.42-0.67-1.05-1.21-1.58-1.81c-1.9-5.29-4.08-10.5-5.65-15.89c-2.12-7.26,0.11-11.69,6.93-14.93
			c6.58-3.13,13.24-6.12,19.76-9.38c5.16-2.59,10.33-3.37,15.8-1.24c0.38,1.76,1.71,2.72,2.99,3.82
			c19.8,16.97,42.33,29.09,66.82,37.75c5.43,1.92,10.73,1.41,16.12-0.3c19.81-6.29,37.77-16.16,54.42-28.42
			c5.28-3.89,11.26-7.13,14.81-13.05c9.06-3.52,15.94,2.54,23.5,5.45c3.87,1.49,7.59,3.36,11.39,5.04
			c6.49,2.87,8.68,7.47,7.33,14.41C629.09,708.87,626.24,714.19,624.59,719.93z"/>
		<path fill="#FEFEFE" d="M588.03,678.03c-3.54,5.92-9.53,9.16-14.81,13.05c-16.65,12.26-34.61,22.13-54.42,28.42
			c-5.39,1.71-10.69,2.22-16.12,0.3c-24.49-8.67-47.02-20.78-66.82-37.75c-1.28-1.1-2.61-2.06-2.99-3.82c0-10.76,0-21.52,0-33.43
			c4.52,3.17,8.24,5.77,11.96,8.38c15.11,10.59,31.57,18.21,49.73,21.7c19.64,3.77,38.19-0.32,56.14-8.43
			c13.06-5.9,24.7-14.1,37.32-22.89C588.03,655.63,588.03,666.83,588.03,678.03z"/>
		<path fill="#FEFEFE" d="M656.79,598.17c-11.87,0.03-20.81-8.91-20.79-20.79c0.02-11.38,9.15-20.32,20.77-20.31
			c10.86,0,20.75,9.89,20.8,20.8C677.62,589.33,668.6,598.14,656.79,598.17z"/>
		<path fill="#FEFEFE" d="M363.26,598.18c-11.84-0.18-20.38-9.15-20.19-21.21c0.17-11.04,9.47-20.02,20.64-19.91
			c11.69,0.12,20.79,9.77,20.5,21.76C383.95,590.13,375.04,598.36,363.26,598.18z"/>
		<path fill="#CD3E3E" d="M490.49,822.94c0.1-11.16,8.99-19.97,20.1-19.9c10.76,0.06,20.98,9.73,20.21,19.84
			c-0.89,11.59-8.65,19.84-20.89,19.76C498.58,842.58,490.67,834.77,490.49,822.94z"/>
	</g>
</g>
</svg>
