<?xml version="1.0" encoding="utf-8"?>
<!-- Generator: Adobe Illustrator 27.8.0, SVG Export Plug-In . SVG Version: 6.00 Build 0)  -->
<svg version="1.1" id="Capa_1" xmlns="http://www.w3.org/2000/svg" xmlns:xlink="http://www.w3.org/1999/xlink" x="0px" y="0px"
	 viewBox="0 0 1024 1024" enable-background="new 0 0 1024 1024" xml:space="preserve">
<g>
	<g>
		<path fill="#FEFEFE" d="M511.91,1023.89c-169.12,0-338.25-0.02-507.37,0.11c-3.96,0-4.49-1.12-4.49-4.7
			C0.14,681.21,0.14,343.12,0,5.04c0-4.48,1.24-5,5.22-5C343.14,0.14,681.05,0.14,1018.96,0c4.48,0,5,1.24,5,5.22
			c-0.1,337.92-0.1,675.84,0.04,1013.76c0,4.48-1.24,5-5.22,5C849.82,1023.88,680.86,1023.89,511.91,1023.89z M402.58,197.65
			c-1.68,2.58-3.72,3.04-5.47,3.88c-12.12,5.84-24.27,11.65-35.65,18.87c-9.13,5.78-18.36,11.51-25.86,19.42
			c-7.63,8.05-4.96,18.39,5.44,22.2c4.51,1.65,9.1,0.92,13.74,0.85c0.13,1.85-0.96,3.18-1.71,4.61c-6.65,12.6-9.88,26.11-9.77,40.27
			c0.13,16.69,4.15,32.52,12.22,47.22c3.58,6.53,3.58,6.48-1.79,11.32c-3.83,3.45-7.44,7.26-9.88,11.72
			c-17.57,32.02-4.9,70.22,24,89.09c3.82,2.49,8.69,3.32,10.57,9.32c6.49,20.7,16.68,39.59,30.81,56.2c1.3,1.53,1.72,3.08,1.71,5
			c-0.03,15.98-0.07,31.97,0.09,47.95c0.04,3.53-1.25,5.37-4.52,6.68c-11.09,4.46-22.11,9.09-33.07,13.85
			c-35.95,15.62-71.21,32.56-103.83,54.55c-16.85,11.35-31.91,24.47-42.45,42.12c-8.99,15.05-15.19,31.28-19.82,48.15
			c-7.14,26.02-11.2,52.56-13.23,79.41c-0.78,10.27,2.25,14.4,12.06,17.99c7.31,2.68,14.72,5.12,22.18,7.34
			c42.55,12.7,85.92,21.46,129.9,27.55c37.9,5.25,75.95,8.8,114.15,10.4c34.6,1.45,69.19,0.82,103.78-1.46
			c28.21-1.86,56.32-4.42,84.31-8.29c28.28-3.91,56.34-9.02,84.07-15.88c23.67-5.85,47.28-11.87,70.32-19.94
			c10.52-3.69,13.35-7.46,13.13-18.7c-0.04-1.83,0.02-3.68-0.22-5.49c-2.95-23.04-5.75-46.1-11.91-68.58
			c-5.94-21.7-13.15-42.82-26.83-61.13c-12.7-16.98-29.62-28.95-47.28-40.04c-39.64-24.89-82.2-43.89-125.29-61.76
			c-3.52-1.46-4.69-3.11-4.64-6.83c0.21-15.99,0.16-31.99,0.09-47.98c-0.01-2.48,0.68-4.41,2.22-6.36
			c13.63-17.19,24.29-35.99,30.45-57.16c0.69-2.38,2.32-3.41,4.28-4.46c8.45-4.51,15.94-10.24,21.84-17.87
			c12.74-16.44,18.15-34.73,14.38-55.52c-2.23-12.32-8.7-22.09-17.18-30.81c-1.97-2.02-3.27-3.68-1.23-6.7
			c11.36-16.84,17.88-35.56,19.72-55.7c2.42-26.48-4.02-50.23-24.11-68.86c-9.83-9.11-21.73-14.59-34.89-17.06
			c-4.68-0.88-6.95-2.4-5.5-7.68c1.78-6.48,1.32-13.25,1.02-19.88c-0.46-10.01-2.45-19.77-7-28.81c-1.71-3.41-3.77-6.65-7.28-8.64
			c-10.56-5.98-21.83,0.55-22.57,13.11c-0.1,1.77,0.48,4.09-1.68,4.71c-1.97,0.57-2.4-1.91-3.39-3.03
			c-7.58-8.64-15.32-17.11-24.78-23.74c-10.61-7.43-21.32-14.9-34.35-17.45c-5.7-1.12-10.96,0.62-14.47,5.65
			c-3.42,4.9-3.08,10.04,0.04,14.91c1.6,2.5,3.76,4.64,5.61,6.98c3.09,3.9,7.42,6.77,10.3,12.09c-28.47-7.93-56.49-11.24-85.12-8.25
			c-16.07,1.68-31.85,4.59-47.05,10.19c-8.16,3.01-12.01,8.86-11.11,16.25c0.74,6.06,6.83,11.36,14.35,12.58
			C396.97,196.48,399.5,197.05,402.58,197.65z M117.75,314.49c-0.9,41.34,31.76,85.22,83.16,83.99
			c45.39-1.09,78.99-37.14,81.13-79.51c2.57-51-37.46-89.03-81.45-89.16C154.3,229.66,118.14,266.43,117.75,314.49z M816.8,487.89
			c-44.5-1.29-83.27,37.55-80.81,85.58c2.04,39.72,35.62,79.72,83.6,77.71c43.77-1.84,79.27-39.18,77.32-86.33
			C895.24,524.41,861.03,486.7,816.8,487.89z M197.45,651.11c42.62,1.01,80.66-35.07,80.43-82.72
			c-0.22-44.22-35.48-80.27-79.34-80.69c-46.82-0.44-80.94,37.58-81.55,80.38C116.38,611.05,150.49,652.48,197.45,651.11z
			 M895.97,314.89c0.22-13-2.66-25.3-7.95-37.16c-19.98-44.78-75.87-62.15-116.9-35.31c-30.23,19.78-42.51,48.77-38.25,84.53
			c5.18,43.44,46.9,81.44,100.53,69.51C871.89,387.9,896.71,350.64,895.97,314.89z M713.24,515.53c6.07-0.13,11.46-5.19,11.5-10.8
			c0.04-5.34-5.71-10.8-11.11-10.57c-5.65,0.24-10.72,5.6-10.51,11.12C703.33,510.8,708.11,515.65,713.24,515.53z M126.13,444.11
			c0.06,5.73,4.99,10.83,10.29,10.64c5.94-0.21,10.73-5.11,10.65-10.9c-0.08-6.19-4.69-10.84-10.63-10.72
			C130.37,433.26,126.06,437.84,126.13,444.11z M887.99,443.87c0.04-5.98-4.35-10.74-9.97-10.81c-5.98-0.07-10.92,4.6-11.1,10.48
			c-0.17,5.44,5.22,11.22,10.56,11.33C883.06,455,887.95,449.88,887.99,443.87z M311.45,504.34c-0.1-5.31-5.61-10.49-10.9-10.25
			c-5.33,0.24-9.95,5.18-9.88,10.55c0.08,6.27,4.67,11.32,10.26,11.28C306.94,515.86,311.57,510.77,311.45,504.34z M829.02,444.22
			c0.04-6.21-4.35-10.94-10.21-10.99c-5.78-0.04-10.63,4.51-10.78,10.1c-0.15,5.94,4.69,11.36,10.14,11.34
			C824.29,454.65,828.98,450.13,829.02,444.22z M333.45,493.22c0.21-5.72-3.89-10.33-9.43-10.61c-6.13-0.31-11.32,4.21-11.4,9.92
			c-0.07,5.59,4.57,10.81,9.92,11.17C328.2,504.07,333.23,499.23,333.45,493.22z M691.7,482.69c-5.87,0.1-10.55,4.6-10.59,10.19
			c-0.04,5.82,4.68,10.84,10.12,10.76c6.13-0.08,10.91-5.06,10.78-11.22C701.89,486.77,697.47,482.59,691.7,482.69z M294.1,381.95
			c-6.04,0.05-10.82,4.8-10.66,10.6c0.16,5.85,4.77,10.53,10.31,10.46c5.72-0.07,10.79-5.14,10.76-10.75
			C304.47,386.46,299.86,381.9,294.1,381.95z M719.92,381.69c-5.75,0.11-10.02,4.74-9.95,10.79c0.07,6.24,4.36,10.67,10.13,10.48
			c6.16-0.21,10.93-4.93,10.8-10.69C730.79,386.53,725.66,381.59,719.92,381.69z M206.19,444.36c0.1-6.29-4.23-10.85-10.34-10.86
			c-5.47-0.01-10.22,4.48-10.5,9.92c-0.29,5.78,4.58,11.1,10.28,11.23C201.18,454.77,206.09,449.98,206.19,444.36z"/>
		<path fill="#AE2C2A" d="M402.58,197.65c-3.07-0.6-5.61-1.17-8.16-1.59c-7.52-1.22-13.61-6.51-14.35-12.58
			c-0.91-7.39,2.95-13.24,11.11-16.25c15.19-5.6,30.98-8.52,47.05-10.19c28.63-2.99,56.65,0.33,85.12,8.25
			c-2.88-5.32-7.21-8.2-10.3-12.09c-1.86-2.34-4.01-4.48-5.61-6.98c-3.12-4.87-3.46-10.02-0.04-14.91
			c3.51-5.03,8.77-6.77,14.47-5.65c13.03,2.55,23.74,10.02,34.35,17.45c9.46,6.62,17.2,15.1,24.78,23.74
			c0.99,1.13,1.42,3.6,3.39,3.03c2.16-0.62,1.58-2.94,1.68-4.71c0.74-12.56,12.01-19.09,22.57-13.11c3.51,1.98,5.56,5.23,7.28,8.64
			c4.55,9.04,6.54,18.79,7,28.81c0.31,6.63,0.76,13.4-1.02,19.88c-1.45,5.28,0.82,6.8,5.5,7.68c13.15,2.47,25.06,7.94,34.89,17.06
			c20.09,18.63,26.53,42.38,24.11,68.86c-1.84,20.14-8.36,38.85-19.72,55.7c-2.04,3.02-0.73,4.68,1.23,6.7
			c8.49,8.72,14.96,18.49,17.18,30.81c3.76,20.8-1.64,39.08-14.38,55.52c-5.91,7.62-13.39,13.36-21.84,17.87
			c-1.97,1.05-3.59,2.08-4.28,4.46c-6.16,21.17-16.82,39.97-30.45,57.16c-1.54,1.94-2.23,3.87-2.22,6.36
			c0.07,15.99,0.12,31.99-0.09,47.98c-0.05,3.72,1.12,5.37,4.64,6.83c43.09,17.88,85.65,36.87,125.29,61.76
			c17.66,11.09,34.59,23.06,47.28,40.04c13.69,18.3,20.89,39.42,26.83,61.13c6.15,22.49,8.96,45.55,11.91,68.58
			c0.23,1.81,0.18,3.66,0.22,5.49c0.22,11.24-2.6,15.01-13.13,18.7c-23.04,8.08-46.65,14.09-70.32,19.94
			c-27.73,6.86-55.79,11.97-84.07,15.88c-27.99,3.87-56.1,6.43-84.31,8.29c-34.59,2.28-69.18,2.91-103.78,1.46
			c-38.2-1.6-76.25-5.15-114.15-10.4c-43.98-6.09-87.35-14.86-129.9-27.55c-7.46-2.23-14.87-4.67-22.18-7.34
			c-9.82-3.59-12.84-7.72-12.06-17.99c2.03-26.85,6.09-53.4,13.23-79.41c4.63-16.87,10.83-33.1,19.82-48.15
			c10.54-17.65,25.6-30.76,42.45-42.12c32.62-21.99,67.88-38.93,103.83-54.55c10.96-4.76,21.98-9.39,33.07-13.85
			c3.27-1.32,4.56-3.15,4.52-6.68c-0.16-15.98-0.12-31.97-0.09-47.95c0-1.92-0.42-3.47-1.71-5c-14.13-16.61-24.32-35.5-30.81-56.2
			c-1.88-6-6.75-6.83-10.57-9.32c-28.89-18.87-41.57-57.07-24-89.09c2.44-4.45,6.06-8.27,9.88-11.72c5.37-4.84,5.37-4.79,1.79-11.32
			c-8.06-14.7-12.08-30.53-12.22-47.22c-0.11-14.16,3.12-27.67,9.77-40.27c0.76-1.44,1.85-2.76,1.71-4.61
			c-4.63,0.07-9.22,0.8-13.74-0.85c-10.4-3.81-13.07-14.15-5.44-22.2c7.5-7.91,16.73-13.64,25.86-19.42
			c11.39-7.22,23.53-13.03,35.65-18.87C398.85,200.69,400.9,200.23,402.58,197.65z M509.74,863.37c28.13,0.03,56.23-0.99,84.26-3.41
			c15.24-1.31,30.52-2.41,45.68-4.31c23.89-3,47.68-6.66,71.28-11.56c27.31-5.67,54.24-12.78,81.08-20.28
			c3.39-0.95,4.19-2.82,3.81-6.08c-2.98-25.62-7.2-50.96-15.94-75.35c-6.21-17.31-15.07-32.73-29.84-44.36
			c-17.98-14.16-37.79-25.31-57.79-36.19c-15.83-8.62-32.02-16.53-48.45-23.96c-2.94-1.33-4.08-0.59-5.23,2.01
			c-1.98,4.51-4.28,8.89-6.29,13.39c-13.26,29.66-29.02,57.83-50.14,82.7c-20.22,23.82-43.2,44.7-68.19,63.41
			c-2.24,1.68-4.05,1.87-6.56-0.04c-12.19-9.27-23.89-19.13-35.18-29.47c-23.93-21.91-44.96-46.21-61.25-74.41
			c-10.23-17.7-19.06-36.12-27.77-54.59c-1.83-3.89-3.82-4.57-7.66-2.67c-30.23,14.9-60.64,29.45-88.59,48.52
			c-13.54,9.24-26.56,19.05-34.62,33.86c-16.62,30.53-22.27,63.91-25.41,97.97c-0.37,4.03,1.14,5.3,4.7,6.32
			c57.32,16.35,115.56,27.68,174.94,33.23C440.92,861.31,475.27,863.32,509.74,863.37z M400.48,359.9c-0.03,0-0.06,0-0.1,0
			c0,13.31,0.08,26.63-0.08,39.94c-0.02,2.13,0.57,4.97-2.3,6.09c-3,1.16-5.44-0.04-7.7-2.11c-3.94-3.62-7.44-7.62-10.21-12.18
			c-2.12-3.47-3.99-3.01-6.44-0.34c-6.92,7.55-8.32,16.41-6.13,25.99c3.12,13.66,11.68,22.49,25.03,26.47
			c5.56,1.66,8.73,4.61,10.59,10.43c8.76,27.37,21.44,52.61,42.32,73.01c23.52,22.98,51.13,33.71,84.05,26.84
			c24.98-5.22,43.64-20.27,58.99-39.97c14.26-18.32,24.09-38.94,31.27-60.86c1.62-4.95,4.15-7.75,9.16-9.27
			c11.32-3.45,20.05-10.1,24.3-21.7c3.77-10.32,3.91-20.22-3.35-29.16c-4.03-4.96-5.66-4.68-9.23,0.5
			c-3.04,4.39-6.33,8.64-10.95,11.46c-5.24,3.21-7.76,1.85-7.78-4.02c-0.03-13.99,0.01-27.99,0.03-41.98c0-2.15,0.15-3.98-2.36-5.4
			c-14.07-7.96-23.66-20.11-31.08-34.17c-7.59-14.4-11.7-29.92-14.32-45.86c-0.54-3.32-1.66-3.6-4.08-1.92
			c-1.09,0.76-2.09,1.64-3.14,2.46c-24.69,19.39-52.36,32.4-83.07,39.03c-26.29,5.68-52.79,5.95-79.39,3.46
			c-3.5-0.33-4.14,0.53-4.1,3.79C400.58,333.58,400.48,346.74,400.48,359.9z M580.26,564.42c-46.44,29.29-92.2,30.04-138.32-0.09
			c0,10.84,0.1,20.65-0.06,30.46c-0.05,2.9,0.97,5.08,2.78,7.18c14.42,16.7,30.2,31.78,49.32,43.15c15.48,9.21,18.03,9.32,33.4,0.29
			c18.28-10.74,33.38-25.17,47.5-40.72c1.94-2.14,4.91-3.92,5.1-7.14C580.6,586.75,580.67,575.96,580.26,564.42z M546.35,729.53
			c-0.49-0.8-0.86-1.51-1.32-2.15c-10.35-14.41-20.69-28.83-31.06-43.22c-2.3-3.19-4.3-3.14-6.71,0.25
			c-10.06,14.18-20.27,28.25-30.51,42.3c-1.38,1.89-1.51,2.99,0.32,4.83c10.18,10.26,20.74,20.1,31.56,29.68
			c1.88,1.66,3.04,1.42,4.61,0c10.45-9.47,21.06-18.78,30.93-28.88C544.95,731.55,545.56,730.57,546.35,729.53z M566.62,705.63
			c2.41-0.32,2.95-1.64,3.66-2.72c15.9-24.16,29.05-49.83,41.67-75.8c0.51-1.06,1.45-2.2,0.13-3.59c-3.12-3.3-8.83-3.64-11.77-0.29
			c-16.01,18.2-33.57,34.56-54.7,46.74c-2.72,1.57-2.74,3.17-0.98,5.55c6.71,9.07,13.3,18.23,19.95,27.35
			C565.34,703.94,566.14,704.99,566.62,705.63z M454.4,704.9c1.35-0.44,2.07-1.56,2.84-2.64c6.4-8.88,12.71-17.83,19.27-26.6
			c2.34-3.13,0.97-4.44-1.69-6.06c-14.09-8.56-27.04-18.61-38.37-30.62c-5.12-5.43-10.17-10.96-14.93-16.7
			c-3.9-4.7-7.29-1.05-10.52,0.45c-3.23,1.5-0.83,4.07,0.06,5.92c4.23,8.8,8.54,17.58,13,26.27c8.26,16.08,16.79,32.01,27.29,46.79
			C452.19,702.89,452.82,704.34,454.4,704.9z"/>
		<path fill="#AE2C2A" d="M117.75,314.49c0.39-48.06,36.55-84.83,82.83-84.69c44,0.13,84.02,38.16,81.45,89.16
			c-2.13,42.37-35.74,78.42-81.13,79.51C149.5,399.71,116.85,355.83,117.75,314.49z M226.11,302.34c-0.03,0-0.06,0-0.1,0
			c0-13.83,0-27.66,0-41.49c0-2.43,0.01-4.78-3.53-4.68c-18.81,0.56-37.65-0.68-56.45,0.76c-6.37,0.49-7.39,3.1-7.43,13.55
			c-0.02,6.52,4.35,4.5,7.49,4.53c13.49,0.15,26.99,0.04,40.49,0.12c2.75,0.02,5.67,0.5,5.55,4.2c-0.1,3.24-2.64,3.89-5.32,4.01
			c-3.49,0.16-6.99,0.37-10.48,0.39c-11.16,0.07-22.33,0.14-33.49,0.04c-2.97-0.03-4.59,0.34-4.29,3.97
			c0.39,4.8,0.24,9.66,0.16,14.48c-0.05,2.84,0.74,4.15,3.95,4.01c5.82-0.25,11.66-0.07,17.49,0.01c2.68,0.04,4.59,1.45,4.67,4.16
			c0.09,2.93-1.95,3.81-4.66,3.85c-6,0.08-11.99,0.49-17.98,0.4c-3.28-0.05-3.4,1.68-3.32,4.08c0.08,2.39-0.24,4.57,3.51,4.38
			c5.81-0.3,11.66-0.07,17.49,0.02c2.65,0.04,5.34,0.68,5.2,3.98c-0.13,3.07-2.55,3.93-5.37,3.92c-5.33-0.03-10.67,0.21-15.99-0.03
			c-3.48-0.15-5.5,0.57-4.99,4.55c0.19,1.47,0.01,2.98,0.1,4.47c0.48,7.33,1.05,7.95,8.21,7.96c18,0.03,35.99-0.12,53.99,0.04
			c3.97,0.03,5.22-1.3,5.17-5.2C226.01,329.33,226.11,315.83,226.11,302.34z M192.12,357.17c0-0.02,0-0.04,0-0.07
			c-9.47,0-18.95-0.05-28.42,0.05c-1.84,0.02-4.4-1.09-5.37,1.09c-1,2.23,0.46,4.48,1.68,6.46c1.67,2.71,4.29,3.43,7.28,3.42
			c18.28-0.03,36.57-0.16,54.85,0.03c5.23,0.05,3.65-3.44,3.93-6.09c0.31-2.95-0.01-5.07-4.03-4.97
			C212.07,357.33,202.09,357.17,192.12,357.17z M237.97,317.89c0.02,0,0.04,0,0.05,0c0,8.14,0.08,16.28-0.04,24.42
			c-0.04,2.72,0.77,4.08,3.66,3.8c1.48-0.14,3-0.16,4.48-0.04c3.55,0.28,4.99-1,4.93-4.82c-0.23-14.28,0.15-28.58-0.28-42.85
			c-0.3-10,1.33-8.03-8.57-8.5c-3.68-0.17-4.4,1.26-4.3,4.58C238.12,302.27,237.97,310.08,237.97,317.89z M244.61,277.96
			c1.79-0.89,5.93,1.68,5.54-3.57c-0.29-3.82-1.43-6.97-5.91-7.25c-3.68-0.23-5.95,2.67-6.16,6.87
			C237.81,279.29,241.6,277.54,244.61,277.96z M244.21,363.34c2.17-4.31,6.31-7.98,4.9-10.82c-1.35-2.72-6.64-1.01-10.22-0.95
			c-0.21,0-0.41,0.41-0.87,0.89C239.89,355.76,241.81,359.14,244.21,363.34z"/>
		<path fill="#AE2C2A" d="M816.8,487.89c44.23-1.2,78.44,36.52,80.11,76.96c1.95,47.14-33.54,84.49-77.32,86.33
			c-47.99,2.01-81.57-37.99-83.6-77.71C733.53,525.45,772.3,486.61,816.8,487.89z M815.62,617.02c0-0.01,0-0.02,0-0.04
			c13.16,0,26.31,0.03,39.47-0.01c6.47-0.02,8.56-1.83,8.63-8.19c0.18-15.98,0.07-31.97,0.17-47.96c0.02-2.79-0.46-4.26-3.52-2.51
			c-10.8,6.18-21.61,12.35-32.42,18.5c-2.3,1.31-2.22,2.69-0.82,4.8c2.57,3.86,4.9,7.9,7.15,11.96c0.8,1.45,2.98,3.51-0.44,4.56
			c-2.33,0.72-4.64,3.8-7.16-0.29c-2.43-3.94-5.55-7.46-8.4-11.14c-1.52-1.95-2.88-2.21-4.81-0.11c-3.37,3.68-6.91,7.23-9.51,11.49
			c-2.56,4.19-4.77,0.71-7.08-0.04c-3.52-1.14-0.88-2.8-0.14-4.04c2.62-4.42,5.35-8.78,8.12-13.11c0.88-1.38,1.58-2.48-0.34-3.59
			c-10.9-6.33-21.75-12.76-32.68-19.03c-2.51-1.44-3.87-0.83-3.7,2.52c0.83,16.14,0.3,32.29,0.31,48.43c0,6.28,1.68,7.77,8.19,7.78
			C789.64,617.03,802.63,617.02,815.62,617.02z M774.43,549.77c1.51,0.09,2.61-1.14,3.78-1.94c11.11-7.6,23.05-13.81,34.52-20.79
			c2.36-1.44,4.29-1.88,6.82-0.37c10.83,6.45,22.16,12.16,32.47,19.34c5.34,3.72,8.97,3.08,13.75,0.2c3.51-2.12,2.74-3.59-0.11-5.23
			c-15.54-8.9-31.11-17.77-46.65-26.68c-2.09-1.2-3.83-1.08-5.98,0.19c-7.57,4.47-15.3,8.66-22.95,13.01
			c-7.92,4.5-15.83,9.01-23.67,13.65c-1.16,0.68-3.94,1.68-1.73,3.52C767.44,546.95,770.59,548.97,774.43,549.77z M816.51,572.17
			c0.81-0.36,1.59-0.63,2.29-1.04c8.42-4.98,16.79-10.04,25.26-14.94c3.16-1.83,2.14-2.89-0.28-4.27
			c-8.64-4.92-17.23-9.93-25.84-14.9c-1.32-0.76-2.47-1.23-4.1-0.22c-8.04,4.96-16.16,9.78-24.29,14.59
			c-2.87,1.7-3.6,3.08-0.13,5.07c8.19,4.7,16.25,9.62,24.38,14.42C814.63,571.38,815.56,571.72,816.51,572.17z"/>
		<path fill="#AE2C2A" d="M197.45,651.11c-46.97,1.36-81.07-40.06-80.46-83.03c0.61-42.8,34.73-80.82,81.55-80.38
			c43.86,0.42,79.12,36.46,79.34,80.69C278.12,616.04,240.07,652.13,197.45,651.11z M240.44,570.18c0-13.32,0.21-26.65-0.07-39.96
			c-0.19-9.24-4.58-13.14-13.82-13.15c-19.65-0.03-39.3-0.02-58.96,0c-11.13,0.01-15.16,3.84-15.2,14.87
			c-0.1,26.65-0.12,53.29-0.03,79.94c0.04,10.71,5.05,12.95,12.67,13.01c21.32,0.16,42.63,0.15,63.95,0.06
			c6.38-0.02,10.54-4.02,11.15-10.34C241.56,599.81,240.41,584.98,240.44,570.18z"/>
		<path fill="#AE2C2A" d="M895.97,314.89c0.74,35.75-24.08,73.01-62.57,81.57c-53.63,11.93-95.35-26.07-100.53-69.51
			c-4.27-35.76,8.01-64.75,38.25-84.53c41.02-26.84,96.92-9.47,116.9,35.31C893.31,289.59,896.19,301.89,895.97,314.89z
			 M855.99,270.2c-0.13,0.51-0.27,1.01-0.4,1.52c-7.41,0-14.82,0-22.23,0c-2.44,0-3.81-1.07-3.42-3.66
			c0.68-4.54-1.79-5.04-5.56-5.01c-16.66,0.16-33.32,0.05-49.98,0.08c-9.26,0.02-12.24,3.06-12.24,12.29
			c0,23.83-0.03,47.65,0.03,71.48c0.01,5.49,0.14,11,0.57,16.47c0.45,5.67,3.8,8.78,9.42,8.79c26.65,0.07,53.31,0.08,79.97,0
			c6.87-0.02,9.49-2.81,9.52-9.86c0.11-28.99,0.12-57.98,0.28-86.97c0.02-3.12-1.11-5.34-3.26-7.39
			c-6.02-5.74-11.93-11.6-17.96-17.33c-2.82-2.68-5.84-5.16-8.77-7.74C838.2,253.64,848.88,260.35,855.99,270.2z"/>
		<path fill="#AE2C2A" d="M713.24,515.53c-5.14,0.11-9.92-4.73-10.12-10.25c-0.2-5.52,4.86-10.88,10.51-11.12
			c5.41-0.23,11.15,5.24,11.11,10.57C724.7,510.34,719.31,515.4,713.24,515.53z"/>
		<path fill="#AE2C2A" d="M126.13,444.11c-0.06-6.27,4.24-10.85,10.31-10.98c5.94-0.12,10.55,4.53,10.63,10.72
			c0.07,5.79-4.72,10.69-10.65,10.9C131.12,454.94,126.18,449.84,126.13,444.11z"/>
		<path fill="#AE2C2A" d="M887.99,443.87c-0.04,6-4.93,11.13-10.51,11.01c-5.34-0.11-10.73-5.9-10.56-11.33
			c0.19-5.89,5.12-10.55,11.1-10.48C883.64,433.13,888.04,437.89,887.99,443.87z"/>
		<path fill="#AE2C2A" d="M311.45,504.34c0.12,6.44-4.51,11.53-10.52,11.57c-5.59,0.04-10.18-5-10.26-11.28
			c-0.07-5.37,4.55-10.31,9.88-10.55C305.84,493.84,311.35,499.03,311.45,504.34z"/>
		<path fill="#AE2C2A" d="M829.02,444.22c-0.04,5.91-4.73,10.43-10.85,10.45c-5.45,0.02-10.29-5.4-10.14-11.34
			c0.14-5.59,5-10.14,10.78-10.1C824.67,433.28,829.07,438.01,829.02,444.22z"/>
		<path fill="#AE2C2A" d="M333.45,493.22c-0.22,6.02-5.25,10.85-10.91,10.48c-5.35-0.36-9.99-5.57-9.92-11.17
			c0.07-5.7,5.27-10.22,11.4-9.92C329.57,482.89,333.66,487.49,333.45,493.22z"/>
		<path fill="#AE2C2A" d="M691.7,482.69c5.77-0.09,10.19,4.08,10.31,9.73c0.13,6.15-4.65,11.13-10.78,11.22
			c-5.45,0.08-10.16-4.94-10.12-10.76C681.15,487.28,685.83,482.79,691.7,482.69z"/>
		<path fill="#AE2C2A" d="M294.1,381.95c5.77-0.05,10.37,4.51,10.4,10.31c0.03,5.61-5.04,10.67-10.76,10.75
			c-5.54,0.07-10.15-4.61-10.31-10.46C283.28,386.75,288.05,382,294.1,381.95z"/>
		<path fill="#AE2C2A" d="M719.92,381.69c5.73-0.11,10.87,4.84,10.99,10.57c0.12,5.77-4.65,10.49-10.8,10.69
			c-5.77,0.2-10.06-4.24-10.13-10.48C709.9,386.43,714.17,381.8,719.92,381.69z"/>
		<path fill="#AE2C2A" d="M206.19,444.36c-0.09,5.63-5.01,10.42-10.56,10.29c-5.7-0.13-10.57-5.45-10.28-11.23
			c0.28-5.44,5.03-9.92,10.5-9.92C201.95,433.51,206.29,438.06,206.19,444.36z"/>
		<path fill="#FEFEFE" d="M509.74,863.37c-34.47-0.05-68.83-2.06-103.15-5.27c-59.39-5.55-117.63-16.89-174.94-33.23
			c-3.56-1.02-5.07-2.29-4.7-6.32c3.14-34.05,8.79-67.43,25.41-97.97c8.06-14.81,21.08-24.61,34.62-33.86
			c27.94-19.07,58.35-33.62,88.59-48.52c3.84-1.89,5.82-1.21,7.66,2.67c8.71,18.47,17.54,36.88,27.77,54.59
			c16.3,28.2,37.32,52.5,61.25,74.41c11.29,10.34,22.98,20.19,35.18,29.47c2.51,1.91,4.32,1.72,6.56,0.04
			c24.98-18.71,47.97-39.59,68.19-63.41c21.12-24.88,36.87-53.04,50.14-82.7c2.01-4.5,4.31-8.88,6.29-13.39
			c1.15-2.61,2.29-3.34,5.23-2.01c16.43,7.43,32.62,15.34,48.45,23.96c20,10.88,39.81,22.03,57.79,36.19
			c14.78,11.63,23.64,27.05,29.84,44.36c8.75,24.4,12.96,49.74,15.94,75.35c0.38,3.26-0.41,5.13-3.81,6.08
			c-26.84,7.5-53.77,14.61-81.08,20.28c-23.61,4.9-47.4,8.56-71.28,11.56c-15.17,1.91-30.44,3-45.68,4.31
			C565.97,862.38,537.88,863.39,509.74,863.37z"/>
		<path fill="#FEFEFE" d="M400.48,359.9c0-13.16,0.1-26.32-0.07-39.48c-0.04-3.26,0.6-4.11,4.1-3.79
			c26.61,2.5,53.11,2.22,79.39-3.46c30.71-6.63,58.38-19.64,83.07-39.03c1.05-0.82,2.05-1.7,3.14-2.46c2.42-1.69,3.54-1.4,4.08,1.92
			c2.61,15.94,6.73,31.46,14.32,45.86c7.42,14.06,17.01,26.21,31.08,34.17c2.51,1.42,2.36,3.25,2.36,5.4
			c-0.02,13.99-0.06,27.99-0.03,41.98c0.01,5.87,2.53,7.23,7.78,4.02c4.62-2.83,7.92-7.07,10.95-11.46c3.58-5.18,5.21-5.46,9.23-0.5
			c7.26,8.93,7.12,18.84,3.35,29.16c-4.24,11.6-12.97,18.24-24.3,21.7c-5.01,1.53-7.54,4.32-9.16,9.27
			c-7.18,21.92-17,42.55-31.27,60.86c-15.35,19.71-34,34.75-58.99,39.97c-32.92,6.87-60.52-3.86-84.05-26.84
			c-20.88-20.4-33.56-45.64-42.32-73.01c-1.86-5.82-5.03-8.77-10.59-10.43c-13.34-3.98-21.9-12.81-25.03-26.47
			c-2.19-9.58-0.79-18.44,6.13-25.99c2.45-2.67,4.32-3.13,6.44,0.34c2.78,4.56,6.28,8.55,10.21,12.18c2.25,2.07,4.69,3.28,7.7,2.11
			c2.87-1.11,2.28-3.96,2.3-6.09c0.15-13.31,0.08-26.63,0.08-39.94C400.42,359.9,400.45,359.9,400.48,359.9z"/>
		<path fill="#FEFEFE" d="M580.26,564.42c0.41,11.55,0.35,22.34-0.28,33.12c-0.19,3.21-3.15,4.99-5.1,7.14
			c-14.12,15.55-29.22,29.98-47.5,40.72c-15.37,9.03-17.92,8.92-33.4-0.29c-19.12-11.37-34.91-26.45-49.32-43.15
			c-1.81-2.09-2.82-4.27-2.78-7.18c0.15-9.81,0.06-19.62,0.06-30.46C488.06,594.46,533.82,593.7,580.26,564.42z"/>
		<path fill="#FEFEFE" d="M546.35,729.53c-0.8,1.04-1.4,2.02-2.19,2.83c-9.87,10.09-20.48,19.4-30.93,28.88
			c-1.57,1.42-2.73,1.66-4.61,0c-10.82-9.58-21.38-19.42-31.56-29.68c-1.83-1.84-1.7-2.94-0.32-4.83
			c10.24-14.05,20.46-28.12,30.51-42.3c2.41-3.39,4.4-3.44,6.71-0.25c10.37,14.39,20.72,28.81,31.06,43.22
			C545.49,728.02,545.86,728.73,546.35,729.53z"/>
		<path fill="#FEFEFE" d="M566.62,705.63c-0.48-0.64-1.28-1.69-2.06-2.76c-6.64-9.12-13.23-18.28-19.95-27.35
			c-1.76-2.38-1.73-3.99,0.98-5.55c21.13-12.18,38.7-28.54,54.7-46.74c2.94-3.34,8.65-3.01,11.77,0.29
			c1.32,1.39,0.38,2.54-0.13,3.59c-12.62,25.96-25.76,51.64-41.67,75.8C569.57,703.99,569.03,705.31,566.62,705.63z"/>
		<path fill="#FEFEFE" d="M454.4,704.9c-1.58-0.56-2.21-2-3.06-3.19c-10.5-14.77-19.03-30.71-27.29-46.79
			c-4.46-8.69-8.77-17.46-13-26.27c-0.89-1.86-3.29-4.42-0.06-5.92c3.23-1.5,6.62-5.16,10.52-0.45c4.77,5.74,9.81,11.27,14.93,16.7
			c11.33,12.02,24.28,22.06,38.37,30.62c2.67,1.62,4.04,2.92,1.69,6.06c-6.55,8.77-12.86,17.72-19.27,26.6
			C456.47,703.33,455.75,704.45,454.4,704.9z"/>
		<path fill="#FEFEFE" d="M226.11,302.34c0,13.5-0.11,26.99,0.07,40.49c0.05,3.9-1.2,5.23-5.17,5.2
			c-17.99-0.15-35.99-0.01-53.99-0.04c-7.15-0.01-7.73-0.63-8.21-7.96c-0.1-1.49,0.08-3-0.1-4.47c-0.51-3.98,1.51-4.71,4.99-4.55
			c5.32,0.24,10.66-0.01,15.99,0.03c2.82,0.02,5.24-0.84,5.37-3.92c0.14-3.29-2.55-3.93-5.2-3.98c-5.83-0.09-11.68-0.32-17.49-0.02
			c-3.76,0.19-3.43-1.99-3.51-4.38c-0.08-2.4,0.04-4.13,3.32-4.08c5.99,0.09,11.99-0.32,17.98-0.4c2.71-0.03,4.75-0.92,4.66-3.85
			c-0.08-2.72-1.98-4.12-4.67-4.16c-5.83-0.08-11.67-0.26-17.49-0.01c-3.21,0.14-4-1.17-3.95-4.01c0.08-4.83,0.23-9.68-0.16-14.48
			c-0.29-3.63,1.33-4,4.29-3.97c11.16,0.11,22.33,0.03,33.49-0.04c3.49-0.02,6.99-0.23,10.48-0.39c2.68-0.12,5.22-0.77,5.32-4.01
			c0.11-3.7-2.8-4.18-5.55-4.2c-13.5-0.08-26.99,0.03-40.49-0.12c-3.14-0.03-7.51,1.99-7.49-4.53c0.04-10.45,1.06-13.06,7.43-13.55
			c18.8-1.44,37.64-0.2,56.45-0.76c3.54-0.11,3.53,2.25,3.53,4.68c0.01,13.83,0,27.66,0,41.49
			C226.05,302.34,226.08,302.34,226.11,302.34z"/>
		<path fill="#FEFEFE" d="M192.12,357.17c9.97,0,19.95,0.16,29.92-0.08c4.01-0.09,4.34,2.02,4.03,4.97
			c-0.28,2.65,1.3,6.14-3.93,6.09c-18.28-0.19-36.57-0.06-54.85-0.03c-2.99,0.01-5.61-0.71-7.28-3.42
			c-1.22-1.99-2.68-4.24-1.68-6.46c0.98-2.18,3.54-1.07,5.37-1.09c9.47-0.1,18.95-0.05,28.42-0.05
			C192.12,357.13,192.12,357.15,192.12,357.17z"/>
		<path fill="#FEFEFE" d="M237.97,317.89c0-7.81,0.15-15.62-0.07-23.42c-0.09-3.32,0.62-4.75,4.3-4.58c9.91,0.46,8.27-1.51,8.57,8.5
			c0.43,14.27,0.05,28.57,0.28,42.85c0.06,3.82-1.38,5.1-4.93,4.82c-1.48-0.12-3-0.1-4.48,0.04c-2.9,0.28-3.7-1.08-3.66-3.8
			c0.12-8.14,0.04-16.28,0.04-24.42C238.01,317.89,237.99,317.89,237.97,317.89z"/>
		<path fill="#FEFEFE" d="M244.61,277.96c-3.02-0.43-6.81,1.32-6.53-3.95c0.22-4.19,2.48-7.09,6.16-6.87
			c4.48,0.28,5.62,3.42,5.91,7.25C250.55,279.65,246.41,277.07,244.61,277.96z"/>
		<path fill="#FEFEFE" d="M244.21,363.34c-2.39-4.2-4.32-7.59-6.19-10.88c0.45-0.48,0.66-0.89,0.87-0.89
			c3.58-0.06,8.88-1.77,10.22,0.95C250.51,355.36,246.38,359.03,244.21,363.34z"/>
		<path fill="#FEFEFE" d="M815.62,617.02c-12.99,0-25.98,0.02-38.97-0.01c-6.51-0.01-8.19-1.5-8.19-7.78
			c-0.01-16.15,0.51-32.3-0.31-48.43c-0.17-3.35,1.19-3.96,3.7-2.52c10.93,6.28,21.78,12.7,32.68,19.03
			c1.92,1.11,1.22,2.21,0.34,3.59c-2.77,4.33-5.5,8.69-8.12,13.11c-0.74,1.24-3.38,2.9,0.14,4.04c2.31,0.75,4.52,4.23,7.08,0.04
			c2.6-4.26,6.14-7.81,9.51-11.49c1.92-2.1,3.29-1.85,4.81,0.11c2.86,3.67,5.98,7.19,8.4,11.14c2.52,4.09,4.83,1.01,7.16,0.29
			c3.42-1.05,1.24-3.11,0.44-4.56c-2.25-4.06-4.57-8.1-7.15-11.96c-1.4-2.11-1.49-3.49,0.82-4.8c10.82-6.15,21.62-12.32,32.42-18.5
			c3.06-1.75,3.53-0.29,3.52,2.51c-0.1,15.99,0.01,31.97-0.17,47.96c-0.07,6.36-2.16,8.17-8.63,8.19
			c-13.16,0.05-26.31,0.01-39.47,0.01C815.62,616.99,815.62,617.01,815.62,617.02z"/>
		<path fill="#FEFEFE" d="M774.43,549.77c-3.84-0.8-6.99-2.82-9.75-5.11c-2.21-1.84,0.57-2.83,1.73-3.52
			c7.84-4.64,15.75-9.15,23.67-13.65c7.64-4.35,15.38-8.54,22.95-13.01c2.15-1.27,3.89-1.39,5.98-0.19
			c15.54,8.91,31.1,17.78,46.65,26.68c2.85,1.63,3.62,3.11,0.11,5.23c-4.77,2.88-8.41,3.52-13.75-0.2
			c-10.31-7.18-21.64-12.89-32.47-19.34c-2.53-1.51-4.46-1.06-6.82,0.37c-11.47,6.99-23.41,13.19-34.52,20.79
			C777.04,548.62,775.94,549.85,774.43,549.77z"/>
		<path fill="#FEFEFE" d="M816.51,572.17c-0.96-0.45-1.89-0.79-2.72-1.28c-8.13-4.81-16.19-9.72-24.38-14.42
			c-3.47-1.99-2.74-3.37,0.13-5.07c8.13-4.81,16.26-9.62,24.29-14.59c1.63-1.01,2.78-0.54,4.1,0.22c8.61,4.97,17.2,9.98,25.84,14.9
			c2.42,1.38,3.44,2.44,0.28,4.27c-8.47,4.9-16.84,9.96-25.26,14.94C818.11,571.54,817.33,571.8,816.51,572.17z"/>
		<path fill="#FEFEFE" d="M240.44,570.18c-0.03,14.81,1.12,29.64-0.31,44.43c-0.61,6.31-4.77,10.31-11.15,10.34
			c-21.32,0.08-42.63,0.09-63.95-0.06c-7.62-0.06-12.64-2.3-12.67-13.01c-0.09-26.65-0.07-53.29,0.03-79.94
			c0.04-11.02,4.08-14.85,15.2-14.87c19.65-0.02,39.3-0.03,58.96,0c9.25,0.01,13.63,3.92,13.82,13.15
			C240.65,543.53,240.44,556.85,240.44,570.18z M228.1,565.18c0.01,0,0.02,0,0.04,0c0-10.32-0.16-20.65,0.09-30.96
			c0.08-3.59-1.21-4.5-4.52-4.48c-18.64,0.13-37.29,0.13-55.93,0.1c-2.41,0-3.55,0.53-3.52,3.31c0.18,21.47,0.22,42.94,0.26,64.4
			c0,2,0.42,3.02,2.74,3.01c19.12-0.09,38.24-0.12,57.36-0.04c2.93,0.01,3.59-1.18,3.56-3.87
			C228.03,586.16,228.1,575.67,228.1,565.18z M200.22,612.82c-0.23-2.77-1.27-4.91-4.47-4.8c-3.22,0.11-4.71,2.13-4.83,5.21
			c-0.12,3.14,1.93,4.74,4.59,4.77C198.51,618.02,200.39,616.17,200.22,612.82z"/>
		<path fill="#FEFEFE" d="M855.99,270.2c-7.12-9.85-17.79-16.55-24.03-27.33c2.93,2.57,5.94,5.06,8.77,7.74
			c6.03,5.73,11.93,11.6,17.96,17.33c2.16,2.05,3.28,4.27,3.26,7.39c-0.17,28.99-0.17,57.98-0.28,86.97
			c-0.03,7.05-2.65,9.84-9.52,9.86c-26.65,0.08-53.31,0.07-79.97,0c-5.61-0.01-8.97-3.12-9.42-8.79
			c-0.43-5.47-0.56-10.98-0.57-16.47c-0.06-23.83-0.03-47.65-0.03-71.48c0-9.23,2.98-12.27,12.24-12.29
			c16.66-0.03,33.32,0.08,49.98-0.08c3.78-0.04,6.24,0.46,5.56,5.01c-0.39,2.59,0.98,3.66,3.42,3.66c7.41,0,14.82,0,22.23,0
			C855.73,271.21,855.86,270.7,855.99,270.2z M811.92,316.06c0-0.01,0-0.01,0-0.02c-9.31,0-18.63-0.07-27.94,0.04
			c-3.08,0.04-7.77-1.2-7.94,3.38c-0.2,5.35,4.85,4.39,8.29,4.4c18.63,0.1,37.25,0.05,55.88,0.04c1.16,0,2.36,0.11,3.48-0.14
			c2.01-0.45,3.98-1.32,4.06-3.72c0.09-2.49-1.89-3.34-3.92-3.76c-1.28-0.27-2.65-0.22-3.97-0.22
			C830.55,316.05,821.24,316.06,811.92,316.06z M812.32,332.95c0,0.03,0,0.06,0,0.09c-10.15,0-20.29-0.04-30.44,0.02
			c-2.69,0.02-5.7,0.15-5.85,3.81c-0.16,3.73,2.76,4.1,5.53,4.11c20.13,0.02,40.25-0.01,60.38-0.03c2.9,0,5.78-0.85,5.67-4.11
			c-0.1-3.14-2.83-3.96-5.84-3.93C831.95,333.01,822.13,332.95,812.32,332.95z M810.92,306.07c0-0.02,0-0.04,0-0.05
			c10.32,0,20.64,0.04,30.96-0.03c2.52-0.02,5.61-0.41,5.77-3.44c0.18-3.49-3.11-3.68-5.77-3.99c-0.49-0.06-1-0.02-1.5-0.02
			c-18.64-0.06-37.29-0.13-55.93-0.15c-1.98,0-3.97,0.33-5.95,0.55c-1.79,0.2-2.55,1.37-2.73,3.04c-0.19,1.77,0.81,2.71,2.28,3.45
			c1.58,0.8,3.24,0.64,4.89,0.64C792.27,306.08,801.6,306.07,810.92,306.07z M811.44,358.01c9.32,0,18.63,0.01,27.95-0.01
			c1.82,0,3.66,0.17,5.41-0.61c1.49-0.66,2.58-1.69,2.59-3.34c0.01-1.68-1.05-2.77-2.66-3.17c-1.27-0.31-2.59-0.66-3.88-0.66
			c-19.63,0-39.26,0.06-58.88,0.11c-2.81,0.01-5.83,0.41-5.82,3.9c0.01,3.54,3.06,3.77,5.85,3.77
			C791.81,358,801.63,358,811.44,358.01z M811.39,281.02c0-0.03,0-0.06,0-0.09c-9.64,0-19.27,0-28.91,0c-2.9,0-6.22-0.09-6.37,3.76
			c-0.15,3.95,3.4,3.67,6.1,4.06c0.49,0.07,1,0.03,1.49,0.03c18.28,0.02,36.55,0.06,54.83,0.03c1.97,0,4.02-0.13,5.89-0.69
			c3.25-0.97,3.54-3.62,1.04-5.94c-1.44-1.34-3.05-1.12-4.66-1.13C830.99,281,821.19,281.02,811.39,281.02z"/>
		<path fill="#AE2C2A" d="M228.1,565.18c0,10.49-0.07,20.98,0.05,31.46c0.03,2.69-0.63,3.88-3.56,3.87
			c-19.12-0.07-38.24-0.04-57.36,0.04c-2.32,0.01-2.74-1.01-2.74-3.01c-0.03-21.47-0.08-42.94-0.26-64.4
			c-0.02-2.77,1.11-3.31,3.52-3.31c18.64,0.03,37.29,0.03,55.93-0.1c3.31-0.02,4.61,0.89,4.52,4.48
			c-0.24,10.32-0.09,20.64-0.09,30.96C228.12,565.18,228.11,565.18,228.1,565.18z M174.99,564.68c0.02,0,0.03,0,0.05,0
			c0,7.15,0.16,14.3-0.07,21.44c-0.1,3.24,0.9,4.36,4.16,4.33c11.63-0.13,23.26-0.08,34.89,0c2.79,0.02,4.17-0.64,4.14-3.89
			c-0.15-14.46-0.12-28.92,0.02-43.38c0.02-2.7-0.92-3.38-3.44-3.36c-12.13,0.09-24.27,0.09-36.4-0.01
			c-2.58-0.02-3.46,0.79-3.4,3.44C175.1,550.39,174.99,557.54,174.99,564.68z"/>
		<path fill="#AE2C2A" d="M200.22,612.82c0.17,3.34-1.71,5.2-4.71,5.17c-2.66-0.03-4.71-1.62-4.59-4.77
			c0.12-3.08,1.61-5.1,4.83-5.21C198.95,607.91,199.99,610.05,200.22,612.82z"/>
		<path fill="#AE2C2A" d="M811.92,316.06c9.31,0,18.63-0.01,27.94,0.01c1.33,0,2.69-0.04,3.97,0.22c2.03,0.42,4.01,1.27,3.92,3.76
			c-0.09,2.4-2.05,3.27-4.06,3.72c-1.11,0.25-2.32,0.13-3.48,0.14c-18.63,0.01-37.25,0.06-55.88-0.04c-3.43-0.02-8.49,0.94-8.29-4.4
			c0.17-4.59,4.86-3.35,7.94-3.38c9.31-0.11,18.63-0.04,27.94-0.04C811.92,316.04,811.92,316.05,811.92,316.06z"/>
		<path fill="#AE2C2A" d="M812.32,332.95c9.81,0,19.63,0.06,29.44-0.04c3.01-0.03,5.74,0.79,5.84,3.93
			c0.11,3.26-2.77,4.11-5.67,4.11c-20.13,0.02-40.25,0.05-60.38,0.03c-2.77,0-5.69-0.37-5.53-4.11c0.16-3.66,3.17-3.8,5.85-3.81
			c10.15-0.06,20.29-0.02,30.44-0.02C812.32,333.01,812.32,332.98,812.32,332.95z"/>
		<path fill="#AE2C2A" d="M810.92,306.07c-9.32,0-18.64,0.01-27.96-0.01c-1.65,0-3.31,0.16-4.89-0.64
			c-1.47-0.74-2.47-1.67-2.28-3.45c0.18-1.67,0.94-2.84,2.73-3.04c1.98-0.22,3.96-0.55,5.95-0.55c18.64,0.02,37.29,0.09,55.93,0.15
			c0.5,0,1-0.04,1.5,0.02c2.66,0.31,5.95,0.5,5.77,3.99c-0.16,3.02-3.25,3.42-5.77,3.44c-10.32,0.07-20.64,0.03-30.96,0.03
			C810.92,306.04,810.92,306.05,810.92,306.07z"/>
		<path fill="#AE2C2A" d="M811.44,358.01c-9.82,0-19.63-0.01-29.45,0c-2.8,0-5.85-0.23-5.85-3.77c-0.01-3.49,3.01-3.89,5.82-3.9
			c19.63-0.05,39.25-0.11,58.88-0.11c1.3,0,2.61,0.35,3.88,0.66c1.62,0.4,2.68,1.49,2.66,3.17c-0.01,1.65-1.1,2.67-2.59,3.34
			c-1.75,0.78-3.59,0.6-5.41,0.61C830.08,358.03,820.76,358.01,811.44,358.01z"/>
		<path fill="#AE2C2A" d="M811.39,281.02c9.8,0,19.61-0.02,29.41,0.02c1.61,0.01,3.22-0.21,4.66,1.13c2.5,2.33,2.21,4.97-1.04,5.94
			c-1.87,0.56-3.92,0.69-5.89,0.69c-18.28,0.03-36.55-0.01-54.83-0.03c-0.5,0-1,0.04-1.49-0.03c-2.7-0.39-6.25-0.11-6.1-4.06
			c0.15-3.86,3.47-3.77,6.37-3.76c9.64,0.01,19.27,0,28.91,0C811.39,280.96,811.39,280.99,811.39,281.02z"/>
		<path fill="#FEFEFE" d="M174.99,564.68c0-7.15,0.11-14.3-0.06-21.44c-0.06-2.64,0.82-3.46,3.4-3.44c12.13,0.1,24.27,0.1,36.4,0.01
			c2.51-0.02,3.46,0.66,3.44,3.36c-0.13,14.46-0.16,28.92-0.02,43.38c0.03,3.25-1.35,3.91-4.14,3.89c-11.63-0.08-23.26-0.13-34.89,0
			c-3.26,0.04-4.26-1.09-4.16-4.33c0.23-7.14,0.07-14.29,0.07-21.44C175.02,564.68,175,564.68,174.99,564.68z"/>
	</g>
</g>
</svg>
