<?xml version="1.0" encoding="utf-8"?>
<!-- Generator: Adobe Illustrator 27.8.0, SVG Export Plug-In . SVG Version: 6.00 Build 0)  -->
<svg version="1.1" id="Capa_1" xmlns="http://www.w3.org/2000/svg" xmlns:xlink="http://www.w3.org/1999/xlink" x="0px" y="0px"
	 viewBox="0 0 1024 1024" enable-background="new 0 0 1024 1024" xml:space="preserve">
<g>
	<g>
		<path fill="#FEFEFE" d="M0.09,512C0.09,342.86,0.11,173.73,0,4.59C0,0.84,0.84,0,4.59,0c338.27,0.1,676.54,0.1,1014.81,0
			c3.75,0,4.59,0.84,4.59,4.59c-0.1,338.27-0.1,676.54,0,1014.82c0,3.75-0.84,4.59-4.59,4.59c-338.27-0.1-676.54-0.1-1014.81,0
			c-3.75,0-4.6-0.84-4.59-4.59C0.11,850.27,0.09,681.14,0.09,512z M506.08,939.89c37.85,0.19,64.17-2.4,90.16-7.22
			c47.18-8.75,91.76-24.89,133.42-48.87c26.29-15.14,50.8-32.77,73.77-52.58c3.55-3.06,3.89-5.52,1.96-9.73
			c-5.25-11.48-10.97-22.68-17.44-33.51c-11.51-19.27-24.68-37.28-42.89-50.7c-29.98-22.09-64.26-33.82-100.64-40.08
			c-3.44-0.59-5.17,0.56-6.06,3.94c-2.22,8.37-5.52,16.36-9.79,23.88c-11.58,20.45-26.89,36.52-51.32,40.45
			c-17.15,2.76-34.54-4.05-42.43-21.55c-3.58-7.94-4.96-16.46-6.82-24.86c-0.64-2.87-1.78-4.31-4.99-4.09
			c-3.98,0.28-8.03,0.45-11.98,0.03c-4.17-0.45-5.45,1.51-6.06,5.11c-1.19,7.03-2.43,14.06-4.7,20.86
			c-3.86,11.55-11.73,19.32-23.13,22.93c-14.26,4.52-27.92,1.91-40.53-5.81c-19.26-11.79-31-29.52-39.23-50.06
			c-1.5-3.74-0.48-9.42-5.27-10.82c-4.03-1.17-8.51,0.63-12.74,1.43c-20.16,3.79-39.16,11.07-57.85,19.25
			c-19.75,8.64-36.96,20.76-51.28,37.01c-17.09,19.39-30.08,41.28-40.62,64.75c-3.7,8.23-3.63,8.45,3.05,14.16
			c32.39,27.71,68.17,49.94,107.02,67.47C396.24,926.79,455.52,939.3,506.08,939.89z M649.81,661.92c0,0.01,0,0.01,0,0.02
			c12.33,0,24.66-0.09,36.99,0.04c6.67,0.07,13.25-0.32,19.71-2.04c17.46-4.67,28.99-15.17,33.62-33.08
			c2.5-9.64,1.68-19.18,0.38-28.71c-2.28-16.6-5.14-33.11-7.53-49.69c-4.88-33.96-11.59-67.57-18.66-101.12
			c-7.08-33.61-15.2-66.96-24.75-99.96c-1.14-3.94-2.94-5.76-6.57-6.96c-44.94-14.78-91.05-23.62-138.25-26.1
			c-36.94-1.94-73.8,0-110.36,5.91c-28.48,4.61-56.44,11.52-84.01,20.02c-2.57,0.79-4.35,2.01-5.1,4.77
			c-4.36,16.18-9.06,32.28-13.19,48.52c-6.58,25.89-12.23,52-17.3,78.22c-3.59,18.56-7.44,37.07-10.57,55.71
			c-4.45,26.51-8.83,53.03-11.68,79.78c-1.31,12.31,0.55,23.89,7.65,34.25c9.39,13.69,22.95,20.09,39.08,20.33
			c28.32,0.43,56.65,0.13,84.97,0.13c8.47,0,8.47-0.01,8.75,8.36c0.86,26.03,19.57,50.69,44.02,58.31c2.46,0.77,3.26,0.21,3.84-1.97
			c1.14-4.33,1.94-8.84,3.72-12.9c2.12-4.83,0.53-6.77-3.85-8.96c-14.87-7.43-22.51-19.28-21.74-36.43
			c0.54-12.14,0.1-24.32,0.1-36.48c0-11.91,0-11.91,10.44-6.84c0.3,0.15,0.59,0.3,0.9,0.43c33.65,14.19,66.94,12.99,99.77-2.6
			c3.35-1.59,4.57-1.86,4.54,2.38c-0.1,15.33-0.09,30.65,0,45.98c0.07,12.09-4.25,21.76-14.1,29.28c-4.22,3.22-12.03,3.1-12.52,9.2
			c-0.43,5.28,2.57,10.84,4,16.28c0.66,2.51,1.75,3.72,4.61,2.64c7.04-2.65,13.75-5.98,19.58-10.69
			c16.42-13.29,24.24-30.82,24.44-51.78c0.03-3.62,1.16-4.36,4.57-4.32C620.15,662.03,634.98,661.92,649.81,661.92z M676.17,309.74
			c-0.35-1.77-0.41-2.26-0.55-2.73c-4.56-14.92-10.72-29.27-15.69-44.04c-2.3-6.84,0.33-12.84,6.14-15.46
			c6.57-2.96,14.28-0.65,17.76,5.53c1.3,2.3,2.22,4.83,3.13,7.32c7.08,19.32,14.23,38.61,21.05,58.01c1.4,3.98,2.85,4.25,6.42,2.63
			c10.88-4.95,21.91-9.55,32.91-14.23c13.44-5.73,26.9-11.39,40.34-17.11c2.59-1.1,4.18-1.41,4.15,2.49
			c-0.19,26.65-0.2,53.3-0.24,79.95c0,2.1-0.46,3.59-2.41,4.98c-10.67,7.59-15.01,18.19-14.24,31.11
			c0.81,13.57,13.28,26.47,26.22,27.02c13.67,0.58,24.15-5.84,29.79-18.24c5.08-11.18,3.15-26.17-6.36-34.49
			c-6.63-5.8-9.12-11.86-7.9-20.08c0.1-0.65-0.03-1.33-0.03-2c0.09-28.64-0.89-57.29,0.13-85.93c0.23-6.44-2.53-10.58-9.08-13.38
			c-5.01-2.15-10.16-3.96-15.16-6.13c-29.76-12.95-59.48-25.99-89.24-38.94c-26.14-11.37-52.3-22.66-78.48-33.95
			c-32.55-14.03-65.05-28.19-98-41.3c-5.96-2.37-11.56-2.18-17.34,0.24c-46.16,19.34-92.39,38.51-138.47,58.02
			c-35.55,15.05-70.91,30.54-106.37,45.81c-13.54,5.83-27.15,11.53-40.66,17.44c-5.96,2.61-8,6.64-6.9,12.27
			c0.93,4.75,4.94,5.91,8.56,7.45c31.26,13.3,62.57,26.5,93.78,39.92c3.83,1.65,5.11,0.46,6.32-2.98
			c5.33-15.16,10.82-30.26,16.31-45.36c2.21-6.07,4.34-12.19,6.91-18.11c3.08-7.1,9.67-10.59,15.94-8.94
			c8.35,2.2,12.09,9.98,8.79,18.92c-4.71,12.75-9.66,25.42-14.47,38.13c-0.65,1.72-1.94,3.45-0.63,5.69
			C464.28,278.14,569.88,278.26,676.17,309.74z M955.11,505.69c0.94-22.22-2.56-49.54-7.74-76.72
			c-5.07-26.59-12.82-52.44-22.54-77.63c-5.48-14.2-11.9-28.14-19.12-41.54c-10.69-19.81-22.45-39-36.21-56.97
			c-9.53-12.45-19.78-24.26-29.78-36.3c-4.89-5.88-11.08-10.39-16.21-15.98c-6.84-7.47-14.63-13.91-22.07-20.73
			c-15.72-14.42-34.04-25.29-51.32-37.55c-11.35-8.05-23.66-14.79-36.14-21.02c-20.38-10.18-41.17-19.35-62.96-26.29
			c-21.4-6.82-43.08-12.28-65.27-15.63c-28.17-4.25-56.45-5.69-84.98-4.61c-30.72,1.15-60.79,5.82-90.45,13.48
			c-15.73,4.06-31.16,9.04-46.4,14.8c-15.11,5.71-29.82,12.24-44.21,19.44c-18.54,9.28-36.35,19.81-53.27,31.93
			c-17.58,12.59-34.62,25.79-50.44,40.53c-13.75,12.81-26.63,26.47-38.52,41.06c-11.96,14.68-23.77,29.53-33.44,45.78
			c-12.28,20.63-23.47,41.86-32.8,64.1c-11.41,27.21-19.21,55.39-24.83,84.2c-3.14,16.08-5.18,32.35-5.66,48.85
			c-0.37,12.76-1.95,25.52-1.61,38.31c0.26,9.62,1.44,19.2,1.8,28.82c0.43,11.15,1.85,22.17,3.68,33.13
			c2.81,16.84,6.68,33.44,10.82,50.02c4.18,16.76,9.94,32.91,16.16,48.92c7.4,19.08,16.76,37.28,26.56,55.23
			c6.6,12.09,14.38,23.49,21.87,35.04c1.85,2.85,4.38,4.61,8.02,3.17c2.82-1.12,4.15-3.37,3.94-6.27c-0.16-2.11-0.74-4.22-2.15-5.99
			c-6.41-8.08-11.82-16.88-16.95-25.76c-15.12-26.17-28.31-53.23-37.68-82.1c-6.57-20.24-11.78-40.77-15.76-61.64
			c-3.68-19.28-6.5-38.71-7.24-58.3c-1.41-37.5,0.93-74.71,9.13-111.52c4.91-22.06,10.89-43.76,19.41-64.64
			c8.34-20.43,18.15-40.18,29.39-59.26c8.62-14.64,18.6-28.32,28.68-41.86c8.25-11.08,17.5-21.51,27.15-31.51
			c11.88-12.3,24.1-24.28,37.33-35.08c20.81-16.98,42.69-32.5,66.23-45.61c18.61-10.37,37.92-19.15,57.7-26.98
			c13.58-5.37,27.55-9.61,41.65-13.38c12.15-3.25,24.29-6.78,36.78-8.36c13.48-1.71,27.01-3.11,40.52-4.6
			c20.31-2.25,40.54-1.62,60.74-0.2c22.36,1.57,44.61,4.51,66.49,9.64c20.87,4.89,41.25,11.38,61.1,19.39
			c15.09,6.09,29.68,13.29,43.98,21.15c12.22,6.72,24.15,13.9,35.81,21.47c10.77,7,21.01,14.88,31.04,22.98
			c24.52,19.8,46.59,42.04,66.26,66.62c11.91,14.89,22.57,30.7,32.46,47.03c10.77,17.81,19.64,36.58,27.75,55.68
			c7.53,17.73,13.05,36.18,17.77,54.87c6.78,26.8,11.25,53.95,12.27,81.59c0.96,25.79,0.44,51.57-3.08,77.17
			c-1.56,11.31-3.96,22.51-6.19,33.72c-2.27,11.38-4.98,22.67-8.16,33.84c-1.22,4.28,0.81,8.46,4.22,8.81
			c3.81,0.39,6.39-1.36,7.6-5.5C948.22,595.89,955.46,554.13,955.11,505.69z"/>
		<path fill="#027250" d="M506.08,939.89c-50.56-0.59-109.84-13.1-166.38-38.61c-38.85-17.53-74.63-39.76-107.02-67.47
			c-6.68-5.71-6.75-5.93-3.05-14.16c10.54-23.47,23.53-45.36,40.62-64.75c14.32-16.25,31.53-28.37,51.28-37.01
			c18.69-8.18,37.7-15.46,57.85-19.25c4.23-0.8,8.7-2.6,12.74-1.43c4.79,1.39,3.77,7.08,5.27,10.82
			c8.23,20.54,19.97,38.27,39.23,50.06c12.61,7.72,26.27,10.34,40.53,5.81c11.39-3.61,19.27-11.38,23.13-22.93
			c2.27-6.8,3.51-13.83,4.7-20.86c0.61-3.59,1.89-5.55,6.06-5.11c3.95,0.42,8,0.25,11.98-0.03c3.2-0.23,4.35,1.21,4.99,4.09
			c1.86,8.39,3.24,16.92,6.82,24.86c7.89,17.51,25.27,24.31,42.43,21.55c24.44-3.93,39.74-20,51.32-40.45
			c4.26-7.52,7.57-15.51,9.79-23.88c0.9-3.38,2.62-4.54,6.06-3.94c36.38,6.26,70.67,17.98,100.64,40.08
			c18.21,13.42,31.38,31.43,42.89,50.7c6.47,10.83,12.19,22.03,17.44,33.51c1.93,4.21,1.59,6.68-1.96,9.73
			c-22.98,19.81-47.48,37.44-73.77,52.58c-41.66,23.98-86.25,40.13-133.42,48.87C570.25,937.48,543.94,940.08,506.08,939.89z
			 M516.89,831.98c6.28,0.03,10.77-4.26,10.87-10.39c0.11-6.95-4.49-11.85-11.22-11.96c-6.35-0.1-10.75,4.17-10.79,10.51
			C505.69,827.34,510.02,831.94,516.89,831.98z M505.93,884.24c-0.01,6.78,4.47,11.55,10.91,11.62c6.41,0.07,11.04-4.47,11.04-10.83
			c0-7.05-4.61-11.99-11.2-11.98C510.41,873.05,505.94,877.7,505.93,884.24z"/>
		<path fill="#027250" d="M649.81,661.92c-14.83,0-29.66,0.11-44.48-0.08c-3.41-0.04-4.54,0.7-4.57,4.32
			c-0.2,20.95-8.02,38.48-24.44,51.78c-5.83,4.72-12.54,8.04-19.58,10.69c-2.86,1.08-3.95-0.14-4.61-2.64
			c-1.43-5.45-4.43-11-4-16.28c0.49-6.09,8.3-5.98,12.52-9.2c9.85-7.52,14.17-17.19,14.1-29.28c-0.08-15.33-0.1-30.65,0-45.98
			c0.03-4.24-1.19-3.97-4.54-2.38c-32.83,15.6-66.12,16.79-99.77,2.6c-0.31-0.13-0.6-0.29-0.9-0.43
			c-10.44-5.07-10.44-5.07-10.44,6.84c0,12.16,0.44,24.35-0.1,36.48c-0.77,17.15,6.87,29,21.74,36.43c4.38,2.19,5.97,4.13,3.85,8.96
			c-1.78,4.06-2.57,8.57-3.72,12.9c-0.58,2.19-1.38,2.74-3.84,1.97c-24.46-7.63-43.16-32.28-44.02-58.31
			c-0.28-8.37-0.28-8.36-8.75-8.36c-28.32,0-56.65,0.3-84.97-0.13c-16.13-0.25-29.7-6.64-39.08-20.33
			c-7.1-10.36-8.96-21.94-7.65-34.25c2.84-26.75,7.23-53.27,11.68-79.78c3.13-18.64,6.98-37.15,10.57-55.71
			c5.07-26.23,10.72-52.33,17.3-78.22c4.13-16.24,8.82-32.34,13.19-48.52c0.74-2.76,2.53-3.98,5.1-4.77
			c27.57-8.51,55.53-15.42,84.01-20.02c36.56-5.91,73.42-7.85,110.36-5.91c47.2,2.48,93.31,11.32,138.25,26.1
			c3.63,1.19,5.43,3.02,6.57,6.96c9.55,33.01,17.67,66.36,24.75,99.96c7.07,33.55,13.78,67.16,18.66,101.12
			c2.38,16.58,5.25,33.1,7.53,49.69c1.31,9.53,2.12,19.07-0.38,28.71c-4.63,17.9-16.16,28.41-33.62,33.08
			c-6.46,1.73-13.04,2.11-19.71,2.04c-12.33-0.12-24.66-0.04-36.99-0.04C649.81,661.93,649.81,661.92,649.81,661.92z M518.67,608.84
			c20.49-0.19,41.11-5.56,59.98-16.94c30.75-18.55,50.94-45.04,59.45-80.11c0.91-3.76,1.95-6.46,6.7-5.93
			c3.15,0.35,6.16-1.2,9.08-2.32c11.91-4.59,19.31-17.58,18.06-31.43c-1.05-11.65-10.71-22.94-22.53-24.81
			c-5.57-0.88-7.94-2.88-7.78-8.34c0.13-4.63-2.4-6.06-6.85-5.95c-9.21,0.23-18.25-1.48-26.94-4.27
			c-35.8-11.51-64.5-32.39-83.88-65.08c-2.43-4.1-3.8-3.91-6.13-0.08c-13.39,21.95-31.66,38.78-54.2,51
			c-19.8,10.74-40.83,17.45-63.47,18.39c-7.22,0.3-7.39,0.09-8.06,7.56c-0.33,3.64-1.53,5.45-5.46,6.04
			c-14.59,2.18-26.43,15.74-24.61,33.18c1.31,12.52,14.13,25.37,26.16,26.34c2.53,0.2,6.17-0.36,7.13,3.75
			c1.47,6.3,3.29,12.51,5.71,18.53c3.05,7.59,6.4,15.34,10.86,21.86c3.99,5.83,8.5,11.78,13.73,17c11.47,11.45,23.43,22,38.35,28.81
			C480.89,603.77,498.43,608.74,518.67,608.84z"/>
		<path fill="#027250" d="M676.17,309.74c-106.29-31.48-211.89-31.6-317.56-0.45c-1.3-2.24-0.02-3.97,0.63-5.69
			c4.8-12.72,9.75-25.38,14.47-38.13c3.3-8.93-0.44-16.72-8.79-18.92c-6.27-1.65-12.86,1.84-15.94,8.94
			c-2.57,5.92-4.7,12.04-6.91,18.11c-5.49,15.1-10.98,30.2-16.31,45.36c-1.21,3.43-2.48,4.62-6.32,2.98
			c-31.21-13.42-62.52-26.62-93.78-39.92c-3.62-1.54-7.64-2.7-8.56-7.45c-1.1-5.63,0.93-9.66,6.9-12.27
			c13.51-5.91,27.11-11.6,40.66-17.44c35.46-15.27,70.82-30.76,106.37-45.81c46.08-19.51,92.31-38.68,138.47-58.02
			c5.78-2.42,11.38-2.62,17.34-0.24c32.95,13.11,65.45,27.26,98,41.3c26.17,11.28,52.34,22.58,78.48,33.95
			c29.76,12.94,59.48,25.99,89.24,38.94c5,2.17,10.15,3.99,15.16,6.13c6.55,2.8,9.31,6.94,9.08,13.38
			c-1.02,28.64-0.03,57.28-0.13,85.93c0,0.67,0.13,1.35,0.03,2c-1.22,8.22,1.27,14.28,7.9,20.08c9.51,8.32,11.44,23.31,6.36,34.49
			c-5.64,12.4-16.12,18.82-29.79,18.24c-12.94-0.55-25.41-13.45-26.22-27.02c-0.77-12.92,3.57-23.52,14.24-31.11
			c1.95-1.39,2.41-2.89,2.41-4.98c0.04-26.65,0.05-53.3,0.24-79.95c0.03-3.9-1.56-3.58-4.15-2.49
			c-13.44,5.72-26.9,11.38-40.34,17.11c-10.99,4.69-22.03,9.29-32.91,14.23c-3.57,1.62-5.02,1.35-6.42-2.63
			c-6.82-19.41-13.98-38.7-21.05-58.01c-0.91-2.49-1.83-5.02-3.13-7.32c-3.48-6.18-11.19-8.49-17.76-5.53
			c-5.81,2.62-8.44,8.62-6.14,15.46c4.97,14.77,11.13,29.12,15.69,44.04C675.76,307.48,675.82,307.98,676.17,309.74z"/>
		<path fill="#8DD0AC" d="M955.11,505.69c0.35,48.45-6.89,90.2-18.89,131.26c-1.21,4.14-3.78,5.89-7.6,5.5
			c-3.41-0.35-5.44-4.53-4.22-8.81c3.18-11.18,5.89-22.46,8.16-33.84c2.23-11.21,4.63-22.41,6.19-33.72
			c3.52-25.6,4.04-51.38,3.08-77.17c-1.03-27.64-5.5-54.79-12.27-81.59c-4.72-18.69-10.24-37.14-17.77-54.87
			c-8.11-19.1-16.97-37.88-27.75-55.68c-9.88-16.33-20.54-32.14-32.46-47.03c-19.67-24.57-41.74-46.82-66.26-66.62
			c-10.03-8.1-20.26-15.98-31.04-22.98c-11.65-7.57-23.58-14.76-35.81-21.47c-14.3-7.86-28.89-15.06-43.98-21.15
			c-19.85-8.01-40.23-14.5-61.1-19.39c-21.89-5.13-44.14-8.06-66.49-9.64c-20.19-1.42-40.42-2.05-60.74,0.2
			c-13.5,1.49-27.04,2.89-40.52,4.6c-12.49,1.58-24.63,5.12-36.78,8.36c-14.09,3.77-28.06,8-41.65,13.38
			c-19.78,7.82-39.09,16.61-57.7,26.98c-23.54,13.11-45.41,28.63-66.23,45.61c-13.23,10.8-25.46,22.77-37.33,35.08
			c-9.65,10-18.9,20.43-27.15,31.51c-10.08,13.54-20.06,27.21-28.68,41.86c-11.23,19.08-21.05,38.83-29.39,59.26
			c-8.52,20.88-14.5,42.58-19.41,64.64c-8.19,36.8-10.53,74.02-9.13,111.52c0.74,19.59,3.56,39.02,7.24,58.3
			c3.98,20.87,9.19,41.41,15.76,61.64c9.37,28.87,22.56,55.93,37.68,82.1c5.13,8.88,10.54,17.67,16.95,25.76
			c1.4,1.77,1.99,3.88,2.15,5.99c0.21,2.9-1.12,5.15-3.94,6.27c-3.64,1.44-6.17-0.32-8.02-3.17c-7.49-11.56-15.26-22.95-21.87-35.04
			c-9.8-17.95-19.16-36.15-26.56-55.23c-6.21-16.01-11.97-32.16-16.16-48.92c-4.14-16.58-8.01-33.18-10.82-50.02
			c-1.83-10.96-3.26-21.98-3.68-33.13c-0.37-9.62-1.54-19.2-1.8-28.82c-0.35-12.79,1.23-25.55,1.61-38.31
			c0.48-16.5,2.52-32.77,5.66-48.85c5.62-28.81,13.42-57,24.83-84.2c9.33-22.24,20.52-43.47,32.8-64.1
			c9.67-16.25,21.48-31.11,33.44-45.78c11.89-14.59,24.77-28.24,38.52-41.06c15.82-14.74,32.86-27.93,50.44-40.53
			c16.91-12.12,34.73-22.65,53.27-31.93c14.39-7.2,29.1-13.73,44.21-19.44c15.24-5.76,30.67-10.73,46.4-14.8
			c29.66-7.66,59.73-12.33,90.45-13.48c28.53-1.07,56.81,0.36,84.98,4.61c22.19,3.35,43.87,8.81,65.27,15.63
			c21.79,6.94,42.58,16.1,62.96,26.29c12.48,6.24,24.8,12.98,36.14,21.02c17.28,12.26,35.61,23.13,51.32,37.55
			c7.44,6.82,15.22,13.26,22.07,20.73c5.12,5.59,11.31,10.1,16.21,15.98c10.01,12.03,20.25,23.85,29.78,36.3
			c13.75,17.97,25.52,37.15,36.21,56.97c7.22,13.39,13.64,27.34,19.12,41.54c9.72,25.19,17.47,51.04,22.54,77.63
			C952.55,456.14,956.05,483.47,955.11,505.69z"/>
		<path fill="#FEFEFE" d="M516.89,831.98c-6.87-0.03-11.2-4.63-11.15-11.85c0.04-6.33,4.44-10.61,10.79-10.51
			c6.73,0.11,11.33,5.02,11.22,11.96C527.66,827.72,523.17,832.01,516.89,831.98z"/>
		<path fill="#FEFEFE" d="M505.93,884.24c0.01-6.54,4.48-11.18,10.75-11.19c6.58-0.01,11.2,4.93,11.2,11.98
			c0,6.35-4.63,10.89-11.04,10.83C510.4,895.79,505.92,891.02,505.93,884.24z"/>
		<path fill="#FEFEFE" d="M518.67,608.84c-20.24-0.11-37.79-5.07-54.7-12.8c-14.91-6.81-26.88-17.36-38.35-28.81
			c-5.23-5.22-9.74-11.17-13.73-17c-4.46-6.52-7.82-14.27-10.86-21.86c-2.42-6.02-4.24-12.23-5.71-18.53
			c-0.96-4.11-4.6-3.55-7.13-3.75c-12.03-0.97-24.85-13.82-26.16-26.34c-1.82-17.45,10.03-31,24.61-33.18
			c3.93-0.59,5.13-2.4,5.46-6.04c0.68-7.47,0.84-7.26,8.06-7.56c22.64-0.94,43.67-7.66,63.47-18.39c22.54-12.22,40.81-29.05,54.2-51
			c2.34-3.84,3.71-4.02,6.13,0.08c19.38,32.69,48.08,53.57,83.88,65.08c8.69,2.79,17.74,4.5,26.94,4.27
			c4.45-0.11,6.98,1.32,6.85,5.95c-0.15,5.46,2.21,7.46,7.78,8.34c11.82,1.87,21.48,13.16,22.53,24.81
			c1.25,13.85-6.15,26.84-18.06,31.43c-2.92,1.13-5.93,2.68-9.08,2.32c-4.76-0.53-5.79,2.16-6.7,5.93
			c-8.5,35.07-28.7,61.57-59.45,80.11C559.78,603.29,539.16,608.66,518.67,608.84z"/>
	</g>
</g>
</svg>
