<?xml version="1.0" encoding="utf-8"?>
<!-- Generator: Adobe Illustrator 27.8.0, SVG Export Plug-In . SVG Version: 6.00 Build 0)  -->
<svg version="1.1" id="Capa_1" xmlns="http://www.w3.org/2000/svg" xmlns:xlink="http://www.w3.org/1999/xlink" x="0px" y="0px"
	 viewBox="0 0 1024 1024" enable-background="new 0 0 1024 1024" xml:space="preserve">
<g>
	<g>
		<path fill="#FEFEFE" d="M0.09,512C0.09,342.86,0.11,173.73,0,4.59C0,0.84,0.84,0,4.59,0c338.27,0.1,676.54,0.1,1014.81,0
			c3.75,0,4.59,0.84,4.59,4.59c-0.1,338.27-0.1,676.54,0,1014.82c0,3.75-0.84,4.59-4.59,4.59c-338.27-0.1-676.54-0.1-1014.81,0
			c-3.75,0-4.6-0.84-4.59-4.59C0.11,850.27,0.09,681.14,0.09,512z M506.25,883.94c79.15,0,158.3,0,237.45-0.01
			c2.99,0,6.02,0.02,8.98-0.34c5.23-0.65,9.75-5.37,10.11-10.21c0.37-5-3.75-10.4-9.09-11.57c-2.09-0.46-4.29-0.53-6.44-0.53
			c-25.99,0.03-51.99-0.02-77.98,0.28c-4.55,0.05-5.44-1.32-5.38-5.58c0.24-18.99,0.11-37.99,0.11-56.99
			c0-11.15-5.88-16.69-17.03-16.61c-23.66,0.18-47.32,0.1-70.98,0.28c-3.13,0.02-4.24-0.62-4.19-4.04
			c0.2-15.83,0.13-31.66,0.02-47.49c-0.02-2.69,0.75-4.57,2.71-6.5c9.39-9.23,16.7-19.9,20.08-32.75c1.12-4.26,2.9-5.31,7.06-5.29
			c35.99,0.18,71.98,0.21,107.98,0.11c24.52-0.07,41.99-17.72,42.14-42.25c0.05-8.5,0.08-17-0.05-25.49
			c-0.04-2.98,0.7-5.15,2.99-7.39c18.07-17.63,36.74-34.69,53.59-53.53c11.58-12.95,11.09-29.15-0.3-42.35
			c-16.32-18.91-33.33-37.17-51.1-54.72c-3.82-3.77-5.37-7.63-5.27-13.09c0.36-19.99-0.34-40,0.28-59.98
			c0.77-24.66-18.54-45.05-43.93-44.36c-30.64,0.84-61.32,0.2-91.98,0.22c-2.5,0-4.86-0.11-7.21-1.37
			c-27.32-14.51-56.22-23.72-87.27-25.47c-2.61-0.15-3.4-1.08-3.37-3.62c0.11-8.5,0.13-17-0.02-25.49
			c-0.06-3.28,1.08-4.87,4.28-6.18c32.55-13.33,65.02-26.89,97.5-40.39c6.36-2.64,6.36-2.66,9.8,3.49
			c11.61,20.75,35,29.53,57.34,21.54c20.89-7.48,33.82-30.27,29.86-52.66c-3.73-21.12-21.33-36.76-43.22-38.42
			c-20.47-1.55-41.14,12-47.24,31.94c-1.7,5.55-3.9,9.37-9.33,11.2c-1.68,0.57-3.33,1.23-4.97,1.9
			c-29.93,12.32-59.87,24.6-89.75,37.03c-3.37,1.4-4.31,0.96-4.26-2.77c0.16-12.33,0.19-24.66-0.02-36.99
			c-0.06-3.33,0.9-4.9,4.05-6.21c16.81-7.01,27.92-26.13,24.99-43.85c-2.88-17.41-14.89-30.25-33.14-34.02
			c-15.33-3.17-33.7,4.72-42.03,18.04c-13.79,22.06-5.05,49.75,19.29,60.41c3.13,1.37,4.16,2.83,4.13,6.12
			c-0.1,12,0.13,23.99,0.15,35.99c0.01,5.35-0.19,5.43-5.18,3.31c-32.56-13.86-65.11-27.72-97.66-41.58
			c-2.04-0.87-3.33-1.86-3.96-4.46c-6.18-25.55-30.83-40.63-56.47-34.8c-24.29,5.53-39.96,30.35-34.95,55.36
			c3.54,17.7,18.12,32.74,35.17,36.29c19.59,4.08,38.07-3.54,49.57-20.05c2.08-2.98,1.78-8.3,6.16-8.8c3.7-0.42,7.09,2.49,10.6,3.95
			c31.14,12.98,62.27,25.96,93.15,39.56c2.66,1.17,3.51,2.49,3.48,5.1c-0.1,8.5-0.2,17-0.06,25.49c0.05,2.95-1.11,3.54-3.8,3.66
			c-30.08,1.27-58.02,10.31-84.67,23.76c-3.55,1.79-6.95,2.76-10.9,2.76c-30.99,0.02-61.98,0.3-92.98,0.23
			c-21.54-0.05-41.47,16.75-41.12,42.75c0.27,19.66-0.07,39.32,0.09,58.98c0.04,5.65-0.24,10.56-5.15,14.74
			c-2.25,1.92-4.76,3.8-6.86,6.08c-14.74,16.03-29.45,32.1-44.16,48.16c-12.79,13.96-10.96,33.83,0.69,45.77
			c16.97,17.39,34.22,34.48,51.86,51.19c2.63,2.49,3.76,5.03,3.64,8.69c-0.27,8.66-0.11,17.33-0.07,25.99
			c0.09,21.26,14.79,37.76,36.02,40.16c9.95,1.12,19.98,0.44,29.97,0.44c28.16,0.01,56.32-0.1,84.48-0.1c1.62,0,3.83-0.91,4.45,1.86
			c3.33,14.81,11.9,26.52,22.21,37.14c1.57,1.62,1.91,3.29,1.91,5.37c0.01,15.66-0.06,31.32,0.24,46.98
			c0.07,3.9-1.17,4.64-4.77,4.61c-22.83-0.17-45.66-0.12-68.48-0.12c-3.14,0-6.3-0.08-9.32,1.12c-7.75,3.07-9.68,9.47-9.67,16.92
			c0.02,18.83,0.01,37.66,0.21,56.48c0.04,3.37-0.68,4.52-4.32,4.47c-16.83-0.23-33.66-0.17-50.49-0.13
			c-11.16,0.03-22.33,0.02-33.48,0.41c-6.11,0.21-9.91,4.49-10.03,10.24c-0.14,6.18,3.88,11.04,9.89,11.73
			c2.31,0.27,4.66,0.21,6.99,0.21C347.29,883.94,426.77,883.94,506.25,883.94z M791.86,327.81c-1.9,2.08-3.42,3.83-5.02,5.49
			c-1.75,1.81-3.19,3.83-4.28,6.09c-1.35,2.81-1.92,6.91-4.13,8.16c-2.63,1.48-6.05-1.73-9.34-2.11c-0.66-0.08-1.31-0.24-1.97-0.29
			c-6.55-0.47-11.85,4.18-12,10.52c-0.17,6.66,4.9,11.61,11.59,11.39c2.92-0.1,5.49-1.14,8.04-2.43c2.47-1.25,4.16-0.98,5.08,2.19
			c1.45,5,4.1,9.48,7.87,13.08c3.23,3.08,5.27,5.14-0.22,8.41c-4.49,2.67-4.71,7.88-3.27,12.59c1.3,4.27,4.84,6.37,9.11,6.61
			c4.87,0.28,8.82-1.75,10.95-6.32c1.11-2.39,1.84-4.99,2.5-7.55c0.37-1.43,0.56-2.43,2.45-2.31c6.36,0.4,12.33-0.71,14.29,8.93
			c1.78,8.75,13.77,9.85,19.05,2.78c3.41-4.57,2.27-11.24-3.21-15.89c-2.58-2.19-2.75-3.26-0.17-5.66c4.51-4.2,8.1-9.22,9.7-15.34
			c0.61-2.34,1.69-2.34,3.63-1.5c2.57,1.12,5.13,2.27,8.04,2.47c5.26,0.37,9.16-1.74,11.43-6.33c1.88-3.79,1.65-7.72-1.07-11.21
			c-3.22-4.12-7.41-5.42-12.42-4.02c-1.76,0.49-3.52,1.04-5.19,1.77c-2.38,1.04-3.64,1.09-4.66-2.02c-1.71-5.22-4.52-10.1-8.8-13.67
			c-3.25-2.71-3.24-4.15,0.14-6.96c5.18-4.29,5.81-11.21,2.3-15.57c-3.47-4.31-10.31-5.21-15.35-1.87c-3.48,2.3-4.19,6.11-5.19,9.82
			c-0.43,1.61,0.27,4.4-2.88,4.38c-3.64-0.02-7.64,0.91-10.81-0.32c-2.44-0.95-1.41-5.43-2.96-7.99c-0.42-0.7-0.59-1.55-0.96-2.29
			c-2.09-4.25-5.87-5.94-10.22-5.68c-4.71,0.28-8.64,2.26-10.21,7.33C782,318.06,784.14,322.33,791.86,327.81z M837.28,732.23
			c0.04-23.12-17.93-41.5-40.66-41.57c-24.23-0.08-42.71,17.68-42.76,41.11c-0.06,24.04,17.83,42.23,41.55,42.27
			C818.58,774.07,837.23,755.44,837.28,732.23z M218.96,690.65c-23.92,0.01-42.01,18.34-41.98,42.52
			c0.03,22.77,18.38,40.85,41.45,40.85c23.28,0,42.52-18.92,42.21-42.02C260.33,708.42,240.69,689.82,218.96,690.65z M204.94,251.55
			c-0.01,0-0.02,0-0.03,0c0,5.33-0.09,10.66,0.03,15.99c0.11,5.09,2.99,8.61,7.53,10.15c4.5,1.52,8.39-0.35,11.55-3.91
			c2.62-2.95,2.36-6.5,2.22-9.92c-0.1-2.33,0.65-2.84,2.75-2.8c4.33,0.09,8.67,0.21,12.98-0.1c5.51-0.4,9.64-4.71,10.05-9.99
			c0.4-5.11-3.29-9.74-8.73-11.15c-3.64-0.94-7.31-0.5-10.92-0.26c-3.57,0.24-5.57-0.14-6.13-4.46c-0.7-5.35-6.22-9.31-10.97-8.86
			c-5.99,0.57-10.11,4.79-10.29,10.83C204.83,241.88,204.94,246.72,204.94,251.55z M808.68,252.61c0.06,0,0.11,0,0.17,0
			c0-4.99,0.15-9.99-0.04-14.97c-0.22-5.72-4.4-10.5-9.49-11.26c-4.21-0.63-10.47,2.18-10.73,6.24c-0.52,7.98-5.58,6.95-10.64,6.85
			c-1.66-0.03-3.32,0.1-4.98,0.27c-6.97,0.73-10.6,4.86-10.2,11.56c0.35,5.83,4.65,9.65,11.03,9.77c2.16,0.04,4.34,0.17,6.48-0.04
			c4.55-0.45,7.37-0.23,7.08,6.06c-0.3,6.55,5.43,11.28,11.14,10.96c5.73-0.32,10.07-5.38,10.18-11.98
			C808.74,261.59,808.68,257.1,808.68,252.61z M173.28,512.22c0.01-7.82-6.09-14.22-13.55-14.22c-8.02-0.01-14.43,6.28-14.3,14.02
			c0.13,7.83,6.31,14.11,13.79,14.02C166.81,525.95,173.27,519.61,173.28,512.22z M853.78,497.98c-7.61,0.13-13.84,6.52-13.73,14.07
			c0.11,7.57,6.36,14.12,13.32,13.94c7.4-0.18,14.27-6.91,14.22-13.92C867.51,504.55,860.96,497.86,853.78,497.98z M202.61,320.17
			c0.04,6.98,5.69,13.02,12.01,12.85c7.07-0.19,13.31-5.89,13.37-12.21c0.07-7.18-5.79-13-12.99-12.93
			C208.02,307.96,202.57,313.37,202.61,320.17z M215.65,377.9c-7.45-0.05-12.71,5-12.73,12.2c-0.02,7.08,5.07,12.45,11.97,12.61
			c7.06,0.17,13.11-5.37,13.22-12.09C228.22,383.64,222.65,377.94,215.65,377.9z M143.97,355.23c0.02,6.95,5.41,12.56,12.13,12.63
			c6.98,0.07,12.95-5.62,13.01-12.39c0.06-7.01-5.49-12.57-12.57-12.58C148.97,342.86,143.95,347.79,143.97,355.23z M236.39,355.48
			c0.01-7.19-5.44-12.6-12.63-12.54c-7.35,0.06-12.78,5.45-12.62,12.56c0.14,6.59,5.53,12.03,12.09,12.19
			C230.09,367.85,236.38,362.01,236.39,355.48z M167.97,320.2c-0.05,6.95,5.25,12.68,11.88,12.84c6.79,0.17,13.08-5.7,13.13-12.24
			c0.06-7.16-5.39-12.9-12.26-12.93C173.49,307.85,168.02,313.14,167.97,320.2z M193.07,390.23c-0.02-6.99-5.28-12.31-12.21-12.33
			c-7.04-0.02-12.88,5.67-12.79,12.47c0.09,6.89,5.74,12.66,12.27,12.53C187.47,402.76,193.09,397.16,193.07,390.23z M202.14,355.34
			c-0.03-7.06-5.49-12.39-12.64-12.34c-6.75,0.05-12.21,5.66-12.14,12.48c0.07,7,5.24,11.93,12.53,11.94
			C196.82,367.44,202.16,362.17,202.14,355.34z M846.65,659.99c6.41-0.08,12.29-5.63,12.2-11.51c-0.09-5.9-6.3-11.63-12.33-11.4
			c-6.11,0.24-11.09,5.36-10.98,11.29C835.65,655.08,840.43,660.07,846.65,659.99z M166.19,659.89c6.73,0.11,12.14-4.87,12.18-11.2
			c0.03-6.24-4.99-11.27-11.45-11.45c-5.94-0.17-11.38,5.2-11.5,11.34C155.29,654.81,160.03,659.79,166.19,659.89z M166.48,627.11
			c6.96-0.01,12.12-4.72,12.11-11.04c-0.01-6.17-5.2-11.22-11.49-11.2c-6.59,0.03-11.94,5.19-11.86,11.46
			C155.32,622.41,160.24,627.13,166.48,627.11z M846.37,627.16c6.83-0.09,12.18-4.97,12.15-11.1c-0.02-6.2-5.64-11.43-12.06-11.23
			c-6.09,0.19-11.23,5.18-11.29,10.97C835.11,622.3,839.98,627.24,846.37,627.16z"/>
		<path fill="#16060F" d="M506.25,883.94c-79.48,0-158.97,0-238.45-0.01c-2.33,0-4.68,0.05-6.99-0.21
			c-6.01-0.69-10.03-5.55-9.89-11.73c0.13-5.75,3.93-10.03,10.03-10.24c11.15-0.39,22.32-0.38,33.48-0.41
			c16.83-0.05,33.66-0.1,50.49,0.13c3.64,0.05,4.36-1.1,4.32-4.47c-0.2-18.83-0.19-37.65-0.21-56.48
			c-0.01-7.46,1.92-13.85,9.67-16.92c3.02-1.2,6.18-1.12,9.32-1.12c22.83,0,45.66-0.05,68.48,0.12c3.6,0.03,4.85-0.71,4.77-4.61
			c-0.3-15.66-0.24-31.32-0.24-46.98c0-2.08-0.34-3.76-1.91-5.37c-10.32-10.62-18.88-22.33-22.21-37.14
			c-0.62-2.77-2.83-1.86-4.45-1.86c-28.16,0-56.32,0.12-84.48,0.1c-9.99-0.01-20.01,0.68-29.97-0.44
			c-21.23-2.4-35.93-18.9-36.02-40.16c-0.04-8.66-0.2-17.34,0.07-25.99c0.11-3.66-1.02-6.2-3.64-8.69
			c-17.64-16.7-34.89-33.79-51.86-51.19c-11.65-11.94-13.47-31.81-0.69-45.77c14.71-16.06,29.42-32.12,44.16-48.16
			c2.1-2.28,4.61-4.16,6.86-6.08c4.91-4.19,5.19-9.1,5.15-14.74c-0.15-19.66,0.18-39.32-0.09-58.98c-0.36-26,19.57-42.8,41.12-42.75
			c30.99,0.07,61.98-0.21,92.98-0.23c3.95,0,7.35-0.97,10.9-2.76c26.65-13.44,54.6-22.49,84.67-23.76c2.69-0.11,3.85-0.71,3.8-3.66
			c-0.14-8.49-0.04-16.99,0.06-25.49c0.03-2.62-0.82-3.93-3.48-5.1c-30.88-13.59-62.01-26.58-93.15-39.56
			c-3.51-1.46-6.9-4.37-10.6-3.95c-4.38,0.5-4.08,5.81-6.16,8.8c-11.5,16.51-29.98,24.13-49.57,20.05
			c-17.05-3.55-31.62-18.59-35.17-36.29c-5.01-25.01,10.66-49.84,34.95-55.36c25.64-5.83,50.3,9.25,56.47,34.8
			c0.63,2.6,1.93,3.59,3.96,4.46c32.56,13.86,65.11,27.72,97.66,41.58c4.99,2.12,5.19,2.04,5.18-3.31c-0.02-12-0.26-24-0.15-35.99
			c0.03-3.29-1-4.75-4.13-6.12c-24.34-10.67-33.07-38.36-19.29-60.41c8.33-13.32,26.7-21.21,42.03-18.04
			c18.25,3.77,30.26,16.61,33.14,34.02c2.93,17.73-8.17,36.85-24.99,43.85c-3.15,1.31-4.11,2.88-4.05,6.21
			c0.21,12.33,0.18,24.66,0.02,36.99c-0.05,3.72,0.9,4.17,4.26,2.77c29.88-12.43,59.82-24.71,89.75-37.03
			c1.64-0.67,3.29-1.33,4.97-1.9c5.43-1.84,7.64-5.66,9.33-11.2c6.11-19.93,26.77-33.49,47.24-31.94
			c21.88,1.66,39.48,17.31,43.22,38.42c3.96,22.39-8.97,45.18-29.86,52.66c-22.34,8-45.73-0.79-57.34-21.54
			c-3.44-6.15-3.44-6.14-9.8-3.49c-32.48,13.5-64.95,27.06-97.5,40.39c-3.2,1.31-4.34,2.9-4.28,6.18c0.15,8.5,0.14,17,0.02,25.49
			c-0.03,2.54,0.76,3.47,3.37,3.62c31.05,1.74,59.95,10.95,87.27,25.47c2.36,1.25,4.72,1.37,7.21,1.37
			c30.66-0.01,61.34,0.62,91.98-0.22c25.39-0.7,44.7,19.7,43.93,44.36c-0.62,19.98,0.08,39.99-0.28,59.98
			c-0.1,5.45,1.45,9.32,5.27,13.09c17.76,17.55,34.77,35.81,51.1,54.72c11.39,13.2,11.88,29.4,0.3,42.35
			c-16.85,18.84-35.52,35.9-53.59,53.53c-2.29,2.24-3.03,4.41-2.99,7.39c0.12,8.5,0.1,17,0.05,25.49
			c-0.15,24.54-17.63,42.18-42.14,42.25c-35.99,0.1-71.99,0.07-107.98-0.11c-4.16-0.02-5.94,1.03-7.06,5.29
			c-3.37,12.85-10.69,23.52-20.08,32.75c-1.96,1.92-2.72,3.81-2.71,6.5c0.11,15.83,0.18,31.66-0.02,47.49
			c-0.04,3.42,1.06,4.06,4.19,4.04c23.66-0.18,47.32-0.1,70.98-0.28c11.15-0.08,17.03,5.45,17.03,16.61c0,19,0.13,37.99-0.11,56.99
			c-0.05,4.27,0.83,5.64,5.38,5.58c25.99-0.3,51.99-0.25,77.98-0.28c2.15,0,4.35,0.07,6.44,0.53c5.34,1.17,9.46,6.57,9.09,11.57
			c-0.36,4.84-4.88,9.56-10.11,10.21c-2.96,0.37-5.98,0.34-8.98,0.34C664.56,883.94,585.41,883.94,506.25,883.94z M283.51,601.88
			c1.76,2.09,1.64,4.61,1.64,7.1c0.02,10.99-0.01,21.97,0.05,32.96c0.08,16.11,5.82,21.79,22.1,21.72
			c17.48-0.07,34.95-0.25,52.43-0.37c4.23-0.03,8.45,0,13.76,0c-16.04-9.89-30.19-20.54-43.62-32.13
			c-13.62-11.75-26.07-24.68-37.87-38.24c-7.91-9.97-16.24-19.64-23.63-29.98c-10.43-14.58-20.14-29.68-28.6-45.52
			c-1.76-3.29-3.38-2.92-5.49-0.36c-3.7,4.49-7.68,8.75-11.24,13.33c-4.68,6.03-4.61,8.05,0.75,13.76
			c8.31,8.85,16.66,17.66,25.32,26.15C260.23,581.2,271.02,592.48,283.51,601.88z M731.48,600.92
			c13.06-11.03,25.06-23.18,37.18-35.2c7.19-7.13,14.32-14.33,21.26-21.71c5.19-5.52,5.18-7.26,0.45-13.26
			c-3.59-4.56-7.41-8.96-11.29-13.29c-3.71-4.15-4.36-4.05-6.88,0.84c-6.64,12.87-14.71,24.84-22.65,36.91
			c-8.67,13.18-19.07,25.01-28.65,37.49c-23.75,27.03-49.96,51.23-81.01,69.93c3.6,2.2,7.06,0.73,10.45,0.74
			c18.97,0.04,37.94-0.03,56.91,0.15c14.63,0.14,21.29-6.01,21.43-20.56c0.12-11.48,0.02-22.97-0.02-34.45
			C728.68,605.6,728.85,602.82,731.48,600.92z M505.69,338.71c-10.05-0.16-20.99,0.83-31.8,2.92
			c-35.14,6.79-66.92,21.54-96.35,41.53c-31.35,21.3-59.34,46.59-86.22,73.2c-7.02,6.94-13.3,14.54-21.13,20.82
			c-4.48,3.59-7.44,9.56-11.69,13.88c-3.72,3.78-4.02,6.95-1.37,11.66c17.7,31.4,38.3,60.69,62.99,86.99
			c22.62,24.1,48.21,44.45,77.49,60c15.9,8.45,32.6,14.83,49.91,19.75c31.7,9,63.73,11.45,96.21,5.23
			c47.5-9.1,88.98-30.31,125.22-62.2c36.27-31.92,64.56-70.03,87.93-112.04c1.65-2.96,1.35-5-0.94-7.46
			c-15.19-16.34-30.47-32.59-46.61-48c-34.66-33.09-71.1-63.75-114.82-84.56C566.7,347.19,537.77,338.6,505.69,338.71z
			 M372.05,805.16c0,17.38,0.1,34.35-0.08,51.32c-0.04,3.77,0.71,5.1,4.86,4.98c13.48-0.38,26.97-0.33,40.46-0.32
			c72.77,0.02,145.55,0.04,218.32,0.21c4.44,0.01,6.01-0.98,5.91-5.71c-0.33-14.65-0.16-29.31-0.18-43.96
			c-0.01-6.52,0-6.52-6.39-6.52c-52.79,0-105.58,0-158.37,0C441.78,805.16,406.99,805.16,372.05,805.16z M464.56,741.53
			c0,12.56,0.15,24.48-0.09,36.39c-0.07,3.67,1.25,4.24,4.52,4.22c24.96-0.13,49.93-0.16,74.89,0.02c3.75,0.03,4.33-1.36,4.27-4.57
			c-0.19-9.65-0.13-19.3-0.15-28.96c-0.01-7.07,0-7.07-6.7-4.38c-0.77,0.31-1.58,0.51-2.37,0.78
			C514.08,753.62,489.62,752.53,464.56,741.53z M444.15,692.19c5.95,17.54,30.92,33.74,57.12,35.13
			c36.56,1.94,61.2-17.5,68.56-35.32C527.76,704.42,486.06,705.27,444.15,692.19z M653.4,366.93c26.02,19.9,51.05,40.51,74.62,63.27
			c0.47-16.6,1.87-32.84-0.05-48.98c-1.02-8.56-8.59-14.12-17.29-14.3c-4.33-0.09-8.66,0.01-12.98,0.02
			C682.92,366.94,668.16,366.93,653.4,366.93z M285.28,430.45c23.85-23.26,48.16-43.97,74.82-63.22c-20.78,0-40.52-0.4-60.23,0.19
			c-8.39,0.25-14.24,7.04-14.47,15.76C284.98,398.43,285.28,413.7,285.28,430.45z M694.96,221.69c-0.04-12.92-11.08-24-23.8-23.87
			c-14.14,0.15-24.8,10.74-24.71,24.58c0.08,13.05,10.88,24.03,23.74,24.13C684.63,246.66,695,236.26,694.96,221.69z M343.18,246.42
			c13.91-0.12,24.34-10.46,24.4-24.19c0.06-13.16-11.27-24.41-24.52-24.33c-13.52,0.08-24.13,10.94-24.03,24.59
			C319.14,235.9,329.86,246.53,343.18,246.42z M507.07,155.87c-10.32-0.17-18.57,7.36-18.8,17.16
			c-0.23,10.09,8.18,18.71,18.48,18.93c9.88,0.22,18.23-7.83,18.36-17.71C525.25,163.88,517.57,156.04,507.07,155.87z"/>
		<path fill="#16060F" d="M791.86,327.81c-7.73-5.48-9.87-9.75-8.14-15.33c1.57-5.07,5.5-7.05,10.21-7.33
			c4.36-0.26,8.13,1.44,10.22,5.68c0.37,0.74,0.53,1.59,0.96,2.29c1.55,2.56,0.52,7.04,2.96,7.99c3.16,1.23,7.17,0.3,10.81,0.32
			c3.16,0.02,2.45-2.77,2.88-4.38c1-3.72,1.7-7.52,5.19-9.82c5.04-3.33,11.88-2.44,15.35,1.87c3.51,4.35,2.88,11.27-2.3,15.57
			c-3.38,2.8-3.39,4.25-0.14,6.96c4.28,3.58,7.09,8.45,8.8,13.67c1.02,3.11,2.28,3.06,4.66,2.02c1.67-0.73,3.43-1.27,5.19-1.77
			c5.01-1.41,9.2-0.11,12.42,4.02c2.73,3.49,2.95,7.42,1.07,11.21c-2.27,4.59-6.17,6.7-11.43,6.33c-2.92-0.2-5.48-1.35-8.04-2.47
			c-1.93-0.84-3.02-0.84-3.63,1.5c-1.6,6.12-5.19,11.14-9.7,15.34c-2.57,2.4-2.4,3.47,0.17,5.66c5.48,4.65,6.61,11.32,3.21,15.89
			c-5.28,7.08-17.27,5.97-19.05-2.78c-1.96-9.64-7.93-8.53-14.29-8.93c-1.9-0.12-2.08,0.88-2.45,2.31c-0.66,2.56-1.38,5.16-2.5,7.55
			c-2.13,4.56-6.08,6.59-10.95,6.32c-4.28-0.24-7.82-2.34-9.11-6.61c-1.43-4.71-1.21-9.92,3.27-12.59c5.49-3.27,3.45-5.33,0.22-8.41
			c-3.77-3.59-6.41-8.08-7.87-13.08c-0.92-3.17-2.61-3.45-5.08-2.19c-2.55,1.29-5.12,2.33-8.04,2.43
			c-6.69,0.22-11.76-4.72-11.59-11.39c0.16-6.35,5.45-10.99,12-10.52c0.66,0.05,1.31,0.21,1.97,0.29c3.29,0.38,6.71,3.59,9.34,2.11
			c2.21-1.25,2.77-5.35,4.13-8.16c1.09-2.26,2.53-4.28,4.28-6.09C788.45,331.64,789.97,329.89,791.86,327.81z M798.79,356.24
			c-0.01,8.53,6.88,15.45,15.54,15.61c8.84,0.16,15.73-6.56,15.64-15.23c-0.09-8.31-7.34-15.35-15.84-15.4
			C805.63,341.15,798.8,347.85,798.79,356.24z"/>
		<path fill="#16060F" d="M837.28,732.23c-0.04,23.21-18.7,41.84-41.87,41.8c-23.73-0.04-41.61-18.23-41.55-42.27
			c0.05-23.43,18.53-41.19,42.76-41.11C819.34,690.74,837.32,709.11,837.28,732.23z M776.7,732c-0.12,10.62,8.41,19.33,19.12,19.55
			c9.97,0.2,18.71-8.75,18.88-19.3c0.15-9.55-8.69-18.37-18.53-18.5C785.19,713.6,776.82,721.45,776.7,732z"/>
		<path fill="#16060F" d="M218.96,690.65c21.73-0.83,41.37,17.77,41.69,41.35c0.31,23.1-18.94,42.02-42.21,42.02
			c-23.08,0-41.42-18.08-41.45-40.85C176.95,708.99,195.04,690.66,218.96,690.65z M199.97,732.44c0,10.18,8.76,19.11,18.9,19.26
			c9.93,0.15,19.01-9.06,19.01-19.29c0-9.73-8.74-18.55-18.46-18.62C207.98,713.71,199.97,721.39,199.97,732.44z"/>
		<path fill="#16060F" d="M204.94,251.55c0-4.83-0.11-9.66,0.03-14.49c0.18-6.04,4.3-10.26,10.29-10.83
			c4.75-0.45,10.27,3.51,10.97,8.86c0.56,4.32,2.56,4.7,6.13,4.46c3.61-0.24,7.29-0.69,10.92,0.26c5.44,1.41,9.14,6.04,8.73,11.15
			c-0.42,5.28-4.54,9.59-10.05,9.99c-4.31,0.31-8.66,0.19-12.98,0.1c-2.1-0.04-2.85,0.47-2.75,2.8c0.14,3.42,0.4,6.97-2.22,9.92
			c-3.16,3.56-7.05,5.44-11.55,3.91c-4.54-1.54-7.41-5.06-7.53-10.15c-0.12-5.33-0.03-10.66-0.03-15.99
			C204.92,251.55,204.93,251.55,204.94,251.55z"/>
		<path fill="#16060F" d="M808.68,252.61c0,4.49,0.06,8.98-0.01,13.47c-0.1,6.59-4.45,11.65-10.18,11.98
			c-5.71,0.32-11.44-4.41-11.14-10.96c0.29-6.28-2.53-6.51-7.08-6.06c-2.14,0.21-4.32,0.08-6.48,0.04
			c-6.38-0.12-10.68-3.95-11.03-9.77c-0.4-6.69,3.23-10.83,10.2-11.56c1.65-0.17,3.32-0.3,4.98-0.27
			c5.07,0.09,10.13,1.13,10.64-6.85c0.26-4.06,6.52-6.87,10.73-6.24c5.09,0.76,9.27,5.54,9.49,11.26c0.19,4.98,0.04,9.98,0.04,14.97
			C808.8,252.61,808.74,252.61,808.68,252.61z"/>
		<path fill="#16060F" d="M173.28,512.22c-0.01,7.39-6.46,13.73-14.06,13.82c-7.49,0.09-13.66-6.19-13.79-14.02
			c-0.13-7.74,6.28-14.03,14.3-14.02C167.19,498,173.28,504.4,173.28,512.22z"/>
		<path fill="#16060F" d="M853.78,497.98c7.19-0.12,13.74,6.57,13.8,14.1c0.06,7-6.81,13.73-14.22,13.92
			c-6.95,0.17-13.21-6.38-13.32-13.94C839.94,504.5,846.16,498.11,853.78,497.98z"/>
		<path fill="#16060F" d="M202.61,320.17c-0.04-6.8,5.41-12.21,12.39-12.29c7.2-0.08,13.06,5.75,12.99,12.93
			c-0.06,6.32-6.3,12.02-13.37,12.21C208.3,333.19,202.65,327.15,202.61,320.17z"/>
		<path fill="#16060F" d="M215.65,377.9c7,0.04,12.57,5.74,12.46,12.73c-0.11,6.72-6.16,12.25-13.22,12.09
			c-6.89-0.16-11.98-5.53-11.97-12.61C202.94,382.89,208.2,377.85,215.65,377.9z"/>
		<path fill="#16060F" d="M143.97,355.23c-0.02-7.44,4.99-12.37,12.57-12.35c7.08,0.01,12.64,5.57,12.57,12.58
			c-0.06,6.78-6.04,12.47-13.01,12.39C149.38,367.78,144,362.18,143.97,355.23z"/>
		<path fill="#16060F" d="M236.39,355.48c-0.01,6.54-6.3,12.38-13.16,12.21c-6.56-0.16-11.95-5.6-12.09-12.19
			c-0.16-7.1,5.27-12.5,12.62-12.56C230.95,342.88,236.4,348.29,236.39,355.48z"/>
		<path fill="#16060F" d="M167.97,320.2c0.05-7.06,5.52-12.35,12.75-12.32c6.87,0.02,12.32,5.77,12.26,12.93
			c-0.05,6.54-6.35,12.41-13.13,12.24C173.22,332.88,167.92,327.15,167.97,320.2z"/>
		<path fill="#16060F" d="M193.07,390.23c0.02,6.94-5.6,12.53-12.73,12.67c-6.53,0.13-12.18-5.64-12.27-12.53
			c-0.09-6.8,5.75-12.49,12.79-12.47C187.79,377.92,193.05,383.23,193.07,390.23z"/>
		<path fill="#16060F" d="M202.14,355.34c0.03,6.83-5.31,12.09-12.26,12.08c-7.29-0.01-12.46-4.94-12.53-11.94
			c-0.07-6.82,5.39-12.42,12.14-12.48C196.65,342.95,202.11,348.28,202.14,355.34z"/>
		<path fill="#16060F" d="M846.65,659.99c-6.22,0.08-11-4.91-11.12-11.62c-0.11-5.93,4.88-11.05,10.98-11.29
			c6.03-0.23,12.24,5.5,12.33,11.4C858.94,654.36,853.06,659.91,846.65,659.99z"/>
		<path fill="#16060F" d="M166.19,659.89c-6.16-0.1-10.9-5.08-10.77-11.3c0.13-6.15,5.56-11.51,11.5-11.34
			c6.46,0.18,11.48,5.21,11.45,11.45C178.33,655.02,172.91,660,166.19,659.89z"/>
		<path fill="#16060F" d="M166.48,627.11c-6.24,0.01-11.16-4.7-11.24-10.78c-0.08-6.27,5.27-11.43,11.86-11.46
			c6.3-0.03,11.48,5.03,11.49,11.2C178.61,622.39,173.44,627.1,166.48,627.11z"/>
		<path fill="#16060F" d="M846.37,627.16c-6.4,0.08-11.27-4.87-11.2-11.37c0.06-5.79,5.2-10.78,11.29-10.97
			c6.42-0.2,12.03,5.04,12.06,11.23C858.55,622.19,853.2,627.08,846.37,627.16z"/>
		<path fill="#FEFEFE" d="M505.69,338.71c32.08-0.11,61.01,8.48,88.83,21.72c43.72,20.81,80.16,51.47,114.82,84.56
			c16.14,15.41,31.42,31.66,46.61,48c2.29,2.46,2.58,4.5,0.94,7.46c-23.37,42.01-51.66,80.12-87.93,112.04
			c-36.24,31.89-77.73,53.1-125.22,62.2c-32.48,6.22-64.51,3.77-96.21-5.23c-17.31-4.92-34.01-11.3-49.91-19.75
			c-29.28-15.55-54.87-35.9-77.49-60c-24.69-26.3-45.29-55.58-62.99-86.99c-2.66-4.71-2.36-7.88,1.37-11.66
			c4.25-4.32,7.21-10.29,11.69-13.88c7.83-6.28,14.12-13.88,21.13-20.82c26.88-26.6,54.87-51.9,86.22-73.2
			c29.43-19.99,61.21-34.74,96.35-41.53C484.7,339.54,495.64,338.55,505.69,338.71z M630.98,513.94c0-4.33-0.01-8.66,0-12.99
			c0.02-15.21-0.57-16.78-15.49-18.33c-8.49-0.88-13.06-3.75-14.76-12.06c-0.55-2.7-0.9-4.6,1.1-6.71c2.96-3.13,5.8-6.38,8.02-10.14
			c2.35-3.98,2.11-7.31-1.32-10.68c-8.79-8.62-17.4-17.43-26.07-26.17c-7.8-7.87-9.77-8.72-17.83-1.38
			c-6.8,6.19-12.3,6.17-19.32,1.43c-2.19-1.48-3.23-2.64-3.45-5.29c-0.48-5.81-1.82-11.42-4.87-16.56c-2.24-3.78-5.12-5.65-9.7-5.57
			c-14.15,0.25-28.31,0.27-42.47,0.17c-3.65-0.03-5.93,1.51-7.69,4.43c-3.26,5.4-4.91,11.33-5.03,17.55
			c-0.06,3.22-1.71,4.24-4.11,5.86c-8.01,5.4-14.59,4.11-20.55-3.03c-0.3-0.36-0.82-0.55-1.21-0.85c-5.01-3.87-7.87-3.98-12.35,0.36
			c-9.32,9.01-18.55,18.12-27.58,27.42c-5.74,5.92-6.13,9.91-0.09,15.75c6.35,6.15,8.3,12.13,3.55,19.8
			c-0.17,0.28-0.33,0.6-0.38,0.92c-0.37,2.34-1.75,3.22-4.08,3.49c-5.11,0.58-10.24,1.15-15.2,2.66c-6,1.82-7.84,4.13-7.85,10.32
			c-0.04,12.99,0.09,25.98-0.08,38.97c-0.07,5.43,2.45,8.53,7.49,9.53c4.88,0.97,9.83,1.86,14.79,2.11c3.31,0.17,4.09,1.9,5.55,4.36
			c4.82,8.05,2.72,14.4-3.71,20.17c-0.37,0.33-0.63,0.77-0.93,1.17c-4.48,6.12-4.43,8.44,0.88,13.77
			c8.81,8.84,18.06,17.25,26.52,26.4c7.31,7.9,11.75,6.45,17.76,0.87c5.77-5.36,10.81-5.7,17.52-2.29c2.83,1.44,3.95,2.51,4.09,5.6
			c0.33,6.92,2.22,13.42,6.5,19.08c1.52,2.01,3.23,3.11,5.85,3.1c14.99-0.08,29.98-0.09,44.97-0.03c2.21,0.01,3.93-0.61,5.08-2.45
			c2.79-4.47,6.13-9.04,6.22-14.32c0.14-7.93,3.65-12.07,11.08-14.08c2.56-0.69,4.12-0.81,6.14,0.95c3.13,2.71,6.5,5.18,9.93,7.52
			c3.11,2.12,6.49,1.98,9.16-0.67c10.85-10.78,21.55-21.72,32.32-32.58c2.37-2.39,2.34-5,0.74-7.7c-1.1-1.85-2.04-4.01-3.63-5.33
			c-6.62-5.49-7.52-11.6-3.51-19.14c1.39-2.61,2.46-4.23,5.61-4.38c5.31-0.25,10.57-1.12,15.71-2.59c4.52-1.3,6.97-3.88,6.75-8.96
			C630.77,526.94,630.98,520.44,630.98,513.94z"/>
		<path fill="#F76290" d="M372.05,805.16c34.94,0,69.73,0,104.53,0c52.79,0,105.58,0,158.37,0c6.39,0,6.38,0,6.39,6.52
			c0.02,14.65-0.15,29.31,0.18,43.96c0.11,4.73-1.47,5.72-5.91,5.71c-72.77-0.17-145.55-0.19-218.32-0.21
			c-13.49,0-26.98-0.06-40.46,0.32c-4.15,0.12-4.9-1.22-4.86-4.98C372.15,839.51,372.05,822.54,372.05,805.16z"/>
		<path fill="#FEFEFE" d="M731.48,600.92c-2.63,1.9-2.81,4.67-2.8,7.58c0.05,11.48,0.14,22.97,0.02,34.45
			c-0.15,14.55-6.8,20.7-21.43,20.56c-18.97-0.18-37.94-0.11-56.91-0.15c-3.39-0.01-6.86,1.46-10.45-0.74
			c31.05-18.7,57.25-42.9,81.01-69.92C724.4,595.5,725.82,600.93,731.48,600.92z"/>
		<path fill="#FEFEFE" d="M292,592.92c11.8,13.56,24.25,26.49,37.87,38.24c13.43,11.59,27.58,22.24,43.62,32.13
			c-5.3,0-9.53-0.02-13.76,0c-17.48,0.12-34.95,0.3-52.43,0.37c-16.27,0.06-22.02-5.61-22.1-21.72
			c-0.05-10.99-0.03-21.97-0.05-32.96c0-2.49,0.11-5.01-1.64-7.1C287.71,600.19,289.01,595.76,292,592.92z"/>
		<path fill="#FEFEFE" d="M464.56,741.53c25.05,11,49.51,12.08,74.37,3.5c0.79-0.27,1.6-0.47,2.37-0.78c6.7-2.68,6.68-2.69,6.7,4.38
			c0.02,9.65-0.04,19.31,0.15,28.96c0.06,3.22-0.52,4.6-4.27,4.57c-24.96-0.18-49.93-0.15-74.89-0.02c-3.27,0.02-4.6-0.54-4.52-4.22
			C464.72,766.01,464.56,754.09,464.56,741.53z"/>
		<path fill="#F76290" d="M444.15,692.19c41.91,13.08,83.62,12.22,125.68-0.18c-7.36,17.82-32,37.26-68.56,35.32
			C475.07,725.93,450.1,709.73,444.15,692.19z"/>
		<path fill="#FEFEFE" d="M653.4,366.93c14.76,0,29.53,0,44.29,0c4.33,0,8.66-0.11,12.98-0.02c8.7,0.18,16.27,5.75,17.29,14.3
			c1.92,16.14,0.52,32.38,0.05,48.98C704.45,407.45,679.42,386.83,653.4,366.93z"/>
		<path fill="#FEFEFE" d="M285.28,430.45c0-16.75-0.3-32.02,0.12-47.26c0.24-8.72,6.08-15.51,14.47-15.76
			c19.71-0.59,39.45-0.19,60.23-0.19C333.44,386.48,309.13,407.19,285.28,430.45z"/>
		<path fill="#F76290" d="M731.48,600.92c-5.66,0.01-7.09-5.43-10.57-8.22c9.57-12.48,19.98-24.31,28.65-37.49
			c7.94-12.07,16.01-24.04,22.65-36.91c2.52-4.89,3.17-4.99,6.88-0.84c3.87,4.33,7.69,8.73,11.29,13.29c4.73,6,4.73,7.74-0.45,13.26
			c-6.93,7.38-14.06,14.58-21.26,21.71C756.54,577.74,744.55,589.89,731.48,600.92z"/>
		<path fill="#F76290" d="M292,592.92c-2.99,2.84-4.29,7.27-8.48,8.96c-12.5-9.4-23.29-20.69-34.41-31.58
			c-8.66-8.49-17.02-17.31-25.32-26.15c-5.36-5.71-5.43-7.72-0.75-13.76c3.56-4.59,7.54-8.85,11.24-13.33
			c2.1-2.55,3.73-2.93,5.49,0.36c8.46,15.84,18.18,30.94,28.6,45.52C275.76,573.28,284.09,582.95,292,592.92z"/>
		<path fill="#FEFEFE" d="M694.96,221.69c0.04,14.57-10.33,24.97-24.77,24.84c-12.87-0.11-23.66-11.09-23.74-24.13
			c-0.08-13.84,10.57-24.43,24.71-24.58C683.88,197.69,694.93,208.77,694.96,221.69z"/>
		<path fill="#FEFEFE" d="M343.18,246.42c-13.32,0.11-24.05-10.52-24.14-23.93c-0.1-13.66,10.51-24.51,24.03-24.59
			c13.24-0.08,24.58,11.17,24.52,24.33C367.52,235.96,357.09,246.3,343.18,246.42z"/>
		<path fill="#F76290" d="M507.07,155.87c10.5,0.17,18.18,8.01,18.05,18.39c-0.13,9.87-8.48,17.92-18.36,17.71
			c-10.3-0.23-18.71-8.84-18.48-18.93C488.5,163.23,496.75,155.7,507.07,155.87z"/>
		<path fill="#F76290" d="M798.79,356.24c0.01-8.39,6.84-15.08,15.33-15.03c8.51,0.05,15.75,7.09,15.84,15.4
			c0.1,8.67-6.8,15.39-15.64,15.23C805.67,371.69,798.78,364.77,798.79,356.24z"/>
		<path fill="#FEFEFE" d="M776.7,732c0.12-10.55,8.49-18.39,19.48-18.25c9.84,0.12,18.68,8.95,18.53,18.5
			c-0.17,10.56-8.92,19.5-18.88,19.3C785.11,751.33,776.58,742.61,776.7,732z"/>
		<path fill="#FEFEFE" d="M199.97,732.44c0-11.05,8.01-18.73,19.45-18.65c9.72,0.07,18.46,8.89,18.46,18.62
			c0,10.23-9.07,19.43-19.01,19.29C208.73,751.55,199.97,742.62,199.97,732.44z"/>
		<path fill="#16060F" d="M630.98,513.94c0,6.5-0.21,13,0.07,19.48c0.22,5.08-2.23,7.66-6.75,8.96c-5.14,1.47-10.4,2.34-15.71,2.59
			c-3.15,0.15-4.22,1.76-5.61,4.38c-4.01,7.54-3.11,13.65,3.51,19.14c1.59,1.32,2.53,3.47,3.63,5.33c1.6,2.7,1.63,5.31-0.74,7.7
			c-10.77,10.86-21.47,21.79-32.32,32.58c-2.67,2.65-6.05,2.8-9.16,0.67c-3.43-2.34-6.8-4.8-9.93-7.52
			c-2.03-1.76-3.58-1.64-6.14-0.95c-7.44,2.01-10.94,6.15-11.08,14.08c-0.09,5.28-3.43,9.85-6.22,14.32
			c-1.15,1.84-2.87,2.46-5.08,2.45c-14.99-0.06-29.98-0.05-44.97,0.03c-2.62,0.01-4.33-1.09-5.85-3.1
			c-4.28-5.66-6.17-12.16-6.5-19.08c-0.15-3.09-1.26-4.16-4.09-5.6c-6.7-3.41-11.74-3.07-17.52,2.29
			c-6.01,5.58-10.45,7.03-17.76-0.87c-8.46-9.15-17.71-17.56-26.52-26.4c-5.3-5.32-5.36-7.64-0.88-13.77
			c0.29-0.4,0.56-0.84,0.93-1.17c6.43-5.77,8.53-12.12,3.71-20.17c-1.47-2.45-2.25-4.19-5.55-4.36c-4.96-0.25-9.91-1.14-14.79-2.11
			c-5.04-1-7.57-4.11-7.49-9.53c0.17-12.99,0.05-25.98,0.08-38.97c0.02-6.2,1.86-8.5,7.85-10.32c4.96-1.51,10.09-2.08,15.2-2.66
			c2.33-0.26,3.71-1.15,4.08-3.49c0.05-0.32,0.21-0.64,0.38-0.92c4.74-7.68,2.8-13.66-3.55-19.8c-6.03-5.84-5.65-9.83,0.09-15.75
			c9.02-9.31,18.26-18.41,27.58-27.42c4.49-4.34,7.34-4.22,12.35-0.36c0.39,0.3,0.91,0.48,1.21,0.85
			c5.95,7.14,12.54,8.42,20.55,3.03c2.4-1.62,4.05-2.63,4.11-5.86c0.12-6.22,1.76-12.15,5.03-17.55c1.76-2.92,4.04-4.46,7.69-4.43
			c14.16,0.1,28.31,0.08,42.47-0.17c4.58-0.08,7.46,1.79,9.7,5.57c3.05,5.14,4.39,10.75,4.87,16.56c0.22,2.64,1.26,3.81,3.45,5.29
			c7.03,4.74,12.53,4.75,19.32-1.43c8.07-7.35,10.03-6.49,17.83,1.38c8.67,8.74,17.28,17.55,26.07,26.17
			c3.44,3.37,3.68,6.7,1.32,10.68c-2.22,3.76-5.06,7.01-8.02,10.14c-2,2.11-1.65,4.01-1.1,6.71c1.71,8.32,6.28,11.18,14.76,12.06
			c14.92,1.55,15.52,3.12,15.49,18.33C630.98,505.28,630.98,509.61,630.98,513.94z M507.09,614.97c3.17,0,6.34-0.1,9.5,0.03
			c2.71,0.11,4-0.68,3.65-3.7c-0.5-4.29-0.51-8.64-1-12.94c-0.36-3.17,0.32-4.81,3.91-5.35c10-1.52,19.4-5.06,27.55-11.05
			c4.5-3.31,6.83-2.61,10.55,1.39c8.76,9.43,6.45,10.42,15.87,0.17c7.99-8.7,8-8.69,0.11-17.19c-0.67-0.73-1.09-1.74-1.86-2.31
			c-2.68-1.98-2.05-3.87-0.49-6.33c5.58-8.78,9.91-18.1,11.11-28.58c0.31-2.69,1.78-3.22,4.04-3.21c4.83,0.03,9.67-0.16,14.49,0.01
			c3.1,0.11,4.61-0.7,4.45-4.15c-0.24-5.15-0.22-10.33-0.03-15.49c0.12-3.13-1.15-4.1-4.1-3.98c-4.49,0.18-9.01-0.1-13.49,0.17
			c-3.37,0.21-4.75-1.1-5.23-4.37c-1.41-9.5-4.65-18.41-9.94-26.44c-2.49-3.77-2.7-6.64,1.07-9.74c2.4-1.98,4.08-4.82,6.27-7.08
			c1.78-1.83,1.75-3.37,0.02-5.11c-3.06-3.06-6.27-6-9.07-9.29c-3.23-3.81-5.91-3.77-9.02,0.1c-1.65,2.06-3.97,3.58-5.71,5.58
			c-2.29,2.62-4.37,2.79-7.24,0.75c-9.2-6.54-19.16-11.44-30.53-12.81c-2.82-0.34-3.04-1.82-2.83-4.11
			c0.43-4.64,0.58-9.31,1.04-13.95c0.28-2.78-0.55-3.91-3.5-3.85c-6.49,0.13-13,0.15-19.49-0.12c-3.55-0.15-4.22,1.34-3.91,4.45
			c0.46,4.63,0.56,9.3,0.88,13.94c0.15,2.16-0.42,3.15-2.87,3.57c-11.3,1.95-21.74,6.21-31.16,12.79c-2.76,1.93-4.88,2.01-7.22-0.74
			c-2.36-2.77-5.25-5.08-7.71-7.77c-1.7-1.85-3.08-1.55-4.6,0.02c-3.55,3.68-7.04,7.43-10.68,11.02c-2.09,2.06-1.51,3.6,0.28,5.45
			c2.66,2.74,5.02,5.8,7.75,8.46c1.86,1.81,2.24,3.15,0.66,5.48c-6.35,9.34-10.5,19.65-12.32,30.81c-0.47,2.89-1.8,3.39-4.32,3.29
			c-4.66-0.19-9.33-0.03-13.99-0.2c-2.72-0.1-3.95,0.76-3.86,3.67c0.16,5.33,0.15,10.66,0.04,15.99c-0.05,2.55,0.85,3.6,3.48,3.53
			c5-0.12,10,0.09,14.99-0.03c2.8-0.07,4.12,0.73,4.49,3.82c0.81,6.83,3.47,13.14,6.3,19.37c1.98,4.36,7.29,8.23,6.27,12.53
			c-0.97,4.11-5.73,7.47-9.2,10.78c-2.22,2.11-1.76,3.5,0.01,5.33c3.48,3.58,7.04,7.1,10.29,10.88c2.51,2.91,4.42,2.57,6.75-0.13
			c1.95-2.26,4.39-4.1,6.35-6.36c2.2-2.52,3.88-3.08,7.02-0.85c7.91,5.61,16.63,9.66,26.26,11.58c7.09,1.42,7.06,1.57,6.81,8.82
			C493.52,614.97,493.52,614.97,507.09,614.97z"/>
		<path fill="#F76290" d="M507.09,614.97c-13.57,0-13.57,0-13.1-13.44c0.25-7.25,0.28-7.41-6.81-8.82
			c-9.64-1.93-18.35-5.98-26.26-11.58c-3.14-2.23-4.83-1.66-7.02,0.85c-1.96,2.25-4.4,4.1-6.35,6.36c-2.34,2.7-4.25,3.04-6.75,0.13
			c-3.26-3.78-6.81-7.3-10.29-10.88c-1.77-1.83-2.23-3.22-0.01-5.33c3.46-3.3,8.22-6.67,9.2-10.78c1.02-4.3-4.29-8.17-6.27-12.53
			c-2.83-6.23-5.49-12.54-6.3-19.37c-0.37-3.09-1.69-3.88-4.49-3.82c-5,0.12-10-0.09-14.99,0.03c-2.63,0.06-3.53-0.98-3.48-3.53
			c0.11-5.33,0.12-10.67-0.04-15.99c-0.09-2.91,1.14-3.77,3.86-3.67c4.66,0.17,9.33,0.02,13.99,0.2c2.52,0.1,3.85-0.41,4.32-3.29
			c1.82-11.15,5.98-21.46,12.32-30.81c1.58-2.33,1.2-3.67-0.66-5.48c-2.73-2.67-5.08-5.72-7.75-8.46c-1.79-1.84-2.37-3.38-0.28-5.45
			c3.64-3.59,7.12-7.34,10.68-11.02c1.52-1.57,2.9-1.88,4.6-0.02c2.46,2.69,5.36,5,7.71,7.77c2.34,2.75,4.46,2.67,7.22,0.74
			c9.42-6.58,19.85-10.84,31.16-12.79c2.46-0.42,3.02-1.41,2.87-3.57c-0.33-4.65-0.43-9.31-0.88-13.94
			c-0.31-3.11,0.36-4.6,3.91-4.45c6.49,0.27,13,0.25,19.49,0.12c2.95-0.06,3.78,1.06,3.5,3.85c-0.47,4.64-0.61,9.3-1.04,13.95
			c-0.21,2.29,0.01,3.76,2.83,4.11c11.36,1.38,21.33,6.27,30.53,12.81c2.87,2.04,4.95,1.87,7.24-0.75c1.74-2,4.06-3.52,5.71-5.58
			c3.1-3.87,5.79-3.9,9.02-0.1c2.79,3.29,6.01,6.23,9.07,9.29c1.73,1.74,1.76,3.28-0.02,5.11c-2.2,2.26-3.87,5.11-6.27,7.08
			c-3.76,3.1-3.55,5.98-1.07,9.74c5.3,8.03,8.53,16.94,9.94,26.44c0.49,3.27,1.86,4.57,5.23,4.37c4.48-0.27,9,0,13.49-0.17
			c2.95-0.12,4.22,0.85,4.1,3.98c-0.19,5.16-0.21,10.34,0.03,15.49c0.16,3.45-1.35,4.26-4.45,4.15c-4.83-0.17-9.66,0.02-14.49-0.01
			c-2.26-0.01-3.73,0.52-4.04,3.21c-1.2,10.48-5.54,19.8-11.11,28.58c-1.56,2.46-2.19,4.35,0.49,6.33c0.77,0.57,1.19,1.59,1.86,2.31
			c7.89,8.51,7.89,8.5-0.11,17.19c-9.42,10.25-7.11,9.26-15.87-0.17c-3.72-4-6.05-4.7-10.55-1.39c-8.15,5.99-17.54,9.53-27.55,11.05
			c-3.59,0.55-4.27,2.18-3.91,5.35c0.49,4.29,0.5,8.64,1,12.94c0.35,3.02-0.94,3.81-3.65,3.7
			C513.42,614.87,510.25,614.97,507.09,614.97z M448,513.52c-0.06,32.86,25.72,59.18,58.01,59.27c31.66,0.08,58.16-26.28,59.14-57
			c1.08-33.92-26.47-60.15-57.28-60.46C474.04,455,448.05,480.39,448,513.52z"/>
		<path fill="#16060F" d="M448,513.52c0.06-33.14,26.04-58.52,59.87-58.19c30.81,0.31,58.36,26.54,57.28,60.46
			c-0.98,30.72-27.48,57.08-59.14,57C473.71,572.71,447.94,546.38,448,513.52z M541.98,513.85c0-19.39-16.08-35.54-35.48-35.62
			c-19.78-0.08-35.51,15.6-35.42,35.31c0.09,19.58,16.19,35.42,36.02,35.43C526.74,548.99,541.98,533.64,541.98,513.85z"/>
		<path fill="#FEFEFE" d="M541.98,513.85c0,19.79-15.24,35.14-34.88,35.13c-19.83-0.01-35.93-15.86-36.02-35.43
			c-0.09-19.7,15.65-35.39,35.42-35.31C525.9,478.31,541.98,494.46,541.98,513.85z"/>
	</g>
</g>
</svg>
