<?xml version="1.0" encoding="utf-8"?>
<!-- Generator: Adobe Illustrator 27.8.0, SVG Export Plug-In . SVG Version: 6.00 Build 0)  -->
<svg version="1.1" id="Capa_1" xmlns="http://www.w3.org/2000/svg" xmlns:xlink="http://www.w3.org/1999/xlink" x="0px" y="0px"
	 viewBox="0 0 1024 1024" enable-background="new 0 0 1024 1024" xml:space="preserve">
<g>
	<g>
		<path fill="#FEFEFE" d="M1023.91,512.5c0,168.97-0.01,337.94,0.09,506.91c0,3.75-0.84,4.59-4.59,4.59
			c-338.27-0.1-676.54-0.1-1014.81,0c-3.75,0-4.59-0.84-4.59-4.59C0.1,681.14,0.1,342.86,0,4.59C0,0.84,0.84,0,4.59,0
			c338.27,0.1,676.54,0.1,1014.81,0c3.75,0,4.6,0.84,4.59,4.59C1023.89,173.89,1023.91,343.2,1023.91,512.5z M724.81,360.99
			c0,2.53,0,4.63,0,6.74c-0.03,42.15-0.08,84.31-0.05,126.46c0,3.23-0.36,5.3-4.11,6.6c-6.63,2.29-10.86,7.6-13.34,14.03
			c-4.1,10.64,1.27,23.77,11.54,28.82c10.89,5.35,23.98,1.79,30.84-8.39c6.63-9.84,5.44-24.52-4.91-30.67
			c-8.51-5.05-8.39-11.29-8.11-18.83c0.08-2,0.01-4,0-6c-0.09-39.15-0.19-78.31-0.24-117.46c0-2.05-0.74-4.39,1.28-6.01
			c7.27-5.84,6.84-10.02-1.75-13.69c-9.45-4.04-19.06-7.72-28.56-11.64c-52.61-21.72-105.43-42.94-158.27-64.1
			c-7.13-2.86-13.45-2.89-20.55,0.05c-25.78,10.66-51.81,20.73-77.62,31.32c-36.09,14.81-72.06,29.92-108.1,44.85
			c-3.3,1.37-5.98,3.13-5.82,7.13c0.14,3.56,2.79,4.98,5.68,6.16c23.96,9.81,47.88,19.72,71.9,29.38c2.67,1.07,3.06,1.94,1.72,4.16
			c-0.68,1.13-1.15,2.4-1.87,3.51c-15.11,23.24-21.81,48.64-19.47,76.3c0.27,3.17-0.84,4.77-3.54,6.2
			c-6.81,3.63-11.93,9.33-15.02,16.15c-13.77,30.39,10.67,63.95,43.96,60.58c2.68-0.27,3.96,0.62,5.18,2.67
			c14.24,23.93,35.27,39.32,61.18,48.59c2.94,1.05,8.08,0.75,8.17,3.78c0.09,2.93-5.05,3.44-7.94,4.86
			c-16.98,8.39-35.55,13.23-51.88,23.05c-35.17,21.16-51.94,52.49-51.17,93.38c0.08,4.07,2.03,7.3,5.1,9.88
			c3.32,2.79,7.34,2.77,11.35,2.77c42.32-0.02,84.64-0.04,126.96-0.06c50.65-0.03,101.29-0.04,151.94-0.11
			c10.61-0.01,15.52-5,15.71-15.54c0.11-6.35-0.42-12.65-1.66-18.87c-7.29-36.66-28.3-62.25-62.42-77.28
			c-15.03-6.63-30.46-12.36-45.15-19.75c-1.27-0.64-3.16-0.98-3.04-2.84c0.12-1.84,2.08-1.89,3.37-2.49
			c0.9-0.42,1.89-0.64,2.84-0.94c24.9-8.02,44.44-23,57.77-45.53c2.53-4.28,5.05-5.36,9.69-5.29c10.28,0.14,19.68-3.29,27.68-9.69
			c18.75-15,25.1-47-0.95-67.2c-1.77-1.37-3.1-2.26-2.69-5.11c1.93-13.31,0.87-26.51-1.99-39.64c-3.19-14.68-9.75-27.84-17.81-40.33
			c-1.8-2.79-1.98-4.13,1.78-5.06c4-0.99,7.84-2.68,11.67-4.24C690.85,374.86,707.56,368.02,724.81,360.99z M211.07,947.93
			c13.99,0,27.99,0.03,41.98-0.01c11.83-0.03,23.66,0.04,35.48-0.27c7.39-0.2,13.21-5.17,14.43-11.52
			c1.29-6.75-1.74-12.79-8.62-15.51c-4.07-1.61-1.7-3.36-0.79-5.15c13.5-26.56,8.59-63.74-15.37-81.64
			c-6.16-4.6-8.29-9.25-7.62-16.39c0.26-2.79,0.67-3.91,3.62-4.6c8.14-1.91,13.24-7.37,15.46-15.34
			c3.25-11.7-5.65-24.28-17.01-24.26c-39.98,0.09-79.95,0.17-119.93,0.27c-3.66,0.01-7.33,0.07-10.74,1.73
			c-6.4,3.1-11.12,11.33-10.57,18.47c0.69,8.9,6.78,17.07,15.22,18.96c3.98,0.89,4.79,2.62,4.42,6.05
			c-0.18,1.65-0.17,3.34-0.03,4.99c0.28,3.29-0.68,5.5-3.84,7.25c-4.51,2.5-8.21,6.17-11.35,10.33
			c-16.85,22.36-19.01,46.52-8.36,71.97c1.77,4.24,3.02,7.06-2.34,9.02c-1.12,0.41-2.02,1.73-2.76,2.8
			c-3.29,4.78-3.74,10-1.26,15.14c2.77,5.73,7.94,7.72,14.03,7.72C160.42,947.93,185.74,947.93,211.07,947.93z M205.5,726.77
			c0,0.05,0,0.11,0,0.16c14.16,0,28.32,0.04,42.48-0.01c9.6-0.04,14.17-4.77,14.16-14.5c-0.01-14.33-0.03-28.65-0.02-42.98
			c0.01-8.87,0.03-8.87,9.08-9.07c1.16-0.03,2.33-0.12,3.49-0.25c13.18-1.56,22.11-8.69,26.53-21.08
			c4.26-11.94,1.26-22.48-7.19-31.73c-7.15-7.83-16.39-9.9-26.33-9.19c-4.96,0.35-5.71-1.45-5.61-5.77
			c0.25-10.82,0.09-21.66,0.01-32.48c-0.06-8.47-4.72-13.54-13.17-13.57c-28.99-0.13-57.97-0.12-86.96,0.04
			c-7.84,0.04-11.97,4.39-12.14,12.17c-0.22,10.49-0.14,20.99-0.29,31.48c-0.11,7.98-0.18,7.97-7.96,7.95c-1.5,0-3.01-0.06-4.5,0.07
			c-12.18,1.06-20.94,7.41-26.09,18.19c-5.02,10.52-4.17,21.02,2.63,30.73c7.29,10.4,17.52,14.57,29.88,13.06
			c5.37-0.66,6.31,1.45,6.23,6.1c-0.24,15.49-0.13,30.98-0.26,46.47c-0.08,9.19,4.61,14.13,14.03,14.19
			C177.52,726.83,191.51,726.77,205.5,726.77z M294.1,173.58c-0.01,0-0.02,0-0.03,0c0-24.48-0.11-48.97,0.09-73.45
			c0.04-5.17-1.93-8.83-6.25-10.96c-19.74-9.72-40.48-15.77-62.66-15.92c-2.12-0.01-3.62-0.42-5.37-1.74
			c-6.65-5-14.21-6.55-21.35-1.87c-4.64,3.04-9.11,3.94-14.26,3.43c-0.49-0.05-1.01-0.06-1.5,0.01
			c-18.49,2.46-36.42,6.83-53.42,14.82c-6.48,3.05-9.54,7.12-9.43,14.59c0.38,26.31,0.24,52.62,0.27,78.94
			c0.02,21.32-0.02,42.64,0.01,63.95c0.01,10.86,4.73,14.48,15.21,11.54c6.39-1.79,12.68-3.91,19.04-5.82
			c13.72-4.12,25.86-2.24,35.94,8.88c9.81,10.83,21.72,11.15,33.48-0.19c8.54-8.24,18.28-12.11,30.4-9.89
			c9.04,1.66,17.48,5.21,26.35,7.3c8.57,2.01,13.46-1.84,13.47-10.67C294.11,222.21,294.1,197.9,294.1,173.58z M977.13,161.09
			c0.01,0,0.01,0,0.02,0c0-24.65-0.03-49.29,0.02-73.94c0.02-8.3-2.11-10.49-10.61-10.64c-15.98-0.28-31.96-0.68-47.94-0.9
			c-13.09-0.18-25.91,1.14-37.59,7.79c-1.81,1.03-3.01,0.17-4.57-0.53c-9.51-4.28-19.5-7.01-29.93-7.01
			c-21.02,0.01-42.05,0.41-63.07,0.75c-5.94,0.1-8.47,2.76-8.47,8.65c-0.01,49.96-0.01,99.92,0.03,149.88
			c0.01,7.32,3.03,9.81,10.47,8.7c9.04-1.35,18.02-3.06,27.08-4.26c19.7-2.62,38.96-1.28,56.5,8.96c5.99,3.5,10.91,3.5,16.64,0.22
			c10.4-5.95,21.78-8.7,33.66-9.84c15.99-1.54,31.41,2.28,46.99,4.63c8.19,1.24,10.77-0.81,10.77-9.02
			C977.13,210.05,977.13,185.57,977.13,161.09z M977.04,407.41c0.17-6.74-0.57-13.38-2.15-19.85c-9.36-38.15-31.7-63.65-71.12-72.21
			c-4.2-0.91-9.63,0.19-12.53-2.12c-3.12-2.48-0.66-8.1-1.22-12.32c-0.44-3.29-2.81-4.41-5.58-4.66c-3.02-0.28-5.3,1.22-5.77,4.31
			c-0.45,2.94-0.58,5.98-0.44,8.95c0.14,3.03-0.6,4.16-3.98,4.61c-24.54,3.27-45.1,13.74-60.89,33.37
			c-31.91,39.67-26.47,98.97,12.41,130.94c1.88,1.54,2.41,2.66,1.44,4.94c-1.95,4.58-3.78,9.23-5.27,13.98
			c-1.17,3.73-0.21,7.13,3.84,8.54c3.81,1.33,6.91-0.03,8.74-3.68c1.78-3.56,3.53-7.16,5.03-10.85c0.83-2.03,1.76-2.28,3.71-1.48
			c4.3,1.76,8.63,3.55,13.08,4.84c22.88,6.62,45.35,5.56,67.17-4.31c2.81-1.27,4.09-0.91,5.29,1.85c1.59,3.65,3.39,7.21,5.33,10.68
			c1.94,3.46,5.29,4.31,8.62,2.81c3.3-1.49,4.85-4.47,3.55-8.26c-1.35-3.92-2.6-7.88-4.25-11.67c-1.46-3.36-0.98-5.56,1.96-8.09
			C965.51,459.27,976.33,435.68,977.04,407.41z M898.26,664.59c3.11,1.97,5.02,4.5,6.93,6.91c7.91,9.94,17.86,17.39,28.91,23.36
			c2.99,1.61,4.59,3.06,5.27,6.63c1.44,7.53,8.49,13.39,16.07,14.43c7.79,1.07,15.94-2.73,19.62-9.15c4-6.98,3.4-14-2.27-20.72
			c-1.61-1.91-1.09-2.79,0.03-4.52c6.94-10.77,1.98-22.92-10.52-25.85c-6.22-1.46-12.01-0.06-16.76,4.12
			c-2.57,2.26-4.04,2.09-6.49-0.15c-4.53-4.13-9.39-7.94-14.32-11.6c-2.97-2.2-2.46-3.28,0.26-5.29c4.55-3.36,9.88-5.59,13.89-9.68
			c1.76-1.8,2.69-3.79,0.87-6.2c-1.69-2.23-3.62-2.53-6.13-1.4c-5.34,2.41-10.38,5.47-14.7,9.28c-3.61,3.18-5.9,3.1-9.5,0.13
			c-3.1-2.56-2.53-3.54,0.16-5.79c9.61-8.08,20.95-12.71,32.49-17c4.98-1.85,9.91-3.85,14.94-5.56c2.94-1,5.92-0.63,6.97,2.77
			c1.12,3.64-1.46,5.47-4.42,6.69c-0.75,0.31-1.64,0.51-2.44,0.44c-1.72-0.14-2.39,0.46-2.23,2.22c0.28,3.22-0.37,6.37,4.76,7.01
			c4.43,0.55,6.4,5.04,5.13,8.74c-1.15,3.34-5.81,5.47-9.58,4.39c-2.24-0.64-3.43-2.53-4.88-4.12c-2.94-3.22-6.02-1.96-8.94-0.09
			c-3.21,2.06-1.71,4.54-0.26,6.89c3.97,6.43,12.16,9.76,19.94,8.22c11.41-2.26,21.92-14.07,11.79-27.18
			c-1.51-1.96-0.31-2.78,0.64-4.2c6.62-9.88,0.96-21.94-10.87-23.49c-3.92-0.51-7.75,0-11.29,1.35
			c-19.5,7.48-39.72,13.68-54.64,29.84c-3.1-4.5-6.52-8.21-10.46-11.64c1.52-1.31,2.82-2.34,4.02-3.47
			c8.24-7.79,8.72-18.69,1.14-27.14c-1.65-1.84-5.11-3.74-4.89-5.17c0.33-2.13,3.25-3.82,4.97-5.78c7.46-8.51,6.61-20.78-1.89-28.01
			c-8.74-7.42-21.05-6.35-28.38,2.49c-7.13,8.59-6.17,21.33,2.68,27.97c3.44,2.59,3.53,3.42,0.27,6.23
			c-10.23,8.81-9.77,22.02,0.66,30.57c1,0.82,2.03,1.6,3.18,2.5c-1.14,1.05-2.11,1.93-3.06,2.83c-10.58,10-10.53,20.92,0.65,30.16
			c2.85,2.36,2.2,3.27,0,5.03c-4.44,3.54-7.95,7.96-8.35,13.68c-0.24,3.37-1.49,5.05-4.23,6.31c-1.2,0.55-2.37,1.28-3.35,2.15
			c-2.47,2.17-4.82,4.65-2.1,8.01c2.64,3.25,6.31,3.26,8.49,0.02c3.9-5.79,6.78-3.3,10.01,0.3c0.52,0.58,1.22,1.02,1.84,1.53
			c-2.19,2.29-4.32,4.35-6.24,6.58c-6.93,8.04-6.64,19.54,0.61,27.17c7.16,7.54,18.76,8.21,27.15,1.57
			c8.15-6.46,9.98-17.48,4.3-26.38c-1.79-2.8-3.72-5.52-6.39-7.62c-1-0.79-2.63-1.64-0.68-2.97
			C892.97,678.58,896.19,672.17,898.26,664.59z M867.65,947.94c0-0.02,0-0.05,0-0.07c25.66,0,51.33-0.38,76.97,0.12
			c19.65,0.38,32.35-14.69,32.31-32.26c-0.07-25.83,0.01-51.65-0.07-77.48c-0.01-3.65-0.34-7.33-0.88-10.94
			c-2.01-13.47-12-23.98-25.28-26.14c-4.72-0.77-9.66-0.66-14.46-0.33c-4.8,0.33-7.14-0.74-6.36-6.14c0.49-3.43,0.2-6.99,0.05-10.48
			c-0.42-9.55-7.21-16.36-16.56-16.37c-28.49-0.04-56.98-0.02-85.47,0.08c-8.18,0.03-14.31,5.48-15.17,13.6
			c-0.54,5.12-0.62,10.31-0.5,15.45c0.07,3.16-1.12,4.05-4.06,3.93c-4.49-0.19-9.01,0.15-13.49-0.14
			c-21.97-1.43-36.14,15.82-35.82,35.72c0.42,26.15,0.1,52.32,0.1,78.48c0,21.01,11.82,32.94,32.71,32.96
			C817,947.95,842.33,947.94,867.65,947.94z M539.5,947.66c5,0,9.99,0.02,14.99,0c14.49-0.06,28.98-0.04,43.47-0.26
			c10.7-0.16,16.87-5.09,19.63-14.99c1.63-5.83-0.64-10.88-3.15-15.75c-11.17-21.69-22.63-43.24-33.69-64.99
			c-4.94-9.72-12.73-18.42-10.82-30.8c0.53-3.45,1.18-5.01,4.62-5.98c7.61-2.13,12.41-10.45,11.4-18.82
			c-0.98-8.16-7.25-15.06-14.74-15.14c-20.82-0.21-41.64-0.21-62.46,0.09c-8.61,0.13-14.93,6.68-15.81,15.13
			c-0.97,9.35,4.09,17.29,12.51,19.6c1.05,0.29,2.68-0.16,2.72,1.47c0.13,5.75,1.5,11.81-1.3,17.13
			c-14.14,26.91-28.55,53.67-42.77,80.54c-1.77,3.34-3.85,6.59-4.28,10.53c-1.38,12.59,7.73,22.11,21.7,22.21
			C500.85,947.77,520.18,947.67,539.5,947.66z M210.41,344.41c-0.27-0.99-0.51-1.45-0.5-1.89c0.31-8.53,2.1-16.45,8.62-22.66
			c2.87-2.73,3.72-5.89,0.47-9.1c-2.73-2.7-6.49-2.61-9.76,0.37c-1.1,1-2,2.21-2.95,3.37c-5.82,7.09-8.38,15.46-9.01,24.41
			c-0.26,3.74-1.4,3.43-4.21,2.32c-8.03-3.19-16.48-4.47-24.96-2.62c-24.73,5.37-40.15,21.29-47.94,44.64
			c-7.71,23.13-4.61,45.99,4.2,68.22c6.88,17.35,17.14,32.26,32.97,42.78c12.65,8.41,25.91,11.84,40.47,5.03
			c5.13-2.4,10.32-2.1,15.44,0.07c15.8,6.67,30.1,2.99,42.98-6.99c20.8-16.11,31.16-38.3,35.82-63.63
			c3.46-18.81,2.71-37.18-5.91-54.58c-11.03-22.28-28.13-35.87-53.95-36.11C224.47,337.96,217.32,340.67,210.41,344.41z
			 M393.97,153.59c-0.06,0-0.11,0-0.17,0c0,13.98-0.02,27.96,0.02,41.94c0,1.65-0.07,3.46,0.54,4.92
			c6.7,15.94,14.53,31.33,22.83,46.48c3.01,5.49,8.31,5.41,11.99,0.3c1.16-1.61,2.21-3.33,3.1-5.11
			c5.35-10.68,10.75-21.33,15.88-32.11c2.32-4.88,5.29-9.53,4.99-15.42c-1.69-32.47,3.16-65.13-3.1-97.5
			c-1.96-10.15-6.27-18.27-15.85-22.58c-9.82-4.42-18.9-2.65-27.48,4c-11.06,8.58-10.71,21.68-12.33,33.18
			C392.51,125.42,393.97,139.61,393.97,153.59z M622.21,161.38c0.27,13.17-0.14,28.19,2.73,42.98c2.11,10.89,3.14,22.13,8.37,32.16
			c4.77,9.16,12.3,14.65,22.95,13.52c10.56-1.12,17.47-7.39,20.84-17.5c2.32-6.95,3.38-14.2,4.93-21.33
			c5.91-27.31,3.6-55.04,3.94-82.62c0.05-3.85-1.35-7.46-4.66-9.45c-3.43-2.06-3.97-4.75-3.57-8.23c0.19-1.64,0.1-3.33,0.02-4.99
			c-0.56-11.99-8.11-21.14-18.95-23.02c-11.28-1.96-21.37,3.77-25.96,14.73c-2.18,5.22-1.96,10.73-1.88,16.21
			c0.03,1.79,0.32,3.52-1.99,4.53c-5.26,2.31-6.79,6.87-6.77,12.24C622.23,140.26,622.21,149.92,622.21,161.38z M538.5,133.55
			c-8.5-0.33-17.99-0.16-27.48,0.15c-3.36,0.11-4.67,1.47-5.13,4.67c-0.7,4.76-1.63,9.5-2.79,14.17
			c-4.32,17.41-9.01,34.72-13.08,52.18c-3.2,13.72,1.03,22.12,14.28,27.25c23.46,9.07,47.29,8.47,70.73-0.01
			c11.86-4.29,16.48-14.47,13.6-26.87c-5.19-22.32-11.92-44.28-15.91-66.88c-0.67-3.78-2.74-4.76-6.25-4.7
			C557.48,133.65,548.48,133.55,538.5,133.55z M438.23,853.03c-0.14-3.83-2.67-5.69-5.76-5.84c-2.89-0.14-3.38-1.59-4.12-3.72
			c-2.68-7.79-7.35-13.7-15.79-15.74c-1.8-0.44-2.65-1.16-2.69-3.35c-0.06-3.37-1.46-6.32-5.48-6.44c-3.99-0.12-5.02,3.01-5.21,6.02
			c-0.17,2.73-1.25,3.42-3.72,4.11c-7.78,2.16-12.98,7.46-15.07,15.15c-0.81,3-2.18,4.05-4.78,4.43c-3.31,0.48-5.94,1.92-5.62,5.66
			c0.31,3.69,3.08,4.86,6.43,4.64c2.13-0.14,3.04,0.38,3.69,2.75c2.29,8.27,7.51,14.03,16.1,15.94c2.34,0.52,2.9,1.44,2.98,3.54
			c0.12,3.29,1.38,6.15,5.16,6.01c3.36-0.12,4.93-2.72,4.84-5.86c-0.07-2.63,1.22-3.29,3.4-3.88c7.44-2.03,12.46-6.93,14.91-14.12
			c1.05-3.09,2.1-4.72,5.73-4.43C436.26,858.15,438.03,856.08,438.23,853.03z M539.5,115.14c0-0.01,0-0.02,0-0.03
			c9.49,0,18.99-0.05,28.48,0.03c2.71,0.02,4.36-1.16,5.41-3.53c1.06-2.39,1.07-5.55-1.06-6.26c-6.2-2.04-5.05-6.91-5.46-11.37
			c-0.1-1.13-0.62-2.24-1.05-3.32c-5.07-12.56-17.65-19.7-30.88-17.55c-13.35,2.17-23.21,13.18-24.02,26.75
			c-0.08,1.3,0.84,3.06-1.5,3.6c-4.09,0.95-5.31,4.07-4.48,7.63c0.87,3.79,4.23,4.09,7.58,4.06
			C521.51,115.09,530.51,115.14,539.5,115.14z M660.17,871.11c0,4.44,0.02,7.61-0.01,10.77c-0.03,4.11,1.34,7.77,5.8,7.84
			c4.6,0.07,5.73-3.74,5.74-7.77c0.01-6.33,0.23-12.66-0.06-18.98c-0.16-3.42,1.17-4.38,4.24-4.33c5.83,0.1,11.66,0.1,17.49,0.06
			c5.25-0.04,8.15-2.27,7.81-6.2c-0.42-4.84-3.94-5.6-7.92-5.57c-5.83,0.05-11.67-0.07-17.49,0.19c-3.38,0.15-4.15-1.2-4.05-4.33
			c0.21-6.32,0-12.65,0.04-18.98c0.03-4.09-1.48-7.06-5.93-6.87c-4.32,0.18-5.76,3.14-5.67,7.23c0.13,6.33-0.1,12.67,0.09,18.99
			c0.09,2.97-0.78,4.06-3.87,3.97c-6.49-0.19-13-0.18-19.49,0.04c-3.6,0.12-6,2.15-5.97,6c0.03,3.71,2.53,5.27,5.87,5.46
			c3.32,0.19,6.66,0.01,9.99,0.06c4.28,0.07,10.09-1.43,12.44,0.75C662.04,862.05,659.91,867.93,660.17,871.11z M800.98,653.94
			c-14.99-0.13-24.61,8.49-26.84,21.84c-1.78,10.63,4.05,21.29,14.27,26.09c8.57,4.03,20.03,1.8,26.06-5.35
			c2.22-2.63,4.58-5.75,1.1-9.15c-2.94-2.86-6.97-2.47-10.07,0.81c-1.38,1.46-2.7,2.99-4.71,3.56c-5.18,1.48-11.31-1.56-13.64-6.72
			c-2.7-5.98-0.65-13.89,4.52-17.45c4.65-3.2,9.74-2.41,14.23,2.21c2.69,2.77,7.15,3.21,9.7,0.82c3.28-3.08,1.68-6.17-0.51-8.82
			C810.84,656.65,805.22,654.1,800.98,653.94z M780.93,616.34c0,3.99-0.06,7.97,0.02,11.96c0.06,3.15,1.58,4.93,4.94,4.85
			c4.48-0.11,8.99,0.11,13.44-0.29c8.59-0.77,14.95-8.13,14.65-16.54c-0.32-9.04-6.82-15.87-15.6-16.24
			c-3.98-0.17-7.97,0.03-11.95-0.14c-3.92-0.17-5.4,1.96-5.49,5.45C780.84,609.03,780.92,612.68,780.93,616.34z M538.98,118.51
			c0,0.03,0,0.07,0,0.1c-9.15,0-18.31,0.09-27.46-0.04c-3.94-0.06-6.58,1.06-6.54,5.46c0.04,4.41,2.58,6.13,6.75,6.12
			c18.47-0.01,36.95-0.07,55.42,0.11c4.66,0.04,6.44-2.52,6.44-6.36c-0.01-4-2.51-5.57-6.65-5.46
			C557.62,118.68,548.3,118.51,538.98,118.51z M942.71,567.04c0,0.03,0,0.06,0,0.08c2.82,0,5.64-0.05,8.46,0.01
			c3.53,0.08,5.9-1.41,5.96-5.07c0.06-3.5-2.1-5.65-5.55-5.76c-5.97-0.19-11.95-0.14-17.92,0.04c-3.28,0.1-5.37,2.23-5.37,5.42
			c-0.01,3.24,2.21,5.09,5.46,5.24C936.73,567.15,939.72,567.04,942.71,567.04z M857.3,649.89c-0.49-2.66-1.31-5.01-4.53-4.94
			c-3.44,0.07-5.15,2.17-5.07,5.43c0.08,3.24,2.45,4.78,5.31,4.64C855.86,654.86,857.14,652.63,857.3,649.89z"/>
		<path fill="#122D29" d="M724.81,360.99c-17.25,7.03-33.96,13.86-50.7,20.64c-3.84,1.55-7.68,3.24-11.67,4.24
			c-3.77,0.93-3.58,2.27-1.78,5.06c8.06,12.49,14.62,25.65,17.81,40.33c2.86,13.13,3.91,26.33,1.99,39.64
			c-0.41,2.85,0.92,3.74,2.69,5.11c26.05,20.2,19.7,52.21,0.95,67.2c-8,6.4-17.4,9.83-27.68,9.69c-4.64-0.06-7.16,1.02-9.69,5.29
			c-13.33,22.54-32.86,37.52-57.77,45.53c-0.95,0.31-1.94,0.52-2.84,0.94c-1.29,0.61-3.25,0.65-3.37,2.49
			c-0.12,1.86,1.77,2.2,3.04,2.84c14.69,7.4,30.12,13.13,45.15,19.75c34.12,15.04,55.13,40.62,62.42,77.28
			c1.24,6.21,1.77,12.51,1.66,18.87c-0.19,10.54-5.1,15.53-15.71,15.54c-50.65,0.07-101.29,0.08-151.94,0.11
			c-42.32,0.02-84.64,0.04-126.96,0.06c-4.01,0-8.03,0.02-11.35-2.77c-3.07-2.58-5.02-5.8-5.1-9.88
			c-0.77-40.89,16-72.22,51.17-93.38c16.33-9.82,34.9-14.66,51.88-23.05c2.89-1.43,8.03-1.94,7.94-4.86
			c-0.09-3.02-5.23-2.72-8.17-3.78c-25.91-9.27-46.94-24.66-61.18-48.59c-1.22-2.05-2.5-2.94-5.18-2.67
			c-33.29,3.36-57.73-30.19-43.96-60.58c3.09-6.82,8.21-12.52,15.02-16.15c2.69-1.44,3.8-3.03,3.54-6.2
			c-2.34-27.66,4.36-53.06,19.47-76.3c0.72-1.11,1.19-2.38,1.87-3.51c1.34-2.22,0.95-3.09-1.72-4.16
			c-24.02-9.66-47.94-19.57-71.9-29.38c-2.89-1.18-5.53-2.6-5.68-6.16c-0.16-4,2.53-5.77,5.82-7.13
			c36.04-14.94,72.01-30.04,108.1-44.85c25.81-10.6,51.84-20.66,77.62-31.32c7.1-2.93,13.42-2.9,20.55-0.05
			c52.84,21.16,105.65,42.38,158.27,64.1c9.5,3.92,19.11,7.6,28.56,11.64c8.59,3.68,9.02,7.86,1.75,13.69
			c-2.01,1.61-1.28,3.95-1.28,6.01c0.05,39.15,0.15,78.31,0.24,117.46c0,2,0.07,4,0,6c-0.29,7.54-0.4,13.78,8.11,18.83
			c10.35,6.15,11.54,20.83,4.91,30.67c-6.86,10.18-19.95,13.74-30.84,8.39c-10.26-5.04-15.64-18.18-11.54-28.82
			c2.48-6.43,6.71-11.74,13.34-14.03c3.74-1.3,4.11-3.37,4.11-6.6c-0.03-42.15,0.02-84.31,0.05-126.46
			C724.81,365.63,724.81,363.53,724.81,360.99z M488.94,344.07l0.09-0.1c-8.67,2.3-16.7,6.33-25.03,9.54
			c-11.59,4.47-22.92,9.63-34.47,14.2c-2.89,1.14-2.42,3.12-2.54,5.16c-0.07,1.18,0,2.39,1.72,2.37c5.95-0.07,11.8,1.85,17.8,0.93
			c0.87,1.14,2.07,1.54,3.46,1.7c28.42,3.35,56.32,9.35,83.96,16.64c2.97,0.78,5.87,0.85,8.85,0.12
			c13.08-3.17,26.08-6.75,39.28-9.33c21.68-4.23,43.49-7.72,65.56-9.33c1.96-0.14,4.21,0.06,4.25-2.94
			c0.04-2.42,0.17-4.78-3.21-5.13c-1.12-0.12-2.2-0.71-3.28-1.14c-34.6-13.77-69.21-27.54-103.79-41.35
			c-1.89-0.75-3.62-1.56-5.72-0.71c-14.79,5.97-29.61,11.89-44.41,17.82C490.62,343.03,489.78,343.55,488.94,344.07z M443,390.1
			c-3.28-0.56-6.58-1.01-9.83-1.73c-3.43-0.76-5.53-0.29-5.05,3.95c0.29,2.56-0.6,4.92-2.19,6.97c-4.54,5.83-7.65,12.45-10.44,19.21
			c-6.87,16.67-9.8,33.97-8.11,52.56c3.13-1.51,6.3-1.83,8.81-3.9c11.76-3.92,18.82-13.03,25.08-22.93
			c6.18-9.77,8.09-21.01,10.6-32.02c1.41-6.19,6.06-7.93,11.5-4.5c2.59,1.63,4.66,3.76,6.76,5.87
			c13.57,13.63,29.16,24.06,47.28,30.7c13.11,4.81,26.52,7.52,40.53,6.58c6.37-0.43,6.72-0.94,4.72-6.56
			c-1.42-4,0.08-6.34,3.69-7.93c1.33-0.58,3.02,0.08,4.43-1.59c-2.28-2.29-4.68-4.55-5.12-8.08c-0.36-2.87-0.12-5.49,2.49-6.99
			c2.65-1.52,5.42-1.25,7.87,0.85c9.43,8.08,20.61,9.7,32.34,8.01c4.81-0.69,8.11,0.32,10.59,4.35
			c10.49,17.07,26.19,27.42,44.34,34.81c3.99,1.62,4.92,0.4,5.21-3.16c1.02-12.43-0.91-24.51-4.19-36.46
			c-3.21-11.7-9.88-21.73-15.23-32.42c-2.42-4.84-4.24-6.67-10.14-5.92c-25.89,3.25-51.74,6.57-76.9,13.74
			c-13.03,3.72-25.7,6.29-39.47,2.16C496.63,397.91,469.81,393.92,443,390.1z M453.8,647.94c-1.42-2.19-0.31-7.49-5.37-5.29
			c-4.85,2.11-9.59,4.75-13.85,7.88c-23.72,17.42-36.55,40.91-38,70.34c-0.45,9.09-1.77,8.14,8.04,7.94
			c7.99,0.05,15.98,0.03,23.97,0.21c2.68,0.06,3.45-0.99,3.38-3.52c-0.12-4.83-0.07-9.66,0.05-14.49c0.12-4.88,2.26-7.16,6.42-7.03
			c4.62,0.15,6.4,2.92,6.43,7.19c0.02,3.5-0.02,6.99,0,10.49c0.03,8.37-0.73,7.27,7.06,7.34c3.5,0.03,7,0,10.49,0
			c54.96,0,109.93,0.01,164.89,0.01c6.49,0,6.54-0.01,6.43-6.7c-0.06-3.82-0.5-7.64-0.45-11.46c0.05-3.8,1.14-6.95,5.93-6.9
			c5.01,0.05,7.38,2.19,7.49,7.21c0.11,4.66,0.13,9.33,0,13.99c-0.07,2.66,0.64,3.95,3.62,3.9c9.32-0.15,18.65-0.11,27.98-0.05
			c2.38,0.02,3.85-0.51,3.71-3.29c-0.21-4.32,0.16-8.71-0.47-12.96c-4.26-28.66-19.65-49.98-43.96-65.05
			c-2.42-1.5-5.28-2.44-7.69-4.22c-2.03-1.5-3.26,0.01-4.2,1.87c-2.84,5.64-5.83,11.2-8.63,16.86
			c-6.33,12.81-12.32,25.8-18.94,38.46c-5.58,10.68-11.53,10.67-20.39,4.08c-0.65-0.48-1.04-1.3-1.65-1.85
			c-4.92-4.47-9.9-8.89-14.79-13.4c-2.02-1.86-3.58-1.97-5.3,0.43c-2.66,3.7-6.4,6.28-10.05,8.87c-5.26,3.73-10.6,3.38-15.39-0.83
			c-2.87-2.52-5.93-4.9-8.48-7.72c-2.25-2.5-3.74-2.38-6.03-0.1c-4.83,4.81-9.73,9.57-14.93,13.97c-7.52,6.38-15.3,8.35-20.97-3.77
			c-7.61-16.28-15.56-32.4-23.39-48.57C456.03,650.3,455.61,648.57,453.8,647.94z M462.8,424.62c-0.49,1.09-0.67,1.38-0.75,1.69
			c-5.57,22.83-16.77,41.55-38.43,52.6c-1.41,0.72-1.81,1.69-1.87,3.16c-0.73,19.88,0.82,39.34,10.11,57.46
			c9.58,18.68,22.88,33.95,41.62,43.83c30.72,16.19,63.25,19.93,96.93,12.28c22.7-5.16,42.87-15.09,57.95-33.78
			c19.7-24.42,24.79-52.79,23.34-83.09c-0.07-1.49-0.51-2.28-2.03-2.92c-15.83-6.72-28.92-16.97-39.1-30.85
			c-1.34-1.82-2.77-2.48-5.05-2.23c-6.7,0.74-13.28-0.07-19.79-1.8c-2.81-0.75-6.73-3.68-8.11-2.04c-2.2,2.62,0.88,6.12,2.18,9.1
			c3.24,7.44,1.51,11.15-6.43,13.24c-24.57,6.46-47.83,1.84-70.4-8.43C488.03,446.02,474.48,437.15,462.8,424.62z M717.51,348.67
			c-2.93-0.87-5.06-1.27-6.99-2.12c-29.22-12.88-58.99-24.39-88.56-36.41c-26.65-10.83-53.41-21.42-80.1-32.14
			c-2.3-0.92-4.36-0.92-6.71,0.04c-18.88,7.64-37.82,15.13-56.71,22.75c-15.53,6.26-31.04,12.59-46.53,18.95
			c-22.31,9.17-44.59,18.39-66.87,27.62c-1.03,0.43-2.56,0.58-2.75,1.87c-0.27,1.9,1.69,1.79,2.75,2.24
			c15.3,6.52,30.66,12.9,45.94,19.47c3.6,1.55,3.34-0.83,2.96-2.72c-1.3-6.61,2.07-9.82,7.85-11.5c0.64-0.19,1.24-0.48,1.86-0.72
			c35.19-14.13,70.41-28.16,105.52-42.49c6.32-2.58,11.9-2.46,18.16,0.12c20.6,8.49,41.38,16.57,62.09,24.8
			c16.38,6.5,32.75,13.05,49.17,19.45c4.54,1.77,6.85,4.88,6,9.58c-0.79,4.36,0.74,4.03,3.83,2.76c12-4.93,24.12-9.55,36.05-14.64
			C708.65,353.78,713.34,352.78,717.51,348.67z M571.58,665.41c2.87,0.48,3.66-1.8,4.62-3.66c4.36-8.4,8.62-16.86,12.98-25.27
			c4.18-8.07,4.06-7.79-3.77-12.36c-3.9-2.28-6.26-2-9,1.52c-12.63,16.22-48.88,23.71-71.81,2.64c-7.25-6.66-7.22-6.69-15.77-2.39
			c-0.15,0.07-0.3,0.14-0.46,0.19c-2.21,0.77-2.63,1.97-1.5,4.16c5.49,10.63,10.82,21.34,16.3,31.98c0.63,1.23,1.34,3.28,3.07,2.85
			c7.98-1.98,16.96,0.87,24.01-5.97c6.34-6.14,10.98-5.74,18.03-0.09c1.79,1.44,3.59,3.78,5.53,3.96
			C559.78,663.49,565.67,664.39,571.58,665.41z M417.05,539.49c-7.06-16.75-9.21-33.92-8.68-51.48c0.11-3.6-0.92-4.25-4.19-3.3
			c-8.03,2.32-13.86,7.08-16.9,14.92C379.82,518.88,395.25,539.95,417.05,539.49z M656.38,539.59c13.39-0.15,24.79-8.14,29.07-20.11
			c5.62-15.7-2.55-32.11-17.44-35.63c-3.31-0.78-3.44,0.2-3.41,2.89C664.84,504.76,664.04,522.66,656.38,539.59z M568.75,676.52
			c5.86,6.25,11.04,11.78,16.22,17.31c1.69,1.8,2.43,0.62,3.2-0.95c8.72-17.89,17.44-35.77,26.22-53.63
			c0.89-1.81,1.24-3.05-1.38-3.4c-0.95-0.13-1.97-0.59-2.71-1.2c-3.76-3.11-5.56-1.23-7.31,2.37c-4.59,9.39-9.66,18.55-14.1,28.01
			C584.89,673.52,580.24,680.29,568.75,676.52z M510.41,678.18c-13.21,0.02-13.91-0.48-19.55-11.81
			c-4.8-9.65-9.98-19.11-14.67-28.81c-2.07-4.29-4.1-5.51-8.72-3.15c-3.19,1.63-3.61,2.69-2.1,5.77
			c6.44,13.1,12.63,26.32,18.93,39.48c2.15,4.49,4.34,8.95,6.55,13.41c0.58,1.16,1.19,2.75,2.84,1.17
			C499.3,688.91,504.85,683.53,510.41,678.18z M569.85,609.41c-20.78,4.3-41.05,4.36-61.54,0.18c4.4,11.89,17.26,18.67,33.88,18.3
			C555.16,627.6,566.28,620.42,569.85,609.41z M718,522.19c-0.08,5.81,5.57,11.6,11.37,11.64c5.39,0.04,11.24-5.64,11.45-11.11
			c0.26-6.56-4.4-11.66-10.76-11.76C723.38,510.86,718.09,515.78,718,522.19z M538.95,668.38c-1.92,0.68-2.95,2.28-4.24,3.54
			c-7.08,6.86-6.92,6.73,0.23,13.61c2.8,2.69,4.79,2.71,7.57,0.28c8.09-7.06,8.16-7.02,0.29-14.56
			C541.63,670.13,540.65,668.68,538.95,668.38z"/>
		<path fill="#122D29" d="M211.07,947.93c-25.32,0-50.64,0-75.97,0c-6.09,0-11.26-1.99-14.03-7.72c-2.49-5.14-2.03-10.36,1.26-15.14
			c0.74-1.08,1.64-2.39,2.76-2.8c5.36-1.96,4.12-4.79,2.34-9.02c-10.65-25.45-8.49-49.61,8.36-71.97
			c3.14-4.16,6.84-7.83,11.35-10.33c3.16-1.75,4.12-3.96,3.84-7.25c-0.14-1.65-0.15-3.34,0.03-4.99c0.36-3.43-0.44-5.16-4.42-6.05
			c-8.44-1.89-14.53-10.06-15.22-18.96c-0.55-7.14,4.17-15.37,10.57-18.47c3.41-1.65,7.08-1.72,10.74-1.73
			c39.98-0.1,79.95-0.19,119.93-0.27c11.36-0.02,20.26,12.56,17.01,24.26c-2.22,7.98-7.32,13.43-15.46,15.34
			c-2.95,0.69-3.36,1.81-3.62,4.6c-0.66,7.14,1.46,11.79,7.62,16.39c23.96,17.9,28.86,55.08,15.37,81.64
			c-0.91,1.79-3.28,3.54,0.79,5.15c6.88,2.72,9.91,8.76,8.62,15.51c-1.22,6.35-7.04,11.32-14.43,11.52
			c-11.82,0.32-23.65,0.24-35.48,0.27C239.05,947.95,225.06,947.93,211.07,947.93z M145.88,886.47c-1.08,1.12-2,2.5-3.16-0.1
			c-2.47-5.52,0.12-12.91,5.7-15.19c6.86-2.81,13.38-1.52,19.54,2.2c4.44,2.69,8.73,3.14,12.83-0.55c7.98-7.19,16.79-8.1,26.31-3.52
			c4.02,1.94,7.72,1.64,11.12-1.31c7.88-6.84,16.42-7.09,25.51-2.71c2.23,1.08,4.94,2.73,7.13,1.52c9.12-5.04,18.13-5.6,27.6-1.08
			c1.63,0.78,4.28,0.48,5.48-1.33c0.98-1.46-0.37-3.21-1.11-4.62c-4.66-8.87-10.55-16.61-20.19-20.55
			c-3.74-1.53-5.23-3.88-4.84-8.01c0.4-4.29-0.14-8.66,0.11-12.97c0.17-2.88-0.85-3.88-3.59-3.7c-1.32,0.09-2.66-0.18-3.99-0.18
			c-27.47-0.12-54.94-0.24-82.41-0.29c-2.02,0-4.92-1.18-4.71,2.97c0.19,3.8,2.69,2.49,4.64,2.49c12.65-0.03,25.3-0.12,37.95-0.13
			c4,0,6.39,2.29,6.42,6.1c0.02,3.64-2.46,5.65-6.1,5.98c-1.32,0.12-2.66,0.07-3.99,0.08c-11.65,0.07-23.3,0.11-34.96,0.26
			c-1.42,0.02-3.95-0.89-3.84,1.73c0.17,4.22-2.72,5.28-5.68,6.47c-3.78,1.52-6.91,3.98-9.73,6.83
			c-15.67,15.84-18.63,42.96-7.39,65.08c2.48,4.89,5.19,8.4,11.28,6.89c40.45,0.07,80.91,0.12,121.36,0.25
			c2.48,0.01,3.94-1,5.3-2.95c7.66-11,10.19-23.28,9.57-36.45c-0.13-2.74-1.52-2.97-3.61-2.43c-4.49,1.16-8.77,0.94-13.13-0.96
			c-2.84-1.23-6.11-2.11-9.14-0.26c-8.02,4.89-15.93,4.65-24.09,0.16c-3.5-1.92-7.29-2.15-10.68,0.9
			c-7.02,6.31-15.03,7.48-23.62,3.88c-5.79-2.43-10.65-1.66-15.77,2.1c-7.85,5.77-16.19,6.78-25.12,1.5
			C155.71,880.35,151.08,881.23,145.88,886.47z M211.19,785.88c0,0.01,0,0.02,0,0.03c-19.81,0-39.63-0.06-59.44,0.04
			c-6.13,0.03-8.96,5.3-6.15,10.77c2.48,4.82,6.63,5.46,11.51,5.44c35.63-0.09,71.27-0.02,106.9-0.01c1.66,0,3.35,0.01,4.98-0.26
			c4.88-0.78,7.99-4.75,7.93-9.85c-0.06-4.55-2.71-6.15-8.79-6.16C249.15,785.88,230.17,785.88,211.19,785.88z M210.64,934.86
			c0,0.04,0,0.08,0,0.12c23.97,0,47.94,0.04,71.91-0.07c2.23-0.01,6.38,1.23,6.37-1.34c-0.01-3.54-4.14-1.88-6.41-1.88
			c-48.28-0.08-96.55-0.03-144.83,0c-1.16,0-2.33,0.01-3.49,0.11c-0.68,0.06-1.21,0.45-1.25,1.25c-0.05,0.94,0.28,1.65,1.29,1.73
			c1.33,0.1,2.66,0.09,3.99,0.09C162.36,934.86,186.5,934.86,210.64,934.86z"/>
		<path fill="#122D29" d="M205.5,726.77c-13.99,0-27.99,0.06-41.98-0.02c-9.42-0.06-14.11-5-14.03-14.19
			c0.13-15.49,0.02-30.98,0.26-46.47c0.07-4.65-0.86-6.76-6.23-6.1c-12.37,1.51-22.6-2.66-29.88-13.06
			c-6.8-9.71-7.65-20.21-2.63-30.73c5.15-10.78,13.91-17.14,26.09-18.19c1.49-0.13,3-0.07,4.5-0.07c7.77,0.02,7.84,0.03,7.96-7.95
			c0.15-10.49,0.07-20.99,0.29-31.48c0.16-7.79,4.3-12.13,12.14-12.17c28.99-0.16,57.97-0.17,86.96-0.04
			c8.45,0.04,13.11,5.1,13.17,13.57c0.08,10.83,0.24,21.66-0.01,32.48c-0.1,4.32,0.65,6.12,5.61,5.77
			c9.94-0.71,19.17,1.36,26.33,9.19c8.45,9.25,11.45,19.79,7.19,31.73c-4.42,12.38-13.35,19.52-26.53,21.08
			c-1.16,0.14-2.32,0.23-3.49,0.25c-9.05,0.2-9.07,0.19-9.08,9.07c-0.01,14.33,0.01,28.65,0.02,42.98c0,9.73-4.56,14.47-14.16,14.5
			c-14.16,0.05-28.32,0.01-42.48,0.01C205.5,726.88,205.5,726.82,205.5,726.77z M229.7,690.71c5.48,0.08,10.96,0.03,16.43,0.27
			c3.04,0.14,4.04-0.97,4.03-4c-0.08-34.08-0.08-68.16-0.01-102.24c0.01-3.21-1.33-4.64-4.36-4.62c-5.31,0.04-10.62,0.18-15.93,0.28
			c-4.63-0.81-9.29-0.22-13.94-0.35c-1.52-0.04-2.32,0.45-2.63,2.19c-0.67,3.76,0.56,5.01,4.43,4.81c4.54-0.24,5.93,1.84,4.5,5.59
			c-1.04,2.73-3.4,1.3-5.14,1.78c-1.72,0.48-4.31-0.43-3.98,2.93c0.32,3.17,2.62,2.05,4.14,1.8c4.33-0.72,5.26,1.16,5.15,5.14
			c-0.09,3.43-2.19,2.89-4.23,3.36c-1.71,0.39-4.39-1.03-4.96,1.83c-0.49,2.47-0.78,5.02,3.36,4.77c2.57-0.16,5.64-0.7,5.86,3.92
			c0.22,4.68-2.72,3.9-5.36,4.13c-2.16,0.19-4.09,0.08-4.18,3.41c-0.11,3.8,1.56,4.61,4.74,4.24c3.46-0.41,5.13,0.51,4.78,4.61
			c-0.31,3.62-2.33,3.31-4.7,3.3c-2.43-0.02-4.87-0.56-4.87,3.53c0,3.64,1.28,4.71,4.59,4.33c3.69-0.42,5.43,0.73,4.92,4.96
			c-0.43,3.54-2.75,2.68-4.68,2.76c-2.93,0.12-4.88,0.48-4.82,4.39c0.06,3.95,2.4,3.06,4.6,3.21c2.27,0.16,5.08-0.92,5.19,3.32
			c0.11,4.26-1.9,4.98-5.41,4.63c-2.22-0.22-4.12-0.2-4.34,3.11c-0.26,3.95,1.96,4.02,4.61,3.7c4.47-0.55,5.56,1.7,4.73,5.52
			c-0.78,3.59-3.79,1.88-5.73,1.97c-3.37,0.15-3.4,1.98-3.51,4.56c-0.13,3.12,1.63,3.01,3.76,2.97
			C221.05,690.72,225.37,690.73,229.7,690.71z M177.16,580.16c-3.83-0.06-7.67,0.06-11.48-0.24c-3.22-0.25-3.69,1.02-4.44,4.03
			c-1,3.99,2.27,2.67,3.42,3.7c0.76,0.68,2.54,0.19,3.86,0.29c1.75,0.13,2.7,1.06,2.73,2.88c0.03,1.71-0.65,2.92-2.38,3.28
			c-1.14,0.24-2.32,0.22-3.47,0.4c-2.28,0.36-4.93,0.84-4.65,3.74c0.27,2.9,3.07,1.25,4.71,1.7c0.46,0.13,1.03,0.14,1.49,0
			c2.42-0.77,3.86-0.02,4.15,2.57c0.28,2.53-0.21,4.73-3.12,5.31c-1.45,0.29-2.98,0.27-4.47,0.23c-2.02-0.06-2.04,1.29-1.99,2.66
			c0.04,1.41-0.52,3.2,1.77,3.44c0.99,0.1,2,0.1,3,0.08c2.94-0.05,5.05,0.31,4.98,4.3c-0.07,3.97-2.38,3.64-4.92,3.64
			c-2.34,0-4.58-0.31-4.86,3.3c-0.32,4.14,1.62,4.63,5,4.49c4.5-0.18,5.6,1.41,4.59,5.53c-0.87,3.55-3.68,2.07-5.73,2.25
			c-3.52,0.31-5.57,3.46-3.79,6.33c1.29,2.08,3.59,1.22,5.49,1.4c3.81,0.36,5.32,3.14,3.4,6.42c-1.33,2.28-3.58,1.3-5.43,1.35
			c-2.35,0.06-3.73,0.44-3.51,3.33c0.18,2.32,0.42,3.75,3.3,3.57c4.31-0.28,8.65-0.22,12.98-0.3c2.5,0.76,4.71,1.9,5.1,4.82
			c0.41,3.05-2.26,3.72-4.09,5.03c-0.54,0.38-0.99,0.89-1.48,1.34c-4.61-3.45-9.77-1.72-14.59-1.06c-2.06,0.29-2.01,3.47-0.41,4.79
			c1.05,0.87,3.17,0.42,4.81,0.58c3.58,0.36,5.49,3.47,3.88,6.5c-1.28,2.4-3.75,1.78-5.77,1.72c-3-0.1-3.45,1.41-3.46,3.94
			c-0.01,2.46,0.55,3.62,3.32,3.45c4.29-0.27,8.61-0.19,12.92-0.26c6.49,0.06,12.98,0.03,19.46,0.23c2.62,0.08,3.49-0.84,3.48-3.43
			c-0.06-34.47-0.06-68.95,0.01-103.42c0.01-2.88-1.12-3.85-3.82-3.83C190.48,580.28,183.82,580.2,177.16,580.16z M262.45,629.37
			c-0.03,0-0.06,0-0.09,0c0,2.99-0.01,5.97,0,8.96c0.04,10.39,0.05,10.41,10.49,9.49c7.23-0.64,12.42-4.43,15.54-10.85
			c3.17-6.52,2.46-12.86-1.78-18.78c-4.69-6.55-14.34-9.81-22.26-7.69c-2.12,0.57-1.89,1.98-1.9,3.44
			C262.44,619.08,262.45,624.22,262.45,629.37z M149.22,629.19c0-2.82,0-5.64,0-8.47c-0.01-10.47-0.01-10.47-10.38-10.16
			c-9.21,0.27-16.95,7.15-18.06,16.03c-1.15,9.2,5.11,18.75,14.1,20.77c3.5,0.78,7.26,0.3,10.89,0.58c2.56,0.2,3.57-0.65,3.48-3.32
			C149.09,639.48,149.21,634.33,149.22,629.19z M180.94,715.02c0-0.02,0-0.05,0-0.07c5.49,0,10.98-0.07,16.47,0.03
			c2.11,0.04,3.11-0.61,2.91-2.82c-0.11-1.15-0.16-2.35,0-3.49c0.59-4.16-0.7-5.86-5.32-5.65c-8.47,0.38-16.97,0.03-25.45,0.04
			c-9.42,0.01-7.43-0.62-7.62,8.18c-0.07,3.11,1.01,4,4.04,3.85C170.95,714.84,175.95,715.02,180.94,715.02z M231.54,714.96
			c0-0.02,0-0.04,0-0.06c4.48,0,8.96-0.03,13.45,0.01c3.02,0.03,5.64-0.03,5.05-4.41c-0.46-3.38,1.1-7.49-4.91-7.34
			c-8.29,0.22-16.6-0.08-24.9-0.02c-8.78,0.06-7.01-0.6-7.2,7.58c-0.01,0.33,0.04,0.67,0.01,1c-0.24,2.65,1.04,3.37,3.56,3.29
			C221.58,714.84,226.56,714.96,231.54,714.96z M181.02,558.12c0-0.04,0-0.08,0-0.13c-4.97,0-9.97,0.27-14.92-0.09
			c-3.61-0.26-4.69,0.96-4.33,4.38c0.32,3.07-1.19,6.68,4.54,6.41c9.27-0.44,18.57-0.15,27.85-0.12c6.39,0.02,6.14,0.04,6.34-6.23
			c0.11-3.67-1.26-4.45-4.57-4.3C190.98,558.3,186,558.12,181.02,558.12z M231.55,568.57c0,0.05,0,0.09,0,0.14
			c4.65,0,9.31-0.16,13.95,0.05c3.17,0.14,4.8-0.76,4.2-4.16c-0.48-2.68,1.59-6.67-4.01-6.55c-9.79,0.22-19.6,0.2-29.39-0.06
			c-3.86-0.1-3.59,2.25-3.18,4.44c0.42,2.22-2.28,6.19,2.99,6.14C221.26,568.53,226.41,568.57,231.55,568.57z"/>
		<path fill="#122D29" d="M294.1,173.58c0,24.32,0.01,48.63-0.01,72.95c-0.01,8.83-4.89,12.68-13.47,10.67
			c-8.87-2.09-17.31-5.64-26.35-7.3c-12.12-2.23-21.86,1.65-30.4,9.89c-11.76,11.34-23.67,11.02-33.48,0.19
			c-10.08-11.12-22.22-13.01-35.94-8.88c-6.35,1.91-12.65,4.03-19.04,5.82c-10.48,2.94-15.2-0.67-15.21-11.54
			c-0.03-21.32,0.01-42.64-0.01-63.95c-0.03-26.31,0.11-52.63-0.27-78.94c-0.11-7.47,2.95-11.54,9.43-14.59
			c17-7.99,34.92-12.36,53.42-14.82c0.49-0.07,1-0.06,1.5-0.01c5.15,0.51,9.62-0.39,14.26-3.43c7.15-4.68,14.7-3.13,21.35,1.87
			c1.74,1.31,3.25,1.72,5.37,1.74c22.18,0.15,42.91,6.21,62.66,15.92c4.32,2.12,6.29,5.78,6.25,10.96
			c-0.2,24.48-0.09,48.96-0.09,73.45C294.08,173.58,294.09,173.58,294.1,173.58z M196.44,148.98c3.64-1.01,7.27-2.08,10.94-2.99
			c1.52-0.38,2.31-1.16,2.38-2.69c0.17-3.95,1.13-9.12-1.51-11.34c-2.71-2.28-6.99,0.91-10.27,2.68c-1.42,0.76-3.14,1.16-4.03,2.73
			c-2.36,1.13-4.38,1.19-5.82-1.5c-1.53-2.87-1.22-5.62,0.98-7.78c2.23-2.19,4.9-3.92,7.38-5.85c3.65-1.03,7.34-1.92,10.93-3.13
			c2.02-0.68,2.73-11.59,0.89-12.7c-0.63-0.38-1.71-0.48-2.4-0.22c-3.81,1.42-8.14,1.8-11,5.23c-2.44,1.13-5,2.43-6.94-0.63
			c-1.81-2.85-1.47-5.87,0.87-8.15c2.22-2.16,4.94-3.79,7.44-5.65c2.34-0.74,4.65-2.01,7.01-2.11c5.92-0.26,7.5-3.39,6.72-8.65
			c-0.17-1.13-0.14-2.32-0.03-3.46c0.33-3.24-1.36-3.79-4.18-3.73c-5.51,0.11-7.13,4.62-9.76,8.05c-6.2-1.9-12.5-1.59-18.77-0.67
			c-13.39,1.97-26.21,5.94-38.77,10.93c-4.6,1.83-6.06,4.48-6.03,9.31c0.24,30.12,0.18,60.24,0.23,90.35
			c0.02,14.31,0.22,28.62-0.01,42.93c-0.07,4.56,1.36,4.97,5.01,3.29c2.25-1.03,4.7-1.65,7.08-2.37
			c18.62-5.64,36.65-7.36,52.08,7.94c1.78,1.96,3.46,4.03,5.36,5.87c1.86,1.8,4.39,1.91,6.57,1.11c2.2-0.81,1.13-3.19,1.19-4.87
			c0.15-3.99,0.05-7.99,0.03-11.98c-0.01-1.7-0.12-3.99-2.36-3.51c-4.1,0.88-8.74,0.81-11.67,4.71c-2.64,2.38-5.46,1.9-7.43-0.48
			c-2.16-2.62-1.61-5.8,0.79-8.11c2.13-2.05,4.72-3.63,7.11-5.42c2.84,0.4,5.03-2.34,7.57-2.02c5.72,0.73,6.34-2.3,5.86-6.7
			c-0.16-1.48-0.1-3-0.04-4.49c0.1-2.55-1.37-3.41-3.48-2.76c-4.05,1.25-8.41,1.93-11.45,5.37c-2.55,0.48-5.67,1.53-6.81-1.63
			c-1.06-2.94-0.54-6.18,2.41-8.37c1.97-1.46,3.88-3,5.81-4.5c3.81-0.98,7.62-2,11.45-2.92c1.31-0.32,2.17-0.98,2.04-2.34
			c-0.37-3.71,1.88-8.7-0.96-10.78c-2.49-1.82-6.84,0.9-10.1,2.46c-1.45,0.69-2.99,1.44-3.89,2.94c-2.38,1.04-4.91,1.82-6.66-0.76
			c-1.88-2.76-1.36-5.66,0.69-8.24c2.08-2.63,5.01-4.23,7.66-6.16c13.32-1.83,14.12-2.65,13.39-13.71c-0.01-0.17-0.01-0.33,0-0.5
			c0.18-2.85-1.49-3.47-3.8-2.95c-4.22,0.96-8.32,2.24-11.26,5.74c-2.18,1.16-4.41,1.71-6.24-0.46c-1.86-2.21-1.93-4.72-0.74-7.35
			C189.6,152.23,193.28,150.94,196.44,148.98z M221.45,243.19c2-0.1,2.98,0.15,3.6-0.22c13.62-8.06,27.88-7.02,42.32-3.01
			c4.15,1.15,8.19,2.73,12.32,3.97c1.1,0.33,2.57,1.3,2.54-1.5c-0.19-19.14-0.18-38.29-0.18-57.43
			c-0.01-26.81-0.03-53.61,0.14-80.42c0.02-3.35-1.01-5.01-4.05-6.29c-7.37-3.1-14.79-6.02-22.53-8
			c-9.66-2.48-19.34-5.07-29.47-4.42c-1.37,0.09-3.83-0.35-3.73,1.45c0.27,5.05-2.36,10.5,2.34,15.07c2.56,2.49,2.47,5.58-0.44,8.26
			c-2.92,2.68-3.18,13.06-0.38,15.88c3.21,3.23,3,6.43,0.2,9.67c-3.02,3.5-2.93,13.13,0.17,16.63c2.48,2.81,3.19,5.93,0.52,8.92
			c-3.58,4-4.07,14.04-0.41,17.97c2.14,2.3,3.02,5.66,1.12,7.15c-5.77,4.53-2.47,10.42-3.31,15.63c-0.25,1.53,0.59,2.74,2.02,3.69
			c3.42,2.26,2.24,5.27,0.52,7.76c-2.48,3.58-4.3,13.17-1.59,16.07C227.75,234.94,226.61,238.73,221.45,243.19z"/>
		<path fill="#122D29" d="M977.13,161.09c0,24.48,0,48.96,0,73.44c0,8.21-2.58,10.26-10.77,9.02c-15.58-2.35-30.99-6.17-46.99-4.63
			c-11.88,1.14-23.26,3.89-33.66,9.84c-5.73,3.28-10.65,3.28-16.64-0.22c-17.54-10.24-36.8-11.58-56.5-8.96
			c-9.05,1.2-18.04,2.91-27.08,4.26c-7.44,1.11-10.46-1.38-10.47-8.7c-0.04-49.96-0.05-99.92-0.03-149.88
			c0-5.89,2.53-8.56,8.47-8.65c21.02-0.34,42.05-0.74,63.07-0.75c10.43,0,20.42,2.73,29.93,7.01c1.56,0.7,2.76,1.56,4.57,0.53
			c11.68-6.65,24.5-7.96,37.59-7.79c15.98,0.22,31.96,0.61,47.94,0.9c8.5,0.15,10.63,2.34,10.61,10.64
			c-0.05,24.65-0.02,49.29-0.02,73.94C977.14,161.09,977.14,161.09,977.13,161.09z M919.72,163.47
			c-10.13-0.01-20.26,0.17-30.38-0.12c-4.05-0.12-4.95,1.25-4.9,5.08c0.22,16.6,0.14,33.21,0.16,49.82c0.01,5.71,0,11.41,0,17.62
			c6.52-4.57,13.53-5.96,20.32-7.94c5.41-0.6,10.81-1.51,16.24-1.75c12.5-0.55,24.87,0.84,37.11,3.37c6.16,1.27,6.43,1.03,6.43-5.35
			c0.01-27.29,0.01-54.58,0.02-81.87c0-16.47,0.03-32.95,0.01-49.42c0-2.24,0.55-4.62-3.3-4.59c-13.81,0.12-27.61-0.05-41.42-0.11
			c-10.9-0.36-21.56,0.7-31.71,5.05c-2.51,1.07-3.79,2.5-3.76,5.57c0.15,16.46,0.09,32.92-0.03,49.37
			c-0.02,2.55,0.57,3.35,3.28,3.33c10.64-0.08,21.28,0.13,31.91,0.23C924.61,155.91,924.62,159,919.72,163.47z M797.11,229
			c3.61-0.47,7.23-0.9,10.83-1.43c13.56-1.98,27.07-2.19,40.67,0.13c8.05,1.38,15.45,4.33,23.25,8.14c0-22.93-0.12-45.24,0.1-67.53
			c0.04-4.38-1.49-5.18-5.44-5.11c-10.15,0.18-20.31-0.15-30.46-0.16c-3.6,0-4.71-2.2-4.39-5.08c0.28-2.58-0.63-5.86,4.24-6.19
			c10.82-0.74,21.63-0.5,32.43-0.31c3.2,0.06,3.57-0.75,3.56-3.41c-0.06-16.82-0.05-33.63,0.05-50.45c0.02-2.98-1.17-4.62-3.95-5.48
			c-8.47-2.63-17.06-4.3-25.98-3.87c-16.33-0.86-32.64,0.61-48.95,0.37c-4.58-0.07-5.34,1.46-5.32,5.67
			c0.2,44.15,0.18,88.3,0.21,132.45c0,1.3,0,2.6,0,4.28C791.31,230.29,794.21,229.65,797.11,229z"/>
		<path fill="#122D29" d="M977.04,407.41c-0.71,28.27-11.53,51.86-33.03,70.34c-2.94,2.53-3.42,4.72-1.96,8.09
			c1.64,3.79,2.9,7.76,4.25,11.67c1.3,3.79-0.25,6.77-3.55,8.26c-3.33,1.5-6.68,0.65-8.62-2.81c-1.94-3.47-3.75-7.04-5.33-10.68
			c-1.2-2.76-2.48-3.12-5.29-1.85c-21.82,9.87-44.29,10.93-67.17,4.31c-4.46-1.29-8.78-3.08-13.08-4.84
			c-1.94-0.8-2.88-0.55-3.71,1.48c-1.51,3.69-3.25,7.28-5.03,10.85c-1.83,3.65-4.94,5.01-8.74,3.68c-4.04-1.41-5.01-4.81-3.84-8.54
			c1.49-4.75,3.32-9.4,5.27-13.98c0.97-2.28,0.44-3.4-1.44-4.94c-38.88-31.97-44.32-91.27-12.41-130.94
			c15.79-19.63,36.35-30.1,60.89-33.37c3.38-0.45,4.12-1.58,3.98-4.61c-0.14-2.97-0.01-6.01,0.44-8.95
			c0.47-3.08,2.75-4.58,5.77-4.31c2.77,0.25,5.14,1.37,5.58,4.66c0.56,4.21-1.9,9.84,1.22,12.32c2.9,2.3,8.33,1.2,12.53,2.12
			c39.42,8.56,61.75,34.06,71.12,72.21C976.47,394.03,977.21,400.68,977.04,407.41z M879.52,473.02c1-2.77-0.31-6.93,4.82-7.11
			c4.58-0.16,5.24,2.99,5.99,6.26c-0.09,3.48-0.12,6.97-0.3,10.45c-0.14,2.71,0.96,3.31,3.58,3.03c36.65-3.9,65.07-31.64,70.03-68.2
			c0.62-4.61-0.54-6.33-5.23-5.66c-2.45,0.35-4.97,0.16-7.46,0.22c-3.82-0.46-7.41-1.19-7.13-6.29c0.25-4.67,3.51-4.96,7.05-4.81
			c2.99,0.11,6,0.03,8.96,0.39c3.92,0.47,4.32-1.38,3.89-4.64c-4.35-32.69-29.41-64.66-67.49-69.76c-4.02-0.54-6.53-0.78-5.67,4.42
			c0.2,1.23,0.02,3.3-0.74,3.77c-3.35,2.09-1.51,4.48-0.83,6.86c0,15.32,0.04,30.64-0.04,45.97c-0.01,2.3,0.85,3.57,2.73,4.79
			c6.1,3.97,8.19,9.86,7.17,16.86c-0.91,6.25-4.96,10.87-10.65,12c-7.96,1.58-12.1,6.89-16.39,12.62c-0.99,1.32-2.06,2.71-3.39,3.64
			c-3.09,2.14-6.18,2.06-9-0.7c-2.65-2.6-1.78-5.07,0.27-7.47c2.37-2.79,4.55-5.78,7.22-8.25c2.46-2.28,2.92-4.04,1.32-7.23
			c-3.91-7.83-1.92-15.67,5.03-20.67c2.07-1.49,2.68-2.97,2.66-5.33c-0.11-13.66-0.09-27.32-0.1-40.98c0-1.84,0.07-3.68-1.06-5.29
			c0.47-2.9,0.68-5.51,4.04-7.32c2.52-1.36,0.65-4.87,0.39-7.37c-0.17-1.62-1.8-0.92-2.88-0.79c-36.78,4.52-64.38,31.3-70.12,68.03
			c-1.05,6.7-1.05,6.73,5.87,6.72c2.65,0,5.3-0.2,7.96-0.32c2.85-0.15,5.16,0.69,6.26,3.56c0.67,1.75,0.74,3.46-0.52,5.08
			c-1.47,1.9-3.87,1.55-5.71,2.51c-1.49-0.1-2.98-0.27-4.47-0.28c-10.88-0.09-10.88-0.08-8.69,10.51
			c6.71,32.4,29.83,55.78,61.39,62.07C880.39,486.7,880.39,486.7,879.52,473.02z M887.2,406.88c-0.16-3.17-1.95-4.6-4.49-4.56
			c-2.51,0.04-3.87,1.94-3.7,4.36c0.16,2.19,1,4.28,3.84,4.2C885.62,410.81,887,409.26,887.2,406.88z"/>
		<path fill="#122D29" d="M898.26,664.59c-2.07,7.58-5.29,13.99-11.67,18.33c-1.96,1.33-0.33,2.18,0.68,2.97
			c2.66,2.1,4.6,4.82,6.39,7.62c5.68,8.9,3.85,19.92-4.3,26.38c-8.39,6.65-19.99,5.98-27.15-1.57c-7.25-7.64-7.54-19.13-0.61-27.17
			c1.92-2.23,4.06-4.29,6.24-6.58c-0.62-0.51-1.32-0.95-1.84-1.53c-3.23-3.6-6.11-6.09-10.01-0.3c-2.18,3.24-5.85,3.23-8.49-0.02
			c-2.72-3.35-0.37-5.84,2.1-8.01c0.99-0.87,2.16-1.6,3.35-2.15c2.75-1.26,3.99-2.93,4.23-6.31c0.4-5.72,3.91-10.14,8.35-13.68
			c2.2-1.75,2.86-2.67,0-5.03c-11.18-9.25-11.23-20.17-0.65-30.16c0.95-0.9,1.92-1.78,3.06-2.83c-1.15-0.9-2.18-1.68-3.18-2.5
			c-10.43-8.55-10.89-21.76-0.66-30.57c3.26-2.8,3.17-3.64-0.27-6.23c-8.84-6.64-9.8-19.38-2.68-27.97
			c7.33-8.83,19.64-9.91,28.38-2.49c8.51,7.23,9.35,19.5,1.89,28.01c-1.72,1.96-4.64,3.65-4.97,5.78c-0.22,1.43,3.24,3.34,4.89,5.17
			c7.58,8.45,7.11,19.34-1.14,27.14c-1.2,1.13-2.5,2.17-4.02,3.47c3.94,3.43,7.36,7.14,10.46,11.64
			c14.92-16.16,35.14-22.36,54.64-29.84c3.54-1.36,7.37-1.87,11.29-1.35c11.83,1.55,17.48,13.61,10.87,23.49
			c-0.95,1.42-2.15,2.24-0.64,4.2c10.13,13.11-0.38,24.92-11.79,27.18c-7.78,1.54-15.97-1.79-19.94-8.22
			c-1.45-2.34-2.94-4.82,0.26-6.89c2.92-1.88,6-3.14,8.94,0.09c1.45,1.59,2.63,3.47,4.88,4.12c3.77,1.08,8.43-1.05,9.58-4.39
			c1.28-3.7-0.7-8.19-5.13-8.74c-5.13-0.64-4.48-3.78-4.76-7.01c-0.15-1.76,0.51-2.36,2.23-2.22c0.8,0.06,1.69-0.13,2.44-0.44
			c2.97-1.23,5.54-3.05,4.42-6.69c-1.05-3.41-4.02-3.78-6.97-2.77c-5.03,1.71-9.96,3.71-14.94,5.56c-11.54,4.3-22.88,8.93-32.49,17
			c-2.68,2.25-3.25,3.24-0.16,5.79c3.6,2.97,5.88,3.05,9.5-0.13c4.32-3.81,9.36-6.87,14.7-9.28c2.5-1.13,4.44-0.83,6.13,1.4
			c1.83,2.41,0.9,4.4-0.87,6.2c-4.01,4.09-9.34,6.32-13.89,9.68c-2.72,2.01-3.22,3.1-0.26,5.29c4.93,3.66,9.79,7.47,14.32,11.6
			c2.46,2.24,3.92,2.41,6.49,0.15c4.75-4.18,10.54-5.57,16.76-4.12c12.5,2.92,17.47,15.08,10.52,25.85
			c-1.12,1.74-1.64,2.61-0.03,4.52c5.67,6.72,6.27,13.74,2.27,20.72c-3.68,6.42-11.84,10.22-19.62,9.15
			c-7.57-1.04-14.63-6.91-16.07-14.43c-0.68-3.57-2.28-5.01-5.27-6.63c-11.05-5.97-21-13.42-28.91-23.36
			C903.28,669.09,901.38,666.55,898.26,664.59z M944.29,685.26c-4.06-2.99-2.96-8.42-6.07-11.26c-7.85-7.13-16.11-13.81-24.27-20.6
			c-2.57-2.14-3.79,0.65-5.36,1.81c-1.77,1.31-0.72,2.41,0.35,3.64c8.36,9.55,17.69,17.97,28.57,24.57
			C939.33,684.53,941.06,686.49,944.29,685.26z M884.98,704.33c0.31-4.59-4.13-10.23-8.18-10.37c-3.71-0.13-8.55,5.04-8.77,9.4
			c-0.22,4.22,4.02,9.08,8.06,9.25C880.59,712.8,884.67,709.01,884.98,704.33z M885.14,597.15c0.1-4.3-4.9-10.31-8.58-10.32
			c-3.42,0-8.26,5.43-8.32,9.35c-0.07,4.25,5.07,10.02,8.9,10C880.36,606.15,885.05,600.86,885.14,597.15z M868.16,560.32
			c-0.11,4.19,4.71,9.53,8.55,9.47c3.68-0.06,8.31-5.21,8.3-9.24c-0.01-4.41-3.71-8.28-8.09-8.44
			C872.29,551.93,868.29,555.68,868.16,560.32z M877.42,641.04c3.87-0.06,8.52-4.67,8.45-8.35c-0.08-4.06-5.59-9.81-9.29-9.68
			c-3.34,0.11-7.9,5.47-7.78,9.15C868.93,636.18,873.71,641.11,877.42,641.04z M884.84,667.29c0.24-2.97-4.45-8.99-7.22-9.26
			c-2.33-0.23-8.15,5.84-8.54,8.92c-0.37,2.91,4.68,8.82,7.59,8.87C879.41,675.86,884.58,670.47,884.84,667.29z M958.05,704.35
			c3.92,0.02,7.64-3.38,7.65-6.99c0.01-3.39-3.96-6.99-7.76-7.05c-3.71-0.06-7.7,3.61-7.7,7.08
			C950.24,700.79,954.21,704.33,958.05,704.35z M957.3,666.09c-3.5,0.09-6.59,3.35-6.53,6.87c0.06,3.23,3.75,6.74,6.92,6.59
			c3.33-0.15,6.53-3.6,6.52-7.02C964.19,669.2,960.76,666,957.3,666.09z M902.49,644.64c-3.99-5.02-3.94-4.97-8.07-0.84
			c-2.33,2.32-4.85,4.44-7.47,6.82c1.65,1.28,2.45,4.37,5.47,1.97C895.77,649.94,899.13,647.29,902.49,644.64z"/>
		<path fill="#122D29" d="M867.65,947.94c-25.33,0-50.65,0.02-75.98-0.01c-20.89-0.02-32.71-11.95-32.71-32.96
			c0-26.16,0.33-52.32-0.1-78.48c-0.32-19.91,13.84-37.15,35.82-35.72c4.48,0.29,9-0.05,13.49,0.14c2.95,0.12,4.13-0.77,4.06-3.93
			c-0.11-5.15-0.04-10.34,0.5-15.45c0.86-8.12,6.99-13.57,15.17-13.6c28.49-0.1,56.98-0.13,85.47-0.08
			c9.35,0.01,16.14,6.82,16.56,16.37c0.15,3.49,0.45,7.06-0.05,10.48c-0.78,5.4,1.56,6.47,6.36,6.14c4.8-0.33,9.74-0.43,14.46,0.33
			c13.28,2.15,23.27,12.67,25.28,26.14c0.54,3.61,0.87,7.29,0.88,10.94c0.08,25.83,0,51.65,0.07,77.48
			c0.05,17.57-12.66,32.65-32.31,32.26c-25.65-0.5-51.32-0.12-76.97-0.12C867.65,947.89,867.65,947.91,867.65,947.94z M790.4,934.74
			c1.49,0.09,2.98,0.26,4.47,0.26c49.43,0,98.87-0.2,148.3,0.1c13.35,0.08,20.95-7.2,20.81-20.58c-0.28-26.79-0.08-53.59-0.12-80.39
			c0-1.81-0.17-3.67-0.62-5.41c-3.14-12.09-9.96-16.35-24.93-15.72c-6.16-0.01-12.32-0.04-18.47-0.03
			c-41.94,0.01-83.89-0.04-125.83,0.09c-14.12,0.04-22.02,7.96-22.09,22c-0.13,27.3-0.15,54.59,0,81.89
			C771.97,928.8,778.49,934.83,790.4,934.74z M870.84,800.54c0,0.03,0,0.06,0,0.1c11.31,0,22.62,0,33.93,0
			c12.41,0,12.41,0,12.04-12.59c-0.15-5.25-2.34-7.85-7.5-7.86c-25.78-0.05-51.56,0.07-77.34,0.11c-4.41,0.01-6.89,1.72-6.6,6.54
			c0.18,2.98,0.21,6.01-0.09,8.97c-0.37,3.67,0.79,4.89,4.64,4.83C843.56,800.4,857.2,800.54,870.84,800.54z"/>
		<path fill="#122D29" d="M539.5,947.66c-19.32,0.01-38.65,0.11-57.97-0.03c-13.97-0.1-23.08-9.61-21.7-22.21
			c0.43-3.94,2.52-7.2,4.28-10.53c14.22-26.87,28.64-53.63,42.77-80.54c2.79-5.32,1.43-11.37,1.3-17.13
			c-0.04-1.63-1.67-1.18-2.72-1.47c-8.43-2.31-13.48-10.26-12.51-19.6c0.88-8.46,7.2-15.01,15.81-15.13
			c20.82-0.3,41.64-0.3,62.46-0.09c7.5,0.08,13.76,6.98,14.74,15.14c1.01,8.37-3.8,16.7-11.4,18.82c-3.45,0.96-4.09,2.53-4.62,5.98
			c-1.92,12.38,5.88,21.08,10.82,30.8c11.05,21.75,22.52,43.29,33.69,64.99c2.51,4.88,4.78,9.92,3.15,15.75
			c-2.76,9.9-8.93,14.83-19.63,14.99c-14.49,0.21-28.98,0.19-43.47,0.26C549.49,947.68,544.5,947.66,539.5,947.66z M571.55,862.96
			c-0.87-3.18-2.18-6.12-4.57-8.47c0.05-3.34-2.48-2.44-4.26-2.46c-12.87-0.13-25.73-0.18-38.6-0.26
			c2.37-9.97,4.6-11.82,14.29-11.85c6.91-0.02,13.81,0,21.13,0c-3.25-6.41-2.37-12.69-2.16-18.74c0.16-4.64-1.41-5.46-5.58-5.29
			c-8.48,0.34-17,0.37-25.48,0.04c-4.13-0.16-4.97,1.34-4.86,5.09c0.14,4.78,1.65,10.07-0.81,14.3
			c-8.94,15.39-16.84,31.32-25.29,46.96c-7.35,13.6-14.54,27.29-21.55,41.07c-3.09,6.07-0.01,10.94,6.74,11.35
			c1.16,0.07,2.33,0.05,3.5,0.07c33.31,0.01,66.61,0.01,99.92,0.02c4.66,0,9.34,0.19,13.99-0.06c4.79-0.26,8.32-4.55,6.5-8.39
			c-3.6-7.6-6.96-15.36-11.69-22.39c-1.27-2.37-2.54-4.74-3.81-7.12c-1.8-4.61-3.48-9.28-6.86-13.05c-1.13-2.55-2.26-5.1-3.4-7.65
			C576.96,871.39,574.68,866.94,571.55,862.96z M539.5,793.1c0,0.04,0,0.07,0,0.11c-9.32,0-18.64-0.01-27.97,0.01
			c-3.34,0.01-6.13,1-6.08,4.95c0.05,3.89,2.6,5.48,6.21,5.7c0.33,0.02,0.67,0.01,1,0.01c17.81,0.03,35.63,0.01,53.44,0.12
			c3.99,0.02,6.78-1.63,6.78-5.57c-0.01-4.05-3.05-5.4-6.91-5.35C557.15,793.17,548.33,793.1,539.5,793.1z"/>
		<path fill="#122D29" d="M210.41,344.41c6.91-3.74,14.06-6.46,21.81-6.38c25.82,0.24,42.92,13.83,53.95,36.11
			c8.62,17.4,9.37,35.77,5.91,54.58c-4.66,25.33-15.03,47.52-35.82,63.63c-12.89,9.98-27.19,13.66-42.98,6.99
			c-5.12-2.16-10.3-2.47-15.44-0.07c-14.56,6.8-27.82,3.38-40.47-5.03c-15.83-10.53-26.1-25.43-32.97-42.78
			c-8.81-22.23-11.91-45.09-4.2-68.22c7.79-23.36,23.21-39.27,47.94-44.64c8.48-1.84,16.93-0.56,24.96,2.62
			c2.81,1.11,3.95,1.42,4.21-2.32c0.63-8.94,3.2-17.31,9.01-24.41c0.95-1.15,1.85-2.37,2.95-3.37c3.27-2.97,7.03-3.06,9.76-0.37
			c3.25,3.21,2.39,6.36-0.47,9.1c-6.52,6.22-8.32,14.14-8.62,22.66C209.9,342.97,210.14,343.42,210.41,344.41z M241.39,351.94
			c-6.99-3-14.06-1.57-20.31,1.31c-11.44,5.28-22.2,5.21-33.43-0.35c-4.9-2.42-10.48-3.05-16.07-2.19
			c-18.66,2.89-35.55,18.9-40.28,39.04c-7.17,30.5,1.03,57.51,19.97,81.61c3.35,4.26,7.13,8.76,12.78,10.6
			c7.81,8.25,17.05,10.4,27.43,5.8c9.08-4.02,17.89-3.94,26.99-0.15c5.57,2.32,11.23,3.3,17.43,1.17
			c10.35-3.56,18.23-10.24,24.81-18.52c16.08-20.24,22.24-43.68,20.18-69.12c-1.29-15.94-7.73-29.9-20.56-40.12
			C254.77,356.62,249.16,351.91,241.39,351.94z"/>
		<path fill="#122D29" d="M393.97,153.59c0-13.98-1.47-28.17,0.45-41.88c1.61-11.51,1.26-24.6,12.33-33.18
			c8.57-6.65,17.65-8.42,27.48-4c9.58,4.31,13.88,12.42,15.85,22.58c6.26,32.37,1.41,65.03,3.1,97.5
			c0.31,5.88-2.66,10.54-4.99,15.42c-5.14,10.78-10.54,21.43-15.88,32.11c-0.89,1.78-1.94,3.5-3.1,5.11
			c-3.68,5.1-8.98,5.19-11.99-0.3c-8.3-15.14-16.13-30.54-22.83-46.48c-0.61-1.46-0.54-3.27-0.54-4.92
			c-0.04-13.98-0.02-27.96-0.02-41.94C393.86,153.59,393.92,153.59,393.97,153.59z M414.93,189.92c7.14,0.07,14.29,0.12,21.43,0.23
			c2.24,0.04,3.8-0.23,3.79-3.14c-0.05-22.6-0.01-45.2,0.05-67.8c0.01-2.29-0.83-3.31-3.2-3.27c-7.3,0.12-14.6,0.12-21.91,0.17
			c-8.82-0.88-8.81-0.88-8.82,8.08c-0.02,19.29-0.04,38.59-0.05,57.88C406.21,190.45,406.21,190.45,414.93,189.92z M408.14,201.8
			c5.26,10.93,10.29,21.38,15.53,32.27c4.84-10.9,9.45-21.29,14.2-31.98C427.97,201.53,418.3,201.4,408.14,201.8z M426.21,103.62
			c0-0.01,0-0.02,0-0.03c2.99,0,6-0.14,8.98,0.04c2.25,0.14,2.82-0.74,2.83-2.86c0.04-8.99-7.03-16.55-15.42-16.31
			c-7.8,0.22-14.53,8.61-13.89,17.17c0.15,1.94,0.66,2.26,2.74,2.1C416.34,103.37,421.29,103.62,426.21,103.62z"/>
		<path fill="#122D29" d="M622.21,161.38c0-11.46,0.02-21.11-0.01-30.77c-0.02-5.37,1.51-9.93,6.77-12.24
			c2.31-1.01,2.02-2.74,1.99-4.53c-0.08-5.49-0.3-10.99,1.88-16.21c4.58-10.95,14.68-16.68,25.96-14.73
			c10.85,1.88,18.39,11.02,18.95,23.02c0.08,1.66,0.17,3.35-0.02,4.99c-0.4,3.48,0.14,6.17,3.57,8.23c3.31,1.99,4.71,5.6,4.66,9.45
			c-0.34,27.59,1.97,55.31-3.94,82.62c-1.54,7.13-2.61,14.37-4.93,21.33c-3.36,10.1-10.27,16.37-20.84,17.5
			c-10.65,1.13-18.17-4.36-22.95-13.52c-5.23-10.03-6.26-21.27-8.37-32.16C622.08,189.56,622.48,174.55,622.21,161.38z
			 M649.42,117.08c2.15,0.06,4.29,0.18,6.44,0.19c10.44,0.02,11.46-1.2,9.77-11.67c-1.11-6.88-5.89-11.17-11.67-10.46
			c-1.98-0.01-3.6,0.4-5.32,1.82c-5.3,4.38-5.56,10.23-5.49,16.28C643.22,118.5,644,118.96,649.42,117.08z M641.97,223.93
			c0.38,6.65,3.82,11.13,9.94,13.43c4.71,1.76,10.94-2.09,12.67-7.56c1.48-4.68-0.72-7.86-6.38-9.83c-3.74-1.3-7.55-0.36-11.29-0.91
			c-1.83-8.93-0.4-10.72,8.57-10.94c4.84-0.12,8.96,1.99,13.31,4.36c0.46-2.06,0.87-3.83,1.24-5.61
			c5.06-24.68,3.06-49.71,3.69-74.61c0.07-2.94-1.41-3.13-3.68-3.12c-10.48,0.04-20.96,0.08-31.44-0.11
			c-3.33-0.06-4.09,1.01-4.02,4.3c0.28,13.47,0.26,26.94,0.26,40.42C634.83,190.82,638.32,207.39,641.97,223.93z"/>
		<path fill="#122D29" d="M538.5,133.55c9.99,0,18.98,0.1,27.98-0.05c3.51-0.06,5.58,0.92,6.25,4.7
			c3.99,22.6,10.73,44.56,15.91,66.88c2.88,12.4-1.75,22.58-13.6,26.87c-23.45,8.49-47.27,9.09-70.73,0.01
			c-13.25-5.12-17.48-13.52-14.28-27.25c4.07-17.46,8.77-34.78,13.08-52.18c1.16-4.67,2.09-9.41,2.79-14.17
			c0.47-3.2,1.77-4.56,5.13-4.67C520.51,133.39,530,133.22,538.5,133.55z M574.51,202.32c-2.96-12.39-5.83-24.81-8.93-37.17
			c-0.7-2.79-0.33-6.01-2.77-8.24c0.29-3.07-1.12-5.83-1.57-8.75c-0.37-2.43-1.53-2.87-3.67-2.85c-12.14,0.09-24.29,0.1-36.44,0.1
			c-2.54,0-4.01,0.53-4.71,3.62c-2.89,12.79-6.2,25.48-9.4,38.2c-2.04,8.11-4.13,16.21-6.22,24.41c25.57-7.98,50.59-7.36,76.31-0.92
			C576.14,207.58,575.33,204.95,574.51,202.32z M568.58,221.35c-19.77-3.8-38.13-4.74-56.48,0.12
			C530.44,227.04,548.81,227.59,568.58,221.35z"/>
		<path fill="#122D29" d="M438.23,853.03c-0.2,3.05-1.97,5.11-5.01,4.88c-3.63-0.28-4.68,1.35-5.73,4.43
			c-2.45,7.19-7.47,12.09-14.91,14.12c-2.17,0.59-3.47,1.24-3.4,3.88c0.09,3.14-1.49,5.73-4.84,5.86c-3.78,0.14-5.04-2.72-5.16-6.01
			c-0.08-2.1-0.64-3.02-2.98-3.54c-8.59-1.91-13.81-7.67-16.1-15.94c-0.65-2.36-1.56-2.88-3.69-2.75c-3.35,0.21-6.12-0.95-6.43-4.64
			c-0.31-3.74,2.31-5.18,5.62-5.66c2.6-0.38,3.96-1.43,4.78-4.43c2.09-7.69,7.29-12.99,15.07-15.15c2.47-0.69,3.55-1.38,3.72-4.11
			c0.19-3.01,1.22-6.14,5.21-6.02c4.02,0.12,5.42,3.07,5.48,6.44c0.04,2.18,0.89,2.91,2.69,3.35c8.45,2.04,13.11,7.95,15.79,15.74
			c0.73,2.14,1.23,3.58,4.12,3.72C435.55,847.34,438.09,849.2,438.23,853.03z M404.4,866.81c8.28-0.09,14.74-6.8,14.58-15.15
			c-0.14-7.34-7.28-14.53-14.46-14.58c-7.71-0.05-15.4,7.78-15.21,15.49C389.51,860.38,396.42,866.9,404.4,866.81z"/>
		<path fill="#122D29" d="M539.5,115.14c-8.99,0-17.99-0.04-26.98,0.02c-3.35,0.02-6.71-0.27-7.58-4.06
			c-0.82-3.56,0.39-6.69,4.48-7.63c2.34-0.54,1.42-2.3,1.5-3.6c0.81-13.57,10.67-24.57,24.02-26.75
			c13.22-2.15,25.81,4.99,30.88,17.55c0.43,1.08,0.95,2.19,1.05,3.32c0.41,4.46-0.74,9.32,5.46,11.37c2.13,0.7,2.12,3.87,1.06,6.26
			c-1.05,2.37-2.71,3.56-5.41,3.53c-9.49-0.08-18.99-0.03-28.48-0.03C539.5,115.12,539.5,115.13,539.5,115.14z M531.78,88.12
			c-5.11,0.89-6.57,5.07-7.88,9.14c-1.83,5.73-1.35,6.18,4.69,5.5c8.11,0.11,16.22,0.25,24.33,0.31c1.19,0.01,2.78,0.38,2.61-1.88
			c-0.49-6.47-3.55-11.35-9.2-14.38C541.32,84.13,536.28,83.74,531.78,88.12z"/>
		<path fill="#122D29" d="M660.17,871.11c-0.26-3.18,1.87-9.06-0.95-11.67c-2.35-2.19-8.16-0.68-12.44-0.75
			c-3.33-0.05-6.67,0.12-9.99-0.06c-3.34-0.19-5.84-1.75-5.87-5.46c-0.03-3.84,2.37-5.87,5.97-6c6.49-0.22,13-0.23,19.49-0.04
			c3.09,0.09,3.96-1,3.87-3.97c-0.19-6.33,0.04-12.66-0.09-18.99c-0.08-4.09,1.36-7.05,5.67-7.23c4.45-0.19,5.96,2.78,5.93,6.87
			c-0.04,6.33,0.17,12.66-0.04,18.98c-0.11,3.13,0.67,4.48,4.05,4.33c5.82-0.26,11.66-0.14,17.49-0.19c3.98-0.03,7.5,0.73,7.92,5.57
			c0.34,3.92-2.56,6.16-7.81,6.2c-5.83,0.04-11.66,0.04-17.49-0.06c-3.07-0.05-4.4,0.91-4.24,4.33c0.3,6.31,0.07,12.65,0.06,18.98
			c-0.01,4.03-1.14,7.84-5.74,7.77c-4.45-0.07-5.83-3.73-5.8-7.84C660.19,878.71,660.17,875.55,660.17,871.11z"/>
		<path fill="#122D29" d="M800.98,653.94c4.24,0.16,9.87,2.71,14.1,7.85c2.18,2.65,3.78,5.74,0.51,8.82c-2.54,2.39-7,1.95-9.7-0.82
			c-4.49-4.62-9.58-5.41-14.23-2.21c-5.17,3.55-7.22,11.47-4.52,17.45c2.33,5.16,8.46,8.2,13.64,6.72c2.01-0.57,3.33-2.1,4.71-3.56
			c3.1-3.28,7.13-3.68,10.07-0.81c3.48,3.39,1.12,6.52-1.1,9.15c-6.03,7.15-17.48,9.38-26.06,5.35
			c-10.22-4.8-16.04-15.46-14.27-26.09C776.37,662.43,785.99,653.82,800.98,653.94z"/>
		<path fill="#122D29" d="M780.92,616.34c-0.01-3.65-0.08-7.31,0.02-10.96c0.09-3.49,1.56-5.62,5.49-5.45
			c3.98,0.17,7.97-0.03,11.95,0.14c8.78,0.37,15.27,7.2,15.6,16.24c0.3,8.41-6.05,15.77-14.65,16.54c-4.45,0.4-8.96,0.18-13.44,0.29
			c-3.36,0.09-4.88-1.69-4.94-4.85C780.87,624.31,780.93,620.32,780.92,616.34z M791.55,617.05c0.32,1.74-1.41,5.54,3.89,5.09
			c3.71-0.32,7.19-0.45,7.34-5.32c0.13-4.2-2.1-5.64-7.35-5.98C790.78,610.53,791.33,613.36,791.55,617.05z"/>
		<path fill="#122D29" d="M538.98,118.51c9.32,0,18.64,0.17,27.95-0.08c4.14-0.11,6.64,1.46,6.65,5.46
			c0.01,3.85-1.78,6.41-6.44,6.36c-18.47-0.17-36.94-0.11-55.42-0.11c-4.17,0-6.71-1.72-6.75-6.12c-0.04-4.4,2.6-5.52,6.54-5.46
			c9.15,0.14,18.31,0.04,27.46,0.04C538.98,118.58,538.98,118.54,538.98,118.51z"/>
		<path fill="#122D29" d="M942.71,567.04c-2.99,0-5.98,0.11-8.96-0.03c-3.25-0.15-5.47-2-5.46-5.24c0.01-3.18,2.09-5.31,5.37-5.42
			c5.97-0.19,11.95-0.23,17.92-0.04c3.45,0.11,5.61,2.26,5.55,5.76c-0.06,3.65-2.43,5.15-5.96,5.07c-2.82-0.06-5.64-0.01-8.46-0.01
			C942.71,567.1,942.71,567.07,942.71,567.04z"/>
		<path fill="#122D29" d="M857.3,649.89c-0.16,2.74-1.44,4.97-4.29,5.12c-2.86,0.15-5.23-1.39-5.31-4.64
			c-0.08-3.26,1.63-5.35,5.07-5.43C855.99,644.87,856.81,647.23,857.3,649.89z"/>
		<path fill="#FEFEFE" d="M462.8,424.62c11.68,12.53,25.23,21.4,40.18,28.2c22.56,10.26,45.83,14.89,70.4,8.43
			c7.94-2.09,9.66-5.8,6.43-13.24c-1.3-2.98-4.38-6.47-2.18-9.1c1.38-1.64,5.29,1.29,8.11,2.04c6.51,1.73,13.09,2.55,19.79,1.8
			c2.28-0.25,3.71,0.4,5.05,2.23c10.18,13.88,23.28,24.13,39.1,30.85c1.52,0.64,1.96,1.43,2.03,2.92
			c1.45,30.29-3.64,58.66-23.34,83.09c-15.08,18.69-35.24,28.63-57.95,33.78c-33.68,7.65-66.21,3.92-96.93-12.28
			c-18.74-9.88-32.04-25.15-41.62-43.83c-9.29-18.11-10.85-37.58-10.11-57.46c0.05-1.47,0.46-2.44,1.87-3.16
			c21.66-11.05,32.86-29.77,38.43-52.6C462.13,426,462.32,425.71,462.8,424.62z M539.17,558.26c0.07,0,1.6,0.07,3.05-0.24
			c6.76-1.44,13.31-3.41,17.29-9.71c2.18-3.46,2.26-7.1-1.1-9.88c-3.41-2.82-6.49-1.61-8.98,1.62c-3.69,4.78-8.7,5.67-14.29,4.97
			c-3.85-0.48-6.75-2.45-9.24-5.33c-2.18-2.51-4.92-3.46-8.02-1.66c-3.35,1.94-3.38,5.02-2.5,8.29c0.58,2.16,1.91,3.87,3.55,5.31
			C524.3,556.35,530.66,558.36,539.17,558.26z M602.08,507.05c-0.03-7.31-5.38-12.97-12.26-12.99c-7.41-0.01-13.15,5.89-13.02,13.38
			c0.12,6.94,5.52,12.43,12.26,12.46C596.25,519.95,602.11,514.16,602.08,507.05z M471.82,506.89c0.03,7.38,5.38,13.11,12.2,13.07
			c6.96-0.04,13.04-6.21,12.96-13.17c-0.07-7.03-5.76-12.75-12.7-12.76C477.34,494.02,471.79,499.75,471.82,506.89z M490.73,483.59
			c4.3,0.32,7.1-0.31,8.16-3.52c1.14-3.43-0.26-6.18-3.2-8.16c-1.53-1.03-3.13-1.9-5.06-1.89c-5,0.03-9.99-0.04-14.99,0.09
			c-2.17,0.05-4.32,0.64-6.16,1.84c-3.11,2.02-4.56,4.88-3.43,8.55c1.08,3.51,4.09,3.54,6.99,3.23
			C479.36,483.03,485.66,483.07,490.73,483.59z M591.46,470.07c-2.49,0-5-0.17-7.48,0.04c-3,0.26-5.9,0.97-8,3.49
			c-1.7,2.04-2.73,4.17-1.48,6.83c1.17,2.47,3.23,2.99,5.78,2.9c6.48-0.24,12.98-0.71,19.43,0.11c3.53,0.45,6.45,0,7.59-3.75
			c1.18-3.88-1.1-6.21-4.18-8.08C599.45,469.37,595.4,470.13,591.46,470.07z"/>
		<path fill="#53B833" d="M453.8,647.94c1.82,0.63,2.24,2.36,2.95,3.82c7.83,16.18,15.78,32.29,23.39,48.57
			c5.67,12.12,13.45,10.15,20.97,3.77c5.19-4.4,10.1-9.16,14.93-13.97c2.29-2.29,3.78-2.4,6.03,0.1c2.55,2.83,5.6,5.2,8.48,7.72
			c4.79,4.21,10.13,4.55,15.39,0.83c3.66-2.59,7.4-5.18,10.05-8.87c1.72-2.4,3.28-2.29,5.3-0.43c4.89,4.51,9.87,8.92,14.79,13.4
			c0.61,0.55,1,1.37,1.65,1.85c8.86,6.59,14.81,6.6,20.39-4.08c6.62-12.66,12.61-25.65,18.94-38.46c2.8-5.66,5.79-11.22,8.63-16.86
			c0.94-1.86,2.17-3.37,4.2-1.87c2.42,1.79,5.27,2.72,7.69,4.22c24.31,15.07,39.7,36.39,43.96,65.05c0.63,4.25,0.26,8.64,0.47,12.96
			c0.14,2.77-1.33,3.31-3.71,3.29c-9.33-0.07-18.66-0.1-27.98,0.05c-2.98,0.05-3.69-1.24-3.62-3.9c0.13-4.66,0.1-9.33,0-13.99
			c-0.11-5.02-2.49-7.16-7.49-7.21c-4.79-0.05-5.89,3.1-5.93,6.9c-0.05,3.82,0.39,7.64,0.45,11.46c0.11,6.69,0.06,6.7-6.43,6.7
			c-54.96,0-109.93-0.01-164.89-0.01c-3.5,0-7,0.03-10.49,0c-7.79-0.07-7.03,1.04-7.06-7.34c-0.01-3.5,0.03-7,0-10.49
			c-0.03-4.27-1.81-7.04-6.43-7.19c-4.16-0.13-6.29,2.16-6.42,7.03c-0.12,4.83-0.17,9.66-0.05,14.49c0.07,2.53-0.7,3.58-3.38,3.52
			c-7.99-0.18-15.98-0.15-23.97-0.21c0.19-28.3,10.8-51.89,32.15-70.5C441.81,653.92,446.94,649.44,453.8,647.94z"/>
		<path fill="#53B833" d="M717.51,348.67c-4.17,4.12-8.87,5.11-13.04,6.89c-11.93,5.09-24.05,9.71-36.05,14.64
			c-3.09,1.27-4.62,1.6-3.83-2.76c0.85-4.7-1.46-7.81-6-9.58c-16.42-6.4-32.79-12.94-49.17-19.45c-20.71-8.22-41.49-16.3-62.09-24.8
			c-6.27-2.58-11.84-2.7-18.16-0.12c-35.1,14.33-70.33,28.36-105.52,42.49c-0.62,0.25-1.22,0.54-1.86,0.72
			c-5.78,1.68-9.15,4.89-7.85,11.5c0.37,1.9,0.64,4.27-2.96,2.72c-15.28-6.57-30.64-12.95-45.94-19.47
			c-1.06-0.45-3.03-0.34-2.75-2.24c0.19-1.29,1.72-1.44,2.75-1.87c22.28-9.23,44.57-18.45,66.87-27.62
			c15.49-6.37,30.99-12.69,46.53-18.95c18.89-7.61,37.83-15.1,56.71-22.75c2.35-0.95,4.42-0.96,6.71-0.04
			c26.7,10.73,53.45,21.31,80.1,32.14c29.57,12.02,59.34,23.53,88.56,36.41C712.45,347.4,714.58,347.79,717.51,348.67z"/>
		<path fill="#53B833" d="M443,390.1c26.8,3.82,53.62,7.81,79.59,15.58c13.77,4.12,26.43,1.55,39.47-2.16
			c25.16-7.17,51.01-10.49,76.9-13.74c5.9-0.74,7.72,1.08,10.14,5.92c5.35,10.69,12.01,20.72,15.23,32.42
			c3.28,11.94,5.2,24.02,4.19,36.46c-0.29,3.57-1.22,4.79-5.21,3.16c-18.15-7.38-33.85-17.74-44.34-34.81
			c-2.48-4.04-5.78-5.05-10.59-4.35c-11.73,1.69-22.91,0.07-32.34-8.01c-2.45-2.1-5.22-2.38-7.87-0.85
			c-2.61,1.5-2.85,4.12-2.49,6.99c0.44,3.54,2.84,5.8,5.12,8.08c-1.41,1.67-3.1,1.01-4.43,1.59c-3.61,1.58-5.11,3.93-3.69,7.93
			c2,5.62,1.65,6.13-4.72,6.56c-14,0.94-27.42-1.77-40.53-6.58c-18.12-6.65-33.72-17.08-47.28-30.7c-2.1-2.11-4.17-4.24-6.76-5.87
			c-5.44-3.43-10.09-1.69-11.5,4.5c-2.51,11.01-4.43,22.25-10.6,32.02c-6.26,9.9-13.32,19-25.08,22.93
			c-0.16-1.81-0.42-3.62-0.45-5.43c-0.27-18.63,5.5-35.62,14.5-51.61C434.12,403.24,438.73,396.76,443,390.1z"/>
		<path fill="#53B833" d="M491.46,342.52c14.81-5.94,29.62-11.86,44.41-17.82c2.1-0.85,3.83-0.04,5.72,0.71
			c34.59,13.81,69.19,27.58,103.79,41.35c1.08,0.43,2.16,1.02,3.28,1.14c3.38,0.35,3.24,2.71,3.21,5.13
			c-0.05,3.01-2.29,2.8-4.25,2.94c-22.07,1.61-43.88,5.1-65.56,9.33c-13.2,2.57-26.2,6.15-39.28,9.33
			c-2.99,0.72-5.88,0.66-8.85-0.12c-27.64-7.29-55.54-13.29-83.96-16.64c-1.39-0.16-2.59-0.56-3.46-1.7
			c0.09-1.81,1.18-3.11,2.45-4.16c4.96-4.1,9.96-8.15,14.99-12.15c7.79-6.19,17-10.15,25.08-15.88c0,0-0.09,0.1-0.09,0.1
			C489.64,343.33,491.3,344.13,491.46,342.52z"/>
		<path fill="#FEFEFE" d="M571.58,665.41c-5.9-1.02-11.79-1.92-17.77-2.45c-1.95-0.17-3.74-2.52-5.53-3.96
			c-7.05-5.64-11.69-6.05-18.03,0.09c-7.05,6.84-16.03,3.99-24.01,5.97c-1.73,0.43-2.44-1.62-3.07-2.85
			c-5.48-10.63-10.81-21.35-16.3-31.98c-1.13-2.19-0.72-3.39,1.5-4.16c0.16-0.05,0.31-0.12,0.46-0.19
			c8.56-4.29,8.53-4.26,15.77,2.39c22.94,21.07,59.18,13.57,71.81-2.64c2.74-3.52,5.11-3.8,9-1.52c7.82,4.57,7.95,4.29,3.77,12.36
			c-4.36,8.41-8.61,16.87-12.98,25.27C575.24,663.6,574.45,665.88,571.58,665.41z"/>
		<path fill="#FEFEFE" d="M417.05,539.49c-21.8,0.46-37.23-20.61-29.76-39.87c3.04-7.84,8.87-12.6,16.9-14.92
			c3.27-0.94,4.3-0.3,4.19,3.3C407.84,505.57,409.99,522.73,417.05,539.49z"/>
		<path fill="#FEFEFE" d="M656.38,539.59c7.65-16.93,8.45-34.83,8.23-52.86c-0.03-2.69,0.1-3.67,3.41-2.89
			c14.89,3.52,23.06,19.93,17.44,35.63C681.18,531.44,669.78,539.44,656.38,539.59z"/>
		<path fill="#FEFEFE" d="M453.8,647.94c-6.86,1.51-11.99,5.98-17.02,10.37c-21.35,18.61-31.96,42.2-32.15,70.5
			c-9.82,0.2-8.49,1.16-8.05-7.94c1.45-29.43,14.28-52.92,38-70.34c4.26-3.13,9-5.77,13.85-7.88
			C453.48,640.44,452.37,645.75,453.8,647.94z"/>
		<path fill="#FEFEFE" d="M443,390.1c-4.28,6.66-8.89,13.14-12.76,20.03c-8.99,15.99-14.76,32.98-14.5,51.61
			c0.03,1.81,0.29,3.62,0.45,5.43c-2.51,2.07-5.68,2.39-8.81,3.9c-1.69-18.59,1.24-35.9,8.11-52.56c2.78-6.76,5.9-13.38,10.44-19.21
			c1.6-2.05,2.48-4.4,2.19-6.97c-0.47-4.24,1.62-4.71,5.05-3.95C436.42,389.09,439.73,389.54,443,390.1z"/>
		<path fill="#FEFEFE" d="M568.75,676.52c11.49,3.77,16.14-3,20.13-11.49c4.44-9.46,9.51-18.62,14.1-28.01
			c1.76-3.59,3.55-5.48,7.31-2.37c0.74,0.61,1.76,1.07,2.71,1.2c2.63,0.35,2.27,1.59,1.38,3.4c-8.77,17.86-17.5,35.74-26.22,53.63
			c-0.77,1.57-1.51,2.75-3.2,0.95C579.79,688.3,574.61,682.77,568.75,676.52z"/>
		<path fill="#FEFEFE" d="M510.41,678.18c-5.57,5.36-11.11,10.74-16.71,16.07c-1.66,1.58-2.27,0-2.84-1.17
			c-2.21-4.46-4.4-8.92-6.55-13.41c-6.3-13.16-12.49-26.38-18.93-39.48c-1.51-3.08-1.09-4.14,2.1-5.77
			c4.62-2.37,6.65-1.14,8.72,3.15c4.68,9.7,9.86,19.16,14.67,28.81C496.5,677.7,497.21,678.19,510.41,678.18z"/>
		<path fill="#FEFEFE" d="M569.85,609.41c-3.56,11.02-14.69,18.2-27.66,18.49c-16.62,0.37-29.48-6.41-33.88-18.3
			C528.8,613.77,549.06,613.71,569.85,609.41z"/>
		<path fill="#FEFEFE" d="M489.04,343.97c-8.08,5.74-17.29,9.7-25.08,15.88c-5.04,4-10.04,8.05-14.99,12.15
			c-1.27,1.05-2.36,2.35-2.45,4.16c-6,0.92-11.84-0.99-17.8-0.93c-1.73,0.02-1.79-1.18-1.72-2.37c0.12-2.04-0.35-4.02,2.54-5.16
			c11.56-4.57,22.88-9.73,34.47-14.2C472.33,350.3,480.36,346.27,489.04,343.97z"/>
		<path fill="#53B833" d="M718,522.19c0.09-6.41,5.38-11.34,12.06-11.23c6.36,0.1,11.02,5.2,10.76,11.76
			c-0.22,5.47-6.07,11.15-11.45,11.11C723.57,533.8,717.92,528.01,718,522.19z"/>
		<path fill="#53B833" d="M538.95,668.38c1.71,0.3,2.68,1.75,3.84,2.87c7.87,7.54,7.81,7.5-0.29,14.56
			c-2.79,2.43-4.78,2.41-7.57-0.28c-7.14-6.88-7.3-6.75-0.23-13.61C536,670.66,537.02,669.05,538.95,668.38z"/>
		<path fill="#FEFEFE" d="M491.46,342.52c-0.16,1.61-1.82,0.81-2.52,1.56C489.78,343.55,490.62,343.03,491.46,342.52z"/>
		<path fill="#FEFEFE" d="M151.82,918.83c-6.1,1.51-8.8-2-11.28-6.89c-11.24-22.13-8.29-49.24,7.39-65.08
			c2.83-2.86,5.95-5.31,9.73-6.83c2.97-1.19,5.86-2.25,5.68-6.47c-0.11-2.62,2.42-1.72,3.84-1.73c11.65-0.16,23.3-0.19,34.96-0.26
			c1.33-0.01,2.67,0.04,3.99-0.08c3.64-0.33,6.12-2.34,6.1-5.98c-0.03-3.82-2.42-6.11-6.42-6.1c-12.65,0.01-25.3,0.1-37.95,0.13
			c-1.94,0-4.45,1.31-4.64-2.49c-0.21-4.15,2.69-2.98,4.71-2.97c27.47,0.05,54.94,0.17,82.41,0.29c1.33,0.01,2.67,0.27,3.99,0.18
			c2.74-0.18,3.76,0.83,3.59,3.7c-0.25,4.31,0.29,8.68-0.11,12.97c-0.38,4.13,1.1,6.48,4.84,8.01c9.64,3.94,15.53,11.68,20.19,20.55
			c0.74,1.41,2.09,3.16,1.11,4.62c-1.2,1.81-3.86,2.1-5.48,1.33c-9.47-4.52-18.49-3.96-27.6,1.08c-2.19,1.21-4.89-0.44-7.13-1.52
			c-9.09-4.38-17.63-4.13-25.51,2.71c-3.4,2.95-7.09,3.24-11.12,1.31c-9.52-4.58-18.33-3.67-26.31,3.52
			c-4.1,3.69-8.39,3.24-12.83,0.55c-6.15-3.72-12.67-5.01-19.54-2.2c-5.57,2.28-8.16,9.67-5.7,15.19c1.16,2.6,2.07,1.22,3.16,0.1
			c2.42,2.03,0.34,4.33,0.16,6.37C145.24,902.16,148.3,910.53,151.82,918.83z"/>
		<path fill="#53B833" d="M151.82,918.83c-3.51-8.31-6.57-16.67-5.77-25.99c0.18-2.04,2.26-4.34-0.16-6.37
			c5.2-5.23,9.82-6.12,17.01-1.88c8.93,5.28,17.27,4.27,25.12-1.5c5.11-3.76,9.98-4.53,15.77-2.1c8.59,3.6,16.6,2.43,23.62-3.88
			c3.39-3.05,7.17-2.83,10.68-0.9c8.16,4.48,16.06,4.72,24.09-0.16c3.03-1.85,6.3-0.98,9.14,0.26c4.36,1.9,8.65,2.12,13.13,0.96
			c2.09-0.54,3.48-0.31,3.61,2.43c0.61,13.17-1.91,25.45-9.57,36.45c-1.36,1.95-2.82,2.95-5.3,2.95
			C232.72,918.96,192.27,918.9,151.82,918.83z"/>
		<path fill="#FEFEFE" d="M211.19,785.88c18.98,0,37.96,0,56.95,0c6.08,0,8.73,1.61,8.79,6.16c0.06,5.11-3.05,9.07-7.93,9.85
			c-1.63,0.26-3.32,0.26-4.98,0.26c-35.63-0.01-71.27-0.08-106.9,0.01c-4.88,0.01-9.03-0.62-11.51-5.44
			c-2.81-5.47,0.01-10.74,6.15-10.77c19.81-0.1,39.63-0.04,59.44-0.04C211.19,785.89,211.19,785.89,211.19,785.88z"/>
		<path fill="#FEFEFE" d="M210.64,934.86c-24.14,0-48.28,0-72.41,0c-1.33,0-2.67,0.01-3.99-0.09c-1-0.07-1.33-0.79-1.29-1.73
			c0.04-0.8,0.57-1.19,1.25-1.25c1.16-0.11,2.32-0.11,3.49-0.11c48.28-0.03,96.55-0.07,144.83,0c2.27,0,6.4-1.65,6.41,1.88
			c0.01,2.57-4.14,1.33-6.37,1.34c-23.97,0.12-47.94,0.07-71.91,0.07C210.64,934.94,210.64,934.9,210.64,934.86z"/>
		<path fill="#53B833" d="M177.3,671.02c0.49-0.45,0.94-0.96,1.48-1.34c1.83-1.31,4.5-1.98,4.09-5.03c-0.39-2.92-2.6-4.06-5.1-4.82
			c-0.18-2.65-0.5-5.29-0.51-7.94c-0.07-23.91-0.08-47.82-0.11-71.72c6.66,0.03,13.32,0.11,19.97,0.08c2.7-0.02,3.82,0.95,3.82,3.83
			c-0.08,34.47-0.07,68.95-0.01,103.42c0,2.59-0.86,3.52-3.48,3.43c-6.48-0.2-12.97-0.17-19.46-0.23
			C177.76,684.13,177.53,677.57,177.3,671.02z"/>
		<path fill="#53B833" d="M229.86,580.41c5.31-0.1,10.62-0.24,15.93-0.28c3.03-0.03,4.37,1.4,4.36,4.62
			c-0.07,34.08-0.07,68.16,0.01,102.24c0.01,3.03-0.99,4.13-4.03,4c-5.47-0.24-10.95-0.2-16.43-0.27
			c0.02-12.15,0.03-24.3,0.05-36.44C229.78,629.65,229.82,605.03,229.86,580.41z"/>
		<path fill="#FEFEFE" d="M229.86,580.41c-0.04,24.62-0.08,49.24-0.11,73.86c-0.02,12.15-0.03,24.3-0.05,36.45
			c-4.33,0.02-8.65,0.01-12.98,0.09c-2.13,0.04-3.89,0.15-3.76-2.97c0.11-2.58,0.15-4.4,3.51-4.56c1.94-0.09,4.95,1.63,5.73-1.97
			c0.83-3.82-0.26-6.07-4.73-5.52c-2.65,0.33-4.87,0.25-4.61-3.7c0.22-3.31,2.11-3.34,4.34-3.11c3.51,0.35,5.52-0.37,5.41-4.63
			c-0.11-4.24-2.92-3.16-5.19-3.32c-2.19-0.15-4.53,0.74-4.6-3.21c-0.06-3.91,1.9-4.27,4.82-4.39c1.93-0.08,4.25,0.79,4.68-2.76
			c0.52-4.23-1.23-5.39-4.92-4.96c-3.31,0.38-4.59-0.68-4.59-4.33c0-4.09,2.44-3.55,4.87-3.53c2.37,0.02,4.39,0.33,4.7-3.3
			c0.35-4.09-1.32-5.01-4.78-4.61c-3.18,0.37-4.85-0.44-4.74-4.24c0.09-3.33,2.02-3.22,4.18-3.41c2.64-0.23,5.58,0.55,5.36-4.13
			c-0.22-4.62-3.29-4.07-5.86-3.92c-4.14,0.25-3.85-2.31-3.36-4.77c0.57-2.86,3.25-1.44,4.96-1.83c2.04-0.47,4.14,0.07,4.23-3.36
			c0.11-3.98-0.82-5.86-5.15-5.14c-1.52,0.25-3.82,1.37-4.14-1.8c-0.33-3.35,2.26-2.45,3.98-2.93c1.74-0.48,4.1,0.95,5.14-1.78
			c1.43-3.75,0.04-5.83-4.5-5.59c-3.87,0.21-5.1-1.04-4.43-4.81c0.31-1.74,1.11-2.23,2.63-2.19
			C220.57,580.19,225.23,579.6,229.86,580.41z"/>
		<path fill="#FEFEFE" d="M177.16,580.16c0.03,23.91,0.04,47.82,0.11,71.72c0.01,2.65,0.33,5.29,0.51,7.94
			c-4.33,0.08-8.66,0.02-12.98,0.3c-2.88,0.19-3.12-1.25-3.3-3.57c-0.22-2.89,1.16-3.27,3.51-3.33c1.85-0.05,4.09,0.93,5.43-1.35
			c1.92-3.28,0.41-6.05-3.4-6.42c-1.89-0.18-4.2,0.68-5.49-1.4c-1.78-2.88,0.28-6.03,3.79-6.33c2.06-0.18,4.87,1.29,5.73-2.25
			c1.01-4.12-0.1-5.71-4.59-5.53c-3.38,0.14-5.32-0.35-5-4.49c0.28-3.62,2.52-3.31,4.86-3.3c2.54,0.01,4.85,0.33,4.92-3.64
			c0.07-3.99-2.03-4.35-4.98-4.3c-1,0.02-2,0.02-3-0.08c-2.29-0.24-1.72-2.03-1.77-3.44c-0.04-1.38-0.02-2.72,1.99-2.66
			c1.49,0.04,3.02,0.06,4.47-0.23c2.91-0.58,3.4-2.77,3.12-5.31c-0.29-2.59-1.73-3.34-4.15-2.57c-0.45,0.14-1.02,0.13-1.49,0
			c-1.65-0.45-4.44,1.2-4.71-1.7c-0.27-2.89,2.38-3.38,4.65-3.74c1.15-0.18,2.34-0.16,3.47-0.4c1.73-0.36,2.41-1.57,2.38-3.28
			c-0.03-1.82-0.98-2.74-2.73-2.88c-1.32-0.1-3.1,0.39-3.86-0.29c-1.15-1.03-4.41,0.29-3.42-3.7c0.75-3.02,1.22-4.28,4.44-4.03
			C169.49,580.22,173.33,580.1,177.16,580.16z"/>
		<path fill="#FEFEFE" d="M262.45,629.37c0-5.14-0.01-10.29,0.01-15.43c0.01-1.45-0.22-2.87,1.9-3.44
			c7.91-2.12,17.56,1.14,22.26,7.69c4.24,5.92,4.95,12.25,1.78,18.78c-3.12,6.42-8.31,10.21-15.54,10.85
			c-10.44,0.92-10.45,0.89-10.49-9.49c-0.01-2.99,0-5.97,0-8.96C262.39,629.37,262.42,629.37,262.45,629.37z"/>
		<path fill="#FEFEFE" d="M149.21,629.19c-0.01,5.15-0.12,10.3,0.04,15.44c0.09,2.67-0.93,3.51-3.48,3.32
			c-3.63-0.28-7.4,0.2-10.89-0.58c-8.98-2.01-15.25-11.57-14.1-20.77c1.11-8.88,8.85-15.75,18.06-16.03
			c10.37-0.31,10.37-0.31,10.38,10.16C149.22,623.54,149.22,626.36,149.21,629.19z"/>
		<path fill="#FEFEFE" d="M180.94,715.02c-4.99,0-9.99-0.18-14.97,0.07c-3.03,0.15-4.11-0.75-4.04-3.85
			c0.19-8.79-1.8-8.16,7.62-8.18c8.49-0.01,16.99,0.34,25.45-0.04c4.62-0.21,5.91,1.49,5.32,5.65c-0.16,1.14-0.11,2.33,0,3.49
			c0.21,2.21-0.8,2.86-2.91,2.82c-5.49-0.1-10.98-0.03-16.47-0.03C180.94,714.97,180.94,714.99,180.94,715.02z"/>
		<path fill="#FEFEFE" d="M231.54,714.96c-4.98,0-9.96-0.12-14.94,0.05c-2.52,0.09-3.8-0.63-3.56-3.29c0.03-0.33-0.02-0.66-0.01-1
			c0.2-8.18-1.58-7.52,7.2-7.58c8.3-0.06,16.6,0.24,24.9,0.02c6-0.16,4.45,3.95,4.91,7.34c0.59,4.38-2.03,4.43-5.05,4.41
			c-4.48-0.04-8.96-0.01-13.45-0.01C231.54,714.92,231.54,714.94,231.54,714.96z"/>
		<path fill="#FEFEFE" d="M181.02,558.12c4.97,0,9.96,0.18,14.92-0.06c3.3-0.16,4.68,0.63,4.57,4.3c-0.19,6.27,0.06,6.24-6.34,6.23
			c-9.29-0.02-18.59-0.31-27.85,0.12c-5.73,0.27-4.22-3.34-4.54-6.41c-0.36-3.42,0.71-4.65,4.33-4.38
			c4.95,0.36,9.94,0.09,14.92,0.09C181.02,558.04,181.02,558.08,181.02,558.12z"/>
		<path fill="#FEFEFE" d="M231.55,568.57c-5.15,0-10.3-0.04-15.45,0.01c-5.27,0.05-2.58-3.93-2.99-6.14
			c-0.41-2.19-0.68-4.54,3.18-4.44c9.79,0.26,19.6,0.27,29.39,0.06c5.6-0.12,3.54,3.86,4.01,6.55c0.61,3.4-1.03,4.3-4.2,4.16
			c-4.64-0.21-9.3-0.05-13.95-0.05C231.55,568.66,231.55,568.62,231.55,568.57z"/>
		<path fill="#FEFEFE" d="M177.3,671.02c0.23,6.56,0.46,13.11,0.68,19.67c-4.31,0.07-8.62-0.01-12.92,0.26
			c-2.76,0.17-3.32-0.99-3.32-3.45c0.01-2.53,0.46-4.04,3.46-3.94c2.02,0.07,4.49,0.69,5.77-1.72c1.61-3.03-0.3-6.14-3.88-6.5
			c-1.64-0.17-3.76,0.28-4.81-0.58c-1.6-1.32-1.66-4.51,0.41-4.79C167.53,669.3,172.69,667.57,177.3,671.02z"/>
		<path fill="#FEFEFE" d="M196.32,201.04c-1.94,1.5-3.85,3.04-5.81,4.5c-2.95,2.19-3.46,5.43-2.41,8.37
			c1.14,3.16,4.26,2.11,6.81,1.63c2.12,3.3,0.97,7.07,1.54,10.59c-2.39,1.79-4.98,3.37-7.11,5.42c-2.4,2.31-2.96,5.49-0.79,8.11
			c1.97,2.38,4.79,2.86,7.43,0.48c0.29,2.9,0.59,5.79,0.88,8.69c-15.43-15.31-33.46-13.58-52.08-7.94
			c-2.38,0.72-4.83,1.34-7.08,2.37c-3.66,1.68-5.08,1.27-5.01-3.29c0.23-14.31,0.03-28.62,0.01-42.93
			c-0.05-30.12,0-60.24-0.23-90.35c-0.04-4.83,1.43-7.48,6.03-9.31c12.57-5,25.39-8.97,38.77-10.93c6.27-0.92,12.58-1.24,18.77,0.67
			c0.08,3.3,0.16,6.6,0.24,9.89c-2.5,1.86-5.23,3.5-7.44,5.65c-2.34,2.28-2.69,5.3-0.87,8.15c1.94,3.06,4.5,1.76,6.94,0.63
			c2.32,3.35,0.57,7.28,1.58,10.82c-2.48,1.93-5.15,3.66-7.38,5.85c-2.2,2.16-2.52,4.91-0.98,7.78c1.44,2.69,3.46,2.63,5.82,1.5
			c4.26,3.13,1.45,7.78,2.5,11.6c-3.16,1.96-6.84,3.25-8.55,7.01c-1.2,2.63-1.13,5.15,0.74,7.35c1.83,2.17,4.06,1.62,6.24,0.45
			c2.62,3.51,0.66,7.68,1.67,11.42c-2.66,1.93-5.58,3.53-7.66,6.16c-2.04,2.58-2.56,5.47-0.69,8.24c1.75,2.58,4.28,1.8,6.66,0.76
			C197.21,193.68,196.28,197.42,196.32,201.04z M186.23,211.32c-0.15-4.29-3.2-5.43-6.73-5.52c-12.16-0.28-23.79,2.34-35,6.92
			c-3.6,1.47-5.36,4.28-3.84,7.98c1.48,3.61,4.66,4.74,8.29,3.24c10.28-4.24,20.91-6.59,32.04-6.78
			C184.61,217.09,186.56,215.25,186.23,211.32z"/>
		<path fill="#FEFEFE" d="M221.45,243.19c5.16-4.46,6.3-8.24,1.7-13.16c-2.71-2.9-0.88-12.49,1.59-16.07
			c1.72-2.48,2.9-5.49-0.52-7.76c-1.43-0.95-2.27-2.15-2.02-3.69c0.84-5.21-2.46-11.11,3.31-15.63c1.89-1.49,1.02-4.84-1.12-7.15
			c-3.67-3.94-3.18-13.97,0.41-17.97c2.68-2.99,1.97-6.11-0.52-8.92c-3.1-3.5-3.19-13.13-0.17-16.63c2.79-3.24,3-6.44-0.2-9.67
			c-2.8-2.82-2.53-13.19,0.38-15.88c2.91-2.68,3-5.77,0.44-8.26c-4.7-4.56-2.07-10.02-2.34-15.07c-0.1-1.8,2.36-1.36,3.73-1.45
			c10.13-0.65,19.81,1.94,29.47,4.42c7.74,1.98,15.16,4.91,22.53,8c3.04,1.28,4.08,2.94,4.05,6.29
			c-0.17,26.81-0.14,53.61-0.14,80.42c0,19.14,0,38.29,0.18,57.43c0.03,2.8-1.44,1.83-2.54,1.5c-4.13-1.25-8.16-2.82-12.32-3.97
			c-14.44-4.01-28.7-5.05-42.32,3.01C224.43,243.34,223.45,243.09,221.45,243.19z M240.57,205.8c-2.93,0-4.42,0-5.92,0
			c-4.03,0-6.29,2.16-6.45,6.02c-0.15,3.78,2.51,5.09,5.86,5.32c10.33,0.7,20.33,2.83,30.02,6.56c3.76,1.45,7.1,0.49,8.57-3.49
			c1.54-4.16-0.99-6.67-4.54-8.06C258.81,208.51,249.17,206.19,240.57,205.8z M246.63,116.83c-4.07-0.12-7.06,1.17-7.63,5.52
			c-0.6,4.62,2.64,6.01,6.31,6.71c5.7,1.09,11.42,2.07,17.14,3.07c3.71,0.65,6.86-0.2,7.78-4.23c0.91-4-1.64-6.47-5.11-7.34
			C259.03,119.05,252.8,118.05,246.63,116.83z M245.65,137.97c-3.72-0.17-6.22,1.25-6.79,5.08c-0.63,4.21,1.96,6.15,5.58,6.82
			c6.02,1.11,12.11,1.84,18.14,2.92c4.03,0.73,6.96-0.09,7.88-4.5c0.88-4.23-1.68-6.34-5.21-7.06
			C258.76,139.91,252.19,139.03,245.65,137.97z"/>
		<path fill="#53B833" d="M196.85,248.83c-0.29-2.9-0.58-5.79-0.88-8.69c2.93-3.9,7.57-3.82,11.67-4.71
			c2.24-0.48,2.35,1.81,2.36,3.51c0.02,3.99,0.12,7.99-0.03,11.98c-0.06,1.68,1.02,4.06-1.19,4.87c-2.18,0.8-4.71,0.69-6.57-1.11
			C200.31,252.86,198.63,250.79,196.85,248.83z"/>
		<path fill="#53B833" d="M196.44,148.98c-1.06-3.82,1.76-8.47-2.5-11.6c0.89-1.57,2.62-1.97,4.03-2.73
			c3.28-1.76,7.56-4.95,10.27-2.68c2.64,2.22,1.68,7.38,1.51,11.34c-0.07,1.53-0.86,2.31-2.38,2.69
			C203.71,146.91,200.08,147.98,196.44,148.98z"/>
		<path fill="#53B833" d="M196.54,175.22c-1.01-3.74,0.94-7.92-1.67-11.42c2.94-3.5,7.04-4.78,11.26-5.74
			c2.31-0.52,3.98,0.1,3.8,2.95c-0.01,0.17-0.01,0.33,0,0.5C210.66,172.57,209.86,173.39,196.54,175.22z"/>
		<path fill="#53B833" d="M196.28,97c-0.08-3.3-0.16-6.6-0.24-9.89c2.63-3.43,4.25-7.94,9.76-8.05c2.82-0.06,4.51,0.49,4.18,3.73
			c-0.12,1.14-0.14,2.33,0.03,3.46c0.78,5.26-0.8,8.38-6.72,8.65C200.92,95,198.61,96.27,196.28,97z"/>
		<path fill="#53B833" d="M196.32,201.04c-0.04-3.61,0.89-7.36-1.47-10.65c0.9-1.5,2.43-2.25,3.89-2.94
			c3.27-1.55,7.61-4.28,10.1-2.46c2.84,2.08,0.6,7.07,0.96,10.78c0.14,1.37-0.72,2.03-2.04,2.34
			C203.94,199.04,200.13,200.06,196.32,201.04z"/>
		<path fill="#53B833" d="M196.45,226.13c-0.57-3.52,0.58-7.3-1.54-10.59c3.04-3.44,7.4-4.12,11.45-5.37
			c2.11-0.65,3.58,0.21,3.48,2.76c-0.06,1.5-0.12,3.01,0.04,4.49c0.48,4.4-0.14,7.44-5.86,6.7
			C201.48,223.79,199.29,226.53,196.45,226.13z"/>
		<path fill="#53B833" d="M196.48,122.26c-1.01-3.54,0.74-7.48-1.58-10.82c2.85-3.44,7.18-3.82,11-5.23
			c0.69-0.26,1.77-0.16,2.4,0.22c1.85,1.11,1.13,12.02-0.89,12.7C203.82,120.33,200.13,121.23,196.48,122.26z"/>
		<path fill="#53B833" d="M842.04,88.25c8.92-0.43,17.51,1.23,25.98,3.87c2.78,0.86,3.97,2.5,3.95,5.48
			c-0.1,16.82-0.11,33.63-0.05,50.45c0.01,2.66-0.36,3.47-3.56,3.41c-10.8-0.19-21.61-0.43-32.43,0.31
			c-4.88,0.33-3.96,3.61-4.24,6.19c-0.32,2.89,0.79,5.08,4.39,5.08c10.15,0.01,20.31,0.34,30.46,0.16c3.95-0.07,5.48,0.73,5.44,5.11
			c-0.22,22.3-0.1,44.6-0.1,67.53c-7.8-3.81-15.19-6.76-23.25-8.14c-13.6-2.32-27.1-2.12-40.67-0.13c-3.6,0.53-7.22,0.96-10.84,1.43
			c-0.05-39.26-0.16-78.53-0.09-117.79c0.01-9.01,5.89-15.35,14.82-16.49c7.28-0.93,14.59-0.93,21.87,0.21
			C841.73,96.18,841.74,96.16,842.04,88.25z"/>
		<path fill="#53B833" d="M920.01,88.2c13.81,0.06,27.62,0.23,41.42,0.11c3.85-0.03,3.3,2.35,3.3,4.59
			c0.02,16.47,0,32.95-0.01,49.42c-0.01,27.29-0.01,54.58-0.02,81.87c0,6.38-0.28,6.62-6.43,5.35c-12.25-2.52-24.61-3.92-37.11-3.37
			c-5.43,0.24-10.83,1.15-16.24,1.75c-1.51-7.9-0.53-15.88-0.78-23.82c-0.13-4.13-1.38-9.24,0.54-12.16
			c2.17-3.29,7.66-0.93,11.68-1.33c2.22-0.22,3.96-0.52,3.86-3.3c-0.27-7.95,0.48-15.92-0.5-23.85c4.9-4.47,4.89-7.56-0.03-11.72
			c0.91-5.62,0.08-11.28,0.46-16.9c0.23-3.38-1.24-4.37-4.38-4.17c-2.64,0.17-5.32-0.2-7.97-0.08c-2.79,0.14-3.76-0.91-3.7-3.74
			c0.15-7.31,0.25-14.63-0.09-21.93c-0.2-4.23,1.44-5.36,5.38-5.48C920.16,99.11,920.15,98.97,920.01,88.2z"/>
		<path fill="#FEFEFE" d="M919.72,163.47c0.98,7.93,0.24,15.9,0.5,23.85c0.09,2.78-1.65,3.08-3.86,3.3
			c-4.02,0.4-9.52-1.96-11.68,1.33c-1.92,2.92-0.67,8.03-0.54,12.16c0.25,7.94-0.73,15.92,0.78,23.82
			c-6.79,1.98-13.8,3.37-20.32,7.94c0-6.2,0.01-11.91,0-17.62c-0.02-16.61,0.07-33.22-0.16-49.82c-0.05-3.83,0.85-5.2,4.9-5.08
			C899.46,163.64,909.6,163.46,919.72,163.47z"/>
		<path fill="#FEFEFE" d="M920.01,88.2c0.14,10.77,0.15,10.91-10.62,11.25c-3.94,0.12-5.58,1.26-5.38,5.48
			c0.34,7.3,0.24,14.62,0.09,21.93c-0.06,2.83,0.91,3.88,3.7,3.74c2.65-0.13,5.33,0.25,7.97,0.08c3.14-0.21,4.61,0.79,4.38,4.17
			c-0.38,5.62,0.45,11.29-0.46,16.9c-10.64-0.1-21.28-0.32-31.91-0.23c-2.71,0.02-3.3-0.78-3.28-3.33
			c0.12-16.46,0.19-32.92,0.03-49.37c-0.03-3.07,1.25-4.5,3.76-5.57C898.45,88.89,909.12,87.84,920.01,88.2z"/>
		<path fill="#FEFEFE" d="M842.04,88.25c-0.3,7.91-0.3,7.93-8.32,6.68c-7.28-1.14-14.59-1.14-21.87-0.21
			c-8.93,1.14-14.81,7.47-14.82,16.49c-0.06,39.26,0.05,78.53,0.09,117.79c-2.9,0.64-5.8,1.29-9.13,2.03c0-1.68,0-2.98,0-4.28
			c-0.04-44.15-0.01-88.3-0.21-132.45c-0.02-4.21,0.74-5.74,5.32-5.67C809.4,88.86,825.71,87.39,842.04,88.25z"/>
		<path fill="#53B833" d="M890.33,472.16c-0.76-3.26-1.41-6.42-6-6.26c-5.13,0.18-3.82,4.35-4.82,7.12c-4.9-0.61-9.8-1.23-14.7-1.85
			c-1.51-0.19-3.7-0.56-3.8-1.85c-0.5-6.53-6.18-7.44-10.28-10.07c-0.5-4.61-3.21-6.86-7.7-7.2c-2.21-3.85-4.89-7.23-9.01-9.21
			c0.52-4.85-0.98-6.32-6.94-6.77c-4.76-7.32-7.25-15.3-7.02-24.08c1.85-0.96,4.24-0.62,5.71-2.51c1.26-1.62,1.19-3.33,0.52-5.08
			c-1.1-2.88-3.41-3.72-6.26-3.56c-0.14-8.43,1.99-16.17,6.99-23.04c4.86,0.54,6.56-2.71,7.8-6.51c3.15-3.21,6.5-6.26,8.49-10.41
			c4.11-0.34,6.75-2.37,7.53-6.55c1.97-0.85,3.96-1.68,5.92-2.57c1.51-0.69,3.4-1.36,3.01-3.43c-0.83-4.35,2.05-4.94,5.11-5.42
			c3.27-0.51,6.52-1.36,9.88-1.03c1.13,1.61,1.06,3.45,1.06,5.29c0.01,13.66,0,27.32,0.1,40.98c0.02,2.36-0.59,3.84-2.66,5.33
			c-6.96,5-8.95,12.84-5.03,20.67c1.6,3.2,1.14,4.96-1.32,7.23c-2.67,2.47-4.85,5.46-7.22,8.25c-2.04,2.41-2.92,4.87-0.27,7.47
			c2.81,2.76,5.91,2.85,9,0.7c1.33-0.92,2.4-2.31,3.39-3.64c4.28-5.73,8.43-11.04,16.39-12.62c5.69-1.13,9.74-5.76,10.65-12
			c1.02-6.99-1.07-12.89-7.17-16.86c-1.88-1.22-2.75-2.49-2.73-4.79c0.09-15.32,0.04-30.64,0.04-45.97
			c6.29,0.07,12.58,0.17,18.76,1.41c1.75,0.35,4.35,0.25,4.14,3.22c-0.33,4.66,2.82,6.29,6.39,7.63c2.95,2.5,4.61,6.79,9.37,6.8
			c2.22,3.8,5.11,7.05,8.24,10.11c1.69,6.38,3.98,7.73,8.77,5.16c3.57,7.84,5.91,15.98,6.21,24.64c-3.55-0.15-6.8,0.14-7.05,4.81
			c-0.28,5.1,3.31,5.83,7.13,6.29c-0.3,8.66-0.52,17.34-7.16,24.12c-6.56-2.48-6.3,3.07-7.76,6.59c-3.92,2.18-6.58,5.49-8.5,9.47
			c-4.53,0.47-7.34,2.64-7.5,7.49c-3.15,0.67-7.16,1.62-7.61,4.72c-0.79,5.41-4.55,5.79-8.29,6.83
			C899.61,472.48,894.96,472.25,890.33,472.16z"/>
		<path fill="#FEFEFE" d="M827.02,377.8c-5,6.87-7.13,14.61-6.99,23.04c-2.65,0.11-5.3,0.31-7.96,0.31
			c-6.92,0.01-6.92-0.02-5.87-6.72c5.74-36.73,33.33-63.51,70.12-68.03c1.09-0.13,2.71-0.83,2.88,0.79c0.26,2.5,2.13,6.01-0.39,7.37
			c-3.36,1.81-3.57,4.42-4.04,7.32c-3.36-0.33-6.61,0.52-9.88,1.03c-3.06,0.48-5.94,1.07-5.11,5.42c0.39,2.07-1.5,2.74-3.01,3.43
			c-1.96,0.89-3.94,1.72-5.92,2.57c-0.58-0.56-1.28-1.03-1.7-1.68c-2.57-4.03-3.6-3.99-7.15-0.89c-4.53,3.95-1.45,6.42,1.32,9.12
			c-1.99,4.15-5.34,7.2-8.49,10.41c-6.07-5.25-8.38-5.03-10.98,0.35C821.92,375.62,826.45,375.54,827.02,377.8z"/>
		<path fill="#FEFEFE" d="M935.9,371.1c-3.13-3.05-6.02-6.3-8.24-10.11c1.2-2.6,6.74-3.87,2.23-8.22c-2.98-2.88-5.56-4.97-8.68-0.33
			c-0.66,0.99-1.72,1.55-2.92,1.76c-3.57-1.34-6.72-2.97-6.39-7.63c0.21-2.97-2.39-2.88-4.14-3.22c-6.18-1.23-12.48-1.33-18.76-1.41
			c-0.68-2.38-2.52-4.76,0.83-6.86c0.76-0.47,0.94-2.54,0.74-3.77c-0.86-5.19,1.65-4.96,5.67-4.42
			c38.09,5.1,63.14,37.07,67.49,69.76c0.43,3.25,0.03,5.11-3.89,4.64c-2.96-0.35-5.97-0.27-8.96-0.39
			c-0.3-8.66-2.64-16.81-6.2-24.64c4.6-2.53,1.56-5.19-0.05-7.54c-1.99-2.92-4.09-1.57-6.05,0.32
			C937.77,369.81,936.79,370.41,935.9,371.1z"/>
		<path fill="#FEFEFE" d="M820.07,412c-0.23,8.77,2.26,16.75,7.02,24.08c-1.16,2.19-4.9,3.27-2.63,6.92c3.12,5,5.11,5.03,9.56-0.15
			c4.12,1.98,6.8,5.36,9.01,9.21c-1.1,2.48-5.21,3.98-2.98,7.53c2.87,4.56,6.01,4.61,9.49,0.55c0.31-0.37,0.79-0.59,1.2-0.88
			c4.1,2.64,9.78,3.54,10.28,10.07c0.1,1.29,2.28,1.66,3.8,1.85c4.9,0.61,9.8,1.23,14.7,1.85c0.87,13.68,0.87,13.68-11.22,11.27
			c-31.56-6.29-54.69-29.67-61.39-62.07c-2.19-10.58-2.19-10.59,8.69-10.51C817.09,411.73,818.58,411.9,820.07,412z"/>
		<path fill="#FEFEFE" d="M927.54,452.19c1.92-3.98,4.58-7.29,8.5-9.47c2.4,1.55,4.12,5.78,7.68,3.24c4.09-2.91,3.83-5.64,0.08-9.83
			c6.63-6.78,6.86-15.46,7.16-24.12c2.49-0.06,5.01,0.13,7.46-0.22c4.69-0.67,5.85,1.05,5.23,5.66
			c-4.96,36.56-33.38,64.3-70.03,68.2c-2.62,0.28-3.72-0.32-3.58-3.03c0.18-3.48,0.21-6.97,0.3-10.45
			c4.63,0.08,9.28,0.32,13.81-0.94c3.74-1.04,7.5-1.42,8.29-6.83c0.45-3.1,4.46-4.05,7.61-4.72c2.55,0.89,3.41,6.61,7.82,2.31
			C932.16,457.79,932.38,458.02,927.54,452.19z"/>
		<path fill="#FEFEFE" d="M887.2,406.88c-0.19,2.38-1.57,3.93-4.35,4c-2.84,0.08-3.69-2.01-3.84-4.2c-0.17-2.42,1.19-4.32,3.7-4.36
			C885.25,402.28,887.04,403.71,887.2,406.88z"/>
		<path fill="#FEFEFE" d="M944.29,685.26c-3.22,1.23-4.95-0.72-6.78-1.83c-10.88-6.59-20.21-15.02-28.57-24.57
			c-1.08-1.23-2.13-2.33-0.35-3.64c1.57-1.16,2.79-3.95,5.36-1.81c8.16,6.79,16.42,13.46,24.27,20.6
			C941.33,676.83,940.23,682.27,944.29,685.26z"/>
		<path fill="#FEFEFE" d="M884.98,704.33c-0.32,4.68-4.39,8.47-8.89,8.28c-4.04-0.17-8.28-5.04-8.06-9.25
			c0.23-4.36,5.06-9.54,8.77-9.4C880.85,694.1,885.29,699.74,884.98,704.33z"/>
		<path fill="#FEFEFE" d="M885.14,597.15c-0.09,3.72-4.77,9.01-8,9.03c-3.83,0.03-8.97-5.75-8.9-10c0.06-3.92,4.9-9.35,8.32-9.35
			C880.24,586.83,885.24,592.84,885.14,597.15z"/>
		<path fill="#FEFEFE" d="M868.16,560.32c0.13-4.64,4.13-8.39,8.77-8.22c4.37,0.16,8.08,4.03,8.09,8.44
			c0.01,4.03-4.62,9.18-8.3,9.24C872.87,569.84,868.05,564.5,868.16,560.32z"/>
		<path fill="#FEFEFE" d="M877.42,641.04c-3.71,0.06-8.49-4.86-8.62-8.88c-0.12-3.68,4.43-9.04,7.78-9.15
			c3.7-0.13,9.21,5.61,9.29,9.68C885.94,636.38,881.29,640.98,877.42,641.04z"/>
		<path fill="#FEFEFE" d="M884.84,667.29c-0.26,3.17-5.43,8.57-8.17,8.52c-2.91-0.05-7.96-5.95-7.59-8.87
			c0.39-3.08,6.21-9.15,8.54-8.92C880.39,658.3,885.08,664.32,884.84,667.29z"/>
		<path fill="#FEFEFE" d="M958.05,704.35c-3.84-0.02-7.81-3.56-7.81-6.97c0-3.47,3.99-7.14,7.7-7.08c3.8,0.06,7.77,3.67,7.76,7.05
			C965.69,700.97,961.97,704.37,958.05,704.35z"/>
		<path fill="#FEFEFE" d="M957.3,666.09c3.47-0.09,6.9,3.11,6.91,6.45c0.01,3.42-3.19,6.86-6.52,7.02
			c-3.18,0.15-6.86-3.37-6.92-6.59C950.7,669.45,953.8,666.18,957.3,666.09z"/>
		<path fill="#FEFEFE" d="M902.49,644.64c-3.36,2.65-6.72,5.3-10.07,7.95c-3.03,2.4-3.82-0.7-5.47-1.97
			c2.62-2.38,5.15-4.5,7.47-6.82C898.55,639.67,898.5,639.62,902.49,644.64z"/>
		<path fill="#53B833" d="M938.31,813c14.97-0.63,21.78,3.63,24.93,15.72c0.45,1.74,0.62,3.6,0.62,5.41
			c0.04,26.8-0.16,53.6,0.12,80.39c0.14,13.38-7.46,20.66-20.81,20.58c-49.43-0.3-98.87-0.1-148.3-0.1c-1.49,0-2.98-0.17-4.47-0.26
			c-6.56-4.68-9.84-11-9.79-19.1c0.05-10.48-0.02-20.96-0.01-31.45c0.01-14.31-0.12-28.63,0.14-42.93
			c0.23-12.4,8.59-20.41,20.88-20.57c3.49-0.05,6.99-0.15,10.48-0.15c39.94,0.01,79.87,0.06,119.81,0.04
			C938.88,820.58,938.99,820.34,938.31,813z M906.8,877.86c-0.02,0-0.04,0-0.06,0c0-2.67,0.18-5.35-0.04-7.99
			c-0.4-4.82-3.69-7.74-8.54-7.99c-3.79-0.19-8.61,1.64-11.11-0.76c-2.76-2.64-0.74-7.59-0.92-11.52c-0.29-6.27-2.84-9.19-9.1-9.51
			c-3.99-0.21-7.99-0.11-11.99-0.07c-7.4,0.09-9.82,2.54-10.15,9.86c-0.17,3.79,1.61,8.56-0.87,11.11
			c-2.48,2.56-7.26,0.64-11.03,0.89c-5.64,0.37-8.45,2.65-8.75,8.14c-0.29,5.32-0.3,10.67-0.06,15.99c0.22,4.77,3.12,7.48,7.84,7.98
			c4.08,0.43,9.34-1.83,11.97,1.03c2.56,2.78,0.53,7.98,0.92,12.09c0.47,4.89,3.83,8.46,8.64,8.65c4.66,0.18,9.34,0.22,13.99-0.02
			c5.06-0.26,8.45-4.06,8.56-9.13c0.05-2.16,0.2-4.35-0.02-6.49c-0.48-4.79,1.42-6.33,6.28-6.22c13.12,0.28,14.49-1.32,14.43-14.53
			C906.79,878.86,906.8,878.36,906.8,877.86z"/>
		<path fill="#FEFEFE" d="M938.31,813c0.67,7.34,0.57,7.58-6.4,7.58c-39.94,0.02-79.87-0.03-119.81-0.04
			c-3.49,0-6.99,0.1-10.48,0.15c-12.29,0.16-20.65,8.17-20.88,20.57c-0.26,14.31-0.13,28.62-0.14,42.93
			c-0.01,10.48,0.07,20.96,0.01,31.45c-0.04,8.1,3.24,14.42,9.79,19.1c-11.91,0.09-18.43-5.94-18.49-17.79
			c-0.14-27.3-0.12-54.59,0-81.89c0.07-14.04,7.97-21.96,22.09-22c41.94-0.13,83.89-0.07,125.83-0.09
			C926,812.97,932.16,812.99,938.31,813z"/>
		<path fill="#FEFEFE" d="M870.84,800.54c-13.64,0-27.28-0.14-40.92,0.09c-3.85,0.07-5.01-1.16-4.64-4.83
			c0.3-2.97,0.27-5.99,0.09-8.97c-0.29-4.81,2.19-6.53,6.6-6.54c25.78-0.04,51.56-0.16,77.34-0.11c5.16,0.01,7.35,2.6,7.5,7.86
			c0.36,12.58,0.36,12.58-12.04,12.59c-11.31,0-22.62,0-33.93,0C870.84,800.6,870.84,800.57,870.84,800.54z"/>
		<path fill="#53B833" d="M524.12,851.77c12.87,0.08,25.73,0.13,38.6,0.26c1.77,0.02,4.3-0.88,4.26,2.46
			c-3.66,1.87-7.31,3.78-11,5.59c-2.61,1.28-3.95,3.22-2.56,5.93c1.31,2.55,3.5,3.02,6.28,1.81c3.91-1.7,7.47-4.28,11.84-4.87
			c3.13,3.99,5.41,8.44,7.15,13.18c-4.06,1.28-8.36,1.88-12.08,4.14c-2.34,1.42-5.49,2.56-3.64,6.28c1.68,3.36,4.34,2.56,7.2,1.52
			c3.96-1.44,7.39-4.41,11.91-4.29c3.38,3.78,5.06,8.44,6.86,13.06c-3.92,1.33-7.88,2.58-11.76,4.03c-2.89,1.07-5.24,3.01-3.92,6.36
			c1.37,3.5,4.27,2.69,7.18,1.73c4.23-1.4,7.71-4.59,12.31-5.01c4.73,7.02,8.09,14.78,11.69,22.39c1.82,3.84-1.7,8.14-6.5,8.39
			c-4.65,0.25-9.32,0.06-13.99,0.06c-33.31-0.01-66.61-0.01-99.92-0.02c1-2.81-1.89-5.19-0.1-8.53
			c11.2-20.85,21.94-41.95,32.93-62.91C518.99,859.31,520.3,854.74,524.12,851.77z M589.97,930.79c3.46-0.56,6.43-2.73,8.91-5.41
			c1.31-1.42,0.73-3.62-0.17-5.2c-1.04-1.82-2.8-1.3-4.43-0.65c-2.31,0.92-4.66,1.77-6.95,2.74c-2.13,0.9-3.9,2.28-3.07,4.9
			C585.04,929.64,587,930.8,589.97,930.79z"/>
		<path fill="#FEFEFE" d="M524.12,851.77c-3.82,2.97-5.13,7.53-7.24,11.56c-10.99,20.97-21.73,42.06-32.93,62.91
			c-1.79,3.34,1.1,5.72,0.1,8.53c-1.16-0.02-2.33,0-3.49-0.07c-6.75-0.41-9.83-5.27-6.74-11.35c7.02-13.78,14.2-27.47,21.55-41.07
			c8.45-15.64,16.35-31.58,25.29-46.96c2.46-4.23,0.95-9.52,0.81-14.3c-0.11-3.75,0.73-5.24,4.86-5.09c8.48,0.32,17,0.29,25.48-0.04
			c4.17-0.17,5.74,0.65,5.58,5.29c-0.21,6.05-1.09,12.33,2.16,18.74c-7.32,0-14.23-0.01-21.13,0
			C528.72,839.95,526.49,841.81,524.12,851.77z"/>
		<path fill="#FEFEFE" d="M539.5,793.1c8.82,0,17.65,0.06,26.47-0.03c3.86-0.04,6.9,1.3,6.91,5.35c0.01,3.94-2.79,5.59-6.78,5.57
			c-17.81-0.11-35.62-0.09-53.44-0.12c-0.33,0-0.67,0.01-1-0.01c-3.62-0.22-6.17-1.81-6.21-5.7c-0.05-3.95,2.74-4.94,6.08-4.95
			c9.32-0.02,18.64-0.01,27.97-0.01C539.5,793.17,539.5,793.14,539.5,793.1z"/>
		<path fill="#FEFEFE" d="M582.1,883.79c-4.52-0.12-7.94,2.85-11.91,4.29c-2.86,1.04-5.53,1.84-7.2-1.52
			c-1.86-3.73,1.3-4.86,3.64-6.28c3.72-2.26,8.02-2.86,12.08-4.14C579.83,878.69,580.97,881.24,582.1,883.79z"/>
		<path fill="#FEFEFE" d="M592.77,903.96c-4.61,0.41-8.09,3.61-12.31,5.01c-2.91,0.96-5.81,1.77-7.18-1.73
			c-1.31-3.36,1.04-5.29,3.92-6.36c3.88-1.44,7.84-2.69,11.76-4.03C590.23,899.21,591.5,901.59,592.77,903.96z"/>
		<path fill="#FEFEFE" d="M571.55,862.96c-4.37,0.59-7.93,3.17-11.84,4.87c-2.79,1.21-4.97,0.73-6.28-1.81
			c-1.4-2.71-0.05-4.66,2.56-5.93c3.69-1.81,7.34-3.72,11-5.59C569.37,856.84,570.68,859.78,571.55,862.96z"/>
		<path fill="#53B833" d="M241.39,351.94c7.77-0.03,13.38,4.68,18.92,9.09c12.83,10.22,19.27,24.18,20.56,40.12
			c2.06,25.45-4.1,48.88-20.18,69.12c-6.57,8.27-14.45,14.95-24.81,18.52c-6.2,2.13-11.86,1.15-17.43-1.17
			c-9.1-3.78-17.91-3.87-26.99,0.15c-10.38,4.6-19.62,2.45-27.43-5.8c0.2-1.55-1.03-2.35-1.77-3.42
			c-4.01-5.81-8.83-11.25-11.82-17.55c-4.94-10.44-9.52-21.18-11.24-32.78c-3.51-23.72-0.58-45.59,18.94-62.27
			c7.96-6.8,17.01-9.87,27.26-5.56c14.7,6.19,29.36,7.19,43.79-0.39C233.48,357.77,239.71,358.18,241.39,351.94z"/>
		<path fill="#FEFEFE" d="M241.39,351.94c-1.68,6.24-7.91,5.83-12.19,8.07c-14.44,7.57-29.09,6.58-43.79,0.39
			c-10.25-4.31-19.3-1.24-27.26,5.56c-19.52,16.68-22.46,38.54-18.94,62.27c1.72,11.6,6.3,22.34,11.24,32.78
			c2.98,6.3,7.81,11.74,11.82,17.55c0.74,1.07,1.97,1.87,1.77,3.42c-5.65-1.85-9.43-6.34-12.78-10.6
			c-18.93-24.1-27.14-51.11-19.97-81.61c4.74-20.14,21.62-36.16,40.28-39.04c5.59-0.87,11.18-0.24,16.07,2.19
			c11.23,5.56,21.99,5.63,33.43,0.35C227.33,350.37,234.41,348.94,241.39,351.94z"/>
		<path fill="#53B833" d="M415.1,116.12c7.3-0.05,14.61-0.05,21.91-0.17c2.37-0.04,3.21,0.98,3.2,3.27
			c-0.06,22.6-0.1,45.2-0.05,67.8c0.01,2.91-1.56,3.17-3.79,3.14c-7.14-0.12-14.29-0.16-21.43-0.23
			C414.98,165.32,415.04,140.72,415.1,116.12z"/>
		<path fill="#FEFEFE" d="M415.1,116.12c-0.06,24.6-0.11,49.2-0.17,73.8c-8.71,0.54-8.71,0.54-8.71-7.84
			c0.02-19.29,0.04-38.59,0.05-57.88C406.28,115.24,406.28,115.24,415.1,116.12z"/>
		<path fill="#FEFEFE" d="M408.14,201.8c10.16-0.39,19.83-0.26,29.73,0.3c-4.75,10.69-9.36,21.08-14.2,31.98
			C418.42,223.17,413.39,212.72,408.14,201.8z"/>
		<path fill="#FEFEFE" d="M426.21,103.62c-4.92,0-9.87-0.25-14.76,0.12c-2.08,0.16-2.59-0.16-2.74-2.1
			c-0.65-8.56,6.09-16.95,13.89-17.17c8.39-0.24,15.46,7.32,15.42,16.31c-0.01,2.12-0.57,2.99-2.83,2.86
			c-2.98-0.18-5.99-0.04-8.98-0.04C426.21,103.6,426.21,103.61,426.21,103.62z"/>
		<path fill="#FEFEFE" d="M641.97,223.93c-3.64-16.55-7.14-33.11-7.14-50.18c0-13.47,0.02-26.95-0.26-40.42
			c-0.07-3.29,0.7-4.36,4.02-4.3c10.48,0.19,20.96,0.15,31.44,0.11c2.27-0.01,3.75,0.18,3.68,3.12c-0.62,24.9,1.37,49.93-3.69,74.61
			c-0.36,1.78-0.78,3.54-1.24,5.61c-4.35-2.37-8.47-4.48-13.31-4.36c-8.97,0.22-10.4,2.01-8.57,10.94
			C645.45,220.88,643.98,222.68,641.97,223.93z"/>
		<path fill="#53B833" d="M641.97,223.93c2.01-1.25,3.49-3.05,4.94-4.88c3.74,0.55,7.56-0.39,11.29,0.91
			c5.67,1.97,7.86,5.15,6.38,9.83c-1.73,5.47-7.96,9.33-12.67,7.56C645.78,235.07,642.34,230.58,641.97,223.93z"/>
		<path fill="#53B833" d="M653.96,95.13c5.78-0.7,10.56,3.58,11.67,10.46c1.69,10.46,0.67,11.69-9.77,11.67
			c-2.15,0-4.29-0.12-6.44-0.18c-0.11-1.81-0.51-3.65-0.29-5.41C649.85,105.91,648.96,99.64,653.96,95.13z"/>
		<path fill="#FEFEFE" d="M653.96,95.13c-5,4.51-4.11,10.78-4.83,16.53c-0.22,1.76,0.17,3.61,0.29,5.41
			c-5.42,1.88-6.2,1.42-6.26-3.85c-0.07-6.05,0.19-11.9,5.49-16.28C650.37,95.53,651.98,95.13,653.96,95.13z"/>
		<path fill="#53B833" d="M562.81,156.91c2.44,2.23,2.07,5.46,2.77,8.24c3.1,12.36,5.98,24.77,8.94,37.17
			c-19.05-2.22-38.16-2.91-57.31-1.91c-3.4,0.18-3.37-1.45-2.87-3.99c2.02-10.11,3.94-20.25,5.85-30.38
			c1.8-9.58,1.77-9.58,11.76-9.63c2-0.01,4.01-0.12,6,0C546.22,156.93,554.55,155.12,562.81,156.91z"/>
		<path fill="#FEFEFE" d="M562.81,156.91c-8.25-1.79-16.58,0.02-24.86-0.51c-1.99-0.13-4-0.01-6,0c-9.99,0.05-9.96,0.06-11.76,9.63
			c-1.91,10.14-3.84,20.27-5.85,30.38c-0.51,2.54-0.53,4.17,2.87,3.99c19.15-1,38.26-0.31,57.31,1.91c0.82,2.63,1.63,5.26,2.61,8.39
			c-25.72-6.44-50.74-7.06-76.31,0.92c2.09-8.2,4.18-16.3,6.22-24.41c3.19-12.72,6.51-25.41,9.4-38.2c0.7-3.09,2.17-3.62,4.71-3.62
			c12.15-0.01,24.29-0.01,36.44-0.1c2.14-0.02,3.29,0.43,3.67,2.85C561.69,151.08,563.09,153.84,562.81,156.91z"/>
		<path fill="#FEFEFE" d="M568.58,221.35c-19.78,6.25-38.14,5.69-56.48,0.12C530.45,216.61,548.81,217.55,568.58,221.35z"/>
		<path fill="#53B833" d="M404.4,866.81c-7.99,0.09-14.9-6.43-15.09-14.24c-0.19-7.7,7.5-15.53,15.21-15.49
			c7.19,0.04,14.32,7.24,14.46,14.58C419.14,860.01,412.69,866.72,404.4,866.81z"/>
		<path fill="#53B833" d="M531.78,88.12c4.5-4.37,9.54-3.98,14.55-1.3c5.65,3.02,8.71,7.9,9.2,14.38c0.17,2.26-1.42,1.89-2.61,1.88
			c-8.11-0.06-16.22-0.2-24.33-0.31C527.5,97.41,530,92.84,531.78,88.12z"/>
		<path fill="#FEFEFE" d="M531.78,88.12c-1.78,4.72-4.28,9.29-3.19,14.64c-6.04,0.68-6.52,0.23-4.69-5.5
			C525.2,93.19,526.67,89.01,531.78,88.12z"/>
		<path fill="#FEFEFE" d="M791.55,617.05c-0.22-3.69-0.78-6.53,3.88-6.22c5.25,0.34,7.48,1.78,7.35,5.98
			c-0.15,4.88-3.64,5.01-7.34,5.32C790.14,622.59,791.87,618.79,791.55,617.05z"/>
		<path fill="#122D29" d="M539.17,558.26c-8.51,0.11-14.86-1.91-20.25-6.63c-1.65-1.44-2.97-3.15-3.55-5.31
			c-0.88-3.27-0.85-6.35,2.5-8.29c3.09-1.79,5.84-0.85,8.02,1.66c2.49,2.88,5.39,4.86,9.24,5.33c5.59,0.69,10.6-0.19,14.29-4.97
			c2.49-3.23,5.57-4.45,8.98-1.62c3.37,2.78,3.28,6.43,1.1,9.88c-3.97,6.3-10.53,8.28-17.29,9.71
			C540.77,558.33,539.24,558.25,539.17,558.26z"/>
		<path fill="#122D29" d="M602.08,507.05c0.03,7.11-5.83,12.89-13.02,12.86c-6.74-0.03-12.13-5.52-12.26-12.46
			c-0.13-7.5,5.61-13.4,13.02-13.38C596.7,494.08,602.05,499.74,602.08,507.05z"/>
		<path fill="#122D29" d="M471.82,506.89c-0.03-7.15,5.52-12.87,12.47-12.86c6.94,0.01,12.63,5.73,12.7,12.76
			c0.07,6.96-6,13.13-12.96,13.17C477.19,520,471.85,514.27,471.82,506.89z"/>
		<path fill="#122D29" d="M490.73,483.59c-5.06-0.52-11.37-0.55-17.7,0.13c-2.89,0.31-5.9,0.28-6.99-3.23
			c-1.13-3.67,0.33-6.53,3.43-8.55c1.84-1.2,3.99-1.79,6.16-1.84c4.99-0.12,9.99-0.06,14.99-0.09c1.93-0.01,3.53,0.86,5.06,1.89
			c2.94,1.98,4.34,4.73,3.2,8.16C497.83,483.27,495.03,483.9,490.73,483.59z"/>
		<path fill="#122D29" d="M591.46,470.07c3.94,0.06,7.99-0.69,11.67,1.54c3.08,1.87,5.36,4.2,4.18,8.08
			c-1.14,3.75-4.06,4.2-7.59,3.75c-6.45-0.82-12.95-0.35-19.43-0.11c-2.55,0.09-4.61-0.43-5.78-2.9c-1.25-2.65-0.22-4.78,1.48-6.83
			c2.1-2.52,4.99-3.23,8-3.49C586.46,469.9,588.96,470.07,591.46,470.07z"/>
		<path fill="#122D29" d="M186.23,211.32c0.34,3.93-1.61,5.77-5.24,5.83c-11.13,0.2-21.76,2.55-32.04,6.78
			c-3.63,1.5-6.82,0.38-8.29-3.24c-1.51-3.7,0.24-6.51,3.84-7.98c11.21-4.58,22.84-7.2,35-6.92
			C183.02,205.89,186.07,207.03,186.23,211.32z"/>
		<path fill="#122D29" d="M240.57,205.8c8.6,0.39,18.24,2.71,27.55,6.35c3.55,1.39,6.08,3.9,4.54,8.06
			c-1.48,3.98-4.81,4.94-8.57,3.49c-9.68-3.73-19.69-5.86-30.02-6.56c-3.36-0.23-6.02-1.54-5.86-5.32c0.16-3.86,2.42-6.02,6.45-6.02
			C236.15,205.8,237.64,205.8,240.57,205.8z"/>
		<path fill="#122D29" d="M246.63,116.83c6.17,1.22,12.4,2.21,18.49,3.74c3.47,0.87,6.02,3.34,5.11,7.34
			c-0.92,4.02-4.07,4.88-7.78,4.23c-5.72-1.01-11.44-1.99-17.14-3.07c-3.67-0.7-6.92-2.09-6.31-6.71
			C239.57,118,242.56,116.71,246.63,116.83z"/>
		<path fill="#122D29" d="M245.65,137.97c6.54,1.06,13.11,1.94,19.6,3.26c3.53,0.72,6.09,2.83,5.21,7.06
			c-0.92,4.41-3.86,5.23-7.88,4.5c-6.03-1.09-12.12-1.82-18.14-2.92c-3.61-0.66-6.21-2.61-5.58-6.82
			C239.43,139.22,241.93,137.8,245.65,137.97z"/>
		<path fill="#122D29" d="M918.29,354.19c1.21-0.2,2.26-0.77,2.92-1.76c3.11-4.64,5.7-2.55,8.68,0.33c4.51,4.35-1.03,5.62-2.23,8.22
			C922.9,360.98,921.24,356.7,918.29,354.19z"/>
		<path fill="#122D29" d="M850.74,459.25c-0.4,0.29-0.88,0.51-1.2,0.88c-3.47,4.06-6.62,4.01-9.49-0.55
			c-2.23-3.55,1.87-5.05,2.98-7.53C847.52,452.39,850.24,454.64,850.74,459.25z"/>
		<path fill="#122D29" d="M843.32,360.88c-2.77-2.69-5.85-5.16-1.32-9.12c3.56-3.1,4.58-3.14,7.15,0.89
			c0.42,0.66,1.13,1.13,1.7,1.68C850.08,358.51,847.43,360.54,843.32,360.88z"/>
		<path fill="#122D29" d="M927.54,452.19c4.84,5.83,4.61,5.6,0.32,9.79c-4.41,4.31-5.28-1.42-7.82-2.31
			C920.2,454.83,923.02,452.65,927.54,452.19z"/>
		<path fill="#122D29" d="M827.02,377.8c-0.58-2.27-5.1-2.19-3.18-6.17c2.6-5.38,4.91-5.6,10.98-0.35
			C833.59,375.09,831.89,378.35,827.02,377.8z"/>
		<path fill="#122D29" d="M943.8,436.12c3.75,4.19,4.01,6.92-0.08,9.83c-3.56,2.54-5.28-1.69-7.68-3.24
			C937.5,439.19,937.24,433.64,943.8,436.12z"/>
		<path fill="#122D29" d="M935.9,371.1c0.9-0.68,1.87-1.29,2.68-2.06c1.97-1.89,4.06-3.23,6.05-0.32c1.61,2.35,4.65,5.01,0.05,7.54
			C939.88,378.83,937.59,377.48,935.9,371.1z"/>
		<path fill="#122D29" d="M834.02,442.84c-4.45,5.18-6.44,5.15-9.56,0.15c-2.27-3.64,1.47-4.73,2.63-6.92
			C833.03,436.52,834.54,437.99,834.02,442.84z"/>
		<path fill="#122D29" d="M906.8,877.86c0,0.5,0,1,0,1.5c0.06,13.22-1.31,14.82-14.43,14.53c-4.87-0.11-6.76,1.43-6.28,6.22
			c0.22,2.14,0.06,4.33,0.02,6.49c-0.11,5.07-3.5,8.87-8.56,9.13c-4.65,0.24-9.33,0.2-13.99,0.02c-4.81-0.19-8.17-3.76-8.64-8.65
			c-0.39-4.12,1.64-9.31-0.92-12.09c-2.63-2.85-7.89-0.59-11.97-1.03c-4.72-0.5-7.63-3.21-7.84-7.98
			c-0.24-5.32-0.23-10.67,0.06-15.99c0.3-5.49,3.11-7.77,8.75-8.14c3.76-0.25,8.55,1.67,11.03-0.89c2.47-2.55,0.69-7.32,0.87-11.11
			c0.33-7.32,2.75-9.77,10.15-9.86c4-0.05,8-0.14,11.99,0.07c6.25,0.32,8.81,3.24,9.1,9.51c0.18,3.93-1.83,8.88,0.92,11.52
			c2.5,2.4,7.32,0.57,11.11,0.76c4.84,0.24,8.13,3.17,8.54,7.99c0.22,2.65,0.04,5.33,0.04,7.99
			C906.76,877.86,906.78,877.86,906.8,877.86z M867.02,861.98c-0.01,0-0.02,0-0.03,0c0,1.5,0.04,2.99-0.01,4.49
			c-0.2,6.53-1.06,7.39-7.64,7.51c-3.16,0.06-6.32,0.09-9.47-0.08c-3.71-0.19-2.68,2.4-2.83,4.4c-0.16,2.16-0.23,3.94,2.89,3.78
			c4.15-0.21,8.31-0.03,12.47-0.1c3.03-0.06,4.63,1.07,4.57,4.36c-0.09,4.48,0.24,8.98,0.07,13.46c-0.1,2.71,0.92,3.39,3.44,3.33
			c2.34-0.06,3.68-0.37,3.56-3.22c-0.18-4.31,0.09-8.64,0.1-12.96c0.01-3.31,1.68-4.87,4.89-4.89c3.66-0.02,7.32-0.09,10.97,0.09
			c2.79,0.13,4.37-0.38,4.05-3.75c-0.26-2.66-0.06-4.92-3.94-4.48c-3.28,0.37-6.64,0.06-9.97,0.07c-3.55,0.01-5.68-1.47-5.75-5.28
			c-0.07-4.15-0.38-8.31-0.21-12.45c0.12-2.9-0.89-3.63-3.68-3.62c-2.95,0.02-3.8,1.1-3.51,3.85
			C867.18,858.31,867.02,860.15,867.02,861.98z"/>
		<path fill="#FEFEFE" d="M589.97,930.79c-2.96,0.01-4.93-1.15-5.71-3.62c-0.83-2.62,0.94-4,3.07-4.9c2.29-0.97,4.64-1.81,6.95-2.74
			c1.63-0.65,3.39-1.17,4.43,0.65c0.9,1.58,1.48,3.78,0.17,5.2C596.4,928.06,593.43,930.23,589.97,930.79z"/>
		<path fill="#FEFEFE" d="M867.02,861.98c0-1.83,0.16-3.67-0.04-5.48c-0.29-2.74,0.56-3.83,3.51-3.85c2.8-0.01,3.8,0.71,3.68,3.62
			c-0.17,4.14,0.14,8.3,0.21,12.45c0.06,3.8,2.2,5.28,5.75,5.28c3.32-0.01,6.68,0.3,9.97-0.07c3.88-0.44,3.68,1.82,3.94,4.48
			c0.32,3.37-1.26,3.88-4.05,3.75c-3.65-0.17-7.31-0.1-10.97-0.09c-3.21,0.01-4.88,1.58-4.89,4.89c-0.01,4.32-0.28,8.65-0.1,12.96
			c0.12,2.85-1.22,3.16-3.56,3.22c-2.53,0.06-3.54-0.61-3.44-3.33c0.17-4.48-0.16-8.97-0.07-13.46c0.07-3.29-1.53-4.42-4.57-4.36
			c-4.16,0.08-8.32-0.11-12.47,0.1c-3.12,0.16-3.06-1.62-2.89-3.78c0.15-2-0.87-4.6,2.83-4.4c3.15,0.16,6.32,0.14,9.47,0.08
			c6.58-0.12,7.44-0.99,7.64-7.51c0.05-1.49,0.01-2.99,0.01-4.49C867,861.98,867.01,861.98,867.02,861.98z"/>
	</g>
</g>
</svg>
