<?xml version="1.0" encoding="utf-8"?>
<!-- Generator: Adobe Illustrator 27.8.0, SVG Export Plug-In . SVG Version: 6.00 Build 0)  -->
<svg version="1.1" id="Capa_1" xmlns="http://www.w3.org/2000/svg" xmlns:xlink="http://www.w3.org/1999/xlink" x="0px" y="0px"
	 viewBox="0 0 1024 1024" enable-background="new 0 0 1024 1024" xml:space="preserve">
<g>
	<g>
		<path fill="#FEFEFE" d="M0.09,512C0.09,342.86,0.11,173.73,0,4.59C0,0.84,0.84,0,4.59,0c338.27,0.1,676.54,0.1,1014.81,0
			c3.75,0,4.59,0.84,4.59,4.59c-0.1,338.27-0.1,676.54,0,1014.82c0,3.75-0.84,4.59-4.59,4.59c-338.27-0.1-676.54-0.1-1014.81,0
			c-3.75,0-4.6-0.84-4.59-4.59C0.11,850.27,0.09,681.14,0.09,512z M707.7,316.08c13.37-71.94,59.07-98.99,128.88-92.88
			c-1.23-1.29-2.43-2.65-3.74-3.9c-19.37-18.51-39.91-35.64-61.65-51.29c-36.24-26.08-75.65-46.1-117.81-60.68
			c-30.72-10.62-62.27-17.85-94.61-21.12c-25.7-2.6-51.43-2.53-77.24-0.48c-32.65,2.59-64.39,9.29-95.5,19.14
			c-27.95,8.86-54.76,20.49-80.21,35.11c-8.31,4.77-16.68,9.53-23.89,15.97c-1.33,0.06-2.66,0.18-3.99,0.18
			c-46.96,0.03-93.92,0.05-140.87,0.06c-15.34,0-24.81,9.06-24.83,24.22c-0.09,54.95-0.04,109.9-0.09,164.85
			c-0.01,10.23,1.23,20.22,4.87,29.84c10.61,28.05,33.47,48.39,64.48,50.04c22.8,1.21,45.61-0.25,68.42,0.02
			c1.14,2.51-1.12,3.25-2.42,4.23c-13.12,9.95-27.85,15.67-44.23,17.86c-39.96,5.35-77.62-13.19-97.39-48.31
			c-0.82-1.47-1.02-3.58-3.18-4.11c-39.29,130.4-13,309.97,121.14,430.33c-0.09,3.99-0.05,7.99-0.28,11.97
			c-1.48,25.4-2.77,50.81-4.66,76.18c-0.9,12.11,7.66,24.3,23.88,24.17c47.96-0.4,95.93,0.06,143.9,0.07
			c88.77,0.01,177.54-0.03,266.32-0.1c45.47-0.03,90.94-0.09,136.41-0.3c12.02-0.05,21.6-9.57,21.12-21.25
			c-0.72-17.27-2.11-34.52-3.12-51.78c-0.79-13.61-1.44-27.22-2.15-40.83c13.99-12.09,26.74-25.41,38.81-39.37
			c35.83-41.46,60.97-88.93,77.69-140.89c11.85-36.85,18.61-74.79,20.05-113.48c1.72-46.33-2.87-92.06-15.66-136.79
			c-1.92-6.71-3.72-13.45-5.81-20.11c-2.03-6.46-4.38-12.83-6.85-20.01c-0.72,2.36-1.14,3.8-1.59,5.23
			c-7.74,24.63-21.7,44.78-43.56,58.84c-24.31,15.64-50.98,19.41-78.97,13.67c-27.55-5.65-48.69-20.99-64.48-44.14
			c-5.57-8.17-9.04-17.29-13.24-26.1C708.88,345.57,708.02,330.85,707.7,316.08z M856.39,394.3c3.12-2.46,6.09-4.33,8.49-6.76
			c21.31-21.62,30.08-47.21,23.98-77.35c-8.96-44.27-56.2-72.97-99.02-60.2c-38.63,11.52-62.74,50.51-56.12,90.83
			c3.34,20.35,13.22,36.99,28.96,50.19c4,3.35,4.29,3.11,5.37-1.77c1.17-5.35,2.65-10.63,3.75-15.99
			c3.02-14.78,10.77-25.09,26.3-28.06c1.56-0.3,1.83-1.01,1.86-2.3c0.13-5.84,0.41-10.48-6.44-14.53
			c-20.93-12.4-20.51-44.52-0.04-57.45c16.13-10.19,36.65-5.42,46.99,10.93c9.98,15.78,5.15,37.82-11.45,47.37
			c-5.92,3.41-6.42,7.25-6.04,12.69c0.15,2.15,0.67,3.06,3.02,3.53c13.89,2.81,21.94,11.63,25.08,25.21
			C852.84,378.31,854.53,386.02,856.39,394.3z M810.45,407.54c8.15,0.04,14.81-1.23,21.43-2.81c2.47-0.59,3.11-1.56,2.35-4.09
			c-1.28-4.27-2.27-8.64-3.1-13.03c-0.44-2.33-1.16-2.63-3.27-1.71c-10.6,4.59-21.27,4.2-31.77-0.27c-2.46-1.05-3.12-0.39-3.58,1.86
			c-0.9,4.37-1.65,8.81-3.02,13.03c-0.97,3,0.32,3.68,2.66,4.41C798.54,406.92,805.14,407.26,810.45,407.54z"/>
		<path fill="#2B5741" d="M805.24,823.27c0.71,13.61,1.35,27.22,2.15,40.83c1.01,17.26,2.4,34.51,3.12,51.78
			c0.48,11.69-9.1,21.2-21.12,21.25c-45.47,0.2-90.94,0.26-136.41,0.3c-88.77,0.07-177.54,0.11-266.32,0.1
			c-47.97-0.01-95.93-0.47-143.9-0.07c-16.22,0.14-24.79-12.05-23.88-24.17c1.9-25.37,3.18-50.78,4.66-76.18
			c0.23-3.98,0.2-7.98,0.28-11.97c1.13-10.55,1.83-21.12,2.41-31.71c0.79-14.35,2.6-28.64,3.68-42.98
			c1.22-16.17,1.71-32.3,6.06-48.19c8.47-30.94,22.16-58.89,44.01-82.57c2.47-2.68,1.95-4.13-0.26-6.55
			c-8.66-9.45-13.56-20.72-14.71-33.47c-1.34-14.94,2.48-28.61,11.2-40.8c2.31-3.23,1.7-4.83-1.39-7.17
			c-7.38-5.58-15.4-10.39-21.78-17.26c-6.01-6.47-7.63-16.86,0.29-23.39c3.21-2.65,6.49-5.11,10.07-7.27
			c8.79-5.31,18.19-9.71,25.91-16.65c11.71-10.52,16.01-24.85,19.97-39.35c0.91-3.33-1.26-2.76-2.97-2.76
			c-18.81,0.01-37.62,0.07-56.43,0.11c-22.81-0.27-45.62,1.19-68.42-0.02c-31.02-1.65-53.88-21.99-64.48-50.04
			c-3.64-9.62-4.88-19.6-4.87-29.84c0.05-54.95,0-109.9,0.09-164.85c0.02-15.16,9.49-24.21,24.83-24.22
			c46.96-0.01,93.92-0.03,140.87-0.06c1.33,0,2.66-0.12,3.99-0.18c8.66,0.06,17.32,0.09,25.97,0.2
			c10.44,0.13,20.81,9.64,21.16,19.51c0.31,8.8,0.46,17.61,0.7,26.41c0.57,20.98,0.37,41.98,0.06,62.97
			c-0.09,6.02-1.25,12,0.77,18.22c1.52-5.16,2.46-10.26,4.48-14.89c10.17-23.33,21.41-46.01,38.35-65.45
			c13.78-15.81,29.36-29.4,47.58-39.66c19.37-10.9,40.06-18.04,62.21-21.64c22.6-3.68,44.95-3.62,67.28,0.61
			c36.7,6.95,68.63,23.46,94.95,50.01c16.77,16.92,30.21,36.27,40.34,58.04c9.26,19.88,15.89,40.4,19.28,62.03
			c0.25,1.6,0.58,3.36,2.65,3.79c0.33,14.77,1.18,29.49,3.93,44.05c-1.17,1.48-0.71,3.22-0.63,4.82
			c0.58,11.25,2.62,22.33,3.81,33.51c1.53,14.39,4.04,28.52,8.86,42.21c5.07,14.4,13.07,26.29,26.93,33.77
			c7.86,4.24,15.44,9.04,22.95,13.89c10.43,6.75,11.45,18.14,2.68,26.86c-6.16,6.11-13.36,10.95-20.35,15.95
			c-3.98,2.85-3.71,4.54-1.26,8.11c15.55,22.7,15.8,51.02-3.5,73.07c-2.86,3.27-2.01,5.84,0.47,8.64
			c12.97,14.65,23.26,31.01,31.34,48.82c7.68,16.92,13.48,34.71,15.41,52.9c2.22,20.99,3.23,42.21,4.58,63.35
			C803.7,798.45,804.46,810.86,805.24,823.27z M401.56,575.93c3.76-2.95,7.66-5.06,12.06-4.89c8.27,0.33,13.68-4.14,18.54-9.95
			c8.63-10.31,10.63-22.96,12.99-35.58c0.74-3.98-0.44-6.25-3.11-9c-40.5-41.79-61-91.49-58.9-150.04
			c0.4-11.27,4.24-16.76,13.22-18.22c7.86-1.27,15.69-2.59,23.48-4.26c43.94-9.43,78.78-31.66,101.23-71.52
			c2.97-5.28,6.96-9.65,13.65-9.33c6.59,0.31,10.16,4.62,12.72,10.37c16.72,37.6,43.96,63.09,84.53,73.28
			c11.09,2.79,14.63,7.42,14.95,18.58c0.78,27.51-2.24,54.38-12.71,80.17c-10.48,25.82-23.84,49.71-44.22,69.1
			c-3.81,3.63-5.4,7.05-4.18,12.5c2.25,10.06,3.71,20.39,9.43,29.17c5.09,7.81,10.7,15.37,21.87,14.79
			c3.26-0.17,6.46,1.45,9.08,3.66c2.01,1.7,2.83,1.02,3.71-1.26c3.73-9.71,10.91-13.81,21.19-11.87
			c24.46,4.62,45.71,15.62,63.71,32.81c6.09,5.81,6.05,5.86,11.38-0.92c10.31-13.1,10.44-24.85,0.7-38.26
			c-3.26-4.5-7.3-8.16-11.24-11.99c-8.7-8.46-8.09-16.59,1.64-23.72c5.9-4.32,11.72-8.77,17.51-13.24c2.19-1.7,2.77-3.47-0.23-5.16
			c-2.31-1.3-4.52-2.81-6.68-4.35c-18.59-13.28-29.04-32.14-35.72-53.3c-8.92-28.26-10.5-57.73-13.19-86.98
			c-1.26-13.73-2.35-27.49-4.63-41.1c-4.46-26.55-13.65-51.27-28.66-73.71c-19.91-29.79-46.19-51.59-80.23-63.52
			c-19.38-6.79-39.33-9.31-59.86-8.23c-28.96,1.51-55.55,10.18-79.16,26.84c-33.64,23.73-54.37,56.75-66.42,95.62
			c-8.4,27.11-9.78,55.23-11.82,83.25c-1.52,20.94-3.85,41.8-9.38,62.06c-7.09,25.97-18.91,49.04-43.51,63.06
			c-3.38,1.93-2.28,3.38-0.06,5.05c6.22,4.71,12.42,9.44,18.71,14.06c8.5,6.24,9.4,14.43,2.16,21.99c-2.64,2.76-5.67,5.14-8.29,7.92
			c-12.89,13.69-14.76,27.29-5.65,40.44c0.94,1.36,2,2.65,2.99,3.98c4.22,5.64,4.34,5.72,9.29,0.73
			c16.76-16.92,37.26-27.04,60.07-32.74C388.96,558.63,396.75,562.71,401.56,575.93z M401.09,597.54c-0.37,0.16-0.74,0.31-1.11,0.47
			c0,1.79,0.01,3.57,0,5.36c-0.16,42.82-0.22,85.65-0.52,128.47c-0.11,15.42,0.98,31.03-4.16,45.95c-1.78,5.15-1.29,9.19,1.68,13.76
			c7.74,11.91,9.87,24.96,7.29,39.03c-1.22,6.67-4.29,12.89-4.24,19.85c0.11,16.5,0.11,32.99-0.07,49.49
			c-0.04,3.64,0.56,5.05,4.75,5.04c73.49-0.15,146.97-0.16,220.46-0.01c4.24,0.01,4.91-1.42,4.86-5.13
			c-0.18-14.83-0.23-29.66-0.01-44.49c0.08-5.59-0.67-10.93-2.44-16.15c-6.07-17.91-4.03-34.71,6.81-50.27
			c1.57-2.26,1.93-4.28,1.16-6.95c-3.11-10.76-4.46-21.78-4.47-32.99c-0.03-48.99-0.09-97.98-0.15-146.97
			c0-1.72-0.16-3.44-0.25-5.17c-0.33-0.25-0.66-0.5-0.99-0.74c-23.22,47.61-60.38,74.39-113.71,74.89
			C462.25,671.49,424.78,645.02,401.09,597.54z M615.32,385.45c0-1.5-0.24-3.05,0.04-4.49c0.95-4.73-1.23-6.7-5.6-8.03
			c-11.97-3.62-23.07-9.24-33.57-16c-17.07-10.99-30.3-25.82-41.69-42.39c-2.09-3.04-3.09-2.91-5.24-0.09
			c-14.2,18.58-32.32,32.28-53.16,42.7c-18.28,9.14-37.65,14.68-57.6,18.46c-2.7,0.51-3.44,1.5-3.5,4.12
			c-0.25,10.04,0.72,19.93,3.11,29.67c8.64,35.2,24.16,66.38,52.81,89.79c12.5,10.22,26.48,17.09,42.94,17.72
			c19.13,0.73,35.13-7.1,48.66-19.66C594.99,467.16,611.17,429.1,615.32,385.45z M221.31,187.08c0,0.01,0,0.02,0,0.04
			c-24.48,0-48.96,0.05-73.43-0.07c-3.11-0.01-4.46,0.65-4.46,4.04c0.03,28.47-0.04,56.95-0.16,85.42
			c-0.01,3.01,0.62,4.44,4.14,4.44c48.96-0.12,97.91-0.13,146.87-0.05c3.42,0.01,4.73-0.94,4.63-4.52
			c-0.28-9.99-0.23-19.98-0.33-29.97c-0.03-2.66,0.82-6.04-0.49-7.79c-1.71-2.3-4.71,0.65-7.31,0.64
			c-27.31-0.11-54.62-0.02-81.93-0.04c-4.57,0-7.82-2.36-9.97-6.31c-5.78-10.61,0.86-21.83,13-21.85
			c24.98-0.05,49.96-0.01,74.93-0.08c3.04-0.01,6.08,0.13,8.74,1.5c2.8,1.44,3.42,0.74,3.35-2.14c-0.17-6.16-0.4-12.33-0.09-18.48
			c0.21-4.05-1.22-4.91-5.04-4.88C269.6,187.16,245.46,187.08,221.31,187.08z M474.32,538.62c-0.55,2.31-1.03,4.2-1.44,6.12
			c-4.24,19.81-12.81,36.9-30.29,48.44c-5.84,3.85-5.83,3.86-1.73,9.53c0.19,0.27,0.39,0.54,0.59,0.8
			c37.45,48.37,109.31,48.81,147.16,0.92c5.25-6.64,5.33-6.75-1.36-11.55c-17.05-12.23-25.97-29.45-29.91-49.46
			c-0.99-5.03-2.81-4.52-6.13-2.97c-14.06,6.56-28.94,8.45-44.23,7.32C495.66,546.94,484.85,543.87,474.32,538.62z M729.02,645.65
			c-0.17,1.66-0.29,2.31-0.3,2.96c-0.19,33.13-0.4,66.26-0.51,99.38c-0.03,8.18-0.71,16.28-2.88,24.16c-1,3.63-0.24,6.11,2.33,8.86
			c10.98,11.78,16.58,25.63,16.39,41.99c-0.3,25.8-0.01,51.61-0.14,77.42c-0.02,3.32,0.6,4.66,4.28,4.54
			c8.48-0.29,16.98-0.26,25.47-0.03c3.54,0.1,4.63-1.01,4.4-4.51c-0.93-13.77-1.52-27.56-2.48-41.33
			c-2.14-30.52-4.31-61.03-6.7-91.53c-1.26-16.07-1.13-32.28-3.92-48.2C760.11,691.76,748.21,667.5,729.02,645.65z M301.48,646.82
			c-10.22,8.31-16.61,18.85-22.23,29.54c-11.49,21.89-16.16,45.67-17.21,70.34c-0.9,20.94-2.36,41.87-4.22,62.74
			c-2.73,30.49-4.04,61.07-6.64,91.56c-0.26,3.08,0.58,4.04,3.74,3.95c8.32-0.22,16.67-0.36,24.98,0.03
			c4.42,0.21,5.65-1.07,5.61-5.47c-0.24-23.98,0.07-47.97-0.31-71.94c-0.29-18.32,4.71-34.43,17.65-47.67
			c1.89-1.94,2.13-3.64,1.45-6.19c-2.57-9.7-3.22-19.62-3.15-29.64c0.2-27.82,0.24-55.64,0.33-83.46
			C301.49,656.01,301.48,651.41,301.48,646.82z M712.68,860.89c0.01,0,0.01,0,0.02,0c0-12.16,0.01-24.31,0-36.47
			c-0.02-18.57-12.61-30.55-31.12-29.49c-16.36,0.94-29.27,18.81-22.85,32.21c2.45,5.11,2.56,10.88,2.51,16.59
			c-0.16,18.82,0,37.63-0.18,56.45c-0.03,3.58,0.68,4.85,4.61,4.78c13.82-0.28,27.65-0.36,41.46,0.04c4.7,0.14,5.62-1.66,5.59-5.64
			C712.61,886.53,712.68,873.71,712.68,860.89z M317.78,860.45c0.04,0,0.09,0,0.13,0c0,13.48,0.1,26.95-0.07,40.43
			c-0.04,3.27,0.92,4.14,4.19,4.09c13.64-0.2,27.29-0.37,40.93,0.05c4.73,0.14,5.51-1.7,5.51-5.59c0.05-19.12,0.31-38.23,0.29-57.35
			c-0.01-5.55,0.84-10.77,2.94-15.91c2.43-5.94,1.53-11.74-1.6-17.23c-6.31-11.07-19.35-16.68-31.58-13.61
			c-12.03,3.02-20.51,13.74-20.69,26.68C317.63,834.83,317.78,847.64,317.78,860.45z M333.98,690.26c-0.14,0-0.27,0-0.41,0
			c0,3.66-0.03,7.33,0,10.99c0.18,19.31,0.34,38.63,0.61,57.94c0.03,2.23-0.7,5.46,3.7,4.47c7.83-1.76,15.59-0.87,23.08,1.65
			c3.88,1.31,4.84,0.35,5.17-3.56c1.35-16.1,1.53-32.22,1.61-48.35c0.06-13.81-0.19-27.63-0.17-41.44
			c0.02-22.98,0.18-45.95,0.22-68.93c0.01-5.59-0.18-5.76-5.44-3.19c-8.82,4.31-17.05,9.62-24.99,15.42
			c-2.57,1.88-3.48,3.87-3.46,7.05C334.05,644.96,333.98,667.61,333.98,690.26z M662.77,676.8c0,15.16-0.08,30.31,0.03,45.47
			c0.09,13.14,0.04,26.29,1.17,39.41c0.27,3.11,0.39,4.91,4.56,3.46c6.79-2.35,14-2.75,21.18-2.11c6.67,0.6,6.66,0.71,6.99-6.13
			c0.03-0.67,0.13-1.33,0.13-1.99c0.06-44.3,0.11-88.6,0.2-132.9c0-1.94-0.36-3.33-2.13-4.6c-8.79-6.28-17.88-12.03-27.4-17.16
			c-4.13-2.22-4.82-1.06-4.8,3.11C662.83,627.83,662.76,652.31,662.77,676.8z M221.28,362.06c-6.32,0-12.65,0-18.97,0
			c-18.31-0.02-36.62,0.06-54.92-0.14c-3.45-0.04-3.9,1.29-3.53,4.11c0.21,1.6,0.95,2.82,1.94,3.93
			c6.31,7.05,12.7,14.04,18.98,21.13c1.81,2.04,3.87,2.71,6.58,2.68c12.98-0.14,25.96-0.09,38.94-0.11
			c27.79-0.04,55.59-0.17,83.38-0.03c4.26,0.02,5.38-1.39,5.21-5.42c-0.3-7.14-0.33-14.32-0.04-21.46c0.15-3.72-0.88-4.79-4.67-4.77
			C269.88,362.16,245.58,362.07,221.28,362.06z M220.98,309.08c-24.47,0-48.94,0.06-73.41-0.07c-3.23-0.02-4.44,0.77-4.28,4.12
			c0.25,5.32,0.17,10.65,0.08,15.98c-0.06,3.4,1.27,4.54,4.77,4.5c16.81-0.18,33.62-0.11,50.44-0.1
			c31.63,0.02,63.26-0.03,94.88,0.22c4.53,0.04,5.81-1.34,5.44-5.63c-0.41-4.8-0.46-9.65-0.29-14.47c0.12-3.58-0.88-4.69-4.71-4.66
			C269.59,309.18,245.28,309.08,220.98,309.08z"/>
		<path fill="#5A9B5B" d="M805.24,823.27c-0.78-12.41-1.54-24.82-2.34-37.23c-1.35-21.13-2.36-42.35-4.58-63.35
			c-1.93-18.19-7.73-35.98-15.41-52.9c-8.08-17.82-18.37-34.17-31.34-48.82c-2.48-2.8-3.34-5.37-0.47-8.64
			c19.3-22.05,19.06-50.37,3.5-73.07c-2.45-3.57-2.72-5.27,1.26-8.11c6.99-5,14.2-9.83,20.35-15.95c8.78-8.72,7.75-20.12-2.68-26.86
			c-7.51-4.85-15.09-9.65-22.95-13.89c-13.86-7.48-21.86-19.38-26.93-33.77c-4.82-13.69-7.33-27.82-8.86-42.21
			c-1.19-11.18-3.23-22.26-3.81-33.51c-0.08-1.6-0.54-3.34,0.63-4.82c4.2,8.8,7.67,17.93,13.24,26.1
			c15.78,23.15,36.92,38.49,64.48,44.14c27.99,5.74,54.66,1.97,78.97-13.67c21.86-14.06,35.82-34.21,43.56-58.84
			c0.45-1.43,0.87-2.86,1.59-5.23c2.47,7.18,4.82,13.55,6.85,20.01c2.09,6.65,3.9,13.4,5.81,20.11
			c12.78,44.73,17.38,90.46,15.66,136.79c-1.44,38.69-8.2,76.62-20.05,113.48c-16.71,51.96-41.85,99.43-77.69,140.89
			C831.98,797.86,819.22,811.18,805.24,823.27z"/>
		<path fill="#5A9B5B" d="M249.9,425.15c18.81-0.04,37.62-0.1,56.43-0.11c1.71,0,3.88-0.57,2.97,2.76
			c-3.96,14.51-8.26,28.83-19.97,39.35c-7.72,6.94-17.12,11.34-25.91,16.65c-3.57,2.16-6.85,4.62-10.07,7.27
			c-7.92,6.53-6.3,16.92-0.29,23.39c6.38,6.87,14.39,11.67,21.78,17.26c3.09,2.34,3.71,3.93,1.39,7.17
			c-8.72,12.19-12.54,25.86-11.2,40.8c1.15,12.75,6.05,24.01,14.71,33.47c2.21,2.42,2.73,3.87,0.26,6.55
			c-21.85,23.67-35.55,51.62-44.01,82.57c-4.35,15.89-4.84,32.02-6.06,48.19c-1.08,14.34-2.89,28.63-3.68,42.98
			c-0.58,10.6-1.28,21.17-2.41,31.71C89.69,704.78,63.4,525.22,102.69,394.82c2.16,0.53,2.35,2.65,3.18,4.11
			c19.76,35.12,57.43,53.66,97.39,48.31c16.37-2.19,31.11-7.91,44.23-17.86C248.78,428.39,251.05,427.66,249.9,425.15z"/>
		<path fill="#5A9B5B" d="M707.7,316.08c-2.07-0.43-2.4-2.18-2.65-3.79c-3.38-21.63-10.02-42.14-19.28-62.03
			c-10.14-21.77-23.57-41.12-40.34-58.04c-26.32-26.55-58.26-43.06-94.95-50.01c-22.33-4.23-44.68-4.29-67.28-0.61
			c-22.14,3.6-42.83,10.74-62.21,21.64c-18.23,10.26-33.81,23.84-47.58,39.66c-16.94,19.45-28.18,42.13-38.35,65.45
			c-2.02,4.63-2.96,9.74-4.48,14.89c-2.02-6.21-0.86-12.2-0.77-18.22c0.31-20.99,0.51-41.99-0.06-62.97
			c-0.24-8.8-0.39-17.61-0.7-26.41c-0.35-9.87-10.72-19.38-21.16-19.51c-8.66-0.11-17.32-0.14-25.97-0.2
			c7.22-6.44,15.59-11.2,23.89-15.97c25.45-14.62,52.26-26.25,80.21-35.11c31.11-9.86,62.85-16.56,95.5-19.14
			c25.81-2.05,51.54-2.12,77.24,0.48c32.35,3.27,63.89,10.5,94.61,21.12c42.16,14.58,81.57,34.6,117.81,60.68
			c21.75,15.65,42.28,32.78,61.65,51.29c1.31,1.25,2.51,2.61,3.74,3.9C766.77,217.09,721.07,244.13,707.7,316.08z"/>
		<path fill="#2B5741" d="M856.39,394.3c-1.86-8.29-3.54-15.99-5.32-23.67c-3.14-13.58-11.19-22.4-25.08-25.21
			c-2.34-0.47-2.87-1.38-3.02-3.53c-0.38-5.44,0.12-9.28,6.04-12.69c16.6-9.55,21.43-31.59,11.45-47.37
			c-10.34-16.35-30.86-21.13-46.99-10.93c-20.47,12.94-20.88,45.06,0.04,57.45c6.84,4.05,6.57,8.69,6.44,14.53
			c-0.03,1.29-0.29,2-1.86,2.3c-15.53,2.97-23.28,13.27-26.3,28.06c-1.1,5.36-2.58,10.65-3.75,15.99c-1.07,4.89-1.37,5.13-5.37,1.77
			c-15.74-13.19-25.62-29.84-28.96-50.19c-6.62-40.32,17.49-79.31,56.12-90.83c42.83-12.77,90.07,15.93,99.02,60.2
			c6.1,30.14-2.67,55.73-23.98,77.35C862.48,389.97,859.51,391.84,856.39,394.3z"/>
		<path fill="#2B5741" d="M810.45,407.54c-5.31-0.29-11.91-0.62-18.32-2.61c-2.34-0.72-3.63-1.41-2.66-4.41
			c1.37-4.23,2.12-8.66,3.02-13.03c0.46-2.24,1.12-2.9,3.58-1.86c10.5,4.47,21.17,4.86,31.77,0.27c2.12-0.92,2.84-0.62,3.27,1.71
			c0.83,4.38,1.82,8.76,3.1,13.03c0.76,2.53,0.12,3.5-2.35,4.09C825.26,406.32,818.6,407.58,810.45,407.54z"/>
		<path fill="#FEFEFE" d="M401.56,575.93c-4.81-13.22-12.59-17.29-27.02-13.68c-22.8,5.71-43.31,15.82-60.07,32.74
			c-4.95,4.99-5.07,4.91-9.29-0.73c-0.99-1.33-2.05-2.61-2.99-3.98c-9.11-13.16-7.25-26.75,5.65-40.44
			c2.62-2.78,5.65-5.16,8.29-7.92c7.23-7.55,6.34-15.74-2.16-21.99c-6.29-4.62-12.49-9.35-18.71-14.06
			c-2.22-1.68-3.32-3.12,0.06-5.05c24.6-14.02,36.42-37.09,43.51-63.06c5.53-20.26,7.86-41.12,9.38-62.06
			c2.04-28.01,3.42-56.14,11.82-83.25c12.05-38.88,32.78-71.9,66.42-95.62c23.61-16.66,50.2-25.32,79.16-26.84
			c20.52-1.07,40.48,1.44,59.86,8.23c34.05,11.93,60.32,33.74,80.23,63.52c15,22.44,24.2,47.16,28.66,73.71
			c2.29,13.62,3.37,27.37,4.63,41.1c2.69,29.25,4.26,58.71,13.19,86.98c6.68,21.16,17.13,40.02,35.72,53.3
			c2.16,1.54,4.37,3.05,6.68,4.35c3,1.69,2.43,3.46,0.23,5.16c-5.79,4.47-11.6,8.92-17.51,13.24c-9.72,7.12-10.34,15.26-1.64,23.72
			c3.93,3.82,7.97,7.49,11.24,11.99c9.74,13.41,9.61,25.16-0.7,38.26c-5.33,6.77-5.29,6.73-11.38,0.92
			c-18.01-17.2-39.25-28.19-63.71-32.81c-10.29-1.94-17.46,2.16-21.19,11.87c-0.88,2.28-1.7,2.96-3.71,1.26
			c-2.62-2.21-5.82-3.83-9.08-3.66c-11.17,0.59-16.77-6.97-21.87-14.79c-5.72-8.78-7.18-19.11-9.43-29.17
			c-1.22-5.46,0.37-8.87,4.18-12.5c20.38-19.39,33.74-43.29,44.22-69.1c10.47-25.79,13.49-52.66,12.71-80.17
			c-0.32-11.17-3.85-15.79-14.95-18.58c-40.57-10.2-67.8-35.68-84.53-73.28c-2.55-5.74-6.13-10.06-12.72-10.37
			c-6.69-0.32-10.67,4.05-13.65,9.33c-22.45,39.85-57.29,62.09-101.23,71.52c-7.79,1.67-15.62,2.99-23.48,4.26
			c-8.99,1.45-12.82,6.94-13.22,18.22c-2.1,58.54,18.4,108.25,58.9,150.04c2.67,2.75,3.86,5.02,3.11,9
			c-2.36,12.62-4.37,25.27-12.99,35.58c-4.86,5.81-10.27,10.28-18.54,9.95C409.21,570.87,405.32,572.97,401.56,575.93z"/>
		<path fill="#FEFEFE" d="M401.09,597.54c23.7,47.47,61.16,73.95,114.88,73.44c53.33-0.5,90.5-27.28,113.71-74.89
			c0.33,0.25,0.66,0.5,0.99,0.74c0.09,1.72,0.25,3.44,0.25,5.17c0.06,48.99,0.11,97.98,0.15,146.97c0.01,11.2,1.36,22.23,4.47,32.99
			c0.77,2.67,0.41,4.7-1.16,6.95c-10.85,15.57-12.89,32.37-6.81,50.27c1.77,5.22,2.53,10.56,2.44,16.15
			c-0.22,14.83-0.17,29.66,0.01,44.49c0.04,3.71-0.62,5.14-4.86,5.13c-73.49-0.15-146.97-0.14-220.46,0.01
			c-4.19,0.01-4.79-1.39-4.75-5.04c0.18-16.5,0.18-32.99,0.07-49.49c-0.05-6.96,3.02-13.18,4.24-19.85
			c2.58-14.07,0.45-27.12-7.29-39.03c-2.97-4.58-3.46-8.61-1.68-13.76c5.14-14.91,4.05-30.53,4.16-45.95
			c0.3-42.82,0.36-85.65,0.52-128.47c0.01-1.79,0-3.57,0-5.36C400.35,597.86,400.72,597.7,401.09,597.54z"/>
		<path fill="#FEFEFE" d="M615.32,385.45c-4.15,43.65-20.33,81.7-52.8,111.83c-13.53,12.55-29.54,20.39-48.66,19.66
			c-16.46-0.63-30.43-7.5-42.94-17.72c-28.65-23.42-44.17-54.6-52.81-89.79c-2.39-9.74-3.36-19.63-3.11-29.67
			c0.07-2.62,0.8-3.61,3.5-4.12c19.95-3.78,39.32-9.33,57.6-18.46c20.84-10.42,38.96-24.12,53.16-42.7
			c2.15-2.82,3.16-2.95,5.24,0.09c11.39,16.57,24.62,31.4,41.69,42.39c10.5,6.76,21.6,12.38,33.57,16c4.37,1.32,6.54,3.3,5.6,8.03
			C615.08,382.41,615.32,383.96,615.32,385.45z"/>
		<path fill="#FEFEFE" d="M221.31,187.08c24.15,0,48.29,0.08,72.44-0.09c3.82-0.03,5.25,0.83,5.04,4.88
			c-0.31,6.14-0.07,12.32,0.09,18.48c0.08,2.88-0.55,3.58-3.35,2.14c-2.66-1.37-5.7-1.51-8.74-1.5
			c-24.98,0.07-49.96,0.03-74.93,0.08c-12.14,0.02-18.78,11.24-13,21.85c2.15,3.95,5.4,6.3,9.97,6.31
			c27.31,0.02,54.62-0.08,81.93,0.04c2.61,0.01,5.6-2.94,7.31-0.64c1.3,1.75,0.46,5.13,0.49,7.79c0.11,9.99,0.06,19.98,0.33,29.97
			c0.1,3.58-1.21,4.53-4.63,4.52c-48.96-0.07-97.91-0.07-146.87,0.05c-3.52,0.01-4.15-1.42-4.14-4.44
			c0.12-28.47,0.2-56.95,0.16-85.42c0-3.4,1.35-4.06,4.46-4.04c24.48,0.12,48.96,0.07,73.43,0.07
			C221.31,187.1,221.31,187.09,221.31,187.08z M168.14,208.04c-9.75,0.03-17.07,7.6-16.97,17.55c0.09,8.26,8.21,16.25,16.45,16.18
			c9.27-0.09,17.29-7.96,17.39-17.06C185.11,215.9,177.12,208.01,168.14,208.04z"/>
		<path fill="#FEFEFE" d="M474.32,538.62c10.53,5.25,21.34,8.32,32.67,9.15c15.29,1.13,30.17-0.76,44.23-7.32
			c3.32-1.55,5.14-2.06,6.13,2.97c3.94,20.01,12.86,37.23,29.91,49.46c6.69,4.8,6.61,4.91,1.36,11.55
			c-37.85,47.89-109.71,47.45-147.16-0.92c-0.2-0.26-0.4-0.53-0.59-0.8c-4.1-5.67-4.11-5.68,1.73-9.53
			c17.48-11.53,26.04-28.63,30.29-48.44C473.29,542.83,473.77,540.93,474.32,538.62z"/>
		<path fill="#FEFEFE" d="M729.02,645.65c19.19,21.86,31.09,46.11,35.93,73.72c2.79,15.92,2.67,32.13,3.92,48.2
			c2.39,30.5,4.56,61.01,6.7,91.53c0.96,13.77,1.55,27.56,2.48,41.33c0.24,3.5-0.86,4.61-4.4,4.51c-8.48-0.23-16.99-0.26-25.47,0.03
			c-3.68,0.12-4.29-1.21-4.28-4.54c0.12-25.81-0.17-51.62,0.14-77.42c0.19-16.36-5.41-30.21-16.39-41.99
			c-2.57-2.75-3.33-5.24-2.33-8.86c2.17-7.88,2.86-15.98,2.88-24.16c0.11-33.13,0.33-66.26,0.51-99.38
			C728.72,647.96,728.85,647.31,729.02,645.65z"/>
		<path fill="#FEFEFE" d="M301.48,646.82c0,4.59,0.01,9.19,0,13.79c-0.1,27.82-0.13,55.64-0.33,83.46
			c-0.07,10.02,0.58,19.94,3.15,29.64c0.68,2.55,0.45,4.25-1.45,6.19c-12.94,13.25-17.94,29.36-17.65,47.67
			c0.38,23.98,0.07,47.96,0.31,71.94c0.04,4.4-1.18,5.68-5.61,5.47c-8.31-0.39-16.66-0.25-24.98-0.03c-3.16,0.08-4-0.87-3.74-3.95
			c2.6-30.49,3.91-61.07,6.64-91.56c1.87-20.87,3.33-41.8,4.22-62.74c1.06-24.67,5.72-48.45,17.21-70.34
			C284.86,665.66,291.26,655.12,301.48,646.82z"/>
		<path fill="#FEFEFE" d="M712.68,860.89c0,12.82-0.06,25.64,0.04,38.47c0.03,3.98-0.89,5.77-5.59,5.64
			c-13.81-0.4-27.64-0.31-41.46-0.04c-3.93,0.08-4.65-1.2-4.61-4.78c0.18-18.81,0.03-37.63,0.18-56.45
			c0.05-5.72-0.07-11.48-2.51-16.59c-6.42-13.4,6.49-31.27,22.85-32.21c18.51-1.06,31.1,10.92,31.12,29.49
			c0.01,12.16,0,24.31,0,36.47C712.69,860.89,712.68,860.89,712.68,860.89z"/>
		<path fill="#FEFEFE" d="M317.78,860.45c0-12.81-0.15-25.63,0.04-38.43c0.19-12.95,8.66-23.66,20.69-26.68
			c12.23-3.07,25.27,2.54,31.58,13.61c3.13,5.49,4.03,11.28,1.6,17.23c-2.1,5.13-2.95,10.36-2.94,15.91
			c0.02,19.12-0.24,38.23-0.29,57.35c-0.01,3.9-0.78,5.74-5.51,5.59c-13.63-0.42-27.28-0.25-40.93-0.05
			c-3.27,0.05-4.23-0.82-4.19-4.09c0.17-13.47,0.07-26.95,0.07-40.43C317.86,860.45,317.82,860.45,317.78,860.45z"/>
		<path fill="#FEFEFE" d="M333.98,690.26c0-22.65,0.07-45.3-0.08-67.94c-0.02-3.18,0.89-5.17,3.46-7.05
			c7.94-5.8,16.16-11.1,24.99-15.42c5.26-2.57,5.45-2.4,5.44,3.19c-0.04,22.98-0.19,45.95-0.22,68.93
			c-0.01,13.81,0.24,27.63,0.17,41.44c-0.07,16.13-0.25,32.26-1.61,48.35c-0.33,3.92-1.29,4.87-5.17,3.56
			c-7.49-2.52-15.25-3.41-23.08-1.65c-4.4,0.99-3.67-2.25-3.7-4.47c-0.27-19.31-0.43-38.63-0.61-57.94c-0.03-3.66,0-7.33,0-10.99
			C333.71,690.26,333.85,690.26,333.98,690.26z"/>
		<path fill="#FEFEFE" d="M662.77,676.8c0-24.48,0.06-48.96-0.07-73.45c-0.02-4.17,0.67-5.33,4.8-3.11
			c9.52,5.13,18.61,10.88,27.4,17.16c1.77,1.27,2.13,2.65,2.13,4.6c-0.09,44.3-0.14,88.6-0.2,132.9c0,0.66-0.1,1.33-0.13,1.99
			c-0.33,6.84-0.32,6.73-6.99,6.13c-7.17-0.64-14.38-0.24-21.18,2.11c-4.18,1.44-4.29-0.35-4.56-3.46
			c-1.13-13.12-1.08-26.27-1.17-39.41C662.69,707.11,662.77,691.95,662.77,676.8z"/>
		<path fill="#FEFEFE" d="M221.28,362.07c24.3,0,48.6,0.09,72.89-0.08c3.8-0.03,4.82,1.05,4.67,4.77
			c-0.29,7.14-0.26,14.32,0.04,21.46c0.17,4.03-0.95,5.44-5.21,5.42c-27.79-0.14-55.59-0.01-83.38,0.03
			c-12.98,0.02-25.96-0.03-38.94,0.11c-2.71,0.03-4.77-0.63-6.58-2.68c-6.28-7.08-12.66-14.07-18.98-21.13
			c-0.99-1.11-1.73-2.33-1.94-3.93c-0.37-2.82,0.08-4.15,3.53-4.11c18.3,0.2,36.61,0.13,54.92,0.14
			C208.63,362.07,214.96,362.06,221.28,362.07z"/>
		<path fill="#FEFEFE" d="M220.98,309.08c24.3,0,48.61,0.1,72.91-0.11c3.83-0.03,4.84,1.08,4.71,4.66
			c-0.17,4.82-0.11,9.67,0.29,14.47c0.36,4.29-0.91,5.67-5.44,5.63c-31.63-0.25-63.25-0.2-94.88-0.22
			c-16.81-0.01-33.63-0.08-50.44,0.1c-3.5,0.04-4.83-1.11-4.77-4.5c0.09-5.32,0.17-10.66-0.08-15.98c-0.16-3.35,1.05-4.13,4.28-4.12
			C172.04,309.14,196.51,309.08,220.98,309.08z"/>
		<path fill="#2B5741" d="M168.14,208.04c8.98-0.03,16.97,7.86,16.87,16.67c-0.1,9.1-8.12,16.97-17.39,17.06
			c-8.24,0.08-16.36-7.92-16.45-16.18C151.07,215.64,158.39,208.07,168.14,208.04z"/>
	</g>
</g>
</svg>
