<?xml version="1.0" encoding="utf-8"?>
<!-- Generator: Adobe Illustrator 27.8.0, SVG Export Plug-In . SVG Version: 6.00 Build 0)  -->
<svg version="1.1" id="Capa_1" xmlns="http://www.w3.org/2000/svg" xmlns:xlink="http://www.w3.org/1999/xlink" x="0px" y="0px"
	 viewBox="0 0 1024 1024" enable-background="new 0 0 1024 1024" xml:space="preserve">
<g>
	<g>
		<path fill="#FEFEFE" d="M511.5,1023.91c-168.97,0-337.94-0.01-506.91,0.09c-3.75,0-4.59-0.84-4.59-4.59
			C0.1,681.14,0.1,342.86,0,4.59C0,0.84,0.84,0,4.59,0c338.27,0.1,676.54,0.1,1014.82,0c3.75,0,4.59,0.84,4.59,4.59
			c-0.1,338.27-0.1,676.54,0,1014.81c0,3.75-0.84,4.6-4.59,4.59C850.11,1023.89,680.8,1023.91,511.5,1023.91z M751.56,733.39
			c0,0,0.04,0,0.04,0c-0.09-17.68-0.14-35.36-0.29-53.04c-0.07-7.77,0.49-15.55-0.62-23.29c1.06-2.53,0.92-5.23,0.93-7.87
			c0.12-24.66,0.2-49.31,0.26-73.97c0.02-7.5-0.03-14.99-0.1-22.49c-0.04-4.54-1.92-8.25-6.32-9.66c-5.53-1.77-9.55,2.05-9.57,8.64
			c-0.09,26.16-0.25,52.31-0.17,78.47c0.03,8.98-0.37,17.98,0.73,26.94c-0.19,2.32-0.55,4.63-0.56,6.95
			c-0.06,16.66-0.01,33.32-0.07,49.98c-0.04,13.65,0.24,27.31-0.75,40.96c-0.25,3.51-1.7,6.2-4.12,8.74
			c-3.45,3.62-7.74,3.35-12.06,3.35c-128.94-0.01-257.88-0.02-386.82-0.05c-2.35,0-4.6,0.31-6.89,0.83
			c-3.21,0.73-4.79,2.7-5.18,5.83c-0.83,6.68,2.08,9.5,9.85,9.5c127.27-0.04,254.55-0.08,381.82-0.1c8.27,0,16.6,0.6,24.4-3.04
			c-0.32,2.29-1.29,4.48-1.01,6.88c0.61,5.39-2.7,7.73-7.22,9.12c-2.41,0.74-4.86,0.93-7.38,0.92c-16.83-0.06-33.66-0.09-50.48-0.09
			c-129.62,0.04-259.24,0.1-388.87,0.11c-2.59,0-5.19,0.25-7.79-0.82c-7.03-2.9-7.02-9.07-7.43-15.11
			c8.86,3.01,18.02,1.87,27.09,1.92c5.67,0.03,9.18-3.33,9.01-8.26c-0.16-4.6-3.76-7.66-9.18-7.71c-4.99-0.05-9.98,0.02-14.97-0.02
			c-3.36-0.03-5.83-1.52-7.97-4.22c-3.21-4.04-2.89-8.63-2.9-13.24c-0.03-38.11-0.04-76.21-0.09-114.32
			c-0.01-6.8-3.1-10.65-8.38-10.7c-5.33-0.05-7.76,3.32-7.77,10.34c-0.04,41.08-0.13,82.15-0.2,123.23
			c-0.81,10.3-0.33,20.61-0.36,30.91c0,0.78,0.41,1.55,0.55,2.34c2.72,14.53,16.85,22.68,30.31,22.64
			c92.08-0.3,184.17-0.21,276.25-0.22c54.78-0.01,109.57,0.05,164.35,0.04c17.09,0,29.22-11.54,30.03-25.65
			c0.88-15.43,0.02-30.95-0.08-46.43C751.59,738.92,751.57,736.15,751.56,733.39z M645.7,561.16c-4.78-0.08-9.57-0.04-14.34-0.27
			c-6.89-0.34-13.83,1-20.69-0.52c11.52-5.41,23.1-10.72,34.56-16.27c8-3.88,16.07-7.31,22.62-14.04
			c33.53-34.45,67.48-68.5,101.24-102.73c10.05-10.19,20.03-20.44,29.89-30.81c6.79-7.15,7.54-14.92,1.44-21.27
			c-10.73-11.15-21.73-22.06-33.03-32.63c-6.76-6.32-16.26-5.37-22.71,1.38c-5.74,6.01-11.42,12.09-17.15,18.12
			c-2.28,2.4-4.36,6.33-6.96,6.72c-3.09,0.46-5.08-3.94-7.55-6.22c-7.26-6.7-16.51-6.78-23.67-0.04c-1.93,1.82-3.66,3.85-5.52,5.75
			c-25.76,26.46-51.58,52.88-77.27,79.41c-8.35,8.62-8.25,19.85,0.28,28.32c3.21,3.19,5.62,5.64,0.52,9.06
			c-0.73,0.49-1.05,1.67-1.43,2.58c-7.28,17.77-14.69,35.5-21.69,53.38c-1.84,4.69-3.03,7.23-9.45,7.18
			c-62.47-0.46-124.94-0.28-187.42-0.28c-27.16,0-54.31-0.03-81.47,0.01c-8.11,0.01-11.43,2.92-12.35,10.81
			c-0.33,2.8-0.33,5.65-0.34,8.48c-0.08,55.81-0.06,111.62-0.26,167.42c-0.03,9.17,2.21,15.59,15.24,15.56
			c102.29-0.24,204.58-0.09,306.87-0.07c27.82,0.01,55.64,0.01,83.46-0.08c8.82-0.03,13.04-4.29,13.38-13.09
			c0.03-0.67,0.02-1.33,0.02-2c0.01-57.64,0.01-115.28,0.02-172.93c0-0.83,0.04-1.67-0.03-2.5c-0.59-7.62-4.89-11.6-12.59-11.61
			c-8-0.02-16,0.13-23.99-0.03c-6.61-0.14-12.29,1.95-16.02,7.34c-2.77,4.01-5.97,5.83-10.71,5.36
			C647.67,560.55,646.67,560.98,645.7,561.16z M250.13,441.02c0,51.15,0,102.29,0.01,153.44c0,2.66-0.06,5.35,0.21,7.99
			c0.52,4.89,3.14,7.35,7.6,7.54c4.73,0.2,7.63-2.03,8.47-6.64c0.41-2.27,0.5-4.63,0.5-6.95c0.03-65.98,0.03-131.95,0.03-197.93
			c0-38.65,0.03-77.3-0.05-115.96c-0.01-5.5,1.85-9.65,6.73-12.32c3.65-2,7.58-2.15,11.63-2.15c44.47,0.05,88.93,0.09,133.4-0.07
			c4.36-0.02,5.97,1.28,5.86,5.6c-0.12,4.65,0.21,9.32,0.45,13.97c0.56,10.67,9.39,19.49,20.09,20.58
			c12.64,1.29,25.26,0.22,37.89,0.15c23.99-0.13,47.98,0.02,71.96-0.1c11.54-0.06,19.35-6.6,22.24-17.65
			c1.42-5.45,0.84-10.92,0.81-16.37c-0.02-4.5,1.77-6.11,6.19-6.1c45.15,0.09,90.3,0.14,135.44,0.01
			c10.52-0.03,16.04,6.25,16.24,16.53c0.21,10.49,0.07,20.99-0.02,31.49c-0.02,3.2,0.77,5.97,3.45,7.85
			c2.28,1.6,4.75,2.22,7.47,0.83c3.68-1.88,5.16-4.92,5.15-8.92c-0.02-11.16-0.38-22.34,0.08-33.48
			c0.62-14.91-13.83-30.69-30.25-30.5c-45.98,0.54-91.96,0.16-137.95,0.29c-4.12,0.01-6.09-1.14-7.48-5.32
			c-2.59-7.74-8.39-12.56-16.57-14.01c-7.76-1.38-15.63-0.69-23.44-0.56c-3.76,0.06-5.25-1-6.5-4.68
			c-4.9-14.46-15.92-21.76-31.66-21.4c-10.45,0.24-24.64,7.39-28.19,22c-0.74,3.05-2.7,3.88-5.5,3.87
			c-5.33-0.02-10.67-0.12-15.99,0.14c-9.94,0.49-18.55,3.99-22.02,13.97c-1.78,5.11-4.34,5.97-8.99,5.96
			c-45.32-0.12-90.64,0.21-135.95-0.21c-16.61-0.15-31.62,12.5-31.49,31.7C250.37,336.06,250.14,388.54,250.13,441.02z
			 M374.03,437.99c0,0.01,0,0.01,0,0.02c-17.49,0-34.99-0.03-52.48,0.01c-6.65,0.02-10.2,4.26-8.56,10.2
			c1.24,4.48,4.87,5.63,8.91,5.67c7.66,0.09,15.33-0.02,22.99-0.03c26.49-0.03,52.98-0.01,79.47-0.08
			c7.27-0.02,10.78-2.82,10.68-8.2c-0.1-5.25-3.35-7.59-10.53-7.59C407.69,437.99,390.86,437.99,374.03,437.99z M444.77,518.99
			c14.15,0,28.3-0.01,42.45,0c4.48,0,8.38-1.14,9.7-5.98c1.51-5.55-2.54-9.96-9.15-9.95c-27.96,0.04-55.93,0.15-83.89,0.26
			c-1.48,0.01-2.96,0.31-4.43,0.51c-3.51,0.47-5.08,2.78-5.52,6.03c-0.74,5.52,2.49,9.09,8.4,9.12
			C416.47,519.03,430.62,518.99,444.77,518.99z M561.85,361.68c0,0.05,0,0.1,0,0.15c-15.3,0-30.61,0.03-45.91-0.02
			c-3.93-0.02-6.86,1.26-7.81,5.35c-1.29,5.51,2.36,9.75,8.78,9.78c30.11,0.11,60.22,0.08,90.33,0.07c2.33,0,4.71-0.32,6.56-1.86
			c2.43-2.02,4.04-4.68,2.91-7.88c-1.26-3.57-3.95-5.59-7.94-5.58C593.12,361.69,577.48,361.68,561.85,361.68z M442.6,361.55
			c0,0.1,0,0.2,0,0.29c-14.99,0-29.98-0.02-44.98,0.02c-2.61,0.01-5.23-0.16-7,2.7c-3.64,5.89-0.27,12.17,7.29,12.23
			c29.98,0.22,59.97,0.21,89.95,0.16c5.19-0.01,9.04-3.72,9.12-8.03c0.08-4.13-3.49-7.1-8.91-7.39c-0.83-0.04-1.67,0.01-2.5,0.01
			C471.26,361.55,456.93,361.55,442.6,361.55z M334.72,376.7c0.04,0.72,0.01,2.9,0.27,5.03c0.69,5.66,6.2,8.12,11.03,5.07
			c3.23-2.04,3.81-5.22,3.91-8.61c0.09-2.97-1.07-6.64,0.28-8.75c1.53-2.4,5.5-0.38,8.36-0.93c0.16-0.03,0.33-0.06,0.49-0.07
			c4.92-0.14,7.02-3.24,7.6-7.6c0.45-3.4-2.91-6.9-7.01-7.7c-3.18-0.62-7.59,1.63-9.31-1.06c-1.51-2.36-0.25-6.44-0.39-9.75
			c-0.15-3.54-1.52-6.63-4.97-7.96c-2.73-1.06-5.51-0.53-7.92,1.43c-2.74,2.22-2.08,5.35-2.3,8.22c-0.22,2.81,0.65,6.13-0.57,8.33
			c-1.51,2.72-5.17,0.44-7.81,1.07c-0.81,0.19-1.64,0.27-2.46,0.41c-4.74,0.82-6.79,3.68-6.07,8.44c0.72,4.78,4.19,6.81,10.58,6.19
			c6.34-0.61,6.34-0.61,6.3,5.79C334.72,374.6,334.72,374.93,334.72,376.7z M570.93,422.41c-0.16-2.92,0.6-6.68-2.5-9.22
			c-1.9-1.56-4.1-2.74-6.85-1.42c-3.1,1.49-5.08,3.47-5.09,7.2c-0.01,3.3,0.6,7.24-0.95,9.74c-2,3.24-6.45,0.67-9.74,1.41
			c-0.48,0.11-1,0.05-1.48,0.17c-3.85,0.99-6.21,3.53-5.89,7.44c0.32,3.88,2.32,6.9,6.83,7.25c3.28,0.25,7.19-1.29,9.7,0.86
			c2.63,2.26,0.64,6.26,1.15,9.46c0.68,4.3,4.22,7.71,8.03,7.37c4.32-0.38,6.33-3.24,6.74-7.26c0.32-3.12-0.99-6.91,0.84-9.24
			c2.18-2.78,6.25-0.73,9.45-1.2c3.25-0.48,5.76-2.12,6.56-5.29c0.77-3.05-0.05-5.86-2.81-7.93c-2.17-1.62-4.58-1.72-7.09-1.74
			C570.91,429.95,570.91,429.93,570.93,422.41z M478.99,422.8c0-1.33,0.07-2.67-0.01-3.99c-0.25-4.1-3.46-7.56-7.07-7.69
			c-3.87-0.14-7.01,3.24-7.15,7.87c-0.07,2.32,0.02,4.66,0.15,6.98c0.16,2.86-0.76,4.38-3.97,4.11c-2.48-0.21-4.99-0.11-7.48,0.06
			c-4.42,0.31-6.55,3.08-6.64,7.22c-0.08,4.16,2.07,6.88,6.37,7.54c3.55,0.54,8.06-1.67,10.49,1.04c2.31,2.59,0.66,7.08,1.28,10.68
			c0.53,3.08,2.24,5.16,5.41,5.72c3.12,0.55,5.51-0.74,7.3-3.22c1.45-2.01,1.38-4.35,1.37-6.7c-0.03-7.62,0-7.62,7.53-7.42
			c0.83,0.02,1.67,0.16,2.48,0.09c5.73-0.52,9.05-7.4,5.58-11.96c-2.04-2.68-5.27-3.1-8.54-3.12
			C479.04,429.98,479.05,429.92,478.99,422.8z M368.8,492.63c0-0.94-0.01-1.44,0-1.94c0.18-6.4-2.25-10.36-6.5-10.54
			c-5.13-0.23-8.09,3.48-8.16,10.2c-0.08,7.5-0.08,7.47-7.61,7.94c-1.47,0.09-2.98,0.33-4.38,0.79c-4.67,1.53-6.15,5.29-4.2,9.84
			c1.62,3.78,4.6,4.88,8.37,4.94c7.76,0.12,7.76,0.15,7.81,8.05c0,0.33-0.04,0.67-0.03,1c0.17,5.25,2.9,8.81,6.86,8.96
			c4.49,0.17,7.64-3.41,7.97-9c0.17-2.8-1.1-6.12,0.66-8.28c1.92-2.35,5.3-0.54,8.02-0.78c4.54-0.4,7.49-3.35,7.44-7.7
			c-0.05-4.7-2.85-6.77-7.25-7.16c-1.16-0.1-2.32-0.46-3.46-0.38C369.63,498.88,367.23,497.29,368.8,492.63z M528.71,518.99
			c0,0.01,0,0.01,0,0.02c3.82,0,7.64,0.08,11.45-0.02c5.6-0.15,8.66-2.98,8.79-7.92c0.11-4.31-3.32-7.89-8.42-7.96
			c-7.96-0.12-15.94,0.03-23.89,0.42c-4.92,0.24-7.6,3.17-7.63,7.35c-0.03,4.49,3.28,7.86,8.25,8.08
			C521.07,519.13,524.89,518.99,528.71,518.99z M735.89,510.92c-0.01,0-0.02,0-0.03,0c0,2.99-0.03,5.99,0.01,8.98
			c0.07,5.73,2.94,9.16,7.54,9.1c4.86-0.07,7.96-3.57,8.06-9.27c0.1-5.82,0.08-11.64,0.16-17.46c0.06-4.97-3.26-9-7.69-9.23
			c-4.24-0.22-7.96,3.88-8.03,8.9C735.86,504.93,735.89,507.92,735.89,510.92z"/>
		<path fill="#F9382E" d="M610.68,560.38c6.86,1.51,13.79,0.18,20.69,0.52c4.77,0.23,9.56,0.19,14.34,0.27
			c0.51,4.29,0.44,8.74,1.62,12.84c6.43,22.22,21,36.13,43.65,41.16c3.81,0.85,5.08,2.38,5.04,6.29
			c-0.22,19.32-0.28,38.65-0.07,57.97c0.05,4.63-1.15,6.39-5.96,7.42c-23.66,5.1-38.46,19.75-44.25,43.23
			c-1.1,4.46-3.76,4.6-7.34,4.6c-90.46-0.03-180.92-0.05-271.38,0.12c-4.6,0.01-6.12-1.47-7.11-5.8
			c-5.26-22.87-24.1-40.02-47.05-42.93c-3.58-0.45-3.81-2.24-3.8-4.99c0.09-19.99,0.17-39.98,0.09-59.97
			c-0.01-3.41,0.75-4.72,4.51-5.33c24.09-3.9,43.92-23.88,46.22-46.61c0.42-4.15,1.72-5.17,5.65-5.15
			c24.82,0.14,49.65,0.06,74.47,0.06c43.65-0.01,87.3-0.02,130.95,0c1.75,0,3.56-0.46,5.04,1.31c4.75,5.68,6.52,6.32,13.54,3.73
			C596.67,566.48,603.63,563.31,610.68,560.38z M443.6,650.48c-0.04,36.11,28.2,63.12,61.48,62.14
			c35.12-1.04,59.63-29.72,58.83-63.83c-0.77-33.08-29.15-59.86-62.61-59.34C470.5,589.92,442.8,619.23,443.6,650.48z
			 M625.32,672.04c14.4,0.8,23.19-10.94,23.42-22.4c0.24-12.39-10.31-22.64-22.85-22.68c-12.65-0.05-22.74,9.69-22.82,22.02
			C602.97,661.84,612.73,671.96,625.32,672.04z M380.23,672.06c12.95-0.09,22.54-9.84,22.46-22.83
			c-0.08-13.07-9.95-22.41-23.53-22.29c-12.15,0.11-21.78,10.43-21.62,23.17C357.68,662.64,367.51,672.15,380.23,672.06z"/>
		<path fill="#192A2E" d="M610.68,560.38c-7.04,2.94-14,6.11-21.16,8.75c-7.03,2.59-8.79,1.96-13.54-3.73
			c-1.48-1.77-3.29-1.31-5.04-1.31c-43.65-0.02-87.3-0.01-130.95,0c-24.82,0-49.65,0.09-74.47-0.06c-3.93-0.02-5.23,0.99-5.65,5.15
			c-2.3,22.72-22.13,42.71-46.22,46.61c-3.76,0.61-4.52,1.92-4.51,5.33c0.09,19.99,0,39.98-0.09,59.97
			c-0.01,2.75,0.22,4.53,3.8,4.99c22.95,2.91,41.79,20.06,47.05,42.93c1,4.33,2.51,5.81,7.11,5.8
			c90.46-0.16,180.92-0.15,271.38-0.12c3.58,0,6.24-0.13,7.34-4.6c5.79-23.48,20.59-38.14,44.25-43.23c4.81-1.04,6.01-2.8,5.96-7.42
			c-0.22-19.32-0.15-38.65,0.07-57.97c0.04-3.91-1.23-5.45-5.04-6.29c-22.66-5.03-37.22-18.94-43.65-41.16
			c-1.18-4.09-1.11-8.55-1.62-12.84c0.97-0.18,1.97-0.61,2.91-0.52c4.74,0.47,7.94-1.34,10.71-5.36c3.73-5.39,9.41-7.48,16.02-7.34
			c7.99,0.17,15.99,0.02,23.99,0.03c7.7,0.02,12,4,12.59,11.61c0.06,0.83,0.03,1.67,0.03,2.5c0,57.64-0.01,115.28-0.02,172.93
			c0,0.67,0.01,1.33-0.02,2c-0.34,8.8-4.55,13.07-13.38,13.09c-27.82,0.09-55.64,0.08-83.46,0.08
			c-102.29-0.02-204.58-0.17-306.87,0.07c-13.03,0.03-15.27-6.39-15.24-15.56c0.19-55.81,0.18-111.62,0.26-167.42
			c0-2.83,0.01-5.68,0.34-8.48c0.92-7.88,4.24-10.8,12.35-10.81c27.16-0.04,54.31-0.01,81.47-0.01c62.47,0,124.95-0.18,187.42,0.28
			c6.42,0.05,7.61-2.49,9.45-7.18c7-17.88,14.41-35.6,21.69-53.38c0.37-0.92,0.7-2.1,1.43-2.58c5.1-3.41,2.69-5.86-0.52-9.06
			c-8.53-8.47-8.63-19.7-0.28-28.32c25.69-26.53,51.51-52.94,77.27-79.41c1.85-1.9,3.59-3.94,5.52-5.75
			c7.16-6.73,16.41-6.65,23.67,0.04c2.47,2.28,4.46,6.69,7.55,6.22c2.6-0.39,4.68-4.33,6.96-6.72c5.72-6.03,11.4-12.11,17.15-18.12
			c6.45-6.75,15.95-7.69,22.71-1.38c11.3,10.56,22.3,21.48,33.03,32.63c6.1,6.34,5.36,14.12-1.44,21.27
			c-9.86,10.37-19.84,20.62-29.89,30.81c-33.76,34.23-67.7,68.28-101.24,102.73c-6.55,6.73-14.62,10.16-22.62,14.04
			C633.78,549.66,622.2,554.97,610.68,560.38z M748.46,423.55c-0.37-0.47-0.88-1.29-1.55-1.94c-7.49-7.32-15.23-14.4-22.41-22.02
			c-3.72-3.95-5.78-2.79-8.97,0.49c-17.75,18.22-35.7,36.25-53.58,54.33c-11.11,11.23-22.21,22.47-33.39,33.65
			c-2.29,2.29-2.76,4.1-0.16,6.6c7.66,7.37,15.24,14.83,22.61,22.49c2.52,2.62,4.14,2.3,6.43-0.09c6.91-7.2,13.95-14.27,20.97-21.37
			c22.57-22.81,45.16-45.61,67.74-68.41C747.1,426.33,748.03,425.39,748.46,423.55z M756.88,356.13c-0.41,0.32-1.09,0.75-1.65,1.31
			c-7.58,7.68-15.12,15.42-22.75,23.06c-1.57,1.58-0.78,2.64,0.34,3.76c8.7,8.69,17.4,17.38,26.15,26.03
			c1.03,1.01,2.1,2.15,3.74,0.44c7.47-7.75,15.02-15.43,22.61-23.07c1.72-1.73,1.43-2.87-0.22-4.51
			c-8.39-8.31-16.66-16.74-24.97-25.12C759.32,357.2,758.53,356.32,756.88,356.13z M708.98,382.81c-1.66-1.48-3.48-2.67-4.72-4.3
			c-2.65-3.49-4.52-2.77-7.2,0.2c-6.02,6.66-12.4,13.01-18.69,19.42c-19.69,20.09-39.35,40.21-59.17,60.17
			c-2.33,2.35-2.59,3.92-0.26,6.11c0.97,0.91,1.88,1.92,2.6,3.02c1.25,1.93,2.24,1.9,3.81,0.2c3.39-3.66,6.99-7.13,10.5-10.68
			c23.51-23.79,47.02-47.59,70.52-71.38C707.19,384.75,707.96,383.9,708.98,382.81z M309.05,581.97c0,4.83,0.09,9.66-0.03,14.49
			c-0.07,3.03,1.16,3.73,3.98,3.09c12.02-2.75,21.11-9.4,27.15-20.16c2.05-3.65,3.55-7.51,3.88-11.75c0.17-2.17-0.36-3.47-2.91-3.47
			c-9.49,0.02-18.98-0.03-28.47-0.15c-2.88-0.04-3.71,1.3-3.63,3.97C309.14,572.64,309.05,577.3,309.05,581.97z M695.77,581.93
			c0.04,0,0.08,0,0.12,0c0-4.48-0.19-8.98,0.06-13.45c0.2-3.56-1.26-4.6-4.62-4.53c-8.3,0.17-16.6,0.2-24.9,0.06
			c-3.76-0.06-4.42,1.36-3.75,4.86c2.98,15.61,14.19,27.11,29.77,30.45c2.47,0.53,3.37,0.07,3.34-2.45
			C695.72,591.89,695.77,586.91,695.77,581.93z M325.92,734.43c0-0.07,0-0.15,0-0.22c2.5,0,4.99,0,7.49,0
			c12.36,0.01,12.54-0.08,6.81-11.37c-5.51-10.86-14.79-17.27-26.28-20.58c-2.16-0.62-4.89-1.07-4.88,2.77
			c0.03,8.82,0.04,17.65,0.02,26.47c0,2.32,0.88,3.15,3.36,3.01C316.92,734.24,321.43,734.43,325.92,734.43z M678.42,734.17
			c0-0.02,0-0.03,0-0.05c4.33,0,8.66-0.15,12.97,0.05c3.15,0.14,4.61-0.86,4.52-4.2c-0.25-8.31-0.44-16.62-0.39-24.93
			c0.02-2.67-0.89-3.25-3.21-2.67c-14.08,3.49-26.04,13.31-30.03,28.09c-0.7,2.59-0.17,3.78,2.67,3.74
			C669.43,734.11,673.93,734.17,678.42,734.17z M616.47,505.79c-4.28,7.5-6.27,14.93-9.5,21.82c-2.46,5.23-0.52,10.9,4.44,13.51
			c0.66,0.35,1.15,0.36,1.81,0.04c8.57-4.1,17.16-8.18,25.64-12.21C631.31,521.14,624.05,513.63,616.47,505.79z"/>
		<path fill="#F9382E" d="M250.13,441.02c0-52.48,0.24-104.96-0.12-157.44c-0.13-19.19,14.88-31.85,31.49-31.7
			c45.31,0.42,90.63,0.09,135.95,0.21c4.65,0.01,7.21-0.85,8.99-5.96c3.47-9.98,12.08-13.49,22.02-13.97
			c5.32-0.26,10.66-0.16,15.99-0.14c2.81,0.01,4.76-0.82,5.5-3.87c3.54-14.61,17.74-21.76,28.19-22
			c15.74-0.36,26.76,6.94,31.66,21.4c1.25,3.68,2.73,4.74,6.5,4.68c7.81-0.13,15.67-0.82,23.44,0.56
			c8.18,1.46,13.98,6.27,16.57,14.01c1.4,4.17,3.36,5.33,7.48,5.32c45.98-0.12,91.97,0.25,137.95-0.29
			c16.42-0.19,30.86,15.59,30.25,30.5c-0.46,11.14-0.1,22.32-0.08,33.48c0.01,3.99-1.47,7.04-5.15,8.92
			c-2.72,1.39-5.19,0.77-7.47-0.83c-2.69-1.88-3.48-4.65-3.45-7.85c0.08-10.5,0.22-21,0.02-31.49
			c-0.21-10.28-5.72-16.56-16.24-16.53c-45.15,0.13-90.3,0.08-135.44-0.01c-4.42-0.01-6.21,1.61-6.19,6.1
			c0.02,5.45,0.61,10.92-0.81,16.37c-2.88,11.05-10.7,17.59-22.24,17.65c-23.99,0.13-47.98-0.02-71.96,0.1
			c-12.63,0.07-25.25,1.13-37.89-0.15c-10.7-1.09-19.53-9.9-20.09-20.58c-0.25-4.65-0.58-9.32-0.45-13.97
			c0.11-4.32-1.5-5.61-5.86-5.6c-44.47,0.16-88.93,0.12-133.4,0.07c-4.05,0-7.98,0.15-11.63,2.15c-4.89,2.68-6.74,6.83-6.73,12.32
			c0.09,38.65,0.05,77.3,0.05,115.96c0,65.98,0,131.95-0.03,197.93c0,2.32-0.09,4.67-0.5,6.95c-0.84,4.62-3.73,6.84-8.47,6.64
			c-4.46-0.19-7.09-2.64-7.6-7.54c-0.28-2.64-0.21-5.32-0.21-7.99C250.13,543.32,250.13,492.17,250.13,441.02z M499.55,223.14
			c-2.59-0.17-5.43,0.57-8.06,2.21c-5.7,3.56-6.93,9.04-6.49,15.18c0.28,3.78-0.37,6.21-5.02,6.71c-4.35,0.47-6.9,4.28-5.91,7.72
			c1.07,3.71,3.45,6,7.68,5.46c4.44-0.56,7.4-3.5,6.56-7.64c-0.99-4.91,1.33-7.99,4.49-10.81c2.73-2.43,6.14-2.82,9.32-1.22
			c3.19,1.61,3.88,4.72,3.47,8.14c-0.21,1.8-0.54,3.7-0.21,5.44c0.64,3.38,2.85,5.7,6.26,6.32c2.58,0.47,5-0.36,6.52-2.69
			c1.61-2.47,3.03-5.61,0.46-7.75c-4.19-3.5-3.47-7.9-3.62-12.32C514.73,229.33,508.35,223.1,499.55,223.14z"/>
		<path fill="#F9382E" d="M265.91,781.04c0.41,6.04,0.4,12.21,7.43,15.11c2.6,1.07,5.2,0.82,7.79,0.82
			c129.62-0.01,259.24-0.07,388.87-0.11c16.83-0.01,33.66,0.02,50.48,0.09c2.51,0.01,4.96-0.18,7.38-0.92
			c4.52-1.39,7.83-3.73,7.22-9.12c-0.27-2.41,0.69-4.59,1.01-6.88c1.24-1.06,2.46-2.13,3.71-3.18c7.72-6.49,12.4-14.31,11.52-24.86
			c-0.29-3.4,0.18-6.86,0.29-10.3c0.1,15.48,0.96,31.01,0.08,46.43c-0.81,14.11-12.94,25.65-30.03,25.65
			c-54.78,0.01-109.57-0.05-164.35-0.04c-92.08,0.01-184.17-0.08-276.25,0.22c-13.46,0.04-27.59-8.11-30.31-22.64
			c-0.15-0.79-0.56-1.56-0.55-2.34c0.03-10.31-0.45-20.62,0.36-30.92c0.2,3.17,0.93,6.21,2.41,9.02
			C256.01,772.88,260.61,777.29,265.91,781.04z"/>
		<path fill="#192A2E" d="M751.61,741.68c-0.12,3.43-0.58,6.9-0.29,10.3c0.89,10.55-3.8,18.37-11.52,24.86
			c-1.25,1.05-2.48,2.12-3.71,3.18c-7.81,3.64-16.13,3.04-24.4,3.04c-127.27,0.02-254.55,0.06-381.82,0.1
			c-7.77,0-10.68-2.81-9.85-9.5c0.39-3.12,1.97-5.09,5.18-5.83c2.29-0.52,4.54-0.83,6.89-0.83c128.94,0.03,257.88,0.04,386.82,0.05
			c4.31,0,8.6,0.27,12.06-3.35c2.42-2.54,3.86-5.23,4.12-8.74c0.99-13.64,0.7-27.3,0.75-40.96c0.05-16.66,0.01-33.32,0.07-49.98
			c0.01-2.32,0.36-4.63,0.56-6.95c4.74-2.18,9.48-2.34,14.23-0.05c1.11,7.74,0.56,15.53,0.62,23.29c0.15,17.68,0.2,35.36,0.29,53.04
			c0,0-0.04,0-0.04,0C751.57,736.15,751.59,738.92,751.61,741.68z"/>
		<path fill="#192A2E" d="M265.91,781.04c-5.3-3.75-9.89-8.16-12.95-13.97c-1.48-2.81-2.2-5.85-2.41-9.02
			c0.07-41.08,0.16-82.15,0.2-123.23c0.01-7.02,2.45-10.39,7.77-10.34c5.28,0.05,8.37,3.91,8.38,10.7
			c0.05,38.11,0.05,76.21,0.09,114.32c0,4.61-0.32,9.2,2.9,13.24c2.14,2.69,4.61,4.19,7.97,4.22c4.99,0.04,9.98-0.03,14.97,0.02
			c5.43,0.05,9.03,3.11,9.18,7.71c0.17,4.93-3.35,8.29-9.01,8.26C283.93,782.91,274.77,784.04,265.91,781.04z"/>
		<path fill="#192A2E" d="M374.03,437.99c16.83,0,33.65,0,50.48,0c7.18,0,10.43,2.34,10.53,7.59c0.1,5.38-3.41,8.18-10.68,8.2
			c-26.49,0.07-52.98,0.05-79.47,0.08c-7.66,0.01-15.33,0.12-22.99,0.03c-4.05-0.05-7.68-1.19-8.91-5.67
			c-1.64-5.94,1.91-10.18,8.56-10.2c17.49-0.04,34.99-0.01,52.48-0.01C374.03,438,374.03,437.99,374.03,437.99z"/>
		<path fill="#F9382E" d="M750.68,657.05c-4.75-2.3-9.5-2.13-14.23,0.05c-1.1-8.95-0.7-17.96-0.73-26.94
			c-0.08-26.16,0.08-52.31,0.17-78.47c0.02-6.59,4.04-10.41,9.57-8.64c4.4,1.41,6.28,5.11,6.32,9.66c0.07,7.5,0.12,14.99,0.1,22.49
			c-0.06,24.66-0.14,49.31-0.26,73.97C751.6,651.81,751.73,654.51,750.68,657.05z"/>
		<path fill="#192A2E" d="M444.77,518.99c-14.15,0-28.3,0.04-42.45-0.02c-5.91-0.02-9.14-3.6-8.4-9.12
			c0.43-3.25,2.01-5.56,5.52-6.03c1.47-0.2,2.95-0.5,4.43-0.51c27.96-0.12,55.93-0.23,83.89-0.26c6.61-0.01,10.66,4.39,9.15,9.95
			c-1.32,4.85-5.21,5.99-9.7,5.98C473.07,518.99,458.92,518.99,444.77,518.99z"/>
		<path fill="#192A2E" d="M561.85,361.68c15.64,0,31.27,0.01,46.91-0.01c3.99-0.01,6.68,2.01,7.94,5.58
			c1.14,3.21-0.48,5.86-2.91,7.88c-1.85,1.54-4.23,1.86-6.56,1.86c-30.11,0.01-60.22,0.03-90.33-0.07
			c-6.41-0.02-10.06-4.27-8.78-9.78c0.95-4.08,3.88-5.36,7.81-5.35c15.3,0.06,30.61,0.02,45.91,0.02
			C561.85,361.77,561.85,361.72,561.85,361.68z"/>
		<path fill="#192A2E" d="M442.6,361.55c14.33,0,28.65,0,42.98,0c0.83,0,1.67-0.06,2.5-0.01c5.42,0.29,8.99,3.26,8.91,7.39
			c-0.08,4.32-3.93,8.02-9.12,8.03c-29.98,0.06-59.97,0.07-89.95-0.16c-7.56-0.06-10.94-6.34-7.29-12.23c1.77-2.86,4.39-2.69,7-2.7
			c14.99-0.05,29.98-0.02,44.98-0.02C442.6,361.75,442.6,361.65,442.6,361.55z"/>
		<path fill="#192A2E" d="M334.72,376.7c0-1.77,0-2.1,0-2.44c0.04-6.39,0.04-6.39-6.3-5.79c-6.39,0.61-9.85-1.41-10.58-6.19
			c-0.72-4.76,1.34-7.61,6.07-8.44c0.82-0.14,1.65-0.22,2.46-0.41c2.64-0.63,6.3,1.65,7.81-1.07c1.22-2.2,0.36-5.52,0.57-8.33
			c0.22-2.87-0.44-6,2.3-8.22c2.41-1.96,5.19-2.48,7.92-1.43c3.45,1.33,4.82,4.42,4.97,7.96c0.14,3.31-1.12,7.39,0.39,9.75
			c1.72,2.68,6.13,0.44,9.31,1.06c4.1,0.8,7.46,4.3,7.01,7.7c-0.58,4.36-2.68,7.46-7.6,7.6c-0.17,0-0.33,0.04-0.49,0.07
			c-2.85,0.55-6.82-1.47-8.36,0.93c-1.35,2.11-0.19,5.78-0.28,8.75c-0.1,3.38-0.68,6.56-3.91,8.61c-4.83,3.05-10.34,0.59-11.03-5.07
			C334.73,379.6,334.76,377.42,334.72,376.7z"/>
		<path fill="#F9382E" d="M570.93,422.41c-0.02,7.52-0.02,7.54,6.89,7.6c2.51,0.02,4.93,0.12,7.09,1.74
			c2.76,2.06,3.58,4.88,2.81,7.93c-0.8,3.17-3.31,4.82-6.56,5.29c-3.21,0.47-7.27-1.58-9.45,1.2c-1.83,2.33-0.52,6.12-0.84,9.24
			c-0.41,4.02-2.42,6.88-6.74,7.26c-3.81,0.33-7.35-3.08-8.03-7.37c-0.5-3.19,1.49-7.19-1.15-9.46c-2.51-2.16-6.42-0.61-9.7-0.86
			c-4.51-0.34-6.51-3.36-6.83-7.25c-0.32-3.91,2.04-6.45,5.89-7.44c0.48-0.12,1-0.06,1.48-0.17c3.29-0.74,7.74,1.83,9.74-1.41
			c1.54-2.5,0.94-6.44,0.95-9.74c0.01-3.72,1.99-5.71,5.09-7.2c2.75-1.32,4.95-0.13,6.85,1.42
			C571.53,415.73,570.77,419.5,570.93,422.41z"/>
		<path fill="#F9382E" d="M478.99,422.8c0.06,7.12,0.06,7.18,7.11,7.22c3.27,0.02,6.5,0.43,8.54,3.12
			c3.47,4.56,0.15,11.43-5.58,11.96c-0.82,0.07-1.66-0.06-2.48-0.09c-7.54-0.2-7.57-0.2-7.53,7.42c0.01,2.35,0.09,4.69-1.37,6.7
			c-1.79,2.48-4.19,3.78-7.3,3.22c-3.17-0.56-4.87-2.64-5.41-5.72c-0.62-3.6,1.03-8.09-1.28-10.68c-2.43-2.72-6.94-0.5-10.49-1.04
			c-4.3-0.66-6.45-3.38-6.37-7.54c0.08-4.14,2.21-6.92,6.64-7.22c2.49-0.17,5-0.27,7.48-0.06c3.2,0.27,4.13-1.25,3.97-4.11
			c-0.13-2.32-0.23-4.66-0.15-6.98c0.15-4.62,3.29-8.01,7.15-7.87c3.61,0.13,6.82,3.59,7.07,7.69
			C479.06,420.14,478.99,421.47,478.99,422.8z"/>
		<path fill="#F9382E" d="M368.8,492.63c-1.57,4.66,0.83,6.25,5.55,5.94c1.14-0.08,2.3,0.28,3.46,0.38c4.4,0.39,7.2,2.45,7.25,7.16
			c0.05,4.35-2.9,7.3-7.44,7.7c-2.72,0.24-6.1-1.57-8.02,0.78c-1.76,2.16-0.5,5.48-0.66,8.28c-0.33,5.59-3.48,9.17-7.97,9
			c-3.96-0.15-6.69-3.71-6.86-8.96c-0.01-0.33,0.03-0.67,0.03-1c-0.06-7.9-0.06-7.93-7.81-8.05c-3.77-0.06-6.75-1.16-8.37-4.94
			c-1.95-4.55-0.47-8.31,4.2-9.84c1.4-0.46,2.91-0.7,4.38-0.79c7.53-0.46,7.53-0.44,7.61-7.94c0.07-6.72,3.03-10.43,8.16-10.2
			c4.24,0.19,6.68,4.14,6.5,10.54C368.78,491.19,368.8,491.69,368.8,492.63z"/>
		<path fill="#192A2E" d="M528.71,518.99c-3.82,0-7.64,0.14-11.45-0.03c-4.97-0.22-8.28-3.59-8.25-8.08
			c0.03-4.18,2.71-7.11,7.63-7.35c7.95-0.39,15.93-0.54,23.89-0.42c5.1,0.08,8.53,3.65,8.42,7.96c-0.13,4.95-3.19,7.77-8.79,7.92
			c-3.82,0.1-7.64,0.02-11.45,0.02C528.71,519,528.71,519,528.71,518.99z"/>
		<path fill="#192A2E" d="M735.89,510.92c0-2.99-0.04-5.99,0.01-8.98c0.07-5.02,3.8-9.12,8.03-8.9c4.43,0.23,7.75,4.25,7.69,9.23
			c-0.08,5.82-0.06,11.64-0.16,17.46c-0.1,5.7-3.2,9.21-8.06,9.27c-4.6,0.06-7.47-3.37-7.54-9.1c-0.04-2.99-0.01-5.99-0.01-8.98
			C735.87,510.92,735.88,510.92,735.89,510.92z"/>
		<path fill="#F9382E" d="M751.56,733.39c0,0,0.03-0.01,0.04,0C751.59,733.38,751.56,733.39,751.56,733.39z"/>
		<path fill="#FEFEFE" d="M443.6,650.48c-0.8-31.25,26.9-60.55,57.7-61.04c33.46-0.52,61.84,26.26,62.61,59.34
			c0.8,34.11-23.71,62.8-58.83,63.83C471.8,713.59,443.56,686.59,443.6,650.48z M479.95,672.44c-0.36,3.48,1.4,6.03,3.94,8.12
			c2.74,2.26,5.95,3.68,9.43,4.29c3,0.53,4.23,1.96,3.86,5.1c-0.23,1.91-0.51,3.99,0.75,5.81c1.67,2.42,3.96,3.64,6.82,3.17
			c3.87-0.64,6.03-3.54,5.73-7.05c-0.46-5.41,2.34-7.24,6.66-9.26c11.34-5.32,14.52-18.69,7.48-29.06
			c-3.86-5.68-9.55-8.5-15.81-10.55c-3.3-1.08-6.61-2.17-9.82-3.47c-2.42-0.98-3.37-2.97-3.19-5.63c0.17-2.52,1.63-3.99,3.74-4.81
			c3.58-1.38,7.13-1.58,10.42,0.93c1.45,1.11,2.92,2.19,4.42,3.23c3.77,2.65,7.29,2.33,10.19-0.91c3.02-3.37,2.21-6.62-0.33-9.82
			c-2.24-2.83-5.16-5.03-8.54-5.78c-4.2-0.93-5.03-3.08-4.9-6.99c0.16-5.07-2.69-7.85-6.98-7.81c-4.7,0.05-6.86,2.34-6.6,7.85
			c0.16,3.42-0.68,5.09-4.12,6.61c-7.69,3.4-13.04,8.92-13.06,18.26c-0.02,9.15,4.5,14.96,12.52,18.47c2.57,1.12,5.3,1.87,7.93,2.87
			c2.93,1.12,5.99,1.87,8.69,3.62c2.79,1.81,3.41,4.33,2.93,7.34c-0.45,2.84-2.83,3.49-5.04,4.09c-6.06,1.65-11.46,0.26-16.2-3.85
			c-2.46-2.13-5.21-1.85-7.93-0.61C480.46,667.73,479.76,669.87,479.95,672.44z"/>
		<path fill="#FEFEFE" d="M625.32,672.04c-12.58-0.08-22.35-10.2-22.26-23.06c0.09-12.33,10.18-22.07,22.82-22.02
			c12.54,0.05,23.1,10.29,22.85,22.68C648.51,661.1,639.71,672.85,625.32,672.04z"/>
		<path fill="#FEFEFE" d="M380.23,672.06c-12.71,0.09-22.54-9.42-22.7-21.96c-0.16-12.74,9.47-23.05,21.62-23.17
			c13.58-0.13,23.45,9.22,23.53,22.29C402.76,662.22,393.17,671.97,380.23,672.06z"/>
		<path fill="#F9382E" d="M748.46,423.55c-0.43,1.84-1.36,2.79-2.31,3.74c-22.59,22.8-45.17,45.6-67.74,68.41
			c-7.02,7.09-14.06,14.17-20.97,21.37c-2.29,2.39-3.91,2.7-6.43,0.09c-7.37-7.66-14.95-15.12-22.61-22.49
			c-2.6-2.51-2.13-4.32,0.16-6.6c11.17-11.17,22.27-22.41,33.39-33.65c17.89-18.08,35.83-36.12,53.58-54.33
			c3.19-3.28,5.25-4.44,8.97-0.49c7.17,7.62,14.92,14.69,22.41,22.02C747.58,422.26,748.09,423.07,748.46,423.55z"/>
		<path fill="#F9382E" d="M756.88,356.13c1.65,0.2,2.44,1.07,3.26,1.9c8.32,8.38,16.58,16.81,24.97,25.12
			c1.65,1.64,1.94,2.78,0.22,4.51c-7.59,7.64-15.13,15.32-22.61,23.07c-1.65,1.71-2.72,0.57-3.74-0.44
			c-8.75-8.65-17.45-17.34-26.15-26.03c-1.13-1.12-1.92-2.19-0.34-3.76c7.63-7.64,15.16-15.38,22.75-23.06
			C755.79,356.88,756.47,356.45,756.88,356.13z"/>
		<path fill="#FEFEFE" d="M708.98,382.81c-1.02,1.09-1.8,1.94-2.61,2.76c-23.5,23.8-47.01,47.59-70.52,71.38
			c-3.51,3.55-7.11,7.02-10.5,10.68c-1.57,1.7-2.56,1.73-3.81-0.2c-0.72-1.11-1.63-2.12-2.6-3.02c-2.33-2.19-2.07-3.77,0.26-6.11
			c19.82-19.96,39.48-40.08,59.17-60.17c6.29-6.42,12.66-12.76,18.69-19.42c2.68-2.97,4.55-3.68,7.2-0.2
			C705.5,380.14,707.32,381.33,708.98,382.81z"/>
		<path fill="#F9382E" d="M309.05,581.97c0-4.66,0.09-9.33-0.04-13.99c-0.08-2.67,0.75-4.01,3.63-3.97
			c9.49,0.12,18.98,0.17,28.47,0.15c2.56-0.01,3.08,1.3,2.91,3.47c-0.33,4.24-1.83,8.1-3.88,11.75
			c-6.04,10.76-15.13,17.41-27.15,20.16c-2.82,0.64-4.05-0.06-3.98-3.09C309.14,591.63,309.05,586.8,309.05,581.97z"/>
		<path fill="#F9382E" d="M695.77,581.93c0,4.98-0.04,9.96,0.02,14.94c0.03,2.52-0.87,2.98-3.34,2.45
			c-15.59-3.34-26.8-14.84-29.77-30.45c-0.67-3.49-0.01-4.92,3.75-4.86c8.3,0.14,16.6,0.11,24.9-0.06c3.36-0.07,4.82,0.97,4.62,4.53
			c-0.25,4.47-0.06,8.96-0.06,13.45C695.84,581.93,695.81,581.93,695.77,581.93z"/>
		<path fill="#F9382E" d="M325.92,734.43c-4.49,0-8.99-0.18-13.47,0.07c-2.47,0.14-3.36-0.69-3.36-3.01
			c0.01-8.82,0-17.65-0.02-26.47c-0.01-3.84,2.72-3.39,4.88-2.77c11.49,3.32,20.77,9.72,26.28,20.58
			c5.73,11.29,5.55,11.39-6.81,11.37c-2.5,0-4.99,0-7.49,0C325.92,734.28,325.92,734.35,325.92,734.43z"/>
		<path fill="#F9382E" d="M678.42,734.17c-4.49,0-8.98-0.06-13.48,0.02c-2.84,0.05-3.37-1.15-2.67-3.74
			c3.99-14.78,15.96-24.59,30.03-28.09c2.33-0.58,3.23,0,3.21,2.67c-0.05,8.31,0.14,16.62,0.39,24.93c0.1,3.34-1.36,4.34-4.52,4.2
			c-4.32-0.2-8.65-0.05-12.97-0.05C678.42,734.14,678.42,734.16,678.42,734.17z"/>
		<path fill="#FEFEFE" d="M616.47,505.79c7.58,7.84,14.84,15.35,22.38,23.15c-8.47,4.03-17.06,8.11-25.64,12.21
			c-0.66,0.31-1.15,0.31-1.81-0.04c-4.96-2.61-6.89-8.28-4.44-13.51C610.21,520.72,612.2,513.29,616.47,505.79z"/>
		<path fill="#FEFEFE" d="M499.55,223.14c8.81-0.04,15.19,6.19,15.47,14.74c0.15,4.42-0.57,8.83,3.62,12.32
			c2.57,2.15,1.15,5.28-0.46,7.75c-1.52,2.33-3.95,3.16-6.52,2.69c-3.42-0.62-5.62-2.94-6.26-6.32c-0.33-1.74,0-3.64,0.21-5.44
			c0.4-3.42-0.28-6.53-3.47-8.14c-3.18-1.6-6.59-1.22-9.32,1.22c-3.17,2.82-5.49,5.91-4.49,10.81c0.84,4.14-2.12,7.07-6.56,7.64
			c-4.23,0.54-6.61-1.76-7.68-5.46c-0.99-3.45,1.56-7.26,5.91-7.72c4.66-0.5,5.3-2.93,5.02-6.71c-0.45-6.14,0.79-11.62,6.49-15.18
			C494.11,223.71,496.95,222.97,499.55,223.14z"/>
		<path fill="#F9382E" d="M479.95,672.44c-0.19-2.57,0.52-4.71,2.97-5.83c2.72-1.24,5.47-1.52,7.93,0.61
			c4.74,4.11,10.14,5.5,16.2,3.85c2.21-0.6,4.59-1.26,5.04-4.09c0.48-3.01-0.14-5.53-2.93-7.34c-2.7-1.75-5.76-2.5-8.69-3.62
			c-2.63-1-5.36-1.75-7.93-2.87c-8.02-3.5-12.54-9.32-12.52-18.47c0.02-9.33,5.37-14.85,13.06-18.26c3.45-1.53,4.29-3.2,4.12-6.61
			c-0.26-5.5,1.89-7.8,6.6-7.85c4.3-0.04,7.15,2.74,6.98,7.81c-0.13,3.9,0.7,6.06,4.9,6.99c3.37,0.74,6.29,2.95,8.54,5.78
			c2.54,3.2,3.35,6.45,0.33,9.82c-2.9,3.24-6.42,3.56-10.19,0.91c-1.49-1.05-2.97-2.13-4.42-3.23c-3.28-2.51-6.84-2.31-10.42-0.93
			c-2.12,0.82-3.57,2.29-3.74,4.81c-0.18,2.65,0.77,4.65,3.19,5.63c3.22,1.3,6.52,2.39,9.82,3.47c6.26,2.05,11.95,4.86,15.81,10.55
			c7.04,10.37,3.85,23.75-7.48,29.06c-4.32,2.03-7.12,3.86-6.66,9.26c0.3,3.51-1.86,6.42-5.73,7.05c-2.86,0.47-5.16-0.75-6.82-3.17
			c-1.26-1.82-0.97-3.9-0.75-5.81c0.38-3.14-0.86-4.57-3.86-5.1c-3.48-0.61-6.68-2.03-9.43-4.29
			C481.35,678.47,479.59,675.92,479.95,672.44z"/>
	</g>
</g>
</svg>
