<?xml version="1.0" encoding="utf-8"?>
<!-- Generator: Adobe Illustrator 27.8.0, SVG Export Plug-In . SVG Version: 6.00 Build 0)  -->
<svg version="1.1" id="Capa_1" xmlns="http://www.w3.org/2000/svg" xmlns:xlink="http://www.w3.org/1999/xlink" x="0px" y="0px"
	 viewBox="0 0 768 768" enable-background="new 0 0 768 768" xml:space="preserve">
<g>
	<g>
		<path fill="#FFFFFF" d="M0,14.14c256,0,512,0,768,0c0,256,0,512,0,768c-256,0-512,0-768,0C0,526.14,0,270.14,0,14.14z
			 M458.8,217.98c1.97,0,3.07,0,4.18,0c30.84,0.01,61.69,0.01,92.53,0.02c9.8,0,15.93,6.01,15.94,15.82
			c0.03,64.69,0.04,129.37,0.02,194.06c0,9.67-5.38,15-15.13,15.05c-10.86,0.05-21.73-0.01-32.59-0.02c-9.1-0.01-18.2,0-27.66,0
			c-6.73,25.95-13.43,51.77-20.19,77.84c11.77,0,22.59,0,33.88,0c-1.45-6.85-2.85-13.45-4.36-20.53c2.21,0,3.81,0,5.41,0
			c29.22,0,58.44-0.01,87.66,0.02c7.6,0.01,14.61-2.01,20.82-6.26c13.07-8.94,19.01-21.51,18.98-37.31
			c-0.1-52.7,0.01-105.4,0.01-158.09c0-31.97,0.06-63.94-0.12-95.9c-0.13-23.34-20.29-40.84-41.38-40.51
			c-40.7,0.63-81.42,0.23-122.13,0.26c-0.92,0-1.84,0.08-2.9,0.13C484.15,185.77,476.83,205.77,458.8,217.98z M304.05,162.46
			c-0.55-0.12-0.79-0.22-1.03-0.22c-42.32,0.07-84.64,0.14-126.96,0.24c-1.48,0-2.99,0.16-4.44,0.46
			c-19.43,4.11-32.9,20.44-32.96,40.37c-0.11,39.7-0.07,79.4-0.06,119.1c0,46.07-0.1,92.13,0.1,138.2
			c0.09,21.46,18.68,39.69,39.78,39.67c28.71-0.03,57.43-0.02,86.14-0.03c1.85,0,3.7,0,5.77,0c-1.51,7.04-2.93,13.64-4.41,20.49
			c11.58,0,22.6,0,33.76,0c-0.1-0.77-0.1-1.27-0.23-1.74c-6.41-23.95-12.91-47.88-19.16-71.87c-0.91-3.49-2.44-4.42-5.89-4.38
			c-18.35,0.22-36.7,0.2-55.05,0.22c-8.39,0.01-13.55-4.65-14.38-13.02c-0.25-2.47-0.16-4.99-0.16-7.48
			c-0.02-62.79-0.01-125.59-0.06-188.38c-0.01-10.39,5.39-16.06,15.77-16.07c30.84-0.03,61.67-0.03,92.51-0.05
			c0.91,0,1.82-0.11,3.16-0.19C293.25,202.16,294.49,177.67,304.05,162.46z M385.54,607.6c56.55,0,113.1,0.01,169.66-0.01
			c6.73,0,9.64-3.28,7.98-9.28c-5.16-18.6-10.41-37.19-15.73-55.74c-1.69-5.89-3.83-7.25-10.11-7.25
			c-67.04,0.02-134.08,0.04-201.11,0.06c-34.33,0.01-68.66,0-102.99,0.03c-6.77,0.01-8.82,1.49-10.42,7.28
			c-5,18.02-10,36.04-15,54.06c-2.16,7.78,0.12,10.85,8.08,10.85C272.43,607.6,328.99,607.6,385.54,607.6z M460.42,520.97
			c0.47-1.54,0.84-2.6,1.12-3.67c10-37.56,20-75.11,30-112.67c1.35-5.05,0.13-6.84-4.91-6.84c-66.3,0-132.6,0-198.9,0.03
			c-4.78,0-6.06,1.8-4.77,6.33c5.21,18.37,10.5,36.71,15.58,55.11c5.34,19.36,10.47,38.79,15.73,58.18
			c0.54,1.97,0.78,3.81,3.97,3.78c27.59-0.23,55.19-0.22,82.78-0.25C420.74,520.95,440.46,520.97,460.42,520.97z M366.87,382.83
			c-4.14-36.44-8.23-72.43-12.36-108.73c-1.68,0.42-2.57,0.49-3.3,0.86c-12.02,6.06-24.55,11.3-35.88,18.44
			c-17.01,10.72-28.18,26.25-30.23,46.74c-1.12,11.13-0.42,22.44-0.53,33.68c-0.03,2.96,0,5.92,0,9.03
			C311.95,382.83,338.87,382.83,366.87,382.83z M436.31,208.33c0.84-0.26,2.21-0.53,3.43-1.11c5.04-2.39,10.39-4.35,14.95-7.47
			c4.94-3.38,4.22-8.56-1.34-10.63c-4.87-1.82-10.15-2.56-15.5-3.84c0.61,8.11,0.71,8.61-6.64,10.06
			c-10.72,2.11-21.54,4.13-32.41,4.9c-18.49,1.31-36.9,0.01-54.83-5.28c-6.43-1.9-6.4-1.97-6.79-8.34
			c-0.01-0.21-0.24-0.42-0.57-0.93c-4.02,0.78-8.24,1.33-12.29,2.47c-2.67,0.75-5.68,1.74-6.13,5.26c-0.44,3.42,1.42,5.98,4.1,7.42
			c4.69,2.52,9.61,4.66,14.57,6.61c2.17,0.85,3.13,1.7,3.05,4.18c-0.31,9.18,0.77,18.17,4.02,26.85
			c8.85,23.62,31.78,36.58,54.81,30.44c19.44-5.18,30.28-18.98,34.95-37.79C435.44,223.96,435.43,216.35,436.31,208.33z
			 M490.75,382.74c0.06-1,0.15-1.84,0.15-2.68c0.04-10.98,0.11-21.96,0.07-32.94c-0.07-19.48-8.39-35.08-22.89-47.6
			c-11.48-9.92-25.34-15.75-38.85-22.16c-2.51-1.19-5.12-2.19-8.14-3.48c-4.11,36.61-8.15,72.61-12.22,108.86
			C436.73,382.74,463.61,382.74,490.75,382.74z M436.91,183.6c0.88-3.41,1.18-6.8,2.59-9.64c3.7-7.47,7.92-14.69,11.86-22.05
			c1.48-2.77,0.75-5.08-1.95-6.67c-1.28-0.76-2.61-1.49-4-2.02c-18.06-6.82-36.1-13.69-54.24-20.29c-2.13-0.77-5.03-0.76-7.15,0.02
			c-18.13,6.64-36.18,13.5-54.21,20.4c-7.1,2.72-7.43,4.77-4.15,11.53c4.54,9.36,12.5,17.24,12.44,28.45
			C371.38,190.17,404.42,190.06,436.91,183.6z M397.96,382.8c0-1.53,0.05-2.76-0.01-3.98c-1-20.31-1.85-40.62-3.13-60.91
			c-0.47-7.44-0.28-14.21,6.99-18.35c-4.77-5.02-9.2-9.69-13.99-14.73c-4.91,4.82-9.49,9.32-14.16,13.91
			c2.03,2.43,3.87,4.31,5.29,6.46c0.89,1.35,1.65,3.14,1.6,4.7c-0.49,13.34-1.2,26.67-1.81,40c-0.5,10.92-0.97,21.84-1.46,32.9
			C384.34,382.8,390.92,382.8,397.96,382.8z"/>
		<path d="M458.8,217.98c18.03-12.21,25.35-32.21,12.97-55.43c1.06-0.05,1.98-0.13,2.9-0.13c40.71-0.03,81.43,0.37,122.13-0.26
			c21.09-0.33,41.25,17.17,41.38,40.51c0.18,31.97,0.12,63.94,0.12,95.9c0,52.7-0.11,105.4-0.01,158.09
			c0.03,15.81-5.91,28.37-18.98,37.31c-6.21,4.25-13.23,6.27-20.82,6.26c-29.22-0.04-58.44-0.02-87.66-0.02c-1.6,0-3.2,0-5.41,0
			c1.5,7.08,2.9,13.68,4.36,20.53c-11.29,0-22.11,0-33.88,0c6.76-26.07,13.46-51.89,20.19-77.84c9.46,0,18.56,0,27.66,0
			c10.86,0.01,21.73,0.08,32.59,0.02c9.76-0.05,15.13-5.38,15.13-15.05c0.02-64.69,0.01-129.37-0.02-194.06
			c-0.01-9.81-6.14-15.81-15.94-15.82c-30.84-0.01-61.69-0.01-92.53-0.02C461.87,217.98,460.77,217.98,458.8,217.98z"/>
		<path d="M304.05,162.46c-9.56,15.21-10.8,39.7,12.18,55.32c-1.34,0.09-2.25,0.19-3.16,0.19c-30.84,0.02-61.67,0.02-92.51,0.05
			c-10.39,0.01-15.78,5.68-15.77,16.07c0.05,62.79,0.04,125.59,0.06,188.38c0,2.49-0.09,5.01,0.16,7.48
			c0.83,8.37,5.99,13.03,14.38,13.02c18.35-0.02,36.7,0,55.05-0.22c3.46-0.04,4.98,0.89,5.89,4.38
			c6.26,23.99,12.75,47.92,19.16,71.87c0.13,0.47,0.13,0.97,0.23,1.74c-11.16,0-22.17,0-33.76,0c1.47-6.85,2.89-13.45,4.41-20.49
			c-2.07,0-3.92,0-5.77,0c-28.71,0.01-57.43,0.01-86.14,0.03c-21.1,0.02-39.69-18.21-39.78-39.67c-0.19-46.07-0.1-92.13-0.1-138.2
			c0-39.7-0.05-79.4,0.06-119.1c0.06-19.94,13.52-36.26,32.96-40.37c1.45-0.31,2.96-0.46,4.44-0.46
			c42.32-0.1,84.64-0.17,126.96-0.24C303.25,162.24,303.5,162.34,304.05,162.46z M192.92,414.89c-0.06,0-0.11,0-0.17,0
			c0-6.86,0.02-13.72,0-20.59c-0.02-6.11-1.55-8.5-5.4-8.57c-3.95-0.07-5.76,2.61-5.77,8.68c-0.02,13.85-0.07,27.7,0.04,41.55
			c0.02,1.9,0.37,4.25,1.52,5.56c1.18,1.34,3.81,2.61,5.29,2.17c1.71-0.5,3.11-2.76,4.15-4.55c0.61-1.06,0.33-2.68,0.33-4.05
			C192.93,428.36,192.92,421.63,192.92,414.89z"/>
		<path d="M385.54,607.6c-56.55,0-113.1,0-169.66,0c-7.96,0-10.24-3.06-8.08-10.85c5-18.02,10-36.04,15-54.06
			c1.61-5.79,3.65-7.27,10.42-7.28c34.33-0.03,68.66-0.02,102.99-0.03c67.04-0.02,134.08-0.04,201.11-0.06
			c6.27,0,8.42,1.35,10.11,7.25c5.33,18.56,10.57,37.14,15.73,55.74c1.66,5.99-1.24,9.27-7.98,9.28
			C498.64,607.6,442.09,607.6,385.54,607.6z M384.57,592.75c0-0.03,0-0.06,0-0.09c14.59,0,29.19-0.02,43.78,0.02
			c3,0.01,5.11-1.2,5.95-4.08c0.85-2.9,0.16-5.61-2.45-7.24c-1.49-0.93-3.45-1.51-5.2-1.52c-28.19-0.07-56.38-0.04-84.57,0
			c-4.9,0.01-7.67,2.4-7.54,6.32c0.14,4.27,2.88,6.6,7.74,6.59C356.38,592.74,370.47,592.75,384.57,592.75z M426.32,576.82
			c1.75,0,3.49,0.04,5.24-0.01c4.57-0.12,6.54-2.08,6.63-6.69c0.06-2.99,0.14-6-0.03-8.98c-0.2-3.42-1.94-5.65-5.61-5.7
			c-4.24-0.06-8.49-0.1-12.72,0.09c-3.36,0.15-5.2,2.12-5.39,5.51c-0.07,1.24-0.05,2.49-0.05,3.74
			C414.32,576.29,414.91,576.88,426.32,576.82z M469.77,576.77c1.79,0,3.78,0.05,5.77-0.01c3.93-0.12,6.05-2.11,6.17-5.93
			c0.11-3.23,0.1-6.47,0-9.7c-0.1-3.32-1.87-5.59-5.19-5.71c-4.71-0.17-9.45,0.08-14.16,0.37c-2.73,0.17-4.18,2.04-4.46,4.69
			c-0.16,1.48-0.03,2.98-0.08,4.47C457.47,574.19,458.3,577.69,469.77,576.77z M253.06,555.58c-2.37,0-4.74-0.1-7.1,0.02
			c-3.04,0.16-4.97,1.9-5.15,4.9c-0.21,3.59-0.28,7.25,0.14,10.82c0.41,3.48,2.69,5.5,6.4,5.49c3.74-0.01,7.48,0.05,11.22-0.07
			c3.86-0.12,5.81-2.21,5.94-6.15c0.04-1.25,0.02-2.49,0.02-3.74C264.56,555.51,264.33,555.28,253.06,555.58z M296.16,555.53
			c-2.37,0-4.74-0.13-7.1,0.03c-3.02,0.21-4.87,1.94-5,5c-0.14,3.48-0.25,7,0.06,10.46c0.29,3.29,2.15,5.63,5.74,5.72
			c4.11,0.11,8.23,0.09,12.33-0.1c3.53-0.16,5.37-2.3,5.62-5.77c0.09-1.24-0.02-2.49,0.03-3.74
			C308.3,556.47,306.74,554.76,296.16,555.53z M339.09,576.83c2.15,0,3.77,0,5.39,0c4.71-0.01,6.92-2.08,7.02-6.68
			c0.06-2.86,0.09-5.73,0.02-8.58c-0.1-4.1-1.8-6.07-5.84-6.17c-4.47-0.11-8.95,0.15-13.42,0.37c-2.61,0.13-4.03,1.76-4.38,4.27
			c-0.2,1.47-0.25,2.98-0.27,4.47C327.45,574.06,327.2,577.63,339.09,576.83z M383.29,555.42c-1.87,0-3.73-0.07-5.59,0.01
			c-4.52,0.22-6.14,1.62-6.4,6.04c-0.19,3.34-0.11,6.71,0.18,10.04c0.29,3.32,2.53,5.11,5.71,5.28c3.97,0.21,7.96,0.15,11.93,0.03
			c3.32-0.1,5.43-2.3,5.69-5.69c0.1-1.36,0.04-2.73,0.05-4.1C394.94,555.48,394.81,555.35,383.29,555.42z M513.21,576.74
			c1.62,0,3.25,0.03,4.87-0.01c5.06-0.11,7.04-2.07,7.1-7.03c0.03-2.75,0.09-5.5-0.02-8.24c-0.15-3.82-2.33-6.09-6.12-6.12
			c-4.24-0.04-8.48,0.21-12.72,0.37c-2.83,0.11-4.29,1.85-4.76,4.42c-0.29,1.58-0.23,3.23-0.24,4.85
			C501.27,576.14,501.97,576.82,513.21,576.74z"/>
		<path d="M460.42,520.97c-19.96,0-39.68-0.02-59.4,0c-27.59,0.03-55.19,0.02-82.78,0.25c-3.2,0.03-3.44-1.81-3.97-3.78
			c-5.26-19.39-10.38-38.81-15.73-58.18c-5.08-18.4-10.37-36.75-15.58-55.11c-1.29-4.53-0.01-6.33,4.77-6.33
			c66.3-0.03,132.6-0.03,198.9-0.03c5.03,0,6.25,1.78,4.91,6.84c-10,37.56-20,75.11-30,112.67
			C461.26,518.37,460.9,519.42,460.42,520.97z M384.13,433.92c-2.72,0-5.2-0.19-7.64,0.05c-3.64,0.36-4.77,3.43-2.59,6.35
			c0.61,0.81,1.23,1.87,1.24,2.82c0.02,10.36-0.06,20.72-0.21,31.08c-0.01,0.95-0.63,2.62-1.16,2.7c-2.48,0.38-2.06,2.07-2.06,3.66
			c0,4.84,0,9.67,0,14.52c-1.35,0.19-2.33,0.36-3.32,0.47c-2.95,0.31-4.5,1.72-4.3,4.91c0.19,3.17,2,3.85,4.76,3.84
			c12.48-0.08,24.97-0.12,37.45-0.05c2.68,0.01,4.54-0.89,4.74-3.58c0.21-2.64-1.17-4.54-3.94-5.08c-1.2-0.23-2.41-0.37-3.83-0.58
			c0-4.82,0.08-9.55-0.06-14.28c-0.04-1.24-0.52-3.32-1.23-3.53c-2.36-0.68-1.89-2.33-1.91-3.85c-0.1-9.86-0.2-19.72-0.19-29.58
			c0-1.1,0.81-2.17,1.01-3.3c0.29-1.63,0.86-3.47,0.36-4.89c-0.32-0.9-2.32-1.53-3.63-1.69c-2.3-0.27-4.65-0.07-7.02-0.07
			c0-2.79,0-5.1,0-7.46c2.41-0.23,5.16,0.51,5.19-3.28c0.04-4.14-3.33-2.11-4.9-2.75c-0.98-2.29,0.94-5.65-3.19-6
			c-4.77-0.4-2.67,3.8-3.88,5.7c-5.65,0.52-6.02,1.08-4.06,5.98c1.4,0.18,2.83,0.36,4.36,0.55
			C384.13,428.91,384.13,431.01,384.13,433.92z M425.85,464.52c-0.53-1.56-0.95-3.68-1.96-5.46c-0.65-1.15-2.12-2.4-3.31-2.5
			c-0.88-0.07-2.33,1.47-2.79,2.6c-1.92,4.65-1.79,9.48,1.32,13.41c1.35,1.7,4.42,2.96,6.65,2.88c6.58-0.23,12.45-7.69,11.92-14.31
			c-0.25-3.13-1.73-4.31-4.39-2.74C430.52,460.03,428.24,462.51,425.85,464.52z M349.49,464.88c-2.69-2.15-5.27-4.53-8.18-6.43
			c-2.3-1.5-3.77-0.3-3.99,2.34c-0.54,6.51,5.44,14.2,11.88,14.65c2.08,0.15,4.96-0.67,6.28-2.13c3.54-3.91,3.72-8.85,1.98-13.69
			c-0.42-1.17-2.12-2.84-2.93-2.69c-1.45,0.28-3.15,1.5-3.87,2.81C349.77,461.36,349.78,463.46,349.49,464.88z M349.73,443.56
			c-0.61-1.89-1.24-4.68-2.42-7.22c-0.54-1.15-2.16-2.49-3.28-2.49c-1,0-2.46,1.56-2.92,2.74c-1.82,4.63-1.82,9.41,0.95,13.62
			c1.11,1.68,3.34,3.2,5.31,3.6c6.39,1.31,12.89-3.58,13.99-9.98c0.46-2.7-0.73-4.58-3.31-3.97
			C355.13,440.56,352.46,442.3,349.73,443.56z M425.27,444.21c-2.07-1.39-4.04-3.23-6.37-4.16c-3.54-1.41-5.97,0.84-4.59,4.32
			c1.1,2.78,2.83,5.61,5.02,7.61c3.8,3.46,10.5,2.87,13.07-0.87c3.17-4.61,3.73-9.74,1.55-14.95c-1.39-3.32-4.13-3.58-5.77-0.43
			C426.77,438.43,426.15,441.54,425.27,444.21z M412.67,472.93c-4.9,3.38-7.07,12.51-4.1,17.22c0.69,1.09,1.86,2.16,3.04,2.62
			c5.04,1.94,14.52-1.61,17.27-6.27c1.81-3.07,1.04-4.78-2.63-4.74c-3.39,0.03-6.78,0.76-10.12,1.18
			C416.1,476.08,416.1,476.08,412.67,472.93z M358.58,483.28c-2.64-0.49-5.73-1.26-8.87-1.55c-1.1-0.1-2.9,0.7-3.31,1.58
			c-0.43,0.93,0.09,2.66,0.74,3.69c2.77,4.37,11.53,7.39,16.37,5.58c1.39-0.52,2.79-1.77,3.54-3.06c2.5-4.25,0.64-12.41-3.19-15.46
			c-1.54-1.22-2.95-1.24-3.51,0.63C359.5,477.56,359.12,480.57,358.58,483.28z M351.33,433.91c0.15,0.32,0.53,2.26,1.32,2.46
			c1.66,0.4,3.98,0.5,5.25-0.39c3.68-2.57,6-6.27,6.28-10.91c0.21-3.37-0.99-4.21-4.3-3.27
			C355.16,423.14,351.43,427.98,351.33,433.91z M411.03,424.63c-0.06,5.19,3.12,10.33,7.27,12.04c3.44,1.42,5.37,0.23,5.51-3.41
			c0.18-4.55-4.34-10.47-8.79-11.42C412.56,421.31,410.71,421.76,411.03,424.63z"/>
		<path d="M366.87,382.83c-28.01,0-54.93,0-82.32,0c0-3.1-0.02-6.06,0-9.03c0.11-11.23-0.58-22.55,0.53-33.68
			c2.06-20.49,13.22-36.02,30.23-46.74c11.34-7.14,23.87-12.38,35.88-18.44c0.73-0.37,1.62-0.43,3.3-0.86
			C358.64,310.4,362.73,346.39,366.87,382.83z"/>
		<path d="M436.31,208.33c-0.87,8.02-0.87,15.63-2.64,22.79c-4.67,18.81-15.51,32.61-34.95,37.79
			c-23.03,6.14-45.96-6.81-54.81-30.44c-3.25-8.67-4.33-17.67-4.02-26.85c0.08-2.48-0.88-3.33-3.05-4.18
			c-4.96-1.95-9.88-4.09-14.57-6.61c-2.68-1.44-4.54-4-4.1-7.42c0.45-3.52,3.47-4.51,6.13-5.26c4.05-1.14,8.27-1.69,12.29-2.47
			c0.32,0.51,0.55,0.71,0.57,0.93c0.39,6.37,0.36,6.44,6.79,8.34c17.93,5.29,36.34,6.58,54.83,5.28c10.87-0.77,21.7-2.8,32.41-4.9
			c7.35-1.45,7.26-1.94,6.64-10.06c5.35,1.28,10.63,2.02,15.5,3.84c5.56,2.08,6.28,7.25,1.34,10.63c-4.56,3.12-9.91,5.08-14.95,7.47
			C438.52,207.8,437.15,208.07,436.31,208.33z"/>
		<path d="M490.75,382.74c-27.13,0-54.02,0-81.88,0c4.07-36.26,8.11-72.26,12.22-108.86c3.02,1.29,5.63,2.29,8.14,3.48
			c13.51,6.41,27.37,12.25,38.85,22.16c14.5,12.52,22.82,28.12,22.89,47.6c0.04,10.98-0.04,21.96-0.07,32.94
			C490.9,380.9,490.81,381.74,490.75,382.74z M437.71,361.14c7.65,0.16,14.06-5.86,14.24-13.38c0.18-7.73-6.04-14.28-13.69-14.4
			c-7.74-0.12-13.95,5.76-14.18,13.41C423.86,354.55,429.95,360.97,437.71,361.14z"/>
		<path d="M436.91,183.6c-32.49,6.45-65.53,6.56-98.81-0.27c0.06-11.21-7.89-19.09-12.44-28.45c-3.28-6.76-2.95-8.81,4.15-11.53
			c18.03-6.91,36.08-13.76,54.21-20.4c2.13-0.78,5.03-0.79,7.15-0.02c18.14,6.61,36.18,13.47,54.24,20.29
			c1.39,0.52,2.71,1.26,4,2.02c2.7,1.59,3.44,3.9,1.95,6.67c-3.94,7.36-8.16,14.58-11.86,22.05
			C438.09,176.8,437.79,180.19,436.91,183.6z M401.55,163.88c0.03-7.66-6.03-13.81-13.7-13.88c-7.25-0.07-13.53,6.15-13.69,13.56
			c-0.16,7.42,6.23,13.88,13.74,13.89C395.27,177.47,401.53,171.25,401.55,163.88z"/>
		<path d="M397.96,382.8c-7.03,0-13.61,0-20.69,0c0.49-11.07,0.96-21.99,1.46-32.9c0.62-13.33,1.32-26.66,1.81-40
			c0.06-1.56-0.71-3.35-1.6-4.7c-1.42-2.16-3.26-4.03-5.29-6.46c4.67-4.58,9.25-9.08,14.16-13.91c4.79,5.04,9.22,9.71,13.99,14.73
			c-7.28,4.14-7.47,10.91-6.99,18.35c1.29,20.29,2.13,40.6,3.13,60.91C398.01,380.04,397.96,381.27,397.96,382.8z"/>
		<path fill="#FFFFFF" d="M192.92,414.89c0,6.74,0.01,13.47-0.01,20.21c0,1.37,0.28,2.99-0.33,4.05c-1.03,1.79-2.44,4.04-4.15,4.55
			c-1.48,0.44-4.11-0.83-5.29-2.17c-1.15-1.31-1.51-3.66-1.52-5.56c-0.11-13.85-0.06-27.7-0.04-41.55c0.01-6.07,1.81-8.75,5.77-8.68
			c3.86,0.07,5.38,2.45,5.4,8.57c0.02,6.86,0,13.72,0,20.59C192.8,414.89,192.86,414.89,192.92,414.89z"/>
		<path fill="#FFFFFF" d="M384.57,592.75c-14.1,0-28.19,0-42.29,0c-4.86,0-7.6-2.32-7.74-6.59c-0.13-3.93,2.64-6.32,7.54-6.32
			c28.19-0.04,56.38-0.07,84.57,0c1.75,0,3.72,0.59,5.2,1.52c2.61,1.63,3.29,4.34,2.45,7.24c-0.84,2.88-2.96,4.09-5.95,4.08
			c-14.59-0.04-29.19-0.02-43.78-0.02C384.57,592.68,384.57,592.72,384.57,592.75z"/>
		<path fill="#FFFFFF" d="M426.32,576.81c-11.4,0.07-12-0.53-11.94-12.04c0.01-1.25-0.01-2.5,0.05-3.74
			c0.18-3.4,2.03-5.37,5.39-5.51c4.23-0.19,8.48-0.14,12.72-0.09c3.67,0.05,5.41,2.28,5.61,5.7c0.18,2.98,0.1,5.99,0.03,8.98
			c-0.1,4.61-2.07,6.58-6.63,6.69C429.81,576.85,428.06,576.82,426.32,576.81z"/>
		<path fill="#FFFFFF" d="M469.77,576.77c-11.47,0.92-12.29-2.57-11.95-11.83c0.06-1.49-0.07-3,0.08-4.47
			c0.28-2.65,1.73-4.51,4.46-4.69c4.71-0.3,9.45-0.54,14.16-0.37c3.32,0.12,5.09,2.39,5.19,5.71c0.1,3.23,0.11,6.47,0,9.7
			c-0.13,3.83-2.24,5.81-6.17,5.93C473.55,576.82,471.56,576.77,469.77,576.77z"/>
		<path fill="#FFFFFF" d="M253.06,555.58c11.28-0.29,11.51-0.07,11.47,11.28c0,1.25,0.02,2.49-0.02,3.74
			c-0.13,3.94-2.08,6.03-5.94,6.15c-3.74,0.11-7.48,0.06-11.22,0.07c-3.71,0.01-5.98-2.02-6.4-5.49c-0.42-3.56-0.36-7.22-0.14-10.82
			c0.18-3,2.1-4.74,5.15-4.9C248.32,555.48,250.69,555.58,253.06,555.58z"/>
		<path fill="#FFFFFF" d="M296.16,555.53c10.58-0.78,12.13,0.94,11.69,11.61c-0.05,1.24,0.06,2.5-0.03,3.74
			c-0.25,3.48-2.09,5.61-5.62,5.77c-4.1,0.19-8.22,0.2-12.33,0.1c-3.59-0.09-5.45-2.44-5.74-5.72c-0.31-3.46-0.2-6.97-0.06-10.46
			c0.13-3.06,1.98-4.79,5-5C291.42,555.4,293.79,555.53,296.16,555.53z"/>
		<path fill="#FFFFFF" d="M339.09,576.83c-11.89,0.8-11.64-2.77-11.49-12.33c0.02-1.49,0.06-2.99,0.27-4.47
			c0.35-2.51,1.77-4.14,4.38-4.27c4.47-0.22,8.95-0.48,13.42-0.37c4.04,0.1,5.74,2.06,5.84,6.17c0.07,2.86,0.05,5.72-0.02,8.58
			c-0.1,4.6-2.32,6.67-7.02,6.68C342.86,576.83,341.24,576.83,339.09,576.83z"/>
		<path fill="#FFFFFF" d="M383.29,555.43c11.52-0.07,11.65,0.06,11.57,11.62c-0.01,1.37,0.05,2.74-0.05,4.1
			c-0.26,3.38-2.37,5.58-5.69,5.69c-3.98,0.12-7.97,0.18-11.93-0.03c-3.19-0.17-5.43-1.96-5.71-5.28
			c-0.29-3.33-0.37-6.71-0.18-10.04c0.26-4.42,1.88-5.82,6.4-6.04C379.55,555.35,381.42,555.42,383.29,555.43z"/>
		<path fill="#FFFFFF" d="M513.21,576.74c-11.23,0.08-11.93-0.61-11.89-11.75c0.01-1.62-0.05-3.27,0.24-4.85
			c0.46-2.57,1.93-4.31,4.76-4.42c4.24-0.16,8.48-0.41,12.72-0.37c3.79,0.03,5.97,2.3,6.12,6.12c0.11,2.74,0.05,5.49,0.02,8.24
			c-0.05,4.96-2.04,6.93-7.1,7.03C516.45,576.77,514.83,576.74,513.21,576.74z"/>
		<path fill="#FFFFFF" d="M384.13,433.92c0-2.91,0-5.01,0-7.36c-1.53-0.19-2.96-0.37-4.36-0.55c-1.97-4.9-1.59-5.46,4.06-5.98
			c1.21-1.9-0.89-6.1,3.88-5.7c4.13,0.35,2.2,3.71,3.19,6c1.57,0.63,4.94-1.39,4.9,2.75c-0.03,3.79-2.78,3.05-5.19,3.28
			c0,2.37,0,4.67,0,7.46c2.37,0,4.72-0.19,7.02,0.07c1.32,0.15,3.32,0.79,3.63,1.69c0.5,1.42-0.07,3.26-0.36,4.89
			c-0.2,1.13-1.01,2.2-1.01,3.3c-0.01,9.86,0.09,19.72,0.19,29.58c0.02,1.52-0.45,3.17,1.91,3.85c0.71,0.2,1.19,2.29,1.23,3.53
			c0.14,4.72,0.06,9.45,0.06,14.28c1.42,0.21,2.63,0.34,3.83,0.58c2.77,0.54,4.14,2.44,3.94,5.08c-0.21,2.69-2.07,3.59-4.74,3.58
			c-12.48-0.07-24.97-0.03-37.45,0.05c-2.76,0.02-4.57-0.67-4.76-3.84c-0.2-3.19,1.35-4.59,4.3-4.91c0.99-0.11,1.97-0.27,3.32-0.47
			c0-4.85,0-9.69,0-14.52c0-1.59-0.42-3.28,2.06-3.66c0.53-0.08,1.15-1.75,1.16-2.7c0.15-10.36,0.23-20.72,0.21-31.08
			c0-0.95-0.63-2.01-1.24-2.82c-2.19-2.92-1.05-5.99,2.59-6.35C378.93,433.72,381.41,433.92,384.13,433.92z M383.4,471.47
			c3.08,0,5.84,0,8.6,0c0-6.4,0-12.54,0-18.79c-3.05,0-5.72,0-8.6,0C383.4,459.04,383.4,465.18,383.4,471.47z M394,494.54
			c0-4.19,0-8.08,0-11.98c-4.61,0-8.89,0-13.2,0c0,4.11,0,7.98,0,11.98C385.36,494.54,389.56,494.54,394,494.54z"/>
		<path fill="#FFFFFF" d="M425.85,464.52c2.38-2.01,4.66-4.49,7.44-6.13c2.67-1.57,4.14-0.39,4.39,2.74
			c0.54,6.62-5.34,14.08-11.92,14.31c-2.23,0.08-5.3-1.17-6.65-2.88c-3.11-3.93-3.25-8.76-1.32-13.41c0.47-1.13,1.91-2.67,2.79-2.6
			c1.19,0.1,2.66,1.35,3.31,2.5C424.91,460.84,425.33,462.95,425.85,464.52z"/>
		<path fill="#FFFFFF" d="M349.49,464.88c0.29-1.42,0.28-3.52,1.16-5.13c0.72-1.31,2.42-2.53,3.87-2.81
			c0.81-0.15,2.51,1.52,2.93,2.69c1.74,4.84,1.56,9.78-1.98,13.69c-1.32,1.46-4.2,2.27-6.28,2.13c-6.45-0.45-12.43-8.14-11.88-14.65
			c0.22-2.64,1.69-3.84,3.99-2.34C344.22,460.35,346.8,462.73,349.49,464.88z"/>
		<path fill="#FFFFFF" d="M349.73,443.56c2.73-1.26,5.4-3.01,8.32-3.69c2.58-0.61,3.78,1.27,3.31,3.97
			c-1.1,6.39-7.6,11.28-13.99,9.98c-1.97-0.4-4.2-1.93-5.31-3.6c-2.77-4.21-2.77-8.99-0.95-13.62c0.46-1.18,1.92-2.73,2.92-2.74
			c1.12,0,2.74,1.33,3.28,2.49C348.49,438.88,349.12,441.67,349.73,443.56z"/>
		<path fill="#FFFFFF" d="M425.27,444.21c0.88-2.68,1.5-5.78,2.9-8.48c1.64-3.16,4.38-2.89,5.77,0.43
			c2.18,5.2,1.62,10.33-1.55,14.95c-2.57,3.74-9.27,4.33-13.07,0.87c-2.19-1.99-3.92-4.82-5.02-7.61c-1.37-3.48,1.06-5.73,4.59-4.32
			C421.23,440.98,423.2,442.82,425.27,444.21z"/>
		<path fill="#FFFFFF" d="M412.67,472.93c3.44,3.15,3.44,3.15,3.46,10.01c3.34-0.42,6.73-1.15,10.12-1.18
			c3.67-0.03,4.44,1.67,2.63,4.74c-2.75,4.66-12.23,8.2-17.27,6.27c-1.19-0.46-2.35-1.52-3.04-2.62
			C405.59,485.43,407.77,476.31,412.67,472.93z"/>
		<path fill="#FFFFFF" d="M358.58,483.28c0.54-2.72,0.92-5.72,1.78-8.59c0.56-1.87,1.97-1.85,3.51-0.63
			c3.83,3.05,5.69,11.21,3.19,15.46c-0.76,1.29-2.16,2.54-3.54,3.06c-4.84,1.82-13.6-1.21-16.37-5.58
			c-0.65-1.03-1.18-2.76-0.74-3.69c0.41-0.89,2.21-1.68,3.31-1.58C352.85,482.03,355.94,482.79,358.58,483.28z"/>
		<path fill="#FFFFFF" d="M351.33,433.91c0.1-5.93,3.83-10.77,8.55-12.11c3.31-0.94,4.51-0.1,4.3,3.27
			c-0.28,4.64-2.6,8.34-6.28,10.91c-1.27,0.89-3.59,0.79-5.25,0.39C351.85,436.17,351.48,434.22,351.33,433.91z"/>
		<path fill="#FFFFFF" d="M411.03,424.63c-0.31-2.87,1.53-3.31,4-2.79c4.45,0.95,8.97,6.87,8.79,11.42
			c-0.15,3.63-2.08,4.83-5.51,3.41C414.15,434.96,410.97,429.81,411.03,424.63z"/>
		<path fill="#FFFFFF" d="M437.71,361.14c-7.77-0.16-13.86-6.59-13.63-14.37c0.23-7.66,6.44-13.54,14.18-13.41
			c7.65,0.12,13.87,6.67,13.69,14.4C451.77,355.28,445.36,361.3,437.71,361.14z"/>
		<path fill="#FFFFFF" d="M401.55,163.88c-0.03,7.36-6.28,13.59-13.64,13.57c-7.52-0.01-13.9-6.47-13.74-13.89
			c0.16-7.41,6.44-13.64,13.69-13.56C395.52,150.07,401.58,156.22,401.55,163.88z"/>
		<path d="M383.4,471.47c0-6.3,0-12.44,0-18.79c2.88,0,5.56,0,8.6,0c0,6.25,0,12.38,0,18.79
			C389.24,471.47,386.48,471.47,383.4,471.47z"/>
		<path d="M394,494.54c-4.45,0-8.65,0-13.2,0c0-4,0-7.87,0-11.98c4.31,0,8.59,0,13.2,0C394,486.46,394,490.35,394,494.54z"/>
	</g>
</g>
</svg>
