<?xml version="1.0" encoding="utf-8"?>
<!-- Generator: Adobe Illustrator 27.8.0, SVG Export Plug-In . SVG Version: 6.00 Build 0)  -->
<svg version="1.1" id="Capa_1" xmlns="http://www.w3.org/2000/svg" xmlns:xlink="http://www.w3.org/1999/xlink" x="0px" y="0px"
	 viewBox="0 0 1024 1024" enable-background="new 0 0 1024 1024" xml:space="preserve">
<g>
	<g>
		<path fill="#FFFFFF" d="M0.32,1023.68c0-341.33,0-682.67,0-1024c341.33,0,682.67,0,1024,0c0,341.33,0,682.67,0,1024
			C682.99,1023.68,341.65,1023.68,0.32,1023.68z M875.31,675.01c-1.16,0.1-1.96,0.12-2.74,0.23c-19.27,2.79-38.54,5.53-57.8,8.41
			c-28.63,4.28-57.35,8.12-85.85,13.12c-35.38,6.21-57.3,33.19-57.5,69.2c-0.07,12.5,0.14,25.01-0.3,37.49
			c-0.9,25.85-18.78,43.13-44.64,43.22c-40.83,0.14-81.66,0.13-122.49,0.13c-83.33,0.01-166.66,0.06-249.99-0.18
			c-6.16-0.02-12.88-1-18.36-3.59c-16.53-7.83-23.75-21.53-23.73-39.89c0.16-165.49,0.11-330.98,0.12-496.47
			c0-30.67,0.09-61.33-0.01-92c-0.04-12.37,4.63-22.31,14.32-29.9c7.15-5.6,15.49-7.37,24.38-7.37
			c44.83,0.01,89.66-0.01,134.49-0.01c2.25,0,4.51,0,6.74,0c0-19.06,0-37.33,0-56.15c-2.08,0-3.87,0-5.67,0
			c-53.16,0.01-106.33-0.05-159.49,0.11c-7.12,0.02-14.42,0.36-21.33,1.88c-32.99,7.29-56.05,36.44-56.08,71.08
			c-0.14,146.83-0.12,293.65-0.13,440.48c-0.01,65.16-0.14,130.33,0.13,195.49c0.16,39.76,32.44,72.71,72.88,72.62
			c192.82-0.42,385.65-0.41,578.47-0.04c45.69,0.09,75.97-35.4,75.01-75.28c-1.19-49.3-0.23-98.65-0.21-147.99
			C875.52,678.16,875.39,676.7,875.31,675.01z M875.45,643.47c0-2,0-3.48,0-4.97c-0.01-90.83-0.11-181.66,0.05-272.5
			c0.04-19.75-7.13-35.85-21.54-49.13c-15.32-14.11-30.42-28.46-45.59-42.73c-47.69-44.87-95.33-89.79-143.08-134.61
			c-12.24-11.49-26.85-17.89-43.76-18.01c-31-0.21-62-0.14-92.99-0.17c-1.45,0-2.9,0.21-4.26,0.32c0,18.72,0,37.08,0,55.77
			c4.38,0,8.19,0,12,0c19.67-0.03,39.33-0.08,59-0.08c14.11,0.01,25.75,5.21,31.93,18.26c2.95,6.24,4.4,13.7,4.56,20.65
			c0.56,25.49,0.88,51.01,0.17,76.49c-0.73,26.09,20.65,52.73,52.13,51.93c30.15-0.76,60.33-0.23,90.49-0.07
			c15.56,0.08,28.29,6.02,34.61,20.83c2.77,6.5,3.82,14.2,3.84,21.35c0.25,86.16,0.17,172.33,0.17,258.5c0,2.3,0,4.59,0,7.48
			C834.16,649.66,854.51,646.6,875.45,643.47z M380.53,278.41c2.85,12.67,5.32,24.21,8.12,35.67c0.75,3.08,0.16,4.68-2.44,6.57
			c-30.66,22.32-43.42,52.68-38.83,90.01c5.99,48.64,50.89,90.04,107.38,79.29c52.98-10.08,85.94-63.44,71.88-116.54
			c-7.14-26.96-24.26-46.19-48.37-59.42c-3.27-1.79-4.04-3.7-3.64-7.08c0.7-5.95,1.08-11.94,1.51-17.92
			c0.43-6.01,0.76-12.02,1.19-18.99c-10.16,6.24-19.44,11.93-28.94,17.77c-7.04-9.58-13.84-18.83-20.96-28.52
			c-5.14,11.25-9.81,21.46-14.56,31.85C402.02,286.86,391.71,282.8,380.53,278.41z M303.55,632.85
			c90.15,6.05,179.76,6.26,270.83-0.39c-1.28-13.44-1.04-26.32-3.93-38.44c-10.23-42.96-37.88-70.69-78.56-86.28
			c-3.77-1.45-6.71-1.32-10.6,0.62c-29.91,14.88-59.82,14.88-89.55-0.9c-1.57-0.84-4.12-0.72-5.91-0.13
			c-21.47,7.11-39.91,18.85-54.84,36.03C308.82,568.86,301.03,598.73,303.55,632.85z M779.38,496.63c0-18.66,0.14-37.31-0.04-55.97
			c-0.15-15.2-11.98-27.71-27.08-27.85c-36.47-0.32-72.96-0.3-109.43-0.05c-14.22,0.1-26.33,12.09-26.42,26.22
			c-0.26,37.64-0.29,75.29,0.05,112.93c0.15,16.39,12.02,27.93,28.37,28.02c35.31,0.19,70.62,0.14,105.93-0.12
			c17.33-0.13,28.53-11.86,28.59-29.21C779.43,532.61,779.38,514.62,779.38,496.63z M496.17,121.77c-25.64,0-50.81,0-76.51,0
			c0,25.59,0,50.65,0,75.21c-4.26,1.25-8.19,1.75-11.46,3.5c-6.54,3.49-9.36,10.84-7.64,17.97c1.7,7.08,7.48,12.06,15.17,12.21
			c13.49,0.27,26.98,0.16,40.47,0.17c14.32,0.01,28.65,0.12,42.97-0.1c9.42-0.14,16.67-7.14,16.92-15.73
			c0.25-8.51-6.61-16.07-15.65-17.22c-1.26-0.16-2.55-0.17-4.26-0.29C496.17,172.09,496.17,147.01,496.17,121.77z M398.29,741.8
			c36.15,0,72.3,0,108.45,0c7.16,0,14.33,0.01,21.49-0.11c5.26-0.08,7.11-1.93,7.34-7.26c0.14-3.33,0.1-6.66,0.04-9.99
			c-0.12-7.67-1.76-9.17-9.62-9.16c-83.46,0.06-166.93,0.18-250.39,0.13c-16.68-0.01-16.19-0.26-15.97,16.21
			c0.12,8.78,1.55,10.2,10.21,10.2C312.66,741.82,355.48,741.82,398.29,741.8z M398.33,810.82c35.99,0,71.99,0,107.98,0
			c6.67,0,13.33-0.04,20-0.08c7.38-0.04,9.22-1.81,9.38-8.98c0.05-2.5,0.09-5,0.08-7.5c-0.01-8.02-1.74-9.78-9.63-9.78
			c-83.65,0.02-167.31,0.04-250.96,0.06c-15.82,0-16.06,0.26-15.57,16.35c0.25,8.15,2.08,9.92,10.24,9.92
			C312.68,810.81,355.51,810.81,398.33,810.82z M259.53,682.58c3.09,0,5.72,0,8.36,0c128.13-0.02,256.26-0.11,384.39,0.08
			c9.12,0.01,17.37-1.7,25.4-5.73c6.1-3.06,12.39-5.75,18.59-8.6c-0.1-0.2-0.2-0.41-0.29-0.61c-145.39,0-290.79,0-436.45,0
			C259.53,672.58,259.53,677.17,259.53,682.58z M697.82,627.42c22.83,0,45.67,0.02,68.5-0.03c2.31-0.01,5.01,0.24,6.82-0.83
			c2.03-1.2,4.31-3.65,4.52-5.76c0.21-2.11-1.49-5.11-3.29-6.51c-1.73-1.35-4.67-1.57-7.08-1.57c-46.17-0.08-92.33-0.06-138.5-0.05
			c-1.5,0-3.07-0.17-4.47,0.22c-3.67,1-6.33,3.02-5.99,7.37c0.32,4.05,2.6,6.37,6.5,7.08c1.29,0.23,2.66,0.1,3.99,0.1
			C651.82,627.44,674.82,627.44,697.82,627.42z M632.92,749.83c-20.61,0-40.95,0-61.26,0c0,5.87,0,11.29,0,16.99
			c20.55,0,40.75,0,61.26,0C632.92,761.09,632.92,755.66,632.92,749.83z M632.94,716.8c-20.62,0-40.97,0-61.29,0
			c0,5.86,0,11.28,0,16.74c20.55,0,40.76,0,61.29,0C632.94,727.87,632.94,722.6,632.94,716.8z M632.87,798.62c0-6.04,0-11.43,0-16.8
			c-20.59,0-40.82,0-61.27,0c0,5.71,0,11.11,0,16.8C592.13,798.62,612.35,798.62,632.87,798.62z"/>
		<path d="M875.31,675.01c0.08,1.69,0.21,3.15,0.21,4.61c-0.02,49.33-0.97,98.68,0.21,147.99c0.96,39.88-29.32,75.36-75.01,75.28
			c-192.82-0.36-385.65-0.38-578.47,0.04c-40.43,0.09-72.71-32.86-72.88-72.62c-0.27-65.16-0.13-130.33-0.13-195.49
			c0.02-146.83-0.01-293.65,0.13-440.48c0.03-34.64,23.09-63.8,56.08-71.08c6.92-1.53,14.21-1.86,21.33-1.88
			c53.16-0.16,106.33-0.1,159.49-0.11c1.8,0,3.6,0,5.67,0c0,18.82,0,37.09,0,56.15c-2.23,0-4.48,0-6.74,0
			c-44.83,0.01-89.66,0.03-134.49,0.01c-8.89,0-17.23,1.77-24.38,7.37c-9.69,7.59-14.36,17.53-14.32,29.9
			c0.1,30.66,0.01,61.33,0.01,92c-0.01,165.49,0.04,330.98-0.12,496.47c-0.02,18.36,7.2,32.06,23.73,39.89
			c5.48,2.6,12.2,3.58,18.36,3.59c83.33,0.24,166.66,0.19,249.99,0.18c40.83,0,81.66,0.01,122.49-0.13
			c25.85-0.09,43.73-17.37,44.64-43.22c0.44-12.49,0.23-25,0.3-37.49c0.19-36.01,22.11-62.99,57.5-69.2
			c28.51-5.01,57.22-8.84,85.85-13.12c19.26-2.88,38.53-5.62,57.8-8.41C873.36,675.13,874.15,675.11,875.31,675.01z"/>
		<path d="M875.45,643.47c-20.93,3.14-41.28,6.19-62.28,9.34c0-2.89,0-5.18,0-7.48c0-86.17,0.08-172.33-0.17-258.5
			c-0.02-7.16-1.06-14.85-3.84-21.35c-6.31-14.81-19.05-20.75-34.61-20.83c-30.17-0.16-60.35-0.7-90.49,0.07
			c-31.48,0.8-52.86-25.84-52.13-51.93c0.71-25.48,0.39-51-0.17-76.49c-0.15-6.95-1.6-14.42-4.56-20.65
			c-6.18-13.04-17.82-18.25-31.93-18.26c-19.67-0.01-39.33,0.05-59,0.08c-3.81,0.01-7.62,0-12,0c0-18.69,0-37.05,0-55.77
			c1.37-0.11,2.82-0.32,4.26-0.32c31,0.03,62-0.04,92.99,0.17c16.92,0.11,31.52,6.52,43.76,18.01
			c47.75,44.81,95.39,89.74,143.08,134.61c15.17,14.27,30.27,28.62,45.59,42.73c14.41,13.28,21.58,29.38,21.54,49.13
			c-0.17,90.83-0.06,181.66-0.05,272.5C875.45,639.98,875.45,641.47,875.45,643.47z"/>
		<path d="M380.53,278.41c11.18,4.39,21.49,8.45,32.34,12.71c4.75-10.39,9.41-20.59,14.56-31.85c7.12,9.69,13.92,18.94,20.96,28.52
			c9.5-5.83,18.78-11.53,28.94-17.77c-0.43,6.97-0.76,12.98-1.19,18.99c-0.43,5.98-0.81,11.97-1.51,17.92
			c-0.4,3.37,0.37,5.28,3.64,7.08c24.11,13.23,41.24,32.46,48.37,59.42c14.06,53.1-18.89,106.46-71.88,116.54
			c-56.49,10.75-101.39-30.65-107.38-79.29c-4.6-37.33,8.17-67.7,38.83-90.01c2.6-1.89,3.19-3.49,2.44-6.57
			C385.85,302.62,383.38,291.08,380.53,278.41z"/>
		<path d="M303.55,632.85c-2.52-34.13,5.27-63.99,27.44-89.51c14.93-17.18,33.36-28.92,54.84-36.03c1.79-0.59,4.34-0.7,5.91,0.13
			c29.73,15.79,59.64,15.78,89.55,0.9c3.89-1.93,6.83-2.06,10.6-0.62c40.68,15.6,68.33,43.33,78.56,86.28
			c2.89,12.13,2.65,25,3.93,38.44C483.31,639.11,393.7,638.91,303.55,632.85z"/>
		<path d="M779.38,496.63c0,17.99,0.05,35.98-0.02,53.97c-0.06,17.35-11.26,29.08-28.59,29.21c-35.31,0.26-70.62,0.31-105.93,0.12
			c-16.35-0.09-28.22-11.63-28.37-28.02c-0.34-37.64-0.31-75.29-0.05-112.93c0.1-14.13,12.2-26.12,26.42-26.22
			c36.48-0.25,72.96-0.26,109.43,0.05c15.09,0.13,26.93,12.65,27.08,27.85C779.52,459.32,779.38,477.97,779.38,496.63z
			 M691.17,518.76c-9.63-9.94-18.92-19.71-28.46-29.22c-2.13-2.12-4.96-4.15-7.8-4.82c-5.8-1.37-10.73,1.36-13.4,6.33
			c-2.48,4.61-1.85,9.7,2.5,14.14c13.53,13.8,27.12,27.54,40.92,41.05c6.31,6.17,12.67,4.98,18.52-2.52
			c12.61-16.15,25.3-32.23,38-48.31c2.11-2.67,4.42-5.19,7.34-8.6c0.18,3.17,0.17,5.27,0.44,7.32c0.75,5.71,4.85,9.25,10.13,8.88
			c4.81-0.33,8.01-3.96,8.05-9.63c0.1-11.83,0.14-23.66-0.03-35.49c-0.09-6.39-3.76-10.64-10.09-10.78
			c-12.82-0.28-25.65-0.08-38.47,0.29c-2.24,0.06-4.84,1.43-6.55,2.99c-3.04,2.78-3.86,6.64-2.41,10.56
			c1.52,4.12,4.79,6.39,9.14,6.62c4.34,0.22,8.7,0.05,14.01,0.05C718.94,484.84,705.57,501.17,691.17,518.76z"/>
		<path d="M496.17,121.77c0,25.24,0,50.32,0,75.73c1.72,0.11,3,0.12,4.26,0.29c9.04,1.15,15.9,8.71,15.65,17.22
			c-0.25,8.59-7.5,15.59-16.92,15.73c-14.32,0.22-28.65,0.11-42.97,0.1c-13.49-0.01-26.98,0.1-40.47-0.17
			c-7.69-0.15-13.47-5.13-15.17-12.21c-1.71-7.13,1.1-14.48,7.64-17.97c3.27-1.74,7.2-2.25,11.46-3.5c0-24.56,0-49.62,0-75.21
			C445.37,121.77,470.53,121.77,496.17,121.77z"/>
		<path d="M398.29,741.81c-42.82,0.01-85.63,0.01-128.45,0.01c-8.66,0-10.1-1.43-10.21-10.2c-0.22-16.47-0.72-16.22,15.97-16.21
			c83.46,0.05,166.93-0.06,250.39-0.13c7.86-0.01,9.5,1.5,9.62,9.16c0.05,3.33,0.1,6.67-0.04,9.99c-0.22,5.32-2.08,7.17-7.34,7.26
			c-7.16,0.11-14.33,0.11-21.49,0.11C470.6,741.81,434.45,741.8,398.29,741.81z"/>
		<path d="M398.33,810.82c-42.83,0-85.65-0.01-128.48,0c-8.16,0-9.99-1.77-10.24-9.92c-0.49-16.09-0.25-16.35,15.57-16.35
			c83.65-0.02,167.31-0.04,250.96-0.06c7.89,0,9.62,1.76,9.63,9.78c0,2.5-0.03,5-0.08,7.5c-0.16,7.17-2,8.94-9.38,8.98
			c-6.67,0.04-13.33,0.08-20,0.08C470.32,810.83,434.33,810.82,398.33,810.82z"/>
		<path d="M259.53,682.58c0-5.41,0-10.01,0-14.86c145.66,0,291.06,0,436.45,0c0.1,0.2,0.2,0.41,0.29,0.61
			c-6.21,2.85-12.49,5.54-18.59,8.6c-8.03,4.03-16.28,5.75-25.4,5.73c-128.13-0.19-256.26-0.1-384.39-0.08
			C265.26,682.58,262.62,682.58,259.53,682.58z"/>
		<path d="M697.82,627.43c-23,0.01-46,0.01-69,0c-1.33,0-2.7,0.13-3.99-0.1c-3.9-0.71-6.18-3.03-6.5-7.08
			c-0.34-4.35,2.32-6.37,5.99-7.37c1.41-0.38,2.98-0.22,4.47-0.22c46.17-0.01,92.33-0.03,138.5,0.05c2.41,0,5.35,0.22,7.08,1.57
			c1.8,1.4,3.5,4.41,3.29,6.51c-0.21,2.1-2.49,4.56-4.52,5.76c-1.81,1.07-4.51,0.83-6.82,0.83
			C743.49,627.44,720.66,627.42,697.82,627.43z"/>
		<path d="M632.92,749.83c0,5.83,0,11.26,0,16.99c-20.51,0-40.72,0-61.26,0c0-5.7,0-11.11,0-16.99
			C591.97,749.83,612.31,749.83,632.92,749.83z"/>
		<path d="M632.94,716.8c0,5.8,0,11.07,0,16.74c-20.52,0-40.74,0-61.29,0c0-5.46,0-10.88,0-16.74
			C591.97,716.8,612.33,716.8,632.94,716.8z"/>
		<path d="M632.87,798.62c-20.52,0-40.74,0-61.27,0c0-5.69,0-11.09,0-16.8c20.46,0,40.69,0,61.27,0
			C632.87,787.18,632.87,792.58,632.87,798.62z"/>
		<path fill="#FFFFFF" d="M691.17,518.76c14.4-17.6,27.77-33.92,41.86-51.14c-5.31,0-9.67,0.17-14.01-0.05
			c-4.35-0.22-7.62-2.5-9.14-6.62c-1.45-3.92-0.62-7.78,2.41-10.56c1.7-1.56,4.31-2.92,6.55-2.99c12.82-0.36,25.66-0.57,38.47-0.29
			c6.32,0.14,10,4.39,10.09,10.78c0.16,11.83,0.12,23.66,0.03,35.49c-0.05,5.66-3.24,9.3-8.05,9.63c-5.28,0.36-9.38-3.17-10.13-8.88
			c-0.27-2.06-0.26-4.15-0.44-7.32c-2.92,3.41-5.23,5.93-7.34,8.6c-12.7,16.08-25.39,32.16-38,48.31c-5.86,7.5-12.22,8.7-18.52,2.52
			c-13.81-13.52-27.4-27.26-40.92-41.05c-4.35-4.44-4.98-9.53-2.5-14.14c2.68-4.97,7.6-7.7,13.4-6.33c2.84,0.67,5.67,2.69,7.8,4.82
			C672.25,499.06,681.54,508.82,691.17,518.76z"/>
	</g>
</g>
</svg>
