<?xml version="1.0" encoding="utf-8"?>
<!-- Generator: Adobe Illustrator 27.8.0, SVG Export Plug-In . SVG Version: 6.00 Build 0)  -->
<svg version="1.1" id="Capa_1" xmlns="http://www.w3.org/2000/svg" xmlns:xlink="http://www.w3.org/1999/xlink" x="0px" y="0px"
	 viewBox="0 0 1024 1024" enable-background="new 0 0 1024 1024" xml:space="preserve">
<g>
	<g>
		<path fill="#FEFEFE" d="M512,1023.91c-169.14,0-338.27-0.01-507.41,0.09c-3.75,0-4.59-0.84-4.59-4.59
			C0.1,681.14,0.1,342.86,0,4.59C0,0.84,0.84,0,4.59,0c338.27,0.1,676.54,0.1,1014.82,0c3.75,0,4.59,0.84,4.59,4.59
			c-0.1,338.27-0.1,676.54,0,1014.81c0,3.75-0.84,4.6-4.59,4.59C850.27,1023.89,681.14,1023.91,512,1023.91z M871.21,446.93
			c-0.07-14.49-0.07-28.97-0.23-43.46c-0.09-8.34-4.9-14.72-13.05-16.51c-3.82-0.84-4.95-2.36-5.05-6.11
			c-0.27-10.36-4.44-19.3-11.45-26.77c-13.16-14.02-32.13-18-50.17-10.88c-16.77,6.62-27.31,22.63-27.31,41.84
			c-0.02,102.61,0.01,205.22-0.01,307.83c0,3.35,0.66,6.51,1.7,9.67c8.93,27.21,18.58,54.16,28.29,81.1
			c2.14,5.94,5.75,9.99,12.01,11.41c0.37,2.46,0.5,4.98,1.15,7.36c2.08,7.57,5.74,10.27,13.61,10.33
			c11.94,0.1,16.04-3.31,20.22-15.52c7.49-21.88,15.45-43.6,22.84-65.52c2.88-8.53,5.46-17.06,5.28-26.5
			c-0.53-28.31-0.19-56.63-0.19-84.95c0-31.65-0.01-63.3,0.02-94.95c0-2.54-0.63-5.3,2.92-6.55c6.59-2.31,8.77-7.91,8.89-14.14
			c0.27-13.49,0.36-26.99-0.05-40.47C880.44,457.11,878.71,450.27,871.21,446.93z M730.34,308.84c-0.13-16.32-0.14-32.63-0.42-48.95
			c-0.15-8.97,0.44-17.92-0.74-26.91c-4.06-30.92-30.26-54.76-62.94-54.81c-134.63-0.21-269.26-0.15-403.88-0.08
			c-18.4,0.01-35.88,4.62-51.7,13.93c-29.73,17.52-46.78,43.43-47.12,78.38c-0.55,57.48-0.14,114.96-0.18,172.45
			c-0.04,57.48-0.13,114.96-0.2,172.44c-0.01,9.18,3.4,13.88,11.65,16.13c-0.07,6.62,0.98,12.76,7.31,16.56
			c-10.14,10.7-16.95,23.08-18.74,37.88c-1.34,11.05-0.39,19.75,10.72,22.12c0.63,6.22,1.61,12.28,7.44,16.1
			c-0.91,1.18-1.74,2.43-2.74,3.53c-18.25,20-19.57,47.51-3.48,69.29c5.43,7.35,12.79,12.52,19.53,18.41
			c0.52,2.79,1.87,5.35,3.57,7.42c12.24,14.95,28.4,22.06,47.45,23.2c0.06,4.31,0.13,8.63,0.17,12.94
			c0.09,8.79,4.32,13.43,12.99,14.23c0.02,1.17,0.19,2.35,0.05,3.49c-0.76,6.08,2.9,10.16,7.35,12.57
			c3.97,2.14,8.71,1.01,12.47-2.27c7.24-6.31,14.66-12.43,21.76-18.88c2.86-2.6,4.81-2.59,7.46,0.18
			c5.86,6.15,12.05,11.97,17.92,18.11c4.27,4.48,9.55,5.76,14.91,3.73c6.21-2.35,11.1-6.49,10.99-14.23
			c-0.11-8.33-0.02-16.66,0.06-24.99c0.07-7.32-1.36-7,6.9-7c105.96-0.01,211.91-0.03,317.87,0c13.53,0,26.21-2.92,37.9-9.86
			c13.06-7.75,22.2-18.77,28.61-32.51c5.88-12.62,6.35-26.08,6.39-39.36c0.3-99.55,0.32-199.11,0.11-298.67
			c-0.09-44.94,0.95-89.88-0.73-134.81C748.7,320.05,740.16,308.65,730.34,308.84z"/>
		<path fill="#041E35" d="M259.03,873.1c-8.66-0.8-12.9-5.45-12.99-14.23c-0.04-4.31-0.11-8.63-0.17-12.94
			c0.09-5.31-0.08-10.64,0.36-15.92c0.35-4.29-1.26-5.31-5.32-5.17c-11.65,0.43-23.25,0.2-34.3-4.42
			c-3.95-1.65-7.44-4.33-11.75-5.11c-6.74-5.89-14.1-11.06-19.53-18.41c-16.09-21.79-14.77-49.3,3.48-69.29
			c1-1.1,1.83-2.35,2.74-3.53c0.45-0.17,1.02-0.21,1.34-0.52c10.56-9.89,23.29-14.92,37.44-16.76c10.61-1.38,21.27-0.46,31.9-0.49
			c2.5-0.01,4.1-0.28,4.07-3.41c-0.13-14.64-0.13-29.29-0.1-43.93c0.01-2.4-0.76-3.58-3.29-3.96c-7.56-1.14-15.09-2.12-22.79-2.15
			c-21.59-0.11-44.84,16.12-43.11,42.8c0.28,4.32-2.02,7.17-4.96,9.76c-2.27,2-5.49,1.15-7.97,2.57
			c-11.11-2.37-12.06-11.07-10.72-22.12c1.79-14.8,8.6-27.18,18.74-37.88c4.76-2.03,7.56-6.59,12.21-9.01
			c18.67-9.71,38.2-11.9,58.57-7.7c3.43,0.71,3.94-0.26,3.86-3.3c-0.27-10.65-0.36-21.31-0.45-31.97c-0.07-8.83,0-17.66-0.06-26.49
			c-0.01-1.88,0.46-3.93-2.36-4.75c-17.96-5.17-34.9-4.07-50,8.03c-13.61,10.9-17.26,25.78-16.61,42.37
			c0.42,10.74-2.17,13.96-12.46,16.25c-8.25-2.25-11.66-6.95-11.65-16.13c0.06-57.48,0.16-114.96,0.2-172.44
			c0.04-57.48-0.37-114.97,0.18-172.45c0.34-34.95,17.38-60.86,47.12-78.38c15.82-9.32,33.29-13.93,51.7-13.93
			c134.63-0.07,269.26-0.13,403.88,0.08c32.68,0.05,58.89,23.88,62.94,54.81c1.18,9,0.58,17.95,0.74,26.91
			c0.28,16.31,0.3,32.63,0.42,48.95c-0.16,2.48-0.46,4.95-0.46,7.43c-0.05,147.08-0.07,294.15-0.12,441.23
			c-0.01,25.87-9.66,46.12-33.23,59.04c-8.68,4.76-17.52,7.98-27.19,8c-72.45,0.19-144.91,0.14-217.36,0.17
			c-36.48,0.01-72.96,0.06-109.43,0.01c-3.6,0-5.82,0.31-5.64,5.02c0.36,9.48,0,18.98-0.05,28.48c-0.03,5.71-1.76,10.63-7.15,13.3
			c-5.3,2.62-10.47,1.49-14.99-1.97c-6.21-4.75-12.21-9.77-18.32-14.64c-6.15-4.9-5.9-4.54-12.02,0.19
			C276.17,861.41,269.77,870.35,259.03,873.1z M430.79,761.89c-3.47,0.08-6.94,0.11-10.41,0.23c-8.91,0.32-17.84-0.62-26.73,0.52
			c-17.73-0.03-35.46-0.04-53.19-0.13c-2.42-0.01-3.56,0.62-3.49,3.36c0.21,8.61,0.19,17.23,0.25,25.85
			c-0.23,1.48,0.4,3.18,0.13,4.34c-1.67,7.24,3.15,5.95,7.23,5.95c50.76-0.05,101.52-0.08,152.28-0.1
			c55.75-0.01,111.51,0.05,167.26-0.03c11.14-0.02,21.17-3.24,28.95-11.76c0.65-0.52,1.36-0.97,1.93-1.56
			c9.73-9.99,11.74-22.34,10.85-35.57c0.74-10.81,0.33-21.63,0.31-32.44c-0.01-2.45-0.47-3.59-3.04-1.58
			c-10.59,8.28-22.84,10.8-36.04,10.79c-138.08-0.08-276.15-0.07-414.23,0.04c-11.8,0.01-23.7-1.2-35.38,1.18
			c-13.06,2.66-22.91,9.75-27.5,22.68c-4.75,13.37-0.79,24.82,8.71,34.69c10.46,10.87,23.66,14.06,38.24,13.65
			c9.92-0.28,9.92-0.06,8.98-10.12c0.07-8.47-0.01-16.95,0.28-25.42c0.11-3.17-0.98-3.93-3.94-3.89
			c-10.81,0.15-21.62-0.01-32.43,0.13c-3.99,0.05-7.58-0.7-10.71-3.24c-2.18-6.64-0.63-11.85,4.28-13.28
			c2.5-0.73,5.25-0.85,7.89-0.85c70.35-0.09,140.7-0.11,211.05-0.2c3.21,0,6.21,0.56,9.11,1.84
			C435.49,753.18,435.4,755.29,430.79,761.89z M706.31,658.97c0.86-8.98-0.39-17.88-0.29-26.99c-1.94,0.45-2.14,1.56-2.65,2.35
			c-14.02,21.67-32.29,38.15-56.72,47.51c-10.65,4.08-21.76,5.89-32.77,8.3c-4.99,0.05-9.99,0.16-14.98,0.15
			c-86.14-0.06-172.28-0.12-258.42-0.2c-2.33,0-4.69,0.09-6.99-0.21c-5.73-0.74-9.77-5.96-9.53-12.04c0.23-5.9,3.79-9.62,9.86-10.1
			c3.32-0.26,6.65-0.43,9.98-0.43c82.97-0.08,165.94-0.11,248.92-0.22c7.63-0.01,15.23-0.02,22.88-1.02
			c18.35-2.4,34.53-9.39,48.36-21.54c9.23-8.11,17.23-17.34,23.22-28.23c10.79-19.64,18.68-40.26,18.79-62.91
			c0.34-69.14,0.24-138.29,0.29-207.43c0.02-34.49,0.1-68.98-0.06-103.47c-0.1-21.27-12.61-36.57-33.13-40.88
			c-6.73-1.41-13.62-0.61-20.44-0.62c-122.63-0.07-245.25-0.09-367.88-0.13c-2.81,0-5.37-0.65-5.34,4.02
			c0.17,30.16,0.05,60.31-0.07,90.47c-0.01,2.73,0.68,4.16,3.54,4.97c3.32,0.94,6.56,2.43,9.58,4.14
			c6.94,3.93,9.64,11.28,6.85,17.79c-2.82,6.57-8.34,8.92-16.6,6.4c-3.23-0.99-3.27,0.23-3.25,2.63c0.04,6.5-0.07,12.99-0.05,19.49
			c0.01,3.33-0.76,7.05,0.47,9.87c1.5,3.45,6.09,2.3,9.25,3.4c8.12,2.83,12.85,10.09,10.71,17.26c-1.77,5.94-8.33,11.89-17.02,8.53
			c-3.21-1.24-3.24,0.61-3.24,2.85c-0.05,24.49-0.09,48.98-0.23,73.47c-0.02,2.89,1.22,3.68,3.88,3.76
			c4.43,0.12,8.52,1.57,11.95,4.41c4.22,3.49,5.85,8.21,4.72,13.44c-0.97,4.49-4.12,7.54-8.55,8.98c-2.76,0.9-5.69,0.67-8.41,0.04
			c-3.04-0.7-3.57,0.28-3.55,3.1c0.1,15.49,0.15,30.99-0.1,46.48c-0.08,4.57,1.25,7.03,5.98,7.65c2.24,0.29,4.47,1.32,6.52,2.38
			c6.94,3.58,10.13,10.65,7.84,16.98c-2.43,6.73-8.32,9.63-16.38,7.45c-3.59-0.97-3.76,0.26-3.72,3.2
			c0.12,9.16-0.05,18.32-0.06,27.49c0,3.49-1.04,7.71,0.56,10.21c1.18,1.84,5.9,1.34,9.01,2.05c7.16,1.61,11.56,9.12,10.09,17.09
			c-1.09,5.88-7.78,9.94-14.81,8.44c-3.81-0.81-4.87-0.05-4.83,3.92c0.15,16.49,0.17,32.99-0.23,49.48
			c-0.09,3.53,0.65,4.08,3.84,4.07c128.79-0.07,257.58-0.06,386.38-0.04c15.36,0,25.62-7.74,32.4-20.98
			C706.2,677.3,706.4,668.17,706.31,658.97z M186.8,485.82c7.98-7.16,15.74-11.9,24.57-14.92c13.45-4.61,27.07-4.66,40.77-1.68
			c3.9,0.85,4.74-0.04,4.67-3.92c-0.49-25.95-1.02-51.9-0.09-77.85c0.11-3.15-1.18-4.33-4.08-5.04c-6.23-1.51-12.49-1.68-18.82-1.34
			c-22.94,1.21-43.46,20.76-45.84,43.62C185.88,444.59,187.7,464.53,186.8,485.82z M186.85,309.32c3.04-2.54,4.97-4.35,7.1-5.89
			c16.84-12.21,35.54-16.7,56.12-13.44c6.72,1.07,6.93,0.96,6.68-6.11c-0.87-24.14-0.31-48.28-0.45-72.42
			c-0.06-10.17-0.09-10.47-9.97-8.33c-29.65,6.41-50.26,23.25-57.61,53.33C184.59,273.37,187.79,290.91,186.85,309.32z
			 M187.09,557.03c5.99-5.52,11.84-9.45,18.17-12.42c15.09-7.07,30.85-8.07,46.97-4.14c2.5,0.61,4.11,0.33,4.08-2.94
			c-0.11-13.32-0.08-26.63-0.04-39.95c0.01-2.13-0.64-3.13-2.91-3.75c-7.12-1.95-14.3-2.96-21.66-2.75
			c-20.93,0.59-39.24,15.74-43.37,35.89C186.37,536.53,187.24,546.19,187.09,557.03z M187.54,377.66
			c7.32-7.15,15.41-12.52,24.56-16.14c12.18-4.81,24.78-5.73,37.72-3.97c2.39,0.33,6.86,3.04,6.9-2.9
			c0.07-11.98-0.02-23.96,0.04-35.93c0.01-2.2-0.85-3.41-2.98-3.87c-1.78-0.39-3.52-0.97-5.31-1.37
			c-19.28-4.31-36.23,1.42-48.88,15.43C187.61,342.16,185.65,359.53,187.54,377.66z M312.51,837.22c0.27-0.92,0.51-1.36,0.51-1.79
			c-0.01-22.99-0.09-45.97-0.01-68.96c0.01-3.11-1.44-3.52-3.98-3.5c-11.16,0.07-22.32,0.2-33.48-0.08
			c-3.87-0.09-4.73,1.24-4.71,4.83c0.12,21.15,0.02,42.31,0.05,63.46c0,1.41-0.47,2.95,0.65,4.48c2.5-0.74,3.94-2.9,5.87-4.36
			c14.03-10.58,13.11-10.62,25.7-0.67C306.04,832.95,308.84,835.52,312.51,837.22z"/>
		<path fill="#041E35" d="M805.95,795.06c-6.26-1.43-9.87-5.47-12.01-11.41c-9.71-26.94-19.37-53.89-28.29-81.1
			c-1.04-3.17-1.7-6.32-1.7-9.67c0.01-102.61-0.01-205.22,0.01-307.83c0-19.21,10.54-35.22,27.31-41.84
			c18.05-7.12,37.01-3.14,50.17,10.88c7.01,7.46,11.18,16.41,11.45,26.77c0.1,3.75,1.22,5.27,5.05,6.11
			c8.15,1.78,12.96,8.16,13.05,16.51c0.16,14.49,0.16,28.97,0.23,43.46c-0.05,2.99-0.13,5.98-0.15,8.98
			c-0.05,8.66,0.14,17.32-0.16,25.97c-0.29,8.27-5.36,14.99-12.01,14.75c-6.16-0.22-6.02,2.67-6.02,7.13
			c0.09,63.28,0.04,126.57,0.03,189.85c0,2.34-0.08,4.62-0.87,6.89c-9.45,26.99-18.95,53.96-28.21,81.02
			C820.83,790.25,815.52,795.31,805.95,795.06z M829.87,670.65c0-3.27,0-5.76,0-8.25c-0.02-26.65-0.07-53.3-0.07-79.95
			c0-37.64,0.04-75.29,0.03-112.93c0-2.22,0.58-4.57-2.28-5.98c-12.07-5.94-24.11-6.86-36.41-0.67c-2.78,1.4-3.62,3.14-3.61,6.22
			c0.04,53.13-0.07,106.27-0.11,159.4c-0.01,12.83,0.15,25.65,0.16,38.48c0,2.53,0.36,3.7,3.31,2.31c2.52-1.19,5.35-1.8,8.09-2.45
			C809.4,664.32,819.39,666.22,829.87,670.65z M808.6,759.25c6.68-20.2,13.14-39.92,19.78-59.57c0.85-2.51,0.03-3.5-1.91-4.74
			c-10.52-6.72-21.35-7.67-32.7-2.25c-6.16,2.94-6.34,3.22-4.19,9.64C795.84,721.08,802.11,739.83,808.6,759.25z M787.9,395.91
			c0.55,0.06,0.93,0.21,1.19,0.11c12.66-5.11,25.34-6.16,38.11-0.35c1.73,0.79,2.72,0.21,2.65-1.96c-0.13-4.15,0.14-8.32-0.12-12.46
			c-0.6-9.4-9.44-17.68-19.28-18.29c-10.5-0.65-20.53,5.97-22.32,15.19C787.01,384,787.6,390,787.9,395.91z M830.02,429.83
			c-0.05,0-0.1,0-0.15-0.01c0-1.33-0.17-2.69,0.03-3.99c0.61-3.94-0.99-5.98-4.77-7.31c-6.2-2.18-12.4-3.77-19.01-3.35
			c-6.25,0.39-12.83,1.57-17.3,5.52c-3.27,2.89-0.74,8.85-1.14,13.42c-0.06,0.66,0.06,1.34-0.01,2c-0.37,3.42,0.72,3.9,3.91,2.59
			c9.69-3.95,19.66-4.17,29.85-1.84c2.72,0.62,5.81,4.08,7.89,1.69C830.86,436.78,829.88,432.82,830.02,429.83z"/>
		<path fill="#609CC1" d="M259.03,873.1c10.74-2.76,17.14-11.69,25.34-18.02c6.12-4.73,5.87-5.08,12.02-0.19
			c6.12,4.87,12.11,9.89,18.32,14.64c4.53,3.46,9.69,4.6,14.99,1.97c5.39-2.67,7.12-7.59,7.15-13.3c0.05-9.49,0.41-19,0.05-28.48
			c-0.18-4.71,2.04-5.02,5.64-5.02c36.48,0.05,72.96,0,109.43-0.01c72.45-0.03,144.91,0.02,217.36-0.17
			c9.67-0.03,18.51-3.25,27.19-8c23.57-12.91,33.22-33.17,33.23-59.04c0.05-147.08,0.07-294.15,0.12-441.23
			c0-2.48,0.3-4.95,0.46-7.43c9.82-0.18,18.36,11.21,18.68,19.79c1.69,44.93,0.64,89.88,0.73,134.81
			c0.21,99.55,0.19,199.11-0.11,298.67c-0.04,13.28-0.51,26.74-6.39,39.36c-6.41,13.74-15.55,24.77-28.61,32.51
			c-11.69,6.93-24.37,9.86-37.9,9.86c-105.96-0.04-211.91-0.02-317.87,0c-8.25,0-6.83-0.33-6.9,7c-0.08,8.33-0.17,16.66-0.06,24.99
			c0.11,7.74-4.78,11.88-10.99,14.23c-5.35,2.02-10.63,0.74-14.91-3.73c-5.86-6.14-12.06-11.97-17.92-18.11
			c-2.64-2.78-4.6-2.78-7.46-0.18c-7.11,6.46-14.53,12.57-21.76,18.88c-3.76,3.28-8.49,4.41-12.47,2.27
			c-4.46-2.41-8.11-6.49-7.35-12.57C259.22,875.45,259.05,874.27,259.03,873.1z"/>
		<path fill="#609CC1" d="M805.95,795.06c9.57,0.24,14.88-4.81,17.87-13.55c9.26-27.05,18.76-54.03,28.21-81.02
			c0.79-2.26,0.87-4.55,0.87-6.89c0.01-63.28,0.06-126.57-0.03-189.85c-0.01-4.46-0.14-7.35,6.02-7.13
			c6.65,0.24,11.72-6.48,12.01-14.75c0.3-8.65,0.11-17.32,0.16-25.97c0.02-2.99,0.1-5.99,0.15-8.98c7.5,3.34,9.23,10.18,9.44,17.21
			c0.41,13.48,0.32,26.99,0.05,40.47c-0.12,6.24-2.31,11.83-8.89,14.14c-3.55,1.25-2.92,4.01-2.92,6.55
			c-0.03,31.65-0.02,63.3-0.02,94.95c0,28.32-0.34,56.64,0.19,84.95c0.18,9.44-2.41,17.97-5.28,26.5
			c-7.39,21.92-15.35,43.64-22.84,65.52c-4.18,12.22-8.28,15.62-20.22,15.52c-7.87-0.06-11.53-2.76-13.61-10.33
			C806.45,800.04,806.32,797.52,805.95,795.06z"/>
		<path fill="#609CC1" d="M174.81,631.42c10.28-2.29,12.88-5.51,12.46-16.25c-0.65-16.59,3.01-31.47,16.61-42.37
			c15.11-12.1,32.05-13.2,50-8.03c2.82,0.81,2.34,2.87,2.36,4.75c0.07,8.83,0,17.66,0.06,26.49c0.08,10.66,0.18,21.31,0.45,31.97
			c0.08,3.05-0.44,4.01-3.86,3.3c-20.37-4.2-39.9-2.01-58.57,7.7c-4.65,2.42-7.45,6.97-12.21,9.01
			C175.79,644.18,174.74,638.04,174.81,631.42z"/>
		<path fill="#609CC1" d="M174.11,707.97c2.48-1.42,5.69-0.57,7.97-2.57c2.94-2.59,5.24-5.44,4.96-9.76
			c-1.74-26.68,21.52-42.91,43.11-42.8c7.7,0.04,15.23,1.02,22.79,2.15c2.54,0.38,3.3,1.56,3.29,3.96
			c-0.03,14.64-0.03,29.29,0.1,43.93c0.03,3.13-1.58,3.41-4.07,3.41c-10.64,0.03-21.29-0.89-31.9,0.49
			c-14.15,1.84-26.88,6.87-37.44,16.76c-0.32,0.3-0.89,0.35-1.34,0.52C175.71,720.25,174.73,714.19,174.11,707.97z"/>
		<path fill="#609CC1" d="M194.86,815.31c4.31,0.79,7.81,3.46,11.75,5.11c11.05,4.62,22.66,4.85,34.3,4.42
			c4.05-0.15,5.67,0.87,5.32,5.17c-0.43,5.28-0.26,10.61-0.36,15.92c-19.04-1.14-35.21-8.25-47.45-23.2
			C196.73,820.65,195.38,818.1,194.86,815.31z"/>
		<path fill="#FEFEFE" d="M706.31,658.97c0.09,9.2-0.12,18.34-4.46,26.82c-6.77,13.24-17.03,20.98-32.4,20.98
			c-128.79-0.02-257.58-0.02-386.38,0.04c-3.19,0-3.92-0.54-3.84-4.07c0.4-16.49,0.38-32.99,0.23-49.48
			c-0.04-3.97,1.02-4.74,4.83-3.92c7.04,1.5,13.73-2.56,14.81-8.44c1.47-7.97-2.92-15.47-10.09-17.09c-3.11-0.7-7.83-0.2-9.01-2.05
			c-1.6-2.5-0.56-6.73-0.56-10.21c0.01-9.16,0.17-18.33,0.06-27.49c-0.04-2.94,0.13-4.17,3.72-3.2c8.06,2.18,13.95-0.73,16.38-7.45
			c2.29-6.34-0.89-13.41-7.84-16.98c-2.05-1.06-4.28-2.08-6.52-2.38c-4.73-0.62-6.06-3.08-5.98-7.65c0.25-15.49,0.2-30.99,0.1-46.48
			c-0.02-2.83,0.51-3.81,3.55-3.1c2.73,0.63,5.65,0.86,8.41-0.04c4.43-1.44,7.58-4.5,8.55-8.98c1.13-5.23-0.5-9.94-4.72-13.44
			c-3.43-2.84-7.52-4.29-11.95-4.41c-2.66-0.07-3.9-0.87-3.88-3.76c0.14-24.49,0.18-48.98,0.23-73.47c0-2.24,0.03-4.09,3.24-2.85
			c8.69,3.36,15.26-2.59,17.02-8.53c2.13-7.17-2.59-14.43-10.71-17.26c-3.16-1.1-7.75,0.05-9.25-3.4c-1.23-2.83-0.46-6.55-0.47-9.87
			c-0.02-6.5,0.09-12.99,0.05-19.49c-0.01-2.39,0.02-3.61,3.25-2.63c8.26,2.52,13.79,0.17,16.6-6.4c2.79-6.51,0.09-13.86-6.85-17.79
			c-3.02-1.71-6.26-3.2-9.58-4.14c-2.86-0.81-3.55-2.24-3.54-4.97c0.12-30.16,0.24-60.31,0.07-90.47c-0.03-4.67,2.53-4.02,5.34-4.02
			c122.63,0.04,245.25,0.06,367.88,0.13c6.81,0,13.71-0.8,20.44,0.62c20.52,4.3,33.03,19.6,33.13,40.88
			c0.17,34.49,0.09,68.98,0.06,103.47c-0.05,69.14,0.04,138.29-0.29,207.43c-0.11,22.64-8,43.27-18.79,62.91
			c-5.99,10.89-13.99,20.12-23.22,28.23c-13.82,12.15-30.01,19.14-48.36,21.54c-7.65,1-15.25,1.01-22.88,1.02
			c-82.97,0.11-165.94,0.14-248.92,0.22c-3.33,0-6.66,0.17-9.98,0.43c-6.06,0.48-9.62,4.2-9.86,10.1c-0.24,6.08,3.8,11.3,9.53,12.04
			c2.3,0.3,4.66,0.2,6.99,0.21c86.14,0.07,172.28,0.14,258.42,0.2c4.99,0,9.99-0.1,14.98-0.15c0.78,2.33,2.78,1.39,4.26,1.42
			c8.65,0.22,17.26-0.57,25.81-1.75c18.06-2.49,34.73-8.31,49.03-20.22C697.34,665.98,700.81,661.16,706.31,658.97z M423.64,496.42
			c13.52,2.3,27.12,1.49,40.67,0.73c5.66-0.32,8.63-5,8.16-10.55c-0.44-5.2-4.42-8.46-10.43-8.46c-12.79,0-25.56,1.12-38.35,0.55
			c-2.64-1.04-5.32-1.79-8.23-1.79c-23.82,0.04-47.64-0.02-71.47,0.03c-7.37,0.02-11.89,4.2-11.77,10.58
			c0.12,6.78,4.21,10.55,11.75,10.55c23.82,0.02,47.64-0.02,71.47-0.05C418.27,498.03,421.12,498.06,423.64,496.42z M456.68,439.46
			c-4.22-2.22-8.74-2.68-13.43-2.57c-5.99,0.14-11.98,0.02-17.97,0.02c-26.95,0-53.9,0.04-80.85-0.01
			c-5.06-0.01-9.26,1.3-11.36,6.32c-3.12,7.47,2.03,14.84,10.57,14.85c34.6,0.05,69.2-0.02,103.81-0.04c2.53,0,4.97-0.34,7.26-1.49
			c12.18,2.14,24.41,1.76,36.58,0.21c3.98-0.51,6.2-5.08,5.69-9.85c-0.49-4.63-2.95-8.42-7.59-8.57
			C478.49,437.98,467.53,437.49,456.68,439.46z M474.08,398.76c-0.41-0.95-0.66-2.38-1.98-0.69c-4.25-1.72-8.71-1.28-13.12-1.28
			c-29.46-0.03-58.92-0.04-88.39-0.03c-9.32,0-18.65-0.1-27.96,0.16c-7.24,0.2-11.64,6.63-9.67,13.58
			c1.47,5.18,5.01,7.46,12.01,7.46c39.78,0.02,79.56-0.04,119.35,0.03c4.06,0.01,7.95-0.42,11.69-2.02c0.4,0.27,0.79,0.76,1.2,0.76
			c11.49,0.09,22.99,0.33,34.47,0.09c5.16-0.11,8.37-4.16,8.39-9.31c0.01-5.39-2.74-8.95-8.44-9.08
			c-11.61-0.27-23.26-0.5-34.84,0.91C475.87,399.14,474.97,398.95,474.08,398.76z M474.71,580.19c4.23,1.28,8.58,0.91,12.82,0.51
			c4.7-0.44,8.2-4.53,8.62-8.93c0.47-4.9-1.12-8.72-6.08-10.05c-4.28-1.14-8.75-1.42-13.05,0.38c-3.76-1.58-7.72-1.86-11.75-1.85
			c-39.32,0.02-78.65,0.01-117.97,0.04c-2.49,0-5,0.16-7.46,0.52c-3.4,0.5-5.67,2.54-6.92,5.75c-2.94,7.52,2.22,14.57,10.95,14.58
			c41.66,0.04,83.31,0,124.97,0C470.86,581.15,472.83,580.99,474.71,580.19z M476.73,520.68c-1.83-1.1-3.89-0.83-5.86-0.83
			c-42.3-0.02-84.61,0-126.91,0.05c-1.8,0-3.59-0.08-5.38,0.71c-4.78,2.13-7.19,6.59-6.12,11.76c1.19,5.77,4.94,8.65,11.61,8.65
			c42.31,0,84.61-0.04,126.92-0.06c2.36,0,4.65-0.18,6.76-1.33c3.07,1.01,6.23,0.57,9.34,0.5c5.51-0.13,9.51-4.4,9.61-9.93
			c0.1-4.98-3.89-9.53-9.12-9.85C483.99,520.13,480.35,520.55,476.73,520.68z M576.99,377c0,0.01,0,0.01,0,0.02
			c21.32,0,42.66-0.47,63.97,0.15c17.31,0.5,33.26-10.44,33.1-32.98c-0.21-28.65-0.2-57.31-0.09-85.96
			c0.08-22.17-12.28-35.34-35.47-35.41c-41.15-0.13-82.29-0.08-123.44-0.05c-3.15,0-6.36,0.11-9.43,0.71
			c-13.58,2.61-23.43,15.49-23.35,30.79c0.17,30.98,0.02,61.97,0,92.95c-0.01,17.73,12.03,29.79,29.75,29.79
			C533.68,377,555.34,377,576.99,377z M364.66,236.13c-2.8,0.06-6.29,2.09-9.7,5.64c-5.22,5.44-5.62,9.24-1.25,15.39
			c1.24,1.74,1.15,3.04,0.55,4.99c-1.4,4.6-4,6.86-8.95,7.61c-6.28,0.96-9.21,5.56-8.75,11.86c0.49,6.77,4,10.91,10.41,11.15
			c3.57,0.14,5.18,1.4,6.38,4.63c1.16,3.12,1.13,5.49-0.89,8.29c-2.98,4.14-2.36,8.49,0.67,12.48c2.78,3.66,6.35,8.05,10.91,6.25
			c6.42-2.53,7.2,0.96,8.44,5.26c0.46,1.59,1.12,3.14,1.74,4.68c4.15,10.33,7.42,21.06,12.67,30.9c4.51,8.44,14.43,8.68,19.92,0.81
			c1.32-1.89,2.41-4,3.25-6.15c4.22-10.84,8.46-21.68,12.39-32.63c1.14-3.18,2.13-5.01,5.74-3.1c2.48,1.31,4.86,0.46,7.07-0.87
			c7.28-4.38,9.16-11.1,5.23-18.55c-3.24-6.14-0.93-10.88,5.79-11.88c5.93-0.89,10.32-5.67,10.54-11.49
			c0.22-5.83-3.97-11.24-9.58-12.37c-8.1-1.62-10.47-6.77-6.41-13.9c2.93-5.15,1.82-9.82-3.57-15.04
			c-5.09-4.93-8.85-5.49-14.22-2.11c-7.21,4.52-12.77,2.41-14.93-5.66c-1.66-6.21-4.96-8.68-11.53-8.64
			c-6.52,0.04-10.02,2.74-11.44,8.83c-1.72,7.38-7.76,9.82-14.47,5.83C368.8,237.22,366.95,236.08,364.66,236.13z M618.45,514.32
			c11.28,0.18,23.64-3.21,34.44-11.17c21.83-16.08,29.3-43.52,19.11-68.99c-0.68-1.69-1.93-3.09-0.9-5.49
			c4.5-10.44-2.27-19.6-13.64-18.77c-1.98,0.15-3.69,0.3-5.58-1.08c-13.52-9.81-28.69-12.56-44.98-9.85
			c-33.9,5.64-56.55,40.84-47.01,73C567.51,497.65,588.74,513.56,618.45,514.32z M617.54,636.2c39.98,0.14,67.24-39.32,52.28-76.05
			c-2.1-5.16-2.86-8.73,1.47-13.33c4.8-5.1,3.59-11.95-1.48-16.39c-5.13-4.49-11.42-4.35-16.6,0.47c-1.7,1.58-3.41,3.23-4.76,5.1
			c-1.03,1.42-1.49,2.16-3.41,0.97c-6.18-3.82-13.09-5.78-20.23-6.61c-32.11-3.7-59.6,18.26-62.06,48.29
			C560.18,609.9,585.2,636.09,617.54,636.2z M421.76,609.94c-11.66,0-23.32,0-34.99,0c-14.66,0-29.32-0.09-43.98,0.06
			c-6.39,0.07-10.14,3.83-10.39,9.73c-0.24,5.77,3.94,10.49,9.91,11.08c1.65,0.16,3.33,0.12,4.99,0.12
			c49.48,0.01,98.96,0.01,148.44,0.02c1.33,0,2.67,0.05,4-0.05c6.49-0.52,11.07-5.37,10.91-11.36c-0.13-4.84-5.54-9.88-11.43-9.79
			C473.41,610.16,447.58,609.93,421.76,609.94z M497.12,497.1c2.32,0,4.65,0.09,6.97-0.02c5.84-0.26,9.05-3.46,9.1-8.97
			c0.06-6.56-2.77-9.79-9.05-9.98c-3.98-0.13-7.97,0.03-11.95,0.11c-6.02,0.12-9.7,3.52-9.74,8.94c-0.04,6.34,3.37,9.84,9.68,9.91
			C493.8,497.11,495.46,497.09,497.12,497.1z M521.8,580.59c2.98,0.19,5.97,0.28,8.87-0.63c4.53-1.42,7.27-5.82,6.78-10.88
			c-0.41-4.18-3.72-7.71-8.26-7.9c-4.6-0.2-9.26-0.55-13.86,0.46c-4.97,1.09-7.34,4.15-7.27,9.58c0.06,5.17,2.86,8.65,7.78,9.33
			C517.8,580.81,519.82,580.59,521.8,580.59z M524.12,457.7c0.97-0.1,2.63-0.23,4.27-0.45c5.81-0.76,9.35-4.3,9.23-9.18
			c-0.15-6.26-3.66-9.79-10.05-9.95c-3.49-0.09-7-0.12-10.47,0.13c-5.76,0.41-9.23,4.35-8.95,9.8c0.33,6.35,2.97,8.94,9.31,9.2
			C519.46,457.32,521.44,457.51,524.12,457.7z"/>
		<path fill="#609CC1" d="M245.9,791.89c0.94,10.07,0.94,9.85-8.98,10.12c-14.58,0.41-27.77-2.78-38.24-13.65
			c-9.51-9.88-13.47-21.32-8.71-34.69c4.6-12.93,14.44-20.02,27.5-22.68c11.68-2.38,23.59-1.18,35.38-1.18
			c138.08-0.11,276.15-0.11,414.23-0.04c13.2,0.01,25.45-2.52,36.04-10.79c2.57-2.01,3.03-0.87,3.04,1.58
			c0.03,10.81,0.44,21.63-0.31,32.44c-4.98-1.15-9.97-0.87-14.97-0.17c-0.68-9.08-3.34-11-15.02-10.8
			c-8.11,0.14-10.47,2.48-10.77,10.74c-37.07-0.04-74.13-0.1-111.2-0.11c-5.31,0-10.62,0.22-15.93,0.34
			c-2.19-6.02-6.5-7.98-12.82-7.88c-19.62,0.29-39.25,0.15-58.87,0.1c-3.42-0.01-6.57,0.5-9.2,2.84c-1.11-1.83-2.94-1.13-4.46-1.14
			c-7.06-0.04-14.13,0.04-21.19,0.08c-2.9-1.28-5.9-1.84-9.11-1.84c-70.35,0.09-140.7,0.11-211.05,0.2c-2.64,0-5.38,0.13-7.89,0.85
			c-4.91,1.43-6.45,6.64-4.28,13.28c-4.54,14.64,4.11,28.76,19.48,31.57C227.62,792.69,236.79,791.68,245.9,791.89z"/>
		<path fill="#FEFEFE" d="M690.89,752.81c5-0.7,9.99-0.98,14.97,0.17c0.89,13.23-1.12,25.58-10.85,35.57
			c-0.57,0.59-1.28,1.05-1.93,1.56c-8.02-0.79-15.78,1.71-23.77,1.71c-95.88-0.06-191.76,0-287.64,0.02
			c-14.81,0-29.63-0.08-44.44-0.12c-0.07-8.62-0.04-17.24-0.25-25.85c-0.07-2.73,1.07-3.37,3.49-3.36
			c17.73,0.08,35.46,0.09,53.19,0.13c-0.76,1.98-1.83,3.91-2.23,5.96c-1.03,5.2,2.17,9.53,7.4,9.57
			c22.61,0.15,45.23,0.12,67.84,0.08c4.5-0.01,6.72-2.54,7.8-6.88c0.85-3.42-1.71-6.02-1.3-9.17c18.11,0.13,36.23,0.39,54.34,0.33
			c6.73-0.02,9.31-2.73,10.48-9.55c5.31-0.12,10.62-0.34,15.93-0.34c37.07,0.01,74.13,0.07,111.2,0.11
			C669.97,761.32,685.39,761.36,690.89,752.81z M621.48,787.78c20.16,0,40.32,0.01,60.48-0.01c5.95,0,10.48-3.72,10.89-8.82
			c0.4-5-3.75-9.07-9.88-9.65c-1.16-0.11-2.33-0.13-3.49-0.13c-38.49-0.03-76.97-0.07-115.46-0.06c-1.98,0-3.99,0.17-5.94,0.52
			c-3.16,0.57-5.32,2.27-6.29,5.57c-2.02,6.94,2.14,12.53,9.72,12.55C581.49,787.81,601.48,787.77,621.48,787.78z"/>
		<path fill="#609CC1" d="M186.8,485.82c0.9-21.29-0.92-41.23,1.16-61.13c2.39-22.87,22.9-42.42,45.84-43.62
			c6.33-0.33,12.6-0.17,18.82,1.34c2.9,0.7,4.19,1.88,4.08,5.04c-0.92,25.95-0.39,51.91,0.09,77.85c0.07,3.88-0.77,4.76-4.67,3.92
			c-13.69-2.98-27.31-2.93-40.77,1.68C202.54,473.92,194.78,478.66,186.8,485.82z"/>
		<path fill="#609CC1" d="M186.85,309.32c0.94-18.41-2.26-35.95,1.87-52.86c7.35-30.08,27.96-46.92,57.61-53.33
			c9.88-2.14,9.91-1.84,9.97,8.33c0.14,24.14-0.42,48.28,0.45,72.42c0.25,7.06,0.05,7.17-6.68,6.11
			c-20.58-3.26-39.28,1.23-56.12,13.44C191.82,304.97,189.89,306.78,186.85,309.32z"/>
		<path fill="#609CC1" d="M337.22,791.72c14.81,0.04,29.63,0.12,44.44,0.12c95.88-0.01,191.76-0.08,287.64-0.02
			c7.99,0.01,15.76-2.49,23.77-1.71c-7.78,8.53-17.81,11.75-28.95,11.76c-55.75,0.08-111.51,0.02-167.26,0.03
			c-50.76,0.01-101.52,0.05-152.28,0.1c-4.08,0-8.9,1.29-7.23-5.95C337.62,794.9,336.99,793.2,337.22,791.72z"/>
		<path fill="#609CC1" d="M187.09,557.03c0.15-10.84-0.72-20.5,1.24-30.05c4.13-20.15,22.45-35.3,43.37-35.89
			c7.37-0.21,14.55,0.81,21.66,2.75c2.27,0.62,2.91,1.62,2.91,3.75c-0.04,13.32-0.07,26.63,0.04,39.95
			c0.03,3.27-1.58,3.55-4.08,2.94c-16.13-3.93-31.89-2.93-46.97,4.14C198.93,547.58,193.07,551.51,187.09,557.03z"/>
		<path fill="#609CC1" d="M187.54,377.66c-1.88-18.13,0.07-35.5,12.05-48.76c12.65-14.01,29.61-19.74,48.88-15.43
			c1.78,0.4,3.52,0.98,5.31,1.37c2.13,0.47,2.99,1.67,2.98,3.87c-0.06,11.98,0.03,23.96-0.04,35.93c-0.03,5.94-4.5,3.23-6.9,2.9
			c-12.94-1.76-25.54-0.84-37.72,3.97C202.95,365.14,194.86,370.51,187.54,377.66z"/>
		<path fill="#609CC1" d="M312.51,837.22c-3.67-1.7-6.47-4.26-9.4-6.58c-12.59-9.95-11.67-9.91-25.7,0.67
			c-1.93,1.45-3.37,3.62-5.87,4.36c-1.12-1.54-0.65-3.08-0.65-4.48c-0.03-21.15,0.07-42.31-0.05-63.46
			c-0.02-3.59,0.84-4.92,4.71-4.83c11.15,0.27,22.32,0.15,33.48,0.08c2.53-0.02,3.99,0.39,3.98,3.5c-0.08,22.98,0,45.97,0.01,68.96
			C313.02,835.86,312.78,836.3,312.51,837.22z"/>
		<path fill="#609CC1" d="M473.16,762.19c-0.41,3.15,2.15,5.76,1.3,9.17c-1.08,4.34-3.31,6.88-7.8,6.88
			c-22.61,0.04-45.23,0.07-67.84-0.08c-5.23-0.03-8.43-4.37-7.4-9.57c0.41-2.05,1.47-3.98,2.23-5.96c8.89-1.14,17.82-0.2,26.73-0.52
			c3.47-0.13,6.94-0.16,10.41-0.23c7.07-0.09,14.14-0.13,21.21-0.32c1.84-0.05,4.09,0.67,5.21-1.74c1.86,1.78,4.03,2.52,6.63,2.4
			C466.94,762.08,470.05,762.19,473.16,762.19z"/>
		<path fill="#FEFEFE" d="M245.9,791.89c-9.11-0.21-18.27,0.8-27.32-0.86c-15.36-2.8-24.02-16.92-19.48-31.57
			c3.13,2.53,6.72,3.29,10.71,3.24c10.81-0.14,21.62,0.02,32.43-0.13c2.96-0.04,4.05,0.72,3.94,3.89
			C245.89,774.94,245.96,783.42,245.9,791.89z"/>
		<path fill="#609CC1" d="M706.31,658.97c-5.51,2.19-8.98,7.01-13.33,10.63c-14.3,11.91-30.97,17.73-49.03,20.22
			c-8.55,1.18-17.16,1.97-25.81,1.75c-1.48-0.04-3.47,0.9-4.26-1.42c11.01-2.41,22.12-4.22,32.77-8.3
			c24.43-9.36,42.7-25.83,56.72-47.51c0.51-0.79,0.7-1.91,2.65-2.35C705.93,641.09,707.17,649.98,706.31,658.97z"/>
		<path fill="#FEFEFE" d="M457.2,759.83c-1.11,2.41-3.36,1.69-5.21,1.74c-7.07,0.19-14.14,0.23-21.21,0.32
			c4.61-6.6,4.7-8.71,0.64-14.92c7.06-0.04,14.13-0.12,21.19-0.08c1.53,0.01,3.35-0.69,4.46,1.14
			C454.38,751.99,454.57,755.92,457.2,759.83z"/>
		<path fill="#FEFEFE" d="M829.87,670.65c-10.48-4.44-20.47-6.33-30.9-3.83c-2.74,0.66-5.57,1.26-8.09,2.45
			c-2.95,1.39-3.3,0.23-3.31-2.31c-0.02-12.83-0.17-25.65-0.16-38.48c0.04-53.14,0.15-106.27,0.11-159.4c0-3.08,0.84-4.82,3.61-6.22
			c12.3-6.19,24.34-5.27,36.41,0.67c2.87,1.41,2.28,3.77,2.28,5.98c0.01,37.64-0.03,75.29-0.03,112.93c0,26.65,0.04,53.3,0.07,79.95
			C829.87,664.89,829.87,667.38,829.87,670.65z"/>
		<path fill="#FEFEFE" d="M808.6,759.25c-6.49-19.42-12.75-38.17-19.02-56.92c-2.15-6.42-1.97-6.7,4.19-9.64
			c11.35-5.42,22.18-4.47,32.7,2.25c1.95,1.24,2.76,2.24,1.91,4.74C821.74,719.33,815.28,739.05,808.6,759.25z"/>
		<path fill="#FEFEFE" d="M787.9,395.91c-0.29-5.92-0.89-11.91,0.25-17.77c1.79-9.22,11.81-15.84,22.32-15.19
			c9.84,0.61,18.68,8.89,19.28,18.29c0.26,4.14-0.01,8.31,0.12,12.46c0.07,2.17-0.92,2.75-2.65,1.96
			c-12.77-5.8-25.45-4.76-38.11,0.35C788.82,396.13,788.45,395.97,787.9,395.91z"/>
		<path fill="#609CC1" d="M830.02,429.83c-0.14,2.98,0.84,6.94-0.7,8.72c-2.08,2.39-5.17-1.07-7.89-1.69
			c-10.19-2.33-20.16-2.11-29.85,1.84c-3.19,1.3-4.27,0.83-3.91-2.59c0.07-0.66-0.05-1.34,0.01-2c0.4-4.57-2.13-10.54,1.14-13.42
			c4.47-3.95,11.04-5.13,17.3-5.52c6.61-0.41,12.82,1.17,19.01,3.35c3.78,1.33,5.39,3.38,4.77,7.31c-0.2,1.3-0.03,2.66-0.03,3.99
			C829.92,429.83,829.97,429.83,830.02,429.83z"/>
		<path fill="#041E35" d="M576.99,377c-21.66,0-43.31,0-64.97,0c-17.71,0-29.76-12.06-29.75-29.79c0.02-30.98,0.17-61.97,0-92.95
			c-0.08-15.3,9.77-28.17,23.35-30.79c3.08-0.59,6.29-0.7,9.43-0.71c41.15-0.03,82.29-0.08,123.44,0.05
			c23.19,0.07,35.55,13.24,35.47,35.41c-0.11,28.65-0.12,57.31,0.09,85.96c0.16,22.54-15.79,33.48-33.1,32.98
			c-21.31-0.61-42.64-0.15-63.97-0.15C576.99,377.02,576.99,377.01,576.99,377z M578.06,354.13c0,0.04,0,0.07,0,0.11
			c21.48,0,42.96-0.02,64.44,0.01c6.27,0.01,7.93-1.4,7.94-7.89c0.03-30.31-0.01-60.61-0.12-90.92
			c-0.03-7.45-2.94-10.15-10.44-10.14c-41.3,0.05-82.59,0.1-123.89,0.17c-8.09,0.01-9.89,1.86-9.89,10.05
			c-0.01,30.14-0.02,60.28-0.04,90.42c0,6.91,1.2,8.18,8.06,8.18C535.43,354.14,556.74,354.13,578.06,354.13z"/>
		<path fill="#041E35" d="M364.66,236.13c2.29-0.05,4.13,1.09,6,2.2c6.71,3.99,12.75,1.56,14.47-5.83
			c1.42-6.09,4.92-8.79,11.44-8.83c6.57-0.04,9.87,2.43,11.53,8.64c2.16,8.07,7.73,10.19,14.93,5.66c5.38-3.37,9.13-2.82,14.22,2.11
			c5.39,5.22,6.5,9.89,3.57,15.04c-4.06,7.13-1.68,12.28,6.41,13.9c5.61,1.13,9.8,6.53,9.58,12.37c-0.22,5.82-4.61,10.6-10.54,11.49
			c-6.72,1-9.03,5.75-5.79,11.88c3.93,7.46,2.06,14.17-5.23,18.55c-2.21,1.33-4.59,2.19-7.07,0.87c-3.6-1.91-4.6-0.08-5.74,3.1
			c-3.93,10.95-8.17,21.79-12.39,32.63c-0.84,2.15-1.93,4.26-3.25,6.15c-5.49,7.87-15.41,7.63-19.92-0.81
			c-5.25-9.84-8.52-20.57-12.67-30.9c-0.62-1.54-1.28-3.08-1.74-4.68c-1.23-4.3-2.02-7.79-8.44-5.26c-4.56,1.8-8.13-2.58-10.91-6.25
			c-3.03-3.99-3.65-8.35-0.67-12.48c2.02-2.8,2.05-5.18,0.89-8.29c-1.2-3.23-2.81-4.49-6.38-4.63c-6.41-0.24-9.92-4.38-10.41-11.15
			c-0.46-6.3,2.47-10.9,8.75-11.86c4.95-0.76,7.55-3.02,8.95-7.61c0.59-1.95,0.68-3.25-0.55-4.99c-4.37-6.15-3.97-9.95,1.25-15.39
			C358.38,238.22,361.86,236.19,364.66,236.13z M418.33,283.08c0.06-11.82-9.62-21.81-21.28-21.96
			c-11.93-0.15-21.76,9.68-21.86,21.85c-0.09,11.77,10.01,21.97,21.83,22.02C408.44,305.06,418.28,294.94,418.33,283.08z"/>
		<path fill="#041E35" d="M618.45,514.32c-29.7-0.76-50.94-16.66-58.55-42.34c-9.54-32.16,13.11-67.36,47.01-73
			c16.29-2.71,31.46,0.03,44.98,9.85c1.89,1.37,3.6,1.22,5.58,1.08c11.37-0.84,18.14,8.32,13.64,18.77c-1.03,2.4,0.22,3.8,0.9,5.49
			c10.18,25.48,2.72,52.91-19.11,68.99C642.08,511.11,629.72,514.5,618.45,514.32z M637.34,426.97c-0.94-1.72-2.53-2.43-4.27-3.18
			c-5.64-2.43-11.48-3.07-17.56-2.83c-23,0.89-39.38,23.13-32.85,45.17c4.04,13.62,13.48,22.14,27.39,24.64
			c15.09,2.71,27.93-1.78,37.4-14.35c7.84-10.4,8.52-25.98,2.03-35.6c0.85-3.07,3.88-4.41,5.46-6.95c2.87-4.59,2.3-8.85-1.9-12.29
			c-3.45-2.83-8.08-2.39-11.59,1.12C640.06,424.1,638.71,425.55,637.34,426.97z"/>
		<path fill="#041E35" d="M617.54,636.2c-32.34-0.11-57.35-26.3-54.79-57.54c2.46-30.02,29.95-51.99,62.06-48.29
			c7.14,0.82,14.06,2.79,20.23,6.61c1.92,1.19,2.38,0.44,3.41-0.97c1.36-1.87,3.06-3.52,4.76-5.1c5.18-4.82,11.47-4.96,16.6-0.47
			c5.07,4.44,6.28,11.28,1.48,16.39c-4.33,4.6-3.57,8.16-1.47,13.33C684.78,596.88,657.52,636.34,617.54,636.2z M631.07,556.76
			c-0.46-2.18-2.51-1.94-3.96-2.43c-5.05-1.68-10.19-1.07-15.31-0.31c-17.76,2.64-29.28,19.79-24.39,36.67
			c3.94,13.58,14.01,20.21,27.32,21.87c19,2.37,41.97-14.8,34.22-40.93c-0.43-1.45-0.52-3.43-2.71-3.74
			c1.44-3.34,4.71-5.08,6.85-7.82c3.23-4.12,3.44-8.51,0.4-11.73c-3.26-3.45-8.34-3.56-12.54-0.56
			C637.3,550.39,635.26,554.75,631.07,556.76z"/>
		<path fill="#041E35" d="M421.76,609.93c25.82-0.01,51.65,0.22,77.47-0.18c5.89-0.09,11.3,4.95,11.43,9.79
			c0.16,5.99-4.42,10.84-10.91,11.36c-1.33,0.11-2.66,0.05-4,0.05c-49.48,0-98.96-0.01-148.44-0.02c-1.66,0-3.34,0.04-4.99-0.12
			c-5.97-0.59-10.15-5.31-9.91-11.08c0.25-5.91,4-9.67,10.39-9.73c14.66-0.15,29.32-0.06,43.98-0.06
			C398.44,609.94,410.1,609.94,421.76,609.93z"/>
		<path fill="#041E35" d="M477.75,539.64c-2.12,1.15-4.41,1.33-6.76,1.33c-42.31,0.01-84.61,0.06-126.92,0.06
			c-6.67,0-10.42-2.88-11.61-8.65c-1.07-5.18,1.34-9.63,6.12-11.76c1.79-0.8,3.58-0.71,5.38-0.71c42.3-0.05,84.61-0.06,126.91-0.05
			c1.97,0,4.02-0.27,5.85,0.83C482.73,527.01,482.96,531.27,477.75,539.64z"/>
		<path fill="#041E35" d="M474.71,580.19c-1.88,0.79-3.85,0.96-5.87,0.96c-41.66,0-83.31,0.05-124.97,0
			c-8.73-0.01-13.89-7.06-10.95-14.58c1.25-3.21,3.52-5.26,6.92-5.75c2.46-0.36,4.97-0.52,7.46-0.52
			c39.32-0.03,78.65-0.02,117.97-0.04c4.02,0,7.98,0.27,11.75,1.85C480.25,568.12,481.37,574.18,474.71,580.19z"/>
		<path fill="#041E35" d="M476,415.96c-3.74,1.6-7.63,2.02-11.69,2.02c-39.78-0.06-79.56-0.01-119.35-0.03
			c-7,0-10.54-2.28-12.01-7.46c-1.97-6.95,2.43-13.37,9.67-13.58c9.31-0.26,18.64-0.15,27.96-0.16c29.46-0.01,58.92,0,88.39,0.03
			c4.41,0,8.88-0.44,13.12,1.28c0.35,1.13,1.11,1.07,1.99,0.69c0.9,0.19,1.79,0.38,2.69,0.57C479.86,405.03,480.26,410.6,476,415.96
			z"/>
		<path fill="#041E35" d="M454.71,456.54c-2.29,1.15-4.73,1.49-7.26,1.49c-34.6,0.02-69.2,0.09-103.81,0.04
			c-8.54-0.01-13.68-7.38-10.57-14.85c2.1-5.02,6.3-6.33,11.36-6.32c26.95,0.05,53.9,0.02,80.85,0.01c5.99,0,11.98,0.12,17.97-0.02
			c4.69-0.11,9.21,0.34,13.43,2.57C459.23,445.52,459.85,451.36,454.71,456.54z"/>
		<path fill="#041E35" d="M423.64,496.42c-2.52,1.64-5.37,1.61-8.21,1.61c-23.82,0.03-47.64,0.07-71.47,0.05
			c-7.53-0.01-11.63-3.78-11.75-10.55c-0.11-6.38,4.4-10.56,11.77-10.58c23.82-0.05,47.64,0.01,71.47-0.03
			c2.91,0,5.58,0.74,8.22,1.78C428.55,484.31,428.54,488.79,423.64,496.42z"/>
		<path fill="#609CC1" d="M423.64,496.42c4.9-7.63,4.91-12.11,0.04-17.73c12.8,0.57,25.57-0.55,38.35-0.55
			c6.02,0,9.99,3.26,10.43,8.46c0.47,5.55-2.49,10.23-8.16,10.55C450.77,497.91,437.16,498.72,423.64,496.42z"/>
		<path fill="#609CC1" d="M476,415.96c4.26-5.36,3.87-10.93,0.77-16.63c11.58-1.41,23.23-1.18,34.84-0.91
			c5.7,0.13,8.45,3.7,8.44,9.08c-0.01,5.15-3.22,9.2-8.39,9.31c-11.48,0.24-22.98,0-34.47-0.09
			C476.79,416.72,476.39,416.23,476,415.96z"/>
		<path fill="#609CC1" d="M454.71,456.54c5.14-5.17,4.52-11.01,1.97-17.08c10.85-1.96,21.81-1.48,32.72-1.13
			c4.64,0.15,7.1,3.93,7.59,8.57c0.5,4.77-1.71,9.34-5.69,9.85C479.12,458.29,466.89,458.67,454.71,456.54z"/>
		<path fill="#609CC1" d="M497.12,497.09c-1.66,0-3.32,0.01-4.98,0c-6.31-0.07-9.73-3.57-9.68-9.91c0.04-5.42,3.72-8.82,9.74-8.94
			c3.98-0.08,7.97-0.24,11.95-0.11c6.28,0.2,9.11,3.42,9.05,9.98c-0.05,5.5-3.26,8.71-9.1,8.97
			C501.77,497.18,499.44,497.1,497.12,497.09z"/>
		<path fill="#609CC1" d="M521.8,580.59c-1.99,0-4,0.23-5.95-0.04c-4.93-0.68-7.72-4.16-7.78-9.33c-0.06-5.43,2.3-8.49,7.27-9.58
			c4.6-1.01,9.25-0.66,13.86-0.46c4.53,0.19,7.85,3.72,8.26,7.9c0.49,5.06-2.26,9.46-6.78,10.88
			C527.77,580.87,524.79,580.77,521.8,580.59z"/>
		<path fill="#609CC1" d="M524.12,457.7c-2.68-0.19-4.67-0.37-6.66-0.45c-6.34-0.26-8.98-2.84-9.31-9.2
			c-0.29-5.45,3.19-9.39,8.95-9.8c3.48-0.25,6.98-0.21,10.47-0.13c6.39,0.16,9.9,3.69,10.05,9.95c0.12,4.88-3.42,8.42-9.23,9.18
			C526.75,457.47,525.09,457.6,524.12,457.7z"/>
		<path fill="#609CC1" d="M474.71,580.19c6.66-6.01,5.54-12.07,2.31-18.08c4.3-1.81,8.77-1.53,13.05-0.38
			c4.96,1.32,6.54,5.14,6.08,10.05c-0.42,4.4-3.93,8.49-8.62,8.93C483.29,581.1,478.94,581.48,474.71,580.19z"/>
		<path fill="#609CC1" d="M477.75,539.64c5.21-8.36,4.98-12.63-1.02-18.96c3.62-0.13,7.26-0.55,10.85-0.32
			c5.23,0.32,9.22,4.87,9.12,9.85c-0.11,5.53-4.11,9.8-9.61,9.93C483.99,540.21,480.82,540.65,477.75,539.64z"/>
		<path fill="#609CC1" d="M474.08,398.76c-0.88,0.38-1.64,0.44-1.99-0.69C473.42,396.39,473.67,397.81,474.08,398.76z"/>
		<path fill="#041E35" d="M457.2,759.83c-2.63-3.91-2.82-7.84-0.12-11.8c2.64-2.35,5.78-2.85,9.2-2.84
			c19.62,0.05,39.25,0.19,58.87-0.1c6.31-0.09,10.63,1.86,12.82,7.88c-1.17,6.82-3.75,9.53-10.48,9.55
			c-18.11,0.06-36.23-0.2-54.34-0.33c-3.11,0-6.22-0.11-9.32,0.04C461.24,762.35,459.06,761.61,457.2,759.83z"/>
		<path fill="#041E35" d="M690.89,752.81c-5.5,8.55-20.91,8.51-25.78-0.07c0.3-8.26,2.65-10.6,10.77-10.74
			C687.55,741.81,690.21,743.73,690.89,752.81z"/>
		<path fill="#041E35" d="M621.48,787.77c-19.99,0-39.99,0.03-59.98-0.02c-7.58-0.02-11.74-5.61-9.72-12.55
			c0.96-3.3,3.13-4.99,6.29-5.57c1.95-0.35,3.96-0.52,5.94-0.52c38.49,0,76.97,0.03,115.46,0.06c1.17,0,2.34,0.02,3.49,0.13
			c6.13,0.58,10.28,4.64,9.88,9.65c-0.4,5.1-4.94,8.81-10.89,8.82C661.79,787.79,641.64,787.78,621.48,787.77z"/>
		<path fill="#FEFEFE" d="M578.06,354.13c-21.31,0-42.63,0.01-63.94-0.01c-6.86-0.01-8.07-1.28-8.06-8.18
			c0.01-30.14,0.03-60.28,0.04-90.42c0-8.2,1.8-10.04,9.89-10.05c41.3-0.06,82.59-0.12,123.89-0.17c7.5-0.01,10.41,2.69,10.44,10.14
			c0.11,30.31,0.15,60.61,0.12,90.92c-0.01,6.49-1.67,7.9-7.94,7.89c-21.48-0.03-42.96-0.01-64.44-0.01
			C578.06,354.2,578.06,354.17,578.06,354.13z M579.8,289.86c12.81,0,25.63,0.06,38.44-0.02c6.87-0.05,11.45-4.37,11.46-10.51
			c0.01-6.16-4.58-10.58-11.35-10.58c-25.63-0.03-51.25,0.04-76.88,0.06c-2.56,0-4.91,0.52-6.96,2.2
			c-4.04,3.31-4.56,7.61-3.15,12.19c1.47,4.77,5.23,6.65,9.99,6.66C554.17,289.89,566.99,289.87,579.8,289.86z M579.99,309.99
			c0,0.01,0,0.02,0,0.03c-12.82,0-25.64-0.03-38.46,0.01c-6.8,0.03-10.94,3.94-11,10.22c-0.07,6.57,4.07,10.75,10.97,10.76
			c25.47,0.04,50.95,0.04,76.42-0.03c6.98-0.02,11.81-4.55,11.85-10.79c0.04-5.73-5.05-10.18-11.83-10.2
			C605.3,309.97,592.65,309.99,579.99,309.99z"/>
		<path fill="#FEFEFE" d="M418.33,283.08c-0.06,11.86-9.89,21.98-21.31,21.92c-11.82-0.06-21.92-10.25-21.83-22.02
			c0.09-12.18,9.93-22.01,21.86-21.85C408.71,261.28,418.39,271.26,418.33,283.08z"/>
		<path fill="#609CC1" d="M649.5,440.82c6.49,9.62,5.81,25.2-2.03,35.6c-9.48,12.57-22.32,17.06-37.4,14.35
			c-13.91-2.5-23.35-11.02-27.39-24.64c-6.53-22.04,9.85-44.28,32.85-45.17c6.08-0.23,11.92,0.4,17.56,2.83
			c1.74,0.75,3.33,1.46,4.27,3.18c-6.07,8.1-13.92,14.59-20.26,22.42c-2.4,2.97-4.1,3.7-6.94,0.42c-3.25-3.75-8.5-3.95-11.41-1.01
			c-2.83,2.86-2.4,7.99,1.01,11.57c2.29,2.4,4.78,4.62,6.92,7.14c6.14,7.24,10.66,7.13,17.05-0.08
			c7.48-8.43,15.25-16.62,22.91-24.89C647.39,441.72,648.14,440.73,649.5,440.82z"/>
		<path fill="#FEFEFE" d="M649.5,440.82c-1.35-0.08-2.1,0.91-2.86,1.73c-7.67,8.27-15.43,16.46-22.91,24.89
			c-6.4,7.21-10.91,7.32-17.05,0.08c-2.14-2.52-4.64-4.74-6.92-7.14c-3.41-3.58-3.84-8.71-1.01-11.57
			c2.91-2.94,8.16-2.75,11.41,1.01c2.84,3.28,4.54,2.55,6.94-0.42c6.34-7.83,14.19-14.32,20.26-22.42c1.37-1.43,2.72-2.87,4.11-4.27
			c3.51-3.51,8.14-3.95,11.59-1.12c4.2,3.44,4.77,7.7,1.9,12.29C653.37,436.4,650.34,437.75,649.5,440.82z"/>
		<path fill="#609CC1" d="M646.25,567.88c2.18,0.31,2.28,2.29,2.71,3.74c7.75,26.14-15.22,43.3-34.22,40.93
			c-13.31-1.66-23.38-8.28-27.32-21.87c-4.89-16.88,6.63-34.02,24.39-36.67c5.13-0.76,10.27-1.37,15.31,0.31
			c1.44,0.48,3.5,0.24,3.96,2.43c-2.82,5.28-7.62,8.9-11.33,13.42c-2.69,3.28-4.71,4.99-8.23,0.54c-2.76-3.48-8.69-3.08-11.65-0.13
			c-2.86,2.85-2.79,7.14,0.46,10.7c3.69,4.04,7.52,7.95,11.4,11.8c3.13,3.11,6.47,3.1,9.6-0.03c2.58-2.57,4.92-5.39,7.54-7.92
			C634.74,579.46,639.48,572.64,646.25,567.88z"/>
		<path fill="#FEFEFE" d="M646.25,567.88c-6.78,4.76-11.51,11.58-17.39,17.25c-2.62,2.53-4.96,5.35-7.54,7.92
			c-3.14,3.13-6.47,3.13-9.6,0.03c-3.88-3.85-7.71-7.76-11.4-11.8c-3.25-3.56-3.32-7.85-0.46-10.7c2.96-2.95,8.89-3.35,11.65,0.13
			c3.52,4.45,5.54,2.74,8.23-0.54c3.72-4.52,8.51-8.13,11.33-13.42c4.19-2,6.23-6.36,9.89-8.98c4.2-3,9.28-2.9,12.54,0.56
			c3.04,3.22,2.82,7.61-0.4,11.73C650.96,562.8,647.69,564.54,646.25,567.88z"/>
		<path fill="#041E35" d="M579.8,289.87c-12.81,0-25.63,0.03-38.44-0.01c-4.77-0.01-8.52-1.9-9.99-6.66
			c-1.41-4.58-0.89-8.88,3.15-12.19c2.05-1.68,4.39-2.2,6.96-2.2c25.63-0.02,51.25-0.09,76.88-0.06
			c6.77,0.01,11.36,4.43,11.35,10.58c-0.01,6.14-4.59,10.46-11.46,10.51C605.43,289.92,592.61,289.86,579.8,289.87z"/>
		<path fill="#041E35" d="M579.99,309.99c12.65,0,25.31-0.03,37.96,0.01c6.78,0.02,11.87,4.47,11.83,10.2
			c-0.05,6.24-4.88,10.77-11.85,10.79c-25.47,0.07-50.95,0.07-76.42,0.03c-6.9-0.01-11.04-4.19-10.97-10.76
			c0.06-6.28,4.2-10.19,11-10.22c12.82-0.05,25.64-0.01,38.46-0.01C579.99,310.01,579.99,310,579.99,309.99z"/>
	</g>
</g>
</svg>
