<?xml version="1.0" encoding="utf-8"?>
<!-- Generator: Adobe Illustrator 27.8.0, SVG Export Plug-In . SVG Version: 6.00 Build 0)  -->
<svg version="1.1" id="Capa_1" xmlns="http://www.w3.org/2000/svg" xmlns:xlink="http://www.w3.org/1999/xlink" x="0px" y="0px"
	 viewBox="0 0 1024 1024" enable-background="new 0 0 1024 1024" xml:space="preserve">
<g>
	<g>
		<path fill="#FEFEFE" d="M0.09,512C0.09,342.86,0.11,173.73,0,4.59C0,0.84,0.84,0,4.59,0c338.27,0.1,676.54,0.1,1014.81,0
			c3.75,0,4.59,0.84,4.59,4.59c-0.1,338.27-0.1,676.54,0,1014.82c0,3.75-0.84,4.59-4.59,4.59c-338.27-0.1-676.54-0.1-1014.81,0
			c-3.75,0-4.6-0.84-4.59-4.59C0.11,850.27,0.09,681.14,0.09,512z M505.7,836.83c32,0.29,63.51-3.48,94.3-12.47
			c45.19-13.2,85.86-34.91,121.71-65.47c29.34-25.02,54.38-53.83,73.58-87.26c34.34-59.8,51.29-123.98,46.86-193.34
			c-0.69-10.87-1.56-21.67-3.06-32.44c-3.86-27.77-11.23-54.6-21.74-80.56c-16.17-39.94-39.39-75.33-69.06-106.56
			c-8.69-9.15-18.07-17.46-27.55-25.77c-15.81-13.86-32.93-25.68-51.2-35.79c-57.14-31.63-118.06-46.78-183.64-41.22
			c-22.85,1.94-45.23,6.26-66.98,13.28c-50.15,16.2-94.69,42-132.75,78.73c-22.87,22.07-42.32,46.81-58.66,74.01
			c-27.6,45.94-41.66,96.13-46.42,149.2c-2.67,29.74-0.12,59.2,5.23,88.41c7.07,38.64,20.55,75.01,40.22,109.06
			c27.88,48.28,65.23,87.47,112.43,117.18C389.91,817.88,445.15,836.03,505.7,836.83z M321.54,886.1c2.32,1.73,6.18-0.67,7,1.82
			c1.28,3.9,3.9,2.74,6.34,2.97c3.87,0.37,8.42-1.62,10.97,3.45c0.33,0.65,2.47,0.5,3.78,0.5c7.66,0.04,15.33-0.01,22.99,0.05
			c1.42,0.01,3.65-0.64,4.01,1.03c0.88,4.07,3.85,2.92,6.28,2.94c9.99,0.08,19.99,0,29.98,0.06c1.52,0.01,4.04-0.65,3.99,1.72
			c-0.18,8.06,4.77,4.72,8.71,4.39c2.36-0.2,3.89-3.08,6.46-1.86c7.11,3.37,15.05,1.11,22.45,3.47c4.23,1.35,9.26,0.07,13.91,0.29
			c4.85,0.22,9.67-0.71,14.55,1.61c2.33,1.11,6.62,1.94,8.91-1.92c0.39-0.66,1.14-1.5,2.03-1.03c5.06,2.68,10.47,0.66,15.67,1.3
			c0.98,0.12,2.51-0.13,2.86,0.4c3.03,4.62,7.15,2.29,10.96,1.94c1.15-0.11,2.4-0.54,3.44-0.26c9.47,2.56,19.11-0.66,28.6,0.87
			c1.09,0.18,2.69,0.38,3.16-0.84c1.12-2.91,3.5-1.93,5.51-2.1c11.61-1,23.19,0.87,34.97-1.43c8.42-1.64,17.48-0.68,26.14-2.54
			c2.38-0.51,5.28,0.91,6.24-3.11c0.38-1.59,4.1-1.3,4.33-0.59c1.45,4.55,4.56,1.12,6.72,1.77c3.43,1.04,5.47-1.11,6.14-3.48
			c1.01-3.56,3.73-3.17,5.43-2.44c4.51,1.95,8.37,1.15,13.08,0.2c7.92-1.59,16.24-0.22,24.42-2.17c5.56-1.32,9.38-6.48,6.53-11.88
			c-0.65-1.23-1.09-2.3-1.18-3.65c-0.5-8-4.63-11.95-12.4-12.65c-8.07-0.73-16.24,1.82-24.29-2.71c-5.89-3.32-13.41-1.03-20.24-2.88
			c-6.16-1.67-13.19-1.3-19.75-1.18c-15.98,0.31-31.71-3.59-47.7-2.22c-0.33,0.03-0.66-0.03-1-0.06
			c-13.17-1.35-26.38-1.76-39.56-0.75c-4.12,0.32-8.39,1.81-12.2,0.19c-2.27-0.96-4.32-1.35-6.59-1.35
			c-18.95-0.01-37.97-0.92-56.81,1.24c-8.03,0.92-15.98,1.55-24.03,1.71c-4.87,0.1-9.62,0.73-14.48,1.7
			c-7.12,1.43-14.64-0.54-22.07,1.14c-4.44,1-9.3-0.01-13.95,0.24c-5.43,0.29-11.3-0.18-16.14,1.76c-5.03,2.02-9.76,3.46-15.12,3.23
			c-3.82-0.17-7.66-0.01-11.49,0c-1.34,0-3.45,0.02-3.41,1.32c0.15,4.3-3.24,5.95-5.35,8.67c-0.84,1.09-2.48,2.39-1.59,4.77
			c1.31,3.55,0.02,5.82-4.32,5.25C323.55,884.9,322.43,884.67,321.54,886.1z M712.07,884.89c0.83,0,1.67,0.11,2.48-0.02
			c1.58-0.26,4.21,0.95,4.13-1.99c-0.08-2.87-2.67-1.63-4.26-1.88c-2.22-0.35-5.22,1.08-5.74-2.83c-0.13-0.96-1.1-1.11-1.97-1.05
			c-1.26,0.09-1.47,0.99-1.69,2.03C704.02,884,705.1,884.89,712.07,884.89z"/>
		<path fill="#2F1870" d="M505.7,836.83c-60.55-0.8-115.79-18.95-166.73-51.01c-47.2-29.71-84.55-68.9-112.43-117.18
			c-19.67-34.05-33.16-70.43-40.22-109.06c-5.34-29.21-7.89-58.68-5.23-88.41c4.76-53.07,18.82-103.26,46.42-149.2
			c16.34-27.2,35.79-51.94,58.66-74.01c38.06-36.73,82.6-62.53,132.75-78.73c21.75-7.03,44.13-11.35,66.98-13.28
			c65.58-5.56,126.49,9.58,183.64,41.22c18.27,10.11,35.39,21.93,51.2,35.79c9.48,8.31,18.86,16.62,27.55,25.77
			c29.67,31.23,52.89,66.62,69.06,106.56c10.51,25.96,17.88,52.79,21.74,80.56c1.5,10.77,2.37,21.57,3.06,32.44
			c4.43,69.37-12.53,133.54-46.86,193.34c-19.2,33.43-44.24,62.25-73.58,87.26c-35.85,30.57-76.51,52.28-121.71,65.47
			C569.21,833.35,537.7,837.12,505.7,836.83z M305.31,647.26c0.38-0.34,0.76-0.67,1.14-1.01c2.39-1.59,4.93-2.2,7.9-2.2
			c41.59,0.07,83.17,0,124.76-0.03c1.9,0,3.79,0,6.57,0c-8.02-13.91-14.05-27.7-22.12-40.41c-9.2-19.55-18.39-39.09-27.59-58.64
			c-5.05-11.89-10.19-23.74-15.06-35.71c-1.04-2.55-2.17-3.35-4.95-3.33c-19.15,0.16-38.31,0.22-57.45-0.03
			c-3.98-0.05-4.54,1.24-4.51,4.75c0.17,16.99,0,33.97,0.12,50.96c0.02,2.86-0.62,4.87-2.85,6.89
			c-7.99,7.24-15.46,15.01-23.37,22.36c-12.74,11.85-24.77,24.46-37.07,36.78c-3.35,3.35-9.12,6.05-9.24,10.37
			c-0.12,4.19,3.7,8.62,6.17,12.72c5.78,9.62,10.9,19.68,18.23,28.32c1.19,1.69,1.27,6.01,4.83,2.71
			C282.73,670.69,294.21,659.17,305.31,647.26z M715.12,728.11c9.2-8.44,17.52-17.74,26.02-26.86c0.88-0.94,2.93-2.02,1.19-3.62
			c-2.97-2.74-5.01-6.59-9.17-7.96c0.05-2.55-2.12-3.69-3.52-5.2c-12.26-13.14-24.56-26.23-36.97-39.21
			c-1.98-2.07-2.8-4.07-2.8-6.96c0.09-29.31,0.12-58.63-0.11-87.94c-0.03-4.3,0.84-5.51,5.36-5.48
			c37.31,0.17,74.61-0.02,111.92,0.08c3.72,0.01,5.41-1.02,5.67-4.75c0.65-9.59,1.23-19.19,2.29-28.74
			c0.54-4.87-1.39-5.54-5.66-5.51c-28.48,0.16-56.96,0.02-85.45,0.05c-24.98,0.02-49.96,0.13-74.94,0.19
			c-2.36,0.41-5.6-1.61-6.79,2.11c-4.04,12.58-10.21,24.29-14.78,36.65c-5.52,11.69-11.02,23.39-16.55,35.08
			c-9.85,20.84-20.39,41.33-31.15,61.71c-5.96,11.3-12.01,22.55-18.02,33.82c-1.21,1.77-2.54,3.47-3.61,5.32
			c-5.62,9.73-10.93,19.66-16.88,29.19c-2.22,3.54-1.56,4.98,1.53,7.12c12.67,8.78,25.2,17.76,37.75,26.72
			c16.33,11.65,32.7,23.26,48.92,35.07c3.77,2.74,6.92,3.42,11.13,0.82c8.03-4.95,16.28-9.56,24.62-13.98
			c3.93-2.08,3.22-3.55,0.46-6.02c-14.52-12.96-29.35-25.55-44.59-37.65c-2.46-1.95-2.77-3.14-0.43-5.32
			c6.2-5.79,12.26-11.73,18.35-17.64c0.88-0.85,1.76-1.52,3.07-1.21c6.36,6.22,12.6,12.59,19.13,18.63
			c6.64,6.14,12.52,13.1,19.78,18.58c2.34,3.71,6.26,5.88,8.93,9.25c1.82,2.29,3.52,1.84,5.5,0.34
			C702.22,739.55,708.75,733.92,715.12,728.11z M746.77,660.13c2.81,3.04,5.55,6.15,8.44,9.1c6.05,6.17,6.03,6.1,10.82-1.57
			c11.93-19.08,21.92-39.13,29.7-60.22c3.33-9.02,5.89-18.32,8.8-27.49c0.92-2.9,0.21-4.3-3.2-4.14
			c-5.47,0.26-10.95,0.17-16.42,0.23c-20.93-0.13-41.86-0.24-62.79-0.42c-2.54-0.02-2.99,1.29-2.99,3.43
			c0.03,16.62,0.01,33.24-0.05,49.86c-0.01,1.76,0.39,3.18,1.65,4.47C729.43,642.28,738.09,651.21,746.77,660.13z M571.91,802.84
			c10.1-1.96,20.08-4.34,30.53-8.2c-18.61-12.85-36.34-25.1-54.09-37.34c-6.69-4.61-13.37-9.26-20.16-13.72
			c-1.41-0.93-3.29-2.98-5-0.07c-3.19,5.45-8.45,7.08-14.27,7.65c-2.67-0.98-5.77-1.81-7.17-4.27c-3.28-5.78-8.33-6.21-14.02-5.77
			c-2.98,0.23-5.99,0.15-8.98-0.01c-2.52-0.13-4.33,0.74-6.15,2.53c-9.25,9.1-18.62,18.07-27.98,27.05
			c-8.12,7.79-16.29,15.52-24.43,23.27c0.97,1.33,2.12,1.49,3.2,1.82c35.95,11.08,72.65,15.92,110.23,12.97
			C546.51,807.75,559.35,806.13,571.91,802.84z M443.05,674.09c-39.47-0.04-78.95-0.09-118.42-0.13c-2.8,0-5.19,1.04-7.19,2.99
			c-8.93,8.72-17.76,17.55-26.83,26.12c-2.82,2.67-2.24,4.23,0.15,6.78c18.68,19.86,39.27,37.39,62.26,52.08
			c9.01,6.15,18.7,11.15,28.15,16.56c7.71,4.42,7.76,4.52,14.14-1.53c20.36-19.33,40.78-38.61,60.91-58.18
			c4.94-4.8,9.87-7.99,17.02-6.91c2.9,0.44,5.91,0.07,8.94,0.07c0.12-2.62-1.13-4.44-2.19-6.28c-3.39-5.89-6.71-11.83-10.31-17.59
			c-3.04-4.87-4.3-12.12-9.39-14.11C455.32,672.01,448.86,673.89,443.05,674.09z M794.85,476.74c5.16,0.08,10.33-0.03,15.47,0.3
			c3.54,0.23,4.62-0.98,4.37-4.49c-2.08-29.88-8.6-58.85-18.64-86.96c-11.27-31.56-27.85-60.21-48.83-86.41
			c-26.53-33.13-58.4-59.84-95.38-80.47c-26.05-14.53-54-24.14-83.05-30.53c-18.4-4.05-37.08-5.89-55.94-5.63
			c-22.28,0.09-44.38,1.75-65.92,7.96c-1.47,0.26-2.97,0.43-4.41,0.8c-72.49,18.78-130.27,59.15-174.65,119.14
			c-25,33.79-42.07,71.28-51.44,112.21c-6.13,26.75-9.58,53.84-8.26,81.38c-0.36,16.71,2.23,33.12,4.84,49.54
			c3.02,19.01,7.95,37.46,15.71,55.38c1.06-0.97,1.93-1.72,2.75-2.52c16.36-16.03,32.57-32.21,49.2-47.96
			c3.51-3.33,4.86-6.44,4.81-11.11c-0.22-18.82-0.14-37.64-0.07-56.46c0.03-9.92,4.04-13.93,13.91-13.95
			c20.65-0.06,41.3-0.02,61.95-0.02c2.09,0,4.18,0,6.74,0c-0.52-1.53-0.81-2.46-1.15-3.37c-8.12-21.68-15.42-43.6-19.45-66.47
			c-6.24-35.49-5.23-70.64,9.65-103.82c28.74-64.09,77.56-100.57,148.91-104.4c1.02-0.01,2.03-0.02,3.05-0.03
			c1.62-0.05,3.24-0.1,4.87-0.14c15.59,0.52,30.97,2.49,46.09,6.38c2.16,0.87,4.3,1.78,6.48,2.59c40.03,14.8,70.5,40.91,91.18,78.11
			c22.45,40.38,26.1,83.38,16.63,128.06c-4.42,20.88-11.16,41.02-18.41,61.03c-1.38,1.69-0.73,2.19,1.15,1.98
			C702.96,476.81,748.91,476.77,794.85,476.74z M547.12,232.1c-2.37-1.63-5.1-2.43-7.86-2.9c-41.04-7.1-78.82,0.5-112.06,26.18
			c-30.87,23.85-48.84,55.49-54.07,94.19c-2.84,21.02-0.51,41.77,4.05,62.35c3.07,14.99,7.52,29.61,12.86,43.9
			c7.37,19.73,14.91,39.38,23.6,58.63c11.22,24.85,22.56,49.62,34.83,73.97c18.7,37.13,38.31,73.76,59.54,109.51
			c1.15,1.91,2.3,3.82,3.73,6.21c4.49-7.17,8.78-13.64,12.67-20.34c7.49-12.92,14.89-25.9,22.04-39.01
			c5.27-9.66,9.75-19.77,15.18-29.34c8.05-14.18,15.13-28.86,22.09-43.56c12.15-25.68,23.92-51.54,34.77-77.83
			c8.46-20.5,16.42-41.17,22.88-62.35c8.23-27.01,12.83-54.37,8.8-82.93c-5.1-36.2-22.26-65.28-49.36-89
			c-2.93-2.57-5.76-5.55-9.69-6.81c-7.91-6.21-16.4-11.51-25.82-15.09C559.36,235.62,553.8,232.06,547.12,232.1z"/>
		<path fill="#CDC0F4" d="M321.54,886.1c0.89-1.43,2.01-1.2,2.89-1.08c4.34,0.57,5.64-1.7,4.32-5.25c-0.88-2.39,0.75-3.68,1.59-4.77
			c2.1-2.71,5.5-4.37,5.35-8.67c-0.04-1.3,2.07-1.32,3.41-1.32c3.83-0.01,7.67-0.16,11.49,0c5.36,0.23,10.09-1.21,15.12-3.23
			c4.84-1.94,10.71-1.48,16.14-1.76c4.65-0.24,9.51,0.76,13.95-0.24c7.42-1.68,14.95,0.29,22.07-1.14c4.86-0.97,9.61-1.6,14.48-1.7
			c8.04-0.17,16-0.79,24.03-1.71c18.84-2.16,37.86-1.25,56.81-1.24c2.27,0,4.32,0.39,6.59,1.35c3.81,1.62,8.09,0.12,12.2-0.19
			c13.18-1.01,26.39-0.6,39.56,0.75c0.33,0.03,0.67,0.09,1,0.06c15.99-1.37,31.72,2.53,47.7,2.22c6.55-0.13,13.59-0.49,19.75,1.18
			c6.83,1.85,14.35-0.43,20.24,2.88c8.04,4.53,16.21,1.99,24.29,2.71c7.77,0.7,11.9,4.65,12.4,12.65c0.08,1.34,0.53,2.42,1.18,3.65
			c2.84,5.4-0.97,10.56-6.53,11.88c-8.18,1.95-16.5,0.57-24.42,2.17c-4.7,0.95-8.57,1.75-13.08-0.2c-1.7-0.74-4.42-1.13-5.43,2.44
			c-0.67,2.37-2.71,4.52-6.14,3.48c-2.15-0.66-5.27,2.77-6.72-1.77c-0.23-0.71-3.95-1-4.33,0.59c-0.96,4.01-3.86,2.6-6.24,3.11
			c-8.66,1.86-17.72,0.9-26.14,2.54c-11.78,2.3-23.36,0.43-34.97,1.43c-2.01,0.17-4.38-0.81-5.51,2.1
			c-0.47,1.23-2.07,1.02-3.16,0.84c-9.5-1.53-19.13,1.69-28.6-0.87c-1.05-0.28-2.29,0.15-3.44,0.26c-3.81,0.36-7.93,2.68-10.96-1.94
			c-0.35-0.53-1.88-0.28-2.86-0.4c-5.2-0.63-10.62,1.39-15.67-1.3c-0.89-0.47-1.64,0.37-2.03,1.03c-2.29,3.86-6.58,3.03-8.91,1.92
			c-4.89-2.33-9.71-1.39-14.55-1.61c-4.65-0.22-9.68,1.06-13.91-0.29c-7.4-2.36-15.33-0.1-22.45-3.47c-2.58-1.22-4.1,1.66-6.46,1.86
			c-3.94,0.33-8.89,3.67-8.71-4.39c0.05-2.37-2.47-1.72-3.99-1.72c-9.99-0.05-19.99,0.02-29.98-0.06c-2.43-0.02-5.39,1.13-6.28-2.94
			c-0.36-1.67-2.59-1.02-4.01-1.03c-7.66-0.06-15.33-0.01-22.99-0.05c-1.3-0.01-3.45,0.14-3.78-0.5c-2.55-5.06-7.1-3.08-10.97-3.45
			c-2.44-0.23-5.05,0.92-6.34-2.97C327.72,885.44,323.86,887.84,321.54,886.1z"/>
		<path fill="#CDC0F4" d="M712.07,884.89c-6.97,0-8.05-0.89-7.05-5.75c0.22-1.05,0.43-1.94,1.69-2.03c0.87-0.06,1.84,0.1,1.97,1.05
			c0.52,3.91,3.52,2.49,5.74,2.83c1.59,0.25,4.18-1,4.26,1.88c0.08,2.94-2.55,1.74-4.13,1.99C713.74,885,712.9,884.89,712.07,884.89
			z"/>
		<path fill="#CC6998" d="M508.01,697.93c-21.23-35.75-40.83-72.39-59.54-109.51c-12.27-24.35-23.61-49.11-34.83-73.97
			c-8.69-19.25-16.22-38.9-23.6-58.63c-5.34-14.29-9.8-28.91-12.86-43.9c1.35-1.22,0.77-2.81,0.71-4.23
			c-1.22-30.03,3.42-59.02,15.16-86.78c8.08-19.11,20.23-35.27,35.53-49.15c9.65-8.76,20.5-15.64,32.34-21.12
			c24.82-11.49,50.43-15.05,77.17-8.27c5.11,1.3,8.88-1.56,8.94-6.79c0.01-1.16,0.06-2.31,0.09-3.47
			c6.68-0.05,12.24,3.52,18.17,5.78c9.41,3.58,17.9,8.87,25.81,15.09c-0.03,4.16,0.16,8.34-0.15,12.48
			c-0.31,4.12,0.87,7.16,3.96,10.11c7.19,6.86,13.26,14.68,18.23,23.35c8.5,14.81,14.79,30.39,16.46,47.52
			c0.79,8.14,2.15,16.29,1.03,25.57c-1.01-3.47-1.69-5.97-2.47-8.44c-3.52-11.19-10.59-20.47-16.86-30.09
			c-2.29-3.51-4.49-7.88-9.12-9.49c-5.08-8.06-8.79-16.97-15.16-24.24c-20.16-23-45.29-35.67-76.1-35.53
			c-26.7,0.12-49.82,9.44-68.48,28.93c-23.3,24.34-32.34,53.41-27.7,86.53c3.17,22.59,14.08,41.46,30.41,57.25
			c-0.07,6.83,0.24,13.68-0.31,20.47c-0.46,5.67,2.08,9.01,6.47,11.8c5.86,3.72,12.38,6.63,17.86,10.53
			c7.66,5.45,16.25,6,24.53,8.12c8.4,2.15,17.19,1.24,25.82,1.15c6.27-0.07,12.47,0.16,18.76-1.65c6.36-1.84,12.48-4.22,18.75-6.21
			c14.82-4.69,27.19-13.27,38.57-23.4c6.68-5.94,12.7-12.6,18.09-19.79c0.57-0.76,1.31-1.92,2.37-1.41
			c1.53,0.73,0.64,2.02,0.12,2.97c-1.93,3.54-2.3,7.66-3.85,11.21c-8.73,20.03-16.32,40.51-24.4,60.8
			c-5.75,14.45-11.83,28.78-17.8,43.14c-5.65,13.56-11.77,26.94-16.93,40.69c-6.26,16.67-13.8,32.77-20.71,49.15
			c-5.65,13.41-12.29,26.39-17.44,40.05C513.32,689.19,511.34,693.99,508.01,697.93z"/>
		<path fill="#CDC0F4" d="M513.89,198.7c-1.62,0.05-3.24,0.1-4.87,0.14c-1.03-0.91-2.04-0.88-3.05,0.03
			c-71.35,3.82-120.17,40.31-148.91,104.4c-14.88,33.18-15.89,68.32-9.65,103.82c4.02,22.88,11.32,44.8,19.45,66.47
			c0.34,0.91,0.63,1.85,1.15,3.37c-2.56,0-4.65,0-6.74,0c-20.65,0-41.3-0.04-61.95,0.02c-9.88,0.03-13.88,4.03-13.91,13.95
			c-0.07,18.82-0.14,37.64,0.07,56.46c0.05,4.67-1.3,7.78-4.81,11.11c-16.63,15.75-32.84,31.94-49.2,47.96
			c-0.82,0.8-1.69,1.55-2.75,2.52c-7.75-17.91-12.69-36.36-15.71-55.38c-2.61-16.42-5.2-32.84-4.84-49.55
			c1.72,4.21,0.62,8.79,1.79,13.13c1.35,4.98,7.08,9.97,8.65,7.49c2.17-3.42,6.33-4.43,7.88-8.07c0.3-0.71,0.66-1.81,0.34-2.33
			c-3.41-5.57-1.26-11.66-1.6-17.48c-0.18-3.2-0.32-5.55-3.93-6.72c-3.96-1.28-3.05-3.44-0.29-5.32c1.23-0.84,2.66-1.37,3.93-2.16
			c2.43-1.52,4.81-3.29,5.01-6.39c0.63-9.91,2.52-19.63,3.99-29.42c3.09-20.51,8.88-40.32,16.71-59.39
			c6.83-16.65,15.4-32.5,25.28-47.71c11.89-18.29,25.5-35.1,40.72-50.53c11.07-11.22,22.89-21.74,35.72-31.07
			c24.21-17.6,49.77-32.69,77.87-43.24c15.06-5.65,17.06-8.64,16.68-24.33c21.54-6.21,43.64-7.87,65.92-7.96
			C512.66,187.97,514.46,193.26,513.89,198.7z"/>
		<path fill="#FEFEFE" d="M641.99,697.97c-1.31-0.31-2.19,0.36-3.07,1.21c-6.09,5.9-12.15,11.85-18.35,17.64
			c-2.34,2.18-2.03,3.37,0.43,5.32c15.24,12.1,30.07,24.69,44.59,37.65c2.76,2.47,3.47,3.94-0.46,6.02
			c-8.34,4.42-16.59,9.04-24.62,13.98c-4.21,2.59-7.37,1.92-11.13-0.82c-16.22-11.81-32.58-23.42-48.92-35.07
			c-12.55-8.95-25.08-17.94-37.75-26.72c-3.08-2.14-3.74-3.58-1.53-7.12c5.95-9.52,11.26-19.45,16.88-29.19
			c1.07-1.85,2.4-3.55,3.61-5.32c3.43,2.53,6.4,5.69,10.32,7.55c11.45,10.54,11.52,10.6,21.88,0.33
			c17.13-16.97,34.15-34.04,51.24-51.04c1.69-1.68,3.01-3.28,2.97-5.97c-0.18-10.83-0.13-21.65-0.16-32.48
			c1.59-16.32,1.68-32.63-0.01-48.95c0-5.15,0.02-10.3,0-15.45c-0.01-4.98,1.28-10.52-0.48-14.79c-1.67-4.06-0.25-5.95,1.53-8.56
			c24.98-0.07,49.96-0.17,74.94-0.19c28.48-0.02,56.96,0.11,85.45-0.05c4.27-0.02,6.2,0.64,5.66,5.51
			c-1.06,9.55-1.64,19.15-2.29,28.74c-0.25,3.73-1.95,4.76-5.67,4.75c-37.31-0.1-74.62,0.1-111.92-0.08
			c-4.52-0.02-5.39,1.18-5.36,5.48c0.23,29.31,0.2,58.63,0.11,87.94c-0.01,2.89,0.82,4.89,2.8,6.96
			c12.41,12.98,24.72,26.08,36.97,39.21c1.41,1.51,3.57,2.65,3.52,5.2c-0.26,0.94-0.21,2.33-0.82,2.74
			c-5.56,3.75-9.26,8.97-12.31,14.78c-0.29,0.56-0.67,1.5-1.06,1.53c-6.45,0.43-8.29,7.03-13.05,9.67
			c-1.32-0.18-2.64-0.36-3.95-0.53c-4.21-4.68-8.39-9.4-12.63-14.05c-5.79-6.33-11.7-12.55-17.43-18.94
			c-7.74-8.62-7.69-8.67-16.03-0.37c-2.24,2.23-4.33,4.64-6.74,6.68C646.63,693.32,645.26,696.65,641.99,697.97z"/>
		<path fill="#CDC0F4" d="M655.86,474.87c7.25-20.01,13.99-40.15,18.41-61.03c9.47-44.68,5.82-87.67-16.63-128.06
			c-20.68-37.2-51.16-63.32-91.18-78.11c-2.18-0.81-4.32-1.72-6.48-2.59c0.39-0.28,0.82-0.86,1.17-0.81
			c22.66,2.85,44.31,9.12,64.75,19.35c15.41,7.71,29.85,16.9,43.59,27.41c11.44,8.75,22.97,17.26,33.35,27.31
			c9.69,9.38,18.06,19.89,26.99,29.93c8.06,9.06,14.53,19.24,20.92,29.38c5.35,8.5,10.45,17.23,14.94,26.3
			c6.45,13.04,11.64,26.58,16.09,40.33c3.9,12.06,7.5,24.33,9.35,36.96c1.72,11.78,4.64,23.44,3.72,35.5
			c-45.95,0.04-91.89,0.08-137.84,0.11C656.63,476.19,656.24,475.53,655.86,474.87z"/>
		<path fill="#AC467F" d="M508.01,697.93c3.33-3.94,5.31-8.74,7.06-13.38c5.15-13.66,11.79-26.64,17.44-40.05
			c6.9-16.38,14.44-32.48,20.71-49.15c5.16-13.74,11.29-27.12,16.93-40.69c5.98-14.36,12.05-28.69,17.8-43.14
			c8.08-20.29,15.67-40.77,24.4-60.8c1.55-3.55,1.92-7.67,3.85-11.21c0.52-0.95,1.41-2.25-0.12-2.97c-1.06-0.51-1.8,0.65-2.37,1.41
			c-5.39,7.19-11.41,13.84-18.09,19.79c-11.38,10.13-23.75,18.71-38.57,23.4c-6.27,1.99-12.39,4.37-18.75,6.21
			c-6.29,1.82-12.49,1.59-18.76,1.65c-8.63,0.09-17.42,1.01-25.82-1.15c-8.28-2.12-16.86-2.67-24.53-8.12
			c-5.48-3.9-12-6.81-17.86-10.53c-4.39-2.78-6.93-6.13-6.47-11.8c0.55-6.79,0.25-13.64,0.31-20.47c4.49,1.9,7.39,5.89,11.37,8.56
			c22.57,15.16,47.4,20.45,73.66,15.08c32.9-6.74,57.38-25.5,70.84-56.82c8.27-19.24,11.3-39.27,6.5-60.2
			c-1.52-6.62-4.51-12.79-5.34-19.56c4.62,1.61,6.83,5.98,9.12,9.49c6.27,9.62,13.33,18.9,16.86,30.09
			c0.78,2.47,1.46,4.97,2.47,8.44c1.12-9.29-0.24-17.43-1.03-25.57c-1.67-17.13-7.96-32.71-16.46-47.52
			c-4.97-8.67-11.05-16.48-18.23-23.35c-3.09-2.95-4.26-5.99-3.96-10.11c0.31-4.14,0.12-8.32,0.15-12.48
			c3.93,1.26,6.76,4.25,9.69,6.81c27.1,23.72,44.26,52.8,49.36,89c4.03,28.56-0.58,55.92-8.8,82.93
			c-6.45,21.19-14.42,41.86-22.88,62.35c-10.85,26.28-22.61,52.15-34.77,77.83c-6.96,14.71-14.03,29.38-22.09,43.56
			c-5.43,9.57-9.91,19.67-15.18,29.34c-7.15,13.11-14.55,26.09-22.04,39.01c-3.88,6.7-8.18,13.16-12.67,20.34
			C510.3,701.75,509.15,699.84,508.01,697.93z"/>
		<path fill="#FEFEFE" d="M265.97,679.05c-7.33-8.63-12.45-18.69-18.23-28.32c-2.46-4.1-6.28-8.53-6.17-12.72
			c0.12-4.32,5.89-7.02,9.24-10.37c12.3-12.32,24.33-24.94,37.07-36.78c7.9-7.35,15.38-15.12,23.37-22.36
			c2.23-2.02,2.87-4.03,2.85-6.89c-0.12-16.99,0.05-33.97-0.12-50.96c-0.03-3.51,0.53-4.8,4.51-4.75
			c19.15,0.26,38.3,0.19,57.45,0.03c2.78-0.02,3.92,0.78,4.95,3.33c4.87,11.96,10.01,23.81,15.06,35.71
			c-4.21,1.22-8.52,1.02-12.83,1.01c-8.65-0.02-17.3-0.01-25.94,0.02c-1.95,0.01-4.3-0.43-4.16,2.73c0.41,9.1-0.67,18.21,0.71,27.33
			c0.94,6.2,0.85,12.22-5.03,17.02c-3.82,3.12-8.37,5.81-11.38,10.92c2.22,0,3.82,0,5.43,0c20.46,0,40.91,0.03,61.37-0.02
			c6.48-0.02,12.95-0.24,19.43-0.37c8.07,12.71,14.1,26.51,22.12,40.41c-2.78,0-4.68,0-6.57,0c-41.59,0.03-83.17,0.1-124.76,0.03
			c-2.97,0-5.5,0.61-7.9,2.2c-0.72-0.05-1.11,0.28-1.14,1.01c-2.34-0.53-3.82,1.27-5.2,2.42
			C288.54,659.24,278.47,670.56,265.97,679.05z"/>
		<path fill="#FEFEFE" d="M446.93,190.51c0.38,15.69-1.62,18.68-16.68,24.33c-28.11,10.55-53.66,25.64-77.87,43.24
			c-12.84,9.33-24.65,19.85-35.72,31.07c-15.22,15.43-28.84,32.24-40.72,50.53c-9.88,15.21-18.45,31.06-25.28,47.71
			c-7.83,19.07-13.62,38.88-16.71,59.39c-1.48,9.79-3.36,19.51-3.99,29.42c-0.2,3.1-2.57,4.87-5.01,6.39
			c-1.26,0.79-2.7,1.32-3.93,2.16c-2.77,1.88-3.68,4.04,0.29,5.32c3.61,1.17,3.74,3.52,3.93,6.72c0.34,5.82-1.81,11.91,1.6,17.48
			c0.32,0.52-0.04,1.61-0.34,2.33c-1.55,3.64-5.71,4.65-7.88,8.07c-1.57,2.48-7.3-2.51-8.65-7.49c-1.17-4.34-0.07-8.92-1.79-13.13
			c-1.32-27.54,2.14-54.62,8.26-81.38c9.37-40.93,26.44-78.41,51.44-112.21c44.38-59.99,102.16-100.36,174.65-119.14
			C443.96,190.94,445.46,190.77,446.93,190.51z"/>
		<path fill="#A48DDA" d="M794.85,476.74c0.92-12.06-2-23.72-3.72-35.5c-1.85-12.63-5.45-24.9-9.35-36.96
			c-4.45-13.74-9.63-27.28-16.09-40.33c-4.49-9.08-9.59-17.8-14.94-26.3c-6.39-10.15-12.86-20.33-20.92-29.38
			c-8.93-10.04-17.3-20.55-26.99-29.93c-10.38-10.05-21.91-18.56-33.35-27.31c-13.74-10.51-28.18-19.69-43.59-27.41
			c-20.44-10.23-42.09-16.5-64.75-19.35c-0.35-0.04-0.78,0.53-1.17,0.81c-15.12-3.89-30.5-5.86-46.09-6.38
			c0.58-5.44-1.23-10.73-1.04-16.15c18.86-0.26,37.54,1.59,55.94,5.63c29.05,6.39,57,16,83.05,30.53
			c36.98,20.63,68.85,47.34,95.38,80.47c20.98,26.2,37.56,54.86,48.83,86.41c10.04,28.11,16.56,57.08,18.64,86.96
			c0.25,3.51-0.83,4.72-4.37,4.49C805.18,476.71,800.01,476.81,794.85,476.74z"/>
		<path fill="#CDC0F4" d="M353.02,761.93c-22.99-14.69-43.58-32.22-62.26-52.08c-2.39-2.54-2.97-4.11-0.15-6.78
			c9.07-8.57,17.9-17.4,26.83-26.12c1.99-1.95,4.39-2.99,7.19-2.99c39.47,0.04,78.95,0.08,118.42,0.13
			c-12.14,11.6-24.04,23.48-36.5,34.73c-17.06,15.42-32.75,32.27-50.1,47.38C354.85,757.61,352.8,759.21,353.02,761.93z"/>
		<path fill="#CDC0F4" d="M571.91,802.84c-12.56,3.28-25.4,4.91-38.29,5.92c-37.58,2.95-74.28-1.89-110.23-12.97
			c-1.08-0.33-2.23-0.49-3.2-1.82c8.14-7.75,16.31-15.48,24.43-23.27c9.36-8.98,18.73-17.95,27.98-27.05
			c1.82-1.79,3.62-2.66,6.15-2.53c2.99,0.16,6,0.24,8.98,0.01c5.7-0.44,10.74-0.01,14.02,5.77c1.4,2.46,4.5,3.29,7.17,4.27
			c-0.76,4.82,2.72,7.13,5.78,9.61c7.79,6.3,15.71,12.42,23.71,18.46C549.33,787.5,560.43,795.43,571.91,802.84z"/>
		<path fill="#FEFEFE" d="M353.02,761.93c-0.22-2.72,1.83-4.32,3.44-5.72c17.35-15.11,33.03-31.97,50.1-47.38
			c12.46-11.25,24.35-23.13,36.5-34.73c5.81-0.2,12.27-2.09,17.24-0.14c5.09,1.99,6.34,9.24,9.39,14.11
			c3.6,5.76,6.92,11.7,10.31,17.59c1.06,1.84,2.31,3.66,2.19,6.28c-3.03,0-6.04,0.37-8.94-0.07c-7.15-1.08-12.08,2.11-17.02,6.91
			c-20.13,19.57-40.55,38.85-60.91,58.18c-6.37,6.05-6.42,5.95-14.14,1.53C371.72,773.07,362.03,768.07,353.02,761.93z"/>
		<path fill="#A48DDA" d="M647.91,545c1.69,16.32,1.6,32.63,0.01,48.95c-6.48,2.73-9.64,8.99-13.89,13.84
			c-13.94,15.9-27.34,32.28-40.56,48.79c-7.11,8.89-15.44,16.79-21.49,26.53c-3.92-1.86-6.89-5.02-10.32-7.55
			c6.01-11.27,12.06-22.52,18.02-33.82c10.76-20.38,21.29-40.87,31.15-61.71c5.53-11.69,11.03-23.39,16.55-35.08
			C634.23,544.96,641.07,544.98,647.91,545z"/>
		<path fill="#CDC0F4" d="M746.77,660.13c-8.67-8.92-17.34-17.85-26.04-26.75c-1.26-1.29-1.66-2.7-1.65-4.47
			c0.06-16.62,0.08-33.24,0.05-49.86c0-2.15,0.45-3.45,2.99-3.43c20.93,0.18,41.86,0.29,62.79,0.42c-2.1,7.16-4.78,14.14-7.03,21.23
			c-5.27,16.66-13.22,32.06-21.35,47.4C753.67,650.08,750.68,655.4,746.77,660.13z"/>
		<path fill="#CDC0F4" d="M423.55,603.6c-6.48,0.13-12.95,0.35-19.43,0.37c-20.45,0.05-40.91,0.02-61.37,0.02c-1.61,0-3.21,0-5.43,0
			c3.02-5.11,7.56-7.8,11.38-10.92c5.88-4.8,5.97-10.82,5.03-17.02c-1.38-9.12-0.31-18.23-0.71-27.33
			c-0.14-3.15,2.22-2.72,4.16-2.73c8.65-0.03,17.3-0.04,25.94-0.02c4.31,0.01,8.62,0.21,12.83-1.01
			C405.16,564.51,414.35,584.06,423.55,603.6z"/>
		<path fill="#FEFEFE" d="M547.12,232.1c-0.03,1.16-0.08,2.31-0.09,3.47c-0.06,5.23-3.83,8.08-8.94,6.79
			c-26.74-6.78-52.35-3.23-77.17,8.27c-11.84,5.48-22.68,12.36-32.34,21.12c-15.3,13.88-27.45,30.04-35.53,49.15
			c-11.74,27.76-16.38,56.76-15.16,86.78c0.06,1.42,0.64,3.01-0.71,4.23c-4.56-20.57-6.89-41.32-4.05-62.34
			c5.24-38.7,23.21-70.34,54.07-94.19c33.23-25.68,71.01-33.29,112.06-26.18C542.02,229.67,544.75,230.47,547.12,232.1z"/>
		<path fill="#A48DDA" d="M571.91,802.84c-11.48-7.42-22.58-15.34-33.5-23.6c-7.99-6.05-15.92-12.16-23.71-18.46
			c-3.07-2.48-6.55-4.79-5.78-9.61c5.82-0.57,11.08-2.2,14.27-7.65c1.71-2.91,3.58-0.86,5,0.07c6.79,4.46,13.47,9.1,20.16,13.72
			c17.75,12.24,35.48,24.49,54.09,37.34C591.99,798.5,582.01,800.88,571.91,802.84z"/>
		<path fill="#A48DDA" d="M746.77,660.13c3.91-4.73,6.91-10.06,9.76-15.45c8.13-15.34,16.08-30.73,21.35-47.4
			c2.25-7.1,4.93-14.07,7.03-21.23c5.48-0.06,10.96,0.03,16.42-0.23c3.41-0.16,4.11,1.24,3.2,4.14c-2.91,9.17-5.47,18.47-8.8,27.49
			c-7.79,21.09-17.77,41.15-29.7,60.22c-4.8,7.67-4.77,7.74-10.82,1.57C752.31,666.28,749.58,663.17,746.77,660.13z"/>
		<path fill="#CDC0F4" d="M641.99,697.97c3.27-1.32,4.63-4.65,7.15-6.78c2.41-2.04,4.5-4.45,6.74-6.68
			c8.34-8.3,8.29-8.25,16.03,0.37c5.73,6.38,11.64,12.6,17.43,18.94c4.25,4.65,8.42,9.36,12.63,14.05
			c-4.36,4.2-9.07,7.92-14.12,11.29c-2.5,1.67-5.51,3.03-6.96,6.02c-7.26-5.48-13.14-12.44-19.78-18.58
			C654.59,710.55,648.36,704.19,641.99,697.97z"/>
		<path fill="#CDC0F4" d="M705.94,718.39c4.76-2.64,6.6-9.24,13.05-9.67c0.39-0.03,0.76-0.97,1.06-1.53
			c3.05-5.81,6.75-11.03,12.31-14.78c0.61-0.41,0.56-1.81,0.82-2.74c4.16,1.37,6.2,5.21,9.17,7.96c1.74,1.6-0.32,2.68-1.19,3.62
			c-8.5,9.12-16.82,18.42-26.02,26.85C710.66,726.19,707.78,722.78,705.94,718.39z"/>
		<path fill="#CDC0F4" d="M647.91,545c-6.84-0.02-13.68-0.04-20.53-0.05c4.57-12.36,10.74-24.07,14.78-36.65
			c1.19-3.72,4.43-1.7,6.79-2.11c-1.78,2.61-3.2,4.5-1.53,8.57c1.76,4.27,0.47,9.81,0.48,14.79
			C647.93,534.7,647.92,539.85,647.91,545z"/>
		<path fill="#A48DDA" d="M705.94,718.39c1.85,4.39,4.73,7.8,9.19,9.71c-6.37,5.81-12.91,11.44-19.79,16.65
			c-1.98,1.5-3.67,1.95-5.5-0.34c-2.67-3.36-6.59-5.54-8.93-9.25c1.45-2.99,4.46-4.34,6.96-6.02c5.05-3.37,9.76-7.09,14.12-11.29
			C703.3,718.04,704.62,718.22,705.94,718.39z"/>
		<path fill="#CDC0F4" d="M265.97,679.05c12.51-8.49,22.57-19.8,34.14-29.37c1.39-1.15,2.87-2.94,5.21-2.42
			c-11.1,11.9-22.59,23.43-34.51,34.49C267.24,685.05,267.15,680.74,265.97,679.05z"/>
		<path fill="#A48DDA" d="M505.97,198.87c1.01-0.91,2.02-0.94,3.05-0.03C508.01,198.86,506.99,198.86,505.97,198.87z"/>
		<path fill="#A48DDA" d="M655.86,474.87c0.38,0.66,0.77,1.32,1.15,1.98C655.13,477.06,654.48,476.56,655.86,474.87z"/>
		<path fill="#CDC0F4" d="M305.31,647.26c0.03-0.73,0.42-1.06,1.14-1.01C306.07,646.59,305.69,646.92,305.31,647.26z"/>
		<path fill="#2F1870" d="M602.2,323.98c0.82,6.77,3.82,12.93,5.34,19.56c4.8,20.93,1.77,40.97-6.5,60.2
			c-13.46,31.32-37.94,50.08-70.84,56.82c-26.26,5.38-51.09,0.08-73.66-15.08c-3.98-2.67-6.88-6.66-11.37-8.56
			c-16.33-15.8-27.25-34.66-30.41-57.25c-4.64-33.13,4.4-62.2,27.7-86.53c18.66-19.49,41.78-28.81,68.48-28.93
			c30.81-0.14,55.94,12.53,76.1,35.53C593.41,307,597.12,315.91,602.2,323.98z M485.71,428.23c14.39,6.42,29.29,7.13,44.29,3.03
			c37.29-10.18,58.13-46.68,49.02-85.35c-6.31-26.8-30.04-48.28-57.18-51.78c-30.06-3.88-57.25,9.09-70.7,34.38
			c-6.88,12.93-10.87,26.75-8.27,41.71C443.79,395.18,461.35,418.96,485.71,428.23z"/>
		<path fill="#CDC0F4" d="M571.99,683.11c6.04-9.75,14.38-17.64,21.49-26.53c13.21-16.52,26.62-32.89,40.56-48.79
			c4.25-4.85,7.41-11.11,13.89-13.84c0.03,10.83-0.02,21.66,0.16,32.48c0.04,2.69-1.28,4.29-2.97,5.97
			c-17.09,17-34.11,34.08-51.24,51.04C583.51,693.72,583.44,693.65,571.99,683.11z"/>
		<path fill="#FEFEFE" d="M485.71,428.23c-24.36-9.27-41.92-33.06-42.83-58.01c0.41-16.44,7.14-30.64,18.54-41.59
			c15.39-14.77,34.18-22.14,56.16-18.63c21.16,3.38,36.78,14.71,44.1,34.63c6.8,18.48,4.88,36.86-6.61,53.93
			c-10.44,15.52-25.53,23.29-42.86,27.19C503.63,427.7,494.56,427.48,485.71,428.23z"/>
		<path fill="#CDC0F4" d="M485.71,428.23c8.85-0.75,17.92-0.54,26.51-2.47c17.33-3.9,32.41-11.67,42.86-27.19
			c11.48-17.07,13.4-35.45,6.61-53.93c-7.32-19.91-22.94-31.24-44.1-34.63c-21.98-3.52-40.77,3.86-56.16,18.63
			c-11.41,10.94-18.14,25.15-18.54,41.59c-2.6-14.96,1.39-28.77,8.27-41.71c13.45-25.29,40.64-38.26,70.7-34.38
			c27.15,3.5,50.87,24.98,57.18,51.78c9.11,38.67-11.73,75.16-49.02,85.35C514.99,435.36,500.1,434.65,485.71,428.23z"/>
	</g>
</g>
</svg>
