<?xml version="1.0" encoding="utf-8"?>
<!-- Generator: Adobe Illustrator 27.8.0, SVG Export Plug-In . SVG Version: 6.00 Build 0)  -->
<svg version="1.1" id="Capa_1" xmlns="http://www.w3.org/2000/svg" xmlns:xlink="http://www.w3.org/1999/xlink" x="0px" y="0px"
	 viewBox="0 0 768 768" enable-background="new 0 0 768 768" xml:space="preserve">
<g>
	<g>
		<path fill="#FFFFFF" d="M-14.14,768c0-256,0-512,0-768c256,0,512,0,768,0c0,256,0,512,0,768C497.86,768,241.86,768-14.14,768z
			 M373.79,284.55c0,7.52-0.17,14.61,0.07,21.69c0.13,3.99-1.19,6.54-4.51,8.96c-39.72,28.9-79.33,57.96-118.95,86.99
			c-6.13,4.49-12.37,8.87-18.28,13.63c-3.95,3.19-4.89,8.1-3.17,12.57c1.6,4.18,5.58,6.81,10.59,6.93c2.71,0.06,5.43,0.01,8.4,0.01
			c0,51.83,0,103.3,0,155.18c-4.7,0-9.18-0.16-13.64,0.04c-6.24,0.27-10.62,4.69-10.9,10.69c-0.27,5.83,3.82,11.02,9.66,11.98
			c2.08,0.34,4.23,0.33,6.34,0.33c54.19,0.03,108.38,0.03,162.57,0.04c43.83,0.01,87.65,0.05,131.48-0.07
			c2.87-0.01,6.04-0.72,8.52-2.1c4.32-2.4,6.11-7.79,4.91-12.35c-1.25-4.77-5.72-8.33-11.06-8.53c-4.32-0.15-8.64-0.03-12.97-0.03
			c0-51.99,0-103.47,0-155.21c3.15,0,5.89,0.12,8.62-0.02c7.85-0.42,12.62-6.84,10.17-14.24c-0.79-2.4-2.82-4.77-4.9-6.3
			c-28.52-20.94-57.16-41.7-85.74-62.56c-17.4-12.71-34.76-25.48-52.07-38.32c-1.04-0.77-2.07-2.33-2.09-3.55
			c-0.18-8.46-0.1-16.92-0.1-25.79c2.58,0,4.8,0.05,7.02-0.01c3.61-0.09,7.25,0.03,10.81-0.46c5.01-0.68,8.21-4.19,8.98-9.15
			c1.15-7.39-3.76-13.2-11.43-13.37c-4.95-0.11-9.9-0.02-15.51-0.02c0-5.43,0.32-10.42-0.08-15.36c-0.49-6.18-6.68-10.58-12.8-9.61
			c-6.39,1.01-9.69,4.58-9.91,11.05c-0.16,4.56-0.03,9.12-0.03,13.91c-5.82,0-11.06-0.15-16.29,0.04
			c-6.67,0.23-10.77,4.75-10.68,11.4c0.1,7.08,4.46,11.27,12.36,11.57C363.88,284.7,368.6,284.55,373.79,284.55z M231.2,332
			c0,0.01,0,0.02,0,0.03c9.49,0,18.98,0.02,28.47-0.02c1.49,0,3.03-0.01,4.45-0.38c5.96-1.56,9.85-7.11,9.15-12.86
			c-0.74-6.08-5.97-10.76-12.39-10.8c-14.61-0.08-29.22-0.03-43.83-0.03c-4.99,0-10-0.12-14.98,0.08
			c-7.72,0.3-12.83,5.45-12.61,12.41c0.22,6.99,5.22,11.51,12.9,11.55C211.97,332.04,221.59,332,231.2,332z M483.3,258.01
			c-0.2,9.22,8.77,15.21,16.99,11.04c5.98-3.04,11.67-6.67,17.46-10.08c10.62-6.26,21.25-12.5,31.82-18.85
			c5.53-3.32,8.1-8.58,6.95-13.68c-1.87-8.32-10.46-12.3-18.45-8.16c-5.51,2.86-10.72,6.31-16.03,9.54
			c-11.05,6.73-22.11,13.46-33.12,20.25C485.27,250.33,483.3,253.64,483.3,258.01z M537.68,331.96c0,0.02,0,0.04,0,0.06
			c9.6,0,19.2,0.07,28.8-0.02c7.56-0.07,12.87-5.22,12.81-12.15c-0.06-6.52-5.66-11.83-12.87-11.86
			c-19.07-0.08-38.15-0.1-57.22,0.01c-7.08,0.04-12.29,5.25-12.35,11.86c-0.07,6.9,5.05,11.99,12.42,12.07
			C518.73,332.04,528.21,331.96,537.68,331.96z M273.33,271.05c5.3-0.47,10.08-3.88,11.89-8.83c1.73-4.73,0.45-9.84-3.96-12.95
			c-4.66-3.29-9.72-6.01-14.59-9c-11.56-7.09-23.1-14.22-34.68-21.28c-5.88-3.58-12.67-2.64-16.48,2.16
			c-3.83,4.83-3.33,12.28,1.36,16.67c1.8,1.68,3.97,3.01,6.1,4.29c14.72,8.88,29.46,17.74,44.25,26.51
			C269.08,269.72,271.28,270.25,273.33,271.05z M449.64,222.63c6,0.27,9.31-3.62,12.08-8.07c8.63-13.85,17.27-27.71,25.61-41.73
			c1.5-2.52,2.4-5.88,2.25-8.78c-0.28-5.44-4.49-9.42-9.7-10.4c-5.27-0.99-10.26,1.55-13.43,6.78c-7.89,13-15.81,25.97-23.68,38.98
			c-1.41,2.34-2.85,4.71-3.88,7.23C435.78,214.3,441.4,222.57,449.64,222.63z M319.81,222.6c10.2,0,15.62-9.3,10.41-18.22
			c-8.93-15.27-18.36-30.24-27.64-45.3c-2.17-3.52-5.5-5.41-9.65-5.51c-4.73-0.12-8.52,1.92-10.97,5.91
			c-2.71,4.41-1.87,8.84,0.74,13.05c6.29,10.18,12.58,20.35,18.87,30.53c2.81,4.56,5.51,9.2,8.43,13.69
			C312.33,220.36,315.44,222.91,319.81,222.6z M397.08,165.8c0-4.36-0.01-8.73,0-13.09c0.01-4.36,0.11-8.73,0.03-13.09
			c-0.17-9.05-8.46-14.75-16.55-11.33c-5.46,2.31-7.09,6.95-7.09,12.45c0,16.58-0.05,33.16,0.02,49.73c0.01,1.96,0.35,4,0.98,5.85
			c1.81,5.27,7.11,8.26,12.77,7.44c5.66-0.82,9.66-5.21,9.79-11.42C397.23,183.5,397.08,174.65,397.08,165.8z"/>
		<path d="M373.79,284.55c-5.2,0-9.92,0.15-14.63-0.03c-7.89-0.3-12.26-4.49-12.36-11.57c-0.09-6.65,4.01-11.17,10.68-11.4
			c5.23-0.18,10.47-0.04,16.29-0.04c0-4.79-0.13-9.36,0.03-13.91c0.23-6.47,3.53-10.03,9.91-11.05c6.12-0.97,12.31,3.43,12.8,9.61
			c0.39,4.94,0.08,9.93,0.08,15.36c5.61,0,10.56-0.09,15.51,0.02c7.67,0.17,12.58,5.98,11.43,13.37c-0.77,4.95-3.97,8.47-8.98,9.15
			c-3.56,0.48-7.2,0.36-10.81,0.46c-2.22,0.06-4.44,0.01-7.02,0.01c0,8.87-0.09,17.34,0.1,25.79c0.03,1.22,1.06,2.78,2.09,3.55
			c17.31,12.84,34.66,25.62,52.07,38.32c28.57,20.86,57.22,41.62,85.74,62.56c2.09,1.53,4.11,3.9,4.9,6.3
			c2.45,7.4-2.32,13.82-10.17,14.24c-2.73,0.15-5.47,0.02-8.62,0.02c0,51.74,0,103.22,0,155.21c4.33,0,8.65-0.12,12.97,0.03
			c5.34,0.19,9.81,3.75,11.06,8.53c1.2,4.56-0.59,9.95-4.91,12.35c-2.48,1.38-5.66,2.09-8.52,2.1
			c-43.83,0.12-87.65,0.07-131.48,0.07c-54.19-0.01-108.38-0.02-162.57-0.04c-2.12,0-4.27,0.01-6.34-0.33
			c-5.83-0.96-9.93-6.14-9.66-11.98c0.28-5.99,4.65-10.42,10.9-10.69c4.46-0.19,8.94-0.04,13.64-0.04c0-51.88,0-103.35,0-155.18
			c-2.97,0-5.69,0.05-8.4-0.01c-5.01-0.12-8.98-2.75-10.59-6.93c-1.72-4.47-0.78-9.38,3.17-12.57c5.92-4.77,12.15-9.14,18.28-13.63
			c39.63-29.03,79.23-58.1,118.95-86.99c3.33-2.42,4.65-4.97,4.51-8.96C373.62,299.16,373.79,292.07,373.79,284.55z M291.75,590.28
			c62.54,0,124.73,0,186.99,0c0-9.75,0-19.27,0-28.76c-62.51,0-124.69,0-186.99,0C291.75,571.17,291.75,580.5,291.75,590.28z
			 M375.46,379.86c-6.88,0-13.34-0.06-19.8,0.02c-5.44,0.07-9.34,3.88-9.44,9.03c-0.12,5.89,3.71,10.27,9.33,10.47
			c3.86,0.14,7.74,0.03,11.61,0.03c2.69,0,5.38,0,8.3,0c0,1.71,0,2.82,0,3.92c-0.01,13.11-0.11,26.21,0.06,39.32
			c0.03,2.5,0.66,5.27,1.88,7.42c2.05,3.63,6.65,4.96,10.88,3.87c3.99-1.02,6.68-4.15,6.77-8.78c0.2-10.6,0.14-21.21,0.18-31.82
			c0.01-4.46,0-8.92,0-13.93c1.96,0,3.67,0.01,5.38,0c4.99-0.02,9.99,0.05,14.98-0.09c4.34-0.12,7.45-2.53,8.7-6.4
			c1.43-4.39,0.45-8.49-3.33-10.92c-1.96-1.26-4.57-1.97-6.93-2.08c-6.17-0.28-12.36-0.1-18.87-0.1c0-5.69,0.25-10.8-0.07-15.88
			c-0.36-5.8-4.51-9.17-10.3-8.93c-5.5,0.23-9.19,3.97-9.29,9.62C375.39,369.51,375.46,374.37,375.46,379.86z M305.1,540.81
			c23.4,0,46.8,0,70.49,0c-1.99-9.05-7.11-15.19-14.97-19.28c-3.1-1.61-5.86-2.41-8.29,1.15c-0.72,1.06-2.11,1.74-3.31,2.37
			c-8.77,4.64-16.02,3.01-24.36-5.39C313.4,523.29,305.55,531.74,305.1,540.81z M465.84,540.89c-1-9.36-8.72-17.53-18.41-20.71
			c-0.73-0.24-2.04,0.49-2.75,1.14c-9.27,8.48-18.82,8.44-28.23-0.09c-0.69-0.63-1.95-1.19-2.79-1.02
			c-8.72,1.7-17.32,11.53-18.16,20.69C418.95,540.89,442.39,540.89,465.84,540.89z M415.03,492.8c0.05,8.62,6.79,15.23,15.52,15.22
			c8.61-0.01,15.19-6.51,15.25-15.06c0.06-8.44-7.06-15.65-15.37-15.58C421.78,477.45,414.98,484.26,415.03,492.8z M339.93,508
			c8.86,0.03,15.67-6.56,15.62-15.09c-0.05-8.61-6.91-15.56-15.34-15.55c-8.45,0.02-15.54,7.09-15.51,15.46
			C324.74,501.17,331.56,507.98,339.93,508z"/>
		<path d="M231.2,332c-9.62,0-19.23,0.04-28.85-0.01c-7.69-0.04-12.68-4.57-12.9-11.55c-0.22-6.96,4.9-12.11,12.61-12.41
			c4.99-0.2,9.99-0.08,14.98-0.08c14.61,0,29.22-0.05,43.83,0.03c6.42,0.03,11.65,4.71,12.39,10.8c0.7,5.75-3.19,11.3-9.15,12.86
			c-1.42,0.37-2.96,0.37-4.45,0.38c-9.49,0.03-18.98,0.02-28.47,0.02C231.2,332.02,231.2,332.01,231.2,332z"/>
		<path d="M483.29,258.01c0.01-4.37,1.98-7.68,5.63-9.93c11.02-6.79,22.07-13.52,33.12-20.25c5.31-3.23,10.52-6.68,16.03-9.54
			c7.98-4.14,16.58-0.16,18.45,8.16c1.14,5.1-1.43,10.36-6.95,13.68c-10.57,6.34-21.2,12.59-31.82,18.85
			c-5.79,3.41-11.48,7.04-17.46,10.08C492.07,273.22,483.1,267.24,483.29,258.01z"/>
		<path d="M537.68,331.96c-9.47,0-18.95,0.08-28.42-0.03c-7.36-0.08-12.48-5.17-12.42-12.07c0.06-6.61,5.28-11.82,12.35-11.86
			c19.07-0.11,38.15-0.09,57.22-0.01c7.21,0.03,12.81,5.34,12.87,11.86c0.06,6.93-5.25,12.07-12.81,12.15
			c-9.6,0.09-19.2,0.02-28.8,0.02C537.68,332,537.68,331.98,537.68,331.96z"/>
		<path d="M273.33,271.05c-2.04-0.8-4.24-1.33-6.11-2.43c-14.79-8.77-29.53-17.63-44.25-26.51c-2.13-1.28-4.3-2.61-6.1-4.29
			c-4.69-4.39-5.2-11.84-1.36-16.67c3.8-4.79,10.6-5.74,16.48-2.16c11.58,7.06,23.12,14.19,34.68,21.28c4.87,2.99,9.93,5.72,14.59,9
			c4.41,3.1,5.69,8.22,3.96,12.95C283.41,267.16,278.63,270.58,273.33,271.05z"/>
		<path d="M449.64,222.63c-8.24-0.06-13.87-8.33-10.74-15.99c1.03-2.52,2.47-4.89,3.88-7.23c7.87-13.01,15.79-25.99,23.68-38.98
			c3.17-5.23,8.17-7.77,13.43-6.78c5.21,0.98,9.42,4.97,9.7,10.4c0.15,2.9-0.75,6.27-2.25,8.78c-8.35,14.02-16.98,27.88-25.61,41.73
			C458.95,219.01,455.64,222.9,449.64,222.63z"/>
		<path d="M319.81,222.6c-4.36,0.31-7.47-2.25-9.82-5.85c-2.92-4.49-5.62-9.13-8.43-13.69c-6.28-10.18-12.58-20.35-18.87-30.53
			c-2.6-4.22-3.44-8.65-0.74-13.05c2.45-3.99,6.24-6.03,10.97-5.91c4.15,0.11,7.48,2,9.65,5.51c9.29,15.06,18.71,30.03,27.64,45.3
			C335.43,213.3,330,222.6,319.81,222.6z"/>
		<path d="M397.08,165.8c0,8.85,0.15,17.7-0.05,26.55c-0.14,6.21-4.14,10.6-9.79,11.42c-5.66,0.82-10.96-2.17-12.77-7.44
			c-0.64-1.85-0.97-3.89-0.98-5.85c-0.07-16.58-0.02-33.16-0.02-49.73c0-5.5,1.63-10.14,7.09-12.45c8.1-3.42,16.39,2.28,16.55,11.33
			c0.08,4.36-0.02,8.72-0.03,13.09C397.08,157.07,397.08,161.44,397.08,165.8z"/>
		<path fill="#FFFFFF" d="M291.75,590.28c0-9.78,0-19.11,0-28.76c62.31,0,124.48,0,186.99,0c0,9.49,0,19.01,0,28.76
			C416.48,590.28,354.28,590.28,291.75,590.28z"/>
		<path fill="#FFFFFF" d="M375.46,379.86c0-5.49-0.07-10.35,0.02-15.21c0.1-5.65,3.79-9.4,9.29-9.62c5.79-0.24,9.94,3.14,10.3,8.93
			c0.31,5.08,0.07,10.19,0.07,15.88c6.52,0,12.71-0.19,18.87,0.1c2.36,0.11,4.97,0.82,6.93,2.08c3.77,2.43,4.76,6.53,3.33,10.92
			c-1.25,3.86-4.37,6.27-8.7,6.4c-4.99,0.14-9.98,0.07-14.98,0.09c-1.71,0.01-3.42,0-5.38,0c0,5.01,0.01,9.47,0,13.93
			c-0.04,10.61,0.03,21.22-0.18,31.82c-0.09,4.63-2.78,7.75-6.77,8.78c-4.22,1.08-8.82-0.25-10.88-3.87
			c-1.22-2.15-1.85-4.92-1.88-7.42c-0.17-13.1-0.07-26.21-0.06-39.32c0-1.11,0-2.22,0-3.92c-2.92,0-5.61,0-8.3,0
			c-3.87,0-7.74,0.11-11.61-0.03c-5.62-0.2-9.45-4.59-9.33-10.47c0.11-5.15,4-8.97,9.44-9.03
			C362.12,379.8,368.58,379.86,375.46,379.86z"/>
		<path fill="#FFFFFF" d="M305.1,540.81c0.45-9.07,8.3-17.53,19.56-21.14c8.34,8.4,15.59,10.02,24.36,5.39
			c1.2-0.63,2.59-1.32,3.31-2.37c2.43-3.56,5.19-2.76,8.29-1.15c7.85,4.09,12.98,10.23,14.97,19.28
			C351.9,540.81,328.5,540.81,305.1,540.81z"/>
		<path fill="#FFFFFF" d="M465.84,540.89c-23.45,0-46.89,0-70.33,0c0.84-9.17,9.43-19,18.16-20.69c0.85-0.16,2.1,0.39,2.79,1.02
			c9.41,8.54,18.96,8.57,28.23,0.09c0.71-0.65,2.02-1.38,2.75-1.14C457.12,523.36,464.83,531.53,465.84,540.89z"/>
		<path fill="#FFFFFF" d="M415.03,492.8c-0.05-8.54,6.76-15.35,15.4-15.42c8.31-0.07,15.43,7.15,15.37,15.58
			c-0.06,8.55-6.64,15.05-15.25,15.06C421.82,508.03,415.08,501.42,415.03,492.8z"/>
		<path fill="#FFFFFF" d="M339.93,508c-8.37-0.02-15.19-6.83-15.23-15.18c-0.04-8.37,7.06-15.44,15.51-15.46
			c8.43-0.02,15.29,6.94,15.34,15.55C355.6,501.44,348.79,508.03,339.93,508z"/>
	</g>
</g>
</svg>
