<?xml version="1.0" encoding="utf-8"?>
<!-- Generator: Adobe Illustrator 27.8.0, SVG Export Plug-In . SVG Version: 6.00 Build 0)  -->
<svg version="1.1" id="Capa_1" xmlns="http://www.w3.org/2000/svg" xmlns:xlink="http://www.w3.org/1999/xlink" x="0px" y="0px"
	 viewBox="0 0 768 768" enable-background="new 0 0 768 768" xml:space="preserve">
<g>
	<g>
		<path fill="#FFFFFF" d="M768,768c-256,0-512,0-768,0C0,512,0,256,0,0c256,0,512,0,768,0C768,256,768,512,768,768z M380.93,651.31
			c0-0.02,0-0.04,0-0.05c69.3,0,138.59,0.01,207.89-0.02c4.48,0,9.06,0.17,13.44-0.6c29.66-5.18,48.74-28.01,48.86-58.19
			c0.04-9.24-0.03-18.48-0.03-27.72c0-130.35,0.01-260.71-0.05-391.06c0-4.47-0.2-9.04-1.15-13.38
			c-6.19-28.2-30.05-47.32-58.96-47.33c-108.13-0.05-216.26-0.06-324.39-0.04c-33.46,0.01-66.92-0.04-100.38,0.33
			c-10.82,0.12-20.86,3.87-29.58,10.37c-16.25,12.12-24.87,28.32-24.89,48.74c-0.05,62.3,0.01,124.61,0.01,186.91
			c0,77.41,0.01,154.83-0.04,232.24c-0.01,8.32,0.86,16.45,4.02,24.21c7.83,19.2,27.29,35.86,53.98,35.72
			C240.09,651.06,310.51,651.31,380.93,651.31z"/>
		<path d="M380.93,651.31c-70.42,0-140.84-0.25-211.26,0.13c-26.7,0.14-46.15-16.52-53.98-35.72c-3.16-7.76-4.02-15.88-4.02-24.21
			c0.05-77.41,0.04-154.83,0.04-232.24c0-62.3-0.05-124.61-0.01-186.91c0.02-20.41,8.64-36.62,24.89-48.74
			c8.71-6.5,18.75-10.25,29.58-10.37c33.46-0.37,66.92-0.32,100.38-0.33c108.13-0.02,216.26-0.01,324.39,0.04
			c28.91,0.01,52.77,19.13,58.96,47.33c0.95,4.34,1.15,8.91,1.15,13.38c0.06,130.35,0.05,260.71,0.05,391.06
			c0,9.24,0.07,18.48,0.03,27.72c-0.12,30.18-19.2,53.01-48.86,58.19c-4.38,0.77-8.95,0.6-13.44,0.6
			c-69.3,0.03-138.59,0.02-207.89,0.02C380.93,651.27,380.93,651.29,380.93,651.31z M622.14,495.92c0.08-1.47,0.2-2.58,0.2-3.68
			c0.04-86.28,0.08-172.56,0.09-258.84c0-19.1,0.1-38.21-0.17-57.31c-0.22-15.85-9.03-28.25-24.06-33c-5.68-1.8-12.04-2-18.09-2.01
			c-90.28-0.13-180.55-0.11-270.83-0.11c-44.08,0-88.15,0.03-132.23,0.07c-14.6,0.01-25.76,6.09-32.87,19.01
			c-3.75,6.82-3.76,14.36-3.76,21.88c0,100.52,0,201.03,0,301.55c0,4.07,0,8.14,0,12.22c10.67,0,20.56,0,30.83,0
			c0-14.97,0-29.62,0-44.64c18.93,0,37.48,0,56.45,0c0-12.04,0-23.71,0-35.91c37.26,0,74.12,0,111.24,0c0-5.98,0-11.44,0-17.06
			c18.51,0,36.75,0,55.36,0c0,19.01,0,37.68,0,56.68c65.99,0,131.61,0,197.62,0c0,13.88,0,27.42,0,41.18
			C602.13,495.92,611.94,495.92,622.14,495.92z M380.62,610.64c0-0.02,0-0.05,0-0.07c21.72,0,43.45,0.01,65.17,0
			c10.78-0.01,16.71-5.9,16.72-16.63c0.02-16.36,0.03-32.71,0-49.07c-0.02-11.03-6.4-17.39-17.46-17.39c-20.1-0.02-40.2,0-60.3,0.01
			c-23.1,0.01-46.2-0.02-69.29,0.07c-9.41,0.04-16.27,6.11-16.39,14.92c-0.23,17.6-0.25,35.21-0.01,52.81
			c0.13,9.1,7.23,15.37,16.38,15.36C337.17,610.62,358.89,610.64,380.62,610.64z M207.32,560.37c-0.37-0.49-0.75-0.98-1.12-1.48
			c3.29-2.85,6.89-5.43,9.79-8.63c3.18-3.51,2.49-8.15-0.98-11.34c-3.31-3.05-7.27-3.22-10.73,0.04
			c-8.52,8.04-16.93,16.2-25.27,24.43c-2.76,2.72-2.76,5.63-0.16,8.65c1.94,2.26,4.2,4.25,6.32,6.36
			c6.18,6.16,12.37,12.31,18.54,18.48c2.42,2.43,5.33,3.26,8.56,2.32c3.16-0.92,5.34-3.35,5.37-6.49c0.02-2.37-1.01-5.11-2.44-7.05
			c-2.29-3.1-5.31-5.67-8.53-9c13.14,0,25.48,0.09,37.81-0.04c5.55-0.06,8.73-3.3,8.6-8.2c-0.13-4.82-3.58-8.01-8.82-8.06
			c-4.24-0.04-8.48,0.01-12.72,0.01C223.47,560.37,215.4,560.37,207.32,560.37z M556.18,576.62c-2.26,2.06-3.82,3.41-5.28,4.85
			c-1.6,1.57-3.24,3.13-4.62,4.89c-2.63,3.35-2.05,8.27,1.13,11.15c3.01,2.73,7.51,2.95,10.52,0.04
			c8.62-8.32,17.13-16.74,25.55-25.26c2.59-2.62,2.61-5.78,0-8.38c-8.57-8.54-17.22-17.01-26.06-25.27
			c-3.39-3.17-7.86-2.47-10.89,1.04c-2.82,3.27-2.71,8.09,0.6,11.52c2.8,2.9,5.93,5.47,8.91,8.19c-0.26,0.34-0.51,0.69-0.77,1.03
			c-1.21,0-2.41,0-3.62,0c-11.11,0-22.22-0.1-33.32,0.11c-2.19,0.04-4.73,0.86-6.46,2.17c-3.06,2.31-3.1,5.85-1.85,9.21
			c1.35,3.62,4.36,4.92,8.03,4.91c11.36-0.05,22.71-0.13,34.07-0.19C553.18,576.62,554.23,576.62,556.18,576.62z"/>
		<path fill="#FFFFFF" d="M622.14,495.92c-10.2,0-20.01,0-30.22,0c0-13.75,0-27.29,0-41.18c-66.02,0-131.63,0-197.62,0
			c0-19.01,0-37.67,0-56.68c-18.61,0-36.85,0-55.36,0c0,5.62,0,11.08,0,17.06c-37.12,0-73.98,0-111.24,0c0,12.2,0,23.87,0,35.91
			c-18.96,0-37.52,0-56.45,0c0,15.02,0,29.68,0,44.64c-10.26,0-20.16,0-30.83,0c0-4.07,0-8.14,0-12.22c0-100.52,0-201.03,0-301.55
			c0-7.51,0.01-15.06,3.76-21.88c7.11-12.91,18.27-18.99,32.87-19.01c44.08-0.04,88.15-0.07,132.23-0.07
			c90.28,0,180.55-0.02,270.83,0.11c6.05,0.01,12.41,0.21,18.09,2.01c15.04,4.76,23.84,17.15,24.06,33
			c0.26,19.1,0.17,38.21,0.17,57.31c-0.01,86.28-0.05,172.56-0.09,258.84C622.34,493.35,622.22,494.46,622.14,495.92z
			 M479.47,297.33c0.27-0.08,0.54-0.17,0.81-0.25c1.37,1.6,2.63,3.33,4.15,4.78c2.71,2.59,3.64,5.56,3.48,9.34
			c-0.31,7.1-0.4,14.25,0.02,21.34c0.17,2.75,1.38,5.93,3.18,7.99c3.05,3.5,7.35,3.93,11.69,2.1c4.13-1.74,6.78-4.7,6.83-9.36
			c0.08-8.86-0.33-17.75,0.13-26.59c0.29-5.59-1.67-9.82-5.03-13.93c-6.79-8.31-13.92-16.41-19.93-25.26
			c-7.12-10.47-19.52-11.22-29.09-8.79c-6.08,1.54-10.17,5.65-11.33,11.75c-1.16,6.08-1.54,12.32-1.98,18.51
			c-0.16,2.2-0.74,3.63-2.63,4.89c-5.91,3.95-11.71,8.08-17.51,12.2c-5.29,3.76-10.59,7.5-15.74,11.45
			c-4.01,3.08-4.96,7.45-3.73,12.13c1.22,4.65,4.51,7.39,9.28,8.13c4.16,0.65,7.49-1.38,10.68-3.67
			c6.64-4.78,13.27-9.57,20.42-14.74c0,7.03-0.2,13.34,0.06,19.63c0.21,5.13-0.94,9.82-2.82,14.52
			c-8.37,20.94-14.41,42.52-17.11,64.96c-0.92,7.66,2.85,12.61,9.94,13.68c6.21,0.94,11.97-3.46,13.4-10.25
			c2-9.5,3.49-19.14,6.12-28.45c2.48-8.75,6.16-17.16,9.32-25.73c5.31,7.91,9.47,15.7,13.75,23.42
			c5.81,10.47,11.48,21.03,17.66,31.29c3.53,5.86,9.9,6.85,16.07,3.39c5.3-2.97,7.2-8.85,4.7-14.83c-0.72-1.72-1.61-3.37-2.5-5.02
			c-10.1-18.78-20.3-37.51-30.23-56.39c-1.38-2.62-1.94-5.91-2.03-8.92c-0.25-8.23-0.03-16.48-0.01-24.72
			C479.48,309.74,479.47,303.53,479.47,297.33z M304.23,331.68c0.93,1.52,1.53,2.44,2.07,3.39c6.6,11.6,13.14,23.24,19.81,34.81
			c2.86,4.97,5.71,9.99,9.06,14.62c3.7,5.11,10.49,5.81,16.1,2.24c5.31-3.37,6.85-9.19,3.93-15.02c-0.95-1.89-2.03-3.72-3.08-5.56
			c-9.96-17.44-20.07-34.8-29.78-52.37c-1.78-3.21-2.67-7.26-2.79-10.97c-0.38-11.72-0.19-23.47-0.22-35.2c-0.01-2.18,0-4.36,0-6.54
			c4.41,4,8.85,7.39,8.24,14.21c-0.61,6.94-0.19,13.97-0.04,20.96c0.14,6.73,4.89,11.52,10.93,11.29
			c6.56-0.25,10.9-4.94,10.89-11.75c-0.02-9.24-0.22-18.48,0.02-27.71c0.1-4.03-1.13-7.25-3.56-10.29
			c-6.95-8.66-14.18-17.12-20.66-26.12c-7.38-10.25-17.36-11.25-28.33-9.07c-6.62,1.32-11.34,5.65-12.77,12.28
			c-1.36,6.28-1.92,12.77-2.34,19.2c-0.19,2.89-0.92,4.75-3.39,6.43c-10,6.82-19.93,13.75-29.66,20.93
			c-2.16,1.59-4.06,4.16-4.99,6.68c-1.57,4.3-0.37,8.45,3.15,11.55c3.7,3.27,8.14,4.3,12.49,1.84c5.19-2.94,10.02-6.53,14.98-9.86
			c2.94-1.98,5.86-4,9.62-6.58c0,6.98-0.23,12.94,0.07,18.87c0.27,5.36-0.69,10.33-2.64,15.3c-8.01,20.41-13.51,41.48-16.37,63.23
			c-0.96,7.33,2.56,12.67,9.28,13.79c6.53,1.09,12.73-3.21,14.13-9.9c0.62-2.93,1.13-5.88,1.58-8.83
			C292.36,361.8,297.49,346.9,304.23,331.68z M302.41,173.7c-11.14,0.07-19.17,8.07-19.14,19.08c0.03,10.49,8.59,18.9,19.17,18.84
			c10.69-0.06,19.26-8.47,19.17-18.84C321.52,181.86,313.24,173.63,302.41,173.7z M462.15,209.64
			c-11.33,0.19-19.45,8.38-19.27,19.45c0.16,10.01,9.11,18.43,19.42,18.3c10.6-0.14,19.26-8.75,19.12-19.02
			C481.29,217.82,472.69,209.46,462.15,209.64z"/>
		<path fill="#FFFFFF" d="M380.62,610.64c-21.72,0-43.45-0.02-65.17,0.01c-9.15,0.01-16.26-6.25-16.38-15.36
			c-0.24-17.6-0.22-35.21,0.01-52.81c0.11-8.8,6.98-14.88,16.39-14.92c23.1-0.1,46.2-0.06,69.29-0.07c20.1-0.01,40.2-0.03,60.3-0.01
			c11.06,0.01,17.44,6.36,17.46,17.39c0.03,16.36,0.03,32.71,0,49.07c-0.02,10.73-5.94,16.62-16.72,16.63
			c-21.72,0.02-43.45,0-65.17,0C380.62,610.6,380.62,610.62,380.62,610.64z M412.05,578.63c0-0.02,0-0.04,0-0.06
			c5.61,0,11.26,0.35,16.82-0.16c2.42-0.22,5.41-1.67,6.85-3.55c2.56-3.36,2.23-7.55,0.39-11.37c-1.72-3.57-4.85-4.68-8.65-4.65
			c-9.1,0.09-18.21,0.06-27.31,0.08c-10.85,0.04-12.36,1.6-11.97,12.34c0.18,5.02,2.25,7.2,7.41,7.34
			C401.07,578.74,406.56,578.63,412.05,578.63z M349.55,578.61c0-0.02,0-0.05,0-0.07c5.62,0,11.23,0.09,16.85-0.03
			c4.81-0.1,6.78-2.17,6.87-6.86c0.04-1.87-0.01-3.74-0.09-5.61c-0.21-4.61-2.67-7.11-7.32-7.13c-10.86-0.04-21.71-0.03-32.57,0.08
			c-5.88,0.06-8.95,3.47-8.97,9.56c-0.02,6.81,2.6,9.9,8.76,10.03C338.57,578.7,344.06,578.61,349.55,578.61z"/>
		<path fill="#FFFFFF" d="M207.32,560.37c8.07,0,16.15,0,24.22,0c4.24,0,8.48-0.05,12.72-0.01c5.24,0.05,8.69,3.24,8.82,8.06
			c0.13,4.91-3.04,8.14-8.6,8.2c-12.33,0.13-24.67,0.04-37.81,0.04c3.22,3.32,6.24,5.9,8.53,9c1.43,1.93,2.46,4.68,2.44,7.05
			c-0.02,3.14-2.21,5.57-5.37,6.49c-3.23,0.95-6.14,0.11-8.56-2.32c-6.17-6.17-12.36-12.32-18.54-18.48
			c-2.12-2.11-4.38-4.1-6.32-6.36c-2.6-3.02-2.6-5.93,0.16-8.65c8.34-8.23,16.75-16.39,25.27-24.43c3.46-3.26,7.42-3.08,10.73-0.04
			c3.47,3.19,4.15,7.84,0.98,11.34c-2.9,3.2-6.5,5.78-9.79,8.63C206.58,559.39,206.95,559.88,207.32,560.37z"/>
		<path fill="#FFFFFF" d="M556.18,576.62c-1.96,0-3-0.01-4.05,0c-11.36,0.07-22.71,0.14-34.07,0.19c-3.67,0.02-6.69-1.28-8.03-4.91
			c-1.25-3.37-1.21-6.9,1.85-9.21c1.73-1.31,4.27-2.12,6.46-2.17c11.1-0.22,22.21-0.11,33.32-0.11c1.21,0,2.41,0,3.62,0
			c0.26-0.34,0.51-0.68,0.77-1.03c-2.98-2.72-6.11-5.29-8.91-8.19c-3.31-3.43-3.42-8.25-0.6-11.52c3.03-3.51,7.49-4.21,10.89-1.04
			c8.84,8.27,17.49,16.73,26.06,25.27c2.61,2.6,2.59,5.76,0,8.38c-8.42,8.52-16.93,16.95-25.55,25.26
			c-3.01,2.91-7.51,2.68-10.52-0.04c-3.18-2.88-3.75-7.8-1.13-11.15c1.38-1.76,3.02-3.32,4.62-4.89
			C552.36,580.03,553.92,578.68,556.18,576.62z"/>
		<path d="M479.47,297.33c0,6.2,0.01,12.41,0,18.61c-0.02,8.24-0.23,16.49,0.01,24.72c0.09,3.01,0.66,6.3,2.03,8.92
			c9.93,18.87,20.13,37.6,30.23,56.39c0.88,1.65,1.78,3.3,2.5,5.02c2.49,5.97,0.59,11.86-4.7,14.83
			c-6.17,3.46-12.54,2.46-16.07-3.39c-6.18-10.25-11.85-20.81-17.66-31.29c-4.28-7.72-8.44-15.51-13.75-23.42
			c-3.15,8.56-6.84,16.97-9.32,25.73c-2.64,9.32-4.12,18.96-6.12,28.45c-1.43,6.79-7.18,11.19-13.4,10.25
			c-7.1-1.07-10.87-6.02-9.94-13.68c2.7-22.43,8.74-44.01,17.11-64.96c1.88-4.71,3.02-9.4,2.82-14.52
			c-0.26-6.29-0.06-12.6-0.06-19.63c-7.15,5.16-13.78,9.96-20.42,14.74c-3.19,2.29-6.52,4.32-10.68,3.67
			c-4.77-0.74-8.06-3.49-9.28-8.13c-1.23-4.68-0.28-9.05,3.73-12.13c5.15-3.95,10.45-7.69,15.74-11.45
			c5.8-4.12,11.59-8.25,17.51-12.2c1.89-1.26,2.47-2.68,2.63-4.89c0.44-6.19,0.82-12.43,1.98-18.51
			c1.17-6.09,5.26-10.21,11.33-11.75c9.57-2.43,21.97-1.68,29.09,8.79c6.02,8.85,13.14,16.96,19.93,25.26
			c3.36,4.11,5.32,8.34,5.03,13.93c-0.46,8.84-0.05,17.72-0.13,26.59c-0.04,4.66-2.69,7.62-6.83,9.36
			c-4.34,1.83-8.64,1.39-11.69-2.1c-1.8-2.06-3.01-5.24-3.18-7.99c-0.43-7.09-0.34-14.23-0.02-21.34c0.17-3.78-0.77-6.75-3.48-9.34
			c-1.52-1.45-2.77-3.18-4.15-4.78C480,297.16,479.74,297.25,479.47,297.33z"/>
		<path d="M304.23,331.68c-6.74,15.22-11.86,30.12-14.27,45.88c-0.45,2.96-0.97,5.91-1.58,8.83c-1.41,6.68-7.6,10.99-14.13,9.9
			c-6.72-1.12-10.25-6.46-9.28-13.79c2.86-21.75,8.37-42.82,16.37-63.23c1.95-4.97,2.9-9.94,2.64-15.3
			c-0.29-5.93-0.07-11.89-0.07-18.87c-3.77,2.58-6.68,4.6-9.62,6.58c-4.97,3.33-9.79,6.92-14.98,9.86
			c-4.35,2.46-8.79,1.42-12.49-1.84c-3.51-3.1-4.72-7.26-3.15-11.55c0.92-2.52,2.82-5.09,4.99-6.68
			c9.74-7.18,19.67-14.11,29.66-20.93c2.46-1.68,3.2-3.54,3.39-6.43c0.43-6.43,0.98-12.92,2.34-19.2
			c1.43-6.64,6.15-10.96,12.77-12.28c10.97-2.19,20.95-1.18,28.33,9.07c6.48,9,13.7,17.47,20.66,26.12
			c2.44,3.04,3.67,6.26,3.56,10.29c-0.23,9.23-0.04,18.47-0.02,27.71c0.02,6.81-4.33,11.5-10.89,11.75
			c-6.04,0.23-10.79-4.56-10.93-11.29c-0.14-6.99-0.57-14.03,0.04-20.96c0.6-6.82-3.83-10.21-8.24-14.21c0,2.18,0,4.36,0,6.54
			c0.03,11.74-0.16,23.48,0.22,35.2c0.12,3.7,1.02,7.76,2.79,10.97c9.72,17.57,19.82,34.93,29.78,52.37
			c1.05,1.84,2.13,3.67,3.08,5.56c2.92,5.82,1.38,11.64-3.93,15.02c-5.62,3.57-12.4,2.87-16.1-2.24c-3.35-4.63-6.2-9.65-9.06-14.62
			c-6.67-11.57-13.21-23.2-19.81-34.81C305.76,334.12,305.16,333.2,304.23,331.68z"/>
		<path d="M302.41,173.7c10.83-0.07,19.12,8.17,19.2,19.09c0.08,10.36-8.48,18.77-19.17,18.84c-10.58,0.06-19.15-8.35-19.17-18.84
			C283.23,181.77,291.26,173.76,302.41,173.7z"/>
		<path d="M462.15,209.64c10.54-0.18,19.14,8.17,19.28,18.72c0.14,10.27-8.52,18.88-19.12,19.02c-10.32,0.14-19.26-8.29-19.42-18.3
			C442.7,218.03,450.82,209.83,462.15,209.64z"/>
		<path d="M412.05,578.63c-5.49,0-10.98,0.11-16.46-0.03c-5.16-0.13-7.23-2.31-7.41-7.34c-0.39-10.73,1.13-12.3,11.97-12.34
			c9.1-0.03,18.21,0.01,27.31-0.08c3.81-0.04,6.93,1.07,8.65,4.65c1.84,3.82,2.17,8.02-0.39,11.37c-1.44,1.88-4.43,3.33-6.85,3.55
			c-5.56,0.52-11.21,0.16-16.82,0.16C412.05,578.6,412.05,578.61,412.05,578.63z"/>
		<path d="M349.55,578.61c-5.49,0-10.98,0.09-16.47-0.02c-6.16-0.13-8.78-3.23-8.76-10.03c0.02-6.09,3.1-9.5,8.97-9.56
			c10.86-0.12,21.71-0.13,32.57-0.08c4.64,0.02,7.11,2.52,7.32,7.13c0.08,1.87,0.13,3.74,0.09,5.61c-0.09,4.7-2.07,6.76-6.87,6.86
			c-5.61,0.12-11.23,0.03-16.85,0.03C349.55,578.56,349.55,578.58,349.55,578.61z"/>
	</g>
</g>
</svg>
