<?xml version="1.0" encoding="utf-8"?>
<!-- Generator: Adobe Illustrator 27.8.0, SVG Export Plug-In . SVG Version: 6.00 Build 0)  -->
<svg version="1.1" id="Capa_1" xmlns="http://www.w3.org/2000/svg" xmlns:xlink="http://www.w3.org/1999/xlink" x="0px" y="0px"
	 viewBox="0 0 1024 1024" enable-background="new 0 0 1024 1024" xml:space="preserve">
<g>
	<g>
		<path fill="#FEFEFE" d="M512,1023.91c-169.14,0-338.27-0.01-507.41,0.09c-3.75,0-4.59-0.84-4.59-4.59
			C0.1,681.14,0.1,342.86,0,4.59C0,0.84,0.84,0,4.59,0c338.27,0.1,676.54,0.1,1014.82,0c3.75,0,4.59,0.84,4.59,4.59
			c-0.1,338.27-0.1,676.54,0,1014.81c0,3.75-0.84,4.6-4.59,4.59C850.27,1023.89,681.14,1023.91,512,1023.91z M547.79,870.66
			c9.42,1.08,18.86,0,28.29,0.28c5.58,0.17,10.38-1.89,14.34-5.78c4.6-4.51,9.19-9.03,13.63-13.69
			c8.79-9.23,18.08-17.96,26.71-27.37c6.81-7.43,13.72-14.86,21.6-21.25c3.17,5.86,8.05,8.21,14.74,8.19
			c52.98-0.13,105.97-0.08,158.95-0.09c6.83,0,13.67,0.11,20.49-0.06c5.01-0.13,9.53-1.75,12.52-6.05c3.22-4.63,3.44-9.6,0.8-14.57
			c-2.75-5.18-7.14-7.45-13.03-7.44c-47.82,0.08-95.64,0.07-143.46,0.05c-1.89,0-3.92,0.59-5.87-0.72c3.9-6.2,9.3-10.93,13.92-16.32
			c1.87-2.19,3.96-2.93,6.89-2.93c55.81,0.09,111.63-0.33,167.44,0.27c19.15,0.21,32.28-14.01,32.12-32.18
			c-0.13-15.33-0.02-30.66-0.07-45.99c-0.01-2.7,0.25-4.53,3.18-6.29c9.46-5.67,9.31-17.38-0.15-23.15
			c-2.61-1.59-3.09-3.29-3.06-5.97c0.13-12,0.18-23.99,0.11-35.99c-0.06-9.99-7.81-17.11-16.86-15.7
			c-7.36,1.15-12.66,7.61-12.78,16.09c-0.16,11.49-0.29,23,0.03,34.49c0.13,4.71-1.06,6.19-6,6.16
			c-34.15-0.15-68.3,0.16-102.46,0.05c-8.09-0.03-14.08,3.13-18.73,9.42c-2.97,4.01-5.95,8-8.88,12.03
			c-1.62,2.23-3.55,3.54-6.44,4.12c-6.82,1.39-13.5,3.46-20.29,5.05c-7.49,1.75-14.87,4.17-23.08,4.95
			c2.59-5.71,2.1-10.58-1.53-14.6c-3.73-4.13-8.54-5.23-14.07-3.72c-11.18,3.05-22.37,6.1-33.66,8.65
			c-5.44,1.23-9.17,4.11-12.33,8.44c-5.46,7.48-11.54,14.44-18.86,21.42c-1.05-10.64-2-20.49-2.99-30.34
			c-1.18-11.73-1.82-23.53-4.53-35.05c-5.06-21.52-15.74-39.96-30.95-55.89c-5.22-5.47-5.2-5.53-0.55-11.27
			c4.23-5.21,7.52-10.93,9.62-17.3c5.11-15.45,4.15-31.36,1.71-46.88c-1.91-12.13-10.12-19.58-24.41-13.35
			c-2.04,0.89-3.41,0.49-4.99-0.64c-2.88-2.05-5.37-4.45-7.24-7.47c-7.16-11.53-10.92-24.15-11.62-37.64
			c-1.07-20.74,4.01-40.96,5.61-61.49c1.89-24.34,1.5-48.53-1.99-72.62c-3.11-21.42-9.15-42.1-17.63-62.05
			c-15.95-37.54-38.41-70.16-72.14-93.94c-32-22.57-67.51-33.46-106.91-30.7c-31.96,2.24-60.77,13.02-86.44,31.95
			c-31.04,22.89-52.83,53.2-68.4,88.12c-13.87,31.1-21.3,63.77-22.04,97.86c-0.33,15.3-0.48,30.62,1.06,45.87
			c0.91,9,2.21,17.97,3.59,26.91c2.29,14.93,3.91,29.87,0.21,44.77c-2.54,10.21-6.23,20.01-13.52,27.92
			c-2.33,2.53-4.97,4.56-9.14,2.9c-10.62-4.23-19.08,0.26-22.16,11.15c-2.17,7.68-1.32,15.55-1.79,23.32
			c-0.94,15.33,1.88,29.78,11.86,42.19c4.23,5.25,3.98,5.29-1.27,9.66c-17.24,14.35-29.62,32.05-36.85,53.37
			c-4.07,12-4.5,24.46-5.37,36.9c-1.88,27.05-3.79,54.09-5.66,81.14c-0.92,13.27-1.81,26.54-2.7,39.82
			c-1.1,16.44-2.52,32.86-3.18,49.31c-0.44,11.16,7.44,16.86,18.26,14.17c0.75-0.19,1.63,0.13,2.46,0.22
			c2.29,4.87,6.08,9.12,11.19,9.27c18.44,0.51,36.9,0.83,55.35-0.06c7.79,6.82,15.7,6.62,23.71,0.39
			c92.92,0.01,185.84,0.04,278.75,0.02c14.15,0,28.29-0.24,42.44-0.36C531.46,877.27,539.62,877.83,547.79,870.66z M710.96,209.1
			c0-0.01,0-0.01,0-0.02c-47.65,0-95.31,0-142.96,0c-6.5,0-13-0.08-19.49,0.09c-8.2,0.22-14.23,5.23-15.2,12.36
			c-0.89,6.51,3.65,13.2,10.6,15.75c2.58,0.95,5.24,0.8,7.89,0.8C657.1,238.1,762.4,238.2,867.71,238
			c11.41-0.02,20.48,9.16,20.45,20.5c-0.27,97.97-0.15,195.95-0.15,293.92c0,2,0.16,3.95,0.63,5.93
			c2.05,8.48,9.48,13.07,17.71,10.46c7.44-2.36,10.28-5.81,11.1-15.72c0.81-9.76,0.15-19.64,0.16-29.47
			c0.04-87.64-0.02-175.29,0.21-262.93c0.04-15.99-4.07-29.58-16.78-40.21c-8.71-7.29-18.51-11.26-29.61-11.3
			C817.94,209,764.45,209.1,710.96,209.1z M733.85,457.03c0-0.05,0-0.09,0-0.14c17.15,0,34.31,0.28,51.45-0.08
			c18.26-0.37,33.65-16.4,33.68-34.6c0.06-31.64,0.08-63.28-0.01-94.92c-0.05-19.15-15.45-34.37-34.58-34.4
			c-8.16-0.01-16.32,0-24.48-0.01c-9.63-0.01-9.63-0.01-9.86-9.55c-0.19-7.79-5.21-14.04-12.33-15.34c-9.29-1.7-18.53,2.59-21.26,10
			c-1.17,3.19-0.73,6.6-0.49,9.87c0.28,3.83-0.8,5.23-4.86,5.11c-9.15-0.27-18.32-0.09-27.47,0c-19.32,0.18-34.71,15.71-34.73,35.01
			c-0.02,30.97-0.02,61.95-0.02,92.92c0,21.19,14.79,36.06,36,36.12C701.21,457.07,717.53,457.03,733.85,457.03z M99.49,449.45
			c-0.13,0-0.27,0-0.4,0c0,13.15-0.08,26.31,0.03,39.46c0.08,10.05,10.1,15.95,18.58,10.97c4.57-2.68,7.28-6.64,7.35-12.18
			c0.07-5.88-1.07-12.04,4.03-16.81c1.07-1,0.76-2.8,0.76-4.31c-0.13-52.28-0.26-104.57-0.34-156.85
			c-0.03-17.11-0.03-34.23,0.11-51.34c0.11-13.07,7.43-20.21,20.5-20.26c9.33-0.04,18.65-0.06,27.98-0.02
			c6.04,0.02,11.09-2.38,14.94-6.76c3.57-4.06,4.1-8.89,1.7-13.96c-2.75-5.82-7.74-8.14-13.66-8.26
			c-11.32-0.23-22.65-0.06-33.97,0.04c-22.14,0.19-39.83,13.63-46.06,34.92c-2.33,7.97-1.66,16.19-1.7,24.27
			c-0.17,34.62,0.09,69.25,0.14,103.87C99.52,397.96,99.49,423.7,99.49,449.45z M755.17,873.35c0,0.02,0,0.03,0,0.05
			c40.14,0,80.29,0,120.43,0c18.99,0,35.1-12,40.42-30.32c3.27-11.25,2.04-22.84,1.57-34.23c-0.35-8.32-8.15-14.4-15.5-13.89
			c-7.91,0.55-13.8,7.26-13.92,16.02c-0.09,6.33-0.07,12.66,0.03,18.99c0.05,3.35-1.15,6.05-3.17,8.66
			c-3.85,4.96-9.05,6.32-14.96,6.32c-56.13-0.01-112.26-0.02-168.39,0.01c-21.98,0.01-43.97,0.1-65.95,0.23
			c-8.57,0.05-14.62,4.56-15.8,11.52c-1.67,9.85,4.47,16.62,15.31,16.63C675.22,873.38,715.19,873.35,755.17,873.35z M765.81,570.9
			c-10.61,8.94-20.71,17.55-30.92,26.01c-3.03,2.51-5.65,5.94-9.56,6.93c-14.93,3.77-29.95,7.16-44.9,10.84
			c-3.84,0.94-4.71-0.18-4.65-4.05c0.22-14.66,0.03-29.32,0.04-43.98c0-7.77-5.4-13.79-12.63-13.95c-7.86-0.18-13.38,5-13.39,12.84
			c-0.02,22,0,43.99,0.11,65.99c0.04,9.16,7.01,14.77,15.93,12.72c23.31-5.34,46.59-10.84,69.87-16.31c2.11-0.5,3.94-1.48,5.65-2.98
			c10.62-9.34,21.24-18.68,32.09-27.74c4.46-3.72,8.15-8.39,13.45-11.66c0,1.86-0.05,3.19,0.01,4.52c0.2,4.88,3.75,9.18,8.2,9.98
			c5.56,1,10.74-1.17,12.21-6.14c3.89-13.17,7.68-26.4,10.76-39.78c1.86-8.1-5.74-16.28-13.15-14.72
			c-12.96,2.72-25.84,5.83-38.71,8.96c-4.14,1.01-7.11,3.91-8.08,8.06c-1,4.3,0.28,8.27,3.63,11.34
			C762.85,568.78,764.1,569.59,765.81,570.9z M728.23,493.81c0,0.02,0,0.05,0,0.07c-21.48,0-42.96-0.02-64.43,0.01
			c-8.22,0.01-13.72,5.22-13.94,13.07c-0.22,7.9,4.82,13.26,13.12,13.88c1.66,0.12,3.33,0.11,4.99,0.11
			c40.46,0.01,80.92,0.01,121.38,0.01c1.5,0,3.01,0.06,4.49-0.11c7.9-0.92,12.73-6.71,12.3-14.67c-0.4-7.49-5.99-12.38-13.97-12.37
			C770.86,493.83,749.54,493.81,728.23,493.81z"/>
		<path fill="#14304F" d="M111.87,861.35c-0.82-0.08-1.7-0.41-2.46-0.22c-10.82,2.69-18.7-3.01-18.26-14.17
			c0.65-16.45,2.08-32.88,3.18-49.31c0.89-13.27,1.78-26.55,2.7-39.82c1.88-27.05,3.78-54.09,5.66-81.14
			c0.86-12.43,1.29-24.9,5.37-36.9c7.23-21.32,19.6-39.02,36.85-53.37c5.24-4.36,5.49-4.4,1.27-9.66
			c-9.98-12.41-12.8-26.86-11.86-42.19c0.48-7.77-0.38-15.65,1.79-23.32c3.08-10.89,11.54-15.38,22.16-11.15
			c4.17,1.66,6.81-0.37,9.14-2.9c7.29-7.91,10.98-17.71,13.52-27.92c3.7-14.91,2.09-29.84-0.21-44.77
			c-1.37-8.94-2.68-17.91-3.59-26.91c-1.54-15.25-1.39-30.57-1.06-45.87c0.74-34.1,8.17-66.76,22.04-97.86
			c15.57-34.91,37.36-65.22,68.4-88.12c25.67-18.93,54.49-29.71,86.44-31.95c39.4-2.76,74.9,8.13,106.91,30.7
			c33.73,23.78,56.2,56.4,72.14,93.94c8.47,19.95,14.52,40.63,17.63,62.05c3.49,24.09,3.89,48.28,1.99,72.62
			c-1.6,20.53-6.68,40.75-5.61,61.49c0.7,13.49,4.46,26.11,11.62,37.64c1.87,3.02,4.37,5.42,7.24,7.47
			c1.58,1.13,2.95,1.53,4.99,0.64c14.29-6.23,22.51,1.22,24.41,13.35c2.44,15.52,3.4,31.43-1.71,46.88
			c-2.11,6.37-5.4,12.09-9.62,17.3c-4.66,5.74-4.68,5.8,0.55,11.27c15.21,15.93,25.89,34.37,30.95,55.89
			c2.71,11.52,3.35,23.32,4.53,35.05c0.99,9.85,1.94,19.7,2.99,30.34c7.32-6.97,13.4-13.94,18.86-21.42
			c3.16-4.33,6.89-7.21,12.33-8.44c11.3-2.55,22.48-5.61,33.66-8.65c5.53-1.51,10.34-0.41,14.07,3.72c3.63,4.03,4.12,8.9,1.53,14.6
			c8.22-0.77,15.59-3.2,23.08-4.95c6.79-1.59,13.47-3.66,20.29-5.05c2.9-0.59,4.82-1.89,6.44-4.12c2.93-4.03,5.91-8.03,8.88-12.03
			c4.66-6.29,10.64-9.45,18.73-9.42c34.15,0.11,68.3-0.19,102.46-0.05c4.95,0.02,6.13-1.45,6-6.16
			c-0.32-11.49-0.19-22.99-0.03-34.49c0.12-8.48,5.42-14.94,12.78-16.09c9.06-1.42,16.81,5.7,16.86,15.7
			c0.07,12,0.02,23.99-0.11,35.99c-0.03,2.67,0.45,4.38,3.06,5.97c9.46,5.77,9.61,17.48,0.15,23.15c-2.93,1.76-3.19,3.59-3.18,6.29
			c0.05,15.33-0.06,30.66,0.07,45.99c0.16,18.17-12.97,32.39-32.12,32.18c-55.81-0.6-111.63-0.18-167.44-0.27
			c-2.93,0-5.02,0.74-6.89,2.93c-4.62,5.4-10.03,10.13-13.92,16.32c1.95,1.31,3.98,0.72,5.87,0.72
			c47.82,0.02,95.64,0.03,143.46-0.05c5.9-0.01,10.28,2.26,13.03,7.44c2.64,4.97,2.42,9.94-0.8,14.57c-3,4.3-7.52,5.92-12.52,6.05
			c-6.83,0.17-13.66,0.06-20.49,0.06c-52.98,0.01-105.97-0.04-158.95,0.09c-6.69,0.02-11.56-2.33-14.74-8.2
			c-1.27-5.4,0.47-9.71,4.48-13.43c3.66-3.39,6.95-7.18,10.6-10.58c2.25-2.1,1.78-3.44-0.39-5.12c-12.51-9.65-25-19.32-37.4-29.1
			c-2.58-2.04-3.87-1.74-5.72,1.06c-4.52,6.82-12.55,8.97-19.21,5.48c-6.8-3.57-8.98-9.85-9.68-16.96
			c-2.34-23.64-4.16-47.35-7.18-70.91c-3.28-25.57-15.2-46.54-36.3-61.94c-18.76-13.68-40.3-20.93-62.29-27.18
			c-2.84-0.81-3.68,0.28-4.34,2.96c-4.84,19.52-9.09,39.17-12.88,58.92c-3.69,19.21-10.7,36.59-25.53,50.23
			c-20.83,19.15-42.36,37.45-64.38,55.19c-2.83,2.28-4.61,4.79-4.58,8.83c0.1,13.99-0.22,27.98-0.3,41.97
			c-0.02,3.45-0.67,6.54-3.09,9.18c-4.24,4.64-9.94,6.32-15.29,4.34c-5.48-2.03-8.74-6.78-8.77-13.21
			c-0.08-14-0.12-27.99-0.01-41.99c0.02-3.11-0.9-5.28-3.35-7.28c-17.51-14.22-34.95-28.54-51.75-43.61
			c-9.76-8.76-19.79-17.37-27.05-28.48c-7.88-12.06-11-25.89-13.85-39.74c-3.69-17.91-7.35-35.84-12.21-53.48
			c-0.59-2.13-0.69-4.54-4.45-3.46c-23.81,6.83-46.79,16-67.33,29.68c-23.69,15.79-37.18,38.37-38.37,67.58
			c-0.61,14.95-1.88,29.87-2.94,44.8c-1.93,27.18-3.93,54.35-5.87,81.53c-1.1,15.42-2.17,30.84-3.17,46.26
			C119.33,851.1,117.73,857.2,111.87,861.35z M523.13,364.32c0.58-17.82-1.99-35.36-5.28-52.74c-2.6-13.74-7.34-26.94-12.82-39.84
			c-12.79-30.14-30.68-56.71-56.25-77.41c-12.81-10.37-27.07-18.44-42.83-24.24c-21.67-7.98-43.68-9.71-65.99-5.78
			c-23.38,4.12-43.79,15.18-62.06,30.3c-15.61,12.92-28.1,28.38-38.47,45.7c-11.72,19.55-20.91,40.18-26.84,62.21
			c-3.93,14.58-5.72,29.47-6.94,44.53c-1.54,19.01-0.12,37.86,1.86,56.67c1.38,13.14,3.58,26.21,4.46,39.4
			c1.21,18.13-1.11,35.83-8.94,52.39c-7.76,16.4-17.14,31.48-36.52,36.29c-1.5,0.37-2.47,0.79-2.39,2.49
			c0.51,11,2.25,21.49,11.1,29.39c2.19,1.95,3.87,2.14,6.52,0.66c15.5-8.64,32.03-14.95,48.53-21.37
			c7.07-2.75,14.32-5.05,21.08-8.64c30.54-16.2,35.46-49.76,16.54-73.79c-16.05-20.38-27.23-43.51-34.55-68.33
			c-5.57-18.91-6.34-38.48-5.15-58.07c0.66-10.88,6.66-20.74,20.16-23.37c20.45-3.98,40.47-9.71,59.72-17.88
			c22.26-9.45,43.14-20.91,58.87-39.94c7.22-8.74,13.11-18.06,15.49-29.54c1.42-6.86,2.87-13.75,4.62-20.56
			c1.99-7.77,7.29-12.46,14.38-12.6c7.13-0.14,12.82,4.49,14.95,12.11c1.34,4.81-0.93,9.14-1.99,13.56
			c-2.19,9.14-5.15,18.41-2.95,27.67c4.95,20.83,16.86,37.48,33.58,50.61c10.34,8.12,22.43,12.63,35.1,15.86
			c12.44,3.17,17.66,9.02,19.01,21.85c1.47,13.95,0.7,28.01-1.44,41.78c-4.96,31.82-18.15,60.28-37.54,85.89
			c-4.33,5.72-8.34,11.41-9.79,18.78c-4.02,20.44,0.51,37.54,17.95,50.29c7.07,5.17,14.77,9.05,22.95,11.9
			c20.12,7.02,40.17,14.17,58.8,24.7c2.37,1.34,3.68,0.26,5.29-0.97c8.84-6.69,10.68-16.36,11.47-26.55
			c0.29-3.81-0.35-6.36-5.01-6.31c-2.85,0.03-5.45-1.43-7.95-2.75c-12.16-6.46-19.55-17.16-25.94-28.85
			c-13.44-24.58-12.72-50.97-9.37-77.42C520.99,403.06,522.77,383.76,523.13,364.32z M363.43,487.31
			c16.73,0.78,31.61-5.82,44.89-16.17c30.18-23.51,46.49-55.3,53.77-92.21c2.18-11.04,2.96-22.29,4.1-33.49
			c0.49-4.84,1.49-8.3-4.79-10.05c-13.11-3.64-24.77-10.52-35.6-18.6c-15.17-11.32-27.03-25.54-34.98-42.8
			c-1.64-3.57-2.51-3.26-4.67-0.46c-10.09,13.05-22.79,23.12-36.9,31.46c-25.7,15.19-53.49,24.99-82.59,31.06
			c-5.31,1.11-6.06,3.47-5.49,8c1.57,12.52,2.18,25.17,4.83,37.55c7.45,34.79,22.95,64.99,50.97,87.76
			C330.24,480.17,345.04,487.69,363.43,487.31z M682.62,699.41c-7,1.83-13.02,3.37-19.02,5.01c-0.56,0.15-1.03,0.82-1.44,1.33
			c-4,4.89-7.92,9.85-11.99,14.67c-1.93,2.29-1.73,3.87,0.69,5.69c8.08,6.08,16.33,11.98,23.95,18.6c3.92,3.41,6.17,3,8.82-0.86
			c4.35-6.33,10.26-8.3,17.99-8.14c22.31,0.45,44.63,0.12,66.95,0.12c37.47-0.01,74.94,0.01,112.41,0.01c7.06,0,7.09-0.02,7.12-7.27
			c0.06-14.16-0.04-28.31,0.21-42.46c0.07-4.07-0.7-5.71-5.33-5.68c-28.81,0.19-57.62,0.02-86.43-0.01
			c-17.24-0.02-17.3-0.03-25.48,15.55c-1.74,3.32-4.02,5.35-7.73,6.31c-21.99,5.69-43.96,11.43-66.23,15.98
			c-5.63,1.15-10.7,1.31-14.5-3.45C679.05,710.35,678.96,705.35,682.62,699.41z M416.99,500.38c-2.1-0.67-3.15,1.02-4.5,1.8
			c-33.3,19.34-66.42,19.59-99.26-1.02c-2.87-1.8-2.88-0.57-3.05,1.7c-0.66,8.62-1.21,17.25-2.17,25.83
			c-0.4,3.58,1.42,5.53,3.72,7.51c15.6,13.45,32.21,25.59,48.76,37.81c2.68,1.98,4.68,1.28,7.01-0.37
			c17.37-12.27,34.13-25.29,50.08-39.36c1.73-1.53,2.07-2.99,1.85-5.21C418.48,519.51,417.77,509.92,416.99,500.38z M445.27,547.92
			c-1.71,0.14-2.45,1.37-3.4,2.23c-15.48,14.09-31.64,27.35-48.55,39.68c-8.01,5.84-8.16,5.88-1.29,12.67
			c15.01,14.85,30.14,29.57,45.19,44.37c1.94,1.91,3.19,3.09,3.83-0.97c0.61-3.87,2.03-7.6,2.95-11.43
			c5.66-23.75,8.96-48.12,18.3-70.92c0.68-1.67,1.02-2.76-1-4.06c-4.74-3.05-9.2-6.53-13.77-9.84
			C446.74,549.07,445.98,548.46,445.27,547.92z M287.31,649.12c5.84-3.86,10.16-8.93,14.84-13.59c12.35-12.31,24.61-24.73,37.01-37
			c1.85-1.84,2.15-2.92-0.15-4.56c-3.92-2.79-7.6-5.92-11.48-8.76c-14.76-10.81-28.67-22.66-42.23-34.92
			c-2.2-1.99-3.67-2.5-6.22-0.32c-3.9,3.34-8.17,6.3-12.54,9.01c-2.43,1.5-2.47,2.82-1.55,5.21c4.23,11.01,7.36,22.35,10.13,33.81
			C279.2,614.89,282.27,632.03,287.31,649.12z M326.36,688.71c1.08-0.94,1.4-2.15,1.86-3.37c3.31-8.67,6.81-17.24,11.54-25.27
			c4.78-8.11,4.58-8.02-1.36-15.53c-2.54-3.21-4.42-2.95-7.07-0.41c-8.02,7.69-16.09,15.34-24.27,22.86
			c-1.82,1.67-1.85,2.92-0.2,4.44c5.86,5.38,11.75,10.74,17.64,16.08C324.98,687.96,325.6,688.23,326.36,688.71z M400.39,689.19
			c6.78-5.23,12.41-11.29,18.56-16.76c2.66-2.36,2.11-3.81-0.11-5.88c-6.27-5.89-12.47-11.87-18.61-17.9
			c-7.57-7.45-7.45-7.41-14.93-0.09c-2.01,1.96-2.38,3.19-0.88,5.81C390.73,665.38,396.21,676.82,400.39,689.19z M363.82,672.77
			c-3.08,3.92-14.12,28.71-14.68,32.15c-0.27,1.63,0.57,2.42,1.6,3.33c15.07,13.22,10.09,14.3,25.13,0.53
			c0.37-0.34,0.74-0.67,1.13-0.99c1.08-0.86,1.17-1.97,0.75-3.15C373.92,693.87,369.8,683.21,363.82,672.77z M372.46,622.05
			c-0.09-1.48-7.99-9.08-9.41-9.06c-1.34,0.02-8.83,6.93-8.84,8.16c-0.01,1.51,8.02,10.63,9.31,10.57
			C364.57,631.66,372.52,623.07,372.46,622.05z"/>
		<path fill="#5CBEFB" d="M111.87,861.35c5.87-4.15,7.46-10.25,7.9-16.97c1-15.42,2.07-30.85,3.17-46.26
			c1.94-27.18,3.94-54.35,5.87-81.53c1.06-14.93,2.33-29.85,2.94-44.8c1.19-29.21,14.67-51.8,38.37-67.58
			c20.54-13.69,43.51-22.85,67.33-29.68c3.76-1.08,3.87,1.34,4.45,3.46c4.86,17.64,8.52,35.57,12.21,53.48
			c2.85,13.86,5.97,27.69,13.85,39.74c7.26,11.11,17.29,19.71,27.05,28.48c16.79,15.07,34.24,29.39,51.75,43.61
			c2.45,1.99,3.37,4.17,3.35,7.28c-0.11,14-0.07,27.99,0.01,41.99c0.04,6.44,3.29,11.18,8.77,13.21c5.34,1.98,11.04,0.3,15.29-4.34
			c2.42-2.64,3.07-5.73,3.09-9.18c0.08-13.99,0.4-27.98,0.3-41.97c-0.03-4.03,1.75-6.55,4.58-8.83
			c22.02-17.74,43.55-36.04,64.38-55.19c14.83-13.64,21.84-31.01,25.53-50.23c3.79-19.75,8.04-39.4,12.88-58.92
			c0.66-2.68,1.5-3.76,4.34-2.96c22,6.25,43.53,13.49,62.29,27.18c21.1,15.39,33.02,36.37,36.3,61.94
			c3.02,23.56,4.84,47.27,7.18,70.91c0.7,7.1,2.88,13.39,9.68,16.96c6.65,3.49,14.69,1.34,19.21-5.48c1.85-2.8,3.14-3.1,5.72-1.06
			c12.41,9.78,24.9,19.45,37.4,29.1c2.18,1.68,2.64,3.02,0.39,5.12c-3.65,3.4-6.94,7.19-10.6,10.58c-4.01,3.72-5.75,8.03-4.48,13.43
			c-7.88,6.39-14.78,13.83-21.6,21.25c-8.63,9.41-17.92,18.13-26.71,27.37c-4.44,4.66-9.04,9.18-13.63,13.69
			c-3.96,3.89-8.76,5.94-14.34,5.78c-9.43-0.28-18.87,0.81-28.29-0.28c0.91-3,2.2-5.84,2.28-9.13c0.35-13.47,2.11-26.82,3.48-40.21
			c1.33-13.02,3.16-25.97-0.59-39.02c-2.56-8.92-3.94-18.17-6.16-27.2c-2.64-10.77-12.28-15.1-21.46-9.89
			c-5.32,3.01-7.73,9.82-6.08,17.64c1,4.72,2.24,9.38,3.33,14.08c2.03,8.72,5.09,17.31,4.21,26.44c-0.89,9.24-2.38,18.42-3.15,27.66
			c-1.1,13.17-4.11,26.36-0.33,39.58c-14.15,0.13-28.29,0.36-42.44,0.36c-92.92,0.02-185.84,0-278.75-0.02
			c1.05-3.29,2.95-6.39,2.71-9.99c-0.73-10.93-1.48-21.87-2.33-32.79c-0.89-11.53-4.26-23.01-2.27-34.59
			c1.85-10.77,4.88-21.34,7.41-31.99c1.96-8.25-2.74-16.64-10.34-18.39c-7.72-1.78-15.15,3.09-17.22,11.35
			c-1.25,4.99-2.56,9.98-3.58,15.02c-2.3,11.35-6.46,22.44-5.41,34.29c1.37,15.38,2.87,30.74,4.45,46.1
			c0.71,6.9-0.01,14.01,2.87,20.61c-18.45,0.88-36.91,0.57-55.35,0.06C117.95,870.48,114.15,866.22,111.87,861.35z M240.01,807.62
			c0.03,8.86,6.24,15.31,14.79,15.35c8.87,0.05,16-6.87,16.05-15.57c0.04-8.05-7.15-15.33-15.23-15.4
			C246.35,791.92,239.98,798.3,240.01,807.62z M470.69,822.96c8.63,0.19,16.04-6.6,16.24-14.91c0.21-8.26-6.69-15.84-14.6-16.04
			c-9.04-0.23-16.11,6.42-16.27,15.29C455.91,816.04,462.2,822.77,470.69,822.96z M348.78,838.47c0.01,8.88,5.92,14.82,14.64,14.7
			c8.2-0.11,15.37-6.92,15.43-14.65c0.07-8.42-7.15-15.58-15.6-15.49C354.36,823.13,348.77,829.1,348.78,838.47z"/>
		<path fill="#14304F" d="M710.96,209.1c53.49,0,106.97-0.1,160.46,0.08c11.1,0.04,20.9,4.01,29.61,11.3
			c12.7,10.63,16.82,24.22,16.78,40.21c-0.23,87.64-0.17,175.29-0.21,262.93c0,9.83,0.65,19.71-0.16,29.47
			c-0.82,9.9-3.66,13.36-11.1,15.72c-8.22,2.6-15.66-1.98-17.71-10.46c-0.48-1.98-0.63-3.93-0.63-5.93
			c0-97.97-0.11-195.95,0.15-293.92c0.03-11.34-9.04-20.52-20.45-20.5c-105.31,0.2-210.61,0.1-315.92,0.08
			c-2.65,0-5.31,0.15-7.89-0.8c-6.95-2.55-11.48-9.24-10.6-15.75c0.97-7.13,7-12.14,15.2-12.36c6.49-0.17,13-0.09,19.49-0.09
			c47.65-0.01,95.31,0,142.96,0C710.96,209.09,710.96,209.09,710.96,209.1z"/>
		<path fill="#14304F" d="M733.85,457.03c-16.32,0-32.64,0.04-48.96-0.01c-21.21-0.06-36-14.93-36-36.12c0-30.97,0-61.95,0.02-92.92
			c0.01-19.3,15.4-34.83,34.73-35.01c9.16-0.09,18.32-0.26,27.47,0c4.06,0.12,5.14-1.28,4.86-5.11c-0.24-3.26-0.68-6.68,0.49-9.87
			c2.73-7.41,11.97-11.71,21.26-10c7.12,1.31,12.14,7.55,12.33,15.34c0.23,9.54,0.23,9.54,9.86,9.55c8.16,0.01,16.32,0,24.48,0.01
			c19.13,0.03,34.53,15.25,34.58,34.4c0.08,31.64,0.06,63.28,0.01,94.92c-0.03,18.2-15.42,34.23-33.68,34.6
			c-17.14,0.35-34.3,0.08-51.45,0.08C733.85,456.94,733.85,456.99,733.85,457.03z M733.46,429.01c0-0.01,0-0.01,0-0.02
			c15.33,0,30.65,0,45.98,0c8.19,0,11.61-3,11.83-11.26c0.8-29.31,0.16-58.62-0.2-87.93c-0.07-5.64-4.08-9.44-10.09-9.44
			c-30.48-0.02-60.97-0.03-91.45,0.27c-10.45,0.1-13.36,3.56-13.38,14.16c-0.04,18.16-0.04,36.32,0.02,54.47
			c0.03,9.82-0.1,19.66,0.44,29.46c0.4,7.22,4.25,10.28,11.38,10.28C703.14,429.02,718.3,429.01,733.46,429.01z"/>
		<path fill="#14304F" d="M99.49,449.45c0-25.74,0.03-51.49-0.01-77.23c-0.06-34.62-0.32-69.25-0.14-103.87
			c0.04-8.08-0.64-16.31,1.7-24.27c6.24-21.29,23.92-34.74,46.06-34.92c11.32-0.1,22.65-0.27,33.97-0.04
			c5.92,0.12,10.91,2.44,13.66,8.26c2.4,5.07,1.87,9.9-1.7,13.96c-3.85,4.38-8.91,6.79-14.94,6.76c-9.32-0.04-18.65-0.02-27.98,0.02
			c-13.07,0.05-20.4,7.19-20.5,20.26c-0.14,17.11-0.14,34.23-0.11,51.34c0.08,52.28,0.21,104.57,0.34,156.85
			c0,1.52,0.32,3.31-0.76,4.31c-5.1,4.76-3.96,10.93-4.03,16.81c-0.07,5.54-2.77,9.5-7.35,12.18c-8.49,4.98-18.5-0.92-18.58-10.97
			c-0.1-13.15-0.03-26.31-0.03-39.46C99.22,449.45,99.35,449.45,99.49,449.45z"/>
		<path fill="#14304F" d="M755.17,873.35c-39.98,0-79.95,0.02-119.93-0.01c-10.84-0.01-16.98-6.77-15.31-16.63
			c1.18-6.96,7.23-11.47,15.8-11.52c21.98-0.13,43.97-0.21,65.95-0.23c56.13-0.03,112.26-0.03,168.39-0.01
			c5.9,0,11.11-1.35,14.96-6.32c2.02-2.61,3.22-5.32,3.17-8.66c-0.1-6.33-0.11-12.66-0.03-18.99c0.12-8.77,6.01-15.48,13.92-16.02
			c7.36-0.51,15.16,5.57,15.5,13.89c0.48,11.39,1.7,22.98-1.57,34.23c-5.32,18.32-21.42,30.32-40.42,30.32
			c-40.14,0-80.29,0-120.43,0C755.17,873.38,755.17,873.37,755.17,873.35z"/>
		<path fill="#14304F" d="M765.81,570.9c-1.7-1.3-2.96-2.12-4.05-3.12c-3.34-3.08-4.63-7.04-3.63-11.34
			c0.97-4.15,3.93-7.05,8.08-8.06c12.87-3.14,25.75-6.24,38.71-8.96c7.41-1.56,15.01,6.63,13.15,14.72
			c-3.08,13.38-6.87,26.61-10.76,39.78c-1.47,4.97-6.65,7.13-12.21,6.14c-4.45-0.8-7.99-5.1-8.2-9.98
			c-0.06-1.33-0.01-2.66-0.01-4.52c-5.3,3.27-8.99,7.93-13.45,11.66c-10.85,9.06-21.47,18.41-32.09,27.74
			c-1.7,1.5-3.54,2.48-5.65,2.98c-23.28,5.47-46.56,10.97-69.87,16.31c-8.92,2.04-15.89-3.57-15.93-12.72
			c-0.11-21.99-0.13-43.99-0.11-65.99c0.01-7.83,5.53-13.02,13.39-12.84c7.23,0.17,12.63,6.18,12.63,13.95
			c0,14.66,0.18,29.32-0.04,43.98c-0.06,3.87,0.81,4.99,4.65,4.05c14.95-3.67,29.97-7.07,44.9-10.84c3.91-0.99,6.53-4.41,9.56-6.93
			C745.1,588.44,755.2,579.84,765.81,570.9z"/>
		<path fill="#14304F" d="M728.23,493.81c21.31,0,42.62,0.02,63.93-0.01c7.98-0.01,13.57,4.88,13.97,12.37
			c0.43,7.96-4.4,13.75-12.3,14.67c-1.48,0.17-2.99,0.11-4.49,0.11c-40.46,0-80.92,0-121.38-0.01c-1.66,0-3.33,0.02-4.99-0.11
			c-8.3-0.62-13.34-5.97-13.12-13.88c0.22-7.85,5.72-13.06,13.94-13.07c21.48-0.03,42.96-0.01,64.43-0.01
			C728.23,493.86,728.23,493.84,728.23,493.81z"/>
		<path fill="#14304F" d="M178.41,870.57c-2.88-6.6-2.16-13.71-2.87-20.61c-1.58-15.36-3.08-30.72-4.45-46.1
			c-1.05-11.85,3.11-22.94,5.41-34.29c1.02-5.04,2.33-10.03,3.58-15.02c2.07-8.26,9.5-13.14,17.22-11.35
			c7.6,1.75,12.3,10.14,10.34,18.39c-2.53,10.65-5.56,21.22-7.41,31.99c-1.99,11.58,1.38,23.06,2.27,34.59
			c0.84,10.93,1.6,21.86,2.33,32.79c0.24,3.61-1.66,6.7-2.71,9.99C194.12,877.19,186.21,877.38,178.41,870.57z"/>
		<path fill="#14304F" d="M523.32,870.61c-3.78-13.22-0.77-26.41,0.33-39.58c0.77-9.24,2.26-18.42,3.15-27.66
			c0.88-9.13-2.18-17.73-4.21-26.44c-1.09-4.7-2.33-9.36-3.33-14.08c-1.65-7.82,0.76-14.62,6.08-17.64
			c9.18-5.2,18.82-0.87,21.46,9.89c2.22,9.03,3.59,18.28,6.16,27.2c3.75,13.05,1.92,26,0.59,39.02
			c-1.37,13.39-3.12,26.74-3.48,40.21c-0.09,3.29-1.37,6.13-2.28,9.13C539.62,877.83,531.46,877.27,523.32,870.61z"/>
		<path fill="#5CBEFB" d="M523.13,364.32c-0.36,19.44-2.14,38.73-4.58,58.04c-3.35,26.45-4.07,52.84,9.37,77.42
			c6.39,11.7,13.79,22.4,25.94,28.85c2.5,1.33,5.1,2.78,7.95,2.75c4.66-0.04,5.3,2.5,5.01,6.31c-0.79,10.19-2.63,19.86-11.47,26.55
			c-1.61,1.22-2.92,2.31-5.29,0.97c-18.62-10.54-38.68-17.68-58.8-24.7c-8.18-2.85-15.88-6.73-22.95-11.9
			c-17.44-12.75-21.98-29.84-17.95-50.29c1.45-7.37,5.46-13.05,9.79-18.78c19.39-25.62,32.58-54.07,37.54-85.89
			c2.14-13.77,2.91-27.83,1.44-41.78c-1.35-12.82-6.57-18.68-19.01-21.85c-12.67-3.23-24.76-7.74-35.1-15.86
			c-16.72-13.13-28.63-29.78-33.58-50.61c-2.2-9.26,0.76-18.54,2.95-27.67c1.06-4.42,3.33-8.75,1.99-13.56
			c-2.13-7.63-7.82-12.25-14.95-12.11c-7.09,0.14-12.38,4.83-14.38,12.6c-1.75,6.81-3.2,13.7-4.62,20.56
			c-2.37,11.47-8.27,20.8-15.49,29.54c-15.73,19.04-36.61,30.49-58.87,39.94c-19.25,8.17-39.27,13.9-59.72,17.88
			c-13.5,2.63-19.5,12.48-20.16,23.37c-1.18,19.59-0.42,39.16,5.15,58.07c7.31,24.82,18.5,47.95,34.55,68.33
			c18.92,24.03,14,57.59-16.54,73.79c-6.76,3.58-14.01,5.89-21.08,8.64c-16.5,6.42-33.03,12.73-48.53,21.37
			c-2.65,1.48-4.34,1.29-6.52-0.66c-8.85-7.89-10.59-18.39-11.1-29.39c-0.08-1.71,0.89-2.12,2.39-2.49
			c19.38-4.81,28.75-19.89,36.52-36.29c7.84-16.55,10.15-34.25,8.94-52.39c-0.88-13.19-3.08-26.26-4.46-39.4
			c-1.98-18.81-3.4-37.65-1.86-56.67c1.22-15.06,3.01-29.94,6.94-44.53c5.93-22.03,15.12-42.65,26.84-62.21
			c10.38-17.32,22.86-32.78,38.47-45.7c18.27-15.12,38.67-26.18,62.06-30.3c22.31-3.93,44.32-2.2,65.99,5.78
			c15.76,5.8,30.02,13.87,42.83,24.24c25.57,20.7,43.46,47.27,56.25,77.41c5.47,12.9,10.22,26.1,12.82,39.84
			C521.13,328.97,523.71,346.51,523.13,364.32z M252.13,260.17c-0.18,10.45,8.75,17.21,18.21,13.47c22.6-8.93,44.23-20,65.94-30.86
			c4.55-2.28,6.9-6.91,6.56-12.07c-0.32-4.93-2.5-8.93-7.15-11.72c-6.23-3.75-12.15-1.96-17.53,0.81
			c-18.44,9.48-37.25,18.14-56.07,26.81C256.21,249.33,252.07,253.59,252.13,260.17z"/>
		<path fill="#FEFEFE" d="M363.43,487.31c-18.39,0.38-33.19-7.14-46.46-17.93c-28.02-22.77-43.52-52.97-50.97-87.76
			c-2.65-12.38-3.27-25.03-4.83-37.55c-0.57-4.53,0.18-6.89,5.49-8c29.1-6.07,56.89-15.87,82.59-31.06
			c14.12-8.34,26.81-18.42,36.9-31.46c2.16-2.8,3.03-3.11,4.67,0.46c7.95,17.26,19.8,31.47,34.98,42.8
			c10.83,8.08,22.48,14.96,35.6,18.6c6.28,1.74,5.28,5.2,4.79,10.05c-1.14,11.2-1.92,22.45-4.1,33.49
			c-7.28,36.9-23.59,68.7-53.77,92.21C395.04,481.49,380.16,488.09,363.43,487.31z"/>
		<path fill="#FEFEFE" d="M682.62,699.41c-3.66,5.94-3.57,10.94-0.02,15.39c3.8,4.76,8.87,4.6,14.5,3.45
			c22.27-4.55,44.24-10.29,66.23-15.98c3.71-0.96,5.99-2.99,7.73-6.31c8.18-15.58,8.24-15.57,25.48-15.55
			c28.81,0.03,57.62,0.2,86.43,0.01c4.64-0.03,5.41,1.6,5.33,5.68c-0.25,14.15-0.15,28.31-0.21,42.46
			c-0.03,7.26-0.06,7.27-7.12,7.27c-37.47,0-74.94-0.01-112.41-0.01c-22.32,0-44.64,0.34-66.95-0.12
			c-7.73-0.16-13.64,1.81-17.99,8.14c-2.65,3.85-4.9,4.26-8.82,0.86c-7.62-6.62-15.87-12.52-23.95-18.6
			c-2.42-1.82-2.62-3.4-0.69-5.69c4.07-4.83,7.99-9.78,11.99-14.67c0.41-0.51,0.88-1.18,1.44-1.33
			C669.6,702.78,675.62,701.23,682.62,699.41z M827.91,691.89c0,0.02,0,0.05,0,0.07c-7.65,0-15.3-0.07-22.94,0.02
			c-7.79,0.09-13.57,5.33-13.66,12.21c-0.1,7.43,5.22,13.49,12.93,13.64c15.46,0.3,30.93,0.26,46.38,0.05
			c7.25-0.1,13.3-6.37,13.24-12.94c-0.06-7.47-5.98-13.02-14-13.05C842.54,691.86,835.23,691.89,827.91,691.89z"/>
		<path fill="#FEFEFE" d="M416.99,500.38c0.79,9.53,1.49,19.13,2.44,28.7c0.22,2.22-0.12,3.68-1.85,5.21
			c-15.95,14.08-32.71,27.1-50.08,39.36c-2.33,1.65-4.33,2.34-7.01,0.37c-16.55-12.23-33.17-24.36-48.76-37.81
			c-2.3-1.98-4.12-3.92-3.72-7.51c0.96-8.58,1.51-17.22,2.17-25.83c0.17-2.26,0.17-3.5,3.05-1.7c32.84,20.61,65.96,20.36,99.26,1.02
			C413.83,501.4,414.89,499.71,416.99,500.38z"/>
		<path fill="#FEFEFE" d="M445.27,547.92c0.71,0.54,1.47,1.15,2.26,1.72c4.57,3.31,9.03,6.8,13.77,9.84c2.02,1.3,1.68,2.4,1,4.06
			c-9.34,22.8-12.64,47.17-18.3,70.92c-0.91,3.83-2.33,7.56-2.95,11.43c-0.64,4.06-1.9,2.87-3.83,0.97
			c-15.05-14.8-30.18-29.53-45.19-44.37c-6.86-6.79-6.72-6.83,1.29-12.67c16.91-12.33,33.08-25.58,48.55-39.68
			C442.82,549.29,443.56,548.07,445.27,547.92z"/>
		<path fill="#FEFEFE" d="M287.31,649.12c-5.04-17.09-8.11-34.22-12.19-51.12c-2.77-11.46-5.9-22.8-10.13-33.81
			c-0.92-2.39-0.87-3.71,1.55-5.21c4.37-2.71,8.64-5.67,12.54-9.01c2.55-2.18,4.02-1.67,6.22,0.32
			c13.56,12.26,27.47,24.11,42.23,34.92c3.88,2.84,7.56,5.97,11.48,8.76c2.3,1.64,2,2.72,0.15,4.56
			c-12.39,12.28-24.65,24.69-37.01,37C297.47,640.19,293.15,645.26,287.31,649.12z"/>
		<path fill="#FEFEFE" d="M326.36,688.71c-0.76-0.48-1.38-0.75-1.85-1.18c-5.89-5.35-11.78-10.7-17.64-16.08
			c-1.66-1.52-1.62-2.77,0.2-4.44c8.18-7.52,16.25-15.17,24.27-22.86c2.64-2.53,4.53-2.8,7.07,0.41c5.94,7.51,6.14,7.41,1.36,15.53
			c-4.73,8.02-8.23,16.6-11.54,25.27C327.75,686.56,327.43,687.77,326.36,688.71z"/>
		<path fill="#FEFEFE" d="M400.39,689.19c-4.18-12.37-9.66-23.81-15.96-34.82c-1.5-2.63-1.13-3.85,0.88-5.81
			c7.48-7.32,7.36-7.36,14.93,0.09c6.13,6.04,12.33,12.01,18.61,17.9c2.21,2.08,2.77,3.52,0.11,5.88
			C412.8,677.9,407.17,683.97,400.39,689.19z"/>
		<path fill="#FEFEFE" d="M363.82,672.77c5.98,10.44,10.1,21.1,13.94,31.88c0.42,1.18,0.33,2.29-0.75,3.15
			c-0.39,0.31-0.76,0.65-1.13,0.99c-15.05,13.77-10.06,12.69-25.13-0.53c-1.04-0.91-1.87-1.7-1.6-3.33
			C349.71,701.48,360.74,676.69,363.82,672.77z"/>
		<path fill="#FEFEFE" d="M372.46,622.05c0.06,1.02-7.88,9.61-8.94,9.66c-1.29,0.07-9.32-9.05-9.31-10.57
			c0.01-1.22,7.5-8.13,8.84-8.16C364.47,612.97,372.36,620.57,372.46,622.05z"/>
		<path fill="#14304F" d="M240.01,807.62c-0.03-9.32,6.34-15.7,15.6-15.62c8.08,0.07,15.28,7.34,15.23,15.4
			c-0.05,8.7-7.18,15.62-16.05,15.57C246.25,822.92,240.04,816.48,240.01,807.62z"/>
		<path fill="#14304F" d="M470.69,822.96c-8.5-0.19-14.78-6.92-14.63-15.66c0.15-8.87,7.23-15.52,16.27-15.29
			c7.91,0.2,14.81,7.78,14.6,16.04C486.73,816.36,479.32,823.16,470.69,822.96z"/>
		<path fill="#14304F" d="M348.78,838.47c-0.01-9.38,5.58-15.34,14.47-15.44c8.45-0.09,15.67,7.07,15.6,15.49
			c-0.06,7.73-7.23,14.54-15.43,14.65C354.7,853.29,348.79,847.35,348.78,838.47z"/>
		<path fill="#FEFEFE" d="M733.46,429.01c-15.16,0-30.32,0.01-45.48,0c-7.13-0.01-10.98-3.06-11.38-10.28
			c-0.54-9.8-0.41-19.64-0.44-29.46c-0.06-18.16-0.06-36.31-0.02-54.47c0.02-10.59,2.93-14.05,13.38-14.16
			c30.48-0.3,60.97-0.3,91.45-0.27c6.01,0,10.02,3.8,10.09,9.44c0.37,29.31,1,58.62,0.2,87.93c-0.22,8.25-3.64,11.25-11.83,11.26
			c-15.33,0-30.65,0-45.98,0C733.46,428.99,733.46,429,733.46,429.01z M715.73,348.18c-2.11,0.38-4.25,0.61-6.32,1.15
			c-8.61,2.27-14.78,7.23-18.56,15.57c-2.93,6.47-1.66,13.05-1.89,19.58c-0.33,9.79,3.88,17.27,12.81,21.67
			c9.4,4.64,23.04-0.32,25.07-12.02c5.15-0.07,10.3-0.07,15.44-0.23c4.77-0.15,9.26-1.18,12.32-5.29c5.96-8,1.37-18.32-9.35-20.33
			c-2.8-0.52-3.43-1.29-3.36-3.9c0.16-5.64-0.01-11.3-0.02-16.95c-0.01-3.59-0.91-6.86-3.45-9.5c-3.97-4.11-8.81-5.17-14.1-3.39
			C717.9,336.72,715.82,341.89,715.73,348.18z"/>
		<path fill="#14304F" d="M252.13,260.17c-0.06-6.58,4.08-10.84,9.96-13.55c18.82-8.67,37.63-17.33,56.07-26.81
			c5.39-2.77,11.3-4.56,17.53-0.81c4.65,2.79,6.82,6.79,7.15,11.72c0.34,5.15-2.01,9.79-6.56,12.07
			c-21.71,10.86-43.35,21.92-65.94,30.86C260.88,277.38,251.95,270.62,252.13,260.17z"/>
		<path fill="#14304F" d="M827.91,691.89c7.32,0,14.63-0.03,21.95,0.01c8.01,0.04,13.93,5.58,14,13.05
			c0.06,6.57-5.99,12.84-13.24,12.94c-15.46,0.21-30.93,0.25-46.38-0.05c-7.71-0.15-13.02-6.22-12.93-13.64
			c0.09-6.88,5.87-12.12,13.66-12.21c7.65-0.09,15.3-0.02,22.94-0.02C827.91,691.94,827.91,691.91,827.91,691.89z"/>
		<path fill="#14304F" d="M715.73,348.18c0.1-6.29,2.17-11.46,8.59-13.63c5.29-1.78,10.14-0.72,14.1,3.39
			c2.54,2.64,3.45,5.91,3.45,9.5c0.01,5.65,0.18,11.3,0.02,16.95c-0.08,2.61,0.56,3.38,3.36,3.9c10.72,2.01,15.31,12.33,9.35,20.33
			c-3.06,4.11-7.55,5.14-12.32,5.29c-5.14,0.16-10.29,0.16-15.44,0.23c-9.17-3.58-10.98-6.22-11.01-15.97
			C715.81,368.16,715.76,358.17,715.73,348.18z"/>
		<path fill="#5CBEFB" d="M715.73,348.18c0.04,9.99,0.08,19.99,0.11,29.98c0.03,9.75,1.84,12.39,11.01,15.97
			c-2.03,11.7-15.66,16.66-25.07,12.02c-8.93-4.4-13.14-11.88-12.81-21.67c0.22-6.53-1.04-13.11,1.89-19.58
			c3.78-8.34,9.95-13.29,18.56-15.57C711.48,348.78,713.62,348.55,715.73,348.18z"/>
	</g>
</g>
</svg>
