<?xml version="1.0" encoding="utf-8"?>
<!-- Generator: Adobe Illustrator 27.8.0, SVG Export Plug-In . SVG Version: 6.00 Build 0)  -->
<svg version="1.1" id="Capa_1" xmlns="http://www.w3.org/2000/svg" xmlns:xlink="http://www.w3.org/1999/xlink" x="0px" y="0px"
	 viewBox="0 0 768 768" enable-background="new 0 0 768 768" xml:space="preserve">
<g>
	<g>
		<path fill="#FFFFFF" d="M0,0c256,0,512,0,768,0c0,256,0,512,0,768c-256,0-512,0-768,0C0,512,0,256,0,0z M270.28,347.24
			c0.7,6.44,1.11,12.94,2.16,19.32c3.35,20.45,12.35,38.7,22.98,56.14c23.38,38.36,50.67,73.86,79.64,108.12
			c4.83,5.71,5.73,5.83,10.37-0.05c17.23-21.85,34.7-43.52,51.41-65.77c15.44-20.57,29.67-42.01,40.56-65.44
			c15.27-32.83,17.56-65.92,1.71-99.33c-21.66-45.65-72.43-70.83-121.63-60.26C307.36,250.74,271.11,295.53,270.28,347.24z
			 M223.26,592.02c0.02,0,0.04,0,0.05,0c0-19.47,0.03-38.94-0.01-58.41c-0.02-7.5-4.65-12.86-11.66-12.9
			c-22.96-0.14-45.93-0.15-68.89,0c-7.5,0.05-11.82,4.62-11.83,12.07c-0.04,39.19-0.05,78.38,0.03,117.57
			c0.02,9.51,4.31,13.6,13.85,13.61c21.22,0.04,42.43,0.04,63.65,0.02c10.71-0.01,14.79-4.17,14.8-15.04
			C223.27,629.96,223.26,610.99,223.26,592.02z M613.09,174.2c0.01,0,0.03,0,0.04,0c0-17.35,0.02-34.7-0.01-52.05
			c-0.01-5.33-2.46-8.11-7.57-8.12c-28.34-0.05-56.68-0.03-85.01,0.07c-4.83,0.02-7.13,2.47-7.13,7.25
			c-0.03,34.95-0.04,69.91,0,104.86c0.01,5.8,2.5,8.21,8.27,8.21c27.34,0.02,54.68,0.02,82.02-0.01c7.5-0.01,9.39-1.9,9.4-9.27
			C613.11,208.16,613.09,191.18,613.09,174.2z M125.72,329.5c-8.78,0-17.25-0.09-25.72,0.03c-7.41,0.11-11.64,4.63-11.64,12.14
			c-0.01,21.23-0.01,42.45-0.01,63.68c0,13.24-0.06,26.47,0.08,39.71c0.09,8.01,4.56,13.14,11.8,13.18
			c22.72,0.13,45.45,0.15,68.18-0.06c8.77-0.08,12.93-4.65,12.95-13.45c0.06-34.34,0.08-68.68,0.05-103.02
			c-0.01-7.62-4.45-12.07-12.1-12.19c-6.99-0.11-14,0.24-20.97-0.14c-6.29-0.34-11.28,0.26-12.79,7.85c-0.6,2.99-3.73,4.04-6.68,3.3
			c-3.05-0.77-4.42-3.09-3.99-6.28C125.05,332.9,125.35,331.56,125.72,329.5z M587.44,550.13c0,0.01,0,0.02,0,0.02
			c12.6,0,25.2,0,37.8,0c5.31,0,6.73-1.35,6.78-6.6c0.07-7.74,0.05-15.47,0.07-23.21c0.02-7.07-1.73-8.82-8.82-8.82
			c-20.21-0.01-40.45-0.66-60.63,0.24c-10.99,0.49-19.18-2.25-25.78-11.08c-3.49-4.67-6.43-4.36-10.61-0.28
			c-8.03,7.84-16.03,15.71-24.05,23.56c-3.93,3.84-4.07,6.8-0.22,10.93c3.74,4.02,7.64,7.88,11.46,11.82
			c4.08,4.21,8.11,8.46,12.25,12.61c3.88,3.89,5.83,3.91,9.82,0.28c2.12-1.93,4.23-3.89,6.23-5.94c2.39-2.45,5.09-3.64,8.63-3.59
			C562.74,550.22,575.09,550.13,587.44,550.13z M380.61,692.61c21.76-0.07,38.97-17.32,38.96-39.05
			c-0.01-21.55-16.95-38.35-38.62-38.27c-21.96,0.07-38.6,16.77-38.59,38.74C342.37,675.83,359.07,692.68,380.61,692.61z
			 M385.87,572.48c13.58-0.62,32.93-1.03,52.19-2.57c11.88-0.95,23.62-3.57,35.4-5.62c1.87-0.33,3.75-1.41,5.3-2.57
			c2.29-1.71,2.28-4-0.13-5.53c-2.17-1.38-4.62-2.57-7.11-3.12c-24.73-5.5-49.89-6.56-75.11-6.78c-1.41-0.01-3.08,1.35-4.2,2.5
			c-2.25,2.31-4.02,5.11-6.34,7.34c-3.25,3.13-7.06,3.16-10.38,0.1c-2.18-2.01-4.23-4.3-5.83-6.79c-1.81-2.81-4.09-3.64-7.24-3.45
			c-15.31,0.91-30.68,1.26-45.93,2.74c-10.36,1.01-20.62,3.4-30.82,5.62c-1.81,0.39-4.08,2.85-4.37,4.64
			c-0.2,1.24,2.39,3.78,4.17,4.33c6.05,1.87,12.22,3.55,18.47,4.51C329.19,571.76,354.66,571.83,385.87,572.48z M389.02,171.96
			c3.31-1.21,6.55-2.16,9.57-3.58c1.95-0.91,3.22-0.9,4.96,0.53c6.75,5.53,6.95,5.44,12.79-1.21c0.33-0.37,0.59-0.82,0.95-1.16
			c1.63-1.54,1.91-3.26,0.25-4.83c-4.53-4.26-4.48-8.4-1.51-13.91c1.98-3.68,3.58-5.71,7.82-5.45c3.34,0.21,5.05-1.68,4.99-5.08
			c-0.02-1.37,0.04-2.75,0-4.12c-0.13-5.51-0.13-5.75-5.57-5.95c-3.72-0.14-6.16-1.14-6.46-5.2c-0.03-0.37-0.1-0.8-0.31-1.07
			c-4.16-5.11-2.58-9.61,1.43-13.88c2.09-2.22,0.19-3.9-1.19-4.99c-2.45-1.94-3.46-6.14-7.78-5.32c-0.23,0.04-0.46,0.23-0.62,0.41
			c-4.16,4.89-8.87,4.77-13.97,1.62c-0.72-0.44-1.64-0.62-2.49-0.77c-2.03-0.35-2.75-1.5-3.04-3.55c-1.46-10.26-0.9-8.17-9.65-8.56
			c-3.84-0.17-5.33,1.54-5.24,4.91c0.13,4.62-1.84,6.6-6.33,8.33c-5.16,1.98-9.06,2.79-13.15-1.57c-0.71-0.76-3.44-0.84-4.17-0.13
			c-2.5,2.43-4.54,5.35-6.7,8.12c-0.1,0.12,0.23,0.72,0.49,0.96c5.34,4.85,4.67,10.15,1.23,15.69c-0.32,0.52-0.51,1.15-0.64,1.75
			c-0.42,2.03-1.67,2.64-3.68,2.9c-8.19,1.07-8.18,1.15-7.81,9.48c0.02,0.5,0.08,1,0.08,1.49c0,2.98,1.75,4.62,4.45,4.33
			c4.9-0.53,6.4,2.27,8.59,6.04c3.18,5.48,3.1,9.66-1.22,14.12c-0.63,0.65-0.69,2.68-0.14,3.46c1.49,2.12,3.46,3.91,5.2,5.86
			c1.43,1.6,3.18,1.85,4.54,0.34c4.39-4.85,9.13-4.33,14.21-1.38c0.52,0.3,1.18,0.43,1.8,0.49c2.15,0.22,2.85,1.48,2.94,3.51
			c0.52,11.3,1.93,8.45,10.25,8.89c2.92,0.15,4.08-1.32,4.37-3.91C388.52,177,388.77,174.4,389.02,171.96z M572.09,606.7
			c0-0.02,0-0.03,0-0.05c17.47,0,34.94,0.04,52.41-0.02c6.18-0.02,7.48-1.41,7.53-7.53c0.06-8.24,0.09-16.47,0.09-24.71
			c0-4.42-1.96-6.46-6.36-6.46c-35.32-0.01-70.64,0-105.96,0.05c-4.43,0.01-6.41,2.04-6.42,6.42c-0.02,8.49-0.02,16.97,0.02,25.46
			c0.02,5.26,1.72,6.85,7.03,6.84C537.65,606.69,554.87,606.7,572.09,606.7z M572.45,623.74c0,0.06,0,0.12,0,0.17
			c-17.6,0-35.2-0.01-52.8,0.01c-4.38,0-6.19,1.2-6.23,4.66c-0.1,9.23-0.11,18.47,0.11,27.71c0.09,4.05,2.22,5.81,6.28,5.81
			c3.74,0,7.52-0.46,11.22-0.11c2.29,0.22,4.92,1.07,6.61,2.54c4.12,3.6,7.76,7.75,11.63,11.64c3.94,3.96,6.49,4.04,10.57,0.26
			c4.21-3.9,8.18-8.07,12.56-11.77c1.62-1.37,4.1-2.4,6.2-2.43c15.35-0.21,30.7-0.09,46.06-0.14c5.76-0.02,7.43-1.72,7.45-7.36
			c0.03-7.99,0.04-15.98,0.03-23.96c-0.01-5.42-1.78-7.06-7.25-7.05C607.4,623.76,589.93,623.74,572.45,623.74z M578.6,397.99
			c30.05,0,59.81,0,89.94,0c0-1.82,0-3.3,0-4.78c0.01-8.62-0.18-17.24,0.13-25.84c0.13-3.57-0.7-4.69-4.41-4.67
			c-27.1,0.17-54.19,0.12-81.29,0.13c-1.44,0-2.88,0-4.35,0c0,4.61,0,8.57,0,12.97c2.15,0,4.11,0,6.08,0
			c21.73-0.06,43.45-0.12,65.18-0.17c1.62,0,3.6-0.46,4.77,0.29c1.65,1.06,3.33,2.86,3.87,4.68c0.72,2.43-0.98,4.32-3.46,4.93
			c-1.42,0.35-2.97,0.26-4.46,0.26c-17.73-0.03-35.46-0.08-53.19-0.12c-6.21-0.01-12.41,0-18.81,0
			C578.6,389.95,578.6,393.77,578.6,397.99z M578.46,432.27c0,9.05-0.07,17.77,0.03,26.48c0.07,5.85,2.42,8.12,8.28,8.14
			c12.36,0.06,24.72,0.04,37.08,0.04c12.24,0.01,24.47,0.06,36.71,0c4.04-0.02,7.51-2.3,7.62-5.78c0.32-9.55,0.11-19.12,0.11-28.89
			C638.34,432.27,608.66,432.27,578.46,432.27z M200.32,240.2c31.29-1.06,56.26-30.33,55.11-62.63
			c-1.35-37.64-32.1-58.73-55.04-58.24c0,4.42,0,8.83,0,13.2c27.54,4.4,39.97,28.05,39.74,47.49c-0.13,10.98-3.75,20.82-10.19,29.58
			c-7.31,9.93-17.31,15.51-29.61,17.03C200.32,231.23,200.32,235.56,200.32,240.2z M189.62,227.53c-6.07-2.49-12.23-4.11-17.42-7.31
			c-16.43-10.14-24.5-30.12-20.82-50.09c3.75-20.37,20.24-35,36.08-37.09c0.86-0.11,2.19-1.37,2.23-2.16
			c0.23-3.94,0.11-7.9,0.11-11.85c-26.41,0.51-55.51,25.84-54.62,62.19c0.8,32.93,28.04,58.61,54.45,58.82
			C189.62,235.72,189.62,231.39,189.62,227.53z M618.78,330.41c-0.5-0.34-0.7-0.61-0.9-0.61c-10.85-0.04-21.69-0.23-32.53,0.02
			c-3.32,0.08-6.23,2.45-6.53,5.79c-0.51,5.63-0.14,11.33-0.14,17c30.13,0,59.77,0,89.87,0c0-4.71,0.02-9.18,0-13.64
			c-0.03-6.42-2.85-9.35-9.3-9.48c-5.49-0.11-10.98-0.02-16.47-0.03c-10.22-0.02-10.22-0.03-14.2,9.22
			c-1.18,2.76-4.23,4.24-7.08,3.41c-3.06-0.89-4.06-3.08-3.66-6.05C618.09,334.11,618.48,332.19,618.78,330.41z M578.55,421.62
			c30.11,0,59.86,0,89.7,0c0-4.46,0-8.62,0-12.88c-30.04,0-59.79,0-89.7,0C578.55,413.12,578.55,417.21,578.55,421.62z
			 M307.21,644.39c-0.22-2.67-2.7-3.69-5.34-4.76c-13.26-5.4-26.54-10.74-39.66-16.44c-4.08-1.77-7.69-4.61-11.53-6.93
			c-2.55-1.54-4.9-1.06-6.63,1.22c-1.8,2.37-1.79,4.89,0.54,7.04c0.91,0.84,1.9,1.65,3,2.21c10.31,5.29,20.49,10.86,31.03,15.67
			c6.78,3.09,14.05,5.14,21.17,7.44C303.75,651.12,307.29,648.67,307.21,644.39z M130.06,302.92c0.64,3.18,1.91,5.23,4.78,5.69
			c2.94,0.47,5.13-1.03,6.07-3.84c0.74-2.24,1.02-4.62,1.64-6.91c3.13-11.62,7.74-22.63,13.74-33.06c1.36-2.36,1.91-4.64-0.04-6.9
			c-2.46-2.85-6.64-2.55-8.75,1.11c-3.04,5.28-6.04,10.68-8.2,16.35C135.85,284.4,133.11,293.72,130.06,302.92z M629.06,305.48
			c-0.44-2.18-0.58-3.3-0.89-4.36c-1.85-6.32-3.34-12.79-5.72-18.91c-3.06-7.86-6.8-15.47-10.37-23.13c-1.18-2.54-3.51-4-6.1-2.81
			c-1.65,0.76-3.16,2.72-3.79,4.47c-0.43,1.21,0.49,3.15,1.26,4.5c6.71,11.79,11.12,24.45,14.55,37.5c0.41,1.55,0.68,3.55,1.76,4.4
			c1.45,1.15,3.78,2.14,5.44,1.78C626.8,308.58,628.03,306.46,629.06,305.48z M494.45,145.44c-0.87-0.84-2.13-2.9-3.94-3.67
			c-10.51-4.49-21.12-8.74-31.76-12.91c-2.74-1.08-5.23-0.25-6.57,2.59c-1.28,2.71-0.09,5.55,3.06,7.01
			c2.7,1.25,5.59,2.09,8.34,3.24c7.69,3.21,15.34,6.5,23.02,9.73C490.62,153.11,494.61,150.68,494.45,145.44z M307.53,134.69
			c0-4.84-3.89-7.1-8-5.59c-5.49,2.01-10.93,4.16-16.33,6.41c-5.28,2.2-10.52,4.51-15.69,6.96c-3.02,1.43-3.54,4.17-2.29,6.98
			c1.13,2.54,3.3,3.78,6.13,2.61c10.81-4.45,21.63-8.87,32.33-13.57C305.46,137.7,306.66,135.59,307.53,134.69z M456.5,650.61
			c1.79-0.46,2.54-0.56,3.23-0.83c10.4-4.14,20.83-8.18,31.14-12.52c3.53-1.49,4.4-4.21,3.01-6.9c-1.58-3.04-4.44-3.89-7.91-2.28
			c-3.05,1.41-5.99,3.1-9.12,4.3c-6.85,2.64-13.78,5.05-20.68,7.55c-2.87,1.04-4.56,3.15-3.53,6.02
			C453.34,647.86,455.36,649.29,456.5,650.61z M189.81,166.24c0-7.73,0-14.97,0-22.45c-12.08,1.85-19.68,8.81-25.17,19.52
			C173.25,164.31,181.37,165.25,189.81,166.24z M225.46,163.26c-1.73-7.68-14.23-18.98-25.08-19.2c0,7.24,0,14.48,0,22.17
			C208.99,165.22,217.21,164.24,225.46,163.26z M200.25,182.94c9.52,2.47,18.45,4.78,28.2,7.3c0.38-5.16,0.79-10.85,1.24-16.93
			c-10.4,1.09-19.86,2.09-29.44,3.1C200.25,178.93,200.25,181.26,200.25,182.94z M200.29,215.89c10.16-1.5,17.19-7.05,23.04-15.13
			c-7.15-4.54-14.9-5.75-23.04-6.49C200.29,201.52,200.29,208.55,200.29,215.89z M189.47,182.88c0-1.67,0-4.19,0-6.67
			c-9.59-0.92-18.83-1.8-28.95-2.77c0.59,6.22,1.12,11.84,1.59,16.85C171.45,187.77,180.14,185.41,189.47,182.88z M189.78,215.84
			c0-7.27,0-14.17,0-21.36c-8.1,0.29-15.39,2.14-22.58,5.98C172.87,208.66,179.62,214.28,189.78,215.84z M147.28,502.28
			c-2.65-8.04-4.82-15.3-7.59-22.32c-0.46-1.16-3.98-2.19-5.4-1.61c-1.63,0.66-3.83,3.55-3.48,4.85c1.93,7.17,4.39,14.22,7.14,21.12
			c0.44,1.09,3.52,1.95,5.03,1.57C144.66,505.45,145.95,503.47,147.28,502.28z M620.81,501.07c0.93-0.98,2.92-2.35,3.85-4.24
			c1.24-2.52,1.61-5.45,2.46-8.18c0.9-2.87,0.61-5.16-2.63-6.24c-3.3-1.1-5.87,0.09-7.07,3.49c-1.03,2.92-1.9,5.91-2.68,8.91
			C613.85,498.24,616.03,500.97,620.81,501.07z"/>
		<path d="M270.28,347.24c0.83-51.71,37.08-96.5,87.2-107.27c49.2-10.57,99.97,14.61,121.63,60.26
			c15.85,33.41,13.55,66.49-1.71,99.33c-10.89,23.43-25.12,44.87-40.56,65.44c-16.7,22.25-34.18,43.92-51.41,65.77
			c-4.64,5.88-5.54,5.77-10.37,0.05c-28.97-34.25-56.26-69.76-79.64-108.12c-10.63-17.44-19.62-35.69-22.98-56.14
			C271.39,360.18,270.98,353.69,270.28,347.24z M379.16,419.19c40.78,0.58,75.01-31.99,75.56-71.88
			c0.56-41.12-31.89-74.57-72.67-75.55c-42.05-1-75.52,32.82-76.29,71.51C304.92,385.63,336.98,418.58,379.16,419.19z"/>
		<path d="M223.26,592.02c0,18.97,0.01,37.94,0,56.91c-0.01,10.87-4.08,15.03-14.8,15.04c-21.22,0.02-42.43,0.02-63.65-0.02
			c-9.54-0.02-13.83-4.1-13.85-13.61c-0.08-39.19-0.07-78.38-0.03-117.57c0.01-7.46,4.33-12.03,11.83-12.07
			c22.96-0.14,45.93-0.14,68.89,0c7.01,0.04,11.64,5.4,11.66,12.9c0.04,19.47,0.01,38.94,0.01,58.41
			C223.29,592.02,223.27,592.02,223.26,592.02z M172.34,600.05c-4.12-4.39-7.94-8.65-11.96-12.71c-2.61-2.63-5.97-2.65-8.38-0.4
			c-2.39,2.23-2.53,5,0.23,7.87c5.36,5.57,10.85,11.03,16.52,16.29c3.08,2.86,5.87,2.68,8.98-0.19c2.01-1.85,3.7-4.05,5.56-6.06
			c7.64-8.23,15.29-16.46,22.95-24.67c1.87-2,3.08-4.52,1.37-6.71c-1.26-1.61-3.84-3-5.82-2.98c-1.71,0.01-3.67,1.9-5.07,3.38
			C188.66,582.38,180.72,591.01,172.34,600.05z M177.03,621.17c0,0.02,0,0.04,0,0.06c-8.72,0-17.44,0-26.16,0
			c-3.99,0-6.28,1.67-6.43,4.64c-0.15,3.08,2.37,5.42,6.24,5.43c17.69,0.06,35.37,0.07,53.06,0.01c3.89-0.01,6.13-2.02,6.18-5.03
			c0.05-3.18-2.3-5.09-6.36-5.1C194.72,621.16,185.88,621.17,177.03,621.17z M176.43,548.16c0,0.04,0,0.08,0,0.12
			c-8.6,0-17.2-0.04-25.8,0.04c-1.3,0.01-3.12,0.13-3.77,0.94c-1.04,1.3-2.11,3.49-1.68,4.82c0.48,1.51,2.49,3.33,4.04,3.54
			c3.79,0.52,7.7,0.2,11.56,0.2c12.96,0,25.93-0.01,38.89-0.02c1,0,2,0.03,2.99-0.02c3.69-0.17,5.84-1.99,5.84-4.89
			c0.01-2.9-2.2-4.72-5.9-4.73C193.88,548.14,185.15,548.16,176.43,548.16z M169.9,647.57c0.06,4.11,3.24,7.23,7.37,7.23
			c3.88,0,6.99-3.19,7-7.16c0.01-4.05-3.33-7.32-7.37-7.22C172.95,640.52,169.85,643.69,169.9,647.57z M176.88,539.49
			c0-0.03,0-0.07,0-0.1c0.87,0,1.75,0.02,2.62,0c3.11-0.08,4.96-1.56,5.05-4.77c0.09-3.13-1.74-4.82-5.25-4.89
			c-1.99-0.04-4.01-0.03-5.98,0.2c-2.75,0.31-4.12,2.47-3.69,4.73c0.33,1.71,2.08,3.36,3.59,4.55
			C174.02,539.82,175.64,539.42,176.88,539.49z"/>
		<path d="M613.09,174.2c0,16.98,0.02,33.96-0.01,50.93c-0.01,7.37-1.9,9.26-9.4,9.27c-27.34,0.03-54.68,0.03-82.02,0.01
			c-5.77,0-8.26-2.41-8.27-8.21c-0.04-34.95-0.03-69.91,0-104.86c0-4.78,2.3-7.23,7.13-7.25c28.34-0.1,56.68-0.12,85.01-0.07
			c5.11,0.01,7.56,2.79,7.57,8.12c0.03,17.35,0.01,34.7,0.01,52.05C613.12,174.2,613.1,174.2,613.09,174.2z M567.75,209.89
			c9.85-0.04,20.66-6.9,27.7-19.53c4.75-8.53,5.56-17.76,2.44-27.13c-0.84-2.53-2.49-4.67-5.56-3.57c-2.76,0.99-4.55,2.9-3.8,6.34
			c0.56,2.54,1.03,5.18,0.97,7.76c-0.32,13.36-11.44,24.66-25.08,25.71c-12.87,0.99-25.07-8.8-27.5-22.05
			c-2.32-12.7,6.11-26.51,18.47-30.18c1.55-0.46,3.18-0.65,4.72-1.14c2.71-0.87,4.22-2.89,3.81-5.67c-0.4-2.69-2.49-3.9-5.16-3.94
			c-0.99-0.01-1.99,0.12-2.97,0.29c-17.46,2.98-30.87,20.36-29.53,38.27C527.76,195.03,543.23,209.76,567.75,209.89z M559.9,170.32
			c-1.45-1.58-2.9-3.45-4.63-4.97c-2.23-1.96-4.94-2.06-7.19-0.21c-2.15,1.77-2.73,4.43-0.81,6.65c3.17,3.66,6.59,7.12,10.09,10.47
			c2.13,2.05,4.63,1.59,6.8-0.11c1.36-1.07,2.53-2.4,3.71-3.68c7.15-7.82,14.26-15.66,21.41-23.48c4.29-4.69,8.68-9.29,12.88-14.05
			c2.49-2.82,2.34-5.85-0.04-7.95c-2.3-2.04-5.51-1.85-8.08,0.51c-0.73,0.67-1.41,1.41-2.08,2.15
			C581.32,147.16,570.68,158.67,559.9,170.32z"/>
		<path d="M125.72,329.5c-0.37,2.06-0.66,3.39-0.85,4.74c-0.43,3.2,0.94,5.51,3.99,6.28c2.95,0.74,6.08-0.31,6.68-3.3
			c1.51-7.58,6.5-8.18,12.79-7.85c6.97,0.37,13.98,0.02,20.97,0.14c7.65,0.12,12.09,4.57,12.1,12.19
			c0.02,34.34,0.01,68.68-0.05,103.02c-0.01,8.81-4.18,13.37-12.95,13.45c-22.72,0.2-45.45,0.19-68.18,0.06
			c-7.25-0.04-11.72-5.16-11.8-13.18c-0.14-13.23-0.08-26.47-0.08-39.71c-0.01-21.23,0-42.45,0.01-63.68
			c0-7.51,4.24-12.03,11.64-12.14C108.46,329.41,116.94,329.5,125.72,329.5z M104.76,397.11c-0.03,0-0.06,0-0.1,0
			c0,12.98-0.03,25.97,0.02,38.95c0.02,5.19,0.97,6.02,6.22,6.01c16.23-0.01,32.46-0.02,48.69-0.03c4.46,0,5.92-1.19,5.93-5.26
			c0.04-26.22,0.05-52.43,0.01-78.65c-0.01-4.38-1.29-5.61-5.59-5.61c-16.6,0-33.21,0.04-49.81,0.09c-4.64,0.02-5.36,0.77-5.36,5.54
			C104.75,371.14,104.76,384.13,104.76,397.11z"/>
		<path d="M587.44,550.13c-12.35,0-24.71,0.09-37.06-0.06c-3.54-0.04-6.24,1.14-8.63,3.59c-2,2.05-4.11,4.01-6.23,5.94
			c-4,3.63-5.95,3.61-9.82-0.28c-4.14-4.15-8.17-8.41-12.25-12.61c-3.82-3.94-7.72-7.81-11.46-11.82c-3.84-4.13-3.7-7.08,0.22-10.93
			c8.02-7.85,16.03-15.72,24.05-23.56c4.18-4.08,7.12-4.39,10.61,0.28c6.6,8.83,14.8,11.57,25.78,11.08
			c20.17-0.9,40.41-0.24,60.63-0.24c7.1,0,8.84,1.75,8.82,8.82c-0.02,7.74-0.01,15.47-0.07,23.21c-0.05,5.25-1.47,6.6-6.78,6.6
			c-12.6,0.01-25.2,0-37.8,0C587.44,550.15,587.44,550.14,587.44,550.13z M551.55,530.4c-0.04-8.12-7.22-15.26-15.37-15.27
			c-8.12-0.02-15.01,6.93-14.96,15.09c0.05,8.24,6.72,14.57,15.33,14.56C545.09,544.76,551.59,538.53,551.55,530.4z M583.87,529.18
			c0,0.06,0,0.13,0,0.19c-4.74,0-9.47,0-14.21,0c-0.37,0-0.75-0.01-1.12-0.02c-3.08-0.02-5.51,0.93-5.78,4.43
			c-0.24,3.11,2.16,5.46,5.72,5.5c10.1,0.11,20.19,0.11,30.29,0.11c3.75,0,6.04-1.99,6.03-5.11c-0.01-3.31-2.05-5.07-5.97-5.09
			C593.84,529.17,588.85,529.18,583.87,529.18z"/>
		<path d="M380.61,692.61c-21.54,0.06-38.24-16.78-38.25-38.58c-0.01-21.97,16.63-38.66,38.59-38.74
			c21.67-0.07,38.61,16.72,38.62,38.27C419.58,675.3,402.37,692.55,380.61,692.61z M378.76,666.45c-2.89-3.12-5.53-6.08-8.28-8.93
			c-2.65-2.73-5.85-2.94-8.26-0.7c-2.52,2.35-2.57,5.2,0.24,8.17c3.77,3.97,7.67,7.84,11.67,11.58c4,3.73,7.17,3.56,10.96-0.47
			c5.89-6.26,11.72-12.57,17.53-18.91c2.89-3.15,3.07-6.23,0.67-8.57c-2.55-2.49-5.75-2.2-8.84,0.9c-1.76,1.76-3.4,3.64-5.09,5.47
			C385.9,658.73,382.45,662.47,378.76,666.45z"/>
		<path d="M385.87,572.48c-31.2-0.66-56.68-0.73-81.91-4.63c-6.25-0.97-12.42-2.65-18.47-4.51c-1.78-0.55-4.37-3.09-4.17-4.33
			c0.29-1.79,2.56-4.25,4.37-4.64c10.2-2.22,20.46-4.61,30.82-5.62c15.25-1.49,30.62-1.83,45.93-2.74c3.14-0.19,5.43,0.64,7.24,3.45
			c1.6,2.49,3.65,4.77,5.83,6.79c3.32,3.06,7.13,3.03,10.38-0.1c2.32-2.24,4.08-5.03,6.34-7.34c1.12-1.14,2.79-2.51,4.2-2.5
			c25.21,0.23,50.38,1.29,75.11,6.78c2.49,0.55,4.94,1.75,7.11,3.12c2.4,1.53,2.42,3.81,0.13,5.53c-1.55,1.16-3.43,2.24-5.3,2.57
			c-11.77,2.06-23.52,4.67-35.4,5.62C418.8,571.46,399.44,571.86,385.87,572.48z"/>
		<path d="M389.02,171.96c-0.25,2.44-0.5,5.04-0.79,7.63c-0.29,2.59-1.45,4.07-4.37,3.91c-8.32-0.44-9.74,2.41-10.25-8.89
			c-0.09-2.03-0.79-3.29-2.94-3.51c-0.61-0.06-1.28-0.19-1.8-0.49c-5.08-2.95-9.82-3.46-14.21,1.38c-1.37,1.51-3.11,1.26-4.54-0.34
			c-1.74-1.95-3.72-3.73-5.2-5.86c-0.55-0.78-0.48-2.81,0.14-3.46c4.32-4.47,4.4-8.64,1.22-14.12c-2.19-3.77-3.69-6.57-8.59-6.04
			c-2.7,0.29-4.45-1.35-4.45-4.33c0-0.5-0.06-1-0.08-1.49c-0.37-8.33-0.38-8.41,7.81-9.48c2.01-0.26,3.26-0.88,3.68-2.9
			c0.13-0.6,0.32-1.23,0.64-1.75c3.45-5.54,4.12-10.84-1.23-15.69c-0.26-0.24-0.59-0.84-0.49-0.96c2.16-2.77,4.2-5.68,6.7-8.12
			c0.73-0.71,3.46-0.63,4.17,0.13c4.09,4.36,7.99,3.55,13.15,1.57c4.49-1.72,6.46-3.7,6.33-8.33c-0.09-3.37,1.4-5.08,5.24-4.91
			c8.75,0.39,8.19-1.7,9.65,8.56c0.29,2.05,1.01,3.2,3.04,3.55c0.85,0.15,1.77,0.32,2.49,0.77c5.11,3.14,9.82,3.27,13.97-1.62
			c0.16-0.18,0.39-0.37,0.62-0.41c4.32-0.82,5.33,3.38,7.78,5.32c1.38,1.09,3.28,2.76,1.19,4.99c-4.01,4.27-5.59,8.77-1.43,13.88
			c0.22,0.27,0.28,0.7,0.31,1.07c0.3,4.06,2.75,5.06,6.46,5.2c5.44,0.21,5.44,0.44,5.57,5.95c0.03,1.37-0.02,2.75,0,4.12
			c0.05,3.39-1.65,5.28-4.99,5.08c-4.24-0.26-5.84,1.77-7.82,5.45c-2.97,5.51-3.02,9.65,1.51,13.91c1.67,1.57,1.38,3.29-0.25,4.83
			c-0.36,0.34-0.62,0.78-0.95,1.16c-5.84,6.65-6.04,6.74-12.79,1.21c-1.74-1.43-3.01-1.44-4.96-0.53
			C395.56,169.79,392.32,170.75,389.02,171.96z M357.09,133.89c-0.2,13.81,10.28,24.49,24.13,24.6
			c13.09,0.1,23.98-10.48,24.15-23.47c0.18-13.62-10.29-24.73-23.51-24.95C367.79,109.81,357.29,119.92,357.09,133.89z"/>
		<path d="M572.09,606.7c-17.22,0-34.44-0.01-51.66,0c-5.31,0-7.01-1.59-7.03-6.84c-0.04-8.49-0.04-16.97-0.02-25.46
			c0.01-4.37,1.99-6.41,6.42-6.42c35.32-0.05,70.64-0.06,105.96-0.05c4.4,0,6.36,2.04,6.36,6.46c0,8.24-0.03,16.47-0.09,24.71
			c-0.04,6.12-1.35,7.51-7.53,7.53c-17.47,0.06-34.94,0.02-52.41,0.02C572.09,606.67,572.09,606.68,572.09,606.7z M593.4,585.96
			c0,0.01,0,0.02,0,0.02c-6.48,0-12.96-0.12-19.44,0.09c-1.55,0.05-3.57,0.77-4.47,1.9c-0.88,1.11-1.16,3.3-0.74,4.72
			c0.82,2.78,3.35,3.32,6.04,3.31c12.83-0.04,25.67-0.01,38.5-0.04c3.82-0.01,5.79-1.68,5.83-4.78c0.04-3.17-2.18-5.18-5.9-5.21
			C606.61,585.93,600.01,585.96,593.4,585.96z M557.07,587.98c0.05-5.3-3.6-9.39-8.47-9.48c-4.43-0.08-8.76,3.99-8.88,8.36
			c-0.14,4.93,3.85,9.28,8.64,9.43C553.03,596.44,557.03,592.62,557.07,587.98z"/>
		<path d="M572.45,623.74c17.47,0,34.95,0.02,52.42-0.01c5.47-0.01,7.24,1.64,7.25,7.05c0.01,7.99,0,15.98-0.03,23.96
			c-0.02,5.64-1.69,7.34-7.45,7.36c-15.35,0.05-30.71-0.07-46.06,0.14c-2.1,0.03-4.57,1.06-6.2,2.43
			c-4.38,3.69-8.35,7.86-12.56,11.77c-4.07,3.78-6.62,3.69-10.57-0.26c-3.87-3.89-7.51-8.04-11.63-11.64
			c-1.69-1.47-4.32-2.32-6.61-2.54c-3.7-0.36-7.48,0.11-11.22,0.11c-4.06-0.01-6.19-1.76-6.28-5.81
			c-0.21-9.23-0.21-18.47-0.11-27.71c0.04-3.46,1.86-4.66,6.23-4.66c17.6-0.01,35.2-0.01,52.8-0.01
			C572.45,623.85,572.45,623.8,572.45,623.74z M557.68,660.16c1.13,0.81,3.17,2.45,5.4,3.8c1.07,0.65,2.57,1.2,3.69,0.95
			c0.6-0.14,1.14-2.07,1.1-3.18c-0.09-2.57,0.59-4.32,2.78-6.02c1.54-1.2,3.09-3.87,2.83-5.62c-0.86-5.77-2.32-11.48-3.97-17.09
			c-1.01-3.42-4.96-4.09-7.97-2.24c-2.31,1.42-4.95,2.52-7.59,3.16c-3,0.73-6.18,0.75-9.27,1.15c-3.87,0.51-5.71,2.94-5.02,6.76
			c0.42,2.32,1.15,4.59,1.67,6.9C543.99,660.55,543.98,660.55,557.68,660.16z M598.51,651.31c0-0.03,0-0.06,0-0.09
			c5.23,0,10.45-0.02,15.68,0.01c3.16,0.02,5.4-1.11,5.59-4.57c0.16-2.82-2.02-4.77-5.46-4.78c-10.45-0.04-20.9,0.05-31.36,0.04
			c-3.02,0-5.14,1.04-5.33,4.34c-0.17,3.01,2.02,4.99,5.56,5.04C588.31,651.36,593.41,651.31,598.51,651.31z"/>
		<path d="M578.6,397.99c0-4.21,0-8.04,0-12.32c6.4,0,12.61-0.01,18.81,0c17.73,0.04,35.46,0.09,53.19,0.12
			c1.49,0,3.04,0.09,4.46-0.26c2.48-0.61,4.18-2.5,3.46-4.93c-0.54-1.82-2.22-3.62-3.87-4.68c-1.18-0.75-3.15-0.29-4.77-0.29
			c-21.73,0.05-43.45,0.11-65.18,0.17c-1.97,0.01-3.93,0-6.08,0c0-4.4,0-8.36,0-12.97c1.47,0,2.91,0,4.35,0
			c27.1-0.02,54.19,0.03,81.29-0.13c3.71-0.02,4.54,1.09,4.41,4.67c-0.31,8.6-0.12,17.23-0.13,25.84c0,1.48,0,2.96,0,4.78
			C638.41,397.99,608.65,397.99,578.6,397.99z"/>
		<path d="M578.46,432.27c30.2,0,59.88,0,89.83,0c0,9.77,0.21,19.34-0.11,28.89c-0.12,3.48-3.59,5.76-7.62,5.78
			c-12.24,0.06-24.47,0.01-36.71,0c-12.36-0.01-24.72,0.01-37.08-0.04c-5.87-0.03-8.21-2.29-8.28-8.14
			C578.38,450.04,578.46,441.32,578.46,432.27z M623.84,444.53c0,0.02,0,0.04,0,0.06c-9.72,0-19.44-0.15-29.14,0.15
			c-1.66,0.05-4.05,1.69-4.68,3.2c-0.59,1.4,0.16,4.19,1.33,5.28c1.22,1.13,3.65,1.29,5.56,1.3c18.31,0.08,36.62,0.04,54.93,0.02
			c4.06-0.01,6.52-1.92,6.58-5.03c0.05-3.03-2.42-4.95-6.55-4.96C642.53,444.51,633.18,444.53,623.84,444.53z"/>
		<path d="M200.32,240.2c0-4.64,0-8.97,0-13.57c12.31-1.52,22.3-7.1,29.61-17.03c6.44-8.76,10.06-18.61,10.19-29.58
			c0.24-19.44-12.19-43.1-39.74-47.49c0-4.36,0-8.78,0-13.2c22.94-0.49,53.7,20.61,55.04,58.24
			C256.59,209.87,231.62,239.14,200.32,240.2z"/>
		<path d="M189.62,227.53c0,3.86,0,8.19,0,12.52c-26.41-0.2-53.65-25.89-54.45-58.82c-0.89-36.36,28.21-61.68,54.62-62.19
			c0,3.95,0.13,7.91-0.11,11.85c-0.05,0.79-1.37,2.05-2.23,2.16c-15.84,2.09-32.33,16.72-36.08,37.09
			c-3.68,19.97,4.4,39.95,20.82,50.09C177.38,223.42,183.54,225.04,189.62,227.53z"/>
		<path d="M618.78,330.41c-0.3,1.78-0.69,3.7-0.95,5.63c-0.4,2.97,0.6,5.16,3.66,6.05c2.85,0.83,5.9-0.65,7.08-3.41
			c3.97-9.24,3.97-9.24,14.2-9.22c5.49,0.01,10.98-0.08,16.47,0.03c6.46,0.13,9.27,3.06,9.3,9.48c0.02,4.46,0,8.93,0,13.64
			c-30.1,0-59.75,0-89.87,0c0-5.67-0.37-11.38,0.14-17c0.3-3.33,3.21-5.71,6.53-5.79c10.84-0.25,21.69-0.06,32.53-0.02
			C618.08,329.81,618.28,330.07,618.78,330.41z"/>
		<path d="M578.55,421.62c0-4.41,0-8.5,0-12.88c29.9,0,59.65,0,89.7,0c0,4.26,0,8.43,0,12.88
			C638.41,421.62,608.66,421.62,578.55,421.62z"/>
		<path d="M307.21,644.39c0.08,4.28-3.46,6.73-7.43,5.44c-7.12-2.3-14.39-4.35-21.17-7.44c-10.54-4.8-20.72-10.37-31.03-15.67
			c-1.09-0.56-2.09-1.38-3-2.21c-2.33-2.15-2.34-4.67-0.54-7.04c1.73-2.28,4.08-2.76,6.63-1.22c3.84,2.32,7.45,5.16,11.53,6.93
			c13.13,5.7,26.41,11.04,39.66,16.44C304.51,640.7,306.99,641.72,307.21,644.39z"/>
		<path d="M130.06,302.92c3.04-9.2,5.79-18.52,9.24-27.56c2.16-5.67,5.16-11.07,8.2-16.35c2.11-3.66,6.29-3.96,8.75-1.11
			c1.95,2.26,1.39,4.54,0.04,6.9c-5.99,10.43-10.6,21.44-13.74,33.06c-0.62,2.28-0.89,4.67-1.64,6.91
			c-0.93,2.81-3.12,4.31-6.07,3.84C131.97,308.15,130.7,306.09,130.06,302.92z"/>
		<path d="M629.06,305.48c-1.02,0.98-2.26,3.1-3.87,3.45c-1.65,0.35-3.99-0.64-5.44-1.78c-1.08-0.85-1.36-2.85-1.76-4.4
			c-3.44-13.05-7.84-25.71-14.55-37.5c-0.77-1.35-1.69-3.29-1.26-4.5c0.63-1.76,2.14-3.72,3.79-4.47c2.6-1.19,4.93,0.27,6.1,2.81
			c3.56,7.66,7.3,15.27,10.37,23.13c2.38,6.12,3.87,12.59,5.72,18.91C628.48,302.18,628.62,303.3,629.06,305.48z"/>
		<path d="M494.45,145.44c0.16,5.25-3.83,7.67-7.85,5.99c-7.68-3.22-15.33-6.52-23.02-9.73c-2.75-1.15-5.64-1.98-8.34-3.24
			c-3.16-1.46-4.34-4.3-3.06-7.01c1.34-2.84,3.83-3.67,6.57-2.59c10.64,4.18,21.25,8.43,31.76,12.91
			C492.32,142.54,493.58,144.6,494.45,145.44z"/>
		<path d="M307.53,134.69c-0.87,0.89-2.07,3.01-3.86,3.79c-10.7,4.7-21.52,9.12-32.33,13.57c-2.82,1.16-5-0.07-6.13-2.61
			c-1.24-2.81-0.72-5.55,2.29-6.98c5.17-2.45,10.41-4.76,15.69-6.96c5.4-2.25,10.84-4.4,16.33-6.41
			C303.65,127.6,307.54,129.85,307.53,134.69z"/>
		<path d="M456.5,650.61c-1.14-1.32-3.17-2.75-3.86-4.66c-1.03-2.87,0.66-4.98,3.53-6.02c6.9-2.5,13.83-4.91,20.68-7.55
			c3.13-1.21,6.07-2.89,9.12-4.3c3.47-1.61,6.33-0.76,7.91,2.28c1.4,2.68,0.52,5.41-3.01,6.9c-10.31,4.34-20.75,8.38-31.14,12.52
			C459.05,650.05,458.3,650.15,456.5,650.61z"/>
		<path d="M189.81,166.24c-8.44-0.99-16.57-1.93-25.17-2.94c5.5-10.71,13.1-17.67,25.17-19.52
			C189.81,151.27,189.81,158.51,189.81,166.24z"/>
		<path d="M225.46,163.26c-8.25,0.98-16.47,1.95-25.08,2.97c0-7.69,0-14.93,0-22.17C211.24,144.29,223.73,155.59,225.46,163.26z"/>
		<path d="M200.25,182.94c0-1.67,0-4.01,0-6.53c9.58-1.01,19.03-2,29.44-3.1c-0.44,6.07-0.86,11.77-1.24,16.93
			C218.7,187.72,209.78,185.4,200.25,182.94z"/>
		<path d="M200.29,215.89c0-7.35,0-14.37,0-21.62c8.14,0.74,15.89,1.95,23.04,6.49C217.49,208.84,210.45,214.4,200.29,215.89z"/>
		<path d="M189.47,182.88c-9.33,2.53-18.02,4.88-27.36,7.42c-0.47-5.01-1-10.63-1.59-16.85c10.12,0.97,19.36,1.85,28.95,2.77
			C189.47,178.69,189.47,181.21,189.47,182.88z"/>
		<path d="M189.78,215.84c-10.16-1.56-16.91-7.18-22.58-15.37c7.18-3.84,14.48-5.7,22.58-5.98
			C189.78,201.66,189.78,208.57,189.78,215.84z"/>
		<path d="M147.28,502.28c-1.33,1.19-2.62,3.17-4.3,3.6c-1.51,0.39-4.6-0.47-5.03-1.57c-2.76-6.9-5.21-13.95-7.14-21.12
			c-0.35-1.3,1.85-4.18,3.48-4.85c1.43-0.58,4.94,0.45,5.4,1.61C142.46,486.98,144.62,494.24,147.28,502.28z"/>
		<path d="M620.81,501.07c-4.78-0.11-6.95-2.83-6.06-6.26c0.78-3,1.65-5.99,2.68-8.91c1.2-3.39,3.77-4.58,7.07-3.49
			c3.24,1.08,3.52,3.37,2.63,6.24c-0.85,2.72-1.22,5.66-2.46,8.18C623.73,498.72,621.74,500.09,620.81,501.07z"/>
		<path fill="#FFFFFF" d="M379.16,419.19c-42.19-0.6-74.25-33.56-73.41-75.91c0.77-38.69,34.24-72.52,76.29-71.51
			c40.78,0.97,73.23,34.42,72.67,75.55C454.18,387.2,419.94,419.77,379.16,419.19z M380.41,307.58c-0.11,0.36-0.23,0.71-0.34,1.07
			c-14.07-0.11-26.44,6.97-32.63,19.39c-6.44,12.93-6.08,25.92,2.08,38.02c10.88,16.13,32.87,20.78,49.47,10.87
			c17.25-10.29,23.16-31.45,13.69-49.57c-1.15-2.2-0.99-3.39,0.7-5.06c3.81-3.77,7.49-7.69,11.06-11.69
			c1.37-1.54,2.8-3.35,3.31-5.27c0.83-3.15-0.42-5.91-3.38-7.6c-2.9-1.66-5.76-1.66-8.25,0.76c-4.74,4.61-9.44,9.26-14.05,13.99
			c-1.31,1.35-2.17,1.53-4.09,0.79C392.24,311.1,386.28,309.45,380.41,307.58z"/>
		<path fill="#FFFFFF" d="M172.34,600.05c8.38-9.03,16.32-17.67,24.38-26.18c1.4-1.48,3.36-3.37,5.07-3.38
			c1.98-0.02,4.56,1.37,5.82,2.98c1.72,2.19,0.5,4.71-1.37,6.71c-7.67,8.21-15.31,16.44-22.95,24.67c-1.87,2.01-3.55,4.21-5.56,6.06
			c-3.11,2.86-5.9,3.05-8.98,0.19c-5.66-5.26-11.16-10.71-16.52-16.29c-2.76-2.88-2.62-5.65-0.23-7.87c2.41-2.25,5.76-2.23,8.38,0.4
			C164.4,591.4,168.22,595.65,172.34,600.05z"/>
		<path fill="#FFFFFF" d="M177.03,621.17c8.84,0,17.69-0.02,26.53,0.01c4.07,0.01,6.41,1.93,6.36,5.1
			c-0.05,3.02-2.29,5.02-6.18,5.03c-17.69,0.06-35.37,0.05-53.06-0.01c-3.88-0.01-6.4-2.36-6.24-5.43c0.15-2.97,2.44-4.64,6.43-4.64
			c8.72-0.01,17.44,0,26.16,0C177.03,621.21,177.03,621.19,177.03,621.17z"/>
		<path fill="#FFFFFF" d="M176.43,548.16c8.73,0,17.45-0.02,26.18,0.01c3.69,0.01,5.9,1.83,5.9,4.73c-0.01,2.9-2.15,4.72-5.84,4.89
			c-1,0.05-1.99,0.01-2.99,0.02c-12.96,0.01-25.93,0.02-38.89,0.02c-3.86,0-7.77,0.32-11.56-0.2c-1.55-0.21-3.56-2.03-4.04-3.54
			c-0.43-1.34,0.64-3.52,1.68-4.82c0.65-0.81,2.47-0.93,3.77-0.94c8.6-0.08,17.2-0.04,25.8-0.04
			C176.43,548.24,176.43,548.2,176.43,548.16z"/>
		<path fill="#FFFFFF" d="M169.9,647.57c-0.05-3.88,3.05-7.05,7.01-7.15c4.04-0.1,7.38,3.17,7.37,7.22c-0.01,3.98-3.13,7.16-7,7.16
			C173.14,654.81,169.96,651.68,169.9,647.57z"/>
		<path fill="#FFFFFF" d="M176.88,539.49c-1.25-0.07-2.86,0.33-3.66-0.3c-1.5-1.19-3.26-2.84-3.59-4.55
			c-0.43-2.26,0.94-4.42,3.69-4.73c1.98-0.22,3.99-0.23,5.98-0.2c3.51,0.07,5.34,1.76,5.25,4.89c-0.09,3.21-1.95,4.69-5.05,4.77
			c-0.87,0.02-1.75,0-2.62,0C176.89,539.42,176.88,539.45,176.88,539.49z"/>
		<path fill="#FFFFFF" d="M567.75,209.89c-24.51-0.13-39.99-14.86-41.48-34.85c-1.34-17.9,12.07-35.28,29.53-38.27
			c0.98-0.17,1.98-0.3,2.97-0.29c2.67,0.04,4.76,1.25,5.16,3.94c0.41,2.78-1.1,4.8-3.81,5.67c-1.54,0.49-3.17,0.68-4.72,1.14
			c-12.36,3.68-20.79,17.49-18.47,30.18c2.43,13.25,14.63,23.04,27.5,22.05c13.64-1.05,24.76-12.36,25.08-25.71
			c0.06-2.58-0.42-5.22-0.97-7.76c-0.75-3.44,1.03-5.35,3.8-6.34c3.07-1.1,4.71,1.04,5.56,3.57c3.12,9.37,2.31,18.61-2.44,27.13
			C588.41,202.99,577.59,209.85,567.75,209.89z"/>
		<path fill="#FFFFFF" d="M559.9,170.32c10.77-11.65,21.41-23.17,32.06-34.68c0.68-0.73,1.35-1.47,2.08-2.15
			c2.57-2.36,5.78-2.55,8.08-0.51c2.37,2.1,2.52,5.13,0.04,7.95c-4.2,4.76-8.6,9.36-12.88,14.05c-7.14,7.82-14.26,15.66-21.41,23.48
			c-1.18,1.29-2.35,2.61-3.71,3.68c-2.17,1.7-4.67,2.16-6.8,0.11c-3.5-3.35-6.93-6.81-10.09-10.47c-1.92-2.22-1.34-4.88,0.81-6.65
			c2.25-1.85,4.95-1.75,7.19,0.21C557.01,166.88,558.45,168.74,559.9,170.32z"/>
		<path fill="#FFFFFF" d="M104.76,397.11c0-12.98-0.01-25.97,0.01-38.95c0.01-4.77,0.72-5.52,5.36-5.54
			c16.6-0.06,33.21-0.09,49.81-0.09c4.29,0,5.58,1.23,5.59,5.61c0.04,26.22,0.03,52.43-0.01,78.65c-0.01,4.07-1.46,5.26-5.93,5.26
			c-16.23,0.01-32.46,0.01-48.69,0.03c-5.25,0-6.2-0.82-6.22-6.01c-0.05-12.98-0.02-25.97-0.02-38.95
			C104.69,397.11,104.73,397.11,104.76,397.11z M156.34,414.79c-5.69,0-10.98,0-16.35,0c0,5.68,0,11.19,0,16.73
			c5.65,0,10.91,0,16.35,0C156.34,425.89,156.34,420.57,156.34,414.79z M130.25,431.52c0-5.71,0-11.03,0-16.67
			c-5.55,0-10.94,0-16.45,0c0,5.58,0,11,0,16.67C119.35,431.52,124.64,431.52,130.25,431.52z M139.93,362.86c0,5.5,0,10.65,0,15.87
			c5.6,0,10.88,0,16.4,0c0-5.38,0-10.52,0-15.87C150.85,362.86,145.54,362.86,139.93,362.86z M139.9,404.59c5.62,0,10.99,0,16.51,0
			c0-5.46,0-10.53,0-15.79c-5.55,0-11.03,0-16.51,0C139.9,394.37,139.9,399.52,139.9,404.59z M113.8,388.58c0,5.66,0,10.84,0,16.14
			c5.64,0,11.03,0,16.48,0c0-5.48,0-10.68,0-16.14C124.83,388.58,119.54,388.58,113.8,388.58z M130.43,362.95
			c-5.76,0-11.15,0-16.55,0c0,5.42,0,10.56,0,15.82c5.67,0,10.94,0,16.31,0c0.1-0.83,0.23-1.43,0.23-2.04
			C130.44,372.26,130.43,367.79,130.43,362.95z"/>
		<path fill="#FFFFFF" d="M551.55,530.4c0.04,8.13-6.46,14.36-15,14.37c-8.61,0.01-15.28-6.33-15.33-14.56
			c-0.05-8.15,6.84-15.1,14.96-15.09C544.33,515.14,551.51,522.28,551.55,530.4z M536.25,535.64c2.85,0.1,5.5-2.4,5.63-5.31
			c0.13-3.09-2.6-5.66-6.04-5.7c-2.58-0.03-5.08,2.64-5.08,5.41C530.76,532.78,533.47,535.54,536.25,535.64z"/>
		<path fill="#FFFFFF" d="M583.87,529.18c4.98,0,9.97-0.02,14.95,0.01c3.93,0.02,5.96,1.78,5.97,5.09c0.01,3.12-2.28,5.11-6.03,5.11
			c-10.1,0-20.19,0-30.29-0.11c-3.56-0.04-5.96-2.39-5.72-5.5c0.27-3.5,2.7-4.45,5.78-4.43c0.37,0,0.75,0.02,1.12,0.02
			c4.74,0,9.47,0,14.21,0C583.87,529.31,583.87,529.25,583.87,529.18z"/>
		<path fill="#FFFFFF" d="M378.76,666.45c3.68-3.98,7.14-7.72,10.6-11.46c1.69-1.83,3.33-3.71,5.09-5.47c3.1-3.1,6.29-3.39,8.84-0.9
			c2.4,2.34,2.21,5.42-0.67,8.57c-5.81,6.33-11.64,12.65-17.53,18.91c-3.79,4.03-6.96,4.2-10.96,0.47c-4-3.74-7.9-7.6-11.67-11.58
			c-2.81-2.96-2.76-5.81-0.24-8.17c2.4-2.24,5.61-2.04,8.26,0.7C373.24,660.37,375.88,663.33,378.76,666.45z"/>
		<path fill="#FFFFFF" d="M357.09,133.89c0.2-13.96,10.7-24.07,24.76-23.83c13.23,0.23,23.7,11.34,23.51,24.95
			c-0.17,12.99-11.06,23.58-24.15,23.47C367.36,158.37,356.89,147.69,357.09,133.89z"/>
		<path fill="#FFFFFF" d="M593.4,585.96c6.6,0,13.21-0.03,19.81,0.01c3.73,0.02,5.94,2.04,5.9,5.21c-0.04,3.09-2.01,4.77-5.83,4.78
			c-12.83,0.03-25.67,0.01-38.5,0.04c-2.68,0.01-5.21-0.53-6.04-3.31c-0.42-1.43-0.15-3.62,0.74-4.72c0.9-1.13,2.92-1.85,4.47-1.9
			c6.47-0.2,12.96-0.09,19.44-0.09C593.4,585.97,593.4,585.97,593.4,585.96z"/>
		<path fill="#FFFFFF" d="M557.07,587.98c-0.04,4.65-4.04,8.46-8.71,8.31c-4.79-0.15-8.78-4.5-8.64-9.43
			c0.12-4.37,4.45-8.45,8.88-8.36C553.47,578.59,557.12,582.68,557.07,587.98z"/>
		<path fill="#FFFFFF" d="M557.68,660.16c-13.7,0.39-13.69,0.39-16.35-11.43c-0.52-2.31-1.25-4.58-1.67-6.9
			c-0.7-3.83,1.15-6.26,5.02-6.76c3.09-0.4,6.26-0.42,9.27-1.15c2.64-0.64,5.28-1.73,7.59-3.16c3.01-1.85,6.96-1.18,7.97,2.24
			c1.66,5.61,3.12,11.32,3.97,17.09c0.26,1.75-1.29,4.42-2.83,5.62c-2.19,1.71-2.87,3.46-2.78,6.02c0.04,1.1-0.5,3.04-1.1,3.18
			c-1.11,0.25-2.61-0.29-3.69-0.95C560.85,662.61,558.81,660.97,557.68,660.16z M562.85,641.17c-2.41,0.58-4.55,1.17-6.73,1.62
			c-2.28,0.47-4.6,0.8-7.26,1.25c0.66,3.01,1.26,5.75,1.91,8.69c2.07-0.15,3.79-0.27,5.51-0.39
			C564.86,651.74,566.54,653.4,562.85,641.17z"/>
		<path fill="#FFFFFF" d="M598.51,651.31c-5.1,0-10.2,0.05-15.3-0.02c-3.55-0.04-5.74-2.03-5.56-5.04c0.19-3.31,2.3-4.35,5.33-4.34
			c10.45,0.01,20.9-0.07,31.36-0.04c3.44,0.01,5.61,1.96,5.46,4.78c-0.19,3.47-2.43,4.59-5.59,4.57
			c-5.23-0.03-10.45-0.01-15.68-0.01C598.51,651.25,598.51,651.28,598.51,651.31z"/>
		<path fill="#FFFFFF" d="M623.84,444.53c9.34,0,18.69-0.02,28.03,0.01c4.14,0.01,6.6,1.92,6.55,4.96
			c-0.05,3.11-2.51,5.03-6.58,5.03c-18.31,0.02-36.62,0.06-54.93-0.02c-1.9-0.01-4.34-0.17-5.56-1.3c-1.17-1.09-1.92-3.88-1.33-5.28
			c0.63-1.5,3.01-3.14,4.68-3.2c9.71-0.3,19.43-0.15,29.14-0.15C623.84,444.57,623.84,444.55,623.84,444.53z"/>
		<path d="M380.41,307.58c5.87,1.86,11.83,3.51,17.57,5.71c1.93,0.73,2.78,0.56,4.09-0.79c4.61-4.74,9.31-9.39,14.05-13.99
			c2.48-2.41,5.35-2.42,8.25-0.76c2.96,1.69,4.22,4.45,3.38,7.6c-0.51,1.92-1.94,3.73-3.31,5.27c-3.57,4-7.24,7.92-11.06,11.69
			c-1.7,1.67-1.85,2.86-0.7,5.06c9.48,18.12,3.56,39.28-13.69,49.57c-16.6,9.91-38.6,5.26-49.47-10.87
			c-8.17-12.11-8.52-25.09-2.08-38.02c6.18-12.42,18.56-19.5,32.63-19.39C380.19,308.3,380.3,307.94,380.41,307.58z"/>
		<path d="M156.34,414.79c0,5.78,0,11.1,0,16.73c-5.44,0-10.7,0-16.35,0c0-5.54,0-11.05,0-16.73
			C145.36,414.79,150.65,414.79,156.34,414.79z"/>
		<path d="M130.25,431.52c-5.61,0-10.9,0-16.45,0c0-5.67,0-11.09,0-16.67c5.51,0,10.9,0,16.45,0
			C130.25,420.49,130.25,425.81,130.25,431.52z"/>
		<path d="M139.93,362.86c5.61,0,10.92,0,16.4,0c0,5.34,0,10.49,0,15.87c-5.52,0-10.81,0-16.4,0
			C139.93,373.52,139.93,368.36,139.93,362.86z"/>
		<path d="M139.9,404.59c0-5.07,0-10.23,0-15.79c5.47,0,10.96,0,16.51,0c0,5.25,0,10.32,0,15.79
			C150.89,404.59,145.52,404.59,139.9,404.59z"/>
		<path d="M113.8,388.58c5.74,0,11.03,0,16.48,0c0,5.46,0,10.66,0,16.14c-5.46,0-10.84,0-16.48,0
			C113.8,399.42,113.8,394.24,113.8,388.58z"/>
		<path d="M130.43,362.95c0,4.84,0.01,9.31-0.01,13.78c0,0.6-0.13,1.2-0.23,2.04c-5.37,0-10.64,0-16.31,0c0-5.26,0-10.4,0-15.82
			C119.28,362.95,124.67,362.95,130.43,362.95z"/>
		<path d="M536.25,535.64c-2.78-0.1-5.49-2.86-5.49-5.59c0-2.77,2.5-5.44,5.08-5.41c3.44,0.04,6.17,2.61,6.04,5.7
			C541.75,533.24,539.1,535.74,536.25,535.64z"/>
		<path d="M562.85,641.17c3.69,12.23,2.01,10.57-6.57,11.17c-1.72,0.12-3.44,0.24-5.51,0.39c-0.65-2.95-1.25-5.68-1.91-8.69
			c2.67-0.45,4.98-0.79,7.26-1.25C558.3,642.34,560.44,641.75,562.85,641.17z"/>
	</g>
</g>
</svg>
