<?xml version="1.0" encoding="utf-8"?>
<!-- Generator: Adobe Illustrator 27.8.0, SVG Export Plug-In . SVG Version: 6.00 Build 0)  -->
<svg version="1.1" id="Capa_1" xmlns="http://www.w3.org/2000/svg" xmlns:xlink="http://www.w3.org/1999/xlink" x="0px" y="0px"
	 viewBox="0 0 1024 1024" enable-background="new 0 0 1024 1024" xml:space="preserve">
<g>
	<g>
		<path fill="#FEFEFE" d="M511.5,1023.91c-168.97,0-337.94-0.01-506.91,0.09c-3.75,0-4.59-0.84-4.59-4.59
			C0.1,681.14,0.1,342.86,0,4.59C0,0.84,0.84,0,4.59,0c338.27,0.1,676.54,0.1,1014.82,0c3.75,0,4.59,0.84,4.59,4.59
			c-0.1,338.27-0.1,676.54,0,1014.81c0,3.75-0.84,4.6-4.59,4.59C850.11,1023.89,680.8,1023.91,511.5,1023.91z M510.03,895.82
			c115.29,0,230.59,0.01,345.88-0.01c11.89,0,18.14-6.24,18.15-18.07c0.01-45.15,0-90.3-0.01-135.46c0-10.72-1.65-21.3-4.54-31.52
			c-10.66-37.76-31.26-68.27-64.72-89.97c-14.63-9.5-30.04-17.29-45.76-24.37c-39.52-17.79-79.37-34.87-119.2-51.99
			c-10.6-4.56-20.81-10.56-32.89-10.84c-2.71-0.06-2.27-2.37-2.29-4.15c-0.1-8.5-0.15-16.99-0.29-25.49
			c-0.09-5.04,0.78-9.18,4.54-13.41c20.07-22.57,30.58-49.67,34.93-79.17c1.22-8.28,2.45-15.07,12.26-16.21
			c0.61-0.07,1.16-0.62,1.76-0.91c24.54-11.9,37.16-41.14,33.69-66.97c-2.04-15.23-9.14-27.41-23.93-33.76
			c-2.71-1.16-2.64-2.91-2.63-5.12c0.03-19.49,0.03-38.99,0.02-58.48c-0.01-9.51-0.64-18.94-2.98-28.22
			c-6.11-24.25-24.69-45.82-52.71-48.01c-2.38-0.19-3.89-1.41-5.44-3.04c-7.98-8.38-17.06-15.36-27.38-20.64
			c-26.78-13.71-55.35-18.35-85.11-16.06c-39.83,3.06-75.29,17.09-105.57,43.38c-21.26,18.45-32.48,41.54-31.91,70.14
			c0.4,20.15-0.02,40.32,0.06,60.48c0.01,3.23-0.77,5.15-4.11,6.27c-5.84,1.96-10.35,5.97-14,10.84
			c-10.04,13.43-10.91,28.74-7.81,44.3c4.17,20.93,15.38,37.51,35.45,45.65c8.42,3.41,10.5,7.91,11.56,15.87
			c4.13,31.02,15.43,59.03,36.96,82.33c1.39,1.5,2.43,3.01,2.41,5.25c-0.09,10.49-0.1,20.99-0.03,31.48
			c0.02,2.77-1.14,3.88-3.87,3.88c-4.93,0.01-9.48,1.7-13.9,3.64c-45.01,19.81-90.05,39.55-134.97,59.55
			c-23.4,10.41-46.46,21.36-65.54,39.23c-29.9,28.01-48,62.21-49.6,102.96c-1.83,46.58-0.51,93.29-0.45,139.94
			c0.01,6.8,2.95,12.21,9.3,15.32c3.59,1.76,7.49,1.34,11.3,1.35C281.11,895.83,395.57,895.83,510.03,895.82z M918.03,496.26
			c0.18-15.1-1.27-33.32-3.95-51.45c-9.76-65.93-33.55-126.26-72.35-180.52c-24.66-34.49-54.19-64.18-88.53-89.14
			c-22.41-16.29-46.52-29.63-71.18-42.07c-7.68-3.87-15.72-1.27-19.05,5.74c-3.22,6.79-0.38,12.53,7.89,16.66
			c25.64,12.8,50.28,27.25,73.15,44.6c37.82,28.69,69.47,63.03,93.85,103.78c31.49,52.63,50.17,109.44,54.12,170.86
			c2.62,40.8-0.43,81.07-10.89,120.71c-4.03,15.29-9.49,30.1-14.04,45.21c-2.41,8.01,1.02,14.86,7.88,17.03
			c6.53,2.07,13.06-1.73,15.83-9.34C908.27,600.26,918.15,550.8,918.03,496.26z M101.91,493.94c0.03,30.16,2.25,53.45,5.96,76.66
			c4.32,27.01,12.45,52.94,21.49,78.63c2.11,5.99,6.65,9.06,11.95,8.84c5.34-0.23,10.06-4.23,11.91-9.89
			c1.54-4.7-0.42-8.87-1.93-13.02c-5.96-16.41-11.34-33.03-15.01-50.06c-9.84-45.68-12.16-91.67-5.35-138.1
			c8.84-60.3,30.41-115.49,65.45-165.27c31.07-44.14,70.51-79.4,116.52-107.45c11.51-7.01,23.25-13.6,35.03-20.14
			c6.08-3.38,8-9.81,5.23-15.32c-3.13-6.22-9.54-8.97-15.73-6.72c-5.34,1.93-10.03,5.14-14.99,7.81
			c-34.9,18.72-67.19,41.12-95.79,68.61c-41.86,40.24-73.34,87.43-95.02,141.35C112.15,398.3,102.62,448.53,101.91,493.94z
			 M781.86,440.73c0,0.02,0,0.04,0,0.05c13.83,0,27.66,0.1,41.49-0.04c9.06-0.09,15.76-5.56,16.02-13.83
			c0.47-14.64,0.87-29.32-0.1-43.95c-0.62-9.35-6.75-14.73-16.07-14.78c-8.33-0.05-16.66,0.01-24.99,0.04
			c-18.33,0.07-36.66,0.07-54.98,0.25c-12.02,0.12-17.43,5.62-17.47,17.44c-0.04,13.16-0.11,26.33-0.02,39.49
			c0.07,9.79,5.82,15.32,15.63,15.33C754.87,440.74,768.37,440.73,781.86,440.73z M781.95,542.02c0,0.01,0,0.02,0,0.03
			c13.49,0,26.97,0.03,40.46-0.01c10.27-0.03,17.1-6.46,17.21-16.56c0.15-13.48,0.13-26.97-0.08-40.46
			c-0.16-9.88-6.69-15.86-16.66-15.8c-7.82,0.04-15.65,0.02-23.47,0.04c-18.81,0.04-37.63-0.03-56.44,0.18
			c-12.21,0.14-17.25,5.41-17.26,17.43c-0.01,12.99-0.02,25.97,0.07,38.96c0.07,9.92,6.37,16.15,16.23,16.18
			C755.31,542.04,768.63,542.02,781.95,542.02z M236.65,542.03c13.48,0,26.96,0.05,40.44-0.02c9.53-0.04,16.06-6.43,16.13-15.86
			c0.1-13.81,0.12-27.63,0.03-41.44c-0.07-9.83-6.56-15.89-16.53-15.7c-4.32,0.08-8.65,0.23-12.97,0.24
			c-22.63,0.06-45.26,0.03-67.9,0.15c-9.55,0.05-15.92,6.53-15.95,15.98c-0.04,13.48-0.09,26.96,0,40.44
			c0.06,9.7,6.66,16.2,16.3,16.22C209.69,542.06,223.17,542.04,236.65,542.03z M236.05,440.99c0-0.09,0-0.17,0-0.26
			c13.5,0,26.99,0.03,40.49-0.01c10.36-0.03,16.67-6.28,16.72-16.61c0.07-12.83-0.4-25.68,0.13-38.49
			c0.5-12.33-8.4-17.55-17.48-17.48c-9.97,0.07-19.97,1.58-29.86,0.69c-12.4-1.12-24.75,0-37.12-0.47
			c-3.41-0.13-6.87,1.04-10.36,0.51c-10.71-1.64-18.55,4.91-18.6,15.74c-0.07,13.5-0.06,26.99,0.01,40.49
			c0.06,10.18,5.88,15.88,16.12,15.89C209.41,441.01,222.73,440.99,236.05,440.99z M724.58,307.62
			c-0.07,18.97,14.5,33.75,33.27,33.76c18.61,0.01,34.04-15.42,34-34.02c-0.03-17.58-15.56-32.97-33.38-33.08
			C739.78,274.18,724.64,289.07,724.58,307.62z M294.37,307.56c-0.35-18.16-15.17-33.35-32.44-33.17
			c-19.94,0.21-34.64,15.04-34.68,34.46c-0.04,18.23,15.64,32.71,33.66,32.47C279.51,341.06,294.72,325.72,294.37,307.56z"/>
		<path fill="#293742" d="M510.03,895.82c-114.46,0-228.92,0.01-343.38-0.01c-3.81,0-7.71,0.41-11.3-1.35
			c-6.35-3.11-9.29-8.52-9.3-15.32c-0.06-46.65-1.38-93.36,0.45-139.94c1.6-40.75,19.7-74.95,49.6-102.96
			c19.08-17.88,42.14-28.82,65.54-39.23c44.93-19.99,89.96-39.74,134.97-59.55c4.42-1.95,8.98-3.63,13.9-3.64
			c2.72,0,3.89-1.11,3.87-3.88c-0.07-10.49-0.06-20.99,0.03-31.48c0.02-2.24-1.03-3.75-2.41-5.25
			c-21.52-23.31-32.82-51.32-36.96-82.33c-1.06-7.96-3.14-12.46-11.56-15.87c-20.07-8.14-31.28-24.72-35.45-45.65
			c-3.1-15.57-2.23-30.88,7.81-44.3c3.64-4.88,8.16-8.88,14-10.84c3.34-1.12,4.12-3.04,4.11-6.27c-0.08-20.16,0.34-40.33-0.06-60.48
			c-0.56-28.6,10.65-51.68,31.91-70.14c30.28-26.28,65.74-40.32,105.57-43.38c29.76-2.29,58.33,2.35,85.11,16.06
			c10.32,5.28,19.39,12.26,27.38,20.64c1.55,1.63,3.06,2.85,5.44,3.04c28.03,2.19,46.6,23.76,52.71,48.01
			c2.34,9.28,2.97,18.71,2.98,28.22c0.02,19.49,0.01,38.99-0.02,58.48c0,2.21-0.08,3.96,2.63,5.12
			c14.78,6.34,21.88,18.53,23.93,33.76c3.47,25.83-9.15,55.07-33.69,66.97c-0.6,0.29-1.15,0.84-1.76,0.91
			c-9.81,1.13-11.04,7.92-12.26,16.21c-4.35,29.5-14.86,56.6-34.93,79.17c-3.77,4.23-4.63,8.37-4.54,13.41
			c0.15,8.49,0.19,16.99,0.29,25.49c0.02,1.78-0.41,4.09,2.29,4.15c12.08,0.27,22.29,6.28,32.89,10.84
			c39.83,17.12,79.68,34.2,119.2,51.99c15.73,7.08,31.13,14.88,45.76,24.37c33.46,21.71,54.06,52.22,64.72,89.97
			c2.89,10.22,4.54,20.8,4.54,31.52c0.01,45.15,0.02,90.3,0.01,135.46c0,11.82-6.26,18.06-18.15,18.07
			C740.62,895.82,625.32,895.82,510.03,895.82z M692.44,604.09c-1,4.01,0.16,7.95,0.51,11.89c1.22,13.89,2.89,27.75,3.77,41.66
			c0.36,5.79,3.2,11.86-0.56,17.55c-6.63,10.02-11.66,20.91-16.88,31.65c-14.01,28.85-27.44,57.99-43.22,85.95
			c-10.54,18.67-21.7,36.96-33.22,55.02c-4.36,6.83-8.77,13.62-13.66,21.19c2.84,0,4.78,0,6.72,0c27.99-0.01,55.97-0.02,83.96-0.03
			c17.49-0.01,34.98,0.08,52.47-0.08c10.5-0.1,9.39,1.12,9.55-9.31c0.08-5.66-0.01-11.33-0.01-16.99c0.03-25.32,0-50.64,0.13-75.96
			c0.04-8.36,6.04-14.73,13.13-14.46c8.04,0.3,13.03,6.03,13.05,15.04c0.02,8.5-0.02,16.99-0.02,25.49
			c0,23.65,0.12,47.31-0.11,70.96c-0.04,4.53,1.38,5.62,5.67,5.47c9.48-0.32,18.99-0.04,28.48-0.15
			c11.49-0.13,22.98,0.54,34.46-0.46c1.71,0.98,3.61,0.3,5.39,0.58c4.71,0.74,6.06-0.96,6-5.86c-0.3-24.14,0.08-48.28-0.21-72.42
			c-0.23-19.59,0.98-39.19-0.84-58.79c-1.24-13.31-4.95-25.84-10.66-37.76c-14.94-31.19-39.61-52.17-70.66-66.23
			c-14.46-6.55-28.98-12.98-43.52-19.36c-10.22-4.48-20.2-9.58-31.01-13.34C690.72,598.72,691.59,601.4,692.44,604.09z
			 M398.05,241.44c0,14.09,0,26.85,0,39.61c-0.01,18.99,0,37.98-0.05,56.97c-0.02,8.54-6.16,15.49-13.64,15.6
			c-7.12,0.1-12.94-6.15-13.32-14.72c-0.25-5.82-0.17-11.66-0.02-17.49c0.08-3.22-1.25-4.45-4.4-4.54
			c-7.48-0.2-13.65,6.11-14.59,14.85c-0.82,7.65,0.29,14.99,3.55,21.87c5.68,12.03,14.46,20.27,28.41,21.3
			c10.79,0.8,15.02,5.28,15.19,15.99c0.37,22.97,5.39,44.93,16.97,64.81c18.56,31.86,46.79,49.09,83.48,52.35
			c28.59,2.54,54.57-4.78,76.91-22.66c30.35-24.29,42.17-57.47,43.08-95.27c0.23-9.41,4.49-14.44,13.95-15.05
			c3.17-0.2,6.27-0.51,9.29-1.6c15.26-5.52,25.6-23.23,23.55-40.02c-0.72-5.93-2.84-10.87-7.72-14.47
			c-3.06-2.26-6.68-2.84-9.95-1.54c-3.12,1.24-1.5,4.71-1.61,7.18c-0.23,5.15,0.15,10.34-0.18,15.49
			c-0.48,7.6-6.09,13.02-13.07,13.15c-7.19,0.13-12.4-4.92-13.18-12.86c-0.18-1.82-0.14-3.66-0.17-5.49
			c-0.33-23.8,0.86-47.63-0.93-71.41c-0.74-9.85-3.57-18.95-10.15-26.54c-6.68-7.7-13.92-8.2-21.24-1.29
			c-7.05,6.66-14.71,12.46-22.9,17.58c-20.91,13.07-43.56,20.99-68.18,23.28c-25.53,2.38-49.6-2.17-72.17-14.46
			C415.38,256.81,407.24,249.71,398.05,241.44z M352.37,869.47c0,0.02,0,0.04,0,0.06c23.49,0,46.98,0.02,70.47-0.03
			c1.9,0,4.42,0.88,5.46-1.31c0.96-2-0.86-3.8-1.9-5.4c-4.15-6.39-8.03-13.03-12.45-19.14c-7.78-10.78-14.28-22.33-21.1-33.63
			c-14.81-24.57-28.26-49.94-40.67-75.83c-8.75-18.24-17.34-36.55-27.76-53.94c-2.8-4.67-5.66-9.42-4.53-15.39
			c0.55-2.92,0.45-5.97,0.74-8.95c1.62-16.54,3.2-33.09,4.94-49.62c0.72-6.81-0.29-7.74-6.8-5.99c-7.6,2.04-14.36,6.02-21.53,9.03
			c-14.21,5.98-28.06,12.8-42.2,18.97c-12.54,5.47-24.28,12.27-34.99,20.7c-11.97,9.42-21.7,20.91-29.92,33.76
			c-8.35,13.06-13.52,27.27-16.58,42.34c-2.27,11.17-1.53,22.59-1.72,33.84c-0.57,34.98-0.23,69.97-0.26,104.96
			c0,3.81,1.41,5.7,5.65,5.67c22.49-0.17,44.98-0.19,67.47-0.07c4.41,0.02,6.1-1.18,6.04-5.97c-0.28-22.65-0.19-45.31-0.22-67.97
			c-0.01-9.66-0.19-19.33,0.06-28.99c0.3-11.25,10.05-17.38,19.21-12.19c4.75,2.69,6.58,7.15,6.57,12.56
			c-0.05,32.32,0.05,64.64-0.14,96.96c-0.03,4.46,1.3,5.67,5.67,5.64C305.39,869.36,328.88,869.47,352.37,869.47z M471.12,868.89
			c2.36,0,3.87-0.11,5.36,0.02c4.51,0.41,5.65-0.79,3.15-5.08c-4.93-8.44-10.56-16.45-15.53-24.82
			c-9.3-15.67-18.61-31.33-26.04-48.11c-8.57-19.37-15.94-39.14-21.86-59.4c-9.8-33.57-16.16-67.89-20.45-102.61
			c-2.25-18.17-3.77-36.39-4.86-54.65c-0.2-3.38-0.67-5.67-4.88-3.76c-9.81,4.45-19.64,8.84-29.51,13.15c-2.03,0.89-3.1,1.86-3,4.33
			c0.17,4.23-0.75,8.41-1.18,12.61c-1.84,18.15-3.15,36.36-4.85,54.53c-0.62,6.61-0.67,12.79,3.73,18.47
			c2.3,2.97,3.66,6.69,5.33,10.13c10.75,22.13,20.83,44.57,32.1,66.46c19.27,37.44,41.73,72.9,65.59,107.49
			C458.35,863.64,461.76,872.01,471.12,868.89z M547.14,869.07c3.75-0.8,8.94,1.69,12.25-3.26c8.12-12.13,16.48-24.11,24.28-36.45
			c10.29-16.28,20.57-32.58,30.01-49.4c9.36-16.68,17.83-33.8,26.26-50.95c8.51-17.31,16.43-34.91,25.29-52.03
			c3.19-6.16,5.27-12.01,4.58-18.93c-2.35-23.63-4.59-47.27-6.79-70.92c-0.17-1.87-0.74-3.16-2.45-3.94
			c-8.91-4.06-17.81-8.15-26.74-12.17c-3.97-1.79-5.59-0.59-5.8,3.93c-1.5,31.08-5.73,61.83-11.15,92.45
			c-5.93,33.47-14.2,66.33-26.11,98.2c-12.41,33.21-29.97,63.71-49.26,93.3c-1.93,2.96-5.84,6.28-4.42,9.33
			C538.12,870.44,543.23,868.71,547.14,869.07z M509.05,665.04c-8.71,0-8.72,0-9.89,8.63c-0.11,0.82-0.11,1.66-0.18,2.49
			c-2,24.16-5.83,48.08-9.83,71.97c-3.19,19-7.19,37.84-11.61,56.59c-0.5,2.13-0.32,3.9,0.73,5.71
			c8.89,15.39,18.86,30.08,28.91,44.72c1.58,2.3,3.14,2.21,4.68,0.03c1.91-2.7,3.84-5.4,5.62-8.19
			c7.14-11.17,14.24-22.37,21.31-33.59c1.74-2.76,2.34-5.59,1.39-8.99c-1.69-6.07-2.86-12.28-4.17-18.46
			c-4.49-21.28-8.17-42.69-11.24-64.23c-2.48-17.42-5.35-34.78-6.76-52.33c-0.24-3.04-1.12-4.73-4.47-4.39
			C512.06,665.18,510.55,665.05,509.05,665.04z M440.03,515.19c0,8.51,0.14,15.97-0.07,23.43c-0.08,2.93,1.03,4.45,3.49,5.87
			c21.15,12.19,42.27,24.45,63.28,36.88c2.72,1.61,4.64,1.56,7.21-0.01c20.59-12.52,41.22-24.97,61.93-37.29
			c2.09-1.25,2.67-2.61,2.62-4.78c-0.13-5.33-0.16-10.66-0.18-15.99c-0.03-8.37,0-8.33-7.43-4.41
			c-29.62,15.65-60.9,18.91-93.38,12.04C464.45,528.18,452.42,522.58,440.03,515.19z M415.81,558.93
			c2.07,33.65,4.82,65.79,10.75,98.23c22.31-16.54,43.94-32.99,64.99-50.22c3.17-2.6,0.22-3.18-1.24-4.05
			c-17.43-10.34-34.89-20.63-52.35-30.92C431.01,567.86,424.04,563.77,415.81,558.93z M602.22,558.86c-2,0.98-3.39,1.51-4.64,2.28
			c-23.12,14.12-46.19,28.34-69.38,42.35c-3.47,2.1-0.97,3.05,0.32,4.1c19.37,15.67,38.96,31.06,59.06,45.79
			c3.34,2.45,4.2,1.66,4.86-2.04c2.52-14.08,4.55-28.23,6.13-42.44C600.38,592.55,602.01,576.17,602.22,558.86z M423.89,215.15
			c17.57-0.36,33.93-5.54,49.81-12.66c17.09-7.65,32.59-17.94,47.72-28.81c5.93-4.26,7.17-9.95,3.73-14.6
			c-3.49-4.72-8.86-4.83-14.93-0.52c-5.14,3.66-10.28,7.35-15.64,10.67c-31.25,19.37-63.97,33.46-102.05,27.81
			c-3.4-0.5-3.18,0.91-1.94,3.29c2.39,4.61,5.99,7.95,10.51,10.31C408.24,214.39,415.95,215.31,423.89,215.15z M559.5,771.27
			c1.26,0.08,1.47-0.62,1.71-1.2c10.83-26.27,19.25-53.26,24.36-81.24c0.39-2.15,0.03-3.63-1.99-5.06
			c-10.45-7.4-20.7-15.09-31.17-22.47c-2.69-1.9-5.07-4.57-8.88-5.31C547.06,694.91,552.51,733.14,559.5,771.27z M457.93,770.8
			c8.22-37.94,13.05-76.19,15.89-115.57c-11.12,7.15-20.24,15.27-30.45,21.7c-8.23,5.19-11.2,10.23-8.88,20.64
			C440.1,722.72,447.96,747,457.93,770.8z M522.12,637.69c-3.69-4.14-7.34-6.93-10.98-9.72c-1.13-0.87-2.41-1.33-3.65-0.36
			c-3.84,2.98-8.02,5.58-11.62,10.09C504.8,637.69,512.97,637.69,522.12,637.69z"/>
		<path fill="#293742" d="M918.03,496.26c0.12,54.54-9.76,104-27.25,152.07c-2.77,7.61-9.3,11.41-15.83,9.34
			c-6.86-2.17-10.3-9.02-7.88-17.03c4.55-15.11,10.01-29.92,14.04-45.21c10.46-39.65,13.51-79.91,10.89-120.71
			c-3.95-61.42-22.62-118.23-54.12-170.86c-24.38-40.75-56.03-75.09-93.85-103.78c-22.88-17.35-47.52-31.8-73.15-44.6
			c-8.28-4.13-11.11-9.87-7.89-16.66c3.32-7.01,11.36-9.62,19.05-5.74c24.66,12.44,48.76,25.78,71.18,42.07
			c34.34,24.96,63.87,54.65,88.53,89.14c38.79,54.26,62.59,114.59,72.35,180.52C916.76,462.94,918.2,481.16,918.03,496.26z"/>
		<path fill="#293742" d="M101.91,493.94c0.71-45.41,10.24-95.65,29.71-144.08c21.69-53.92,53.16-101.11,95.02-141.35
			c28.6-27.49,60.89-49.89,95.79-68.61c4.96-2.66,9.65-5.87,14.99-7.81c6.19-2.24,12.6,0.51,15.73,6.72
			c2.77,5.51,0.85,11.94-5.23,15.32c-11.77,6.55-23.52,13.13-35.03,20.14c-46.01,28.05-85.45,63.31-116.52,107.45
			c-35.04,49.78-56.61,104.97-65.45,165.27c-6.81,46.43-4.49,92.42,5.35,138.1c3.67,17.04,9.05,33.66,15.01,50.06
			c1.51,4.14,3.47,8.32,1.93,13.02c-1.85,5.66-6.57,9.66-11.91,9.89c-5.3,0.22-9.84-2.85-11.95-8.84
			c-9.03-25.69-17.16-51.61-21.49-78.63C104.16,547.39,101.94,524.1,101.91,493.94z"/>
		<path fill="#293742" d="M781.86,440.73c-13.5,0-26.99,0.01-40.49,0c-9.81-0.01-15.57-5.54-15.63-15.33
			c-0.09-13.16-0.02-26.33,0.02-39.49c0.04-11.82,5.45-17.32,17.47-17.44c18.33-0.18,36.66-0.18,54.98-0.25
			c8.33-0.03,16.66-0.09,24.99-0.04c9.32,0.06,15.44,5.44,16.07,14.78c0.97,14.63,0.57,29.31,0.1,43.95
			c-0.27,8.27-6.96,13.74-16.02,13.83c-13.83,0.13-27.66,0.04-41.49,0.04C781.86,440.77,781.86,440.75,781.86,440.73z M782.42,415
			c0-0.02,0-0.04,0-0.06c8.5,0,17-0.13,25.49,0.06c3.48,0.08,4.91-1.3,4.89-4.61c-0.03-4-0.15-8,0.03-11.99
			c0.15-3.36-1.44-4.33-4.51-4.32c-17.49,0.05-34.99,0.07-52.48-0.05c-3.14-0.02-4.06,1.2-3.97,4.11c0.14,4.16,0.22,8.35-0.09,12.49
			c-0.28,3.7,1.35,4.5,4.65,4.44C765.09,414.9,773.76,415,782.42,415z"/>
		<path fill="#293742" d="M781.95,542.02c-13.32,0-26.64,0.02-39.96-0.01c-9.86-0.02-16.16-6.26-16.23-16.18
			c-0.09-12.99-0.08-25.97-0.07-38.96c0.01-12.02,5.05-17.29,17.26-17.43c18.81-0.22,37.63-0.14,56.44-0.18
			c7.82-0.02,15.65,0.01,23.47-0.04c9.97-0.06,16.51,5.92,16.66,15.8c0.21,13.48,0.23,26.97,0.08,40.46
			c-0.11,10.1-6.94,16.53-17.21,16.56c-13.49,0.04-26.97,0.01-40.46,0.01C781.95,542.04,781.95,542.03,781.95,542.02z
			 M782.35,516.02c0,0.01,0,0.02,0,0.03c8.82,0,17.64-0.06,26.46,0.04c2.89,0.03,4.29-0.84,4.13-3.99
			c-0.2-4.15-0.23-8.32-0.04-12.48c0.16-3.48-1.25-4.69-4.66-4.67c-17.47,0.11-34.95,0.13-52.42,0.03
			c-3.17-0.02-4.02,1.24-3.92,4.15c0.14,4.32,0.13,8.66-0.09,12.98c-0.16,3.12,1.1,4.01,4.08,3.96
			C764.71,515.93,773.53,516.02,782.35,516.02z"/>
		<path fill="#293742" d="M236.65,542.04c-13.48,0.01-26.96,0.03-40.44,0c-9.63-0.02-16.23-6.51-16.3-16.22
			c-0.09-13.48-0.05-26.96,0-40.44c0.03-9.45,6.4-15.93,15.95-15.98c22.63-0.12,45.26-0.09,67.9-0.15
			c4.32-0.01,8.65-0.15,12.97-0.24c9.97-0.19,16.46,5.87,16.53,15.7c0.09,13.81,0.07,27.63-0.03,41.44
			c-0.07,9.43-6.61,15.82-16.13,15.86C263.61,542.08,250.13,542.03,236.65,542.04z M236.41,516.04c8.81,0,17.62-0.08,26.43,0.04
			c3.03,0.04,4.8-0.87,4.71-4.14c-0.13-4.48-0.37-8.96-0.38-13.44c-0.01-2.64-1.27-3.47-3.69-3.46
			c-17.79,0.04-35.58,0.05-53.37,0.01c-2.75-0.01-3.92,1.12-3.88,3.86c0.07,4.32,0.14,8.65-0.08,12.97
			c-0.16,3.27,1.03,4.32,4.31,4.24C219.12,515.91,227.77,516.05,236.41,516.04z"/>
		<path fill="#293742" d="M236.05,440.99c-13.32,0-26.64,0.02-39.95-0.01c-10.23-0.02-16.06-5.71-16.12-15.89
			c-0.08-13.5-0.09-26.99-0.01-40.49c0.06-10.83,7.9-17.38,18.6-15.74c3.49,0.53,6.95-0.64,10.36-0.51
			c12.37,0.48,24.72-0.65,37.12,0.47c9.89,0.9,19.89-0.61,29.86-0.69c9.08-0.07,17.98,5.15,17.48,17.48
			c-0.52,12.81-0.06,25.66-0.13,38.49c-0.05,10.33-6.36,16.58-16.72,16.61c-13.5,0.04-26.99,0.01-40.49,0.01
			C236.05,440.82,236.05,440.91,236.05,440.99z M236.5,414.97c0-0.01,0-0.01,0-0.02c8.65,0,17.31-0.15,25.95,0.08
			c3.38,0.09,4.96-0.76,4.78-4.37c-0.21-4.15-0.25-8.32-0.07-12.47c0.13-3.03-1.07-4.14-4.02-4.13c-17.8,0.03-35.6,0-53.4-0.09
			c-2.54-0.01-3.63,0.96-3.59,3.51c0.08,4.49,0.18,8.99-0.05,13.47c-0.17,3.44,1.32,4.15,4.45,4.09
			C219.19,414.85,227.84,414.97,236.5,414.97z"/>
		<path fill="#293742" d="M724.58,307.62c0.07-18.55,15.21-33.45,33.9-33.34c17.82,0.1,33.35,15.49,33.38,33.08
			c0.03,18.6-15.39,34.03-34,34.02C739.08,341.38,724.51,326.59,724.58,307.62z M758.55,316.25c4.48-0.1,8.26-4.01,8.1-8.37
			c-0.18-4.7-4.05-8.4-8.79-8.4c-4.47,0-8.04,3.75-7.99,8.4C749.91,312.49,753.91,316.35,758.55,316.25z"/>
		<path fill="#293742" d="M294.37,307.56c0.35,18.17-14.86,33.51-33.46,33.76c-18.02,0.24-33.7-14.24-33.66-32.47
			c0.04-19.42,14.75-34.25,34.68-34.46C279.21,274.2,294.02,289.4,294.37,307.56z M269.25,308.34c0.06-4.87-3.5-8.79-8.15-8.95
			c-4.48-0.16-8.34,3.47-8.51,8.01c-0.17,4.72,3.53,8.69,8.23,8.83C265.46,316.37,269.19,312.88,269.25,308.34z"/>
		<path fill="#FEFEFE" d="M398.05,241.44c9.19,8.27,17.32,15.38,26.9,20.59c22.57,12.3,46.64,16.84,72.17,14.46
			c24.62-2.29,47.28-10.21,68.18-23.28c8.19-5.12,15.86-10.92,22.9-17.58c7.32-6.91,14.57-6.41,21.24,1.29
			c6.58,7.59,9.41,16.69,10.15,26.54c1.79,23.78,0.6,47.61,0.93,71.41c0.03,1.83-0.01,3.67,0.17,5.49
			c0.78,7.94,5.99,12.99,13.18,12.86c6.99-0.12,12.59-5.55,13.07-13.15c0.33-5.14-0.06-10.33,0.18-15.49
			c0.11-2.47-1.5-5.94,1.61-7.18c3.27-1.3,6.89-0.72,9.95,1.54c4.87,3.61,6.99,8.55,7.72,14.47c2.05,16.8-8.29,34.51-23.55,40.02
			c-3.02,1.09-6.12,1.4-9.29,1.6c-9.47,0.6-13.73,5.63-13.95,15.05c-0.91,37.8-12.73,70.98-43.08,95.27
			c-22.35,17.89-48.33,25.21-76.91,22.66c-36.69-3.27-64.92-20.49-83.48-52.35c-11.58-19.87-16.6-41.84-16.97-64.81
			c-0.17-10.71-4.4-15.19-15.19-15.99c-13.95-1.04-22.72-9.27-28.41-21.3c-3.25-6.88-4.36-14.23-3.55-21.87
			c0.93-8.74,7.11-15.05,14.59-14.85c3.15,0.09,4.48,1.31,4.4,4.54c-0.15,5.83-0.23,11.67,0.02,17.49
			c0.37,8.56,6.2,14.82,13.32,14.72c7.47-0.11,13.62-7.06,13.64-15.6c0.05-18.99,0.04-37.98,0.05-56.97
			C398.06,268.28,398.05,255.53,398.05,241.44z"/>
		<path fill="#F14D3F" d="M352.37,869.47c-23.49,0-46.98-0.1-70.47,0.09c-4.37,0.04-5.7-1.17-5.67-5.64
			c0.19-32.32,0.09-64.64,0.14-96.96c0.01-5.41-1.82-9.87-6.57-12.56c-9.16-5.19-18.91,0.94-19.21,12.19
			c-0.26,9.66-0.08,19.32-0.06,28.99c0.03,22.66-0.07,45.32,0.22,67.97c0.06,4.79-1.63,5.99-6.04,5.97
			c-22.49-0.12-44.98-0.1-67.47,0.07c-4.24,0.03-5.66-1.86-5.65-5.67c0.03-34.99-0.31-69.98,0.26-104.96
			c0.18-11.26-0.55-22.67,1.72-33.84c3.06-15.06,8.23-29.28,16.58-42.34c8.22-12.86,17.95-24.34,29.92-33.76
			c10.71-8.43,22.45-15.23,34.99-20.7c14.13-6.16,27.99-12.99,42.2-18.97c7.17-3.02,13.94-6.99,21.53-9.03
			c6.51-1.75,7.52-0.82,6.8,5.99c-1.75,16.53-3.32,33.07-4.94,49.62c-0.29,2.98-0.19,6.02-0.74,8.95
			c-1.12,5.97,1.73,10.72,4.53,15.39c10.42,17.38,19.01,35.7,27.76,53.94c12.42,25.89,25.86,51.25,40.67,75.83
			c6.82,11.31,13.31,22.85,21.1,33.63c4.42,6.12,8.3,12.76,12.45,19.14c1.04,1.6,2.86,3.4,1.9,5.4c-1.05,2.19-3.56,1.3-5.46,1.31
			c-23.49,0.05-46.98,0.03-70.47,0.03C352.37,869.51,352.37,869.49,352.37,869.47z"/>
		<path fill="#F14D3F" d="M836.65,868.52c-11.47,1-22.97,0.32-34.46,0.46c-9.49,0.11-19-0.17-28.48,0.15
			c-4.29,0.14-5.72-0.94-5.67-5.47c0.23-23.65,0.1-47.31,0.11-70.96c0-8.5,0.04-16.99,0.02-25.49c-0.02-9.01-5.01-14.74-13.05-15.04
			c-7.1-0.26-13.09,6.11-13.13,14.46c-0.13,25.32-0.1,50.64-0.13,75.96c-0.01,5.66,0.09,11.33,0.01,16.99
			c-0.15,10.44,0.95,9.22-9.55,9.31c-17.49,0.16-34.98,0.07-52.47,0.08c-27.99,0.01-55.97,0.02-83.96,0.03c-1.94,0-3.88,0-6.72,0
			c4.88-7.57,9.3-14.36,13.66-21.19c11.52-18.07,22.69-36.35,33.22-55.02c15.78-27.96,29.2-57.1,43.22-85.95
			c5.22-10.74,10.25-21.63,16.88-31.65c3.76-5.68,0.92-11.76,0.56-17.55c-0.87-13.91-2.55-27.77-3.77-41.66
			c-0.35-3.95-1.5-7.88-0.51-11.9c2.41-0.1,4.53,0.91,6.58,1.94c22.41,11.24,45.5,21.06,67.29,33.6
			c15.6,8.98,29.62,19.86,40.97,33.67c19.68,23.96,29.73,51.63,29.64,82.87c-0.1,34.8,0.06,69.59,0.08,104.39
			C836.99,863.21,836.77,865.86,836.65,868.52z"/>
		<path fill="#F14D3F" d="M471.12,868.89c-9.36,3.11-12.77-5.25-16.9-11.23c-23.87-34.6-46.32-70.05-65.59-107.49
			c-11.27-21.89-21.36-44.33-32.1-66.46c-1.67-3.44-3.03-7.16-5.33-10.13c-4.4-5.68-4.34-11.87-3.73-18.47
			c1.7-18.17,3.01-36.38,4.85-54.53c0.43-4.2,1.35-8.38,1.18-12.61c-0.1-2.47,0.96-3.44,3-4.33c9.87-4.31,19.71-8.69,29.51-13.15
			c4.21-1.91,4.67,0.38,4.88,3.76c1.09,18.26,2.62,36.48,4.86,54.65c4.29,34.72,10.65,69.03,20.45,102.61
			c5.92,20.26,13.29,40.03,21.86,59.4c7.43,16.78,16.74,32.44,26.04,48.11c4.97,8.38,10.6,16.38,15.53,24.82
			c2.5,4.29,1.37,5.48-3.15,5.08C474.99,868.78,473.48,868.89,471.12,868.89z"/>
		<path fill="#F14D3F" d="M547.14,869.07c-3.91-0.36-9.01,1.36-10.05-0.86c-1.42-3.05,2.48-6.37,4.42-9.33
			c19.29-29.59,36.84-60.09,49.26-93.3c11.92-31.87,20.18-64.72,26.11-98.2c5.42-30.61,9.65-61.37,11.15-92.45
			c0.22-4.52,1.83-5.72,5.8-3.93c8.93,4.03,17.82,8.12,26.74,12.17c1.71,0.78,2.28,2.07,2.45,3.94c2.2,23.65,4.44,47.29,6.79,70.92
			c0.69,6.92-1.39,12.77-4.58,18.93c-8.86,17.12-16.78,34.73-25.29,52.03c-8.43,17.15-16.9,34.27-26.26,50.95
			c-9.44,16.82-19.72,33.11-30.01,49.4c-7.8,12.34-16.16,24.32-24.28,36.45C556.07,870.77,550.88,868.28,547.14,869.07z"/>
		<path fill="#F14D3F" d="M509.05,665.05c1.5,0.01,3.01,0.14,4.49-0.02c3.35-0.35,4.22,1.35,4.47,4.39
			c1.41,17.55,4.29,34.91,6.76,52.33c3.06,21.54,6.74,42.95,11.24,64.23c1.3,6.17,2.47,12.39,4.17,18.46
			c0.95,3.41,0.35,6.23-1.39,8.99c-7.07,11.22-14.18,22.41-21.31,33.59c-1.78,2.79-3.71,5.48-5.62,8.19
			c-1.54,2.18-3.1,2.27-4.68-0.03c-10.05-14.64-20.02-29.33-28.91-44.72c-1.05-1.81-1.23-3.59-0.73-5.71
			c4.42-18.75,8.43-37.6,11.61-56.59c4.01-23.89,7.83-47.81,9.83-71.97c0.07-0.83,0.07-1.67,0.18-2.49
			C500.33,665.04,500.34,665.04,509.05,665.05z"/>
		<path fill="#FEFEFE" d="M440.03,515.19c12.38,7.38,24.42,12.99,37.48,15.75c32.48,6.87,63.76,3.61,93.38-12.04
			c7.44-3.93,7.4-3.96,7.43,4.41c0.02,5.33,0.05,10.66,0.18,15.99c0.05,2.18-0.53,3.54-2.62,4.78
			c-20.71,12.32-41.34,24.77-61.93,37.29c-2.58,1.57-4.49,1.62-7.21,0.01c-21.01-12.43-42.13-24.69-63.28-36.88
			c-2.46-1.42-3.57-2.94-3.49-5.87C440.17,531.17,440.03,523.7,440.03,515.19z"/>
		<path fill="#FEFEFE" d="M836.65,868.52c0.12-2.65,0.34-5.31,0.34-7.96c-0.02-34.8-0.19-69.59-0.08-104.39
			c0.09-31.24-9.96-58.91-29.64-82.87c-11.35-13.82-25.37-24.69-40.97-33.67c-21.78-12.54-44.88-22.36-67.29-33.6
			c-2.05-1.03-4.17-2.04-6.58-1.94c-0.84-2.69-1.72-5.37-1.29-8.75c10.81,3.75,20.79,8.85,31.01,13.34
			c14.54,6.38,29.05,12.81,43.52,19.36c31.05,14.06,55.72,35.04,70.66,66.23c5.71,11.92,9.42,24.45,10.66,37.76
			c1.82,19.59,0.61,39.19,0.84,58.79c0.28,24.14-0.09,48.28,0.21,72.42c0.06,4.91-1.3,6.61-6,5.86
			C840.26,868.81,838.36,869.5,836.65,868.52z"/>
		<path fill="#FEFEFE" d="M415.81,558.93c8.23,4.84,15.2,8.93,22.16,13.03c17.46,10.29,34.92,20.58,52.35,30.92
			c1.46,0.87,4.41,1.46,1.24,4.05c-21.05,17.23-42.69,33.68-64.99,50.22C420.63,624.72,417.88,592.58,415.81,558.93z"/>
		<path fill="#FEFEFE" d="M602.22,558.86c-0.21,17.31-1.83,33.69-3.65,50.04c-1.58,14.21-3.61,28.36-6.13,42.44
			c-0.66,3.7-1.52,4.49-4.86,2.04c-20.1-14.73-39.69-30.12-59.06-45.79c-1.29-1.04-3.79-2-0.32-4.1
			c23.19-14.01,46.26-28.23,69.38-42.35C598.83,560.38,600.21,559.84,602.22,558.86z"/>
		<path fill="#FEFEFE" d="M423.89,215.15c-7.94,0.16-15.65-0.76-22.79-4.5c-4.52-2.37-8.12-5.7-10.51-10.31
			c-1.23-2.38-1.45-3.79,1.94-3.29c38.08,5.65,70.8-8.44,102.05-27.81c5.36-3.32,10.5-7.01,15.64-10.67
			c6.06-4.32,11.44-4.2,14.93,0.52c3.44,4.65,2.2,10.34-3.73,14.6c-15.13,10.87-30.63,21.15-47.72,28.81
			C457.82,209.61,441.46,214.79,423.89,215.15z"/>
		<path fill="#FEFEFE" d="M559.5,771.27c-7-38.13-12.44-76.36-15.97-115.27c3.81,0.74,6.19,3.41,8.88,5.31
			c10.47,7.37,20.71,15.07,31.17,22.47c2.02,1.43,2.38,2.9,1.99,5.06c-5.12,27.98-13.53,54.97-24.36,81.24
			C560.97,770.65,560.76,771.35,559.5,771.27z"/>
		<path fill="#FEFEFE" d="M457.93,770.8c-9.98-23.8-17.84-48.08-23.44-73.23c-2.32-10.41,0.65-15.45,8.88-20.64
			c10.21-6.44,19.34-14.55,30.45-21.7C470.98,694.61,466.15,732.86,457.93,770.8z"/>
		<path fill="#F14D3F" d="M522.12,637.69c-9.14,0-17.31,0-26.25,0c3.6-4.5,7.78-7.11,11.62-10.09c1.25-0.97,2.52-0.51,3.65,0.36
			C514.78,630.76,518.43,633.55,522.12,637.69z"/>
		<path fill="#F14D3F" d="M782.42,415c-8.66,0-17.33-0.11-25.99,0.05c-3.3,0.06-4.93-0.73-4.65-4.44c0.31-4.14,0.22-8.33,0.09-12.49
			c-0.09-2.92,0.82-4.13,3.97-4.11c17.49,0.13,34.99,0.11,52.48,0.05c3.07-0.01,4.66,0.96,4.51,4.32c-0.18,3.99-0.06,8-0.03,11.99
			c0.02,3.32-1.41,4.69-4.89,4.61c-8.49-0.19-16.99-0.06-25.49-0.06C782.42,414.96,782.42,414.98,782.42,415z"/>
		<path fill="#F14D3F" d="M782.35,516.02c-8.82,0-17.64-0.09-26.46,0.05c-2.98,0.05-4.24-0.85-4.08-3.96
			c0.22-4.32,0.23-8.65,0.09-12.98c-0.09-2.9,0.76-4.17,3.92-4.15c17.47,0.1,34.95,0.08,52.42-0.03c3.42-0.02,4.82,1.19,4.66,4.67
			c-0.19,4.15-0.16,8.32,0.04,12.48c0.15,3.14-1.25,4.02-4.13,3.99c-8.82-0.1-17.64-0.04-26.46-0.04
			C782.35,516.04,782.35,516.03,782.35,516.02z"/>
		<path fill="#F14D3F" d="M236.41,516.04c-8.65,0-17.29-0.13-25.93,0.07c-3.29,0.08-4.48-0.97-4.31-4.24
			c0.21-4.31,0.15-8.64,0.08-12.97c-0.05-2.75,1.13-3.87,3.88-3.86c17.79,0.05,35.58,0.03,53.37-0.01c2.42-0.01,3.69,0.82,3.69,3.46
			c0.01,4.48,0.25,8.96,0.38,13.44c0.09,3.27-1.68,4.18-4.71,4.14C254.04,515.96,245.23,516.04,236.41,516.04z"/>
		<path fill="#F14D3F" d="M236.5,414.97c-8.65,0-17.3-0.12-25.95,0.06c-3.13,0.07-4.62-0.65-4.45-4.09
			c0.22-4.48,0.12-8.98,0.05-13.47c-0.04-2.55,1.05-3.53,3.59-3.51c17.8,0.08,35.6,0.12,53.4,0.09c2.96,0,4.15,1.1,4.02,4.13
			c-0.17,4.15-0.14,8.32,0.07,12.47c0.18,3.61-1.4,4.46-4.78,4.37c-8.64-0.23-17.3-0.08-25.95-0.08
			C236.5,414.96,236.5,414.96,236.5,414.97z"/>
		<path fill="#FEFEFE" d="M758.55,316.25c-4.64,0.11-8.64-3.75-8.69-8.37c-0.05-4.65,3.52-8.4,7.99-8.4c4.74,0,8.62,3.7,8.79,8.4
			C766.81,312.24,763.03,316.15,758.55,316.25z"/>
		<path fill="#FEFEFE" d="M269.25,308.34c-0.06,4.54-3.79,8.03-8.43,7.89c-4.7-0.14-8.41-4.11-8.23-8.83
			c0.17-4.53,4.03-8.16,8.51-8.01C265.75,299.55,269.31,303.47,269.25,308.34z"/>
	</g>
</g>
</svg>
