<?xml version="1.0" encoding="utf-8"?>
<!-- Generator: Adobe Illustrator 27.8.0, SVG Export Plug-In . SVG Version: 6.00 Build 0)  -->
<svg version="1.1" id="Capa_1" xmlns="http://www.w3.org/2000/svg" xmlns:xlink="http://www.w3.org/1999/xlink" x="0px" y="0px"
	 viewBox="0 0 1024 1024" enable-background="new 0 0 1024 1024" xml:space="preserve">
<g>
	<g>
		<path fill="#FDFEFE" d="M0.09,512C0.09,342.86,0.11,173.73,0,4.59C0,0.84,0.84,0,4.59,0c338.27,0.1,676.54,0.1,1014.81,0
			c3.75,0,4.59,0.84,4.59,4.59c-0.1,338.27-0.1,676.54,0,1014.82c0,3.75-0.84,4.59-4.59,4.59c-338.27-0.1-676.54-0.1-1014.81,0
			c-3.75,0-4.6-0.84-4.59-4.59C0.11,850.27,0.09,681.14,0.09,512z M253.01,539.59c-0.31,3.07,1.71,5.34,2.52,8.83
			c4.2-4.72,7.89-8.86,11.58-13c7.11-6.51,11.49-14.59,13.04-24.03c1.9-11.57,0.79-23.27,0.84-34.92
			c0.06-13.28-4.23-25.08-12.85-35.3c-3.74-4.43-7.95-8.48-10.93-13.57c-8.05-13.75-10.71-28.82-10.89-44.43
			c-0.18-15.33,0.15-30.66,0-45.98c-0.1-10.14-3.12-19.52-8.94-27.83c-11.86-16.94-28.5-23.91-48.89-23.49
			c-27,0.56-47.75,16.01-55.33,41.83c-2.19,7.45-2.45,15.23-3.64,22.86c-1.88,12-3.8,24-5.43,36.04
			c-1.89,13.99-3.69,27.99-8.1,41.48c-1.73,5.3-2.64,11.25-5.71,15.67c-6.72,9.71-10.46,19.98-10.49,31.76
			c-0.06,25.49-0.26,50.97-0.38,76.46c-0.02,3.46,0.68,6.45,4.3,8.23c3.98,1.96,6.62,0.02,9.27-2.44c2.49,0.1,4.99,0.21,7.48,0.31
			c1.35,0.05,2.81,0.22,2.95-1.72c0.51-7,4.03-12.96,6.59-19.26c3.37-5.9,7.55-11.2,11.98-16.32c6.18-4.61,12.44-8.99,19.79-11.77
			c6.93-2.62,14.09-4.15,21.21-5.94c4.7,0.62,9.4,0.58,14.09-0.09c15.33,2.81,29.74,7.75,41.85,18.03
			C244.58,526.48,247.92,533.69,253.01,539.59z M738.8,412.14c3.47,7.34,9.08,13.43,11.7,21.9c1.53-1.92,2.44-3.06,3.35-4.2
			c3.44-1.38,4.96-4.71,7.12-7.31c8.09-9.72,13.79-20.51,13.9-33.57c6.46-15.43-1.29-37.84-16.3-47.18
			c-9.33-5.81-19.52-9.89-29.41-14.57c-6.7-3.17-13.08-5.7-11.86-15.28c0.38-2.96-0.05-5.54,2.25-8.02
			c4.39-4.74,8.76-9.59,10.87-15.92c1.46-4.39,1.93-9.17,7.76-10.82c2.27-0.64,3.36-3.91,3.9-6.62c0.69-3.46,0.7-6.91,0.4-10.43
			c-0.28-3.28-1.31-6.67-0.01-9.88c3.07-7.61,3.37-15.58,3.07-23.58c-0.59-15.55-6.69-28.19-20.03-36.87
			c-15.83-10.3-33.19-11.96-51.13-8.2c-14.11,2.96-25.92,10.02-33.68,22.73c-7.01,11.47-7.36,24.33-5.33,36.74
			c1.48,9.03,2.25,17.93,2.38,26.98c0.05,3.7,1.29,7.96,4.45,8.88c6.43,1.88,6.75,7.22,8.6,11.82c1.44,3.58,3.04,7.34,5.84,9.76
			c6.41,5.54,7.35,12.02,5.71,19.83c-0.57,2.71-1.5,3.92-3.82,4.97c-6.35,2.85-12.54,6.04-18.88,8.91
			c-4.27,1.94-6.26,4.21-2.96,8.78c1.51,2.1,2.24,4.78,3.32,7.19c5.96,18.05,2.92,36.79,4.04,56.12
			c5.96-5.12,12.06-8.63,18.78-10.98c17.06-5.97,33.86-6.46,50.86,0.9C723.49,398.47,731.23,405.06,738.8,412.14z M298.62,406.53
			c0.69-0.45,1.41-0.86,2.05-1.36c24.4-19.1,50.68-21.53,78.75-9.06c4.07,1.81,7.37,4.82,11.39,6.74c1.18-2.91,1.09-5.71,1.13-8.53
			c0.22-15.85-1.61-31.89,4.03-47.28c1.25-3.05,2.23-6.25,3.83-9.11c1.45-2.58,1.37-3.97-1.48-5.32c-5.84-2.75-11.39-6.18-17.35-8.6
			c-5.02-2.03-6.76-5.19-5.91-10.25c0.16-0.97,0.65-2.27,0.22-2.89c-2.75-3.96,0.27-6.09,2.61-8.14
			c6.3-5.51,10.07-12.44,12.08-20.43c0.32-1.26,0.06-2.79,1.77-3.2c8.32-2,9.11-8.4,9.42-15.42c0.19-4.48-1.76-8.95-0.33-13.3
			c1.51-4.61,2.48-9.28,2.86-14.07c1.84-23.09-6.67-41.79-29.57-51.78c-12.24-5.34-25.1-5.53-38.14-3.65
			c-29.86,4.32-47.76,26.25-44.52,56.04c1.17,10.76,3.78,21.31,3.62,32.29c-0.07,4.56,2.42,8.76,7.68,9.65
			c2.07,0.35,2.12,1.55,2.53,2.99c1.74,6.13,4,12.38,8.67,16.59c6.28,5.67,7.84,11.95,6.26,19.83c-0.46,2.29-0.76,3.72-3.2,4.79
			c-9.4,4.15-18.64,8.65-27.93,13.03c-11.24,5.29-21.01,12.34-26.02,24.15c-4.07,9.58-6.65,19.51-1.79,29.74
			c-0.33,18.41,9.64,31.87,21.43,45.22c0.91-2.5,1.57-4.34,2.24-6.17C287.39,420.28,293.15,413.5,298.62,406.53z M794.15,519.17
			c0.59-0.28,1.25-0.47,1.77-0.85c25.12-18.07,51.74-19.07,79.33-6.62c4.76,2.15,8.92,5.64,13.35,8.51
			c3.82,4.95,7.64,9.91,11.45,14.86c2.67,4.87,5.08,9.79,6.08,15.39c1.38,7.74,1.59,7.7,9.9,7.17c0.71,0.43,1.41,0.86,2.12,1.29
			c6.22,3.8,11.47,1.18,12.29-6.17c0.15-1.32,0.14-2.66,0.15-3.99c0.03-23.98,0.1-47.96,0.05-71.94
			c-0.02-9.45-1.54-18.85-6.89-26.66c-5.14-7.49-7.26-15.9-9.71-24.21c-8.29-28.14-11.11-57.27-15.04-86.19
			c-1.7-12.52-4.93-24.32-13.1-34.33c-12.65-15.51-29.32-20.38-48.7-19.53c-26.38,1.15-48.26,22.82-48.54,49.16
			c-0.17,16.32-0.22,32.65,0.15,48.96c0.46,19.73-5.69,36.83-18.99,51.38c-8.23,9-14.79,19.03-15.89,31.43
			c-1.9,21.25-0.82,42.57-0.71,63.87c0.01,1.77,0.21,3.18,2.05,4.09c3.56,1.76,7.03,3.71,10.54,5.58c3.17,2.53,6.34,5.05,9.51,7.58
			c2.35-3.42,3.41-7.38,4.76-11.22c0.05-0.14-0.03-0.33-0.05-0.49C784.56,530.38,788.85,524.35,794.15,519.17z M418.02,649.27
			c4.59,2.61,9.18,5.22,13.78,7.83c4.3,4.67,8.6,9.34,13.2,14.35c0.09-1.33,0.2-2.15,0.2-2.97c0.11-24.81,0.25-49.61,0.27-74.42
			c0-6.18-1.45-12.15-3.71-17.91c-5.12-13.05-14.12-22.88-26.03-29.82c-16.21-9.45-22.78-23.81-22.9-41.87
			c-0.15-22.64-0.41-45.29-0.36-67.93c0.01-5.88-2.08-10.64-5.53-15.07c-9.55-12.26-22.4-17.68-37.63-18.18
			c-12.1-0.4-23.42,2.09-33.53,9.05c-3.04,2.09-5.59,4.71-4.24,8.67c1.13,3.3-0.43,4.02-2.98,4.65c-6.02,1.5-8.94,5.98-10.56,11.5
			c-1.32,4.49-1.81,9.13-1.83,13.8c-0.08,17.65-0.11,35.3-0.15,52.95c-0.01,5.54-1.03,10.88-2.72,16.14
			c-3.57,11.16-9.68,20.67-18.18,28.7c-11.82,11.16-19.1,24.3-19.51,41.08c-0.51,20.64-0.41,41.27-0.58,61.9
			c-0.03,3.91,2.64,5.56,5.64,6.69c1.97,0.75,4.19,0.86,6.29,1.26c4.76,2.74,9.22,5.89,12.83,10.05c2.32,2.67,3.9,2.61,5.14-0.78
			c3.47-5.55,8.2-9.9,13.17-14.04c20.2-12.23,40.9-13.93,62.17-2.92c1.31,0.68,2.24,1,3.61,0.22c12.48-7.11,26.1-7.93,40.01-7.09
			C408.6,646.5,413.31,647.88,418.02,649.27z M629.07,644.86c11.65-0.1,23.39-0.2,33.99,5.48c4.06,2.17,7.04,1.73,10.99-0.1
			c16.43-7.62,33.02-6.92,49.71-0.35c5.13,2.02,8.73,6.37,13.89,8.18c2.4,5.34,7.18,8.97,9.86,14.54c1.8-2.1,3.27-3.83,4.74-5.55
			c4.26-4.05,9.55-6.41,14.72-8.96c7.55-0.12,11.96-3.01,11.93-8.34c-0.11-20.15,0.94-40.32-0.94-60.43
			c-1.76-18.73-10.44-33.06-27.95-41.18c-8.57-3.97-17.19-7.86-25.94-11.41c-5.63-2.28-11.43-3.95-10.1-11.93
			c0.05-0.3-0.05-0.74-0.25-0.94c-2.89-2.82-0.72-4.59,1.23-6.53c5.4-5.35,9.78-11.34,11.05-19.07c0.27-1.65,1.05-2.03,2.59-2.29
			c4.69-0.79,7.59-4.1,7.32-8.48c-0.86-14.03,2.13-27.91,0.37-42.06c-1.97-15.77-10.59-26.67-22.64-35.17
			c-11.4-8.03-24.78-8.12-37.95-5.62c-11.24,2.13-20.45,7.72-25.42,18.72c-0.63,1.38-1.42,2.58-2.86,3.33
			c-4.3,2.23-6.6,5.95-7.49,10.59c-3.37,17.5-1.65,35.17-1.67,52.77c0,1.89,0.85,4.5,2.89,4.87c4.96,0.92,5.36,4.96,6.8,8.47
			c1.45,3.54,2.89,7.33,5.88,9.74c5.73,4.62,7.73,9.73,4.96,16.93c-0.97,2.52-1.84,4.07-4.33,5.14
			c-12.8,5.5-25.79,10.65-38.22,16.91c-18.54,9.35-28.88,24.7-29.25,45.72c-0.39,22.48-0.1,44.98-0.03,67.47
			c0,1.35-0.69,2.93,0.83,4.34c3.06-5.62,8.46-8.94,12.31-13.68c5-2.6,10-5.2,15-7.8C619.74,647.07,624.4,645.97,629.07,644.86z
			 M789.12,791.1c34.07,0.37,67.92-2.92,101.77-6.14c5.09,6.86,11.06,6.52,14.35-0.82c5.71-2.19,11.91-0.76,17.7-2.33
			c2.91,2.8,6.21,4.88,10.27,2.89c3.95-1.93,4.52-5.68,4.49-9.77c-0.15-18.33-0.19-36.66-0.16-54.98
			c0.04-23.51-10.88-39.79-32.25-49.25c-8.78-3.89-17.48-8-26.43-11.45c-6.64-2.56-11.61-5.45-10.09-13.91
			c0.45-2.52-1.32-5.08,1.48-7.6c6.42-5.76,11.06-12.79,12.77-21.44c0.28-1.42,0.83-2.46,2.28-2.96c6.07-2.07,7.58-7.05,7.59-12.64
			c0.01-4.98-1.28-10.06-0.63-14.91c1.05-7.82,0.94-15.6,0.76-23.4c-0.23-10.24-4.07-19.19-10.8-26.68
			c-15.19-16.92-34.41-20.63-55.84-16.02c-23.03,4.95-38.99,23.43-37.82,48.49c0.53,11.29,1.83,22.53,1.45,33.88
			c-0.17,5.1,1.94,9.85,7.77,11.45c1.32,0.36,1.8,1.26,2.01,2.53c1.5,9.34,7.03,16.28,13.53,22.62c1.53,1.49,1.29,14.98-0.35,16.35
			c-0.49,0.41-1.18,0.58-1.79,0.84c-12.68,5.35-25.41,10.57-38.02,16.07c-9.93,4.33-17.37,11.42-22.22,21.2
			c-3.53,7.13-5.23,14.59-5.2,22.56c0.08,21.16-0.11,42.32,0.04,63.48c0.05,6.22-4.71,3.8-7.45,4.46c-3.46,0.83-2.35-2.33-2.39-4
			c-0.75-29.74,0.95-59.49-0.84-89.24c-0.85-14.19-7.22-24.24-20.82-28.68c-15.38-5.02-29.85-2.73-42.93,6.87
			c-2.19,1.6-3.5,2.09-5.85,0.23c-14.99-11.77-31.5-11.95-48.4-5.25c-8.1,3.21-14.16,9.14-17.66,17.41
			c-0.68,1.62-1.02,2.8,0.73,3.73c2.92,1.55,5.77,3.92,8.84,4.27c2.25,0.26,2.51-3.87,4.29-5.56c0.24-0.23,0.48-0.47,0.66-0.75
			c8.53-12.97,36.98-12.18,46.43-0.25c6.74,8.5,9.3,8.13,16.64,0.03c9.04-9.98,20.26-10.66,32.09-7.89
			c8.14,1.91,12.78,8.95,12.79,17.5c0.01,28.66-0.1,57.32,0.09,85.98c0.03,4.43-0.97,5.9-5.69,5.86
			c-28.49-0.22-56.99-0.2-85.48,0.04c-4.27,0.04-4.88-1.47-4.82-5.12c0.17-12.49,0.33-25-0.01-37.49
			c-0.48-17.85-8.22-31.81-23.94-40.64c-14.6-8.2-30.1-14.63-45.46-21.24c-5.5-2.36-10.3-4.45-8.73-11.74
			c0.13-0.6-0.05-1.36-0.32-1.94c-1.46-3.13-0.16-5.27,2.15-7.38c5.43-4.96,8.98-11.24,11.76-17.95c1.54-3.72,1.27-8.52,7.03-9.25
			c1.12-0.14,2.08-2.43,2.92-3.84c2.17-3.63,1.91-7.71,1.7-11.68c-0.43-7.95-0.23-15.74,1.09-23.7
			c3.05-18.32-1.37-34.66-15.49-47.57c-13.11-11.99-28.91-15.56-46.17-14.61c-30.05,1.65-58.24,23.47-52.05,63.19
			c1.02,6.53,2.25,13.11,0.8,19.84c-0.81,3.78,0.02,7.68,0.79,11.41c0.69,3.31,2.65,7.07,5.82,7.48c3.91,0.51,4.35,2.71,5.05,5.37
			c2.38,8.96,6.93,16.61,13.72,22.94c1.5,1.4,0.89,14.52-0.72,15.77c-0.51,0.4-1.17,0.61-1.78,0.89
			c-14.71,6.69-29.44,13.32-44.12,20.09c-20.75,9.58-30.9,25.77-30.37,48.72c0.25,10.99-0.13,22,0.13,32.99
			c0.1,4.21-1.31,5.36-5.42,5.34c-30.99-0.12-61.98-0.1-92.97,0.1c-3.82,0.02-3.98-1.78-3.98-4.54c0.02-15.33-0.07-30.66-0.01-45.99
			c0.05-13.99,0.23-27.98,0.36-41.97c0.06-6.69,3.73-11.19,9.07-14.52c11.32-7.06,28.9-4.27,38.27,5.97
			c6.42,7.02,8.69,7.37,14.84,0.56c8.51-9.43,18.99-11.16,30.84-9.72c7.29,0.88,12.79,4.27,17.11,9.96
			c4.95,6.52,4.84,6.32,12.56,2.72c3.34-1.55,3.36-2.8,1.79-5.81c-13.65-26.19-49.85-25.55-65.89-12.31
			c-2.24,1.85-3.46,2.19-5.75,0.33c-8.83-7.16-19.21-9.15-30.32-9.09c-21.55,0.11-37.26,15.83-36.58,37.19
			c0.87,27.3,0.01,54.65,0.44,81.97c0.09,5.95-3.17,4.54-6.38,4.95c-4.59,0.58-3.68-2.53-3.69-5.07c-0.01-21.49,0.4-43-0.14-64.48
			c-0.43-17.36-7.9-31.39-23.18-40.45c-10.69-6.34-22.27-10.92-33.72-15.67c-5.83-2.42-11.54-4.21-9.4-12.38
			c0.11-0.42-0.08-1.05-0.35-1.43c-1.87-2.71-0.53-4.57,1.52-6.36c6.59-5.74,11.04-12.82,13.06-21.33c0.44-1.83,1.28-2.85,3.05-3.49
			c5.26-1.92,7.31-6.22,7.13-11.36c-0.4-10.83,0.74-21.54,1.58-32.31c1.13-14.49-3.58-27.29-14.49-37.2
			c-15.29-13.88-33.38-16.55-53-12.41c-20.26,4.28-37.85,20.46-37.79,45.47c0.03,12.64,1,25.25,0.73,37.91
			c-0.09,4.5,2.03,8.8,7.04,10.39c2.13,0.68,2.52,2.3,3.08,4.09c1.99,6.43,4.54,12.95,9.86,17.04c6.25,4.81,5.33,10.7,4.66,16.9
			c-0.24,2.25-1.32,3.66-3.71,4.6c-9.71,3.83-19.24,8.11-28.94,11.96c-25.57,10.18-38.57,26.74-38,55.67
			c0.35,17.49,0.12,34.99,0.04,52.48c-0.02,3.78,0.73,7.24,4.43,8.68c4.06,1.58,7.46-0.05,9.83-3.71
			c5.85,0.41,11.55,2.13,17.47,1.92c4.74,7.55,8.7,8.1,14.46,2c13.43,0.19,26.69,2.42,40.09,3.25c20.54,1.28,41.04,3.16,61.66,2.65
			c4.39,4.45,9.06,4.07,13.89,0.8c4.97,0.08,9.93,0.16,14.9,0.24c2.13,5.51,6.84,5.45,11.6,5.47c40.15,0.11,80.31,0.25,120.46,0.37
			c8.66,0.03,17.33,0.18,25.99-0.09c3.79-0.12,5.34,1.09,5.52,4.89c0.24,4.98,0.79,9.96,1.47,14.9c0.51,3.69-1.02,4.52-4.4,4.34
			c-22.28-1.18-44.56-2.16-66.84-3.33c-21.75-1.14-43.49-2.36-65.22-3.65c-19.26-1.14-38.53-2.32-57.78-3.69
			c-18.24-1.3-36.47-2.83-54.69-4.31c-14.92-1.21-29.84-2.5-44.76-3.75c-13.26-1.11-26.52-2.31-39.79-3.23
			c-4.62-0.32-7.33,2.39-7.58,6.63c-0.25,4.29,2.03,7.09,6.54,7.84c1.96,0.33,3.96,0.48,5.95,0.64c17.42,1.39,34.84,2.73,52.26,4.16
			c22.7,1.88,45.39,3.97,68.1,5.71c16.91,1.29,33.88,1.94,50.79,3.26c28.88,2.25,57.81,3.4,86.74,4.7
			c22.95,1.04,45.89,2.1,68.84,3.06c2.24,0.09,3.41,0.77,3.61,3.03c1.1,12.76,2.19,25.51,3.36,38.26c0.24,2.58-0.64,3.5-3.3,3.46
			c-6.33-0.11-12.66,0.03-18.99,0.16c-4.51,0.09-7.38,2.74-7.58,6.8c-0.21,4.25,3.19,8.05,7.52,8.31c1.66,0.1,3.33,0.02,5,0.02
			c64.15,0,128.3,0,192.45-0.02c6.49,0,10.28-3.2,10.05-8.33c-0.22-5-3.87-7.52-10.37-7.29c-5.16,0.19-10.33,0.08-15.48,0.45
			c-3.45,0.25-4.7-0.7-4.36-4.33c1.18-12.59,2.16-25.2,3.08-37.81c0.17-2.29,1.25-2.66,3.18-2.74c15.3-0.6,30.59-1.29,45.89-1.92
			c18.63-0.76,37.28-1.24,55.89-2.31c22.92-1.31,45.81-3.08,68.71-4.67c15.43-1.07,30.87-2.1,46.3-3.31
			c23.55-1.85,47.09-3.84,70.63-5.76c13.76-1.12,27.53-2.1,41.28-3.39c5.19-0.49,7.73-3.79,7.18-8.29
			c-0.53-4.32-4.08-7.16-8.84-6.75c-13.24,1.15-26.5,2.2-39.71,3.69c-19.33,2.18-38.77,3.02-58.14,4.68
			c-13.76,1.18-27.53,2.16-41.3,3.19c-17.64,1.31-35.28,2.69-52.93,3.82c-14.11,0.9-28.25,1.46-42.38,2.18
			c-30.24,1.56-60.48,3.09-90.71,4.76c-3.12,0.17-3.22-1.26-2.97-3.53c0.61-5.62,1.42-11.23,1.65-16.87
			c0.14-3.3,1.64-3.71,4.35-3.67c8.33,0.13,16.66,0.12,24.99,0.09c39.49-0.17,78.97-0.39,118.46-0.55c4.17-0.02,8.13-0.22,9.6-5.16
			c5.57-0.09,11.13-0.19,16.7-0.28C780.52,795.49,784.91,794.9,789.12,791.1z M526.67,335.81c3.76,0.53,5.01,2.97,6.82,4.53
			c7.24,6.22,10.86,5.91,16.01-2.03c4.34-6.67,8.59-13.43,11.96-20.66c1.49-3.19,2.91-4.61,6.62-2.27
			c5.31,3.36,11.07,6.01,16.63,8.98c19.04,10.19,28.35,25.9,28.22,47.68c-0.29,49.31-0.17,98.62-0.21,147.93c0,2-0.1,4.02,0.17,5.99
			c0.66,4.76,5.08,6.64,9.41,4.56c4.12-1.98,4.83-5.28,4.83-9.28c-0.03-48.81-0.01-97.62-0.01-146.44c0-6.72-0.55-13.3-1.81-20.01
			c-3.31-17.65-12.44-30.89-27.58-40.1c-14.48-8.81-29.94-15.8-44.92-23.67c-5.52-2.9-7.24-13.28-2.73-17.79
			c5.45-5.45,10.34-11.28,12.41-18.93c0.98-3.63,1.71-6.83,6.33-8.28c3.45-1.08,5.09-5.13,5.2-8.99c0.15-4.82-0.09-9.65-0.09-14.48
			c0-1.81-0.23-3.8,0.41-5.41c2.47-6.2,2.68-12.71,2.55-19.14c-0.31-14.34-5.6-26.54-16.96-35.68
			c-18.45-14.84-39.42-17.41-61.62-11.54c-27.36,7.23-41.28,28.14-38.81,56.29c0.56,6.44,3.74,12.54,2.27,19.17
			c-0.81,3.65-0.55,7.32,0.11,10.92c0.89,4.83,2.15,9.56,8.39,9.95c1.33,0.08,1.47,0.94,1.69,2c2.03,10.05,7.18,18.29,14.75,25.08
			c0.99,0.89,1.99,1.52,1.96,3.17c-0.18,10.7-1.13,12.25-11.02,17.19c-0.29,0.15-0.61,0.26-0.9,0.41
			c-12.9,6.83-26.4,12.53-38.95,20.02c-19.56,11.68-29.31,29.76-29.62,51.82c-0.71,51.3-0.22,102.62-0.2,153.93
			c0,1.49-0.12,3.06,0.27,4.47c0.91,3.24,3.05,5.76,6.32,6.43c2.78,0.57,5.14-1.2,6.75-3.44c1.67-2.32,0.98-5.13,0.98-7.73
			c0.02-49.48-0.04-98.96,0.01-148.44c0.01-14.06,3.07-27.08,13.81-37.22c9.86-9.31,22.39-14.12,34.09-20.32
			c2.48-1.31,2.76,1.01,3.5,2.26c4.23,7.15,8.22,14.44,12.6,21.49c4.75,7.66,8.74,8.15,15.79,2.6c2.02-1.59,3.54-4.01,7.2-4.35
			c-1.99,13.85-3.91,27.44-5.9,41.02c-2.86,19.54-5.76,39.08-8.67,58.61c-0.33,2.24-0.2,4.21,1.5,5.99
			c5.62,5.91,11.2,11.85,16.7,17.87c3.17,3.47,6.09,3.32,9.22,0.01c4.46-4.71,8.84-9.5,13.54-13.96c4.03-3.82,6.49-7.73,4.52-13.59
			c-0.93-2.77-0.8-5.9-1.21-8.86c-2.81-20.25-5.63-40.49-8.47-60.73C529.31,354,528.01,345.15,526.67,335.81z M517.01,511.35
			c0-0.03,0-0.06,0-0.09c22.15,0,44.3-0.01,66.45,0.01c7.38,0.01,9.52-2.07,9.52-9.45c0-39.3-0.01-78.61-0.04-117.91
			c0-1.81-0.1-3.67-0.53-5.42c-0.87-3.53-3.65-5.52-6.94-5.31c-3.5,0.23-6.03,2.7-6.55,6.45c-0.27,1.97-0.16,3.99-0.16,5.99
			c-0.02,34.97-0.12,69.95,0.07,104.92c0.03,4.93-1.13,6.57-6.34,6.53c-36.64-0.23-73.28-0.23-109.91-0.02
			c-4.85,0.03-5.63-1.61-5.6-5.94c0.17-35.31,0.11-70.61,0.11-105.92c0-1.83,0.04-3.67-0.09-5.49c-0.26-3.72-2.73-5.66-5.99-6.39
			c-3.49-0.79-5.5,1.52-7.08,4.26c-1.15,2-0.95,4.18-0.95,6.33c0,39.64-0.01,79.27,0.01,118.91c0,6.62,1.99,8.54,8.6,8.54
			C473.38,511.34,495.2,511.35,517.01,511.35z"/>
		<path fill="#06383A" d="M107.4,781.13c-2.37,3.66-5.77,5.29-9.83,3.71c-3.71-1.44-4.45-4.91-4.43-8.68
			c0.08-17.49,0.31-34.99-0.04-52.48c-0.58-28.93,12.42-45.49,38-55.67c9.7-3.86,19.23-8.14,28.94-11.96
			c2.38-0.94,3.46-2.35,3.71-4.6c0.67-6.21,1.59-12.09-4.66-16.9c-5.32-4.09-7.86-10.61-9.86-17.04c-0.56-1.79-0.95-3.42-3.08-4.09
			c-5.01-1.59-7.14-5.89-7.04-10.39c0.26-12.66-0.7-25.27-0.73-37.91c-0.07-25.01,17.52-41.19,37.79-45.47
			c19.62-4.14,37.71-1.47,53,12.41c10.91,9.91,15.62,22.71,14.49,37.2c-0.84,10.77-1.98,21.47-1.58,32.31
			c0.19,5.14-1.87,9.44-7.13,11.36c-1.77,0.65-2.61,1.66-3.05,3.49c-2.02,8.51-6.48,15.6-13.06,21.33
			c-2.06,1.79-3.39,3.65-1.52,6.36c0.26,0.38,0.46,1.01,0.35,1.43c-2.13,8.18,3.57,9.96,9.4,12.38
			c11.45,4.75,23.03,9.33,33.72,15.67c15.28,9.06,22.75,23.09,23.18,40.45c0.54,21.48,0.13,42.99,0.14,64.48
			c0,2.54-0.91,5.64,3.69,5.07c3.22-0.4,6.48,1,6.38-4.95c-0.42-27.32,0.43-54.67-0.44-81.97c-0.68-21.36,15.03-37.08,36.58-37.19
			c11.11-0.06,21.5,1.93,30.32,9.09c2.29,1.86,3.51,1.51,5.75-0.33c16.04-13.24,52.24-13.88,65.89,12.31
			c1.57,3.01,1.55,4.26-1.79,5.81c-7.72,3.59-7.6,3.8-12.56-2.72c-4.31-5.68-9.82-9.07-17.11-9.96
			c-11.85-1.44-22.34,0.29-30.84,9.72c-6.15,6.82-8.41,6.46-14.84-0.56c-9.37-10.24-26.95-13.02-38.27-5.97
			c-5.34,3.33-9.01,7.84-9.07,14.52c-0.13,13.99-0.31,27.98-0.36,41.97c-0.06,15.33,0.03,30.66,0.01,45.99
			c0,2.76,0.16,4.56,3.98,4.54c30.99-0.2,61.98-0.22,92.97-0.1c4.11,0.02,5.52-1.13,5.42-5.34c-0.26-10.99,0.13-22-0.13-32.99
			c-0.53-22.96,9.62-39.14,30.37-48.72c14.67-6.77,29.41-13.4,44.12-20.09c0.6-0.27,1.26-0.49,1.78-0.89
			c1.61-1.25,2.22-14.36,0.72-15.77c-6.78-6.33-11.34-13.98-13.72-22.94c-0.71-2.66-1.15-4.86-5.05-5.37
			c-3.16-0.41-5.13-4.16-5.82-7.48c-0.77-3.73-1.61-7.63-0.79-11.41c1.45-6.73,0.22-13.31-0.8-19.84
			c-6.2-39.72,22-61.53,52.05-63.19c17.26-0.95,33.06,2.62,46.17,14.61c14.12,12.91,18.54,29.24,15.49,47.57
			c-1.33,7.96-1.52,15.75-1.09,23.7c0.21,3.97,0.47,8.04-1.7,11.68c-0.84,1.41-1.8,3.7-2.92,3.84c-5.76,0.73-5.48,5.53-7.03,9.25
			c-2.78,6.71-6.33,12.99-11.76,17.95c-2.31,2.11-3.62,4.26-2.15,7.38c0.27,0.58,0.45,1.34,0.32,1.94
			c-1.56,7.29,3.23,9.37,8.73,11.74c15.37,6.61,30.86,13.03,45.46,21.24c15.71,8.83,23.46,22.79,23.94,40.64
			c0.34,12.49,0.18,24.99,0.01,37.49c-0.05,3.65,0.55,5.15,4.82,5.12c28.49-0.24,56.99-0.26,85.48-0.04
			c4.72,0.04,5.72-1.43,5.69-5.86c-0.18-28.66-0.08-57.32-0.09-85.98c0-8.54-4.64-15.59-12.79-17.5
			c-11.83-2.77-23.04-2.09-32.09,7.89c-7.34,8.1-9.9,8.47-16.64-0.03c-9.45-11.93-37.91-12.72-46.43,0.25
			c-0.18,0.28-0.42,0.52-0.66,0.75c-1.79,1.7-2.05,5.82-4.29,5.56c-3.07-0.35-5.92-2.73-8.84-4.27c-1.75-0.92-1.41-2.11-0.73-3.73
			c3.49-8.27,9.56-14.2,17.66-17.41c16.9-6.7,33.41-6.51,48.4,5.25c2.36,1.85,3.67,1.37,5.85-0.23c13.09-9.6,27.55-11.9,42.93-6.87
			c13.59,4.44,19.96,14.49,20.82,28.68c1.79,29.75,0.09,59.5,0.84,89.24c0.04,1.67-1.06,4.83,2.39,4c2.74-0.66,7.49,1.75,7.45-4.46
			c-0.15-21.16,0.03-42.32-0.04-63.48c-0.03-7.97,1.67-15.43,5.2-22.56c4.85-9.78,12.28-16.87,22.22-21.2
			c12.61-5.5,25.34-10.72,38.02-16.07c0.61-0.26,1.3-0.43,1.79-0.84c1.65-1.38,1.88-14.87,0.35-16.35
			c-6.51-6.35-12.03-13.29-13.53-22.62c-0.2-1.26-0.68-2.17-2.01-2.53c-5.83-1.6-7.94-6.35-7.77-11.45
			c0.38-11.36-0.92-22.6-1.45-33.88c-1.17-25.06,14.79-43.54,37.82-48.49c21.43-4.61,40.65-0.89,55.84,16.02
			c6.73,7.49,10.57,16.45,10.8,26.68c0.18,7.81,0.29,15.58-0.76,23.4c-0.65,4.85,0.64,9.93,0.63,14.91
			c-0.01,5.59-1.52,10.57-7.59,12.64c-1.45,0.5-2,1.54-2.28,2.96c-1.72,8.65-6.36,15.68-12.77,21.44c-2.8,2.51-1.03,5.07-1.48,7.6
			c-1.52,8.46,3.45,11.35,10.09,13.91c8.95,3.45,17.65,7.56,26.43,11.45c21.37,9.45,32.28,25.74,32.25,49.25
			c-0.03,18.33,0.02,36.66,0.16,54.98c0.03,4.09-0.54,7.84-4.49,9.77c-4.06,1.98-7.36-0.09-10.27-2.89
			c0.01-20.97-0.26-41.95,0.13-62.91c0.3-16.33-10.13-28.85-24.2-34.91c-4.55-1.96-9.29-3.62-13.55-6.09
			c-3.85-2.23-5.47-1.67-7.17,2.48c-6.97,17.01-16.55,32.5-27.93,46.93c-8.06,10.22-9.43,10.73-18.53-0.96
			c-11.56-14.86-21.99-30.4-29.33-47.83c-1.24-2.93-2.83-2.97-5.45-1.65c-4.15,2.08-8.47,3.84-12.78,5.58
			c-14.43,5.85-24.39,15.92-24.86,31.84c-0.77,25.93-0.14,51.91-0.09,77.87c-1.47,4.94-5.43,5.14-9.6,5.16
			c-39.49,0.17-78.97,0.38-118.46,0.55c-8.33,0.04-16.66,0.04-24.99-0.09c-2.71-0.04-4.21,0.38-4.35,3.67
			c-0.24,5.64-1.04,11.25-1.65,16.87c-0.25,2.27-0.15,3.7,2.97,3.53c30.23-1.67,60.47-3.2,90.71-4.76
			c14.13-0.73,28.26-1.28,42.38-2.18c17.65-1.13,35.29-2.51,52.93-3.82c13.77-1.02,27.54-2,41.3-3.19
			c19.37-1.67,38.8-2.5,58.14-4.68c13.21-1.49,26.47-2.54,39.71-3.69c4.75-0.41,8.31,2.43,8.84,6.75c0.55,4.5-1.99,7.81-7.18,8.29
			c-13.74,1.29-27.52,2.27-41.28,3.39c-23.54,1.92-47.08,3.91-70.63,5.76c-15.42,1.21-30.86,2.24-46.3,3.31
			c-22.9,1.59-45.79,3.36-68.71,4.67c-18.61,1.06-37.26,1.54-55.89,2.31c-15.3,0.63-30.59,1.32-45.89,1.92
			c-1.93,0.08-3.01,0.45-3.18,2.74c-0.92,12.61-1.91,25.22-3.08,37.81c-0.34,3.63,0.91,4.58,4.36,4.33
			c5.14-0.38,10.32-0.27,15.48-0.45c6.5-0.24,10.14,2.28,10.37,7.29c0.23,5.13-3.57,8.32-10.05,8.33
			c-64.15,0.02-128.3,0.02-192.45,0.02c-1.67,0-3.34,0.08-5-0.02c-4.33-0.26-7.72-4.06-7.52-8.31c0.2-4.06,3.06-6.7,7.58-6.8
			c6.33-0.13,12.66-0.26,18.99-0.16c2.66,0.04,3.54-0.88,3.3-3.46c-1.16-12.75-2.26-25.5-3.36-38.26c-0.2-2.27-1.37-2.94-3.61-3.03
			c-22.95-0.96-45.9-2.02-68.84-3.06c-28.93-1.31-57.86-2.45-86.74-4.7c-16.91-1.32-33.87-1.97-50.79-3.26
			c-22.71-1.73-45.4-3.83-68.1-5.71c-17.41-1.44-34.84-2.77-52.26-4.16c-1.99-0.16-3.99-0.32-5.95-0.64
			c-4.51-0.75-6.79-3.54-6.54-7.84c0.25-4.24,2.96-6.95,7.58-6.63c13.27,0.92,26.53,2.12,39.79,3.23
			c14.92,1.24,29.84,2.54,44.76,3.75c18.23,1.48,36.45,3.02,54.69,4.31c19.25,1.37,38.51,2.54,57.78,3.69
			c21.74,1.29,43.48,2.51,65.22,3.65c22.28,1.17,44.56,2.15,66.84,3.33c3.38,0.18,4.91-0.65,4.4-4.34
			c-0.68-4.94-1.23-9.92-1.47-14.9c-0.18-3.81-1.73-5.01-5.52-4.89c-8.66,0.27-17.32,0.11-25.99,0.09
			c-40.15-0.12-80.31-0.27-120.46-0.37c-4.76-0.01-9.47,0.04-11.6-5.46c0.05-26.31,0.31-52.62,0.02-78.92
			c-0.09-7.76-3.36-14.67-8.68-20.68c-8.02-9.06-19.8-11.23-29.65-16.92c-2.04-1.18-2.88,0.42-3.53,2.18
			c-6.4,17.04-16.5,31.76-28.14,45.6c-6.38,7.58-11.01,8-17.32,0.32c-11.72-14.25-22.99-28.85-29.99-46.16
			c-0.92-2.27-1.89-3.05-3.96-1.75c-7.56,4.78-16.47,6.55-24.06,11.65c-9.61,6.46-15.84,14.3-16.62,25.95
			C106.43,735.87,107.44,758.51,107.4,781.13z M515.05,588.03c0.67,4.16-1.18,7.12-4.62,9.14c-3.43,2.01-6.68,0.98-9.82-0.95
			c-2.29-1.41-4.32-3.11-6.08-5.12c-1.75-2.01-2.61-1.69-3.77,0.7c-1.87,3.87-3.76,7.89-6.46,11.16c-3.11,3.76-4.43,6.98-3.33,12.21
			c2.72,12.82,6.89,24.47,16.13,34.32c9.01,9.6,25.58,11.14,35.17,4.48c16.3-11.32,21.02-28.12,21.99-46.71
			c0.26-4.98-1.53-7.2-6.7-6.26c-1.6,0.29-3.35,0.15-4.98-0.09c-10.03-1.49-19.91-3.32-24.31-14.37c0.17-0.64,0.4-1.27,0.49-1.92
			c0.43-3,0.71-6.16,4.15-7.33c3.81-1.31,6.69,0.23,9.12,3.26c2.73,3.42,6.46,5.3,10.8,5.46c4.63,0.17,9.26,0.08,13.9-0.74
			c2.89-0.51,3.46-1.64,3.4-4.21c-0.34-14.63-7.82-25.38-20.15-31.6c-17.93-9.04-36.03-7.76-52.64,4.17
			c-9.85,7.07-15.14,21.91-12.28,32.86c3.1-2.85,3.1-2.85,5.03-11.82c1.4-6.46,7.94-9.11,12.34-4.46
			C499.15,577.29,507.14,582.57,515.05,588.03z M517.96,768.99c0,0.01,0,0.02,0,0.02c-22.48,0-44.97,0.1-67.45-0.08
			c-4.51-0.04-5.61,1.25-5.14,5.79c2.17,20.82,3.93,41.68,5.89,62.53c0.98,10.33,2.15,20.65,3.09,30.99
			c0.24,2.64,1.11,3.62,3.95,3.59c15.99-0.15,31.98-0.14,47.96,0c3.13,0.03,4.01-1.08,3.94-4.04c-0.18-8.32-0.21-16.65-0.13-24.98
			c0.03-2.63-0.34-4.53-2.84-6.16c-3.8-2.47-5.11-6.75-6.11-10.94c-1.44-6.06,2.74-15.2,7.95-17.84c7.76-3.94,15.07-2.89,20.47,2.93
			c6.67,7.18,5.9,18.26-1.74,25.26c-1.3,1.19-2.97,1.89-2.93,4.24c0.15,9.66,0.13,19.32,0.07,28.98c-0.01,1.93,0.57,2.53,2.55,2.52
			c16.65-0.08,33.31-0.06,49.96-0.01c2.15,0.01,3.3-0.43,3.5-2.96c0.86-10.91,1.91-21.81,2.94-32.71
			c1.94-20.44,3.88-40.88,5.92-61.31c0.38-3.86,0.12-6.01-4.92-5.94C562.6,769.15,540.28,768.99,517.96,768.99z M517.16,754.05
			c0-0.01,0-0.02,0-0.03c23.66,0,47.32-0.01,70.98,0.01c8.31,0.01,14.14,4.25,16.27,12.05c1.11,4.06,0.9,8.37,0.21,12.4
			c-0.66,3.88,0.93,4.61,4.08,4.96c4.13,0.45,3.18-2.53,3.19-4.61c0.09-11.33-0.01-22.66,0.09-33.99
			c0.16-16.31-8.03-27.26-22.1-34.26c-9.22-4.59-18.7-8.67-27.97-13.18c-2.46-1.19-3.61-1.04-5.04,1.49
			c-3.18,5.63-6.38,11.35-10.34,16.44c-7.42,9.54-14.77,19.21-25.17,25.96c-2.99,1.94-5.67,2.05-8.24,0.04
			c-9.03-7.09-17.08-15.15-23.61-24.64c-3.87-5.62-7.82-11.18-11.06-17.21c-1.16-2.15-2.53-4.13-5.89-2.45
			c-9.36,4.68-18.97,8.84-28.33,13.5c-13.8,6.87-20.78,17.94-20.44,33.6c0.25,11.49,0.07,22.99-0.01,34.49
			c-0.02,2.77-0.05,4.81,3.84,4.58c4.42-0.26,2.83-2.63,2.62-5.1c-1.19-14.46,0.84-24.65,20.42-24.17
			C472.83,754.46,495,754.05,517.16,754.05z M807.94,594.23c1.04,8.03,3.24,16.77,8.32,24.62c14.12,21.8,39.71,21,51.74-2.1
			c5.15-9.89,9.96-20.44,3.95-32.06c-1.9-3.68-3.64-7.49-4.93-11.41c-1.12-3.41-2.35-3.27-5.05-1.53
			c-14.53,9.39-29.86,12.42-46.26,5.1c-1.31-0.58-2.38-1.26-3.11,0.72C810.72,582.66,807.9,587.46,807.94,594.23z M224.07,593.3
			c-0.17-9.07-0.17-9.01-7.38-9.21c-16.94-0.48-32.84-4.43-46.77-14.53c-2.39-1.73-3.11-1.15-4.1,1.35
			c-1.95,4.93-4.37,9.67-6.45,14.54c-1.16,2.72-2.61,5.38-2.14,8.57c1.38,9.45,3.88,18.51,9.26,26.53
			c10.27,15.31,29.52,18.49,42.19,6.76C218.98,617.77,222.76,605.19,224.07,593.3z M534.06,679.12c0-1.83,0.01-2.49,0-3.16
			c-0.09-7.27-0.03-7.04-7.18-5.01c-6.27,1.78-12.75,1.89-19.1,0.13c-6.77-1.87-6.74-1.96-6.74,5.05c0,1.66-0.02,3.33,0.03,4.99
			c0.09,3.54-0.79,6.18-4.72,7.41c-1.39,0.43-2.91,1.25-4.33,1.97c-1.23,0.63-2.54,0.74-1.05,2.97
			c7.21,10.79,14.98,21.09,23.96,30.49c1.95,2.04,3.24,2.35,5.24,0.31c8.65-8.82,16.12-18.54,22.83-28.89
			c1.5-2.31,1.13-3.62-1.4-4.43C535.17,688.89,532.62,684.58,534.06,679.12z M153.29,564.41c1.75-2.71,3.25-5.23,4.95-7.61
			c3.36-4.7,8.47-5.61,14.1-4.06c3.13,0.86,4.27,3.37,6.49,4.9c13.56,9.36,28.75,12.03,44.82,11.57c5.44-0.16,6.05-0.67,5.18-6.05
			c-2.47-15.3-10.8-24.89-26.25-28.68c-11.29-2.77-21.92-2.08-32.47,2.45C160.02,541.24,152.68,553.06,153.29,564.41z M803.08,566.7
			c5.65-9.68,7.99-10.21,16.8-4.81c2.09,1.28,4.16,2.61,6.7,3.2c14.6,3.41,25.98-2.78,36.03-12.27c8.16-7.7,7.46-10.93-2.87-15.96
			c-8.76-4.26-17.99-5.22-27.61-3.92C815.18,535.23,802.07,550.03,803.08,566.7z M841.75,715.79c9.49-13.29,17.73-26.91,24.61-41.35
			c0.74-1.56,1.99-3.11-0.14-4.82c-2.59-2.07-3.62,0.36-4.88,1.54c-4.74,4.44-9.47,8.87-14.61,12.87
			c-3.38,2.62-6.56,2.62-10.02,0.11c-5.55-4.04-10.29-8.95-15.13-13.74c-1.61-1.6-2.7-3.25-5.28-1.64
			c-2.83,1.77-0.74,3.68-0.09,5.15C822.82,688.82,831.84,702.3,841.75,715.79z M191.62,711.51c0.46-0.86,0.68-1.52,1.09-2.02
			c9.58-11.39,17.16-24.03,23.53-37.44c0.86-1.81,0.27-2.62-1.13-3.63c-1.51-1.09-2.43-0.87-3.74,0.41
			c-4.99,4.88-10.09,9.63-15.94,13.52c-3.64,2.42-7.16,2.55-10.51-0.37c-4.75-4.15-9.46-8.35-14.09-12.64
			c-1.36-1.26-2.37-3.01-4.52-1.4c-1.97,1.47-1.24,3.16-0.36,4.87c6.55,12.74,14.22,24.75,23.11,35.99
			C189.64,709.55,190.36,710.19,191.62,711.51z M854.63,652.89c0.01-6.63,0.03-6.58-5.85-5.1c-4.41,1.11-8.84,1.01-13.37,0.45
			c-2.26-0.28-5.81-2.9-6.64-0.3c-1.13,3.52-1.3,7.96,1.45,11.42c1.02,1.28,2.44,2.24,3.64,3.4c2.49,2.4,5.18,6.97,7.36,6.73
			c2.9-0.31,5.39-4.38,8.08-6.8C852.41,659.89,855.79,657.22,854.63,652.89z M202.66,646.75c-9.13,2.26-11.48,2.29-21.05,0.53
			c-1.19-0.22-3.18-1.3-3.44,0.45c-0.55,3.71-1.43,7.91,1.39,11c2.9,3.17,6.47,5.72,9.74,8.56c0.81,0.71,1.47,0.98,2.61,0.36
			C200.44,662.98,203.86,656.53,202.66,646.75z"/>
		<path fill="#06383A" d="M526.67,335.81c1.34,9.34,2.64,18.19,3.88,27.05c2.84,20.24,5.66,40.49,8.47,60.73
			c0.41,2.96,0.27,6.09,1.21,8.86c1.98,5.86-0.49,9.77-4.52,13.59c-4.7,4.46-9.08,9.26-13.54,13.96c-3.13,3.3-6.05,3.46-9.22-0.01
			c-5.49-6.02-11.08-11.96-16.7-17.87c-1.69-1.78-1.83-3.75-1.5-5.99c2.91-19.53,5.81-39.07,8.67-58.61
			c1.99-13.58,3.91-27.17,5.9-41.02c-3.65,0.34-5.18,2.76-7.2,4.35c-7.05,5.55-11.04,5.06-15.79-2.6
			c-4.38-7.05-8.37-14.35-12.6-21.49c-0.74-1.25-1.02-3.57-3.5-2.26c-11.71,6.2-24.23,11.01-34.09,20.32
			c-10.74,10.14-13.8,23.16-13.81,37.22c-0.04,49.48,0.02,98.96-0.01,148.44c0,2.6,0.68,5.42-0.98,7.73
			c-1.61,2.24-3.97,4.01-6.75,3.44c-3.27-0.67-5.42-3.2-6.32-6.43c-0.39-1.41-0.27-2.97-0.27-4.47
			c-0.02-51.31-0.52-102.63,0.2-153.93c0.31-22.06,10.06-40.13,29.62-51.82c12.55-7.49,26.04-13.2,38.95-20.02
			c0.29-0.15,0.6-0.27,0.9-0.41c9.89-4.93,10.83-6.49,11.02-17.19c0.03-1.66-0.97-2.29-1.96-3.17
			c-7.57-6.79-12.72-15.03-14.75-25.08c-0.21-1.06-0.36-1.91-1.69-2c-6.24-0.39-7.5-5.12-8.39-9.95c-0.66-3.6-0.92-7.27-0.11-10.92
			c1.47-6.64-1.71-12.74-2.27-19.17c-2.46-28.15,11.46-49.07,38.81-56.29c22.2-5.87,43.17-3.3,61.62,11.54
			c11.36,9.14,16.66,21.34,16.96,35.68c0.14,6.44-0.08,12.94-2.55,19.14c-0.64,1.61-0.41,3.6-0.41,5.41c0,4.83,0.23,9.66,0.09,14.48
			c-0.12,3.85-1.76,7.9-5.2,8.99c-4.62,1.45-5.35,4.66-6.33,8.28c-2.07,7.66-6.96,13.48-12.41,18.93
			c-4.51,4.51-2.8,14.89,2.73,17.79c14.98,7.87,30.44,14.86,44.92,23.67c15.14,9.21,24.27,22.45,27.58,40.1
			c1.26,6.71,1.81,13.29,1.81,20.01c0.01,48.81-0.01,97.62,0.01,146.44c0,4-0.71,7.3-4.83,9.28c-4.33,2.08-8.75,0.2-9.41-4.56
			c-0.27-1.97-0.17-3.99-0.17-5.99c0.04-49.31-0.08-98.62,0.21-147.93c0.13-21.78-9.18-37.49-28.22-47.68
			c-5.56-2.97-11.32-5.62-16.63-8.98c-3.71-2.35-5.14-0.92-6.62,2.27c-3.37,7.24-7.62,13.99-11.96,20.66
			c-5.16,7.93-8.77,8.24-16.01,2.03C531.68,338.78,530.43,336.34,526.67,335.81z M516.3,271.69c11.24-0.32,19.44-4.03,26.04-11.32
			c8.41-9.29,11.57-20.83,13.35-32.7c1.01-6.71-4.92-11.29-7.41-16.96c-0.8-1.82-1.99-3.48-2.72-5.32
			c-1.13-2.84-2.63-2.81-4.95-1.28c-16.51,10.83-34.83,15.16-54.38,15.03c-5.15-0.04-6.86,1.62-5.99,6.82
			c2.12,12.63,4.46,25.06,14.06,34.95C500.92,267.72,508.86,270.43,516.3,271.69z M560.85,200.3c1.69-13.38-4.16-22.63-13.89-29.09
			c-13.47-8.94-28.73-10.68-44.19-6.56c-19.53,5.21-29.1,17.78-28.98,35.92c0.02,3.61,1.24,4.58,4.63,4.45
			c5.81-0.23,11.6-0.2,17.4-0.92c15.89-1.98,30.84-6.22,43.55-16.57c5.67-4.61,9.23-3.82,13.52,2.37
			C555.21,193.24,556.72,197.2,560.85,200.3z M518.09,382.02c-3,16.73-4.91,33.45-8.02,49.97c-1.09,5.78,4.1,7.83,6.54,11.51
			c0.54,0.81,1.6,0.51,2.15-0.21c3.26-4.23,7.7-7.79,6.04-14.34c-2.24-8.83-2.61-17.97-3.86-26.97
			C520.01,395.32,519.04,388.67,518.09,382.02z M532.98,287.54c-1.24-0.76,2.45-5.77-2.5-4.08c-8.4,2.88-16.56,2.49-24.87,0.2
			c-0.91-0.25-2.39-0.96-2.43,0.32c-0.09,3.26-1.98,7.03,1.55,9.62c3.88,2.86,7.58,5.92,10.83,9.46c2.08,2.27,3.66,2.01,5.71-0.01
			c2.71-2.66,5.47-5.35,8.58-7.5C532.69,293.59,533.84,291.33,532.98,287.54z M551.77,307.86c-0.39-0.51-0.69-1.02-1.09-1.43
			c-3.99-4.16-6.65-4.24-11.01-0.62c-2.15,1.79-4.56,3.27-6.76,5c-4.53,3.55-4.6,4.78-0.65,8.46c2.48,2.3,4.54,6.87,7.53,6.31
			c3.27-0.61,4.39-5.42,6.31-8.5C547.94,314.13,549.74,311.15,551.77,307.86z M496.28,327.1c3.57-3.34,6.62-6.41,9.92-9.19
			c2.15-1.81,1.65-3.56-0.12-4.65c-4.39-2.72-8.06-6.26-11.83-9.67c-4.23-3.83-5.02,1.82-7.58,2.53c-2.53,0.71-1.44,2.37-0.54,3.87
			C489.44,315.53,492.72,321.09,496.28,327.1z"/>
		<path fill="#06383A" d="M113,557.75c-2.65,2.47-5.29,4.4-9.27,2.44c-3.61-1.77-4.31-4.77-4.3-8.23
			c0.12-25.49,0.33-50.97,0.38-76.46c0.03-11.78,3.77-22.05,10.49-31.76c3.06-4.42,3.97-10.37,5.71-15.67
			c4.41-13.49,6.21-27.49,8.1-41.48c1.63-12.04,3.55-24.04,5.43-36.04c1.19-7.62,1.46-15.41,3.64-22.86
			c7.58-25.81,28.33-41.27,55.33-41.83c20.38-0.42,37.02,6.55,48.89,23.49c5.82,8.31,8.85,17.69,8.94,27.83
			c0.14,15.33-0.19,30.66,0,45.98c0.19,15.61,2.84,30.68,10.89,44.43c2.98,5.09,7.18,9.14,10.93,13.57
			c8.62,10.21,12.91,22.02,12.85,35.3c-0.05,11.64,1.06,23.34-0.84,34.92c-1.55,9.45-5.93,17.52-13.04,24.03
			c0.03-11.3,0.23-22.61,0.05-33.91c-0.17-10.75,1.31-21.62-1.08-32.23c-2.03-9.01-5.8-17.35-13.96-22.57
			c-5.02-3.21-10.56-5.6-15.73-8.58c-2.81-1.61-4.42-1.13-4.85,2.04c-1.93,14.16-10.08,25.7-16.33,37.95
			c-4.65,9.1-11.62,16.88-18.11,24.84c-4.69,0.66-9.39,0.71-14.09,0.09c-2.41-2.94-4.84-5.86-7.21-8.82
			c-11.73-14.62-21.51-30.29-26.12-48.73c-2.04-8.15-1.95-7.97-9.93-4.75c-18.34,7.41-27,20.77-26.72,40.63
			C113.37,506.82,113.03,532.29,113,557.75z M131.07,428.01c9.9-3.25,19.18-7.9,28.31-12.81c5.07-2.73,5.09-3.67,1-7.48
			c-8.3-7.73-14.47-16.78-17.83-27.69c-0.36-1.17-0.26-2.74-2.46-3.54C137.02,393.75,135.59,411.17,131.07,428.01
			c-0.1,0.06-0.23,0.1-0.32,0.18c-0.05,0.05-0.03,0.17-0.04,0.26C130.83,428.3,130.95,428.16,131.07,428.01z M189.07,403.13
			c3.06,0.04,5.95-0.44,8.9-1.09c17.64-3.86,35.14-34.52,24.31-54.83c-1.61-3.01-4.06-5.65-8.26-2.35
			c-2.51,1.97-5.67,3.26-8.72,4.34c-14.9,5.29-29.22,4.02-42.79-4.26c-0.98-0.59-2.39-1.82-2.94-0.42c-2.16,5.63-7.12,10.36-6.16,17
			c1.07,7.41,2.86,14.7,6.48,21.3C166.22,394.38,174.92,402.78,189.07,403.13z M146.08,341.49c2.1-3.33,4.11-6.72,6.32-9.98
			c4.29-6.34,8.57-7.05,13.95-2.48c12.28,10.44,26.93,11.26,40.72,2.68c1.89-1.18,3.5-2.81,5.6-3.65c5.3-2.11,10.83-0.31,13.87,5.33
			c1.26,2.33,3.29,3.46,4.78,3.04c1.71-0.49,0.33-2.81-0.01-4.33c-0.32-1.46-0.47-2.97-0.99-4.36
			c-10.29-27.79-41.42-34.11-63.26-22.18C153.35,313.05,147.34,326,146.08,341.49z M211.18,457.49c2.35-7.6,5.6-14.24,7.04-21.71
			c0.81-4.21-0.54-5.43-3.89-6.54c-5.97-1.97-11.24-4.62-10.4-12.43c0.22-2.02-1.09-1.92-2.62-1.43
			c-8.29,2.65-16.63,1.94-24.94,0.02c-1.28,9.66-1.82,10.46-8.75,13.12c-1.24,0.48-2.46,1.03-3.7,1.49
			c-1.5,0.55-2.05,1.65-1.82,3.13c1.29,8.32,3.2,16.45,6.88,24.53c2.72-3.93,5.01-7.35,7.42-10.7c2.43-3.37,4.82-6.79,7.48-9.96
			c4.43-5.28,7.92-5.34,12.15,0.04C201.01,443.42,205.68,450.05,211.18,457.49z M189.68,451.56c-4.11,6.2-7.78,11.91-11.65,17.49
			c-1.07,1.55-0.87,2.69,0.05,4.04c3.28,4.79,6.59,9.57,9.82,14.41c1.47,2.2,2.79,1.93,4.14-0.02c3.12-4.51,6.2-9.04,9.32-13.55
			c0.92-1.33,1.28-2.62,0.31-4.1C197.77,463.93,193.91,458.01,189.68,451.56z M231.37,392.67c-4.57,6.52-8.99,12.02-14.22,16.81
			c-1.23,1.12-1.19,2.51,0.13,3.4c6.52,4.39,13.8,7.07,21.16,9.7C233.88,413.2,234.12,403.01,231.37,392.67z"/>
		<path fill="#06383A" d="M765.82,540.35c-3.51-1.87-6.98-3.82-10.54-5.58c-1.84-0.91-2.04-2.32-2.05-4.09
			c-0.11-21.29-1.19-42.62,0.71-63.87c1.11-12.4,7.66-22.43,15.89-31.43c13.3-14.55,19.44-31.65,18.99-51.38
			c-0.38-16.31-0.32-32.64-0.15-48.96c0.28-26.34,22.15-48.01,48.54-49.16c19.38-0.85,36.05,4.02,48.7,19.53
			c8.17,10.01,11.4,21.82,13.1,34.33c3.93,28.92,6.75,58.05,15.04,86.19c2.45,8.32,4.58,16.72,9.71,24.21
			c5.35,7.8,6.87,17.21,6.89,26.66c0.04,23.98-0.02,47.96-0.05,71.94c0,1.33,0,2.67-0.15,3.99c-0.82,7.35-6.07,9.97-12.29,6.17
			c-0.71-0.43-1.41-0.86-2.12-1.29c0.24-6.14,0.67-12.27,0.7-18.41c0.1-19.48-0.02-38.96,0.08-58.43
			c0.09-18.23-7.17-31.66-24.42-39.12c-6.93-3-6.77-3.31-8.83,3.73c-0.42,1.43-1.01,2.81-1.53,4.21c-7,18.54-21.63,31.7-33.35,46.88
			c-4.29,5.55-8.76,5.11-13.21-0.32c-5.26-6.42-10.25-13.06-15.44-19.53c-7.19-8.97-14.03-18.14-17.89-29.16
			c-3.61-10.32-3.6-10.26-13.66-5.3c-14.6,7.2-21.71,18.9-21.63,35.16c0.09,19.31,0.05,38.62-0.01,57.93
			C766.83,536.97,767.73,538.97,765.82,540.35z M834.01,337.04l-0.09-0.09c0.1,2.18,2.21,2.17,3.43,3.09c3.43,2.62,4.12,6,2.36,9.67
			c-1.76,3.67-4.96,4.59-8.81,3.43c-2.93-0.89-5.42-2.5-7.48-4.72c-3.54-3.83-7.04-7.71-10.66-11.69
			c-1.29,4.54-2.03,8.85-3.72,12.74c-5.13,11.83-2.3,23.06,3.24,33.45c11.38,21.37,31.53,25.7,46.89,14.86
			c13.04-9.2,17.97-23.24,18.91-38.85c0.23-3.74-1.19-5.15-4.74-5.65c-13.62-1.92-25.4-7.77-35.42-17.18
			c-1.82-2.77-3.67-5.51-5.44-8.3c-1.73-2.72-2.9-5.61-2.57-8.94c0.33-3.33,1.29-6.17,4.94-7.23c3.82-1.11,6.26,0.99,7.66,3.96
			c7.19,15.34,20.05,21.92,36.06,23.86c5.11,0.62,5.97-0.3,4.85-5.39c-7.05-32.17-42.85-44.91-68.5-24.37
			c-5.63,4.51-11.56,15.09-11.4,20.62c0.8-1.31,1.51-2.41,2.15-3.55c4.88-8.74,14.06-10.91,18.99,0.09
			c1.75,3.91,4.22,7.92,8.51,10.02C833.45,336.95,833.73,337.01,834.01,337.04z M863.84,456.03c3.43-6.09,5.2-11.92,6.94-17.82
			c1.37-4.65,0.66-7.36-4.37-8.93c-5.74-1.8-10.98-4.49-9.71-12.19c0.31-1.86-0.76-2.22-2.45-1.69c-8.65,2.7-17.31,2.12-25.94-0.2
			c-1.75,10.99-1.75,10.99-12.51,14.91c-0.31,0.11-0.71,0.03-0.96,0.19c-1.14,0.77-2.24,1.78-1.79,3.26
			c2.04,6.69,3.72,13.51,6.89,19.8c0.93,1.85,1.54,2.19,3.39,0.15c4.6-5.07,7.82-11.15,12.41-16.2c5.32-5.84,8.89-5.93,13.79,0.16
			C854.3,443.42,858.84,449.54,863.84,456.03z M900.02,429.18c-5.84-17.42-7.05-34.82-11.27-51.71
			c-3.51,11.4-8.57,21.85-17.16,29.94c-4.35,4.1-2.51,5.69,1.12,8.09C880.94,420.93,889.91,424.85,900.02,429.18z M842.26,450.9
			c-2.76,3.91-5.4,7.52-7.89,11.22c-0.91,1.36-1.68,2.86-1.39,4.67c0.34,2.11,8.52,14.82,9.45,14.38c3.96-1.88,5.4-6.04,7.8-9.34
			c0.59-0.81,1.22-1.59,1.68-2.47c0.64-1.22,0.8-2.47,0.02-3.79C848.98,460.63,846.3,455.51,842.26,450.9z M795.46,423.58
			c5.25-2.45,10.63-4.66,15.72-7.41c4.59-2.48,4.83-5.42,1.31-9.11c-2.29-2.4-4.82-4.61-6.86-7.21c-2.22-2.83-3-1.03-3.4,0.91
			C800.64,408.5,799.02,416.21,795.46,423.58z"/>
		<path fill="#06383A" d="M266.95,659.67c-2.11-0.4-4.32-0.51-6.29-1.26c-3-1.14-5.67-2.79-5.64-6.69
			c0.17-20.63,0.08-41.27,0.58-61.9c0.41-16.78,7.7-29.92,19.51-41.08c8.5-8.03,14.61-17.54,18.18-28.7
			c1.69-5.26,2.71-10.61,2.72-16.14c0.03-17.65,0.07-35.3,0.15-52.95c0.02-4.67,0.51-9.32,1.83-13.8c1.62-5.51,4.55-10,10.56-11.5
			c2.55-0.64,4.11-1.35,2.98-4.65c-1.35-3.95,1.2-6.57,4.24-8.67c10.11-6.96,21.43-9.45,33.53-9.05
			c15.23,0.5,28.09,5.92,37.63,18.18c3.45,4.43,5.55,9.19,5.53,15.07c-0.05,22.64,0.2,45.29,0.36,67.93
			c0.12,18.06,6.69,32.43,22.9,41.87c11.91,6.94,20.91,16.77,26.03,29.82c2.26,5.77,3.72,11.73,3.71,17.91
			c-0.01,24.81-0.16,49.61-0.27,74.42c0,0.82-0.11,1.64-0.2,2.97c-4.61-5-8.9-9.68-13.2-14.35c-0.03-21.63,1.03-43.29-0.69-64.89
			c-0.75-9.42-4.81-17.48-11.55-24.21c-8.05-8.04-18.17-12.92-27.78-18.62c-3.63-2.15-5.32-1.26-6.6,2.4
			c-2.64,7.52-5.3,15.03-8.19,22.46c-6.81,17.5-13.4,35.1-23.28,51.22c-5.48,8.95-10.77,8.9-15.95-0.13
			c-12.71-22.16-21.77-45.96-31.22-69.58c-2.59-6.49-2.38-6.57-8.6-3.93c-19.53,8.29-28.88,22.28-28.91,43.35
			c-0.03,17.49-0.07,34.98,0.01,52.47C269.05,651.81,268.95,655.88,266.95,659.67z M315.76,450.16c-0.9,3.82-1.63,7.3-2.54,10.74
			c-3.79,14.37-1.15,27.7,7.02,39.85c10.23,15.21,28.55,19.43,42.08,9.87c7.08-5,12.42-11.7,15.37-19.81
			c4.54-12.51,4.5-13.45-6.17-22.5c-4.98-4.22-10.29-7.5-17.63-6.01c-12.7,2.58-24.48,0.6-34.14-8.96
			C318.61,452.2,317.23,451.31,315.76,450.16z M344.76,417.83c-4.28-0.82-9.23,0.34-13.71,2.37c-7.69,3.48-13.07,9.29-5.48,18.74
			c6.5,8.08,14.78,11.35,24.79,8.41c8.91-2.61,16.72-1.14,23.89,4.56c1.3,1.03,2.69,1.95,4.02,2.96c1.71,1.29,2.64,1.12,2.76-1.25
			c0.49-10.03-1.49-19.15-9-26.51C364.62,419.85,355.48,417.84,344.76,417.83z M328.78,573.24c6.75-8.52,12.78-17.09,19.82-24.73
			c5.54-6.02,6.37-12.69,6.19-20.23c-7.73,1.89-15.06,0.83-22.57-0.95c0,4.25-0.04,8.22,0.01,12.19c0.1,8.77-2.46,10.64-11.05,7.92
			c-0.63-0.2-1.08-0.61-2.2,0.12C322.14,555.85,325.35,564.26,328.78,573.24z M346.02,611.65c3.74-8.08,7.05-15.27,10.41-22.44
			c0.48-1.03,0.41-1.96-0.17-2.83c-2.38-3.6-4.76-7.2-7.23-10.73c-1.22-1.74-2.33-1.92-3.72,0.16c-2.49,3.72-5.32,7.22-7.98,10.83
			c-1.18,1.6-1.36,3.19-0.44,5.11C339.88,598.02,342.7,604.39,346.02,611.65z M362.96,571.4c3.21-8.31,5.99-15.4,8.67-22.52
			c0.7-1.86,1.13-3.81,1.68-5.72c0.47-1.64-0.36-2.45-1.83-2.94c-1.78-0.6-2.07,0.33-2.63,1.82c-1.59,4.23-4.46,7.73-7.18,11.29
			c-6.09,7.99-6.11,7.98,0.15,16.13C362.11,569.82,362.3,570.26,362.96,571.4z M309.39,510.61c-0.46,8.74-3.66,15.63-6.99,23.74
			c5.22-2.65,9.27-4.52,13.12-6.73c2.35-1.35,4.93-3.74,3.19-6.4C316.35,517.63,313.7,513.99,309.39,510.61z M378.21,514.97
			c-8.56,8.3-8.56,8.3,0.29,13.04c0.29,0.15,0.52,0.44,0.82,0.56c1.71,0.69,2.63,0.39,2.07-1.7
			C380.36,523.08,379.36,519.29,378.21,514.97z"/>
		<path fill="#06383A" d="M600.08,655.98c-3.86,4.74-9.26,8.06-12.31,13.68c-1.53-1.41-0.83-3-0.83-4.34
			c-0.06-22.49-0.35-44.99,0.03-67.47c0.36-21.02,10.7-36.37,29.25-45.72c12.42-6.26,25.42-11.41,38.22-16.91
			c2.49-1.07,3.36-2.62,4.33-5.14c2.77-7.19,0.77-12.31-4.96-16.93c-2.99-2.41-4.43-6.2-5.88-9.74c-1.44-3.51-1.84-7.56-6.8-8.47
			c-2.04-0.38-2.89-2.98-2.89-4.87c0.02-17.61-1.7-35.28,1.67-52.77c0.89-4.64,3.2-8.36,7.49-10.59c1.44-0.75,2.23-1.94,2.86-3.33
			c4.97-11,14.19-16.59,25.42-18.72c13.17-2.49,26.55-2.41,37.95,5.62c12.05,8.5,20.67,19.4,22.64,35.17
			c1.76,14.15-1.23,28.03-0.37,42.06c0.27,4.37-2.63,7.69-7.32,8.48c-1.54,0.26-2.32,0.64-2.59,2.29
			c-1.27,7.73-5.66,13.71-11.05,19.07c-1.95,1.93-4.12,3.71-1.23,6.53c0.2,0.2,0.3,0.64,0.25,0.94c-1.32,7.98,4.47,9.65,10.1,11.93
			c8.75,3.54,17.37,7.43,25.94,11.41c17.51,8.12,26.19,22.44,27.95,41.18c1.89,20.1,0.83,40.28,0.94,60.43
			c0.03,5.33-4.38,8.22-11.93,8.34c-0.85-2.72-1.16-5.49-1.2-8.34c-0.25-18.3,0.28-36.6-0.65-54.91
			c-0.54-10.71-4.1-19.7-11.77-27.14c-6.4-6.2-14.93-8.52-22.53-12.53c-2.05-1.08-3.03,0.69-3.59,2.33
			c-3.54,10.24-8.39,19.89-13.43,29.44c-6.03,11.43-12.82,22.42-20.44,32.84c-4.17,5.7-8.67,5.37-12.95-0.24
			c-1.61-2.11-3.15-4.28-4.65-6.47c-11.53-16.89-22.13-34.3-29.46-53.48c-1.72-4.51-3.74-4.82-7.65-2.61
			c-4.62,2.61-9.64,4.5-14.39,6.87c-16.22,8.09-24.8,20.86-24.46,39.39c0.27,14.65-0.03,29.31,0.15,43.96
			C599.97,650.13,598.22,653.11,600.08,655.98z M656.66,451.44c-0.46,2.49-0.77,4.6-1.26,6.66c-3.64,15.64-1.81,30.3,7.56,43.69
			c11.75,16.81,31.05,18.3,44.19,2.55c12.03-14.42,14.54-30.94,8.14-48.88c-1.35-3.77-1.86-4.13-4.98-1.85
			C691.11,467.68,674.6,467,656.66,451.44z M680.99,448.99c10.83-0.14,18.46-3.96,24.96-9.94c5.83-5.36,5.38-12.86-0.41-17.03
			c-7.93-5.71-30.46-7.22-40.47,3.51c-4.1,4.39-4.84,9-1.45,13.41C668.41,445.15,674.6,448.96,680.99,448.99z M699.94,534.63
			c-0.17-2.51-0.3-4.16-0.4-5.82c-0.09-1.54-0.71-1.98-2.25-1.44c-7.17,2.5-14.4,1.89-21.63,0.3c-1.12-0.25-2.6-0.95-2.53,0.96
			c0.14,3.86-1.18,7.99,2.11,11.34c3.25,3.32,6.41,6.74,9.46,10.25c1.4,1.6,2.25,1.94,3.82,0.08c2.56-3.05,5.33-5.95,8.27-8.63
			C699.2,539.44,700.52,537.07,699.94,534.63z M686.81,604.74c1.13-0.14,1.65-0.99,2.12-1.88c1.39-2.65,2.45-5.54,4.23-7.9
			c3.27-4.32,3.06-7.85-0.89-11.66c-2.33-2.25-3.82-7.23-5.96-7.4c-3.23-0.25-4.26,4.83-6.76,7.16c-2.5,2.32-3.15,4.94-1.36,8.01
			c2.25,3.86,4.46,7.75,6.65,11.65C685.32,603.58,685.6,604.58,686.81,604.74z M703.69,575.46c4.81-7.72,8-15.7,11.68-23.44
			c1.29-2.71-1.22-2.99-2.35-4.09c-1.38-1.35-2.46-0.8-3.67,0.61c-3.89,4.53-7.94,8.93-11.97,13.33c-1.14,1.25-1.61,2.22-0.38,3.83
			C699.28,568.7,701.28,571.92,703.69,575.46z M662.34,546.89c-2.67-0.1-4.87,3.19-3.74,5.83c2.03,4.73,4.2,9.41,6.33,14.09
			c3.69,8.11,3.69,8.1,8.94,1.4c0.51-0.65,0.98-1.39,1.63-1.87c2.18-1.61,1.86-2.98,0.15-4.87c-3.79-4.19-7.33-8.61-10.99-12.92
			C664.04,547.8,663.56,546.8,662.34,546.89z"/>
		<path fill="#36A781" d="M107.4,781.13c0.04-22.62-0.97-45.26,0.55-67.87c0.78-11.66,7.01-19.5,16.62-25.95
			c7.59-5.1,16.49-6.87,24.06-11.65c2.06-1.31,3.04-0.52,3.96,1.75c7,17.32,18.27,31.91,29.99,46.16
			c6.31,7.68,10.95,7.26,17.32-0.32c11.64-13.83,21.74-28.56,28.14-45.6c0.66-1.75,1.49-3.36,3.53-2.18
			c9.84,5.69,21.63,7.86,29.65,16.92c5.31,6.01,8.59,12.93,8.68,20.68c0.29,26.3,0.03,52.61-0.02,78.92
			c-4.97-0.08-9.93-0.16-14.9-0.24c0.02-19.13,0.01-38.25,0.06-57.38c0.01-4.58-2.73-6.85-6.69-7.16c-3.7-0.29-6.28,1.81-6.55,5.9
			c-0.19,2.81-0.52,5.62-0.54,8.44c-0.1,16.46-0.12,32.93-0.17,49.39c-20.62,0.51-41.11-1.37-61.66-2.65
			c-13.39-0.83-26.66-3.07-40.09-3.25c-0.03-16.77-0.04-33.55-0.09-50.33c-0.02-4.53-2.85-7.56-7.25-7.54
			c-4.61,0.02-5.66,3.64-5.93,7.12c-0.89,11.42-1.03,22.87-0.91,34.32c0.05,4.81-0.17,9.62-0.27,14.42
			C118.96,783.26,113.25,781.54,107.4,781.13z"/>
		<path fill="#36A781" d="M759.18,792.15c-0.04-25.96-0.68-51.94,0.09-77.87c0.48-15.92,10.43-25.99,24.86-31.84
			c4.31-1.75,8.63-3.5,12.78-5.58c2.62-1.32,4.21-1.28,5.45,1.65c7.34,17.43,17.77,32.97,29.33,47.83
			c9.1,11.69,10.47,11.18,18.53,0.96c11.38-14.43,20.96-29.92,27.93-46.93c1.7-4.15,3.32-4.71,7.17-2.48
			c4.26,2.47,9,4.13,13.55,6.09c14.07,6.07,24.5,18.58,24.2,34.91c-0.39,20.96-0.12,41.94-0.13,62.91
			c-5.8,1.58-11.99,0.14-17.71,2.33c-0.09-1.65-0.25-3.31-0.25-4.97c-0.03-13.95,0.01-27.91-0.05-41.86
			c-0.02-5.66-4.12-8.86-9.14-7.1c-3.64,1.28-4.68,4.23-4.68,7.91c-0.01,15.61-0.14,31.22-0.23,46.83
			c-33.85,3.22-67.7,6.51-101.77,6.14c-0.07-2.66-0.2-5.31-0.2-7.97c-0.01-17.78,0.05-35.56-0.01-53.34
			c-0.01-2.04,0.66-4.33-1.49-5.97c-2.16-1.65-4.32-3.42-7.19-2.25c-3.07,1.25-4.19,3.79-4.42,7.11
			c-1.33,19.25-0.33,38.52-0.62,57.78c-0.03,1.8,0.45,3.61,0.69,5.41C770.31,791.96,764.75,792.05,759.18,792.15z"/>
		<path fill="#06383A" d="M640.02,348.19c-1.08-2.42-1.81-5.09-3.32-7.19c-3.29-4.57-1.3-6.84,2.96-8.78
			c6.34-2.88,12.53-6.06,18.88-8.91c2.32-1.04,3.25-2.26,3.82-4.97c1.64-7.81,0.7-14.29-5.71-19.83c-2.8-2.42-4.4-6.18-5.84-9.76
			c-1.86-4.6-2.18-9.94-8.6-11.82c-3.16-0.93-4.4-5.19-4.45-8.88c-0.13-9.06-0.9-17.95-2.38-26.98
			c-2.03-12.41-1.68-25.26,5.33-36.74c7.76-12.71,19.57-19.76,33.68-22.73c17.94-3.76,35.29-2.1,51.13,8.2
			c13.34,8.68,19.44,21.32,20.03,36.87c0.3,8,0,15.96-3.07,23.58c-1.3,3.21-0.27,6.6,0.01,9.88c0.3,3.52,0.29,6.97-0.4,10.43
			c-0.54,2.7-1.63,5.97-3.9,6.62c-5.84,1.65-6.3,6.43-7.76,10.82c-2.11,6.33-6.48,11.18-10.87,15.92c-2.3,2.48-1.87,5.07-2.25,8.02
			c-1.22,9.58,5.16,12.11,11.86,15.28c9.88,4.68,20.08,8.76,29.41,14.57c15.01,9.34,22.76,31.75,16.3,47.18
			c-4.55,1.35-8.7,1.29-10.62-4c-0.9-2.47-1.23-5.13-1.3-7.84c-0.23-9.19-4.34-16.44-11.54-22.01c-4.99-3.86-11.03-5.78-16.39-8.92
			c-2.64-1.55-3.31-1.31-4.58,1.43c-4.75,10.22-9.74,20.33-16.17,29.65c-4.17,6.05-9.15,6.4-13.79,0.91c-3-3.54-6-7.12-8.61-10.95
			c-1.98-2.9-3.01-2.04-4.62,0.2c-2.71,3.77-5.47,7.54-8.53,11.03c-4.24,4.84-8.29,4.5-12.45-0.37
			c-6.56-7.68-11.01-16.61-15.49-25.52C647.15,345.37,647.23,345.33,640.02,348.19z M690.15,300.99c7.28-0.05,13.6-2.63,18.86-7.71
			c10.26-9.92,13.6-22.82,15.65-36.29c0.38-2.48-1.21-2.58-2.94-2.92c-12.69-2.52-24.06-7.52-32.52-17.77
			c-1.59-1.93-2.79-1.88-4.22,0.2c-6.48,9.45-15.19,16.14-25.74,20.48c-2.22,0.91-2.84,2.22-2.44,4.64
			c1.36,8.09,3.4,15.98,7.74,22.98C670.41,294.05,678.27,300.75,690.15,300.99z M648.98,231.78c0,0.83,0,1.67,0,2.5
			c0.03,8.51,2.44,10.11,10.24,6.06c6.88-3.58,12.63-8.69,16.4-15.59c5.01-9.2,9.9-7.83,17.83-4.27c1.82,0.82,3.13,2.39,4.45,3.92
			c7.89,9.12,17.95,14.02,29.91,15.18c1.36,0.13,2.99,0.67,3.06-1.3c0.39-10.85,0.98-21.71-7.47-30.49
			c-10.34-10.74-23.17-14.74-37.56-13.55C664.96,195.96,647.19,207.82,648.98,231.78z M702.08,313c-7.32,2.97-14.94,2.94-22.6,0.66
			c-1.05-0.31-2.56-0.97-2.47,1.01c0.23,4.74-1.68,10.03,3.59,13.55c1.61,1.08,2.81,2.79,4.15,4.26c5.02,5.5,4.65,5.07,10.34,0.38
			C701.55,327.55,704.93,321.68,702.08,313z M673.45,363.46c2.55-3.58,4.65-6.96,7.21-9.96c1.81-2.12,1.14-3.29-0.49-4.93
			c-4.07-4.12-8-8.38-11.94-12.62c-0.99-1.06-1.77-2.86-3.38-0.89c-1.38,1.68-5.78,1.49-4.01,5.06
			C664.73,347.89,668.32,355.87,673.45,363.46z M707.44,362.59c3.36-6.48,6.73-13.25,10.37-19.87c1.57-2.85,1.14-4.45-1.48-6.5
			c-2.99-2.35-4.33-0.64-6.04,1.27c-1.21,1.35-2.53,2.61-3.77,3.94c-9.69,10.36-9.69,10.36-0.09,21.1
			C706.5,362.61,706.71,362.55,707.44,362.59z"/>
		<path fill="#06383A" d="M261.27,390.02c-4.86-10.24-2.28-20.16,1.79-29.74c5.01-11.81,14.78-18.86,26.02-24.15
			c9.3-4.38,18.53-8.89,27.93-13.03c2.45-1.08,2.74-2.51,3.2-4.79c1.58-7.87,0.02-14.16-6.26-19.83
			c-4.67-4.21-6.93-10.46-8.67-16.59c-0.41-1.44-0.45-2.64-2.53-2.99c-5.26-0.89-7.74-5.09-7.68-9.65
			c0.16-10.98-2.45-21.54-3.62-32.29c-3.24-29.79,14.66-51.72,44.52-56.04c13.03-1.89,25.9-1.69,38.14,3.65
			c22.89,9.98,31.41,28.69,29.57,51.78c-0.38,4.78-1.35,9.46-2.86,14.07c-1.43,4.35,0.53,8.82,0.33,13.3
			c-0.3,7.02-1.1,13.42-9.42,15.42c-1.71,0.41-1.45,1.94-1.77,3.2c-2.01,7.99-5.78,14.92-12.08,20.43
			c-2.34,2.05-5.36,4.19-2.61,8.14c0.43,0.61-0.06,1.92-0.22,2.89c-0.85,5.06,0.89,8.21,5.91,10.25c5.97,2.42,11.51,5.84,17.35,8.6
			c2.85,1.35,2.93,2.74,1.48,5.32c-1.6,2.86-2.58,6.06-3.83,9.11c-5.58-3.97-5.59-3.98-8.45,2.06c-0.64,1.35-1.11,2.79-1.79,4.12
			c-4.52,8.88-8.67,18-15.14,25.69c-3.51,4.17-7.28,4.13-11,0.12c-2.71-2.91-5.06-6.16-7.45-9.36c-3.77-5.05-3.95-5.05-7.57-0.11
			c-2.16,2.95-4.42,5.84-6.76,8.65c-4.33,5.22-9,5.1-13.15-0.24c-5.55-7.14-9.61-15.15-13.67-23.17c-1.71-3.38-2.5-8.5-5.18-9.81
			c-3.29-1.6-7,2.65-10.59,4.2c-13.69,5.9-22.53,15.44-23.22,31.26C271.67,388.38,269.37,390.03,261.27,390.02z M328.19,248.06
			c-2.16,0-4.33,0-6.49,0c-5.11,0-9.2,4.09-8.38,9.27c1.65,10.49,4.24,20.68,10.35,29.74c11.88,17.61,35.03,18.49,47.73,1.54
			c5.61-7.48,8.67-16.13,10.41-25.19c0.5-2.6,1.72-5.47-0.13-8.22c-3.53-5.23-7.03-10.48-10.36-15.84
			c-1.07-1.73-1.96-1.86-3.54-0.86C355.66,246.14,342.22,248.35,328.19,248.06z M305.53,238.27c2.96-4.81,7.32-5.41,12.22-5.16
			c4.65,0.24,9.32-0.12,13.97,0.05c13.02,0.49,24.47-3.45,34.55-11.66c3.67-2.99,7.06-2.58,10.6,0.81c3.02,2.89,5.29,6.37,7.75,9.71
			c0.8,1.09,1.6,3.01,3.34,2.37c1.38-0.51,1-2.29,1.07-3.6c0.89-16.35-9.45-29.68-25.55-34.03c-8.28-2.23-16.43-3.43-24.86-1.83
			c-11.88,2.26-22.64,6.5-28.9,17.83C305.38,220.63,305.22,229.29,305.53,238.27z M335,312.78c0.81,4.54-1.73,9.07,1.43,12.81
			c3.09,3.66,6.63,6.95,9.98,10.39c0.65,0.67,1.33,1.92,2.38,0.94c4.1-3.85,8.77-7.36,11.86-11.92c2.08-3.07,0.66-7.68,0.21-12.05
			C352.25,316.03,343.82,315.98,335,312.78z M364.73,363.05c4.04-7.73,7.59-14.79,11.4-21.72c1.82-3.31-0.7-4.15-2.45-5.87
			c-2.21-2.16-3.06-0.3-4.25,0.92c-3.93,4.02-7.78,8.13-11.81,12.05c-1.77,1.72-2.03,3.22-0.46,5.13
			C359.55,356.5,361.89,359.49,364.73,363.05z M331.77,363.36c2.72-3.56,4.9-6.63,7.32-9.5c1.67-1.97,1.26-3.38-0.37-5.07
			c-4.14-4.28-8.26-8.6-12.2-13.06c-1.33-1.51-2.38-1.63-3.61-0.29c-1.25,1.37-4.59,1.53-3.02,4.64
			C323.71,347.7,327.63,355.27,331.77,363.36z"/>
		<path fill="#36A781" d="M600.08,655.98c-1.86-2.88-0.12-5.85-0.15-8.77c-0.18-14.65,0.12-29.31-0.15-43.96
			c-0.34-18.52,8.24-31.29,24.46-39.39c4.76-2.37,9.77-4.26,14.39-6.87c3.91-2.21,5.93-1.9,7.65,2.61
			c7.33,19.17,17.93,36.59,29.46,53.48c1.5,2.19,3.04,4.36,4.65,6.47c4.28,5.6,8.78,5.94,12.95,0.24
			c7.62-10.42,14.41-21.41,20.44-32.84c5.04-9.55,9.89-19.2,13.43-29.44c0.57-1.64,1.55-3.41,3.59-2.33
			c7.6,4.01,16.14,6.33,22.53,12.53c7.68,7.44,11.23,16.43,11.77,27.14c0.93,18.31,0.4,36.61,0.65,54.91
			c0.04,2.85,0.35,5.63,1.2,8.34c-5.17,2.55-10.46,4.91-14.72,8.96c-0.02-18.77-0.02-37.55-0.09-56.32
			c-0.02-5.42-2.27-7.85-6.84-7.74c-4.25,0.1-6.31,2.49-6.35,7.68c-0.09,14.12-0.07,28.25-0.17,42.37c-0.01,1.7,0.79,3.72-1.15,5.02
			c-5.16-1.81-8.76-6.16-13.89-8.18c-16.68-6.57-33.28-7.27-49.71,0.35c-3.96,1.84-6.94,2.28-10.99,0.1
			c-10.6-5.68-22.34-5.58-34-5.48c-0.04-10.79-0.13-21.57-0.1-32.36c0.01-3.53-1.58-5.79-4.91-6.46c-3.28-0.65-6.29-0.08-7.94,3.46
			c-0.88,1.88-0.97,3.83-0.97,5.83c-0.01,10.95-0.04,21.9-0.06,32.86C610.08,650.78,605.08,653.38,600.08,655.98z"/>
		<path fill="#36A781" d="M266.95,659.67c2-3.79,2.1-7.86,2.08-12.03c-0.08-17.49-0.04-34.98-0.01-52.47
			c0.04-21.07,9.39-35.06,28.91-43.35c6.22-2.64,6.01-2.55,8.6,3.93c9.44,23.62,18.5,47.42,31.22,69.58
			c5.18,9.03,10.47,9.07,15.95,0.13c9.87-16.12,16.46-33.72,23.28-51.22c2.89-7.42,5.55-14.94,8.19-22.46
			c1.28-3.66,2.98-4.55,6.6-2.4c9.61,5.7,19.73,10.58,27.78,18.62c6.74,6.73,10.8,14.79,11.55,24.21
			c1.72,21.6,0.66,43.26,0.69,64.89c-4.59-2.61-9.18-5.22-13.78-7.83c0.03-15.99,0.08-31.98,0.07-47.98c0-5.39-2.5-8.31-6.94-8.35
			c-4.33-0.04-6.15,2.42-6.28,8.27c-0.31,14.64-0.66,29.27-0.99,43.91c-13.91-0.84-27.52-0.02-40.01,7.09
			c-1.37,0.78-2.31,0.46-3.61-0.22c-21.27-11.01-41.98-9.31-62.17,2.92c-0.02-13.44-0.06-26.88-0.05-40.33
			c0-2.79-0.32-5.17-3.38-6.5c-5.84-2.55-10.48,0.46-10.52,7.34c-0.11,16.76-0.04,33.52-0.03,50.29c0,1.14-0.24,2.35,0.81,3.24
			c-1.24,3.39-2.82,3.45-5.14,0.78C276.17,665.56,271.71,662.41,266.95,659.67z"/>
		<path fill="#36A781" d="M765.82,540.35c1.9-1.38,1.01-3.38,1.01-5.09c0.06-19.31,0.11-38.62,0.01-57.93
			c-0.08-16.26,7.03-27.96,21.63-35.16c10.06-4.96,10.05-5.02,13.66,5.3c3.86,11.02,10.7,20.19,17.89,29.16
			c5.19,6.48,10.18,13.11,15.44,19.53c4.45,5.43,8.92,5.88,13.21,0.32c11.73-15.18,26.35-28.33,33.35-46.88
			c0.53-1.4,1.12-2.78,1.53-4.21c2.05-7.04,1.9-6.73,8.83-3.73c17.25,7.46,24.52,20.89,24.42,39.12
			c-0.1,19.48,0.02,38.96-0.08,58.43c-0.03,6.14-0.45,12.27-0.7,18.41c-8.31,0.53-8.52,0.57-9.9-7.17c-1-5.6-3.41-10.52-6.08-15.39
			c3.11-0.79,2.8-3.42,2.81-5.63c0.08-15.63,0-31.26,0.09-46.89c0.02-4.44-2.98-6.51-6.38-7.02c-3.38-0.51-5.92,2.05-6.78,5.42
			c-0.56,2.22-0.57,4.6-0.64,6.91c-0.33,10.78,0.47,21.58-0.55,32.36c-4.43-2.87-8.59-6.36-13.35-8.51
			c-27.59-12.45-54.21-11.44-79.33,6.62c-0.52,0.38-1.18,0.57-1.77,0.85c-0.89-11.28-0.12-22.57-0.31-33.86
			c-0.11-6.16-2.4-9.23-7.15-9.32c-4.67-0.08-6.76,2.51-6.77,8.89c-0.02,17.11,0.08,34.22,0.12,51.34c0.02,0.16,0.09,0.35,0.05,0.49
			c-1.35,3.84-2.41,7.8-4.76,11.22C772.16,545.4,768.99,542.87,765.82,540.35z"/>
		<path fill="#06383A" d="M517.01,511.35c-21.82,0-43.63-0.01-65.45,0c-6.61,0-8.6-1.92-8.6-8.54
			c-0.01-39.64-0.01-79.27-0.01-118.91c0-2.15-0.2-4.34,0.95-6.33c1.58-2.75,3.59-5.05,7.08-4.26c3.27,0.74,5.74,2.67,5.99,6.39
			c0.13,1.82,0.09,3.66,0.09,5.49c0,35.31,0.06,70.61-0.11,105.92c-0.02,4.33,0.75,5.97,5.6,5.94c36.64-0.22,73.28-0.21,109.91,0.02
			c5.21,0.03,6.37-1.61,6.34-6.53c-0.19-34.97-0.08-69.95-0.07-104.92c0-2-0.11-4.02,0.16-5.99c0.52-3.75,3.05-6.22,6.55-6.45
			c3.28-0.22,6.07,1.77,6.94,5.31c0.43,1.75,0.53,3.61,0.53,5.42c0.04,39.3,0.04,78.61,0.04,117.91c0,7.39-2.14,9.46-9.52,9.45
			c-22.15-0.02-44.3-0.01-66.45-0.01C517.01,511.29,517.01,511.32,517.01,511.35z"/>
		<path fill="#36A781" d="M261.27,390.02c8.1,0,10.4-1.65,10.75-9.56c0.69-15.81,9.53-25.36,23.22-31.26
			c3.59-1.55,7.3-5.8,10.59-4.2c2.68,1.3,3.46,6.42,5.18,9.81c4.06,8.01,8.12,16.03,13.67,23.17c4.15,5.33,8.82,5.46,13.15,0.24
			c2.34-2.82,4.6-5.7,6.76-8.65c3.62-4.94,3.8-4.94,7.57,0.11c2.39,3.2,4.74,6.45,7.45,9.36c3.72,4,7.49,4.05,11-0.12
			c6.47-7.69,10.62-16.81,15.14-25.69c0.68-1.33,1.15-2.76,1.79-4.12c2.86-6.04,2.87-6.03,8.45-2.06
			c-5.65,15.39-3.81,31.43-4.03,47.28c-0.04,2.81,0.05,5.62-1.13,8.53c-4.02-1.92-7.33-4.93-11.39-6.74
			c-28.07-12.48-54.35-10.05-78.75,9.06c-0.64,0.5-1.37,0.91-2.05,1.36c-0.19-1.97-0.49-3.93-0.55-5.9
			c-0.15-5.16-2.06-7.55-6.34-7.72c-4.63-0.19-7.61,2.64-7.7,7.7c-0.14,8.45-0.09,16.91-0.11,25.36c0,1.13-0.25,2.37,1.01,3.1
			c-0.67,1.84-1.33,3.67-2.24,6.17C270.9,421.89,260.94,408.44,261.27,390.02z"/>
		<path fill="#36A781" d="M640.02,348.19c7.21-2.85,7.13-2.82,10.76,4.39c4.48,8.91,8.94,17.84,15.49,25.52
			c4.16,4.86,8.21,5.2,12.45,0.37c3.06-3.49,5.82-7.25,8.53-11.03c1.61-2.24,2.65-3.1,4.62-0.2c2.61,3.83,5.61,7.4,8.61,10.95
			c4.65,5.5,9.62,5.14,13.79-0.91c6.43-9.31,11.42-19.43,16.17-29.65c1.27-2.74,1.94-2.97,4.58-1.43c5.36,3.14,11.4,5.06,16.39,8.92
			c7.2,5.57,11.31,12.82,11.54,22.01c0.07,2.71,0.4,5.36,1.3,7.84c1.92,5.29,6.06,5.34,10.62,4c-0.11,13.06-5.8,23.85-13.9,33.57
			c-2.16,2.6-3.68,5.92-7.12,7.31c-0.01-8.49-0.04-16.99,0-25.48c0.01-2.39-0.27-4.63-1.61-6.68c-2.31-3.54-5.87-2.76-9.05-2.34
			c-2.84,0.38-3.15,2.98-3.33,5.42c-0.29,3.8-0.7,7.59-1.06,11.39c-7.57-7.08-15.31-13.67-25.1-17.91c-17-7.36-33.8-6.88-50.86-0.9
			c-6.72,2.35-12.81,5.87-18.78,10.98C642.94,384.98,645.98,366.23,640.02,348.19z"/>
		<path fill="#36A781" d="M113,557.75c0.04-25.46,0.37-50.93,0.02-76.38c-0.27-19.86,8.39-33.22,26.72-40.63
			c7.98-3.22,7.9-3.4,9.93,4.75c4.61,18.44,14.38,34.11,26.12,48.73c2.38,2.96,4.81,5.88,7.21,8.82c-7.12,1.8-14.28,3.32-21.21,5.94
			c-7.35,2.78-13.6,7.16-19.79,11.77c-0.04-12.29-0.06-24.57-0.14-36.86c-0.03-4.84-2.75-7.85-6.97-7.89
			c-3.85-0.03-6.84,3.05-6.85,7.51c-0.03,16.27,0.04,32.55,0.15,48.82c0.01,1.72-0.4,3.78,1.82,4.74
			c-2.56,6.29-6.08,12.26-6.59,19.26c-0.14,1.95-1.6,1.78-2.95,1.72C117.98,557.96,115.49,557.85,113,557.75z"/>
		<path fill="#36A781" d="M197.1,502.96c6.49-7.96,13.46-15.73,18.11-24.84c6.25-12.25,14.4-23.79,16.33-37.95
			c0.43-3.17,2.05-3.66,4.85-2.04c5.18,2.98,10.71,5.37,15.73,8.58c8.16,5.22,11.93,13.56,13.96,22.57
			c2.39,10.62,0.91,21.48,1.08,32.23c0.18,11.3-0.02,22.61-0.05,33.91c-3.69,4.14-7.38,8.29-11.58,13
			c-0.81-3.49-2.82-5.77-2.52-8.83c0.32-2.46,0.9-4.92,0.92-7.38c0.09-15.94,0.08-31.89,0.05-47.84c-0.01-5.09-2.85-8.32-7.15-8.38
			c-4.46-0.06-6.7,2.72-6.72,8.5c-0.05,10.46-0.02,20.93-0.1,31.39c-0.01,1.73,0.75,3.71-1.06,5.1
			C226.84,510.71,212.43,505.76,197.1,502.96z"/>
		<path fill="#06383A" d="M775.88,791.87c-0.24-1.8-0.72-3.61-0.69-5.41c0.29-19.26-0.71-38.53,0.62-57.78
			c0.23-3.32,1.35-5.86,4.42-7.11c2.87-1.17,5.03,0.6,7.19,2.25c2.14,1.64,1.48,3.94,1.49,5.97c0.06,17.78,0.01,35.56,0.01,53.34
			c0,2.66,0.13,5.31,0.2,7.97C784.91,794.9,780.52,795.49,775.88,791.87z"/>
		<path fill="#06383A" d="M241.08,790.95c0.05-16.46,0.07-32.93,0.17-49.39c0.02-2.81,0.35-5.62,0.54-8.44
			c0.27-4.1,2.85-6.19,6.55-5.9c3.96,0.31,6.7,2.58,6.69,7.16c-0.06,19.13-0.05,38.25-0.06,57.38
			C250.13,795.03,245.46,795.41,241.08,790.95z"/>
		<path fill="#06383A" d="M737.65,658.06c1.94-1.31,1.14-3.32,1.15-5.02c0.11-14.12,0.09-28.25,0.17-42.37
			c0.03-5.19,2.1-7.58,6.35-7.68c4.57-0.1,6.82,2.33,6.84,7.74c0.07,18.77,0.06,37.55,0.09,56.32c-1.47,1.72-2.94,3.45-4.74,5.55
			C744.83,667.03,740.05,663.4,737.65,658.06z"/>
		<path fill="#06383A" d="M124.87,783.05c0.1-4.81,0.32-9.62,0.27-14.42c-0.13-11.45,0.02-22.9,0.91-34.32
			c0.27-3.48,1.32-7.1,5.93-7.12c4.4-0.02,7.24,3.01,7.25,7.54c0.06,16.78,0.07,33.55,0.09,50.33
			C133.58,791.15,129.61,790.6,124.87,783.05z"/>
		<path fill="#06383A" d="M890.89,784.96c0.09-15.61,0.22-31.22,0.23-46.83c0-3.68,1.04-6.63,4.68-7.91
			c5.02-1.76,9.11,1.44,9.14,7.1c0.06,13.95,0.03,27.91,0.05,41.86c0,1.66,0.16,3.31,0.25,4.97
			C901.95,791.48,895.98,791.82,890.89,784.96z"/>
		<path fill="#06383A" d="M238.95,520.99c1.81-1.39,1.05-3.37,1.06-5.1c0.08-10.46,0.05-20.93,0.1-31.39
			c0.03-5.78,2.27-8.56,6.72-8.5c4.29,0.06,7.14,3.29,7.15,8.38c0.03,15.95,0.04,31.89-0.05,47.84c-0.01,2.46-0.6,4.92-0.92,7.38
			C247.92,533.69,244.58,526.48,238.95,520.99z"/>
		<path fill="#06383A" d="M284.92,668.94c-1.05-0.89-0.81-2.1-0.81-3.24c-0.01-16.76-0.08-33.52,0.03-50.29
			c0.04-6.88,4.68-9.89,10.52-7.34c3.05,1.34,3.38,3.71,3.38,6.5c-0.01,13.44,0.03,26.88,0.05,40.33
			C293.12,659.04,288.39,663.39,284.92,668.94z"/>
		<path fill="#06383A" d="M130.02,537.08c-2.22-0.95-1.81-3.01-1.82-4.74c-0.1-16.27-0.18-32.55-0.15-48.82
			c0.01-4.46,3-7.54,6.85-7.51c4.22,0.03,6.94,3.05,6.97,7.89c0.07,12.29,0.1,24.57,0.14,36.86
			C137.58,525.88,133.39,531.18,130.02,537.08z"/>
		<path fill="#06383A" d="M888.6,520.2c1.01-10.77,0.21-21.57,0.55-32.36c0.07-2.31,0.08-4.69,0.64-6.91
			c0.86-3.37,3.41-5.93,6.78-5.42c3.4,0.51,6.4,2.58,6.38,7.02c-0.08,15.63-0.01,31.26-0.09,46.89c-0.01,2.22,0.31,4.85-2.81,5.63
			C896.24,530.11,892.42,525.16,888.6,520.2z"/>
		<path fill="#06383A" d="M403.89,645.11c0.33-14.64,0.68-29.27,0.99-43.91c0.12-5.85,1.95-8.3,6.28-8.27
			c4.44,0.04,6.94,2.96,6.94,8.35c0.01,15.99-0.04,31.98-0.07,47.98C413.31,647.88,408.6,646.5,403.89,645.11z"/>
		<path fill="#06383A" d="M780.05,536.21c-0.05-17.11-0.14-34.22-0.12-51.34c0.01-6.38,2.1-8.97,6.77-8.89
			c4.74,0.09,7.04,3.16,7.15,9.32c0.2,11.29-0.58,22.58,0.31,33.86C788.85,524.35,784.56,530.38,780.05,536.21z"/>
		<path fill="#06383A" d="M615.08,648.18c0.02-10.95,0.05-21.9,0.06-32.86c0-2,0.09-3.94,0.97-5.83c1.66-3.54,4.66-4.12,7.94-3.46
			c3.33,0.66,4.92,2.93,4.91,6.46c-0.03,10.79,0.06,21.57,0.1,32.36C624.4,645.97,619.74,647.07,615.08,648.18z"/>
		<path fill="#06383A" d="M738.8,412.14c0.36-3.8,0.77-7.59,1.06-11.39c0.19-2.43,0.49-5.04,3.33-5.42c3.18-0.42,6.74-1.2,9.05,2.34
			c1.34,2.05,1.62,4.29,1.61,6.68c-0.05,8.49-0.01,16.99,0,25.48c-0.91,1.14-1.82,2.28-3.35,4.2
			C747.88,425.57,742.27,419.48,738.8,412.14z"/>
		<path fill="#06383A" d="M284.93,429.07c-1.25-0.74-1.01-1.97-1.01-3.1c0.01-8.45-0.04-16.91,0.11-25.36
			c0.09-5.06,3.07-7.89,7.7-7.7c4.28,0.18,6.19,2.56,6.34,7.72c0.06,1.97,0.36,3.93,0.55,5.9
			C293.15,413.5,287.39,420.28,284.93,429.07z"/>
		<path fill="#FDFEFE" d="M517.96,768.99c22.32,0,44.64,0.17,66.95-0.13c5.04-0.07,5.31,2.08,4.92,5.94
			c-2.04,20.43-3.98,40.87-5.92,61.31c-1.04,10.9-2.08,21.8-2.94,32.71c-0.2,2.52-1.35,2.96-3.5,2.96
			c-16.65-0.05-33.31-0.07-49.96,0.01c-1.99,0.01-2.57-0.58-2.55-2.52c0.06-9.66,0.08-19.32-0.07-28.98
			c-0.04-2.35,1.63-3.05,2.93-4.24c7.65-7,8.41-18.08,1.74-25.26c-5.4-5.82-12.71-6.87-20.47-2.93c-5.2,2.64-9.38,11.78-7.95,17.84
			c0.99,4.19,2.31,8.46,6.11,10.94c2.5,1.63,2.87,3.53,2.84,6.16c-0.08,8.33-0.05,16.65,0.13,24.98c0.06,2.96-0.82,4.07-3.94,4.04
			c-15.99-0.14-31.98-0.15-47.96,0c-2.84,0.03-3.71-0.95-3.95-3.59c-0.94-10.34-2.11-20.65-3.09-30.99
			c-1.97-20.84-3.72-41.71-5.89-62.53c-0.47-4.53,0.63-5.82,5.14-5.79c22.48,0.18,44.97,0.08,67.45,0.08
			C517.96,769,517.96,768.99,517.96,768.99z"/>
		<path fill="#36A781" d="M517.16,754.05c-22.16,0-44.33,0.41-66.48-0.12c-19.59-0.47-21.61,9.71-20.42,24.17
			c0.2,2.47,1.8,4.84-2.62,5.1c-3.9,0.23-3.87-1.81-3.84-4.58c0.08-11.5,0.26-23,0.01-34.49c-0.34-15.66,6.64-26.74,20.44-33.6
			c9.37-4.66,18.98-8.83,28.33-13.5c3.36-1.68,4.74,0.29,5.89,2.45c3.24,6.04,7.19,11.59,11.06,17.21
			c6.53,9.49,14.58,17.55,23.61,24.64c2.57,2.01,5.24,1.9,8.24-0.04c10.4-6.74,17.76-16.42,25.17-25.96
			c3.96-5.09,7.16-10.8,10.34-16.44c1.43-2.53,2.58-2.68,5.04-1.49c9.27,4.51,18.75,8.59,27.97,13.18
			c14.07,7,22.25,17.95,22.1,34.26c-0.11,11.33,0,22.66-0.09,33.99c-0.02,2.09,0.93,5.06-3.19,4.61c-3.15-0.34-4.74-1.07-4.08-4.96
			c0.69-4.04,0.9-8.34-0.21-12.4c-2.13-7.81-7.96-12.05-16.27-12.05c-23.66-0.02-47.32-0.01-70.98-0.01
			C517.16,754.03,517.16,754.04,517.16,754.05z"/>
		<path fill="#FDFEFE" d="M518.28,586.53c4.4,11.05,14.27,12.88,24.31,14.37c1.63,0.24,3.37,0.38,4.98,0.09
			c5.18-0.94,6.96,1.29,6.7,6.26c-0.97,18.59-5.68,35.4-21.99,46.71c-9.59,6.66-26.16,5.12-35.17-4.48
			c-9.25-9.85-13.42-21.5-16.13-34.32c-1.11-5.23,0.21-8.45,3.33-12.21c2.71-3.27,4.59-7.29,6.46-11.16
			c1.16-2.39,2.02-2.72,3.77-0.7c1.75,2.01,3.79,3.71,6.08,5.12c3.14,1.93,6.38,2.97,9.82,0.95c3.44-2.02,5.29-4.98,4.62-9.14
			C516.09,587.44,516.71,585.96,518.28,586.53z"/>
		<path fill="#FDFEFE" d="M807.94,594.23c-0.03-6.77,2.79-11.57,4.66-16.65c0.73-1.97,1.8-1.3,3.11-0.72
			c16.41,7.32,31.73,4.29,46.26-5.1c2.69-1.74,3.92-1.89,5.05,1.53c1.29,3.92,3.03,7.74,4.93,11.41c6.01,11.62,1.2,22.17-3.95,32.06
			c-12.03,23.1-37.62,23.9-51.74,2.1C811.17,611,808.98,602.26,807.94,594.23z"/>
		<path fill="#FDFEFE" d="M224.07,593.3c-1.31,11.89-5.09,24.47-15.4,34.02c-12.67,11.73-31.91,8.55-42.19-6.76
			c-5.38-8.02-7.87-17.08-9.26-26.53c-0.47-3.19,0.98-5.85,2.14-8.57c2.08-4.88,4.5-9.62,6.45-14.54c0.99-2.51,1.71-3.08,4.1-1.35
			c13.93,10.1,29.83,14.05,46.77,14.53C223.9,584.29,223.9,584.23,224.07,593.3z"/>
		<path fill="#36A781" d="M518.28,586.53c-1.57-0.57-2.19,0.91-3.23,1.49c-7.92-5.45-15.9-10.73-22.61-17.83
			c-4.4-4.65-10.94-2-12.34,4.46c-1.94,8.96-1.94,8.96-5.03,11.82c-2.87-10.95,2.42-25.78,12.28-32.86
			c16.61-11.93,34.71-13.21,52.64-4.17c12.33,6.22,19.8,16.97,20.15,31.6c0.06,2.57-0.51,3.7-3.4,4.21
			c-4.65,0.82-9.27,0.91-13.9,0.74c-4.33-0.16-8.07-2.05-10.8-5.46c-2.42-3.03-5.31-4.57-9.12-3.26c-3.43,1.18-3.72,4.34-4.15,7.33
			C518.68,585.26,518.45,585.9,518.28,586.53z"/>
		<path fill="#FDFEFE" d="M534.06,679.12c-1.44,5.46,1.11,9.77,7.53,11.84c2.53,0.82,2.9,2.12,1.4,4.43
			c-6.7,10.36-14.18,20.08-22.83,28.89c-1.99,2.03-3.29,1.73-5.24-0.31c-8.98-9.4-16.76-19.7-23.96-30.49
			c-1.49-2.24-0.18-2.35,1.05-2.97c1.42-0.72,2.95-1.54,4.33-1.97c3.93-1.23,4.81-3.87,4.72-7.41c-0.04-1.66-0.03-3.33-0.03-4.99
			c0-7.01-0.02-6.92,6.74-5.05c6.35,1.75,12.82,1.65,19.1-0.13c7.15-2.03,7.09-2.26,7.18,5.01
			C534.07,676.63,534.06,677.3,534.06,679.12z"/>
		<path fill="#36A781" d="M153.29,564.41c-0.61-11.34,6.74-23.17,16.82-27.5c10.55-4.53,21.18-5.22,32.47-2.45
			c15.45,3.79,23.79,13.39,26.25,28.68c0.87,5.38,0.26,5.9-5.18,6.05c-16.07,0.46-31.26-2.21-44.82-11.57
			c-2.21-1.53-3.36-4.04-6.49-4.9c-5.63-1.55-10.74-0.63-14.1,4.06C156.54,559.18,155.04,561.7,153.29,564.41z"/>
		<path fill="#36A781" d="M803.08,566.7c-1.01-16.67,12.1-31.46,29.05-33.76c9.61-1.3,18.85-0.34,27.61,3.92
			c10.34,5.03,11.04,8.26,2.87,15.96c-10.06,9.49-21.43,15.67-36.03,12.27c-2.53-0.59-4.61-1.92-6.7-3.2
			C811.07,556.48,808.73,557.01,803.08,566.7z"/>
		<path fill="#FDFEFE" d="M841.75,715.79c-9.91-13.5-18.93-26.97-25.55-41.89c-0.65-1.47-2.75-3.38,0.09-5.15
			c2.58-1.61,3.67,0.04,5.28,1.64c4.84,4.79,9.59,9.7,15.13,13.74c3.45,2.51,6.64,2.52,10.02-0.11c5.14-3.99,9.87-8.43,14.61-12.87
			c1.26-1.18,2.29-3.62,4.88-1.54c2.14,1.71,0.89,3.26,0.14,4.82C859.48,688.88,851.23,702.5,841.75,715.79z"/>
		<path fill="#FDFEFE" d="M191.62,711.51c-1.26-1.32-1.98-1.97-2.57-2.71c-8.88-11.24-16.56-23.25-23.11-35.99
			c-0.88-1.71-1.61-3.39,0.36-4.87c2.15-1.61,3.16,0.14,4.52,1.4c4.63,4.28,9.34,8.49,14.09,12.64c3.35,2.92,6.87,2.78,10.51,0.37
			c5.85-3.89,10.95-8.64,15.94-13.52c1.31-1.28,2.24-1.5,3.74-0.41c1.4,1.01,1.99,1.82,1.13,3.63
			c-6.37,13.42-13.94,26.05-23.53,37.44C192.3,709.99,192.08,710.65,191.62,711.51z"/>
		<path fill="#FDFEFE" d="M854.63,652.89c1.16,4.32-2.21,6.99-5.33,9.81c-2.69,2.43-5.17,6.49-8.08,6.8
			c-2.19,0.24-4.87-4.33-7.36-6.73c-1.19-1.15-2.62-2.11-3.64-3.4c-2.75-3.46-2.58-7.91-1.45-11.42c0.84-2.6,4.38,0.02,6.64,0.3
			c4.52,0.55,8.96,0.66,13.37-0.45C854.65,646.31,854.64,646.26,854.63,652.89z"/>
		<path fill="#FDFEFE" d="M202.66,646.75c1.19,9.78-2.22,16.23-10.75,20.89c-1.14,0.62-1.8,0.35-2.61-0.36
			c-3.26-2.84-6.84-5.39-9.74-8.56c-2.82-3.09-1.94-7.28-1.39-11c0.26-1.74,2.25-0.66,3.44-0.45
			C191.18,649.04,193.54,649.01,202.66,646.75z"/>
		<path fill="#FDFEFE" d="M516.3,271.69c-7.43-1.26-15.37-3.97-22.01-10.8c-9.6-9.89-11.94-22.32-14.06-34.95
			c-0.87-5.2,0.84-6.86,5.99-6.82c19.56,0.14,37.88-4.2,54.38-15.03c2.32-1.52,3.82-1.56,4.95,1.28c0.73,1.84,1.92,3.5,2.72,5.32
			c2.49,5.68,8.41,10.25,7.41,16.96c-1.78,11.87-4.94,23.41-13.35,32.7C535.74,267.66,527.53,271.37,516.3,271.69z"/>
		<path fill="#36A781" d="M560.85,200.3c-4.13-3.09-5.64-7.05-7.95-10.39c-4.28-6.19-7.85-6.99-13.52-2.37
			c-12.71,10.35-27.66,14.59-43.55,16.57c-5.8,0.72-11.59,0.69-17.4,0.92c-3.4,0.13-4.61-0.84-4.63-4.45
			c-0.12-18.14,9.45-30.71,28.98-35.92c15.45-4.12,30.71-2.38,44.19,6.56C556.69,177.67,562.54,186.92,560.85,200.3z"/>
		<path fill="#36A781" d="M518.09,382.02c0.95,6.66,1.92,13.31,2.84,19.97c1.25,9,1.62,18.15,3.86,26.97
			c1.66,6.55-2.78,10.1-6.04,14.34c-0.55,0.71-1.61,1.02-2.15,0.21c-2.44-3.68-7.63-5.74-6.54-11.51
			C513.18,415.46,515.09,398.75,518.09,382.02z"/>
		<path fill="#FDFEFE" d="M532.98,287.54c0.86,3.79-0.29,6.05-3.13,8.02c-3.1,2.15-5.87,4.83-8.58,7.5
			c-2.06,2.02-3.63,2.28-5.71,0.01c-3.25-3.54-6.95-6.6-10.83-9.46c-3.52-2.59-1.64-6.36-1.55-9.62c0.04-1.28,1.52-0.57,2.43-0.32
			c8.3,2.29,16.47,2.67,24.87-0.2C535.43,281.76,531.73,286.77,532.98,287.54z"/>
		<path fill="#FDFEFE" d="M551.77,307.86c-2.02,3.29-3.83,6.27-5.67,9.22c-1.92,3.07-3.05,7.89-6.31,8.5
			c-2.99,0.56-5.05-4.01-7.53-6.31c-3.95-3.68-3.88-4.9,0.65-8.46c2.2-1.73,4.61-3.21,6.76-5c4.36-3.62,7.02-3.54,11.01,0.62
			C551.07,306.84,551.38,307.34,551.77,307.86z"/>
		<path fill="#FDFEFE" d="M496.28,327.1c-3.56-6.01-6.83-11.57-10.15-17.11c-0.9-1.5-1.99-3.16,0.54-3.87
			c2.56-0.72,3.35-6.37,7.58-2.53c3.77,3.41,7.45,6.95,11.83,9.67c1.77,1.1,2.27,2.84,0.12,4.65
			C502.9,320.69,499.85,323.76,496.28,327.1z"/>
		<path fill="#FDFEFE" d="M189.07,403.13c-14.15-0.35-22.85-8.75-29.18-20.29c-3.62-6.6-5.41-13.89-6.48-21.3
			c-0.96-6.64,4-11.37,6.16-17c0.54-1.41,1.96-0.18,2.94,0.42c13.58,8.28,27.9,9.54,42.79,4.26c3.05-1.08,6.21-2.37,8.72-4.34
			c4.21-3.3,6.66-0.67,8.26,2.35c10.83,20.3-6.67,50.96-24.31,54.83C195.02,402.69,192.13,403.17,189.07,403.13z"/>
		<path fill="#36A781" d="M146.08,341.49c1.26-15.49,7.27-28.44,20.98-35.93c21.84-11.93,52.97-5.6,63.26,22.18
			c0.51,1.38,0.66,2.9,0.99,4.36c0.34,1.52,1.72,3.84,0.01,4.33c-1.49,0.43-3.52-0.71-4.78-3.04c-3.04-5.64-8.57-7.44-13.87-5.33
			c-2.09,0.83-3.71,2.47-5.6,3.65c-13.78,8.59-28.44,7.77-40.72-2.68c-5.38-4.58-9.67-3.86-13.95,2.48
			C150.19,334.77,148.18,338.16,146.08,341.49z"/>
		<path fill="#FDFEFE" d="M211.18,457.49c-5.5-7.45-10.16-14.08-15.16-20.44c-4.23-5.37-7.71-5.32-12.15-0.04
			c-2.67,3.18-5.06,6.59-7.48,9.96c-2.4,3.34-4.7,6.77-7.42,10.7c-3.68-8.07-5.59-16.21-6.88-24.53c-0.23-1.48,0.33-2.58,1.82-3.13
			c1.25-0.46,2.46-1.01,3.7-1.49c6.92-2.66,7.47-3.46,8.75-13.12c8.31,1.92,16.65,2.64,24.94-0.02c1.53-0.49,2.84-0.59,2.62,1.43
			c-0.84,7.81,4.43,10.46,10.4,12.43c3.35,1.1,4.7,2.32,3.89,6.54C216.77,443.25,213.53,449.9,211.18,457.49z"/>
		<path fill="#36A781" d="M131.07,428.02c4.52-16.84,5.95-34.27,9.01-51.53c2.2,0.8,2.1,2.38,2.46,3.54
			c3.35,10.91,9.53,19.96,17.83,27.69c4.1,3.81,4.07,4.76-1,7.48C150.24,420.11,140.96,424.76,131.07,428.02L131.07,428.02z"/>
		<path fill="#FDFEFE" d="M189.68,451.56c4.23,6.45,8.09,12.36,11.98,18.26c0.98,1.48,0.61,2.77-0.31,4.1
			c-3.12,4.51-6.2,9.04-9.32,13.55c-1.35,1.95-2.67,2.23-4.14,0.02c-3.23-4.83-6.53-9.61-9.82-14.41c-0.92-1.34-1.12-2.49-0.05-4.04
			C181.9,463.48,185.57,457.77,189.68,451.56z"/>
		<path fill="#36A781" d="M231.37,392.67c2.75,10.34,2.51,20.53,7.07,29.91c-7.36-2.63-14.64-5.31-21.16-9.7
			c-1.32-0.89-1.36-2.28-0.13-3.4C222.38,404.69,226.8,399.19,231.37,392.67z"/>
		<path fill="#36A781" d="M131.07,428.01c-0.12,0.15-0.24,0.29-0.35,0.44c0.01-0.09-0.01-0.21,0.04-0.26
			C130.83,428.11,130.96,428.07,131.07,428.01C131.07,428.02,131.07,428.01,131.07,428.01z"/>
		<path fill="#FDFEFE" d="M837.93,336.11c10.02,9.4,21.8,15.26,35.42,17.18c3.55,0.5,4.96,1.9,4.74,5.65
			c-0.95,15.61-5.87,29.65-18.91,38.85c-15.36,10.83-35.51,6.51-46.89-14.86c-5.54-10.4-8.37-21.62-3.24-33.45
			c1.69-3.89,2.42-8.2,3.72-12.74c3.63,3.98,7.12,7.86,10.66,11.69c2.06,2.23,4.54,3.84,7.48,4.72c3.85,1.16,7.05,0.24,8.81-3.43
			c1.76-3.67,1.07-7.05-2.36-9.67c-1.22-0.93-3.33-0.92-3.43-3.09C835.43,337.5,836.59,336.41,837.93,336.11z"/>
		<path fill="#36A781" d="M837.93,336.11c-1.33,0.3-2.5,1.39-4.01,0.84c0,0,0.09,0.09,0.09,0.09c-0.23-0.17-0.52-0.22-0.84-0.16
			c-4.29-2.09-6.76-6.1-8.51-10.02c-4.93-11-14.11-8.83-18.99-0.09c-0.64,1.14-1.35,2.24-2.15,3.55
			c-0.16-5.53,5.78-16.11,11.4-20.62c25.65-20.53,61.45-7.8,68.5,24.37c1.12,5.09,0.25,6-4.85,5.39
			c-16.01-1.94-28.86-8.52-36.06-23.86c-1.4-2.98-3.84-5.07-7.66-3.96c-3.65,1.06-4.61,3.9-4.94,7.23
			c-0.33,3.34,0.85,6.22,2.57,8.94C834.26,330.6,836.11,333.35,837.93,336.11z"/>
		<path fill="#FDFEFE" d="M863.84,456.03c-5-6.5-9.54-12.61-14.31-18.55c-4.9-6.09-8.47-6.01-13.79-0.16
			c-4.59,5.05-7.81,11.12-12.41,16.2c-1.85,2.04-2.46,1.7-3.39-0.15c-3.17-6.29-4.85-13.12-6.89-19.8
			c-0.45-1.48,0.65-2.48,1.79-3.26c0.25-0.17,0.66-0.08,0.96-0.19c10.76-3.92,10.76-3.92,12.51-14.91c8.63,2.33,17.29,2.9,25.94,0.2
			c1.7-0.53,2.76-0.16,2.45,1.69c-1.27,7.69,3.97,10.39,9.71,12.19c5.02,1.57,5.74,4.28,4.37,8.93
			C869.03,444.11,867.26,449.95,863.84,456.03z"/>
		<path fill="#36A781" d="M900.02,429.18c-10.11-4.34-19.08-8.25-27.31-13.68c-3.63-2.4-5.48-3.99-1.12-8.09
			c8.59-8.09,13.65-18.53,17.16-29.94C892.97,394.36,894.18,411.77,900.02,429.18z"/>
		<path fill="#FDFEFE" d="M842.26,450.9c4.04,4.61,6.72,9.73,9.67,14.67c0.79,1.32,0.62,2.56-0.02,3.79
			c-0.46,0.88-1.1,1.66-1.68,2.47c-2.39,3.3-3.84,7.46-7.8,9.34c-0.94,0.44-9.11-12.27-9.45-14.38c-0.29-1.81,0.48-3.31,1.39-4.67
			C836.86,458.42,839.49,454.81,842.26,450.9z"/>
		<path fill="#36A781" d="M795.46,423.58c3.56-7.37,5.18-15.08,6.77-22.82c0.4-1.95,1.18-3.74,3.4-0.91
			c2.04,2.6,4.57,4.81,6.86,7.21c3.52,3.69,3.28,6.64-1.31,9.11C806.09,418.92,800.71,421.14,795.46,423.58z"/>
		<path fill="#FDFEFE" d="M833.17,336.88c0.33-0.06,0.61,0,0.84,0.16C833.73,337.01,833.45,336.95,833.17,336.88z"/>
		<path fill="#FDFEFE" d="M315.76,450.16c1.47,1.15,2.85,2.04,4,3.18c9.67,9.56,21.45,11.55,34.14,8.96
			c7.34-1.49,12.65,1.78,17.63,6.01c10.67,9.04,10.71,9.99,6.17,22.5c-2.95,8.11-8.29,14.81-15.37,19.81
			c-13.53,9.56-31.85,5.34-42.08-9.87c-8.17-12.15-10.81-25.48-7.02-39.85C314.13,457.46,314.86,453.97,315.76,450.16z"/>
		<path fill="#36A781" d="M344.76,417.83c10.72,0.02,19.86,2.03,27.26,9.29c7.51,7.36,9.49,16.48,9,26.51
			c-0.12,2.37-1.05,2.54-2.76,1.25c-1.33-1-2.72-1.92-4.02-2.96c-7.17-5.7-14.97-7.17-23.89-4.56c-10.02,2.93-18.3-0.33-24.79-8.41
			c-7.59-9.44-2.21-15.25,5.48-18.74C335.53,418.17,340.48,417.01,344.76,417.83z"/>
		<path fill="#FDFEFE" d="M328.78,573.24c-3.43-8.99-6.64-17.39-9.8-25.68c1.11-0.73,1.57-0.32,2.2-0.12
			c8.6,2.72,11.15,0.84,11.05-7.92c-0.04-3.97-0.01-7.95-0.01-12.19c7.51,1.78,14.84,2.83,22.57,0.95
			c0.18,7.54-0.65,14.22-6.19,20.23C341.56,556.16,335.52,564.72,328.78,573.24z"/>
		<path fill="#36A781" d="M346.02,611.65c-3.32-7.27-6.14-13.63-9.13-19.91c-0.92-1.92-0.74-3.51,0.44-5.11
			c2.66-3.61,5.49-7.11,7.98-10.83c1.39-2.08,2.5-1.91,3.72-0.16c2.47,3.53,4.85,7.13,7.23,10.73c0.58,0.87,0.65,1.8,0.17,2.83
			C353.07,596.38,349.76,603.57,346.02,611.65z"/>
		<path fill="#FDFEFE" d="M362.96,571.4c-0.66-1.14-0.85-1.58-1.13-1.95c-6.26-8.15-6.24-8.14-0.15-16.13
			c2.71-3.56,5.59-7.06,7.18-11.29c0.56-1.49,0.85-2.42,2.63-1.82c1.47,0.49,2.29,1.3,1.83,2.94c-0.54,1.91-0.98,3.87-1.68,5.72
			C368.95,556,366.17,563.09,362.96,571.4z"/>
		<path fill="#36A781" d="M309.39,510.61c4.32,3.38,6.97,7.02,9.32,10.61c1.74,2.66-0.84,5.05-3.19,6.4
			c-3.85,2.21-7.9,4.08-13.12,6.73C305.73,526.24,308.92,519.35,309.39,510.61z"/>
		<path fill="#36A781" d="M378.21,514.97c1.15,4.32,2.16,8.11,3.17,11.9c0.56,2.1-0.36,2.39-2.07,1.7c-0.3-0.12-0.53-0.41-0.82-0.56
			C369.65,523.27,369.65,523.28,378.21,514.97z"/>
		<path fill="#FDFEFE" d="M656.66,451.44c17.94,15.56,34.45,16.24,53.65,2.18c3.11-2.28,3.63-1.92,4.98,1.85
			c6.41,17.95,3.9,34.47-8.14,48.88c-13.14,15.74-32.43,14.25-44.19-2.55c-9.37-13.4-11.2-28.06-7.56-43.69
			C655.89,456.03,656.2,453.93,656.66,451.44z"/>
		<path fill="#36A781" d="M680.99,448.99c-6.39-0.03-12.59-3.84-17.36-10.05c-3.39-4.41-2.65-9.02,1.45-13.41
			c10.01-10.73,32.54-9.22,40.47-3.51c5.78,4.17,6.24,11.67,0.41,17.03C699.46,445.03,691.82,448.85,680.99,448.99z"/>
		<path fill="#FDFEFE" d="M699.94,534.63c0.58,2.44-0.74,4.82-3.16,7.02c-2.94,2.68-5.71,5.59-8.27,8.63
			c-1.57,1.87-2.42,1.53-3.82-0.08c-3.06-3.5-6.21-6.93-9.46-10.25c-3.29-3.35-1.96-7.49-2.11-11.34c-0.07-1.91,1.41-1.21,2.53-0.96
			c7.23,1.59,14.47,2.2,21.63-0.3c1.54-0.54,2.16-0.1,2.25,1.44C699.64,530.46,699.77,532.12,699.94,534.63z"/>
		<path fill="#36A781" d="M686.81,604.74c-1.21-0.16-1.49-1.16-1.98-2.02c-2.19-3.89-4.4-7.78-6.65-11.65
			c-1.79-3.07-1.13-5.69,1.36-8.01c2.5-2.33,3.53-7.4,6.76-7.16c2.14,0.16,3.63,5.15,5.96,7.4c3.95,3.81,4.16,7.33,0.89,11.66
			c-1.78,2.35-2.84,5.25-4.23,7.9C688.46,603.75,687.93,604.6,686.81,604.74z"/>
		<path fill="#FDFEFE" d="M703.69,575.46c-2.41-3.54-4.41-6.76-6.7-9.75c-1.23-1.61-0.76-2.59,0.38-3.83
			c4.04-4.4,8.08-8.8,11.97-13.33c1.21-1.41,2.29-1.96,3.67-0.61c1.13,1.1,3.64,1.38,2.35,4.09
			C711.69,559.76,708.5,567.74,703.69,575.46z"/>
		<path fill="#FDFEFE" d="M662.34,546.9c1.23-0.09,1.71,0.91,2.33,1.64c3.66,4.31,7.2,8.73,10.99,12.92
			c1.71,1.9,2.03,3.27-0.15,4.87c-0.65,0.48-1.12,1.22-1.63,1.87c-5.25,6.71-5.26,6.71-8.94-1.4c-2.13-4.69-4.3-9.36-6.33-14.09
			C657.47,550.08,659.67,546.79,662.34,546.9z"/>
		<path fill="#FDFEFE" d="M690.15,300.99c-11.89-0.23-19.74-6.94-25.61-16.41c-4.34-7-6.38-14.89-7.74-22.98
			c-0.41-2.42,0.22-3.73,2.44-4.64c10.55-4.34,19.26-11.03,25.74-20.48c1.43-2.08,2.62-2.13,4.22-0.2
			c8.46,10.25,19.83,15.25,32.52,17.77c1.74,0.35,3.32,0.44,2.94,2.92c-2.05,13.47-5.39,26.37-15.65,36.29
			C703.76,298.36,697.43,300.94,690.15,300.99z"/>
		<path fill="#36A781" d="M648.97,231.78c-1.78-23.96,15.99-35.82,36.86-37.55c14.39-1.19,27.22,2.81,37.56,13.55
			c8.45,8.78,7.86,19.65,7.47,30.49c-0.07,1.97-1.71,1.43-3.06,1.3c-11.96-1.16-22.01-6.06-29.91-15.18
			c-1.32-1.53-2.63-3.1-4.45-3.92c-7.92-3.56-12.82-4.93-17.83,4.27c-3.76,6.9-9.51,12.02-16.4,15.59
			c-7.8,4.05-10.21,2.45-10.24-6.06C648.97,233.45,648.98,232.61,648.97,231.78z"/>
		<path fill="#FDFEFE" d="M702.08,313c2.85,8.68-0.53,14.54-6.98,19.86c-5.69,4.69-5.33,5.12-10.34-0.38
			c-1.34-1.47-2.54-3.18-4.15-4.26c-5.27-3.52-3.36-8.81-3.59-13.55c-0.1-1.98,1.42-1.32,2.47-1.01
			C687.15,315.94,694.76,315.97,702.08,313z"/>
		<path fill="#FDFEFE" d="M673.45,363.46c-5.13-7.59-8.73-15.57-12.6-23.36c-1.77-3.56,2.63-3.37,4.01-5.06
			c1.61-1.97,2.39-0.17,3.38,0.89c3.94,4.24,7.87,8.5,11.94,12.62c1.62,1.64,2.3,2.81,0.49,4.93
			C678.11,356.49,676,359.88,673.45,363.46z"/>
		<path fill="#FDFEFE" d="M707.44,362.59c-0.73-0.04-0.94,0.02-1.01-0.06c-9.6-10.74-9.6-10.74,0.09-21.1
			c1.24-1.33,2.56-2.59,3.77-3.94c1.71-1.91,3.05-3.62,6.04-1.27c2.62,2.05,3.05,3.65,1.48,6.5
			C714.17,349.34,710.8,356.11,707.44,362.59z"/>
		<path fill="#FDFEFE" d="M328.19,248.06c14.03,0.29,27.47-1.93,39.58-9.56c1.59-1,2.47-0.87,3.54,0.86
			c3.33,5.36,6.83,10.61,10.36,15.84c1.85,2.75,0.63,5.62,0.13,8.22c-1.74,9.07-4.8,17.71-10.41,25.19
			c-12.7,16.95-35.85,16.08-47.73-1.54c-6.11-9.06-8.7-19.25-10.35-29.74c-0.82-5.18,3.27-9.27,8.38-9.27
			C323.86,248.06,326.02,248.06,328.19,248.06z"/>
		<path fill="#36A781" d="M305.53,238.27c-0.3-8.98-0.15-17.64,4.19-25.49c6.26-11.33,17.02-15.57,28.9-17.83
			c8.43-1.61,16.58-0.41,24.86,1.83c16.09,4.34,26.44,17.67,25.55,34.03c-0.07,1.3,0.31,3.09-1.07,3.6
			c-1.73,0.64-2.53-1.28-3.34-2.37c-2.46-3.34-4.72-6.82-7.75-9.71c-3.55-3.39-6.94-3.79-10.6-0.81
			c-10.08,8.21-21.53,12.15-34.55,11.66c-4.65-0.18-9.33,0.18-13.97-0.05C312.85,232.87,308.49,233.46,305.53,238.27z"/>
		<path fill="#FDFEFE" d="M335,312.78c8.82,3.19,17.25,3.25,25.86,0.16c0.45,4.36,1.87,8.98-0.21,12.05
			c-3.09,4.56-7.76,8.07-11.86,11.92c-1.05,0.98-1.73-0.27-2.38-0.94c-3.35-3.44-6.89-6.73-9.98-10.39
			C333.27,321.85,335.81,317.33,335,312.78z"/>
		<path fill="#FDFEFE" d="M364.73,363.05c-2.83-3.56-5.17-6.55-7.57-9.49c-1.56-1.91-1.31-3.41,0.46-5.13
			c4.03-3.92,7.88-8.02,11.81-12.05c1.2-1.22,2.04-3.08,4.25-0.92c1.75,1.72,4.27,2.56,2.45,5.87
			C372.32,348.26,368.76,355.32,364.73,363.05z"/>
		<path fill="#FDFEFE" d="M331.77,363.36c-4.14-8.09-8.05-15.66-11.89-23.27c-1.57-3.11,1.77-3.27,3.02-4.64
			c1.23-1.34,2.28-1.22,3.61,0.29c3.94,4.46,8.06,8.78,12.2,13.06c1.63,1.69,2.04,3.1,0.37,5.07
			C336.67,356.73,334.49,359.8,331.77,363.36z"/>
	</g>
</g>
</svg>
