<?xml version="1.0" encoding="utf-8"?>
<!-- Generator: Adobe Illustrator 27.8.0, SVG Export Plug-In . SVG Version: 6.00 Build 0)  -->
<svg version="1.1" id="Capa_1" xmlns="http://www.w3.org/2000/svg" xmlns:xlink="http://www.w3.org/1999/xlink" x="0px" y="0px"
	 viewBox="0 0 768 768" enable-background="new 0 0 768 768" xml:space="preserve">
<g>
	<g>
		<path fill="#FFFFFF" d="M0,768C0,512,0,256,0,0c256,0,512,0,768,0c0,256,0,512,0,768C512,768,256,768,0,768z M176.21,338.27
			c0.05,34.05,2.01,60.44,6.86,86.54c7.58,40.78,19.86,79.97,40.85,116.01c11.59,19.9,25.45,37.99,44.35,51.66
			c18.96,13.72,40.13,20.67,63.57,19.28c7.1-0.42,14.26-2.31,21.07-4.5c5.01-1.61,6.67-6.73,4.99-11.77
			c-0.59-1.76-1.42-3.46-2.35-5.07c-15.78-27.52-31.59-55.02-47.39-82.53c-3.73-6.5-7.34-13.07-11.2-19.49
			c-4.12-6.85-8.3-7.96-15.34-4.44c-1.45,0.73-2.87,1.53-4.35,2.18c-5.42,2.39-7.82,1.43-9.61-4.19
			c-4.91-15.46-10.22-30.82-14.46-46.46c-9.85-36.36-14.4-73.46-13.86-111.15c0.1-7.07,3.42-9.7,10.36-8.39
			c2.82,0.53,5.62,1.18,8.44,1.69c7.68,1.4,11.94-1.57,13.39-9.17c5.95-31.23,11.92-62.46,17.89-93.69
			c1.43-7.47,2.93-14.93,4.38-22.39c1.74-8.93-2.93-14.57-12.1-14.63c-1.62-0.01-3.25,0.05-4.87,0.17
			c-27.06,1.98-48.85,14.03-65.94,34.81c-13.44,16.35-21.3,35.44-26.36,55.76C178.23,293.88,176.04,319.71,176.21,338.27z
			 M397.86,595.29c0.64,0,1.84,0,3.03,0c21.25-0.05,42.49-0.12,63.74-0.14c20.25-0.02,40.5,0.27,60.74-0.09
			c13.27-0.24,22.06-9.07,22.38-22.23c0.37-15.61,0.04-31.24,0.16-46.86c0.09-12.07-8.99-24.57-25.49-24.38
			c-44.11,0.52-88.23,0.2-132.35,0.22c-1.45,0-2.89,0-4.88,0c1.04,1.87,1.85,3.23,2.56,4.63c3.56,7.01,7.5,13.86,10.55,21.09
			c6.27,14.85,9.65,30.36,6.55,46.44C403.46,581.17,400.3,588.04,397.86,595.29z M432.13,383.05c12.15-3.34,21.9-10.03,29.06-20.67
			c7.2-10.7,10.12-22.3,7.94-34.87c-3.83-22.09-21.4-38.53-42.44-40.33c-23.75-2.02-43.54,9.72-51.15,30.76
			c-4.95,13.68-4.45,27.32,2.44,40.28c6.84,12.87,17.57,21.22,32.28,25.1c-4.91,1.33-9.09,2.16-13.06,3.59
			c-10.91,3.92-9.21,1.56-7.93,12.1c1.6,13.2,6.24,25.19,15.55,34.99c7.83,8.24,18.63,9.8,27.84,3.46c3.69-2.54,6.92-6.15,9.47-9.87
			c7.08-10.32,10.36-21.99,11.19-34.47c0.16-2.39-0.4-3.55-2.39-4.19C444.77,386.97,438.59,385.07,432.13,383.05z M376.65,399.91
			c-0.48,0.07-0.99,0.05-1.42,0.22c-11.87,4.75-22.75,10.99-30.83,21.19c-7.3,9.22-12.3,19.42-12.17,31.51
			c0.08,6.95,3.47,11.2,10.28,12.18c10.12,1.46,20.29,2.98,30.49,3.49c34.72,1.73,69.46,1.95,104.16-0.64
			c7.21-0.54,14.42-1.49,21.53-2.8c8.14-1.5,11.89-6.19,10.83-14.33c-0.8-6.1-2.25-12.37-4.79-17.93
			c-7.45-16.28-21.14-25.81-37.25-32.33c-0.74-0.3-1.56-0.41-2.49-0.64c-0.29,1.4-0.54,2.48-0.73,3.58
			c-2.44,14.16-7.3,27.21-17.16,38.03c-14.68,16.11-36.35,16.56-51.55,0.95c-7.48-7.67-12.62-16.72-15.29-27.11
			C378.96,410.25,377.87,405.14,376.65,399.91z M384.46,179.95c-7.24-0.21-10.66,1.93-11.2,7c-0.59,5.47,2.58,9.21,8.66,10
			c6.19,0.8,12.43,1.2,18.59,2.16c30.64,4.78,57.9,17.44,82.63,35.87c22.22,16.56,40.94,36.21,53.47,61.23
			c6.47,12.92,11.15,26.41,13.14,40.79c0.83,6.03,4.78,9.68,9.41,9.11c5.72-0.71,8.83-4.91,7.91-11.31
			c-3.02-21.21-10.63-40.77-22.05-58.8c-20.84-32.92-49.45-57.25-83.91-74.92C437.05,188.74,411.52,181.54,384.46,179.95z
			 M406.08,235.16c-8.24,0.68-15.7,1.28-23.16,1.93c-1.11,0.1-2.22,0.38-3.3,0.66c-4.62,1.21-7.25,5.04-6.54,9.46
			c0.8,5.01,4.11,7.64,9.16,7.27c1.37-0.1,2.74-0.23,4.1-0.42c14.33-1.98,28.6-1.79,42.87,0.81c38.1,6.94,77.02,37.28,86.82,81.85
			c1.12,5.11,1.76,10.33,2.96,15.41c0.86,3.62,3.58,5.78,7.24,6.14c3.87,0.38,6.92-1.59,8.47-5c0.87-1.91,0.98-4.4,0.73-6.54
			c-1.63-13.98-4.8-27.61-11.51-40.07C498.51,259.53,457.95,237.44,406.08,235.16z M603.89,347.52c-2.2-11.12-3.85-22.39-6.71-33.34
			c-12.96-49.55-41.87-88.37-81.61-119.71c-1.53-1.21-3.4-2.13-5.26-2.74c-3.41-1.12-7.19,0.38-9.2,3.31
			c-1.96,2.85-1.8,6.93,0.54,9.77c1.02,1.24,2.3,2.28,3.51,3.35c6.17,5.46,12.53,10.72,18.51,16.38
			c35.91,34.03,57.56,75.19,62.14,124.84c0.31,3.36,1.56,6.32,4.72,8.06c2.91,1.6,5.75,1.27,8.52-0.43
			C602.56,354.84,603.61,351.6,603.89,347.52z M334.52,237.23c-0.3-4.11-0.16-8.31-1-12.3c-1.19-5.69-2.76-11.35-4.79-16.8
			c-1.3-3.47-4.43-5.35-8.4-5.02c-3.9,0.33-5.89,2.92-7.08,6.3c-0.49,1.41-0.89,2.86-1.17,4.32c-2.96,15.94-5.87,31.89-8.81,47.83
			c-2.26,12.27-4.56,24.53-6.81,36.8c-0.66,3.58,0,6.77,3.33,8.83c2.87,1.77,6.53,1.14,9.55-1.79c2.32-2.25,4.68-4.56,6.49-7.21
			C328.36,279.84,334.2,259.39,334.52,237.23z M385.62,562.77c-0.23-0.09-0.47-0.18-0.7-0.27c-0.11-1.37-0.13-2.75-0.35-4.1
			c-4.56-27.65-18.33-49.84-40.23-67.03c-3.67-2.88-7.94-5.27-12.29-6.92c-1.9-0.72-5.37,0.33-6.93,1.83
			c-1.15,1.11-0.74,4.3-0.33,6.44c0.33,1.75,1.65,3.33,2.59,4.94c9.66,16.62,19.32,33.24,29.01,49.84
			c4.65,7.98,9.2,16.02,14.12,23.84c3.17,5.05,8.86,5.2,11.89,0.33C384.01,569.05,384.57,565.76,385.62,562.77z"/>
		<path d="M176.21,338.27c-0.16-18.56,2.03-44.39,8.34-69.76c5.06-20.32,12.91-39.41,26.36-55.76
			c17.09-20.78,38.88-32.84,65.94-34.81c1.62-0.12,3.25-0.18,4.87-0.17c9.18,0.06,13.84,5.7,12.1,14.63
			c-1.45,7.47-2.95,14.92-4.38,22.39c-5.98,31.23-11.94,62.45-17.89,93.69c-1.45,7.61-5.71,10.57-13.39,9.17
			c-2.82-0.51-5.62-1.16-8.44-1.69c-6.95-1.31-10.26,1.32-10.36,8.39c-0.55,37.69,4,74.79,13.86,111.15
			c4.24,15.64,9.55,31,14.46,46.46c1.78,5.61,4.18,6.58,9.61,4.19c1.48-0.65,2.9-1.45,4.35-2.18c7.04-3.52,11.22-2.41,15.34,4.44
			c3.86,6.42,7.47,12.99,11.2,19.49c15.8,27.51,31.61,55.01,47.39,82.53c0.92,1.61,1.76,3.32,2.35,5.07
			c1.68,5.04,0.02,10.16-4.99,11.77c-6.82,2.19-13.97,4.08-21.07,4.5c-23.44,1.39-44.61-5.57-63.57-19.28
			c-18.9-13.67-32.76-31.76-44.35-51.66c-20.99-36.04-33.26-75.23-40.85-116.01C178.21,398.71,176.26,372.32,176.21,338.27z"/>
		<path d="M397.86,595.29c2.44-7.25,5.6-14.12,6.99-21.33c3.1-16.08-0.28-31.6-6.55-46.44c-3.05-7.23-6.99-14.08-10.55-21.09
			c-0.71-1.4-1.52-2.76-2.56-4.63c1.99,0,3.43,0,4.88,0c44.12-0.01,88.24,0.31,132.35-0.22c16.5-0.2,25.58,12.31,25.49,24.38
			c-0.12,15.62,0.21,31.25-0.16,46.86c-0.31,13.16-9.11,22-22.38,22.23c-20.24,0.36-40.49,0.07-60.74,0.09
			c-21.25,0.02-42.49,0.09-63.74,0.14C399.7,595.29,398.5,595.29,397.86,595.29z M492.69,570.89c4.12,0,8.24,0.02,12.35,0
			c5.35-0.03,8.02-2.38,8.13-7.09c0.12-4.74-2.81-7.89-7.94-7.98c-8.73-0.15-17.47-0.14-26.2-0.01c-4.47,0.07-7.21,2.88-7.21,6.9
			c-0.01,4.67,2.9,8.01,7.39,8.16C483.7,571.01,488.2,570.89,492.69,570.89z M492.37,541.64c0,0.03,0,0.05,0,0.08
			c4.36,0,8.72,0.11,13.08-0.03c4.6-0.15,7.49-2.92,7.61-7c0.13-4.6-2.73-7.98-7.43-8.08c-8.84-0.18-17.69-0.18-26.54-0.02
			c-4.58,0.08-7.25,3.04-7.21,7.33c0.04,4.48,2.87,7.54,7.41,7.68C483.65,541.75,488.01,541.64,492.37,541.64z M451.06,564.01
			c0.04-4.82-3.88-8.84-8.72-8.94c-5.14-0.1-9.08,3.55-9.05,8.38c0.03,5.09,3.62,8.77,8.64,8.84
			C447.24,572.36,451.01,568.94,451.06,564.01z M451.01,534.44c0.06-4.91-3.73-8.72-8.7-8.76c-5.24-0.04-8.98,3.44-8.99,8.35
			c-0.01,5,3.67,8.76,8.66,8.83C447.06,542.95,450.96,539.31,451.01,534.44z"/>
		<path d="M432.13,383.05c6.46,2.02,12.64,3.92,18.79,5.9c1.98,0.64,2.55,1.8,2.39,4.19c-0.83,12.48-4.11,24.14-11.19,34.47
			c-2.55,3.73-5.78,7.33-9.47,9.87c-9.21,6.34-20.01,4.77-27.84-3.46c-9.31-9.8-13.96-21.79-15.55-34.99
			c-1.27-10.54-2.97-8.18,7.93-12.1c3.97-1.43,8.15-2.26,13.06-3.59c-14.71-3.88-25.43-12.23-32.28-25.1
			c-6.89-12.96-7.39-26.6-2.44-40.28c7.62-21.04,27.4-32.79,51.15-30.76c21.04,1.79,38.61,18.23,42.44,40.33
			c2.18,12.57-0.74,24.17-7.94,34.87C454.03,373.03,444.28,379.71,432.13,383.05z"/>
		<path d="M376.65,399.91c1.22,5.23,2.32,10.34,3.61,15.39c2.67,10.39,7.81,19.43,15.29,27.11c15.21,15.6,36.87,15.16,51.55-0.95
			c9.86-10.82,14.72-23.87,17.16-38.03c0.19-1.09,0.44-2.18,0.73-3.58c0.93,0.23,1.75,0.34,2.49,0.64
			c16.12,6.52,29.8,16.05,37.25,32.33c2.54,5.56,4,11.83,4.79,17.93c1.06,8.14-2.69,12.83-10.83,14.33
			c-7.11,1.31-14.32,2.26-21.53,2.8c-34.7,2.59-69.44,2.37-104.16,0.64c-10.2-0.51-20.36-2.04-30.49-3.49
			c-6.81-0.98-10.21-5.22-10.28-12.18c-0.13-12.09,4.87-22.29,12.17-31.51c8.08-10.2,18.96-16.44,30.83-21.19
			C375.66,399.96,376.17,399.98,376.65,399.91z"/>
		<path d="M384.46,179.95c27.05,1.6,52.59,8.79,76.66,21.13c34.47,17.67,63.07,42,83.91,74.92c11.42,18.04,19.03,37.59,22.05,58.8
			c0.91,6.4-2.19,10.6-7.91,11.31c-4.63,0.57-8.58-3.08-9.41-9.11c-1.99-14.38-6.67-27.87-13.14-40.79
			c-12.54-25.02-31.25-44.66-53.47-61.23c-24.73-18.43-51.99-31.08-82.63-35.87c-6.16-0.96-12.4-1.37-18.59-2.16
			c-6.09-0.78-9.25-4.53-8.66-10C373.81,181.87,377.22,179.74,384.46,179.95z"/>
		<path d="M406.08,235.16c51.87,2.27,92.43,24.37,117.84,71.52c6.71,12.46,9.88,26.09,11.51,40.07c0.25,2.14,0.14,4.63-0.73,6.54
			c-1.55,3.41-4.6,5.38-8.47,5c-3.65-0.36-6.38-2.53-7.24-6.14c-1.2-5.09-1.84-10.3-2.96-15.41c-9.8-44.57-48.72-74.91-86.82-81.85
			c-14.27-2.6-28.54-2.79-42.87-0.81c-1.36,0.19-2.73,0.32-4.1,0.42c-5.06,0.37-8.36-2.26-9.16-7.27c-0.71-4.42,1.92-8.25,6.54-9.46
			c1.08-0.28,2.19-0.56,3.3-0.66C390.38,236.44,397.84,235.84,406.08,235.16z"/>
		<path d="M603.89,347.52c-0.28,4.08-1.33,7.32-4.86,9.49c-2.77,1.7-5.61,2.03-8.52,0.43c-3.16-1.74-4.41-4.7-4.72-8.06
			c-4.58-49.65-26.23-90.81-62.14-124.84c-5.98-5.66-12.34-10.92-18.51-16.38c-1.21-1.07-2.49-2.11-3.51-3.35
			c-2.34-2.84-2.49-6.92-0.54-9.77c2.01-2.93,5.79-4.43,9.2-3.31c1.86,0.61,3.73,1.53,5.26,2.74
			c39.74,31.35,68.66,70.16,81.61,119.71C600.05,325.13,601.69,336.4,603.89,347.52z"/>
		<path d="M334.52,237.23c-0.32,22.16-6.16,42.61-18.68,60.98c-1.81,2.65-4.17,4.96-6.49,7.21c-3.02,2.93-6.68,3.56-9.55,1.79
			c-3.34-2.06-3.99-5.25-3.33-8.83c2.25-12.27,4.55-24.53,6.81-36.8c2.94-15.94,5.86-31.89,8.81-47.83
			c0.27-1.46,0.67-2.92,1.17-4.32c1.18-3.39,3.17-5.98,7.08-6.3c3.97-0.33,7.11,1.55,8.4,5.02c2.03,5.44,3.6,11.11,4.79,16.8
			C334.36,228.92,334.22,233.12,334.52,237.23z"/>
		<path d="M385.62,562.77c-1.04,2.99-1.61,6.28-3.24,8.9c-3.03,4.87-8.71,4.72-11.89-0.33c-4.91-7.82-9.46-15.86-14.12-23.84
			c-9.69-16.6-19.35-33.22-29.01-49.84c-0.94-1.62-2.25-3.19-2.59-4.94c-0.41-2.13-0.82-5.33,0.33-6.44
			c1.56-1.5,5.02-2.55,6.93-1.83c4.36,1.65,8.62,4.03,12.29,6.92c21.9,17.2,35.67,39.38,40.23,67.03c0.22,1.35,0.24,2.73,0.35,4.1
			C385.15,562.6,385.38,562.69,385.62,562.77z"/>
		<path fill="#FFFFFF" d="M492.69,570.89c-4.49,0-8.99,0.12-13.48-0.03c-4.49-0.15-7.4-3.49-7.39-8.16c0.01-4.01,2.74-6.83,7.21-6.9
			c8.73-0.13,17.47-0.15,26.2,0.01c5.13,0.09,8.05,3.24,7.94,7.98c-0.11,4.71-2.79,7.06-8.13,7.09
			C500.93,570.91,496.81,570.89,492.69,570.89z"/>
		<path fill="#FFFFFF" d="M492.37,541.64c-4.36,0-8.73,0.11-13.08-0.03c-4.54-0.14-7.37-3.2-7.41-7.68
			c-0.04-4.29,2.63-7.25,7.21-7.33c8.84-0.16,17.7-0.17,26.54,0.02c4.7,0.1,7.56,3.48,7.43,8.08c-0.12,4.08-3,6.85-7.61,7
			c-4.36,0.14-8.72,0.03-13.08,0.03C492.37,541.7,492.37,541.67,492.37,541.64z"/>
		<path fill="#FFFFFF" d="M451.06,564.01c-0.04,4.93-3.82,8.35-9.13,8.28c-5.02-0.07-8.62-3.74-8.64-8.84
			c-0.03-4.84,3.92-8.49,9.05-8.38C447.18,555.17,451.1,559.19,451.06,564.01z"/>
		<path fill="#FFFFFF" d="M451.01,534.44c-0.06,4.87-3.96,8.5-9.03,8.43c-4.99-0.07-8.68-3.83-8.66-8.83
			c0.01-4.92,3.75-8.39,8.99-8.35C447.28,525.72,451.07,529.54,451.01,534.44z"/>
	</g>
</g>
</svg>
