<?xml version="1.0" encoding="utf-8"?>
<!-- Generator: Adobe Illustrator 27.8.0, SVG Export Plug-In . SVG Version: 6.00 Build 0)  -->
<svg version="1.1" id="Capa_1" xmlns="http://www.w3.org/2000/svg" xmlns:xlink="http://www.w3.org/1999/xlink" x="0px" y="0px"
	 viewBox="0 0 1024 1024" enable-background="new 0 0 1024 1024" xml:space="preserve">
<g>
	<g>
		<path fill="#FEFEFE" d="M511.91,1023.89c-169.12,0-338.25-0.02-507.37,0.11c-3.95,0-4.49-1.11-4.49-4.69
			C0.14,681.22,0.14,343.13,0,5.04c0-4.47,1.22-5,5.22-5C343.13,0.14,681.05,0.14,1018.96,0c4.47,0,5,1.22,5,5.22
			c-0.1,337.92-0.1,675.84,0.04,1013.77c0,4.47-1.22,5.01-5.22,5C849.83,1023.88,680.87,1023.89,511.91,1023.89z M871.9,710.96
			c4.87-6.55,8.36-13.92,11.8-21.21c12.13-25.7,21-52.59,27.12-80.32c2.68-12.14,3.71-24.64,6.27-36.81
			c3.26-15.51,4.4-31.2,4.6-46.92c0.19-14.91,0.66-29.81-1.44-44.77c-1.83-13.07-2.18-26.45-4.94-39.34
			c-3.59-16.74-6.75-33.63-12.39-49.9c-5.85-16.89-11.51-33.87-19.22-50.03c-10.79-22.6-23.13-44.33-37.59-64.81
			c-8.12-11.5-16.8-22.62-26.2-33.07c-8.83-9.83-18.33-19.04-27.78-28.31c-12.94-12.69-27.09-23.87-41.51-34.54
			c-14.35-10.61-29.93-19.64-45.88-27.9c-9.43-4.89-19.31-8.82-28.76-13.6c-15.98-8.1-32.8-13.85-49.75-19.34
			c-9.01-2.91-18-6.02-27.19-8.2c-6.89-1.64-13.58-4.04-20.73-4.89c-6.84-0.81-14.09-0.7-20.4-2.5c-8.72-2.49-17.48-3.52-26.24-4.13
			c-12.65-0.88-25.39-0.26-38.09-1.08c-7.9-0.51-15.83,1.55-23.72,1.69c-11.85,0.22-23.15,3.64-34.81,4.88
			c-8.96,0.95-17.76,3.5-26.62,5.4c-6.11,1.31-12.34,2.29-18.26,4.2c-12.68,4.08-25.24,8.58-37.78,13.07
			c-26.05,9.31-50.27,22.29-73.88,36.59c-21.13,12.8-40.32,28.14-59.11,44c-14.6,12.32-27.32,26.63-39.65,41.13
			c-12.85,15.1-24.58,31.19-34.72,48.29c-9.21,15.53-17.9,31.34-25.17,47.93c-8.17,18.64-15.25,37.66-20.81,57.22
			c-4.56,16.06-7.62,32.42-10.29,48.94c-3.5,21.68-5.35,43.47-5.29,65.3c0.05,19.83,2.1,39.59,5.14,59.35
			c3.23,20.97,8.07,41.43,13.76,61.73c5.16,18.4,12.75,35.92,20.63,53.35c11.53,25.49,25.5,49.59,42.26,71.82
			c18.93,25.1,40.61,47.8,64.59,68.35c25.33,21.72,53.07,39.56,82.89,54.24c31.27,15.39,64.12,26.38,98.06,34.24
			c23.5,5.44,47.34,8.69,71.37,9.79c18.74,0.85,37.54,0.61,56.3-1.58c17.96-2.1,35.81-4.69,53.4-8.78
			c18.74-4.35,37.23-9.74,55.16-16.71c8.9-3.46,18.22-6.33,25.94-12.38c1.66-0.15,2.75,0.93,3.95,1.8
			c27.99,20.25,59.16,29.55,93.69,26.85c38.74-3.03,71.14-19.09,95.05-49.77c32.73-42,39.86-88.02,18.38-137.62
			C880.7,724.94,875.69,718.3,871.9,710.96z"/>
		<path fill="#CFBBE2" d="M672.95,891.34c-7.72,6.05-17.04,8.92-25.94,12.38c-17.93,6.97-36.42,12.35-55.16,16.71
			c-17.6,4.09-35.44,6.68-53.4,8.78c-18.76,2.19-37.55,2.44-56.3,1.58c-24.03-1.1-47.87-4.35-71.37-9.79
			c-33.94-7.86-66.79-18.85-98.06-34.24c-29.82-14.68-57.55-32.52-82.89-54.24c-23.97-20.55-45.66-43.25-64.59-68.35
			c-16.76-22.23-30.73-46.32-42.26-71.82c-7.88-17.43-15.47-34.95-20.63-53.35c-5.69-20.3-10.54-40.76-13.76-61.73
			c-3.04-19.76-5.09-39.52-5.14-59.35c-0.06-21.82,1.79-43.62,5.29-65.3c2.67-16.51,5.73-32.88,10.29-48.94
			c5.55-19.56,12.64-38.57,20.81-57.22c7.27-16.59,15.96-32.4,25.17-47.93c10.14-17.1,21.87-33.18,34.72-48.29
			c12.33-14.5,25.05-28.81,39.65-41.13c18.8-15.86,37.99-31.2,59.11-44c23.61-14.3,47.83-27.27,73.88-36.59
			c12.55-4.49,25.1-8.99,37.78-13.07c5.92-1.91,12.15-2.89,18.26-4.2c8.86-1.9,17.66-4.45,26.62-5.4
			c11.66-1.24,22.96-4.66,34.81-4.88c7.89-0.15,15.82-2.2,23.72-1.69c12.71,0.82,25.44,0.2,38.09,1.08
			c8.75,0.61,17.52,1.64,26.24,4.13c6.31,1.8,13.56,1.69,20.4,2.5c7.15,0.85,13.84,3.25,20.73,4.89c9.19,2.18,18.18,5.29,27.19,8.2
			c16.95,5.48,33.77,11.24,49.75,19.34c9.45,4.79,19.33,8.72,28.76,13.6c15.94,8.26,31.53,17.29,45.88,27.9
			c14.42,10.67,28.57,21.85,41.51,34.54c9.45,9.27,18.95,18.49,27.78,28.31c9.4,10.46,18.08,21.57,26.2,33.07
			c14.46,20.48,26.8,42.21,37.59,64.81c7.72,16.16,13.37,33.14,19.22,50.03c5.64,16.27,8.8,33.16,12.39,49.9
			c2.76,12.89,3.11,26.27,4.94,39.34c2.1,14.97,1.62,29.86,1.44,44.77c-0.2,15.72-1.34,31.41-4.6,46.92
			c-2.56,12.17-3.6,24.67-6.27,36.81c-6.11,27.73-14.98,54.62-27.12,80.32c-3.44,7.29-6.93,14.66-11.8,21.21
			c-0.98-1.11-2.01-2.18-2.93-3.34c-9.98-12.71-21.47-23.69-35.32-32.22c-28.11-17.31-58.51-24.34-91.19-20.1
			c-6.43,0.83-10.05-1.05-14.01-5.39c-21.89-24.05-47.46-43.07-77.63-55.59c-14.15-5.87-28.52-11.15-43.71-13.65
			c-4.01-0.66-5.09-2.43-4.96-6.26c0.25-7.82,0.26-15.67-0.03-23.48c-0.15-4.02,1.1-6.82,4.05-9.55
			c8.74-8.09,17.08-16.53,23.67-26.63c6.19-9.49,12.14-19.04,16.67-29.45c6.13-14.09,11.37-28.96,12-43.94
			c1.5-35.59,0.78-71.27,0.69-106.91c-0.06-23.42-8.36-44.21-21.46-63.25c-20.44-29.7-48.78-48.43-82.81-59.04
			c-27.35-8.52-55.34-10.88-83.51-5.67c-39.02,7.22-72.64,24.49-97.86,56.05c-16.83,21.07-27.36,44.74-27.71,72.02
			c-0.4,31.15-0.35,62.31,0.01,93.46c0.17,14.83,1.88,29.49,7.13,43.67c4.34,11.74,8.86,23.44,15.43,33.98
			c8.96,14.35,19.95,27.26,32.51,38.71c1.52,1.38,2.07,2.83,2.04,4.8c-0.12,8.49-0.44,17-0.1,25.48c0.16,4.07-1.35,5.34-4.99,6.15
			c-18.73,4.17-36.88,9.86-53.88,19.1c-18.3,9.95-35.16,21.66-49.45,36.91c-21.46,22.91-36.88,49.1-43.82,79.99
			c-0.59,2.64-0.21,5.65-2.11,7.95c-1.15,0-1.47-0.88-1.98-1.48c-15.28-18-27.56-37.94-37.9-59.1
			c-5.65-11.57-10.22-23.61-14.38-35.78c-2.33-6.8-4.77-10.04-9.67-10.48c-9.62-0.87-14.24,5.2-11.43,15.4
			c3.66,13.31,9.13,26.08,14.58,38.61c4.47,10.27,10.45,20.2,16.54,29.86c12.17,19.3,25.62,37.61,40.62,54.78
			c2.22,2.54,3.08,5.28,2.92,8.67c-0.37,7.82-0.69,15.65-0.58,23.47c0.2,14.65,4.7,21.57,20.64,20.38c0.99-0.07,2-0.01,3-0.01
			c116.12-0.02,232.24-0.01,348.36-0.13c4.16,0,5.94,0.9,6.99,5.36c5.27,22.32,15.13,42.43,29.97,60.08
			C661.42,880.48,667.36,885.72,672.95,891.34z M862.87,389.71c1.06-19.54-17.65-42.44-42.02-41.29c-3.9,0.18-5.33-1.07-6.89-4.26
			c-15.16-30.84-34.62-58.69-58.42-83.52c-17.56-18.32-36.96-34.44-58.1-48.43c-45.03-29.81-93.96-49.73-147.55-57.48
			c-4.21-0.61-5.32-2.07-5.77-5.9c-2.62-22.13-20.89-38.39-43.97-39.39c-20.86-0.91-41,14.37-45.71,34.62
			c-0.81,3.46,0.64,8.16-2.48,10.14c-2.84,1.81-7.05,1.4-10.64,2.09c-72.51,13.87-135.11,46.46-187.1,99.09
			c-3.16,3.2-4.93,9.9-3.37,12.59c3.05,5.27,7.16,7.35,12.32,6.11c3.58-0.86,5.93-3.52,8.43-5.97
			c22.03-21.53,46.44-39.81,73.52-54.56c33.92-18.48,69.98-30.57,108.02-37.03c4.1-0.7,6.45-0.14,9,3.52
			c18.39,26.39,54.22,26.76,72.97,0.6c3.11-4.34,6.04-5.13,10.64-4.41c51.32,7.99,98.52,26.63,141.42,55.74
			c45.89,31.14,81.98,71.23,107.47,120.67c1.55,3,1.55,4.81-1,7.26c-8.88,8.49-13.17,18.79-12.84,31.35
			c0.36,14.09,11.04,31.39,26.43,36.58c3.6,1.21,4.9,3.01,5.46,6.47c4.72,28.86,6.27,57.89,5.34,87.11
			c-0.11,3.41-1.25,4.65-4.22,6.07c-10.86,5.19-20.24,11.35-22.73,25c-3.08,16.91,2.2,31.01,16.72,40.3
			c4.46,2.86,4.53,5.44,3.28,9.62c-2.58,8.58-5.17,17.18-7.18,25.9c-1.42,6.19,1.7,10.83,7.22,12.33
			c5.59,1.52,10.88-1.39,12.96-7.21c3.71-10.34,6.83-20.87,9.14-31.61c0.72-3.33,2.03-4.9,5.35-6.02
			c18.78-6.36,29.04-24.85,24.27-43.81c-2.81-11.18-10.39-18.68-20.28-24.06c-1.92-1.04-3.54-1.69-3.33-4.68
			c2.12-30.04,0.22-59.89-5.13-89.51c-0.62-3.43,0.02-5.23,3.66-6.67C853.38,420.91,862.96,406.35,862.87,389.71z M125.53,491.8
			c0.19,16.23,10.01,30.86,28.06,38.12c2.61,1.05,3.5,2.22,3.56,5.01c0.29,14.49,1.48,28.92,3.94,43.22
			c0.79,4.57,1.13,9.29,3.44,13.47c2.33,4.21,7.55,6.33,11.96,4.9c4.74-1.53,7.77-6.39,7.02-11.31c-1.13-7.34-1.3-14.75-2.74-22.13
			c-1.77-9.11-1.48-18.61-2.35-27.92c-0.3-3.22,0.37-4.7,3.63-6.22c16.35-7.65,25.51-20.51,25.61-38.85
			c0.09-16.34-10.45-31.41-25.84-37.52c-2.51-1-2.73-2.19-2.36-4.45c2.54-15.6,5.77-31.03,10.52-46.13c0.8-2.55,1.4-5.13,1.18-7.84
			c-0.3-3.79-4.14-8.67-7.04-9.08c-3.89-0.55-7.58,0.69-11.3,1.31c-1.7,0.28-0.49,2.92-1.08,4.48
			c-6.92,18.44-11.17,37.55-13.7,57.05c-0.31,2.37-1.26,3.34-3.46,4.09C136.46,458.14,125.73,472.93,125.53,491.8z M375.67,865.2
			c0-0.01,0-0.03,0-0.04c12.82,0,25.65,0.06,38.47-0.02c6.64-0.04,11.75-5.15,11.86-11.58c0.12-6.9-5.17-12.7-11.96-12.72
			c-25.15-0.06-50.3-0.05-75.45,0.03c-7.3,0.03-12.77,5.69-12.59,12.65c0.18,7.14,5.06,11.66,12.69,11.68
			C351.02,865.22,363.34,865.2,375.67,865.2z M574.56,865.23c0-0.04,0-0.08,0-0.12c10.31,0,20.61,0.07,30.92-0.02
			c6.91-0.06,11.68-4.8,11.78-11.43c0.11-7.08-4.83-12.74-11.73-12.79c-20.11-0.13-40.23-0.13-60.35,0.02
			c-7.72,0.06-12.53,5.18-12.44,12.59c0.09,7.52,4.37,11.66,12.4,11.74C554.94,865.3,564.75,865.23,574.56,865.23z M201.76,357.71
			c2.7-0.25,5.38-1.04,7.59-3.49c2.55-2.82,4.02-6.21,5.81-9.44c7.08-12.79,15.51-24.71,23.86-36.68c3.99-5.71,3.08-12.28-2-15.88
			c-4.96-3.51-10.25-2.42-14.71,3.12c-8.03,9.96-14.85,20.77-21.6,31.59c-3.55,5.69-7,11.6-8.78,18.2
			C190.14,351.71,194.67,357.62,201.76,357.71z M479.69,865.2c0-0.03,0-0.05,0-0.08c4.66,0,9.32,0.03,13.97-0.01
			c6.78-0.06,12.29-5.26,12.33-11.6c0.05-7.02-5.05-12.57-12.01-12.66c-9.65-0.13-19.3-0.02-28.95,0.08
			c-1.46,0.01-2.97,0.38-4.38,0.82c-5.58,1.74-8.5,6.82-7.81,13.38c0.63,5.95,4.38,9.77,10.38,10.02
			C468.71,865.38,474.2,865.2,479.69,865.2z M708.19,305.08c8.79-0.43,14.08-5.1,14.63-17.26c0.31-6.77-6.8-12.52-15.54-12.71
			c-6.32-0.14-13.67,7.46-13.96,14.42C693.01,296.71,701.05,305.11,708.19,305.08z M281.82,290.77
			c-0.01,10.2,4.78,15.06,14.43,14.32c6.52-0.5,10.73-4.62,12.13-12.47c2.07-11.6-2.4-16.89-13.61-16.62
			c-7.49,0.18-12.99,4.76-13.38,11.5C281.33,288.48,281.64,289.46,281.82,290.77z"/>
		<path fill="#332B71" d="M672.95,891.34c-5.59-5.62-11.53-10.86-16.67-16.97c-14.84-17.65-24.71-37.76-29.97-60.08
			c-1.05-4.46-2.83-5.36-6.99-5.36c-116.12,0.12-232.24,0.11-348.36,0.13c-1,0-2-0.06-3,0.01c-15.94,1.19-20.45-5.73-20.64-20.38
			c-0.1-7.82,0.21-15.65,0.58-23.47c0.16-3.38-0.7-6.13-2.92-8.67c-15.01-17.17-28.46-35.48-40.62-54.78
			c-6.09-9.66-12.07-19.59-16.54-29.86c-5.45-12.54-10.92-25.3-14.58-38.61c-2.81-10.2,1.81-16.27,11.43-15.4
			c4.9,0.45,7.35,3.68,9.67,10.48c4.16,12.17,8.73,24.21,14.38,35.78c10.34,21.16,22.62,41.1,37.9,59.1
			c0.51,0.6,0.83,1.48,1.98,1.48c1.89-2.3,1.51-5.31,2.11-7.95c6.94-30.89,22.36-57.08,43.82-79.99
			c14.29-15.26,31.15-26.96,49.45-36.91c17-9.24,35.15-14.94,53.88-19.1c3.65-0.81,5.16-2.08,4.99-6.15
			c-0.34-8.48-0.02-16.99,0.1-25.48c0.03-1.96-0.52-3.42-2.04-4.8c-12.56-11.45-23.55-24.36-32.51-38.71
			c-6.58-10.54-11.09-22.24-15.43-33.98c-5.25-14.18-6.96-28.84-7.13-43.67c-0.36-31.15-0.41-62.31-0.01-93.46
			c0.35-27.28,10.87-50.95,27.71-72.02c25.22-31.57,58.84-48.84,97.86-56.05c28.17-5.21,56.16-2.85,83.51,5.67
			c34.03,10.6,62.38,29.34,82.81,59.04c13.1,19.04,21.41,39.83,21.46,63.25c0.09,35.64,0.81,71.33-0.69,106.91
			c-0.63,14.99-5.87,29.85-12,43.94c-4.53,10.42-10.48,19.96-16.67,29.45c-6.59,10.1-14.93,18.54-23.67,26.63
			c-2.95,2.73-4.2,5.54-4.05,9.55c0.29,7.82,0.29,15.66,0.03,23.48c-0.12,3.83,0.95,5.6,4.96,6.26c15.19,2.5,29.56,7.78,43.71,13.65
			c30.16,12.52,55.73,31.54,77.63,55.59c3.96,4.35,7.59,6.23,14.01,5.39c32.69-4.24,63.09,2.79,91.19,20.1
			c13.86,8.53,25.34,19.51,35.32,32.22c0.91,1.16,1.95,2.23,2.93,3.34c3.8,7.35,8.8,13.98,12.12,21.64
			c21.48,49.6,14.35,95.62-18.38,137.62c-23.91,30.68-56.31,46.74-95.05,49.77c-34.53,2.7-65.7-6.6-93.69-26.85
			C675.7,892.27,674.61,891.19,672.95,891.34z M476.09,236.44c-1.72-1.31-3.64-1.39-5.66-0.95c-22.43,4.89-42.8,14.11-60.18,29.29
			c-17.8,15.55-30.5,34.35-35.65,57.75c-0.71,3.24-1.47,6.57,1,9.51c-2.25,2.25-2.03,5.17-2.02,7.96c0.05,8.15,0.25,16.3,0.35,24.46
			c0.09,7.17,0.14,7.45,7.17,7.02c14.47-0.89,28.96-0.53,43.43-0.35c14.44,0.17,28.93-0.27,43.13-2.2
			c9.33-1.27,18.89-3.23,27.94-6.44c9.22-3.28,18.99-5.62,27.42-10.34c19.09-10.67,35.95-24.41,49.86-41.5
			c1.37-1.68,3.04-2.97,5.16-3.78c10.03-3.81,18.26,0.52,22.66,12.45c5.44,14.74,13.37,28.06,22.66,40.61
			c2.05,2.77,4.09,5.72,7.36,8.07c0-11.46-0.01-22.28,0.01-33.1c0.01-5.35-0.48-10.65-1.8-15.82
			c-6.81-26.66-23.51-46.37-45.44-61.58c-31.39-21.77-66.73-27.72-104.19-23.17C478,234.49,476.06,234.06,476.09,236.44z
			 M641.86,622.27c-13.8-7.28-28.66-11.47-43.66-15.36c-3.45-0.9-5.27-0.25-7.4,2.63c-32.02,43.29-94.61,56.06-142.18,30.58
			c-13.69-7.33-25.36-17.1-34.66-29.6c-1.69-2.27-3.14-4.43-6.83-3.52c-42.23,10.36-79.21,29.28-105.58,65.17
			c-16.46,22.41-26.22,47.27-25.71,75.54c-0.48,0.37-0.58,0.79-0.17,1.28c0.11,0.58,0.22,1.17,0.34,1.75
			c-0.97,8.46-0.19,16.96-0.5,25.44c-0.13,3.68,1.08,4.8,4.87,4.8c97.08-0.11,194.16-0.08,291.24-0.09
			c15.82,0,31.64-0.09,47.46-0.02c3.05,0.01,4.62-0.24,4.91-4.14c0.67-8.74,1.97-17.46,4.57-25.91c0.43-1.08,0.95-2.13,1.29-3.23
			c7.46-24.31,21.24-44.5,40.25-61.15c5.59-4.9,11.82-9.06,17.76-13.56c3.7-1.84,7.35-3.78,11.12-5.48
			c2.97-1.34,3.76-2.46,1.07-5.22c-6.97-7.17-14.27-13.94-22.34-19.82C666.57,634.22,654.9,627.01,641.86,622.27z M419.6,399.93
			c-12.78,0-21.44-0.02-30.1,0.01c-4.64,0.02-10.78-1.64-13.54,0.67c-3.21,2.69-1.03,9.05-1,13.79c0.09,13.09-0.65,26.13,2.75,39.14
			c5.09,19.47,13.16,37.3,26.27,52.55c31.09,36.15,69.97,54.87,117.89,46.43c51.36-9.04,84.83-40.65,102.52-89.39
			c6.53-17.98,5.62-36.68,5.6-55.31c0-2.04-1.22-2.96-2.54-3.95c-20.36-15.21-34.62-35.21-45.19-58.01
			c-1.6-3.45-2.46-2.98-4.57-0.68c-19.38,21.13-43.41,34.66-70.57,43.06C477.24,397.48,446.65,400.93,419.6,399.93z M753.34,892.75
			c27.4,0.07,51.64-6.9,66.74-17.66c33.48-23.85,50.23-55.6,46.72-97.39c-1.65-19.68-7.93-37.3-20.05-52.79
			c-22.91-29.28-53.28-43.58-90.21-42.83c-37.5,0.76-67.59,16.66-88.17,48.25c-28.47,43.71-20.25,104.79,23.08,138.56
			C711.49,884.51,734.05,892.15,753.34,892.75z M430.02,564.29c-2.23,14.76,3.33,26.46,13.15,36.33
			c17.18,17.27,38.32,24.42,62.43,23.39c23.66-1.01,43.78-9.68,59.45-27.78c8.3-9.59,11.95-22.26,9.35-31.8
			C526.31,588.94,478.21,589.17,430.02,564.29z"/>
		<path fill="#332B71" d="M862.87,389.71c0.09,16.64-9.49,31.2-25.12,37.35c-3.65,1.44-4.28,3.24-3.66,6.67
			c5.36,29.62,7.26,59.46,5.13,89.51c-0.21,2.99,1.42,3.64,3.33,4.68c9.89,5.37,17.47,12.88,20.28,24.06
			c4.77,18.95-5.49,37.45-24.27,43.81c-3.31,1.12-4.63,2.69-5.35,6.02c-2.32,10.73-5.43,21.26-9.14,31.61
			c-2.09,5.82-7.37,8.73-12.96,7.21c-5.52-1.5-8.64-6.14-7.22-12.33c2-8.73,4.6-17.32,7.18-25.9c1.26-4.18,1.18-6.76-3.28-9.62
			c-14.51-9.29-19.8-23.39-16.72-40.3c2.49-13.65,11.87-19.81,22.73-25c2.98-1.42,4.12-2.67,4.22-6.07
			c0.92-29.21-0.62-58.25-5.34-87.11c-0.57-3.46-1.86-5.25-5.46-6.47c-15.39-5.19-26.06-22.49-26.43-36.58
			c-0.32-12.56,3.96-22.86,12.84-31.35c2.56-2.44,2.55-4.26,1-7.26c-25.49-49.45-61.58-89.54-107.47-120.67
			c-42.9-29.1-90.1-47.75-141.42-55.74c-4.59-0.71-7.52,0.07-10.64,4.41c-18.76,26.17-54.58,25.79-72.97-0.6
			c-2.55-3.66-4.9-4.22-9-3.52c-38.04,6.46-74.09,18.55-108.02,37.03c-27.08,14.75-51.5,33.03-73.52,54.56
			c-2.5,2.44-4.85,5.11-8.43,5.97c-5.16,1.24-9.27-0.84-12.32-6.11c-1.56-2.69,0.21-9.38,3.37-12.59
			c51.99-52.63,114.59-85.22,187.1-99.09c3.59-0.69,7.8-0.28,10.64-2.09c3.11-1.98,1.67-6.68,2.48-10.14
			c4.71-20.24,24.85-35.52,45.71-34.62c23.09,1.01,41.36,17.26,43.97,39.39c0.45,3.83,1.56,5.29,5.77,5.9
			c53.59,7.76,102.52,27.68,147.55,57.48c21.14,14,40.54,30.11,58.1,48.43c23.79,24.83,43.26,52.68,58.42,83.52
			c1.57,3.19,2.99,4.44,6.89,4.26C845.22,347.27,863.93,370.17,862.87,389.71z M499.33,176.29c12.12-0.03,21.68-9.47,21.61-21.34
			c-0.06-12-10.34-21.97-22.54-21.88c-11.88,0.09-21.46,9.81-21.35,21.67C477.16,166.5,487.32,176.32,499.33,176.29z M840.04,389.72
			c0.05-9.87-8.47-18.39-18.36-18.37c-9.87,0.03-17.79,7.88-17.81,17.66c-0.02,9.89,8.11,17.97,18.05,17.94
			C832.13,406.93,839.99,399.45,840.04,389.72z M826.99,575.96c8.27,0.03,14.82-6.24,14.89-14.24c0.07-8.24-6.84-15-15.37-15.03
			c-7.75-0.03-14.42,6.53-14.4,14.19C812.12,568.85,819.11,575.94,826.99,575.96z"/>
		<path fill="#332B71" d="M125.53,491.8c0.2-18.87,10.92-33.66,29.06-39.81c2.19-0.74,3.15-1.71,3.46-4.09
			c2.53-19.5,6.78-38.61,13.7-57.05c0.59-1.56-0.62-4.2,1.08-4.48c3.72-0.61,7.41-1.86,11.3-1.31c2.91,0.41,6.74,5.29,7.04,9.08
			c0.22,2.72-0.38,5.29-1.18,7.84c-4.74,15.09-7.98,30.53-10.52,46.13c-0.37,2.26-0.15,3.45,2.36,4.45
			c15.4,6.11,25.93,21.17,25.84,37.52c-0.1,18.34-9.26,31.2-25.61,38.85c-3.25,1.52-3.93,3-3.63,6.22
			c0.87,9.31,0.58,18.81,2.35,27.92c1.44,7.38,1.61,14.78,2.74,22.13c0.76,4.92-2.28,9.78-7.02,11.31
			c-4.42,1.42-9.63-0.69-11.96-4.9c-2.31-4.18-2.65-8.9-3.44-13.47c-2.46-14.3-3.65-28.73-3.94-43.22
			c-0.06-2.78-0.95-3.96-3.56-5.01C135.54,522.66,125.73,508.03,125.53,491.8z M166.45,472.67c-10.02-0.11-18.25,7.85-18.3,17.69
			c-0.04,9.8,8.24,18.37,17.82,18.45c10.1,0.09,18.89-8.23,18.96-17.94C185.01,480.79,176.87,472.78,166.45,472.67z"/>
		<path fill="#332B71" d="M375.67,865.2c-12.32,0-24.65,0.02-36.97-0.01c-7.63-0.02-12.51-4.53-12.69-11.68
			c-0.18-6.96,5.29-12.62,12.59-12.65c25.15-0.09,50.3-0.1,75.45-0.03c6.79,0.02,12.08,5.81,11.96,12.72
			c-0.11,6.43-5.22,11.54-11.86,11.58c-12.82,0.08-25.65,0.02-38.47,0.02C375.67,865.17,375.67,865.18,375.67,865.2z"/>
		<path fill="#332B71" d="M574.56,865.23c-9.81,0-19.62,0.07-29.43-0.02c-8.03-0.07-12.31-4.21-12.4-11.74
			c-0.09-7.41,4.72-12.53,12.44-12.59c20.11-0.14,40.23-0.15,60.35-0.02c6.91,0.05,11.84,5.7,11.73,12.79
			c-0.1,6.63-4.87,11.37-11.78,11.43c-10.31,0.09-20.61,0.02-30.92,0.02C574.56,865.15,574.56,865.19,574.56,865.23z"/>
		<path fill="#332B71" d="M201.76,357.71c-7.09-0.09-11.62-6-9.84-12.57c1.78-6.6,5.23-12.51,8.78-18.2
			c6.75-10.82,13.57-21.63,21.6-31.59c4.47-5.54,9.75-6.63,14.71-3.12c5.08,3.6,5.99,10.16,2,15.88
			c-8.35,11.97-16.78,23.89-23.86,36.68c-1.79,3.23-3.26,6.61-5.81,9.44C207.13,356.68,204.46,357.47,201.76,357.71z"/>
		<path fill="#332B71" d="M479.69,865.2c-5.49,0-10.99,0.18-16.47-0.05c-6-0.25-9.76-4.07-10.38-10.02
			c-0.69-6.57,2.24-11.65,7.81-13.38c1.41-0.44,2.91-0.8,4.38-0.82c9.65-0.1,19.3-0.21,28.95-0.08c6.96,0.09,12.06,5.64,12.01,12.66
			c-0.04,6.33-5.54,11.54-12.33,11.6c-4.66,0.04-9.32,0.01-13.97,0.01C479.69,865.15,479.69,865.17,479.69,865.2z"/>
		<path fill="#FEFEFE" d="M708.19,305.08c-7.13,0.03-15.18-8.38-14.87-15.54c0.3-6.97,7.65-14.56,13.96-14.42
			c8.74,0.19,15.84,5.93,15.54,12.71C722.27,299.98,716.98,304.65,708.19,305.08z"/>
		<path fill="#FEFEFE" d="M281.82,290.77c-0.18-1.31-0.49-2.3-0.43-3.26c0.39-6.74,5.89-11.33,13.38-11.5
			c11.21-0.26,15.68,5.03,13.61,16.62c-1.4,7.85-5.61,11.97-12.13,12.47C286.6,305.84,281.82,300.97,281.82,290.77z"/>
		<path fill="#FEFEFE" d="M687.86,672.85c-5.94,4.5-12.17,8.67-17.76,13.56c-19.02,16.65-32.79,36.84-40.25,61.15
			c-0.34,1.11-0.86,2.16-1.29,3.23c-28.13-0.01-56.26-0.01-84.39-0.02c-89.39-0.02-178.77-0.04-268.16-0.05
			c-0.11-0.58-0.22-1.17-0.34-1.75c0.06-0.43,0.12-0.85,0.17-1.28c-0.52-28.27,9.24-53.14,25.71-75.54
			c26.37-35.89,63.35-54.81,105.58-65.17c3.7-0.91,5.14,1.25,6.83,3.52c9.3,12.51,20.97,22.27,34.66,29.6
			c47.56,25.48,110.15,12.72,142.18-30.58c2.13-2.88,3.95-3.53,7.4-2.63c15,3.9,29.86,8.09,43.66,15.36
			c0.26,2.26,2.07,3.35,3.63,4.49c12.31,8.97,21.66,20.83,31.39,32.29C680.68,663.53,684.21,668.25,687.86,672.85z"/>
		<path fill="#FEFEFE" d="M419.6,399.93c27.05,1.01,57.64-2.45,87.51-11.68c27.17-8.4,51.2-21.93,70.57-43.06
			c2.11-2.3,2.97-2.77,4.57,0.68c10.57,22.8,24.83,42.8,45.19,58.01c1.33,0.99,2.54,1.91,2.54,3.95c0.03,18.63,0.93,37.32-5.6,55.31
			c-17.69,48.73-51.16,80.34-102.52,89.39c-47.93,8.44-86.81-10.29-117.89-46.43c-13.11-15.24-21.19-33.07-26.27-52.55
			c-3.4-13.01-2.66-26.05-2.75-39.14c-0.03-4.74-2.21-11.09,1-13.79c2.76-2.32,8.89-0.65,13.54-0.67
			C398.16,399.9,406.82,399.93,419.6,399.93z"/>
		<path fill="#CFBBE2" d="M476.09,236.44c-0.03-2.38,1.9-1.96,3.23-2.12c37.46-4.55,72.8,1.4,104.19,23.17
			c21.93,15.21,38.63,34.92,45.44,61.58c1.32,5.17,1.81,10.47,1.8,15.82c-0.02,10.82-0.01,21.64-0.01,33.1
			c-3.28-2.35-5.32-5.31-7.36-8.07c-9.29-12.55-17.22-25.87-22.66-40.61c-4.4-11.93-12.63-16.27-22.66-12.45
			c-2.13,0.81-3.8,2.11-5.16,3.78c-13.91,17.09-30.77,30.82-49.86,41.5c-8.43,4.72-18.21,7.06-27.42,10.34
			c-9.06,3.22-18.62,5.17-27.94,6.44c-14.2,1.94-28.69,2.38-43.13,2.2c-14.47-0.17-28.95-0.54-43.43,0.35
			c-7.03,0.43-7.08,0.16-7.17-7.02c-0.11-8.15-0.3-16.3-0.35-24.46c-0.02-2.79-0.24-5.71,2.02-7.96c2.28,1.9,4.33,3.94,7.76,3.91
			c6.67-0.04,8.85-2.26,12.5-11.22c6.93-16.97,15.75-32.52,31.17-43.69c6.48-4.69,11.65-11.1,19.54-13.97
			c8.19-2.98,15.19-8.58,24.35-9.66c7.32-0.87,10.58-6.34,9.99-13.08C480.6,240.77,477.54,239.16,476.09,236.44z"/>
		<path fill="#CFBBE2" d="M753.34,892.75c-19.29-0.6-41.86-8.24-61.88-23.84c-43.34-33.77-51.55-94.86-23.08-138.56
			c20.58-31.6,50.67-47.49,88.17-48.25c36.94-0.75,67.3,13.55,90.21,42.83c12.12,15.49,18.4,33.11,20.05,52.79
			c3.51,41.79-13.24,73.53-46.72,97.39C804.99,885.85,780.74,892.82,753.34,892.75z M809.68,783.27c4.73-1.9,9.1-3.97,12.97-6.85
			c6.91-5.16,11.57-11.58,10.25-20.76c-1.23-8.55-6.35-13.93-14.3-17c-19.66-7.61-39.25-15.41-58.91-23
			c-9.76-3.77-19.24-8.36-29.43-10.9c-10.82-2.71-23.03,7.02-23.05,18.06c-0.05,27.02-0.13,54.04-0.16,81.07
			c-0.01,9.49,0.05,18.97,0.13,28.46c0.01,1.59-0.17,3.08,0.46,4.8c5.02,13.68,21.73,17.73,32.02,7.49
			c5.06-5.04,9.97-10.26,14.65-15.65c2.11-2.43,3.45-2.26,5.5-0.16c5.34,5.47,10.67,10.97,16.27,16.17
			c9.43,8.76,22.69,8.58,31.81-0.42c5.67-5.59,11.14-11.39,16.52-17.27c6.25-6.82,6.3-19.44,0.69-26.74
			C820.43,794.5,814.7,789.42,809.68,783.27z"/>
		<path fill="#CFBBE2" d="M276.01,750.73c89.39,0.02,178.77,0.04,268.16,0.05c28.13,0.01,56.26,0.01,84.39,0.02
			c-2.59,8.45-3.9,17.17-4.57,25.91c-0.3,3.9-1.86,4.16-4.91,4.14c-15.82-0.08-31.64,0.02-47.46,0.02
			c-97.08,0.01-194.16-0.02-291.24,0.09c-3.79,0-5-1.12-4.87-4.8C275.82,767.69,275.03,759.19,276.01,750.73z"/>
		<path fill="#FEFEFE" d="M430.02,564.29c48.19,24.88,96.29,24.65,144.38,0.13c2.6,9.54-1.04,22.21-9.35,31.8
			c-15.67,18.1-35.79,26.77-59.45,27.78c-24.11,1.03-45.24-6.12-62.43-23.39C433.35,590.75,427.79,579.06,430.02,564.29z"/>
		<path fill="#FEFEFE" d="M476.09,236.44c1.45,2.72,4.5,4.33,4.82,7.89c0.6,6.74-2.67,12.21-9.99,13.08
			c-9.16,1.09-16.16,6.69-24.35,9.66c-7.89,2.87-13.06,9.28-19.54,13.97c-15.42,11.17-24.25,26.72-31.17,43.69
			c-3.66,8.95-5.83,11.18-12.5,11.22c-3.43,0.02-5.48-2.01-7.76-3.91c-2.47-2.94-1.71-6.28-1-9.51
			c5.15-23.39,17.84-42.2,35.65-57.75c17.39-15.18,37.75-24.4,60.18-29.29C472.45,235.05,474.38,235.13,476.09,236.44z"/>
		<path fill="#CFBBE2" d="M687.86,672.85c-3.65-4.61-7.18-9.32-10.99-13.8c-9.73-11.47-19.07-23.32-31.39-32.29
			c-1.56-1.14-3.37-2.23-3.63-4.49c13.04,4.74,24.71,11.94,35.85,20.05c8.07,5.88,15.37,12.65,22.34,19.82
			c2.69,2.77,1.91,3.88-1.07,5.22C695.22,669.07,691.56,671.02,687.86,672.85z"/>
		<path fill="#CFBBE2" d="M275.84,747.7c-0.06,0.43-0.12,0.85-0.17,1.28C275.26,748.48,275.37,748.06,275.84,747.7z"/>
		<path fill="#FEFEFE" d="M499.33,176.29c-12.01,0.03-22.17-9.79-22.28-21.55c-0.11-11.86,9.47-21.58,21.35-21.67
			c12.2-0.09,22.47,9.88,22.54,21.88C521,166.82,511.45,176.26,499.33,176.29z"/>
		<path fill="#FEFEFE" d="M840.04,389.72c-0.05,9.73-7.91,17.21-18.12,17.23c-9.94,0.02-18.07-8.06-18.05-17.94
			c0.02-9.78,7.93-17.63,17.81-17.66C831.57,371.33,840.09,379.85,840.04,389.72z"/>
		<path fill="#FEFEFE" d="M826.99,575.96c-7.88-0.03-14.86-7.11-14.88-15.09c-0.02-7.66,6.65-14.22,14.4-14.19
			c8.53,0.04,15.44,6.79,15.37,15.03C841.81,569.72,835.26,575.99,826.99,575.96z"/>
		<path fill="#FEFEFE" d="M166.45,472.67c10.42,0.11,18.56,8.12,18.49,18.2c-0.07,9.71-8.86,18.02-18.96,17.94
			c-9.59-0.08-17.87-8.65-17.82-18.45C148.19,480.52,156.42,472.56,166.45,472.67z"/>
		<path fill="#332B71" d="M809.68,783.27c5.01,6.15,10.75,11.23,15.41,17.3c5.61,7.3,5.56,19.91-0.69,26.74
			c-5.38,5.87-10.85,11.68-16.52,17.27c-9.12,8.99-22.38,9.18-31.81,0.42c-5.6-5.2-10.93-10.7-16.27-16.17
			c-2.05-2.1-3.4-2.27-5.5,0.16c-4.68,5.4-9.59,10.61-14.65,15.65c-10.28,10.24-26.99,6.19-32.02-7.49
			c-0.63-1.72-0.45-3.21-0.46-4.8c-0.08-9.49-0.14-18.97-0.13-28.46c0.04-27.02,0.11-54.04,0.16-81.07
			c0.02-11.04,12.23-20.76,23.05-18.06c10.19,2.55,19.67,7.14,29.43,10.9c19.67,7.59,39.26,15.39,58.91,23
			c7.95,3.08,13.07,8.45,14.3,17c1.32,9.18-3.34,15.61-10.25,20.76C818.78,779.3,814.42,781.37,809.68,783.27z M800.77,760.89
			c-0.32-1.51-1.15-1.78-1.9-2.1c-20.5-8.69-41.36-16.42-62.25-24.11c-3.63-1.34-3.47,0.73-3.46,3.12
			c0.13,23.48,0.23,46.97,0.35,70.45c0,0.95-0.46,2.21,0.73,2.62c1.03,0.36,1.83-0.54,2.5-1.31c3.6-4.14,7.12-8.34,10.8-12.41
			c6.04-6.67,9.98-6.76,16.22-0.37c7.54,7.73,15.01,15.53,22.51,23.31c4.65,4.82,4.66,4.84,9.11,0.14c1.83-1.93,3.54-3.97,5.4-5.87
			c1.99-2.03,2-3.52-0.2-5.7c-7.78-7.73-15.43-15.61-22.89-23.65c-6.64-7.16-4.87-13.88,4.23-17.21
			C788.24,765.49,794.55,763.17,800.77,760.89z"/>
		<path fill="#FEFEFE" d="M800.77,760.89c-6.22,2.28-12.53,4.6-18.84,6.92c-9.1,3.33-10.87,10.05-4.23,17.21
			c7.46,8.04,15.11,15.92,22.89,23.65c2.19,2.18,2.19,3.67,0.2,5.7c-1.86,1.9-3.57,3.94-5.4,5.87c-4.45,4.7-4.46,4.68-9.11-0.14
			c-7.5-7.78-14.97-15.58-22.51-23.31c-6.23-6.39-10.18-6.3-16.22,0.37c-3.68,4.06-7.21,8.27-10.8,12.41
			c-0.67,0.77-1.47,1.67-2.5,1.31c-1.18-0.41-0.72-1.67-0.73-2.62c-0.12-23.48-0.22-46.97-0.35-70.45
			c-0.01-2.39-0.18-4.46,3.46-3.12c20.89,7.69,41.75,15.42,62.25,24.11C799.62,759.11,800.46,759.37,800.77,760.89z"/>
	</g>
</g>
</svg>
