<?xml version="1.0" encoding="utf-8"?>
<!-- Generator: Adobe Illustrator 27.8.0, SVG Export Plug-In . SVG Version: 6.00 Build 0)  -->
<svg version="1.1" id="Capa_1" xmlns="http://www.w3.org/2000/svg" xmlns:xlink="http://www.w3.org/1999/xlink" x="0px" y="0px"
	 viewBox="0 0 768 768" enable-background="new 0 0 768 768" xml:space="preserve">
<g>
	<g>
		<path fill="#FFFFFF" d="M-6.43,768c0-256,0-512,0-768c256,0,512,0,768,0c0,256,0,512,0,768C505.57,768,249.57,768-6.43,768z
			 M353.81,250.63c0,2.44,0,4.79,0,7.13c-0.01,22.48-0.05,44.95-0.04,67.43c0.01,13.98-0.02,27.97,0.18,41.95
			c0.09,6.37,3.4,9.76,9.36,9.78c16.98,0.07,33.97,0.13,50.94-0.22c2.28-0.05,5.21-1.97,6.59-3.9c1.45-2.03,1.89-5.13,1.91-7.76
			c0.15-16.48,0.06-32.96,0.04-49.45c-0.01-7.4,0-7.4,7.41-6.75c0.22,0.02,0.43,0.22,1.08,0.56c0,18.31,0,36.86,0,55.92
			c5.5,0,10.58,0,15.66,0c50.32,0.03,100.64,0.04,150.96,0.11c8.53,0.01,16.71-1.18,23.78-6.35c11.7-8.55,16.74-20.42,16.75-34.63
			c0.01-41.83,0.1-83.66-0.1-125.49c-0.1-20.81-16.75-37.69-37.19-37.74c-54.19-0.12-108.39-0.02-162.58,0.03
			c-2.3,0-4.6,0.35-7.11,0.55c0,1.96,0,3.44,0,4.93c0.03,13.74,0.09,27.47,0.07,41.21c-0.01,4.2-1.21,5.19-5.08,4.94
			c-3.57-0.23-3.68-2.69-3.68-5.32c0.04-18.23,0.1-36.46,0.12-54.69c0.01-7.96-1.98-10.05-9.88-10.05
			c-15.48-0.02-30.97,0.26-46.45,0.06c-11.86-0.15-12.87,2.95-12.79,13.11c0.13,17.23,0.04,34.46,0.12,51.69
			c0.01,2.86-0.56,4.92-3.91,5.14c-3.56,0.23-5.04-1.15-5.05-5.19c-0.02-13.99,0.01-27.97,0.03-41.96c0-1.43,0-2.86,0-4.39
			c-1.78-0.08-2.89-0.17-4-0.17c-55.07,0.02-110.13,0.02-165.2,0.12c-3.21,0.01-6.5,0.39-9.62,1.15
			c-16.88,4.14-28.61,19.3-28.63,37.03c-0.05,42.46-0.02,84.91,0.03,127.37c0,2.73,0.3,5.49,0.75,8.18
			c2.65,15.79,16.05,28.8,32.03,30c10.68,0.8,21.45,0.28,32.19,0.29c45.2,0.02,90.4,0.01,135.6,0c2.2,0,4.41-0.18,6.9-0.29
			c0-1.45,0-2.55,0-3.65c-0.01-34.71-0.01-69.43-0.03-104.14C344.96,249.47,344.94,249.47,353.81,250.63z M96.66,677.03
			c196.15,0,391.9,0,588.04,0c0-28.65,0-57.15,0-85.67c-196.05,0-391.89,0-588.04,0C96.66,619.96,96.66,648.26,96.66,677.03z
			 M419.57,561.08c-0.13-2.61-0.15-4.73-0.34-6.83c-0.31-3.36-1.91-6.16-5.08-7.26c-3.05-1.06-3.31-2.97-3.31-5.66
			c0.06-50.06,0.04-100.12,0.05-150.17c0-1.44,0-2.88,0-4.36c-15.21,0-29.87,0-44.89,0c0,2.35,0,4.32,0,6.29
			c0.01,49.43,0.02,98.87,0.06,148.3c0,2.44,0.04,4.54-2.9,5.65c-3.97,1.51-5.4,4.92-5.44,8.99c-0.02,1.58,0,3.17,0,4.92
			c-3.31,0.25-6.23,0.47-9.05,0.68c0,7.01,0,13.58,0,20.26c27.26,0,54.26,0,81.27,0c0-6.85,0-13.4,0-20.29
			C426.42,561.43,423.11,561.26,419.57,561.08z M177.41,535.2c-0.15-0.65-0.25-1.01-0.32-1.37c-2.15-10.69-4.63-21.28-11.91-29.88
			c-2.06-2.43-4.5-4.69-7.15-6.44c-2.29-1.51-5.13-1.52-7.06,1.03c-1.76,2.34-1.26,4.71,0.62,6.8c4.1,4.55,7.45,9.71,8.05,15.77
			c0.73,7.51,0.54,15.12,0.45,22.68c-0.03,2.42-1.01,4.83-1.37,6.43c-4.64-6.19-9.14-12.59-14.1-18.6c-1.74-2.11-4.47-3.6-7.02-4.77
			c-2.5-1.14-5.16-0.86-6.95,1.8c-1.9,2.82-0.12,4.68,1.74,6.45c6.22,5.91,10.15,13.22,12.97,21.19c0.51,1.44,0.71,2.99,1.18,5.06
			c-4.82,0-9.06-0.15-13.27,0.1c-1.17,0.07-2.94,1.06-3.3,2.05c-2.24,6.04-4.15,12.21-6.2,18.43c19.47,0,38.53,0,57.77,0
			c0.38-1.92,0.61-3.65,1.07-5.32c3.55-13.05,4.8-26.72,10.52-39.17c2.13-4.64,4.53-9.16,6.66-13.81c1.17-2.55,1.24-5.21-1.19-7.15
			c-2.38-1.91-5.19-2.1-7.61-0.28c-2.15,1.62-4.25,3.55-5.74,5.76C182.46,526.07,180.15,530.49,177.41,535.2z M602.54,534.16
			c-2.86-4.55-5.82-9.85-9.35-14.74c-3.27-4.52-7.84-5.66-10.94-3.48c-2.94,2.08-2.77,5.6-0.58,10.86
			c3.82,9.17,7.17,18.54,10.74,27.81c1.52,3.94,2.93,7.95,4.74,11.76c2.5,5.23,5.35,10.3,8.12,15.59c14.54,0,29.44,0,44.62,0
			c-1.42-4.26-2.8-8.25-4.06-12.27c-2.52-8.01-2.49-8.01-10.9-8.56c-0.22-0.01-0.42-0.24-0.89-0.52c0.23-1.1,0.35-2.33,0.74-3.47
			c2.89-8.46,6.63-16.35,13.69-22.34c1.29-1.1,2.43-4.16,1.8-5.31c-0.84-1.53-3.47-2.81-5.34-2.82c-2.03-0.01-4.58,1.06-6.02,2.52
			c-4.33,4.41-8.36,9.14-12.24,13.97c-1.66,2.06-2.66,4.65-4.17,7.39c-2.76-9.14-3.47-17.89-2.26-26.78
			c0.97-7.13,3.86-13.35,9.04-18.47c1.71-1.69,2.62-3.69,1.09-6.04c-1.59-2.44-3.96-3.03-6.55-2.26c-1.51,0.45-3.19,1.22-4.16,2.37
			c-3.28,3.88-7.13,7.6-9.17,12.11C607.14,518.88,605.03,526.85,602.54,534.16z M96.78,686.14c-0.16,1.7-0.33,2.8-0.37,3.9
			c-0.2,6.46,0.64,7.34,7.17,7.37c4.87,0.02,9.73-0.04,14.6-0.04c81.87-0.04,163.73-0.07,245.6-0.12c1.87,0,3.76-0.02,5.59-0.34
			c3.17-0.54,4.84-2.75,4.71-5.8c-0.13-2.98-2.13-4.66-5.16-4.83c-2.24-0.13-4.49-0.19-6.73-0.19c-73,0.01-146.01,0.03-219.01,0.05
			C127.82,686.14,112.48,686.14,96.78,686.14z M561.29,108.91c-1.47-3.58-2.57-7.19-4.36-10.42c-4.6-8.31-12.17-12.24-21.36-12
			c-9.14,0.23-16.57,4.22-20.83,12.87c-1.19,2.42-1.62,4.18,1.27,6.14c3.42,2.33,3.49,6.54,0.89,9.11c-2.4,2.37-4.82,2.03-7.85-1.58
			c-1.75-2.08-3.53-2.52-5.89-1.44c-5.85,2.67-9.57,7.09-10.76,13.43c-0.74,3.93-0.06,4.65,3.96,4.65
			c33.71,0,67.41-0.01,101.12-0.04c3.99,0,4.96-1.18,3.73-5.03c-2.03-6.37-5.79-11.62-11.47-15.22
			C580.35,103.42,570.74,103.34,561.29,108.91z M339.73,582.09c0-6.46,0.09-12.55-0.12-18.62c-0.03-0.77-1.63-2.05-2.57-2.12
			c-3.54-0.25-7.1-0.1-11.13-0.1c0.52-1.31,0.64-2.08,1.07-2.6c3.5-4.35,6.99-8.72,10.63-12.96c1.7-1.99,2.2-3.98,0.59-6.06
			c-1.58-2.04-3.72-3.07-6.23-1.66c-1.72,0.97-3.49,2.04-4.84,3.44c-5.54,5.74-10.85,11.69-16.41,17.41
			c-1.23,1.26-3.11,1.89-4.7,2.8c-0.38-0.41-0.76-0.82-1.14-1.22c2.23-4.83,3.93-10.01,6.83-14.4c4.51-6.84,9.79-13.18,14.83-19.66
			c1.77-2.27,2.89-4.57,0.79-7.05c-2.03-2.39-4.72-2.1-7.16-0.75c-1.94,1.07-3.79,2.43-5.43,3.92c-9.96,9.04-17.42,19.89-22.24,32.4
			c-1.69,4.39-3.65,7.42-8.8,7.02c-0.18-0.01-0.38,0.28-0.46,0.34c-1.27,6.65-2.52,13.19-3.79,19.87
			C299.48,582.09,319.31,582.09,339.73,582.09z M198.09,109.79c-0.88-0.7-2.02-1.62-3.18-2.53c-12.43-9.7-30.44-3.94-35.01,11.18
			c-1.77,5.87-1.08,6.89,4.91,6.88c20.32-0.02,40.65-0.07,60.97-0.12c5.49-0.01,10.98,0.12,16.45-0.18
			c1.31-0.07,3.35-1.41,3.65-2.54c1.2-4.49-2.43-11.31-6.82-12.97c-2.14-0.8-2.94-1.97-3.55-4.08c-2.06-7.08-6.49-11.97-14-13.48
			c-7.47-1.5-13.71,0.93-18.13,6.9C201.03,102.03,199.84,106.06,198.09,109.79z M140.15,398.36c-14.05-0.16-25.35,10.52-25.66,24.24
			c-0.31,13.85,11.2,25.23,25.51,25.24c13.03,0.01,24.35-11.01,24.5-23.84C164.66,409.41,154.32,398.52,140.15,398.36z
			 M271.27,407.61c-0.44-1.17-0.73-2.09-1.12-2.95c-3.36-7.32-8.69-12.19-17-12.77c-7.88-0.55-14.35,2.54-18.17,9.45
			c-2.03,3.67-3.36,7.13-7.75,8.92c-3.32,1.36-4.87,7.44-3.56,11c1.4,3.81,4.88,2.31,7.47,2.32c24.83,0.07,49.67-0.03,74.5-0.09
			c4.16-0.01,4.94-0.71,4.14-4.89c-1.65-8.65-6.69-14.88-15.02-17.59C285.85,398.12,277.8,400.31,271.27,407.61z M625.04,413.24
			c0.12,13.4,10.4,23.12,24.24,22.92c12.28-0.18,22.29-10.38,22.21-22.64c-0.08-12.84-10.66-23.38-23.36-23.28
			C635.22,390.34,624.92,400.6,625.04,413.24z M495.17,561.13c-5.71,1.76-6.75-2.48-8.69-6.41c-3.35-6.79-6.77-13.7-11.28-19.73
			c-4.42-5.92-10.06-10.98-15.52-16.04c-2.37-2.2-5.77-2.19-8.07,0.48c-2.32,2.68-0.96,5.24,1.1,7.65
			c3.16,3.69,6.34,7.39,9.14,11.35c4.81,6.81,8.14,14.34,9.81,22.76c-1.35-0.37-2.42-0.98-3.2-1.84
			c-5.52-6.09-10.88-12.32-16.52-18.29c-1.45-1.53-3.65-2.67-5.71-3.2c-1.2-0.31-3.18,0.6-4.11,1.61c-0.81,0.88-1.34,3.29-0.76,3.94
			c2.28,2.56,4.94,6.46,7.64,6.61c5.24,0.29,7.39,3.62,10.03,6.73c6.3,7.41,10.55,15.97,13.31,25.13c9.16,0,18.03,0,26.95,0
			C497.89,574.9,496.57,568.22,495.17,561.13z M575.52,561.51c-13.72,0-26.6,0-39.93,0c2.44,6.38,4.73,12.03,6.74,17.77
			c0.8,2.28,2.01,2.93,4.36,2.91c15.35-0.1,30.7-0.04,46.06-0.06c0.78,0,1.55-0.19,2.6-0.32c-0.55-0.99-0.87-1.66-1.27-2.27
			c-5.46-8.35-8.81-17.38-10.52-27.3c-1.76-10.16-7.47-18.41-15.79-24.57c-3.53-2.61-7.09-2.14-9.04,0.56
			c-2.61,3.62,0.48,5.35,2.55,7.39C568.31,542.56,572.08,551.28,575.52,561.51z M532.07,686.01c0,0.04,0,0.07,0,0.11
			c-12.35,0-24.69-0.01-37.04,0c-8.1,0.01-16.21,0.08-24.31,0.11c-3.24,0.01-4.84,1.96-5.06,4.85c-0.23,2.92,1.27,5.11,4.22,5.79
			c1.8,0.41,3.71,0.44,5.57,0.44c37.91,0.02,75.83,0.02,113.74-0.01c1.61,0,3.26-0.13,4.83-0.46c3.19-0.68,4.61-3.03,4.41-6.03
			c-0.19-2.83-2.11-4.41-5-4.56c-2.49-0.12-4.98-0.23-7.48-0.23C567.99,686.01,550.03,686.01,532.07,686.01z M189.28,582.15
			c12.88,0,25.46,0,38.04,0c7.53,0,7.52,0,10.31-6.86c1.85-4.54,3.73-9.07,5.78-14.05c-6.87,0-13.09,0-19.32,0
			c-6.34,0-12.69,0-19.2,0c0.07-1.07-0.03-1.83,0.18-2.5c2.87-9.01,7.06-17.27,13.92-23.97c1.83-1.79,4.56-3.37,2.2-6.45
			c-2.2-2.87-5.09-2.78-8.04-1.24c-1.21,0.63-2.4,1.37-3.39,2.3c-6.4,5.99-11.21,12.99-13.27,21.65c-0.63,2.66-1.32,5.31-1.93,7.97
			C192.82,566.59,191.1,574.2,189.28,582.15z M420.7,133.64c-1.34-13.85-16.83-26.2-32.51-26.16
			c-15.87,0.04-30.92,12.17-32.35,26.16C377.46,133.64,399.07,133.64,420.7,133.64z M455.17,429.31c11.51,0,22.46,0.04,33.41-0.06
			c0.95-0.01,2.26-0.65,2.79-1.42c2.49-3.65,0.07-11.34-3.88-13.41c-1.1-0.58-2.17-1.77-2.62-2.92c-2.42-6.19-6.87-9.82-13.42-10.28
			c-6.25-0.43-11.02,2.41-14.16,7.91C453.71,415.41,455.23,422.16,455.17,429.31z M653.62,686.04c0,0.03,0,0.05,0,0.08
			c-8.61,0-17.23-0.06-25.84,0.02c-6.48,0.06-8.53,1.39-8.63,5.21c-0.11,4.07,2.25,5.91,8.49,5.94c16.73,0.09,33.46,0.08,50.18-0.06
			c6.91-0.06,7.61-1.14,7.28-8.08c-0.12-2.4-0.97-3.19-3.39-3.16C672.34,686.11,662.98,686.04,653.62,686.04z M685.04,581.98
			c0-6.01,0.18-11.84-0.16-17.64c-0.07-1.08-2.25-2.88-3.49-2.92c-9.65-0.24-19.3-0.13-29.4-0.13c3.08,7.31,5.91,14.01,8.72,20.69
			C668.65,581.98,676.57,581.98,685.04,581.98z M508.8,581.99c7.97,0,15.64,0,23.7,0c-0.72-2.51-1.37-4.75-2-6.99
			c-0.64-2.27-1.34-4.53-1.89-6.83c-1.67-6.94-1.64-6.93-8.93-6.89c-5.15,0.03-10.29,0.01-15.67,0.01
			C505.72,568.67,507.23,575.19,508.8,581.99z M274.69,561.55c-7.39,0-14.45-0.05-21.51,0.08c-0.66,0.01-1.69,1.04-1.89,1.77
			c-1.64,6.12-3.12,12.28-4.68,18.54c7.8,0,15.46,0,22.84,0C271.23,575.04,272.92,568.47,274.69,561.55z M121.45,561.41
			c-7.36,0-14.43-0.14-21.47,0.14c-1.19,0.05-3.23,1.9-3.3,3c-0.33,5.78-0.16,11.59-0.16,17.62c5.15,0,9.87,0.08,14.58-0.07
			c0.82-0.03,2.03-0.83,2.36-1.58C116.14,574.38,118.65,568.18,121.45,561.41z M438.96,561.19c0,7.57,0,14.13,0,20.83
			c7.85,0,15.42,0,23.31,0c-1.98-7.38-5.37-13.79-10.24-19.4c-0.65-0.75-1.91-1.31-2.92-1.36
			C445.8,561.09,442.47,561.19,438.96,561.19z M548.77,495.55c0.02-5.54-3.81-9.46-9.32-9.53c-5.45-0.07-9.2,3.57-9.31,9.05
			c-0.1,5.29,4.01,9.61,9.28,9.76C544.25,504.96,548.76,500.49,548.77,495.55z M119.74,491.68c5.09-0.03,9.12-3.98,9.06-8.88
			c-0.06-5.02-4.02-9.01-9-9.06c-5.12-0.05-8.96,3.8-8.92,8.97C110.93,488,114.59,491.71,119.74,491.68z M247.91,501.3
			c0.01-5.23-3.66-9.01-8.79-9.06c-5.18-0.04-8.79,3.41-8.87,8.47c-0.08,5.19,3.63,9.1,8.7,9.18
			C243.67,509.98,247.89,505.92,247.91,501.3z M662.19,474.17c-4.64-0.03-8.32,3.56-8.41,8.18c-0.09,5.06,3.54,8.95,8.45,9.06
			c4.69,0.11,8.71-4.02,8.64-8.89C670.82,477.73,667.14,474.2,662.19,474.17z M583.13,420.38c4.15,0.04,7.83-3.55,7.93-7.73
			c0.11-4.62-3.2-8.04-7.84-8.1c-4.43-0.05-7.98,3.21-8.11,7.47C574.97,416.81,578.34,420.33,583.13,420.38z M193.52,436.33
			c-0.09,4.71,2.83,7.89,7.36,8.04c4.29,0.14,7.77-3.31,7.79-7.74c0.03-4.37-3.07-7.5-7.48-7.55
			C196.65,429.03,193.6,431.9,193.52,436.33z M112.71,161.81c-4.3,0.06-7.39,3.13-7.3,7.24c0.1,4.47,3.25,7.73,7.43,7.69
			c4.04-0.04,7.51-3.61,7.52-7.71C120.37,164.62,117.32,161.74,112.71,161.81z M656.6,169.51c0.03,4.39,2.89,7.26,7.22,7.27
			c4.26,0.01,7.53-3.33,7.47-7.61c-0.06-4.1-3.24-7.24-7.4-7.3C659.63,161.82,656.57,165.03,656.6,169.51z M323.53,467.54
			c4.09-0.05,7.32-3.29,7.33-7.33c0-4.33-3.35-7.7-7.52-7.56c-4.02,0.13-7.07,3.46-7,7.64C316.41,464.75,319.24,467.6,323.53,467.54
			z M279.77,459.8c0.06-4.25-2.9-7.25-7.19-7.3c-4.2-0.05-7.05,2.69-7.13,6.86c-0.09,4.46,2.61,7.41,6.9,7.54
			C276.55,467.03,279.71,464,279.77,459.8z M465.09,112.5c0.12-4.01-2.89-7.34-6.77-7.5c-3.87-0.16-7.38,2.99-7.57,6.8
			c-0.22,4.43,2.91,7.91,7.12,7.92C461.49,119.73,464.98,116.24,465.09,112.5z M673.3,339.88c0.01-3.95-2.99-6.95-7.08-7.08
			c-3.71-0.12-7.15,3.28-7.16,7.08c-0.01,4.22,3.08,7.27,7.3,7.2C670.26,347.01,673.29,343.86,673.3,339.88z M110.19,332.85
			c-3.62-0.08-6.93,3.18-7.01,6.9c-0.08,4.07,2.96,7.33,6.87,7.36c3.85,0.03,7.11-3.19,7.21-7.1
			C117.36,336.09,114.25,332.94,110.19,332.85z M460.89,460.34c-3.82,0.12-6.28,2.74-6.09,6.48c0.18,3.65,2.74,6.16,6.17,6.04
			c3.41-0.12,6.17-3.22,6.01-6.74C466.82,462.81,464.1,460.24,460.89,460.34z M517.43,432.81c12.95-0.46,11.63,0.94,11.78-11.56
			c0-0.2-0.23-0.4-0.36-0.59C522.57,421.73,518.84,425.64,517.43,432.81z M298.69,125.79c6.09-0.95,10.05-4.98,11.68-11.82
			c-3.34,0-6.66-0.13-9.95,0.12c-0.64,0.05-1.59,1.58-1.65,2.48C298.57,119.62,298.69,122.69,298.69,125.79z M310.24,107.13
			c-1-6.59-5.65-11.44-11.65-12.38c0,3-0.19,6,0.11,8.95c0.1,0.99,1.34,2.5,2.26,2.66C303.97,106.89,307.08,106.91,310.24,107.13z
			 M279.03,106.52c12.98,0.45,11.59,0.57,11.84-9.63c0.02-0.72-0.07-1.45-0.13-2.53C284.21,95.94,280.79,100.14,279.03,106.52z
			 M279.16,113.93c0.52,6.15,5.74,11.27,11.79,11.49c-0.17-2.87-0.1-5.76-0.62-8.54c-0.21-1.11-1.63-2.67-2.66-2.81
			C284.87,113.67,282,113.93,279.16,113.93z M517.63,440.06c1.2,6.83,6.87,12.31,11.51,11.13c-0.26-12.8,0.31-11.44-11.2-11.28
			C517.84,439.91,517.73,440.01,517.63,440.06z M536.77,452.02c6.39-1.43,10.79-6.14,11.51-11.93c-12.58-0.86-11.44-0.87-11.51,9.77
			C536.76,450.47,536.77,451.08,536.77,452.02z M536.39,420.35c0.28,3.31,0.38,6.28,0.88,9.18c0.17,0.99,1.25,2.44,2.11,2.6
			c2.88,0.52,5.84,0.55,8.87,0.78C547.27,426.33,543.22,421.95,536.39,420.35z M434.97,691.2c-0.01,2.88,2.29,5.34,5.1,5.46
			c2.75,0.12,5.23-2.31,5.29-5.19c0.06-2.78-2.31-5.05-5.34-5.11C437.12,686.3,434.98,688.36,434.97,691.2z M667.25,302.62
			c0.49-2.79-1.28-3.95-4.02-4.16c-3.08-0.24-4.96,1.53-4.99,4.61c-0.02,2.8,1.35,4.48,4.15,4.73
			C665.24,308.06,667.11,306.12,667.25,302.62z M116.69,215.22c-2.84,0-4.97,0-7.86,0c0.45,2.53,0.3,5.07,1.44,6.74
			c0.58,0.86,4.52,0.85,5.06,0.02C116.44,220.27,116.28,217.73,116.69,215.22z M185.91,469.17c-7.6-0.88-8.59,0.18-6.35,6.33
			c2.08,0,4.14,0,6.35,0C185.91,473.3,185.91,471.35,185.91,469.17z M632.93,118.14c1.3,0.08,2.15,0.18,3.01,0.18
			c0.96,0,1.91-0.09,2.81-0.13c1.29-7.17,0.27-8.3-5.82-6.57C632.93,113.66,632.93,115.72,632.93,118.14z M311.78,507.02
			c0-2.44,0-4.62,0-6.84c-2.23,0-4.23,0-6.2,0C304.95,507.54,304.97,507.56,311.78,507.02z M605.66,457.66
			c1.74-6.85,0.68-8.07-5.77-6.74c0,2.24,0,4.5,0,6.74C602.06,457.66,603.88,457.66,605.66,457.66z M632.86,134.02
			c6.41,1.47,7.52,0.22,5.78-6.38c-1.88,0-3.77,0-5.95,0c0,1.46-0.02,2.68,0.01,3.89C632.72,132.37,632.8,133.21,632.86,134.02z
			 M121.91,105.27c6.8,0.27,7.24-0.25,5.92-6.85c-1.97,0-3.97,0-5.92,0C121.91,100.92,121.91,103.1,121.91,105.27z M606.07,467.46
			c-2.11-0.16-4.11-0.31-6.24-0.47c0,2.71,0,4.96,0,7.19c2.23,0,4.13,0,6.24,0C606.07,471.87,606.07,469.83,606.07,467.46z
			 M196.17,469.13c0,2.13,0,4.24,0,6.37c2.26,0,4.29,0,6.37,0c0-2.25,0-4.2,0-6.37C200.41,469.13,198.46,469.13,196.17,469.13z
			 M296.45,492.77c2.39,0,4.31,0,6.34,0c0-2.26,0-4.27,0-6.25c-2.31,0-4.33,0-6.34,0C296.45,488.74,296.45,490.67,296.45,492.77z
			 M493.15,493.75c0-2.4,0-4.44,0-6.6c-2.27,0-4.31,0-6.46,0c0,2.28,0,4.32,0,6.6C488.9,493.75,490.84,493.75,493.15,493.75z
			 M127.99,121.3c0-2.25,0-4.3,0-6.59c-2.05,0-3.98,0-6.06,0c0,2.26,0,4.42,0,6.59C124.04,121.3,125.87,121.3,127.99,121.3z"/>
		<path d="M353.81,250.63c-8.87-1.16-8.85-1.16-8.85,6.54c0.02,34.71,0.02,69.43,0.03,104.14c0,1.1,0,2.2,0,3.65
			c-2.5,0.11-4.7,0.29-6.9,0.29c-45.2,0.01-90.4,0.02-135.6,0c-10.73,0-21.51,0.51-32.19-0.29c-15.97-1.2-29.38-14.22-32.03-30
			c-0.45-2.7-0.75-5.45-0.75-8.18c-0.05-42.46-0.07-84.91-0.03-127.37c0.02-17.73,11.75-32.89,28.63-37.03
			c3.12-0.76,6.41-1.15,9.62-1.15c55.07-0.09,110.13-0.1,165.2-0.12c1.11,0,2.23,0.09,4,0.17c0,1.53,0,2.96,0,4.39
			c-0.01,13.99-0.05,27.97-0.03,41.96c0.01,4.04,1.49,5.42,5.05,5.19c3.35-0.22,3.92-2.28,3.91-5.14
			c-0.08-17.23,0.02-34.46-0.12-51.69c-0.08-10.16,0.93-13.26,12.79-13.11c15.48,0.19,30.97-0.08,46.45-0.06
			c7.9,0.01,9.89,2.09,9.88,10.05c-0.02,18.23-0.07,36.46-0.12,54.69c-0.01,2.63,0.1,5.09,3.68,5.32c3.87,0.25,5.07-0.74,5.08-4.94
			c0.02-13.74-0.04-27.47-0.07-41.21c0-1.49,0-2.97,0-4.93c2.5-0.2,4.8-0.54,7.11-0.55c54.19-0.05,108.39-0.16,162.58-0.03
			c20.44,0.05,37.09,16.93,37.19,37.74c0.2,41.83,0.11,83.66,0.1,125.49c0,14.21-5.04,26.08-16.75,34.63
			c-7.08,5.17-15.26,6.36-23.78,6.35c-50.32-0.06-100.64-0.08-150.96-0.11c-5.08,0-10.16,0-15.66,0c0-19.07,0-37.61,0-55.92
			c-0.64-0.34-0.85-0.54-1.08-0.56c-7.41-0.65-7.41-0.65-7.41,6.75c0.01,16.48,0.1,32.97-0.04,49.45c-0.02,2.64-0.47,5.73-1.91,7.76
			c-1.38,1.94-4.3,3.86-6.59,3.9c-16.98,0.35-33.96,0.29-50.94,0.22c-5.96-0.02-9.27-3.41-9.36-9.78
			c-0.2-13.98-0.17-27.96-0.18-41.95c-0.01-22.48,0.02-44.95,0.04-67.43C353.81,255.41,353.81,253.07,353.81,250.63z M495.29,270.43
			c0.15,1.15,0.05,2.1,0.41,2.82c1.67,3.42-0.16,5.14-2.82,6.85c-4.51,2.9-9.01,5.86-13.21,9.17c-2.11,1.66-3.6,2.05-6.21,0.97
			c-7.5-3.11-16.5-0.08-21.19,6.66c-4.65,6.68-4.16,15.71,1.22,22.21c4.9,5.93,14.15,8.17,21.03,4.29
			c3.63-2.05,7.21-2.44,11.06-2.44c21.6-0.04,43.2,0.03,64.8-0.18c4.89-0.05,8.87,0.69,12.96,3.98c7.56,6.08,16.35,6.46,24.9,1.91
			c8.73-4.64,13.12-12.19,12.23-22.14c-0.9-10.03-6.18-17.12-15.59-21.08c-1.11-0.47-2.6-1.8-2.62-2.76
			c-0.2-8.72-0.12-17.45-0.12-26.32c0.53-0.17,1.12-0.32,1.69-0.53c10.89-4.11,17.35-13.72,16.26-24.19
			c-1.19-11.32-9.43-19.98-20.8-21.85c-9.75-1.6-20.07,4.68-24.52,15.19c-0.87,2.05-2.01,2.34-3.92,2.34
			c-27.84,0.02-55.69,0.1-83.53,0.16c-1.12,0-2.26-0.01-3.35-0.23c-2.99-0.6-5.16-3.44-5.11-6.5c0.06-3.02,2.41-5.59,5.59-5.99
			c1.36-0.17,2.74-0.24,4.11-0.23c18.48,0.03,36.96,0.07,55.44,0.12c2.75,0.01,5.5,0.2,8.24,0.01c2.63-0.18,4.45-1.61,4.71-4.42
			c0.27-2.9-1.19-4.82-3.84-5.68c-1.27-0.41-2.71-0.35-4.08-0.35c-13.61-0.01-27.22,0.01-40.83,0.03c-7.87,0.01-15.74-0.18-23.6,0.1
			c-10.11,0.35-17.44,9.75-15.59,19.58c1.66,8.8,7.67,13.79,17.23,13.83c12.73,0.05,25.47-0.16,38.2-0.25c1.71-0.01,3.42,0,5.43,0
			c0,3.68,0.19,6.92-0.1,10.11c-0.1,1.12-1.23,2.31-2.17,3.16c-3.17,2.89-6.77,5.39-9.59,8.57c-1.52,1.72-2.6,2.73-5.02,2.7
			c-13.73-0.14-27.47-0.1-41.2-0.09c-4.53,0-6.89,2.88-5.74,6.92c0.9,3.17,3.35,3.59,6.17,3.58
			C466.4,270.4,480.63,270.43,495.29,270.43z M273.34,283.53c3.27-2.45,7.48-4.11,9.11-7.15c3.14-5.85,7.58-6.7,13.2-6.1
			c1.23,0.13,2.5,0.02,3.74,0.02c8.87,0.02,17.73,0.08,26.6,0.02c3.83-0.03,5.85-2.03,5.75-5.33c-0.1-3.11-2.14-4.99-5.63-5.13
			c-1.12-0.05-2.25-0.01-3.37-0.01c-10.86,0.01-21.73,0.08-32.59-0.06c-1.26-0.02-3.19-0.94-3.63-1.95
			c-2.37-5.48-5.84-9.76-11.2-12.6c-1.09-0.58-1.86-2.38-2.11-3.74c-0.36-1.89-0.09-3.9-0.09-6.22c8.2,0,15.92,0.08,23.63-0.02
			c12.2-0.15,19.72-11.62,14.99-22.87c-3.51-8.34-10.38-10.66-18.82-10.61c-24.85,0.15-49.7,0.09-74.55,0.11c-2.6,0-5.2,0-8.43,0
			c2.39-3.37,2.13-5.91-0.75-7.87c-2.42-1.65-4.27-0.24-5.92,1.4c-7.45,7.38-14.88,14.77-22.28,22.2c-3.05,3.07-3.08,5.33-0.03,8.31
			c6.97,6.79,13.98,13.54,21.03,20.26c2.88,2.75,5.45,2.99,7.61,0.95c2.14-2.02,1.96-5.28-0.48-8.04c-0.98-1.11-2.05-2.15-3.45-3.62
			c19.68,0,38.48,0,57.39,0c0,2.96,0,5.66,0,8.29c-10.07,2.95-16.31,9.43-16.59,18.56c-0.35,11.34,6.22,17.82,16.5,20.61
			c0,1.91,0,3.48,0,5.27c-20.39,0-40.52,0-60.9,0c1.09-3.12,1.84-6.11-1.54-8.07c-3.62-2.09-5.46,0.83-7.54,2.88
			c-6.41,6.3-12.79,12.63-19.17,18.96c-3.48,3.45-3.58,5.03-0.24,8.43c7.17,7.3,14.41,14.53,21.62,21.79
			c1.52,1.53,3.11,2.44,5.3,1.2c2.31-1.31,2.9-3.27,2.36-5.7c-0.23-1.03-0.59-2.03-0.99-3.4c2.35,0,4.34,0,6.33,0
			c32.97,0.01,65.93,0.03,98.9,0.03c1.75,0,3.5,0.07,5.24-0.08c9.8-0.85,17.12-9.05,16.78-18.58c-0.35-9.69-8.85-17.75-17.95-17.39
			c-11.22,0.45-22.47,0.14-33.71,0.13c-1.32,0-2.64-0.11-4.09-0.18C273.34,286.23,273.34,284.63,273.34,283.53z M331.36,350.69
			c0-4.1,0.14-7.82-0.07-11.53c-0.08-1.42-0.94-2.79-1.44-4.19c-1.74,0.73-4.38,1.01-5.03,2.29c-1.74,3.43-4.39,3.98-7.64,3.97
			c-2.12-0.01-4.24,0.17-6.36,0.17c-35.33,0.01-70.66,0.04-105.99-0.01c-11.1-0.01-22.22,0.01-33.31-0.45
			c-6.62-0.28-11.09-5.38-11.58-12.03c-0.1-1.37-0.14-2.74-0.14-4.12c0-41.7,0.01-83.4,0.03-125.1c0-1.49,0.05-3.02,0.37-4.46
			c1.45-6.37,6.89-10.18,14.66-10.18c46.07-0.03,92.14,0.01,138.21-0.08c4.89-0.01,9.43,0.01,12.47,4.83
			c0.53,0.84,2.64,1.05,3.94,0.89c0.71-0.09,1.74-1.55,1.78-2.43c0.19-3.95,0.08-7.92,0.08-12.13c-2.51-0.16-4.47-0.38-6.44-0.39
			c-49.44-0.05-98.88-0.1-148.32-0.07c-2.96,0-6.03,0.19-8.86,0.99c-10.87,3.09-17.4,12.41-17.41,24.58
			c-0.03,41.2,0.16,82.4-0.09,123.6c-0.09,15.66,11.37,26.16,25.83,26.02c50.06-0.49,100.13-0.18,150.19-0.18
			C327.72,350.69,329.19,350.69,331.36,350.69z M445.14,175.83c0,4.34-0.12,7.95,0.07,11.55c0.06,1.21,0.79,3.32,1.41,3.39
			c1.39,0.17,3.61-0.22,4.25-1.19c2.95-4.52,7.26-4.54,11.86-4.54c45.94,0.01,91.89-0.05,137.83-0.08
			c9.72-0.01,15.09,5.23,15.17,14.95c0.09,10.74,0,21.47,0.02,32.21c0.06,30.46,0.15,60.92,0.21,91.38
			c0.02,13.17-4.67,17.84-17.77,17.83c-44.07-0.02-88.14-0.01-132.21-0.03c-5.7,0-11.69,1.36-15.53-5.15
			c-1.35-2.3-4.96-1.36-5.07,0.94c-0.21,4.43-0.06,8.88-0.06,13.62c1.94,0,3.3,0,4.65,0c50.06,0,100.13,0,150.19,0.01
			c14.84,0,24.87-9.54,24.9-24.37c0.08-42.2,0.04-84.4-0.15-126.59c-0.06-14.43-10.48-24.17-24.9-24.14
			c-49.56,0.1-99.13,0.15-148.69,0.21C449.47,175.83,447.63,175.83,445.14,175.83z M376.79,296.93c-0.01,0-0.02,0-0.03,0
			c0-18.84,0.03-37.69-0.02-56.53c-0.01-4.23-1.5-6.03-4.51-6.01c-3.05,0.01-4.49,1.78-4.54,5.99c-0.09,7.74-0.04,15.47-0.05,23.21
			c-0.04,29.7-0.09,59.4-0.12,89.1c0,3.99,1.74,6.45,4.56,6.61c3.04,0.17,4.58-1.85,4.72-6.22c0.02-0.62,0.01-1.25,0.01-1.87
			C376.79,333.13,376.79,315.03,376.79,296.93z M367.6,191.88c-0.02,0-0.05,0-0.07,0c0,9.97-0.01,19.94,0.01,29.91
			c0,2.97,1.2,5.16,4.39,5.48c2.82,0.28,4.72-1.89,4.89-5.25c0.04-0.75,0.05-1.49,0.05-2.24c-0.01-18.19-0.02-36.39-0.06-54.58
			c0-1.49-0.1-2.99-0.27-4.47c-0.3-2.59-2.06-3.65-4.42-3.57c-3.51,0.12-4.54,2.41-4.53,5.57
			C367.62,172.44,367.6,182.16,367.6,191.88z M431.48,250.24c-2.64,0-4.37,0.05-6.09-0.01c-1.94-0.07-2.58,0.84-2.58,2.71
			c-0.01,12.44-0.08,24.89-0.16,37.33c-0.02,3.18,1.39,4.95,4.67,4.9c3.21-0.04,4.26-1.98,4.24-4.9
			c-0.05-7.34-0.06-14.68-0.08-22.02C431.47,262.43,431.48,256.61,431.48,250.24z M353.24,225.61c-3.08,0.82-6.79,0.75-7.88,2.4
			c-1.11,1.69-0.25,5.4,0.95,7.57c0.54,0.97,4.64,1.23,5.99,0.24C355.63,233.4,353.35,229.8,353.24,225.61z M422.81,230.38
			c0.02,5.21,0.78,6.23,4.23,6.22c3.13-0.01,4.85-1.2,4.7-4.69c-0.22-5.05-0.62-5.55-4.64-5.66
			C423.75,226.15,422.07,227.27,422.81,230.38z"/>
		<path d="M96.66,677.03c0-28.77,0-57.07,0-85.67c196.15,0,391.99,0,588.04,0c0,28.52,0,57.02,0,85.67
			C488.55,677.03,292.81,677.03,96.66,677.03z M269.33,649.41c0,0.04,0,0.08,0,0.12c-11.1,0-22.2,0.02-33.31-0.01
			c-3.04-0.01-5.05,1.36-5.7,4.3c-0.63,2.81,0.11,5.36,2.84,6.65c1.39,0.66,3.15,0.78,4.74,0.78c15.59-0.02,31.18-0.11,46.77-0.18
			c6.24-0.03,12.49,0.15,18.7-0.27c1.69-0.12,4.04-1.78,4.65-3.3c0.63-1.58,0.14-4.43-1.01-5.68c-1.29-1.41-3.84-2.26-5.87-2.3
			C290.54,649.29,279.93,649.41,269.33,649.41z M389.55,626.43c0-0.01,0-0.03,0-0.04c10.85,0,21.7,0.04,32.54-0.02
			c4.64-0.03,6.86-1.91,6.91-5.52c0.05-3.46-2.3-5.75-6.69-6c-3.6-0.2-7.22,0.06-10.84,0.05c-17.58-0.06-35.16-0.15-52.74-0.2
			c-5.21-0.01-7.94,2.01-8,5.79c-0.05,3.75,2.71,5.91,7.77,5.93C368.85,626.45,379.2,626.43,389.55,626.43z M269,626.45
			c0-0.03,0-0.05,0-0.08c11.11,0,22.22,0.06,33.33-0.03c4.2-0.04,6.63-2.65,6.22-6.21c-0.37-3.23-3.2-5.4-7.42-5.41
			c-21.35-0.02-42.69,0-64.04,0.05c-4.33,0.01-6.82,2.19-6.84,5.72c-0.02,3.8,2.41,5.93,6.92,5.95
			C247.78,626.47,258.39,626.45,269,626.45z M389.56,649.38c0,0.04,0,0.09,0,0.13c-10.86,0-21.72-0.05-32.58,0.03
			c-3.92,0.03-6.01,2.05-6.13,5.51c-0.12,3.54,1.7,5.52,5.64,6.06c0.98,0.13,1.99,0.17,2.98,0.17c12.23-0.02,24.46-0.04,36.7-0.09
			c9.11-0.04,18.22-0.1,27.33-0.22c3.43-0.05,5.27-2.02,5.51-5.36c0.22-3.12-2.07-5.63-5.38-6.08c-0.98-0.13-1.99-0.13-2.99-0.13
			C410.28,649.38,399.92,649.38,389.56,649.38z M630.07,649.4c0,0.03,0,0.06,0,0.1c-10.72,0-21.45-0.06-32.17,0.03
			c-4.71,0.04-7.66,3.63-6.23,7.51c1.27,3.45,4.15,4.17,7.56,4.16c17.21-0.06,34.42,0.01,51.63-0.01c4.48,0,8.97-0.04,13.44-0.25
			c3.21-0.15,4.59-2.5,4.77-5.27c0.21-3.1-1.63-5.21-4.6-5.97c-1.54-0.39-3.22-0.28-4.84-0.28
			C649.78,649.38,639.92,649.4,630.07,649.4z M509.43,626.4c0-0.01,0-0.01,0-0.02c11.11,0,22.23,0.06,33.34-0.03
			c3.63-0.03,5.94-2.22,5.96-5.38c0.02-3.4-1.96-5.25-5.14-5.89c-1.21-0.24-2.48-0.28-3.72-0.28c-4.12,0-8.24,0.08-12.36,0.08
			c-16.73,0-33.46-0.08-50.19,0.01c-4.28,0.02-6.46,2.2-6.45,5.67c0.01,3.54,2.53,5.81,6.72,5.83
			C488.2,626.43,498.82,626.4,509.43,626.4z M630.46,626.43c0-0.01,0-0.02,0-0.04c10.85,0,21.71,0.14,32.55-0.14
			c1.86-0.05,4.32-1.51,5.32-3.08c0.81-1.27,0.57-4.43-0.46-5.4c-1.72-1.6-4.4-2.72-6.77-2.93c-4.45-0.41-8.97,0.03-13.45,0.02
			c-16.09-0.03-32.18-0.14-48.27-0.13c-5.3,0-7.95,2.1-7.89,5.9c0.05,3.78,2.51,5.75,7.55,5.78
			C609.5,626.47,619.98,626.43,630.46,626.43z M509.82,649.4c0,0.05,0,0.1,0,0.15c-10.85,0-21.71-0.04-32.56,0.02
			c-3.79,0.02-6.19,2.18-6.37,5.39c-0.19,3.36,2.12,5.74,6.06,6.11c1.48,0.14,2.99,0.12,4.48,0.12c5.49,0,10.98-0.05,16.46-0.05
			c14.22,0,28.44,0.06,42.66-0.02c1.93-0.01,4.48-0.04,5.62-1.18c1.44-1.43,2.61-4.16,2.29-6.07c-0.5-3.05-3.2-4.5-6.47-4.49
			C531.28,649.42,520.55,649.4,509.82,649.4z M150.08,649.4c0,0.03,0,0.05,0,0.08c-3.99,0-7.99,0-11.98,0
			c-6.86,0-13.73-0.05-20.59,0.02c-2.78,0.03-4.82,1.46-5.49,4.2c-0.65,2.66,0.16,5.14,2.59,6.46c1.44,0.78,3.33,0.98,5.02,0.98
			c13.98,0.06,27.96,0.04,41.94,0c7.36-0.02,14.73,0.1,22.06-0.34c1.62-0.1,4-2.05,4.42-3.59c0.48-1.77-0.26-4.56-1.53-5.92
			c-1.2-1.29-3.76-1.78-5.74-1.81C170.55,649.31,160.31,649.4,150.08,649.4z M150.03,626.41c0-0.02,0-0.03,0-0.05
			c10.85,0,21.7,0.03,32.55-0.02c3.08-0.01,5.29-1.39,5.83-4.64c0.5-3.04-1.03-5.14-3.64-6.26c-1.42-0.61-3.16-0.67-4.75-0.67
			c-7.23-0.01-14.46,0.14-21.7,0.13c-12.97-0.01-25.94-0.14-38.9-0.12c-5.01,0.01-7.52,2.1-7.53,5.86
			c-0.01,3.86,2.39,5.75,7.47,5.76C129.58,626.43,139.8,626.41,150.03,626.41z"/>
		<path d="M419.57,561.08c3.54,0.18,6.85,0.35,10.36,0.52c0,6.89,0,13.45,0,20.29c-27.02,0-54.01,0-81.27,0c0-6.68,0-13.25,0-20.26
			c2.81-0.21,5.73-0.43,9.05-0.68c0-1.76-0.01-3.34,0-4.92c0.04-4.07,1.47-7.48,5.44-8.99c2.94-1.12,2.91-3.22,2.9-5.65
			c-0.04-49.43-0.04-98.87-0.06-148.3c0-1.97,0-3.94,0-6.29c15.02,0,29.68,0,44.89,0c0,1.48,0,2.92,0,4.36
			c0,50.06,0.01,100.12-0.05,150.17c0,2.69,0.25,4.61,3.31,5.66c3.17,1.1,4.77,3.89,5.08,7.26
			C419.42,556.35,419.45,558.47,419.57,561.08z"/>
		<path d="M177.41,535.2c2.75-4.71,5.06-9.13,7.82-13.24c1.49-2.22,3.58-4.15,5.74-5.76c2.42-1.81,5.23-1.62,7.61,0.28
			c2.43,1.94,2.36,4.6,1.19,7.15c-2.13,4.64-4.53,9.16-6.66,13.81c-5.72,12.45-6.97,26.13-10.52,39.17
			c-0.45,1.67-0.69,3.4-1.07,5.32c-19.23,0-38.29,0-57.77,0c2.05-6.22,3.97-12.39,6.2-18.43c0.37-0.99,2.13-1.98,3.3-2.05
			c4.22-0.25,8.46-0.1,13.27-0.1c-0.47-2.07-0.67-3.62-1.18-5.06c-2.82-7.97-6.75-15.28-12.97-21.19c-1.86-1.77-3.64-3.62-1.74-6.45
			c1.79-2.66,4.46-2.94,6.95-1.8c2.55,1.17,5.29,2.66,7.02,4.77c4.96,6.01,9.46,12.41,14.1,18.6c0.36-1.6,1.34-4.01,1.37-6.43
			c0.09-7.56,0.28-15.17-0.45-22.68c-0.59-6.06-3.95-11.23-8.05-15.77c-1.88-2.09-2.38-4.46-0.62-6.8c1.92-2.56,4.77-2.54,7.06-1.03
			c2.65,1.74,5.09,4,7.15,6.44c7.29,8.59,9.76,19.19,11.91,29.88C177.16,534.19,177.25,534.55,177.41,535.2z"/>
		<path d="M602.54,534.16c2.49-7.32,4.6-15.29,7.95-22.69c2.04-4.5,5.9-8.23,9.17-12.11c0.98-1.16,2.66-1.92,4.16-2.37
			c2.59-0.77,4.96-0.18,6.55,2.26c1.53,2.35,0.62,4.35-1.09,6.04c-5.18,5.11-8.07,11.34-9.04,18.47c-1.21,8.89-0.5,17.65,2.26,26.78
			c1.52-2.74,2.52-5.33,4.17-7.39c3.88-4.82,7.91-9.55,12.24-13.97c1.44-1.46,3.98-2.53,6.02-2.52c1.87,0.01,4.51,1.29,5.34,2.82
			c0.63,1.15-0.51,4.21-1.8,5.31c-7.06,5.99-10.8,13.88-13.69,22.34c-0.39,1.14-0.51,2.38-0.74,3.47c0.47,0.28,0.67,0.51,0.89,0.52
			c8.41,0.55,8.38,0.56,10.9,8.56c1.27,4.02,2.65,8.01,4.06,12.27c-15.18,0-30.09,0-44.62,0c-2.78-5.29-5.62-10.36-8.12-15.59
			c-1.82-3.81-3.22-7.81-4.74-11.76c-3.58-9.27-6.92-18.64-10.74-27.81c-2.19-5.26-2.37-8.78,0.58-10.86
			c3.1-2.19,7.67-1.04,10.94,3.48C596.72,524.31,599.68,529.61,602.54,534.16z"/>
		<path d="M96.78,686.14c15.71,0,31.05,0,46.39,0c73-0.02,146.01-0.04,219.01-0.05c2.24,0,4.49,0.06,6.73,0.19
			c3.03,0.17,5.03,1.85,5.16,4.83c0.14,3.05-1.54,5.26-4.71,5.8c-1.83,0.31-3.73,0.33-5.59,0.34c-81.87,0.05-163.73,0.08-245.6,0.12
			c-4.87,0-9.73,0.07-14.6,0.04c-6.53-0.03-7.37-0.91-7.17-7.37C96.44,688.93,96.61,687.83,96.78,686.14z"/>
		<path d="M561.29,108.91c9.45-5.57,19.06-5.49,28.45,0.46c5.68,3.6,9.43,8.86,11.47,15.22c1.23,3.85,0.25,5.03-3.73,5.03
			c-33.71,0.03-67.41,0.04-101.12,0.04c-4.02,0-4.7-0.71-3.96-4.65c1.19-6.34,4.91-10.76,10.76-13.43c2.36-1.08,4.14-0.65,5.89,1.44
			c3.03,3.61,5.44,3.96,7.85,1.58c2.6-2.57,2.53-6.79-0.89-9.11c-2.88-1.96-2.45-3.72-1.27-6.14c4.26-8.65,11.69-12.64,20.83-12.87
			c9.2-0.23,16.76,3.7,21.36,12C558.72,101.71,559.82,105.33,561.29,108.91z"/>
		<path d="M339.73,582.09c-20.42,0-40.25,0-60.28,0c1.27-6.67,2.52-13.21,3.79-19.87c0.08-0.07,0.29-0.36,0.46-0.34
			c5.14,0.39,7.11-2.64,8.8-7.02c4.82-12.51,12.28-23.36,22.24-32.4c1.65-1.49,3.49-2.85,5.43-3.92c2.45-1.35,5.13-1.64,7.16,0.75
			c2.11,2.48,0.98,4.78-0.79,7.05c-5.04,6.48-10.32,12.82-14.83,19.66c-2.89,4.39-4.59,9.57-6.83,14.4
			c0.38,0.41,0.76,0.82,1.14,1.22c1.58-0.92,3.47-1.54,4.7-2.8c5.56-5.72,10.88-11.67,16.41-17.41c1.35-1.4,3.12-2.47,4.84-3.44
			c2.5-1.41,4.65-0.38,6.23,1.66c1.61,2.08,1.11,4.07-0.59,6.06c-3.63,4.24-7.13,8.61-10.63,12.96c-0.42,0.53-0.54,1.29-1.07,2.6
			c4.02,0,7.59-0.15,11.13,0.1c0.94,0.07,2.54,1.35,2.57,2.12C339.82,569.54,339.73,575.63,339.73,582.09z"/>
		<path d="M198.09,109.79c1.75-3.73,2.94-7.76,5.28-10.92c4.42-5.96,10.66-8.4,18.13-6.9c7.51,1.51,11.93,6.39,14,13.48
			c0.61,2.11,1.42,3.28,3.55,4.08c4.39,1.65,8.02,8.48,6.82,12.97c-0.3,1.13-2.34,2.46-3.65,2.54c-5.47,0.3-10.97,0.17-16.45,0.18
			c-20.32,0.04-40.65,0.1-60.97,0.12c-5.99,0.01-6.68-1.01-4.91-6.88c4.57-15.12,22.59-20.88,35.01-11.18
			C196.06,108.17,197.21,109.09,198.09,109.79z"/>
		<path d="M140.15,398.36c14.17,0.16,24.51,11.05,24.34,25.63c-0.15,12.84-11.47,23.85-24.5,23.84
			c-14.31-0.01-25.82-11.39-25.51-25.24C114.8,408.89,126.1,398.21,140.15,398.36z"/>
		<path d="M271.27,407.61c6.54-7.3,14.59-9.49,23.5-6.59c8.32,2.71,13.37,8.94,15.02,17.59c0.8,4.19,0.02,4.88-4.14,4.89
			c-24.83,0.06-49.67,0.15-74.5,0.09c-2.59-0.01-6.08,1.49-7.47-2.32c-1.3-3.56,0.24-9.64,3.56-11c4.39-1.8,5.73-5.26,7.75-8.92
			c3.81-6.9,10.29-10,18.17-9.45c8.31,0.58,13.64,5.45,17,12.77C270.54,405.53,270.82,406.44,271.27,407.61z"/>
		<path d="M625.04,413.24c-0.12-12.64,10.19-22.9,23.09-23c12.7-0.1,23.28,10.44,23.36,23.28c0.08,12.25-9.93,22.46-22.21,22.64
			C635.44,436.35,625.16,426.64,625.04,413.24z"/>
		<path d="M495.17,561.13c1.4,7.09,2.72,13.77,4.1,20.74c-8.92,0-17.79,0-26.95,0c-2.76-9.16-7.01-17.72-13.31-25.13
			c-2.64-3.11-4.79-6.44-10.03-6.73c-2.7-0.15-5.36-4.05-7.64-6.61c-0.57-0.64-0.04-3.06,0.76-3.94c0.93-1.01,2.91-1.92,4.11-1.61
			c2.06,0.53,4.26,1.67,5.71,3.2c5.65,5.96,11.01,12.2,16.52,18.29c0.78,0.86,1.85,1.47,3.2,1.84c-1.67-8.42-5-15.95-9.81-22.76
			c-2.8-3.96-5.98-7.66-9.14-11.35c-2.06-2.41-3.41-4.97-1.1-7.65c2.31-2.67,5.7-2.68,8.07-0.48c5.46,5.06,11.09,10.12,15.52,16.04
			c4.51,6.03,7.93,12.94,11.28,19.73C488.42,558.65,489.46,562.89,495.17,561.13z"/>
		<path d="M575.52,561.51c-3.44-10.24-7.21-18.95-14.24-25.89c-2.07-2.04-5.16-3.77-2.55-7.39c1.95-2.7,5.51-3.17,9.04-0.56
			c8.32,6.16,14.03,14.41,15.79,24.57c1.71,9.92,5.06,18.95,10.52,27.3c0.4,0.61,0.72,1.28,1.27,2.27c-1.04,0.14-1.82,0.32-2.6,0.32
			c-15.35,0.01-30.7-0.05-46.06,0.06c-2.35,0.02-3.56-0.63-4.36-2.91c-2.01-5.74-4.3-11.39-6.74-17.77
			C548.92,561.51,561.8,561.51,575.52,561.51z"/>
		<path d="M532.07,686.01c17.96,0,35.92-0.01,53.88,0.01c2.49,0,4.99,0.11,7.48,0.23c2.9,0.14,4.81,1.73,5,4.56
			c0.2,3-1.22,5.35-4.41,6.03c-1.57,0.34-3.22,0.46-4.83,0.46c-37.91,0.03-75.83,0.03-113.74,0.01c-1.86,0-3.77-0.03-5.57-0.44
			c-2.95-0.68-4.45-2.86-4.22-5.79c0.23-2.9,1.82-4.84,5.06-4.85c8.1-0.03,16.21-0.09,24.31-0.11c12.35-0.02,24.69,0,37.04,0
			C532.07,686.09,532.07,686.05,532.07,686.01z"/>
		<path d="M189.28,582.15c1.81-7.95,3.54-15.55,5.28-23.16c0.61-2.66,1.3-5.31,1.93-7.97c2.06-8.67,6.87-15.66,13.27-21.65
			c0.99-0.92,2.18-1.67,3.39-2.3c2.95-1.53,5.84-1.63,8.04,1.24c2.36,3.08-0.37,4.66-2.2,6.45c-6.85,6.7-11.05,14.96-13.92,23.97
			c-0.21,0.67-0.12,1.43-0.18,2.5c6.51,0,12.86,0,19.2,0c6.22,0,12.45,0,19.32,0c-2.05,4.98-3.93,9.51-5.78,14.05
			c-2.79,6.86-2.78,6.86-10.31,6.86C214.74,582.14,202.16,582.15,189.28,582.15z"/>
		<path d="M420.7,133.64c-21.63,0-43.24,0-64.86,0c1.43-13.99,16.48-26.12,32.35-26.16C403.87,107.44,419.35,119.79,420.7,133.64z"
			/>
		<path d="M455.17,429.31c0.05-7.15-1.46-13.89,2.12-20.18c3.13-5.5,7.91-8.35,14.16-7.91c6.55,0.46,11,4.09,13.42,10.28
			c0.45,1.16,1.52,2.35,2.62,2.92c3.94,2.07,6.37,9.76,3.88,13.41c-0.53,0.77-1.83,1.42-2.79,1.42
			C477.63,429.34,466.68,429.31,455.17,429.31z"/>
		<path d="M653.62,686.04c9.36,0,18.72,0.07,28.08-0.05c2.43-0.03,3.28,0.76,3.39,3.16c0.33,6.94-0.37,8.02-7.28,8.08
			c-16.73,0.15-33.45,0.15-50.18,0.06c-6.25-0.03-8.6-1.88-8.49-5.94c0.1-3.82,2.16-5.15,8.63-5.21c8.61-0.08,17.23-0.02,25.84-0.02
			C653.62,686.09,653.62,686.07,653.62,686.04z"/>
		<path d="M685.04,581.98c-8.47,0-16.39,0-24.33,0c-2.81-6.68-5.64-13.37-8.72-20.69c10.09,0,19.75-0.11,29.4,0.13
			c1.24,0.03,3.43,1.83,3.49,2.92C685.22,570.14,685.04,575.97,685.04,581.98z"/>
		<path d="M508.8,581.99c-1.57-6.8-3.08-13.32-4.79-20.7c5.37,0,10.52,0.02,15.67-0.01c7.28-0.04,7.26-0.05,8.93,6.89
			c0.55,2.29,1.25,4.55,1.89,6.83c0.64,2.25,1.28,4.49,2,6.99C524.45,581.99,516.77,581.99,508.8,581.99z"/>
		<path d="M274.69,561.55c-1.78,6.91-3.47,13.49-5.24,20.39c-7.38,0-15.03,0-22.84,0c1.56-6.26,3.04-12.42,4.68-18.54
			c0.2-0.73,1.23-1.76,1.89-1.77C260.24,561.5,267.3,561.55,274.69,561.55z"/>
		<path d="M121.45,561.41c-2.81,6.78-5.31,12.98-7.99,19.11c-0.33,0.75-1.53,1.55-2.36,1.58c-4.71,0.15-9.42,0.07-14.58,0.07
			c0-6.03-0.18-11.84,0.16-17.62c0.06-1.11,2.11-2.95,3.3-3C107.03,561.26,114.09,561.41,121.45,561.41z"/>
		<path d="M438.96,561.19c3.5,0,6.84-0.11,10.16,0.06c1.01,0.05,2.26,0.61,2.92,1.36c4.86,5.62,8.26,12.03,10.24,19.4
			c-7.89,0-15.47,0-23.31,0C438.96,575.32,438.96,568.77,438.96,561.19z"/>
		<path d="M548.77,495.55c-0.02,4.94-4.52,9.41-9.35,9.28c-5.27-0.15-9.38-4.47-9.28-9.76c0.11-5.48,3.86-9.12,9.31-9.05
			C544.97,486.09,548.79,490.01,548.77,495.55z"/>
		<path d="M119.74,491.68c-5.14,0.03-8.81-3.68-8.85-8.97c-0.04-5.16,3.79-9.02,8.92-8.97c4.98,0.05,8.94,4.04,9,9.06
			C128.85,487.71,124.83,491.65,119.74,491.68z"/>
		<path d="M247.91,501.3c-0.01,4.62-4.24,8.68-8.96,8.6c-5.07-0.08-8.77-4-8.7-9.18c0.08-5.06,3.69-8.51,8.87-8.47
			C244.25,492.29,247.92,496.07,247.91,501.3z"/>
		<path d="M662.19,474.17c4.95,0.03,8.63,3.57,8.69,8.36c0.06,4.87-3.96,9-8.64,8.89c-4.92-0.12-8.54-4-8.45-9.06
			C653.87,477.73,657.55,474.14,662.19,474.17z"/>
		<path d="M583.13,420.38c-4.79-0.05-8.16-3.57-8.02-8.36c0.13-4.25,3.68-7.52,8.11-7.47c4.64,0.05,7.95,3.48,7.84,8.1
			C590.96,416.83,587.28,420.42,583.13,420.38z"/>
		<path d="M193.52,436.33c0.08-4.43,3.12-7.3,7.68-7.25c4.41,0.05,7.51,3.18,7.48,7.55c-0.03,4.42-3.5,7.88-7.79,7.74
			C196.35,444.23,193.43,441.04,193.52,436.33z"/>
		<path d="M112.71,161.81c4.61-0.06,7.65,2.81,7.65,7.21c-0.01,4.11-3.48,7.67-7.52,7.71c-4.18,0.04-7.33-3.22-7.43-7.69
			C105.32,164.94,108.41,161.87,112.71,161.81z"/>
		<path d="M656.6,169.51c-0.03-4.49,3.03-7.69,7.29-7.63c4.15,0.06,7.33,3.2,7.4,7.3c0.06,4.28-3.21,7.62-7.47,7.61
			C659.49,176.77,656.64,173.9,656.6,169.51z"/>
		<path d="M323.53,467.54c-4.29,0.06-7.12-2.79-7.19-7.25c-0.07-4.18,2.98-7.51,7-7.64c4.17-0.14,7.52,3.23,7.52,7.56
			C330.85,464.25,327.62,467.49,323.53,467.54z"/>
		<path d="M279.77,459.8c-0.06,4.2-3.22,7.23-7.42,7.1c-4.29-0.13-6.98-3.08-6.9-7.54c0.08-4.17,2.93-6.91,7.13-6.86
			C276.87,452.55,279.83,455.55,279.77,459.8z"/>
		<path d="M465.09,112.5c-0.11,3.74-3.6,7.24-7.22,7.23c-4.21-0.01-7.34-3.5-7.12-7.92c0.19-3.81,3.7-6.96,7.57-6.8
			C462.2,105.16,465.2,108.49,465.09,112.5z"/>
		<path d="M673.3,339.88c-0.01,3.99-3.04,7.13-6.94,7.2c-4.22,0.07-7.31-2.98-7.3-7.2c0.01-3.79,3.45-7.2,7.16-7.08
			C670.31,332.93,673.31,335.92,673.3,339.88z"/>
		<path d="M110.19,332.85c4.06,0.09,7.17,3.24,7.07,7.16c-0.1,3.92-3.36,7.13-7.21,7.1c-3.91-0.03-6.95-3.29-6.87-7.36
			C103.25,336.03,106.56,332.77,110.19,332.85z"/>
		<path d="M460.89,460.34c3.21-0.1,5.93,2.47,6.08,5.78c0.17,3.52-2.59,6.62-6.01,6.74c-3.42,0.12-5.99-2.39-6.17-6.04
			C454.61,463.08,457.08,460.46,460.89,460.34z"/>
		<path d="M517.43,432.81c1.41-7.17,5.14-11.08,11.42-12.15c0.13,0.2,0.36,0.4,0.36,0.59C529.06,433.75,530.39,432.35,517.43,432.81
			z"/>
		<path d="M298.69,125.79c0-3.1-0.13-6.17,0.08-9.23c0.06-0.9,1.01-2.43,1.65-2.48c3.29-0.25,6.61-0.12,9.95-0.12
			C308.74,120.81,304.79,124.84,298.69,125.79z"/>
		<path d="M310.24,107.13c-3.16-0.22-6.27-0.24-9.29-0.76c-0.92-0.16-2.16-1.67-2.26-2.66c-0.3-2.95-0.11-5.95-0.11-8.95
			C304.6,95.68,309.24,100.53,310.24,107.13z"/>
		<path d="M279.03,106.52c1.76-6.37,5.18-10.57,11.72-12.16c0.06,1.09,0.14,1.81,0.13,2.53
			C290.61,107.09,292.01,106.97,279.03,106.52z"/>
		<path d="M279.16,113.93c2.85,0,5.72-0.26,8.5,0.13c1.04,0.15,2.46,1.7,2.66,2.81c0.52,2.78,0.45,5.67,0.62,8.54
			C284.9,125.2,279.68,120.08,279.16,113.93z"/>
		<path d="M517.63,440.06c0.1-0.05,0.21-0.15,0.31-0.15c11.51-0.15,10.94-1.52,11.2,11.28C524.5,452.37,518.83,446.89,517.63,440.06
			z"/>
		<path d="M536.77,452.02c0-0.94,0-1.55,0-2.16c0.06-10.63-1.07-10.62,11.51-9.77C547.56,445.88,543.15,450.59,536.77,452.02z"/>
		<path d="M536.39,420.35c6.83,1.6,10.88,5.99,11.85,12.55c-3.03-0.23-5.99-0.26-8.87-0.78c-0.86-0.16-1.94-1.6-2.11-2.6
			C536.77,426.63,536.67,423.66,536.39,420.35z"/>
		<path d="M434.97,691.2c0.01-2.84,2.16-4.89,5.05-4.84c3.02,0.06,5.4,2.33,5.34,5.11c-0.06,2.88-2.54,5.31-5.29,5.19
			C437.26,696.54,434.96,694.07,434.97,691.2z"/>
		<path d="M667.25,302.62c-0.14,3.5-2.01,5.44-4.86,5.18c-2.81-0.25-4.18-1.93-4.15-4.73c0.03-3.09,1.91-4.85,4.99-4.61
			C665.97,298.67,667.74,299.83,667.25,302.62z"/>
		<path d="M116.69,215.22c-0.41,2.52-0.25,5.05-1.36,6.76c-0.54,0.83-4.48,0.84-5.06-0.02c-1.14-1.67-0.99-4.21-1.44-6.74
			C111.72,215.22,113.85,215.22,116.69,215.22z"/>
		<path d="M185.91,469.17c0,2.18,0,4.13,0,6.33c-2.21,0-4.27,0-6.35,0C177.32,469.36,178.32,468.29,185.91,469.17z"/>
		<path d="M632.93,118.14c0-2.42,0-4.48,0-6.53c6.09-1.73,7.11-0.6,5.82,6.57c-0.9,0.05-1.86,0.13-2.81,0.13
			C635.08,118.32,634.22,118.22,632.93,118.14z"/>
		<path d="M311.78,507.02c-6.81,0.54-6.83,0.52-6.2-6.84c1.97,0,3.98,0,6.2,0C311.78,502.4,311.78,504.58,311.78,507.02z"/>
		<path d="M605.66,457.66c-1.78,0-3.6,0-5.77,0c0-2.25,0-4.5,0-6.74C606.34,449.58,607.4,450.8,605.66,457.66z"/>
		<path d="M632.86,134.02c-0.05-0.8-0.14-1.64-0.16-2.49c-0.03-1.22-0.01-2.43-0.01-3.89c2.18,0,4.07,0,5.95,0
			C640.38,134.24,639.27,135.48,632.86,134.02z"/>
		<path d="M121.91,105.27c0-2.17,0-4.36,0-6.85c1.96,0,3.95,0,5.92,0C129.16,105.02,128.72,105.54,121.91,105.27z"/>
		<path d="M606.07,467.46c0,2.36,0,4.41,0,6.72c-2.11,0-4.02,0-6.24,0c0-2.23,0-4.48,0-7.19
			C601.96,467.15,603.96,467.31,606.07,467.46z"/>
		<path d="M196.17,469.13c2.29,0,4.24,0,6.37,0c0,2.17,0,4.12,0,6.37c-2.08,0-4.11,0-6.37,0
			C196.17,473.37,196.17,471.26,196.17,469.13z"/>
		<path d="M296.45,492.77c0-2.1,0-4.03,0-6.25c2.01,0,4.03,0,6.34,0c0,1.98,0,3.99,0,6.25
			C300.77,492.77,298.84,492.77,296.45,492.77z"/>
		<path d="M493.15,493.75c-2.31,0-4.25,0-6.46,0c0-2.28,0-4.32,0-6.6c2.15,0,4.19,0,6.46,0
			C493.15,489.31,493.15,491.35,493.15,493.75z"/>
		<path d="M127.99,121.3c-2.12,0-3.95,0-6.06,0c0-2.17,0-4.33,0-6.59c2.08,0,4.01,0,6.06,0C127.99,117,127.99,119.05,127.99,121.3z"
			/>
		<path fill="#FFFFFF" d="M495.29,270.43c-14.66,0-28.88-0.02-43.11,0.02c-2.82,0.01-5.27-0.41-6.17-3.58
			c-1.15-4.04,1.21-6.91,5.74-6.92c13.73-0.01,27.47-0.05,41.2,0.09c2.42,0.03,3.49-0.98,5.02-2.7c2.82-3.19,6.42-5.68,9.59-8.57
			c0.94-0.85,2.06-2.04,2.17-3.16c0.29-3.19,0.1-6.43,0.1-10.11c-2.01,0-3.72-0.01-5.43,0c-12.73,0.09-25.47,0.3-38.2,0.25
			c-9.56-0.04-15.57-5.03-17.23-13.83c-1.85-9.83,5.48-19.23,15.59-19.58c7.86-0.27,15.73-0.09,23.6-0.1
			c13.61-0.02,27.22-0.04,40.83-0.03c1.37,0,2.81-0.06,4.08,0.35c2.65,0.86,4.11,2.78,3.84,5.68c-0.27,2.81-2.08,4.25-4.71,4.42
			c-2.73,0.18-5.49-0.01-8.24-0.01c-18.48-0.05-36.96-0.09-55.44-0.12c-1.37,0-2.75,0.06-4.11,0.23c-3.18,0.4-5.53,2.96-5.59,5.99
			c-0.06,3.06,2.12,5.9,5.11,6.5c1.09,0.22,2.23,0.23,3.35,0.23c27.84-0.05,55.69-0.14,83.53-0.16c1.91,0,3.05-0.28,3.92-2.34
			c4.45-10.51,14.77-16.79,24.52-15.19c11.37,1.87,19.61,10.53,20.8,21.85c1.1,10.46-5.36,20.08-16.26,24.19
			c-0.56,0.21-1.15,0.37-1.69,0.53c0,8.88-0.08,17.6,0.12,26.32c0.02,0.96,1.52,2.3,2.62,2.76c9.41,3.96,14.69,11.05,15.59,21.08
			c0.89,9.96-3.5,17.5-12.23,22.14c-8.55,4.55-17.34,4.16-24.9-1.91c-4.09-3.29-8.07-4.02-12.96-3.98
			c-21.6,0.21-43.2,0.13-64.8,0.18c-3.85,0.01-7.42,0.4-11.06,2.44c-6.88,3.88-16.13,1.65-21.03-4.29
			c-5.37-6.5-5.87-15.53-1.22-22.21c4.69-6.74,13.7-9.77,21.19-6.66c2.62,1.08,4.1,0.69,6.21-0.97c4.21-3.31,8.7-6.27,13.21-9.17
			c2.66-1.71,4.5-3.43,2.82-6.85C495.34,272.52,495.44,271.58,495.29,270.43z M519.76,310.4c11.47,0,22.38,0,33.5,0
			c-1.03-13.76,4.96-23.01,17.72-27.96c0.57-0.22,1.13-1.29,1.14-1.97c0.08-8.71,0.05-17.41,0.05-26.14
			c-9.02-2.65-15.03-8.07-18.23-16.66c-0.39-1.05-2.28-2.14-3.51-2.18c-5.73-0.19-11.47,0-17.2,0.03c-4.44,0.02-8.88,0-13.45,0
			c0,3.35,0.1,5.95-0.03,8.55c-0.11,2.27,0.48,3.49,2.96,4.25c5.57,1.7,9.84,5.33,12.58,10.51c6.35,11.97,0.34,26.03-12.83,30.4
			c-1.04,0.34-2.55,1.47-2.58,2.27C519.66,297.59,519.76,303.68,519.76,310.4z M576.84,292.15c-7.59,0.05-13.65,6.28-13.58,13.96
			c0.07,7.19,6.32,13.66,13.25,13.72c7.39,0.07,14.27-6.53,14.21-13.62C590.67,298.19,584.65,292.09,576.84,292.15z M576.46,244.44
			c7.38,0.18,13.67-5.65,13.82-12.81c0.15-7.49-5.74-13.69-13.21-13.92c-7.4-0.22-13.65,5.77-13.85,13.27
			C563.03,238.14,569.05,244.25,576.46,244.44z M484.22,298.11c0.7,4.65,1.26,8.34,1.86,12.34c7.56,0,15.49,0,23.84,0
			c0-6.75,0.09-13.32-0.05-19.88c-0.05-2.12-7.21-5.23-9.07-3.97C495.05,290.49,489.38,294.51,484.22,298.11z M527.81,269.04
			c-0.02-6.45-5.13-11.63-11.53-11.69c-6.28-0.06-11.19,4.77-11.19,11c0,6.45,4.94,11.57,11.17,11.56
			C522.27,279.9,527.83,274.67,527.81,269.04z M459.33,306.86c-0.08,4.66,3.25,8.18,7.75,8.22c4.41,0.04,8.5-3.55,8.69-7.6
			c0.2-4.45-3.52-8.24-8.21-8.38C462.95,298.95,459.41,302.3,459.33,306.86z"/>
		<path fill="#FFFFFF" d="M273.34,283.53c0,1.1,0,2.7,0,4.71c1.45,0.07,2.77,0.18,4.09,0.18c11.24,0,22.49,0.32,33.71-0.13
			c9.1-0.37,17.61,7.7,17.95,17.39c0.34,9.53-6.98,17.73-16.78,18.58c-1.74,0.15-3.49,0.08-5.24,0.08
			c-32.97-0.01-65.93-0.02-98.9-0.03c-1.99,0-3.98,0-6.33,0c0.41,1.37,0.76,2.37,0.99,3.4c0.54,2.43-0.05,4.39-2.36,5.7
			c-2.18,1.24-3.77,0.33-5.3-1.2c-7.2-7.27-14.45-14.49-21.62-21.79c-3.34-3.4-3.24-4.98,0.24-8.43
			c6.38-6.33,12.76-12.66,19.17-18.96c2.08-2.05,3.92-4.97,7.54-2.88c3.39,1.96,2.63,4.95,1.54,8.07c20.38,0,40.51,0,60.9,0
			c0-1.78,0-3.35,0-5.27c-10.28-2.79-16.85-9.28-16.5-20.61c0.28-9.13,6.52-15.61,16.59-18.56c0-2.63,0-5.33,0-8.29
			c-18.91,0-37.71,0-57.39,0c1.4,1.46,2.47,2.5,3.45,3.62c2.44,2.77,2.62,6.03,0.48,8.04c-2.15,2.03-4.73,1.79-7.61-0.95
			c-7.05-6.71-14.06-13.46-21.03-20.26c-3.06-2.98-3.03-5.25,0.03-8.31c7.4-7.42,14.83-14.82,22.28-22.2
			c1.65-1.64,3.5-3.05,5.92-1.4c2.88,1.96,3.14,4.5,0.75,7.87c3.23,0,5.83,0,8.43,0c24.85-0.02,49.7,0.03,74.55-0.11
			c8.44-0.05,15.31,2.28,18.82,10.61c4.74,11.25-2.78,22.72-14.99,22.87c-7.71,0.1-15.43,0.02-23.63,0.02
			c0,2.32-0.27,4.33,0.09,6.22c0.26,1.36,1.03,3.17,2.11,3.74c5.36,2.84,8.83,7.12,11.2,12.6c0.44,1.01,2.37,1.93,3.63,1.95
			c10.86,0.14,21.73,0.07,32.59,0.06c1.12,0,2.25-0.03,3.37,0.01c3.49,0.14,5.53,2.01,5.63,5.13c0.1,3.3-1.91,5.31-5.75,5.33
			c-8.86,0.06-17.73-0.01-26.6-0.02c-1.25,0-2.51,0.12-3.74-0.02c-5.63-0.61-10.07,0.24-13.2,6.1
			C280.82,279.42,276.61,281.08,273.34,283.53z M185.01,306.57c3.33,2.58,4.79,7.47,10.32,7.46c36.06-0.06,72.12-0.03,108.19-0.03
			c2.62,0,5.26,0.09,7.85-0.17c4.15-0.42,7.27-3.6,7.38-7.17c0.13-4.34-2.52-7.41-7.2-8.02c-2.21-0.29-4.48-0.22-6.72-0.22
			c-5.61,0.02-11.23,0.14-16.84,0.15c-29.45,0.03-58.9,0.22-88.34-0.07C192.97,298.42,188.61,301.03,185.01,306.57z M246.05,224.75
			c0,0.03,0,0.06,0,0.09c13.6,0,27.2,0,40.8,0c3.37,0,6.74,0.17,10.1-0.01c3.68-0.19,5.97-2.52,6.1-5.8c0.13-3.36-2.2-6.3-5.63-6.84
			c-1.59-0.25-3.24-0.16-4.86-0.16c-26.45,0-52.91,0.25-79.36-0.14c-7.44-0.11-13.72,0.9-18.37,7.09c-0.99,1.32-1.9,2.71-2.84,4.07
			c1.68,0.55,3.32,1.22,5.04,1.6c1.07,0.24,2.24,0.07,3.36,0.07C215.6,224.75,230.82,224.75,246.05,224.75z M266.57,273.58
			c5.52,0.13,10.36-4.28,10.43-9.51c0.08-5.83-4.15-10.47-9.77-10.69c-5.58-0.22-10.44,4.25-10.65,9.81
			C256.36,268.79,260.84,273.45,266.57,273.58z"/>
		<path fill="#FFFFFF" d="M331.36,350.69c-2.16,0-3.64,0-5.11,0c-50.06,0-100.13-0.3-150.19,0.18
			c-14.46,0.14-25.93-10.36-25.83-26.02c0.25-41.2,0.06-82.4,0.09-123.6c0.01-12.17,6.54-21.49,17.41-24.58
			c2.82-0.8,5.9-0.99,8.86-0.99c49.44-0.02,98.88,0.02,148.32,0.07c1.97,0,3.94,0.23,6.44,0.39c0,4.21,0.11,8.18-0.08,12.13
			c-0.04,0.88-1.07,2.34-1.78,2.43c-1.3,0.17-3.41-0.05-3.94-0.89c-3.04-4.82-7.58-4.84-12.47-4.83
			c-46.07,0.08-92.14,0.05-138.21,0.08c-7.76,0.01-13.2,3.82-14.66,10.18c-0.33,1.44-0.37,2.97-0.37,4.46
			c-0.03,41.7-0.03,83.4-0.03,125.1c0,1.37,0.04,2.75,0.14,4.12c0.49,6.65,4.96,11.75,11.58,12.03c11.09,0.47,22.21,0.44,33.31,0.45
			c35.33,0.05,70.66,0.02,105.99,0.01c2.12,0,4.24-0.18,6.36-0.17c3.25,0.01,5.9-0.54,7.64-3.97c0.65-1.28,3.3-1.56,5.03-2.29
			c0.5,1.4,1.36,2.77,1.44,4.19C331.49,342.87,331.36,346.59,331.36,350.69z"/>
		<path fill="#FFFFFF" d="M445.14,175.83c2.49,0,4.33,0,6.17,0c49.56-0.07,99.13-0.11,148.69-0.21c14.42-0.03,24.84,9.71,24.9,24.14
			c0.19,42.2,0.23,84.39,0.15,126.59c-0.03,14.83-10.06,24.37-24.9,24.37c-50.06-0.02-100.13-0.01-150.19-0.01c-1.35,0-2.7,0-4.65,0
			c0-4.73-0.15-9.18,0.06-13.62c0.11-2.3,3.72-3.24,5.07-0.94c3.84,6.51,9.83,5.15,15.53,5.15c44.07,0.03,88.14,0.02,132.21,0.03
			c13.09,0,17.79-4.66,17.77-17.83c-0.06-30.46-0.14-60.92-0.21-91.38c-0.02-10.74,0.07-21.47-0.02-32.21
			c-0.09-9.72-5.45-14.95-15.17-14.95c-45.94,0.03-91.89,0.09-137.83,0.08c-4.6,0-8.91,0.02-11.86,4.54
			c-0.63,0.97-2.86,1.36-4.25,1.19c-0.62-0.08-1.34-2.18-1.41-3.39C445.02,183.78,445.14,180.16,445.14,175.83z"/>
		<path fill="#FFFFFF" d="M376.79,296.93c0,18.1,0,36.19,0,54.29c0,0.62,0.01,1.25-0.01,1.87c-0.14,4.37-1.67,6.39-4.72,6.22
			c-2.82-0.16-4.56-2.62-4.56-6.61c0.03-29.7,0.08-59.4,0.12-89.1c0.01-7.74-0.04-15.48,0.05-23.21c0.05-4.21,1.49-5.97,4.54-5.99
			c3.01-0.01,4.5,1.78,4.51,6.01c0.05,18.84,0.02,37.69,0.02,56.53C376.77,296.93,376.78,296.93,376.79,296.93z"/>
		<path fill="#FFFFFF" d="M367.6,191.88c0-9.72,0.02-19.44-0.01-29.16c-0.01-3.16,1.02-5.45,4.53-5.57
			c2.36-0.08,4.12,0.98,4.42,3.57c0.17,1.48,0.27,2.98,0.27,4.47c0.03,18.19,0.04,36.39,0.06,54.58c0,0.75-0.01,1.5-0.05,2.24
			c-0.17,3.36-2.07,5.54-4.89,5.25c-3.19-0.32-4.38-2.51-4.39-5.48c-0.01-9.97-0.01-19.94-0.01-29.91
			C367.55,191.88,367.57,191.88,367.6,191.88z"/>
		<path fill="#FFFFFF" d="M431.48,250.24c0,6.37-0.01,12.19,0,18.01c0.01,7.34,0.03,14.68,0.08,22.02c0.02,2.92-1.03,4.86-4.24,4.9
			c-3.28,0.04-4.69-1.73-4.67-4.9c0.08-12.44,0.15-24.89,0.16-37.33c0-1.87,0.64-2.78,2.58-2.71
			C427.11,250.29,428.84,250.24,431.48,250.24z"/>
		<path fill="#FFFFFF" d="M353.24,225.61c0.12,4.19,2.4,7.79-0.93,10.22c-1.35,0.98-5.46,0.73-5.99-0.24
			c-1.2-2.17-2.06-5.88-0.95-7.57C346.45,226.36,350.16,226.43,353.24,225.61z"/>
		<path fill="#FFFFFF" d="M422.81,230.38c-0.74-3.12,0.94-4.23,4.28-4.13c4.02,0.12,4.42,0.62,4.64,5.66
			c0.16,3.49-1.56,4.68-4.7,4.69C423.59,236.62,422.84,235.6,422.81,230.38z"/>
		<path fill="#FFFFFF" d="M269.33,649.41c10.6,0,21.21-0.12,31.81,0.1c2.02,0.04,4.57,0.9,5.87,2.3c1.14,1.25,1.64,4.1,1.01,5.68
			c-0.61,1.53-2.96,3.19-4.65,3.3c-6.21,0.43-12.46,0.24-18.7,0.27c-15.59,0.08-31.18,0.17-46.77,0.18c-1.59,0-3.34-0.12-4.74-0.78
			c-2.73-1.3-3.47-3.85-2.84-6.65c0.66-2.94,2.66-4.31,5.7-4.3c11.1,0.03,22.2,0.01,33.31,0.01
			C269.33,649.49,269.33,649.45,269.33,649.41z"/>
		<path fill="#FFFFFF" d="M389.55,626.43c-10.35,0-20.7,0.02-31.05-0.01c-5.05-0.02-7.82-2.18-7.77-5.93c0.05-3.78,2.78-5.8,8-5.79
			c17.58,0.05,35.16,0.14,52.74,0.2c3.61,0.01,7.24-0.25,10.84-0.05c4.39,0.24,6.74,2.53,6.69,6c-0.05,3.62-2.27,5.49-6.91,5.52
			c-10.85,0.06-21.7,0.02-32.54,0.02C389.55,626.4,389.55,626.42,389.55,626.43z"/>
		<path fill="#FFFFFF" d="M269,626.45c-10.61,0-21.22,0.02-31.83-0.01c-4.51-0.01-6.94-2.15-6.92-5.95
			c0.02-3.53,2.51-5.71,6.84-5.72c21.35-0.05,42.69-0.07,64.04-0.05c4.22,0,7.05,2.17,7.42,5.41c0.41,3.56-2.02,6.18-6.22,6.21
			c-11.11,0.1-22.22,0.03-33.33,0.03C269,626.4,269,626.42,269,626.45z"/>
		<path fill="#FFFFFF" d="M389.56,649.38c10.36,0,20.72,0,31.08,0.01c1,0,2-0.01,2.99,0.13c3.31,0.45,5.6,2.97,5.38,6.08
			c-0.24,3.34-2.07,5.31-5.51,5.36c-9.11,0.12-18.22,0.18-27.33,0.22c-12.23,0.05-24.46,0.07-36.7,0.09c-0.99,0-2-0.03-2.98-0.17
			c-3.94-0.54-5.76-2.51-5.64-6.06c0.11-3.46,2.21-5.48,6.13-5.51c10.86-0.07,21.72-0.03,32.58-0.03
			C389.56,649.47,389.56,649.42,389.56,649.38z"/>
		<path fill="#FFFFFF" d="M630.07,649.4c9.85,0,19.7-0.01,29.55,0.01c1.62,0,3.3-0.11,4.84,0.28c2.97,0.76,4.81,2.87,4.6,5.97
			c-0.19,2.77-1.56,5.13-4.77,5.27c-4.47,0.2-8.96,0.24-13.44,0.25c-17.21,0.01-34.42-0.05-51.63,0.01
			c-3.41,0.01-6.29-0.71-7.56-4.16c-1.43-3.88,1.52-7.47,6.23-7.51c10.72-0.08,21.45-0.03,32.17-0.03
			C630.07,649.46,630.07,649.43,630.07,649.4z"/>
		<path fill="#FFFFFF" d="M509.43,626.4c-10.61,0-21.23,0.03-31.84-0.02c-4.2-0.02-6.71-2.28-6.72-5.83
			c-0.01-3.47,2.16-5.64,6.45-5.67c16.73-0.1,33.46-0.01,50.19-0.01c4.12,0,8.24-0.08,12.36-0.08c1.24,0,2.51,0.04,3.72,0.28
			c3.18,0.64,5.16,2.49,5.14,5.89c-0.02,3.16-2.33,5.35-5.96,5.38c-11.11,0.09-22.23,0.03-33.34,0.03
			C509.43,626.39,509.43,626.4,509.43,626.4z"/>
		<path fill="#FFFFFF" d="M630.46,626.43c-10.48,0-20.95,0.04-31.43-0.02c-5.04-0.03-7.49-1.99-7.55-5.78
			c-0.05-3.8,2.6-5.9,7.89-5.9c16.09,0,32.18,0.1,48.27,0.13c4.49,0.01,9.01-0.43,13.45-0.02c2.38,0.22,5.05,1.34,6.77,2.93
			c1.04,0.96,1.28,4.13,0.46,5.4c-1.01,1.57-3.46,3.03-5.32,3.08c-10.84,0.28-21.7,0.14-32.55,0.14
			C630.46,626.4,630.46,626.42,630.46,626.43z"/>
		<path fill="#FFFFFF" d="M509.82,649.4c10.73,0,21.46,0.02,32.18-0.01c3.27-0.01,5.96,1.45,6.47,4.49
			c0.32,1.91-0.86,4.64-2.29,6.07c-1.15,1.14-3.7,1.17-5.62,1.18c-14.22,0.08-28.44,0.02-42.66,0.02c-5.49,0-10.98,0.04-16.46,0.05
			c-1.49,0-3,0.02-4.48-0.12c-3.94-0.38-6.25-2.75-6.06-6.11c0.18-3.21,2.58-5.37,6.37-5.39c10.85-0.06,21.7-0.02,32.56-0.02
			C509.82,649.5,509.82,649.45,509.82,649.4z"/>
		<path fill="#FFFFFF" d="M150.08,649.4c10.23,0,20.47-0.09,30.7,0.08c1.98,0.03,4.54,0.52,5.74,1.81c1.27,1.36,2.01,4.15,1.53,5.92
			c-0.42,1.54-2.8,3.49-4.42,3.59c-7.33,0.44-14.7,0.32-22.06,0.34c-13.98,0.04-27.96,0.06-41.94,0c-1.69-0.01-3.59-0.2-5.02-0.98
			c-2.43-1.32-3.24-3.8-2.59-6.46c0.67-2.75,2.71-4.17,5.49-4.2c6.86-0.07,13.73-0.02,20.59-0.02c3.99,0,7.99,0,11.98,0
			C150.08,649.46,150.08,649.43,150.08,649.4z"/>
		<path fill="#FFFFFF" d="M150.03,626.41c-10.23,0-20.45,0.02-30.68-0.01c-5.08-0.01-7.48-1.9-7.47-5.76
			c0.01-3.76,2.52-5.85,7.53-5.86c12.97-0.02,25.94,0.11,38.9,0.12c7.23,0.01,14.46-0.14,21.7-0.13c1.6,0,3.33,0.06,4.75,0.67
			c2.6,1.12,4.13,3.22,3.64,6.26c-0.53,3.26-2.75,4.63-5.83,4.64c-10.85,0.05-21.7,0.02-32.55,0.02
			C150.03,626.38,150.03,626.39,150.03,626.41z"/>
		<path d="M519.76,310.4c0-6.72-0.1-12.82,0.12-18.9c0.03-0.81,1.54-1.93,2.58-2.27c13.17-4.37,19.18-18.42,12.83-30.4
			c-2.75-5.18-7.01-8.81-12.58-10.51c-2.48-0.76-3.07-1.98-2.96-4.25c0.13-2.59,0.03-5.2,0.03-8.55c4.58,0,9.02,0.02,13.45,0
			c5.74-0.03,11.48-0.22,17.2-0.03c1.23,0.04,3.12,1.13,3.51,2.18c3.2,8.6,9.21,14.02,18.23,16.66c0,8.72,0.03,17.43-0.05,26.14
			c-0.01,0.68-0.57,1.75-1.14,1.97c-12.77,4.95-18.76,14.19-17.72,27.96C542.15,310.4,531.24,310.4,519.76,310.4z"/>
		<path d="M576.84,292.15c7.81-0.05,13.82,6.04,13.89,14.07c0.06,7.09-6.83,13.68-14.21,13.62c-6.93-0.06-13.18-6.53-13.25-13.72
			C563.19,298.43,569.25,292.2,576.84,292.15z"/>
		<path d="M576.46,244.44c-7.42-0.18-13.43-6.3-13.24-13.46c0.19-7.5,6.45-13.49,13.85-13.27c7.48,0.23,13.36,6.43,13.21,13.92
			C590.14,238.78,583.84,244.62,576.46,244.44z"/>
		<path d="M484.22,298.11c5.16-3.6,10.83-7.62,16.58-11.51c1.86-1.26,9.03,1.85,9.07,3.97c0.14,6.56,0.05,13.13,0.05,19.88
			c-8.36,0-16.28,0-23.84,0C485.48,306.45,484.92,302.76,484.22,298.11z"/>
		<path d="M527.81,269.04c0.01,5.63-5.54,10.86-11.55,10.87c-6.23,0.01-11.18-5.11-11.17-11.56c0-6.23,4.91-11.06,11.19-11
			C522.69,257.41,527.8,262.59,527.81,269.04z"/>
		<path d="M459.33,306.86c0.07-4.56,3.62-7.9,8.22-7.77c4.69,0.14,8.41,3.93,8.21,8.38c-0.18,4.06-4.28,7.64-8.69,7.6
			C462.58,315.04,459.26,311.51,459.33,306.86z"/>
		<path d="M185.01,306.57c3.6-5.54,7.96-8.14,14.63-8.08c29.45,0.29,58.9,0.11,88.34,0.07c5.61-0.01,11.23-0.13,16.84-0.15
			c2.24-0.01,4.51-0.07,6.72,0.22c4.68,0.61,7.33,3.68,7.2,8.02c-0.1,3.57-3.22,6.74-7.38,7.17c-2.6,0.27-5.23,0.17-7.85,0.17
			c-36.06,0.01-72.12-0.02-108.19,0.03C189.8,314.03,188.34,309.15,185.01,306.57z"/>
		<path d="M246.05,224.75c-15.22,0-30.45,0-45.67,0c-1.12,0-2.29,0.17-3.36-0.07c-1.71-0.39-3.36-1.06-5.04-1.6
			c0.95-1.36,1.85-2.75,2.84-4.07c4.65-6.19,10.94-7.2,18.37-7.09c26.45,0.39,52.91,0.14,79.36,0.14c1.62,0,3.27-0.09,4.86,0.16
			c3.43,0.54,5.76,3.48,5.63,6.84c-0.13,3.28-2.41,5.61-6.1,5.8c-3.36,0.17-6.73,0.01-10.1,0.01c-13.6,0-27.2,0-40.8,0
			C246.05,224.81,246.05,224.78,246.05,224.75z"/>
		<path d="M266.57,273.58c-5.72-0.14-10.2-4.8-9.99-10.39c0.21-5.56,5.07-10.03,10.65-9.81c5.62,0.22,9.85,4.85,9.77,10.69
			C276.93,269.3,272.08,273.71,266.57,273.58z"/>
	</g>
</g>
</svg>
