<?xml version="1.0" encoding="utf-8"?>
<!-- Generator: Adobe Illustrator 27.8.0, SVG Export Plug-In . SVG Version: 6.00 Build 0)  -->
<svg version="1.1" id="Capa_1" xmlns="http://www.w3.org/2000/svg" xmlns:xlink="http://www.w3.org/1999/xlink" x="0px" y="0px"
	 viewBox="0 0 1024 1024" enable-background="new 0 0 1024 1024" xml:space="preserve">
<g>
	<g>
		<path fill="#FEFEFE" d="M1023.91,512c0,169.14-0.01,338.27,0.09,507.41c0,3.75-0.84,4.59-4.59,4.59
			c-338.27-0.1-676.54-0.1-1014.81,0c-3.75,0-4.59-0.84-4.59-4.59C0.1,681.14,0.1,342.86,0,4.59C0,0.84,0.84,0,4.59,0
			c338.27,0.1,676.54,0.1,1014.81,0c3.75,0,4.6,0.84,4.59,4.59C1023.89,173.73,1023.91,342.86,1023.91,512z M504.62,891.79
			c37.16,0,74.32,0.02,111.47-0.01c14.5-0.01,22.45-7.8,22.02-22.21c-0.6-20.47-9.23-37.69-22.57-52.78
			c-15.69-17.73-35.19-27.67-59.02-29.11c-10.66-0.64-21.31-0.4-31.96-0.56c-2.11-0.03-3.75,0.09-3.66-3.05
			c0.25-8.66,0.16-17.33,0.07-25.99c-0.02-2.21,0.46-3.08,2.93-3.36c9.07-1.02,18.13-2.02,27.13-3.68
			c49.59-9.17,94.39-28.59,132.2-62.45c24.75-22.17,43.52-48.6,54.12-80.46c7.09-21.32,7.99-43.29,7.48-65.44
			c-0.07-3.17,0.77-4.95,3.71-6.59c23.02-12.82,29.5-38.07,15.56-59.85c-11.54-18.03-34.7-24.71-52.08-13.88
			c-6.18,3.85-12.03,4.65-18.69,4.67c-2.96,0.01-3.99-0.56-3.96-3.8c0.11-17.16-0.18-34.32-0.1-51.48
			c0.1-20.84-4.1-40.85-11.77-60.09c-13.33-33.47-34.34-61.42-62.89-83.32c-40.39-30.98-85.57-45.04-136.61-36.4
			c-36.36,6.16-67.58,22.73-94.63,47.47c-17.83,16.3-32.32,35.24-42.75,56.99c-11.28,23.51-18.51,48.21-18.57,74.6
			c-0.04,17.16,0,34.32-0.08,51.49c-0.01,1.48,0.91,4.2-1.32,4.16c-5.46-0.12-11.17,2.17-16.33-1.87
			c-8.96-7.02-19.47-8.41-30.24-6.49c-17.03,3.03-30.81,17.77-32.99,34.38c-2.54,19.41,5.58,35.31,22.63,43.54
			c2.97,1.43,3.52,3.12,3.56,6.08c0.15,12.15-0.22,24.39,1.07,36.44c3.67,34.21,18.25,63.91,40.18,89.93
			c31.71,37.63,72.75,60.85,119.3,75.07c19.11,5.84,38.73,9.26,58.62,10.99c2.65,0.23,3.24,1.07,3.2,3.52
			c-0.1,6.5,0.08,13,0.12,19.49c0.06,9.51,0.05,9.49-9.39,9.44c-13.3-0.06-26.65-0.81-39.74,2.33
			c-37.22,8.93-64.44,40.19-68.4,78.42c-1.47,14.24,7.13,23.83,21.43,23.83C430.64,891.79,467.63,891.79,504.62,891.79z
			 M352.12,127.14c-28.16,0-56.32-0.01-84.47,0.01c-1.98,0-3.94-0.09-5.94,0.44c-6.5,1.75-9.29,7.41-6.37,13.42
			c2.57,5.28,7.07,7.09,12.7,7.07c26.49-0.06,52.98-0.06,79.47-0.06c3.01,0,5.84-0.32,8.74-1.47c5.41-2.14,12.5,0.21,15.66,4.67
			c3.24,4.56,3.09,12.21-0.32,16.37c-3.85,4.71-9.69,6.07-15.79,3.45c-1.76-0.76-3.47-1.03-5.31-1.02
			c-26.83,0.03-53.65,0.02-80.48,0.09c-8.76,0.02-15.49,5.98-15.8,14.64c-0.38,10.65-0.3,21.33-0.05,31.98
			c0.14,6.02,3.83,10.24,8.86,11.23c7.95,1.56,11.65,0.09,14.8-5.89c4.42-8.38,11.74-12.02,20.84-11.88
			c10.82,0.18,20.55,8.27,23.25,18.65c2.67,10.28-1.95,21.91-10.84,27.28c-9.37,5.65-22.21,4.56-30.11-2.91
			c-2.54-2.4-5.13-3.16-8.49-3.14c-16.49,0.13-32.99,0.07-49.48,0.08c-17.42,0.01-19.65,3.55-18.91,18.4
			c0.34,6.83,0.62,7.47,7.48,8.6c7.28,1.21,10.84,5.72,10.47,13.27c-0.32,6.37-3.65,9.28-11.23,9.67c-4.33,0.23-6.88,2-6.69,6.75
			c0.14,3.33,0.06,6.66-0.03,9.99c-0.25,9.16-6.66,15.14-16.24,15.2c-8.6,0.05-15.54-6.58-15.84-15.24c-0.12-3.49,0.1-7-0.09-10.49
			c-0.21-3.92-1.68-6.57-6.37-6.51c-6.46,0.09-12.94-0.56-19.4-0.35c-9.99,0.32-12.97,3.57-12.97,13.5
			c-0.04,42.32-0.04,84.64-0.04,126.96c0,1.99,0.03,4.01,0.36,5.97c1.26,7.43,5.99,10.83,13.96,10.19
			c5.51-0.44,8.53-4.61,8.54-11.84c0.02-17.16-0.06-34.32,0.07-51.48c0.05-6.45,3.6-10.19,9.51-10.7c6.77-0.58,10.7,2.36,11.93,9.09
			c0.33,1.78,0.38,3.64,0.39,5.46c0.04,16.33-0.01,32.66,0.09,48.98c0.04,6.83,3.78,10.4,10.56,10.48
			c7.51,0.09,11.39-3.87,11.39-11.86c-0.01-16.99-0.17-33.99-0.12-50.98c0.02-6.85,2.64-9.78,8.75-10.56
			c7.47-0.95,12.5,3.43,12.53,11.13c0.06,17.33,0.01,34.66,0.02,51.98c0,1.81-0.26,3.65,0.64,5.39c0.85,1.67,1.69,3.45,3.76,3.64
			c1.84,0.17,2.38-1.77,3.03-2.92c2.72-4.81,5.8-9.26,9.77-13.18c11.49-11.34,25.78-16.76,41.21-19.59c4.6-0.85,6.59-2.72,6.63-7.49
			c0.22-30.59,7.83-59.43,21.11-86.85c14.74-30.42,35.76-56.02,61.45-77.68c22.43-18.91,47.7-33.07,75.8-41.95
			c6.55-2.07,8.11-5.32,5.69-11.66c-1.25-3.28-2.08-6.59-2.46-10.11c-0.77-7.17-4.7-12.41-10.34-13.01
			c-5.72-0.6-11.55-1.13-17.26,0.95c-6.68,2.44-13.94,0.06-17.15-5.26c-2.98-4.92-2.89-10.86,0.37-14.97
			c4.28-5.4,10.34-6.59,16.22-4.62c6.47,2.17,12.84,1.54,19.24,1.37c6.7-0.18,11.39-5.52,11.19-11.65
			c-0.19-5.85-4.39-9.08-11.93-9.08C409.44,127.14,380.78,127.15,352.12,127.14z M565.9,203.47c-0.04,0.54-0.08,1.08-0.12,1.62
			c13.07,4.42,25.74,9.8,37.84,16.34c28.88,15.6,53.35,36.44,73.69,62.28c29.47,37.45,46.12,79.59,47.46,127.42
			c0.14,5.13,1.74,7.16,6.95,8.09c21.71,3.88,40.72,12.3,51.64,33.18c1.7,3.24,4.48,3.12,6.44-0.04c1.19-1.93,1.14-4.11,1.13-6.29
			c-0.04-12.33-0.11-24.65-0.04-36.98c0.03-5.66,2.71-8.87,7.88-9.92c7.18-1.46,13.84,2.58,13.7,10.71
			c-0.2,10.99,0.22,21.99-0.08,32.98c-0.27,9.92,4.16,13.37,11.33,13.75c6.53,0.35,10.09-4.86,10.06-13.81
			c-0.04-11.16-0.24-22.32-0.13-33.48c0.07-7.44,3.58-10.55,10.95-10.32c6.34,0.2,9.69,3.86,9.77,11.21
			c0.13,11.66-0.06,23.32,0.08,34.98c0.09,7.59,3.63,10.9,11.1,10.91c7.7,0.01,12.43-4.77,12.43-12.99
			c0.02-85.12,0-170.25-0.03-255.37c0-1.16,0-2.34-0.18-3.49c-3.93-26.01-25.62-49.21-51.35-55.19c-11.52-2.68-23.18-1.8-34.8-1.81
			c-8.67-0.01-13.03,4.62-13.09,13.37c-0.15,22.82-0.29,45.64-0.45,68.46c-0.08,11.39-3.96,21.7-10.63,30.58
			c-11.82,15.72-28,23.47-47.53,19.87c-21.11-3.9-34.81-17.06-39.94-38.28c-2.92-12.11-9.82-17.79-22.26-17.79
			c-15.83,0.01-31.65,0.02-47.48,0.02C595.45,203.47,580.68,203.47,565.9,203.47z M200.07,674.01c-0.02,0-0.05,0-0.07,0
			c0-23.83,0-47.65,0-71.48c0-9.16,0.1-18.33-0.05-27.49c-0.08-5.1-4.8-9.56-10.07-9.96c-5.66-0.42-11.28,3.38-11.84,8.49
			c-0.54,4.95-1.13,10.02-0.61,14.92c0.81,7.53-0.2,14.95-0.32,22.41c-0.05,2.78-1.14,5.12-3.51,6.83
			c-3.55,2.55-7.32,3.14-11.28,1.33c-4.2-1.93-6.18-5.51-6.23-9.99c-0.12-10.83,0.01-21.66-0.11-32.49
			c-0.09-7.98-6.46-12.8-14.18-10.93c-6.05,1.46-8.36,5.15-8.45,13.88c-0.13,13.33-0.19,26.65-0.22,39.98
			c-0.03,12.03,1.55,14.15,13.05,17.82c16.42,5.24,30.73,24.38,30.86,41.54c0.15,20.99,0.16,41.99,0.18,62.98
			c0.02,15.49-0.08,30.99-0.01,46.48c0.05,9.3,4.15,13.29,13.49,13.46c2.17,0.04,4.36,0.26,6.49-0.03
			c12.86-1.72,25.64,12.18,24.05,24.04c-0.53,3.93-0.04,7.99-0.1,11.98c-0.07,4.97-3.37,9.27-7.77,10.28
			c-6.05,1.39-10.85-0.84-13.34-6.03c-0.98-2.05-1.04-4.15-1.08-6.32c-0.12-7.09-2.94-9.83-10.12-9.9c-1.5-0.01-3-0.01-4.5-0.01
			c-16.41,0.01-28.24-11.75-28.33-28.28c-0.07-13.16,0.03-26.32-0.04-39.49c-0.04-6.7-4.37-11.05-10.82-11.13
			c-7.41-0.08-11.62,3.35-11.71,10.58c-0.28,22.47-1.51,44.99,0.61,67.39c2.79,29.62,31.05,54.47,60.57,55.91
			c15.12,0.74,30.32,0.12,45.48,0.05c7.02-0.03,11.63-3.93,11.7-10.82c0.22-21.82,0.22-43.65-0.02-65.47
			c-0.08-7.08-5.28-11.5-12.35-11.56c-5.33-0.04-10.66,0.01-15.99-0.02c-13.94-0.08-23.28-9.16-23.32-23.03
			C200,737.98,200.07,706,200.07,674.01z M221.87,667.77c-0.16,0-0.33,0-0.49,0c0,29.49,0,58.98,0,88.47
			c0,11.67,3.49,15.48,15.05,14.05c21.14-2.61,37.02,15.11,36.67,34.04c-0.39,20.82-0.08,41.65-0.09,62.48
			c0,6.78,2.04,11.41,6.9,12.4c6.05,1.24,12.55,2.73,17.83-2.62c3.88-3.93,3.07-9.01,3.09-13.71c0.09-24.65-0.18-49.31-0.02-73.96
			c0.07-11.67-4.89-20.06-14.94-25.61c-3.1-1.71-6.03-3.69-8.1-6.53c-3.7-5.09-7.77-6.65-14.16-4.41
			c-7.64,2.68-15.6-1.76-18.83-9.17c-3.41-7.83-0.87-15.61,6.59-20.17c8.72-5.33,19.2-1.04,22.63,9.26
			c2.68,8.04,4.48,9.35,12.9,9.61c4.18,0.13,8.34,0.6,12.06,2.68c13.71,7.68,23.36,18.07,22.93,35.03
			c-0.06,2.26,0.18,4.32,2.72,5.28c2.45,0.92,4.17-0.28,5.8-1.82c1.21-1.14,2.27-2.45,3.55-3.5c3.78-3.14,8.09-3.08,12.11-0.94
			c4.26,2.27,4.92,6.48,4.05,10.86c-0.96,4.81-4.28,7.07-8.98,6.98c-4.4-0.08-7.37,1.91-9.17,5.61c-6.26,12.8-4.2,26.34-2.58,39.59
			c0.63,5.15,8.05,5.74,11.46,1.37c1.97-2.53,2.85-5.64,3.86-8.62c3.98-11.79,10.21-22.32,17.68-32.19
			c7.99-10.55,17.47-19.55,27.71-27.88c5.37-4.37,4.92-5.89-1.75-8.36c-29.05-10.73-54.95-26.82-78.15-47.09
			c-39.92-34.87-66.58-77.71-76.3-130.35c-0.75-4.08-1.18-8.23-1.98-12.3c-0.55-2.84-1.61-5.96-5.13-5.71
			c-3.43,0.24-5.14,2.75-4.92,6.32c0.05,0.83,0,1.67,0,2.5C221.87,608.82,221.87,638.29,221.87,667.77z M877.98,741.95
			c-0.01,0-0.02,0-0.03,0c0-26.32,0.03-52.64-0.02-78.96c-0.01-7.9-4.77-12.22-13.1-12.19c-8.16,0.03-10.91,2.99-10.94,11.81
			c-0.06,20.66,0.1,41.32-0.24,61.97c-0.3,18.17-10.02,27.38-28.19,27.48c-4.66,0.02-9.34,0.27-13.99-0.04
			c-4.87-0.32-8.78,1.32-12.22,4.53c-12.04,11.23-24.11,22.44-36.12,33.71c-3.82,3.58-6.22,7.6-4.57,13.26
			c1.78,6.09,5.88,10.64,11.68,10.84c11.92,0.42,24.05,3.08,35.75-2.71c9.39-4.65,20.96-1.22,26.28,6.74
			c5.42,8.1,3.16,21.52-4.54,27c-9.08,6.47-20.88,4.37-27.49-5.34c-2.11-3.09-4.36-4.08-7.84-3.93c-6.65,0.3-13.31,0.47-19.97,0.42
			c-7.74-0.05-14.16,5.5-14.68,13.27c-0.38,5.64-0.57,11.31-0.66,16.96c-0.16,10.65,3.17,14.02,13.9,14.07
			c14.16,0.07,28.32-0.09,42.48,0.1c31.7,0.43,64.99-27.56,64.58-64.54C877.76,791.59,877.98,766.77,877.98,741.95z M658,127.19
			c-27.99,0-55.98,0-83.97,0c-3.35,0-6.79,0.11-9.63,1.97c-6.31,4.16-5.37,12.89,1.64,16.71c3.01,1.64,6.54,2.49,8.02,6.24
			c2.5,6.35,0.13,12.64-6.52,15.54c-4.07,1.77-6.68,4.32-5.35,8.73c1.34,4.46,5.39,5.47,9.62,5.47c21.98,0.02,43.96-0.06,65.94,0.04
			c12.82,0.06,25.64-0.76,38.46,0.13c12.61,0.87,30.53,12.5,28.08,30.18c-0.5,3.61-0.26,7.28,1.15,10.81
			c3.7,9.29,11.56,14.87,21.44,15.09c9.9,0.22,19.9-6.24,24.17-14.9c4.1-8.32,3.16-16.06-1.39-23.7c-2.19-3.67-2.82-7.52,0.56-10.47
			c3.83-3.35,4.71-7.4,4.68-12.05c-0.07-11.83-0.1-23.65-0.15-35.48c-0.04-11-3.31-14.31-14.28-14.32
			C712.98,127.18,685.49,127.19,658,127.19z M231.17,177.97c0-12.49,0.01-24.98,0-37.47c-0.01-8.56-4.46-13.15-13.16-13.37
			c-4.99-0.13-9.99,0.07-14.99,0.02c-22.02-0.22-40.04,8.31-54.34,24.89c-7.87,9.12-13.5,19.54-14.51,31.61
			c-2.33,27.75-0.7,55.59-1,83.38c-0.06,5.86,4.19,9.86,10.14,9.95c6.49,0.09,12.99,0.04,19.49,0.04c6.77,0,8.85-1.94,9.08-8.81
			c0.17-5.32-0.23-10.69,0.22-15.98c1.11-12.94,10.61-21.44,21.97-23.04c7.98-1.13,16.22-1.38,24.39-0.98
			c8.29,0.41,12.63-3.84,12.69-12.26C231.25,203.29,231.18,190.63,231.17,177.97z M833.96,621.42c0-14.99,0.09-29.98-0.03-44.97
			c-0.07-8.33-7.72-13.51-15.22-10.36c-5.24,2.2-6.23,6.85-6.34,11.96c-0.35,16.3,0.37,32.63-1.34,48.91
			c-2.8,26.55-11.11,51.12-25.24,73.84c-11.83,19.03-29.08,32.66-45.54,47.13c-10.61,9.33-21.86,17.91-31.99,27.8
			c-3.86,3.77-5.86,8.15-5.84,13.76c0.05,25.15-0.19,50.3-0.25,75.45c-0.02,11.04,4.26,15.31,15.33,15.64
			c11.41,0.34,15.44-3.52,15.46-14.9c0.03-20.65,0.06-41.31,0.01-61.96c-0.01-2.71,0.4-5.3,1.17-7.85
			c2.38-7.82,7.88-13.38,13.87-18.48c12.41-10.56,23.81-22.27,36.28-32.71c12.94-10.85,23.1-25.48,40.69-30.39
			c4.82-1.34,6.66-7.18,5.36-12.06c-1.41-5.3-3.79-7.04-9.66-7.06c-5.85-0.03-9-3.05-9.15-8.8c-0.16-6.11,2.42-8.3,10.09-8.57
			c9.19-0.33,12.31-3.54,12.33-12.9C833.98,650.4,833.95,635.91,833.96,621.42z M790.97,594.98c0-5.5-0.12-11,0.04-16.49
			c0.12-4.14-0.96-7.86-5.42-8.08c-4.29-0.21-5.27,3.52-5.78,7.31c-5.34,39.63-20.46,75.28-45.2,106.55
			c-18.18,22.98-40.2,41.96-64.93,57.77c-15.6,9.97-32.1,18.04-49.33,24.72c-5.83,2.26-5.91,3.62-0.82,7.49
			c21.96,16.74,38.28,37.63,47.11,64.01c1.38,4.12,3.32,7.41,8.36,6.82c4.19-0.49,6.03-3.46,6.03-9.39
			c0.01-19.66,0.12-39.32-0.07-58.98c-0.07-6.7,2.39-12.07,7.25-16.27c16.85-14.56,33.45-29.45,50.85-43.32
			c22.46-17.92,38.23-39.92,45.51-67.86C789.2,631.44,791.55,613.39,790.97,594.98z M479.88,165.21
			c-0.18,14.27,11.37,25.71,25.97,25.72c13.5,0.01,25.5-12.07,25.75-25.92c0.24-13.22-12.22-25.59-25.87-25.69
			C491.56,139.21,480.07,150.72,479.88,165.21z M179.3,536.27c13.48,0.2,25.52-10.9,25.78-23.77c0.28-14.16-10.72-26.19-24.21-26.48
			c-14.44-0.31-26.49,10.86-26.6,24.65C154.17,524.82,165.15,536.06,179.3,536.27z M832.42,536.21
			c13.73-0.09,25.58-11.95,25.38-25.4c-0.21-13.42-11.99-24.93-25.43-24.83c-14.17,0.1-25.43,11.56-25.4,25.86
			C806.99,525.51,818.25,536.3,832.42,536.21z M854.82,593c0.01,0,0.02,0,0.03,0c0,5.65-0.13,11.3,0.03,16.94
			c0.2,6.63,3.9,9.96,10.9,10.14c7.04,0.19,11.85-3.31,12.01-9.62c0.3-11.45,0.35-22.93-0.04-34.38
			c-0.22-6.64-6.12-11.41-12.4-11.05c-6.46,0.38-10.48,4.93-10.53,12.01C854.79,582.37,854.82,587.68,854.82,593z M143.9,707.76
			c0,0.05-0.01,0.1-0.01,0.15c-0.83,0-1.66,0.04-2.49-0.01c-3.89-0.21-6.44,1.54-7.23,5.34c-0.85,4.08,0.59,7.27,4.61,8.82
			c3.85,1.48,7.83,1.39,11.64-0.16c2.98-1.22,4.91-3.45,4.6-6.91c-0.32-3.51-2.3-5.86-5.68-6.74
			C147.6,707.8,145.72,707.9,143.9,707.76z M682.03,871.36c-0.03-4.14-2.42-6.52-6.48-6.44c-3.68,0.07-6.94,3.02-6.99,6.33
			c-0.06,3.72,3.17,6.85,6.98,6.76C679.37,877.92,682.06,875.16,682.03,871.36z M330.43,864.9c-3.11,0.4-5.08,2.86-5.29,6.52
			c-0.21,3.67,3.5,6.94,7.2,6.54c3.82-0.41,5.97-2.78,6.17-6.54C338.7,867.86,335.04,864.73,330.43,864.9z M141.35,675.26
			c3.33-0.45,5.7-2.48,6.17-6.24c0.4-3.25-3.05-6.89-6.34-7.01c-3.27-0.12-6.5,2.9-6.62,6.18
			C134.42,671.67,137.59,675.17,141.35,675.26z"/>
		<path fill="#421E29" d="M504.62,891.79c-36.99,0-73.98,0.01-110.97-0.01c-14.3-0.01-22.9-9.6-21.43-23.83
			c3.96-38.23,31.18-69.48,68.4-78.42c13.09-3.14,26.44-2.4,39.74-2.33c9.44,0.05,9.45,0.07,9.39-9.44c-0.04-6.5-0.22-13-0.12-19.49
			c0.04-2.45-0.55-3.29-3.2-3.52c-19.89-1.73-39.51-5.16-58.62-10.99c-46.54-14.22-87.59-37.44-119.3-75.07
			c-21.93-26.02-36.51-55.73-40.18-89.93c-1.29-12.05-0.92-24.29-1.07-36.44c-0.04-2.96-0.59-4.65-3.56-6.08
			c-17.05-8.23-25.18-24.12-22.63-43.54c2.18-16.61,15.96-31.35,32.99-34.38c10.78-1.92,21.28-0.53,30.24,6.49
			c5.17,4.05,10.88,1.76,16.33,1.87c2.23,0.05,1.32-2.68,1.32-4.16c0.08-17.16,0.04-34.32,0.08-51.49
			c0.06-26.39,7.29-51.09,18.57-74.6c10.43-21.75,24.93-40.69,42.75-56.99c27.06-24.75,58.27-41.31,94.63-47.47
			c51.05-8.65,96.22,5.41,136.61,36.4c28.55,21.9,49.56,49.85,62.89,83.32c7.66,19.23,11.86,39.25,11.77,60.09
			c-0.08,17.16,0.21,34.32,0.1,51.48c-0.02,3.24,1,3.81,3.96,3.8c6.66-0.02,12.5-0.82,18.69-4.67
			c17.38-10.82,40.54-4.14,52.08,13.88c13.94,21.77,7.46,47.03-15.56,59.85c-2.95,1.64-3.78,3.41-3.71,6.59
			c0.51,22.14-0.39,44.12-7.48,65.44c-10.6,31.86-29.37,58.29-54.12,80.46c-37.81,33.86-82.61,53.28-132.2,62.45
			c-9,1.66-18.06,2.66-27.13,3.68c-2.47,0.28-2.95,1.15-2.93,3.36c0.09,8.66,0.18,17.33-0.07,25.99c-0.09,3.15,1.56,3.02,3.66,3.05
			c10.65,0.16,21.3-0.08,31.96,0.56c23.84,1.44,43.34,11.37,59.02,29.11c13.34,15.08,21.97,32.31,22.57,52.78
			c0.42,14.41-7.52,22.2-22.02,22.21C578.94,891.81,541.78,891.79,504.62,891.79z M381.16,686.88c-0.05,0.24-0.1,0.47-0.15,0.71
			c0.22-0.02,0.44-0.04,0.66-0.06c-0.21-0.19-0.42-0.38-0.63-0.57c-6.36-7.86-13.68-14.86-20.13-22.67
			c-16.79-20.29-28.85-42.88-35.28-68.5c-3.94-15.7-3.68-31.65-3.65-47.62c0.02-10.04,0-10.08-10.13-10.02
			c-3.8,0.02-8.68-1.14-11.11,0.75c-2.61,2.03-0.55,7.13-0.83,10.88c-0.07,0.99-0.07,2-0.08,2.99c-0.16,15.49,0.01,30.94,4.98,45.87
			c12.7,38.14,37.33,66.46,71.63,86.75C377.75,686.18,379.12,687.95,381.16,686.88z M658.68,481.15c0-22.16-0.07-44.31,0.02-66.47
			c0.07-16.82-2.7-33.16-8.77-48.8c-14.37-37.01-38.91-65.75-73.09-85.6c-49.59-28.79-99.21-26.9-147.77,2.94
			c-22.3,13.71-40.22,32.17-53.93,54.47c-14,22.77-22.17,47.36-22.13,74.41c0.08,48.14,0.11,96.28-0.14,144.41
			c-0.11,21.23,4.05,41.42,14.07,60.04c25.38,47.15,65.49,73.58,118,81.12c29.77,4.27,58.61-0.39,86.26-12.53
			c48.2-21.17,89.02-70.39,87.56-131.03C658.18,529.8,658.67,505.47,658.68,481.15z M505.06,860.1c0,0.01,0,0.02,0,0.03
			c31.82,0,63.64-0.01,95.45,0.01c2.61,0,5.2,0.49,3.78-3.8c-7.06-21.31-27.73-37.63-48-37.49c-33.82,0.24-67.64,0.11-101.46,0.07
			c-4.54,0-8.99,0.44-13.28,1.92c-16.73,5.76-28.26,16.97-34.69,33.44c-2.27,5.82-2.25,5.82,3.74,5.82
			C442.09,860.1,473.58,860.1,505.06,860.1z M629.19,686.63c2.54,1.06,4.33-0.46,6.04-1.55c5.02-3.2,10.08-6.39,14.84-9.96
			c44.72-33.52,67.08-77.45,62.27-134.02c-0.21-2.47-1-3.08-3.28-3.02c-5.32,0.15-10.66,0.23-15.98,0.06
			c-3.12-0.1-4.01,1.13-3.95,4.1c0.16,7.82,0.04,15.65,0.07,23.47c0.09,25.75-7.35,49.44-20,71.57
			C658.59,655.84,645.01,672.11,629.19,686.63z"/>
		<path fill="#F95479" d="M352.12,127.14c28.66,0,57.32,0,85.97,0.01c7.54,0,11.75,3.23,11.93,9.08
			c0.19,6.13-4.49,11.47-11.19,11.65c-6.39,0.18-12.77,0.8-19.24-1.37c-5.88-1.97-11.95-0.78-16.22,4.62
			c-3.26,4.11-3.35,10.04-0.37,14.97c3.21,5.31,10.47,7.7,17.15,5.26c5.71-2.09,11.54-1.56,17.26-0.95
			c5.64,0.6,9.56,5.83,10.34,13.01c0.38,3.52,1.21,6.83,2.46,10.11c2.41,6.33,0.86,9.58-5.69,11.66
			c-28.1,8.89-53.37,23.04-75.8,41.95c-25.69,21.66-46.72,47.26-61.45,77.68c-13.28,27.41-20.89,56.26-21.11,86.85
			c-0.04,4.77-2.03,6.64-6.63,7.49c-15.44,2.83-29.73,8.25-41.21,19.59c-3.97,3.92-7.05,8.37-9.77,13.18
			c-0.65,1.15-1.19,3.09-3.03,2.92c-2.07-0.19-2.9-1.98-3.76-3.64c-0.89-1.74-0.63-3.58-0.64-5.39
			c-0.02-17.33,0.04-34.66-0.02-51.98c-0.03-7.71-5.06-12.09-12.53-11.13c-6.12,0.78-8.73,3.71-8.75,10.56
			c-0.05,16.99,0.11,33.99,0.12,50.98c0,7.99-3.88,11.95-11.39,11.86c-6.77-0.08-10.51-3.65-10.56-10.48
			c-0.1-16.33-0.05-32.66-0.09-48.98c0-1.82-0.06-3.67-0.39-5.46c-1.23-6.73-5.15-9.67-11.93-9.09c-5.91,0.51-9.46,4.25-9.51,10.7
			c-0.13,17.16-0.05,34.32-0.07,51.48c-0.01,7.23-3.03,11.4-8.54,11.84c-7.97,0.64-12.7-2.76-13.96-10.19
			c-0.33-1.95-0.36-3.98-0.36-5.97c0-42.32,0-84.64,0.04-126.96c0.01-9.92,2.99-13.18,12.97-13.5c6.46-0.2,12.94,0.44,19.4,0.35
			c4.68-0.06,6.16,2.6,6.37,6.51c0.18,3.49-0.04,7,0.09,10.49c0.3,8.66,7.25,15.29,15.84,15.24c9.57-0.06,15.99-6.04,16.24-15.2
			c0.09-3.33,0.17-6.67,0.03-9.99c-0.2-4.75,2.36-6.53,6.69-6.75c7.58-0.4,10.92-3.31,11.23-9.67c0.37-7.55-3.19-12.07-10.47-13.27
			c-6.86-1.14-7.14-1.78-7.48-8.6c-0.75-14.85,1.48-18.38,18.91-18.4c16.49-0.01,32.99,0.05,49.48-0.08
			c3.36-0.03,5.95,0.73,8.49,3.14c7.9,7.47,20.74,8.56,30.11,2.91c8.89-5.36,13.51-17,10.84-27.28
			c-2.7-10.38-12.43-18.47-23.25-18.65c-9.09-0.15-16.42,3.5-20.84,11.88c-3.15,5.97-6.85,7.45-14.8,5.89
			c-5.03-0.99-8.72-5.21-8.86-11.23c-0.24-10.66-0.33-21.33,0.05-31.98c0.31-8.66,7.04-14.62,15.8-14.64
			c26.83-0.07,53.65-0.06,80.48-0.09c1.85,0,3.56,0.27,5.31,1.02c6.11,2.63,11.94,1.26,15.79-3.45c3.41-4.17,3.56-11.82,0.32-16.37
			c-3.17-4.46-10.25-6.81-15.66-4.67c-2.9,1.15-5.73,1.47-8.74,1.47c-26.49,0-52.98,0-79.47,0.06c-5.62,0.01-10.13-1.8-12.7-7.07
			c-2.93-6.01-0.14-11.67,6.37-13.42c2-0.54,3.96-0.44,5.94-0.44C295.81,127.13,323.96,127.14,352.12,127.14z M254.2,316.32
			c8.34,0.04,14.64-5.97,14.79-14.09c0.16-8.68-6.18-15.16-14.9-15.23c-8.35-0.07-15.1,6.18-15.07,13.94
			C239.06,310.14,245.12,316.28,254.2,316.32z M262.84,357.53c-0.02-6.92-5.7-12.49-12.77-12.52c-7.21-0.03-13.03,5.78-12.89,12.89
			c0.12,6.48,6.31,13.31,12.63,12.81C258.25,370.05,262.19,366.72,262.84,357.53z M387.8,207.09c5.31,0.08,9.7-4.05,9.78-9.2
			c0.09-5.8-3.83-9.92-9.45-9.92c-5.69,0-9.33,3.57-9.45,9.28C378.57,202.45,382.8,207.02,387.8,207.09z"/>
		<path fill="#F95479" d="M565.9,203.47c14.78,0,29.55,0,44.33,0c15.82,0,31.65-0.01,47.48-0.02c12.44-0.01,19.34,5.68,22.26,17.79
			c5.12,21.23,18.82,34.39,39.94,38.28c19.54,3.61,35.71-4.14,47.53-19.87c6.68-8.88,10.55-19.19,10.63-30.58
			c0.16-22.82,0.3-45.64,0.45-68.46c0.06-8.75,4.42-13.39,13.09-13.37c11.62,0.02,23.28-0.87,34.8,1.81
			c25.73,5.99,47.42,29.19,51.35,55.19c0.17,1.15,0.18,2.32,0.18,3.49c0.02,85.12,0.05,170.25,0.03,255.37
			c0,8.23-4.72,13-12.43,12.99c-7.48-0.01-11.01-3.32-11.1-10.91c-0.14-11.66,0.05-23.32-0.08-34.98c-0.08-7.34-3.43-11-9.77-11.21
			c-7.37-0.24-10.88,2.88-10.95,10.32c-0.11,11.16,0.1,22.32,0.13,33.48c0.03,8.95-3.53,14.16-10.06,13.81
			c-7.17-0.39-11.6-3.83-11.33-13.75c0.3-10.99-0.12-21.99,0.08-32.98c0.15-8.12-6.52-12.17-13.7-10.71
			c-5.17,1.05-7.85,4.26-7.88,9.92c-0.07,12.33-0.01,24.65,0.04,36.98c0.01,2.18,0.06,4.36-1.13,6.29
			c-1.96,3.16-4.74,3.28-6.44,0.04c-10.93-20.88-29.94-29.29-51.64-33.18c-5.21-0.93-6.81-2.96-6.95-8.09
			c-1.34-47.83-17.98-89.96-47.46-127.42c-20.34-25.84-44.81-46.68-73.69-62.28c-12.1-6.53-24.77-11.92-37.84-16.34
			C565.82,204.55,565.86,204.01,565.9,203.47z M796.41,307.2c0,0.03,0,0.05,0,0.08c-7.49,0-14.98-0.06-22.46,0.01
			c-8.47,0.08-16.98-0.87-25.4,0.4c-8.47,1.28-13.17,7.38-12.54,15.61c0.57,7.46,6.31,12.57,14.53,12.84
			c6.65,0.22,13.3,0.47,19.95,0.46c5.62-0.01,8.91,3.15,11.2,7.69c1.04,2.05,1.57,4.36,2.29,6.57c2.75,8.45,7.11,12.08,15.43,12.33
			c5.98,0.18,11.98,0.17,17.96-0.11c8.17-0.38,13.08-4.95,14.62-12.94c1.47-7.58,4.73-13.41,13.51-14.27
			c2.39-0.23,4.73-1.3,6.67-3.1c4.49-4.17,6.14-10.34,3.43-16.42c-2.66-5.97-7.68-9.08-14.25-9.13
			C826.36,307.13,811.39,307.2,796.41,307.2z M826.1,176.01c-10.93,0.04-19.8,8.5-19.72,18.82c0.09,11.52,8.56,20.3,19.51,20.23
			c11.21-0.07,19.54-8.45,19.74-19.38C845.83,185.07,834.9,174.57,826.1,176.01z M743.87,393.94c0.02,7.12,4.84,12.16,11.58,12.12
			c7.37-0.05,12.57-5.02,12.54-11.97c-0.04-7.53-4.7-12.24-12.09-12.25C748.34,381.83,743.85,386.36,743.87,393.94z M795.93,282.31
			c0.11-7.04-5.21-12.88-11.75-12.87c-6.85,0.01-12.03,5.09-12.07,11.83c-0.04,6.86,5.01,12.5,11.32,12.63
			C789.94,294.04,795.83,288.58,795.93,282.31z M843.12,270.07c-7.24-0.02-12.08,4.57-12.14,11.5c-0.06,6.72,5.27,12.32,11.67,12.25
			c6.78-0.07,12-5.33,11.92-12.02C854.49,274.94,849.74,270.08,843.12,270.07z M702.07,283.08c0.12,6.04,4.68,10.74,10.3,10.62
			c5.68-0.12,10.61-5.47,10.35-11.25c-0.24-5.4-5.25-10.18-10.51-10.02C706.33,272.6,701.96,277.19,702.07,283.08z"/>
		<path fill="#F95479" d="M200.07,674.01c0,31.99-0.06,63.98,0.03,95.97c0.04,13.87,9.38,22.95,23.32,23.03
			c5.33,0.03,10.66-0.02,15.99,0.02c7.07,0.06,12.27,4.48,12.35,11.56c0.25,21.82,0.24,43.65,0.02,65.47
			c-0.07,6.89-4.68,10.79-11.7,10.82c-15.16,0.07-30.35,0.69-45.48-0.05c-29.52-1.44-57.78-26.29-60.57-55.91
			c-2.11-22.4-0.89-44.93-0.61-67.39c0.09-7.23,4.3-10.67,11.71-10.58c6.45,0.07,10.78,4.42,10.82,11.13
			c0.07,13.16-0.03,26.32,0.04,39.49c0.09,16.52,11.92,28.29,28.33,28.28c1.5,0,3,0,4.5,0.01c7.18,0.07,10,2.81,10.12,9.9
			c0.04,2.17,0.1,4.27,1.08,6.32c2.49,5.19,7.28,7.43,13.34,6.03c4.4-1.01,7.69-5.31,7.77-10.28c0.06-4-0.43-8.06,0.1-11.98
			c1.59-11.86-11.19-25.76-24.05-24.04c-2.13,0.28-4.33,0.07-6.49,0.03c-9.33-0.17-13.44-4.16-13.49-13.46
			c-0.08-15.49,0.03-30.99,0.01-46.48c-0.03-20.99-0.03-41.99-0.18-62.98c-0.12-17.16-14.44-36.3-30.86-41.54
			c-11.49-3.67-13.08-5.79-13.05-17.82c0.04-13.33,0.09-26.66,0.22-39.98c0.09-8.73,2.4-12.42,8.45-13.88
			c7.72-1.87,14.1,2.95,14.18,10.93c0.12,10.83-0.02,21.66,0.11,32.49c0.05,4.48,2.03,8.06,6.23,9.99
			c3.96,1.82,7.73,1.23,11.28-1.33c2.37-1.71,3.46-4.05,3.51-6.83c0.12-7.47,1.13-14.88,0.32-22.41c-0.53-4.9,0.06-9.97,0.61-14.92
			c0.56-5.11,6.18-8.92,11.84-8.49c5.27,0.39,9.99,4.86,10.07,9.96c0.15,9.16,0.05,18.33,0.05,27.49c0,23.83,0,47.65,0,71.48
			C200.02,674.01,200.04,674.01,200.07,674.01z"/>
		<path fill="#F95479" d="M221.87,667.77c0-29.48,0-58.95,0-88.43c0-0.83,0.05-1.67,0-2.5c-0.22-3.57,1.49-6.08,4.92-6.32
			c3.52-0.25,4.57,2.87,5.13,5.71c0.8,4.07,1.22,8.22,1.98,12.3c9.72,52.64,36.37,95.48,76.3,130.35
			c23.2,20.27,49.1,36.37,78.15,47.09c6.67,2.46,7.13,3.99,1.75,8.36c-10.24,8.33-19.73,17.33-27.71,27.88
			c-7.47,9.87-13.7,20.4-17.68,32.19c-1.01,2.98-1.88,6.09-3.86,8.62c-3.4,4.37-10.82,3.78-11.46-1.37
			c-1.63-13.25-3.68-26.79,2.58-39.59c1.81-3.7,4.77-5.7,9.17-5.61c4.69,0.09,8.02-2.17,8.98-6.98c0.87-4.38,0.21-8.59-4.05-10.86
			c-4.01-2.14-8.32-2.2-12.11,0.94c-1.27,1.06-2.34,2.36-3.55,3.5c-1.62,1.54-3.35,2.75-5.8,1.82c-2.54-0.96-2.78-3.02-2.72-5.28
			c0.42-16.95-9.22-27.35-22.93-35.03c-3.71-2.08-7.88-2.55-12.06-2.68c-8.42-0.26-10.22-1.57-12.9-9.61
			c-3.44-10.3-13.92-14.58-22.63-9.26c-7.46,4.56-10,12.34-6.59,20.17c3.23,7.42,11.19,11.86,18.83,9.17
			c6.39-2.24,10.46-0.68,14.16,4.41c2.07,2.84,5,4.82,8.1,6.53c10.05,5.56,15.01,13.94,14.94,25.61
			c-0.16,24.65,0.11,49.31,0.02,73.96c-0.02,4.7,0.78,9.78-3.09,13.71c-5.27,5.35-11.78,3.86-17.83,2.62
			c-4.86-0.99-6.9-5.63-6.9-12.4c0.01-20.83-0.3-41.66,0.09-62.48c0.35-18.92-15.54-36.64-36.67-34.04
			c-11.56,1.43-15.05-2.38-15.05-14.05c0-29.49,0-58.98,0-88.47C221.54,667.77,221.7,667.77,221.87,667.77z"/>
		<path fill="#F95479" d="M877.98,741.95c0,24.82-0.22,49.65,0.05,74.46c0.41,36.98-32.88,64.97-64.58,64.54
			c-14.16-0.19-28.32-0.02-42.48-0.1c-10.73-0.06-14.06-3.42-13.9-14.07c0.09-5.66,0.28-11.32,0.66-16.96
			c0.53-7.77,6.94-13.32,14.68-13.27c6.65,0.04,13.32-0.12,19.97-0.42c3.48-0.16,5.74,0.83,7.84,3.93
			c6.61,9.7,18.41,11.8,27.49,5.34c7.7-5.48,9.96-18.91,4.54-27c-5.32-7.96-16.89-11.39-26.28-6.74
			c-11.69,5.79-23.83,3.14-35.75,2.71c-5.79-0.21-9.9-4.75-11.68-10.84c-1.65-5.66,0.75-9.68,4.57-13.26
			c12.01-11.27,24.08-22.47,36.12-33.71c3.44-3.21,7.36-4.85,12.22-4.53c4.64,0.31,9.32,0.06,13.99,0.04
			c18.17-0.1,27.89-9.31,28.19-27.48c0.34-20.65,0.18-41.31,0.24-61.97c0.03-8.82,2.78-11.78,10.94-11.81
			c8.34-0.03,13.09,4.29,13.1,12.19c0.05,26.32,0.02,52.64,0.02,78.96C877.96,741.95,877.97,741.95,877.98,741.95z M797.41,800.05
			c7.11,0.11,12.24-4.62,12.43-11.46c0.16-5.75-5.42-11.42-11.44-11.61c-6.51-0.21-11.34,4.45-11.49,11.08
			C786.76,794.98,791.11,799.96,797.41,800.05z M837.05,800.04c6.7,0.05,11.42-4.66,11.63-11.61c0.19-6.13-4.65-11.27-10.77-11.44
			c-6.96-0.2-11.94,4.39-12.01,11.07C825.83,795.01,830.46,799.99,837.05,800.04z"/>
		<path fill="#F95479" d="M658,127.19c27.49,0,54.98-0.01,82.47,0c10.97,0.01,14.24,3.31,14.28,14.32
			c0.05,11.83,0.08,23.65,0.15,35.48c0.03,4.65-0.85,8.69-4.68,12.05c-3.37,2.95-2.74,6.81-0.56,10.47
			c4.56,7.64,5.49,15.38,1.39,23.7c-4.27,8.66-14.27,15.12-24.17,14.9c-9.88-0.22-17.74-5.81-21.44-15.09
			c-1.41-3.53-1.65-7.2-1.15-10.81c2.44-17.68-15.47-29.31-28.08-30.18c-12.82-0.89-25.64-0.07-38.46-0.13
			c-21.98-0.1-43.96-0.02-65.94-0.04c-4.23,0-8.28-1.01-9.62-5.47c-1.33-4.41,1.28-6.96,5.35-8.73c6.66-2.9,9.02-9.18,6.52-15.54
			c-1.47-3.75-5.01-4.6-8.02-6.24c-7.01-3.82-7.95-12.55-1.64-16.71c2.84-1.87,6.28-1.97,9.63-1.97
			C602.02,127.19,630.01,127.19,658,127.19z M723.39,158.34c-0.05-7.68-5.63-13.27-13.21-13.26c-7.66,0.02-13.82,5.75-13.77,12.8
			c0.06,7.93,6.09,14.16,13.71,14.17C717.9,172.05,723.45,166.32,723.39,158.34z M644.7,166.08c7.56,0.02,13.08-5,13.15-11.96
			c0.07-6.67-5.18-12.03-11.86-12.1c-7.51-0.07-12.94,5.07-12.82,12.18C633.27,160.74,638.44,166.06,644.7,166.08z M611.78,159.36
			c5.29-0.05,9.26-4.19,9.2-9.58c-0.06-5.3-4.22-9.59-9.33-9.6c-5.59-0.01-9.78,4.16-9.74,9.68
			C601.95,155.24,606.29,159.41,611.78,159.36z"/>
		<path fill="#F95479" d="M231.17,177.97c0,12.66,0.08,25.32-0.02,37.97c-0.07,8.42-4.4,12.67-12.69,12.26
			c-8.18-0.4-16.41-0.15-24.39,0.98c-11.37,1.6-20.87,10.1-21.97,23.04c-0.45,5.29-0.05,10.65-0.22,15.98
			c-0.22,6.87-2.3,8.81-9.08,8.81c-6.5,0-12.99,0.05-19.49-0.04c-5.95-0.09-10.21-4.09-10.14-9.95c0.3-27.8-1.33-55.63,1-83.38
			c1.01-12.07,6.64-22.49,14.51-31.61c14.3-16.57,32.32-25.1,54.34-24.89c5,0.05,10-0.15,14.99-0.02
			c8.7,0.22,13.15,4.81,13.16,13.37C231.18,152.99,231.17,165.48,231.17,177.97z M198.13,192.59c0.1-7.88-4.68-13.08-12.2-13.26
			c-6.74-0.16-12.34,5.08-12.41,11.62c-0.09,8.24,4.98,14.12,12.14,14.08C193.11,204.99,198.04,200.07,198.13,192.59z"/>
		<path fill="#F95479" d="M833.95,621.42c-0.01,14.49,0.02,28.98-0.02,43.47c-0.02,9.36-3.14,12.57-12.33,12.9
			c-7.67,0.27-10.25,2.46-10.09,8.57c0.15,5.75,3.29,8.78,9.15,8.8c5.87,0.03,8.24,1.76,9.66,7.06c1.3,4.89-0.54,10.72-5.36,12.06
			c-17.59,4.9-27.74,19.54-40.69,30.39c-12.46,10.44-23.86,22.15-36.28,32.71c-5.99,5.09-11.48,10.65-13.87,18.48
			c-0.77,2.54-1.18,5.14-1.17,7.85c0.05,20.65,0.03,41.31-0.01,61.96c-0.02,11.37-4.05,15.23-15.46,14.9
			c-11.07-0.33-15.35-4.6-15.33-15.64c0.06-25.15,0.3-50.3,0.25-75.45c-0.01-5.6,1.98-9.99,5.84-13.76
			c10.12-9.89,21.38-18.47,31.99-27.8c16.46-14.47,33.7-28.11,45.54-47.13c14.13-22.72,22.44-47.29,25.24-73.84
			c1.72-16.27,0.99-32.6,1.34-48.91c0.11-5.11,1.11-9.76,6.34-11.96c7.5-3.15,15.16,2.03,15.22,10.36
			C834.05,591.43,833.96,606.42,833.95,621.42z"/>
		<path fill="#F95479" d="M790.97,594.98c0.58,18.41-1.77,36.46-6.41,54.27c-7.28,27.94-23.05,49.94-45.51,67.86
			c-17.4,13.88-34,28.76-50.85,43.32c-4.86,4.2-7.31,9.57-7.25,16.27c0.2,19.66,0.08,39.32,0.07,58.98c0,5.93-1.84,8.9-6.03,9.39
			c-5.04,0.6-6.98-2.7-8.36-6.82c-8.84-26.38-25.15-47.27-47.11-64.01c-5.09-3.88-5.01-5.23,0.82-7.49
			c17.24-6.68,33.74-14.75,49.33-24.72c24.73-15.82,46.75-34.8,64.93-57.77c24.74-31.27,39.85-66.92,45.2-106.55
			c0.51-3.78,1.49-7.51,5.78-7.31c4.46,0.21,5.55,3.94,5.42,8.08C790.85,583.98,790.97,589.48,790.97,594.98z"/>
		<path fill="#421E29" d="M479.88,165.21c0.19-14.5,11.68-26,25.86-25.9c13.65,0.1,26.11,12.48,25.87,25.69
			c-0.25,13.85-12.25,25.93-25.75,25.92C491.25,190.92,479.7,179.49,479.88,165.21z"/>
		<path fill="#421E29" d="M179.3,536.27c-14.15-0.21-25.14-11.45-25.03-25.6c0.11-13.79,12.16-24.96,26.6-24.65
			c13.49,0.29,24.49,12.32,24.21,26.48C204.82,525.37,192.78,536.47,179.3,536.27z"/>
		<path fill="#421E29" d="M832.42,536.21c-14.17,0.09-25.43-10.7-25.45-24.38c-0.03-14.3,11.23-25.76,25.4-25.86
			c13.44-0.09,25.22,11.42,25.43,24.83C858,524.26,846.15,536.13,832.42,536.21z"/>
		<path fill="#F95479" d="M854.82,593c0-5.32-0.03-10.63,0.01-15.95c0.05-7.08,4.07-11.64,10.53-12.01
			c6.28-0.36,12.17,4.41,12.4,11.05c0.39,11.45,0.34,22.92,0.04,34.38c-0.17,6.31-4.97,9.8-12.01,9.62c-7-0.19-10.7-3.51-10.9-10.14
			c-0.17-5.64-0.03-11.29-0.03-16.94C854.84,593,854.83,593,854.82,593z"/>
		<path fill="#F95479" d="M143.9,707.76c1.81,0.15,3.69,0.05,5.43,0.49c3.39,0.87,5.37,3.23,5.68,6.74c0.31,3.46-1.62,5.69-4.6,6.91
			c-3.81,1.56-7.79,1.64-11.64,0.16c-4.01-1.55-5.45-4.74-4.61-8.82c0.79-3.8,3.34-5.55,7.23-5.34c0.83,0.05,1.66,0.01,2.49,0.01
			C143.9,707.85,143.9,707.8,143.9,707.76z"/>
		<path fill="#F95479" d="M682.03,871.36c0.03,3.8-2.66,6.56-6.48,6.65c-3.81,0.09-7.04-3.04-6.98-6.76
			c0.05-3.31,3.31-6.26,6.99-6.33C679.61,864.85,682,867.22,682.03,871.36z"/>
		<path fill="#F95479" d="M330.43,864.9c4.61-0.17,8.27,2.96,8.08,6.52c-0.2,3.77-2.35,6.13-6.17,6.54c-3.7,0.4-7.41-2.87-7.2-6.54
			C325.35,867.76,327.32,865.3,330.43,864.9z"/>
		<path fill="#F95479" d="M141.35,675.26c-3.76-0.08-6.93-3.59-6.8-7.06c0.12-3.28,3.35-6.3,6.62-6.18
			c3.29,0.12,6.74,3.75,6.34,7.01C147.05,672.78,144.67,674.81,141.35,675.26z"/>
		<path fill="#FEFEFE" d="M658.68,481.15c0,24.32-0.49,48.65,0.09,72.96c1.46,60.64-39.36,109.86-87.56,131.03
			c-27.65,12.14-56.49,16.8-86.26,12.53c-52.51-7.53-92.62-33.97-118-81.12c-10.03-18.62-14.19-38.81-14.07-60.04
			c0.26-48.14,0.22-96.28,0.14-144.41c-0.04-27.06,8.12-51.65,22.13-74.41c13.72-22.3,31.63-40.76,53.93-54.47
			c48.55-29.84,98.18-31.73,147.77-2.94c34.18,19.84,58.72,48.58,73.09,85.6c6.07,15.65,8.84,31.98,8.77,48.8
			C658.61,436.84,658.68,458.99,658.68,481.15z M607.03,423.2c-0.07-55.12-46.61-102.27-100.87-102.22
			c-56.14,0.05-102.77,46.5-101.95,103.05c0.78,53.64,43.9,101.12,102.52,100.99C560.48,524.9,607.1,477.64,607.03,423.2z
			 M505.26,635.09c4.74,0.09,9.37-0.82,13.72-2.35c11.46-4.03,20.7-10.61,23.53-23.38c1.21-5.47-1.53-11.78-5.83-14.37
			c-4.99-3.01-10.82-2.7-15.33,1.07c-1.63,1.36-2.95,3.14-4.26,4.83c-2.6,3.36-5.88,4.99-10.2,5.3c-6.64,0.48-10.9-2.84-14.66-7.7
			c-3.85-4.97-9.52-6.73-14.51-4.92c-6.13,2.23-9.03,6.52-9.09,13.32c-0.05,5.23,1.86,9.73,5.1,13.71
			C481.87,630.6,492.86,634.4,505.26,635.09z"/>
		<path fill="#FEFEFE" d="M505.06,860.1c-31.49,0-62.98,0-94.46,0c-5.99,0-6.01,0-3.74-5.82c6.43-16.47,17.96-27.68,34.69-33.44
			c4.28-1.47,8.74-1.92,13.28-1.92c33.82,0.03,67.64,0.17,101.46-0.07c20.27-0.14,40.95,16.18,48,37.49c1.42,4.29-1.18,3.8-3.78,3.8
			c-31.82-0.02-63.64-0.01-95.45-0.01C505.06,860.12,505.06,860.11,505.06,860.1z"/>
		<path fill="#FEFEFE" d="M629.19,686.63c15.81-14.52,29.39-30.78,40.01-49.35c12.65-22.14,20.09-45.83,20-71.57
			c-0.03-7.82,0.09-15.65-0.07-23.47c-0.06-2.98,0.84-4.2,3.95-4.1c5.32,0.17,10.65,0.09,15.98-0.06c2.28-0.06,3.07,0.55,3.28,3.02
			c4.8,56.58-17.56,100.5-62.27,134.02c-4.76,3.57-9.82,6.76-14.84,9.96C633.52,686.17,631.73,687.68,629.19,686.63z"/>
		<path fill="#FEFEFE" d="M381.17,686.88c-2.05,1.08-3.41-0.7-4.74-1.48c-34.29-20.29-58.92-48.62-71.63-86.75
			c-4.97-14.92-5.14-30.38-4.98-45.87c0.01-1,0.01-2,0.08-2.99c0.28-3.75-1.78-8.85,0.83-10.88c2.43-1.89,7.31-0.72,11.11-0.75
			c10.14-0.06,10.15-0.03,10.13,10.02c-0.03,15.97-0.29,31.91,3.65,47.62c6.43,25.62,18.48,48.2,35.28,68.5
			c6.46,7.8,13.77,14.81,20.13,22.67L381.17,686.88z"/>
		<path fill="#FEFEFE" d="M381.04,686.95c0.21,0.19,0.42,0.38,0.63,0.57c-0.22,0.02-0.44,0.04-0.66,0.06
			c0.05-0.24,0.1-0.47,0.15-0.71C381.17,686.88,381.04,686.95,381.04,686.95z"/>
		<path fill="#FEFEFE" d="M254.2,316.32c-9.07-0.04-15.14-6.18-15.18-15.38c-0.04-7.76,6.72-14.01,15.07-13.94
			c8.72,0.07,15.06,6.55,14.9,15.23C268.84,310.35,262.53,316.36,254.2,316.32z"/>
		<path fill="#FEFEFE" d="M262.84,357.53c-0.65,9.19-4.59,12.52-13.03,13.18c-6.33,0.5-12.51-6.33-12.63-12.81
			c-0.13-7.11,5.68-12.92,12.89-12.89C257.14,345.04,262.82,350.61,262.84,357.53z"/>
		<path fill="#FEFEFE" d="M387.8,207.09c-5-0.07-9.22-4.63-9.11-9.84c0.12-5.7,3.76-9.27,9.45-9.28c5.61,0,9.54,4.12,9.45,9.92
			C397.5,203.04,393.11,207.16,387.8,207.09z"/>
		<path fill="#FEFEFE" d="M796.41,307.2c14.98,0,29.95-0.06,44.93,0.03c6.57,0.04,11.6,3.15,14.25,9.13
			c2.71,6.08,1.06,12.25-3.43,16.42c-1.94,1.8-4.28,2.87-6.67,3.1c-8.78,0.86-12.04,6.69-13.51,14.27
			c-1.54,7.99-6.46,12.56-14.62,12.94c-5.98,0.28-11.98,0.29-17.96,0.11c-8.32-0.25-12.68-3.88-15.43-12.33
			c-0.72-2.21-1.26-4.52-2.29-6.57c-2.29-4.54-5.59-7.7-11.2-7.69c-6.65,0.01-13.3-0.24-19.95-0.46
			c-8.22-0.27-13.96-5.38-14.53-12.84c-0.63-8.23,4.07-14.33,12.54-15.61c8.42-1.28,16.93-0.32,25.4-0.4
			c7.49-0.07,14.98-0.01,22.46-0.01C796.41,307.25,796.41,307.22,796.41,307.2z"/>
		<path fill="#FEFEFE" d="M826.1,176.01c8.8-1.45,19.73,9.06,19.53,19.68c-0.2,10.93-8.54,19.31-19.74,19.38
			c-10.95,0.07-19.41-8.72-19.51-20.23C806.29,184.52,815.17,176.05,826.1,176.01z M832.63,195.66c0.07-3.39-3.1-6.91-6.37-7.08
			c-3.34-0.18-7.34,3.59-6.93,7.04c0.43,3.57,2.55,6.09,6.42,6.38C829.28,202.26,832.57,199.13,832.63,195.66z"/>
		<path fill="#FEFEFE" d="M743.87,393.94c-0.02-7.59,4.47-12.11,12.03-12.1c7.39,0.01,12.04,4.73,12.09,12.25
			c0.04,6.95-5.17,11.92-12.54,11.97C748.71,406.11,743.89,401.06,743.87,393.94z"/>
		<path fill="#FEFEFE" d="M795.93,282.31c-0.1,6.27-5.99,11.74-12.5,11.6c-6.3-0.13-11.36-5.77-11.32-12.63
			c0.04-6.74,5.22-11.82,12.07-11.83C790.72,269.43,796.04,275.27,795.93,282.31z"/>
		<path fill="#FEFEFE" d="M843.12,270.07c6.63,0.01,11.38,4.88,11.45,11.73c0.07,6.69-5.15,11.95-11.92,12.02
			c-6.39,0.06-11.72-5.53-11.67-12.25C831.03,274.63,835.87,270.05,843.12,270.07z"/>
		<path fill="#FEFEFE" d="M702.07,283.08c-0.11-5.89,4.26-10.48,10.15-10.65c5.26-0.16,10.27,4.62,10.51,10.02
			c0.25,5.78-4.67,11.13-10.35,11.25C706.75,293.82,702.19,289.12,702.07,283.08z"/>
		<path fill="#FEFEFE" d="M797.41,800.05c-6.3-0.09-10.65-5.07-10.49-11.99c0.15-6.63,4.98-11.28,11.49-11.08
			c6.02,0.19,11.6,5.86,11.44,11.61C809.65,795.43,804.52,800.16,797.41,800.05z"/>
		<path fill="#FEFEFE" d="M837.05,800.04c-6.59-0.05-11.22-5.03-11.15-11.98c0.07-6.68,5.04-11.26,12.01-11.07
			c6.12,0.17,10.95,5.31,10.77,11.44C848.47,795.38,843.75,800.09,837.05,800.04z"/>
		<path fill="#FEFEFE" d="M723.39,158.34c0.06,7.98-5.49,13.71-13.27,13.71c-7.62,0-13.65-6.23-13.71-14.17
			c-0.05-7.05,6.11-12.78,13.77-12.8C717.76,145.06,723.34,150.66,723.39,158.34z"/>
		<path fill="#FEFEFE" d="M644.7,166.08c-6.27-0.01-11.43-5.34-11.53-11.88c-0.11-7.1,5.31-12.25,12.82-12.18
			c6.67,0.07,11.93,5.42,11.86,12.1C657.78,161.07,652.26,166.09,644.7,166.08z"/>
		<path fill="#FEFEFE" d="M611.78,159.36c-5.49,0.06-9.83-4.12-9.87-9.5c-0.05-5.52,4.15-9.69,9.74-9.68
			c5.11,0.01,9.27,4.29,9.33,9.6C621.03,155.17,617.07,159.3,611.78,159.36z"/>
		<path fill="#FEFEFE" d="M198.13,192.59c-0.1,7.48-5.03,12.4-12.47,12.44c-7.17,0.04-12.24-5.84-12.14-14.08
			c0.08-6.54,5.67-11.78,12.41-11.62C193.45,179.51,198.24,184.71,198.13,192.59z"/>
		<path fill="#421E29" d="M607.03,423.2c0.07,54.44-46.54,101.71-100.3,101.82c-58.62,0.13-101.74-47.35-102.52-100.99
			c-0.82-56.55,45.81-103,101.95-103.05C560.42,320.92,606.95,368.08,607.03,423.2z M575.98,423.31
			c1.46-38.89-34.69-71.88-69.74-71.37c-39.53,0.57-71.07,31.45-71.14,70.9c-0.07,38.87,32.19,71.19,71.03,71.16
			C544.1,493.97,575.97,461.71,575.98,423.31z"/>
		<path fill="#421E29" d="M505.26,635.09c-12.4-0.69-23.39-4.49-31.53-14.49c-3.24-3.98-5.14-8.47-5.1-13.71
			c0.06-6.8,2.96-11.1,9.09-13.32c4.99-1.81,10.66-0.05,14.51,4.92c3.76,4.86,8.02,8.19,14.66,7.7c4.32-0.31,7.6-1.94,10.2-5.3
			c1.31-1.7,2.63-3.47,4.26-4.83c4.51-3.77,10.33-4.08,15.33-1.07c4.3,2.59,7.04,8.9,5.83,14.37
			c-2.83,12.76-12.07,19.34-23.53,23.38C514.63,634.27,510,635.18,505.26,635.09z"/>
		<path fill="#F95479" d="M832.63,195.66c-0.07,3.46-3.35,6.6-6.88,6.34c-3.87-0.29-5.99-2.8-6.42-6.38
			c-0.41-3.45,3.59-7.22,6.93-7.04C829.54,188.76,832.7,192.28,832.63,195.66z"/>
		<path fill="#FEFEFE" d="M575.98,423.31c-0.01,38.4-31.88,70.65-69.85,70.68c-38.84,0.03-71.1-32.29-71.03-71.16
			c0.07-39.45,31.61-70.33,71.14-70.9C541.29,351.43,577.43,384.42,575.98,423.31z M467.7,423.09
			c-0.03,21.54,16.54,38.06,38.2,38.09c20.13,0.03,37.46-17.14,37.75-37.42c0.31-21.21-16.78-38.8-37.68-38.78
			C484.46,385,467.73,401.65,467.7,423.09z"/>
		<path fill="#421E29" d="M467.7,423.09c0.03-21.44,16.76-38.09,38.27-38.11c20.89-0.01,37.98,17.58,37.68,38.78
			c-0.29,20.27-17.62,37.45-37.75,37.42C484.24,461.15,467.66,444.62,467.7,423.09z"/>
	</g>
</g>
</svg>
