<?xml version="1.0" encoding="utf-8"?>
<!-- Generator: Adobe Illustrator 27.8.0, SVG Export Plug-In . SVG Version: 6.00 Build 0)  -->
<svg version="1.1" id="Capa_1" xmlns="http://www.w3.org/2000/svg" xmlns:xlink="http://www.w3.org/1999/xlink" x="0px" y="0px"
	 viewBox="0 0 259.2 259.2" enable-background="new 0 0 259.2 259.2" xml:space="preserve">
<g>
	<g>
		<path fill="#FEFEFE" d="M129.63,259.17c-42.83,0-85.65,0-128.48,0.03c-1,0-1.15-0.24-1.15-1.18C0.03,172.41,0.03,86.8,0,1.19
			C0,0.25,0.14,0,1.15,0c85.61,0.03,171.23,0.03,256.84,0c1.05,0,1.21,0.26,1.21,1.24c-0.03,85.61-0.03,171.22,0,256.83
			c0,0.87-0.14,1.12-1.08,1.12C215.29,259.17,172.46,259.17,129.63,259.17z M153.46,142.59c-0.16,0.13-0.28,0.18-0.33,0.27
			c-5.64,9.79-11.26,19.59-16.92,29.38c-0.38,0.66-0.31,1.11,0.05,1.73c5.58,9.64,11.13,19.3,16.69,28.95
			c0.12,0.21,0.15,0.57,0.57,0.49c0.27-0.35,0.13-0.76,0.13-1.14c0.01-3.44,0-6.88,0.01-10.31c0-1.71,0.21-1.91,1.95-1.91
			c4.79,0,9.59,0.04,14.38-0.01c6.46-0.06,11.54-2.81,14.82-8.36c6.17-10.45,12.17-21.01,18.23-31.52c1.73-3,2.46-6.23,1.95-9.67
			c-0.21-1.45-0.4-2.94-1.37-4.52c-0.17,1.77-0.11,3.23-0.37,4.68c-1.6,8.76-9.52,15.5-18.45,15.52
			c-9.78,0.03-19.57,0.01-29.35,0.01c-1.42,0-1.78-0.34-1.78-1.76c-0.01-3.48,0-6.96-0.01-10.43
			C153.66,143.56,153.79,143.11,153.46,142.59z M107.16,142.86c-0.1-0.42-0.1-0.54-0.15-0.63c-5.61-9.72-11.23-19.42-16.82-29.15
			c-0.5-0.87-1.06-1.18-2.08-1.18c-11.02,0.04-22.04,0.02-33.07,0.02c-0.25,0-0.64-0.19-0.73,0.17c-0.09,0.4,0.34,0.46,0.61,0.62
			c3.15,1.81,6.3,3.62,9.44,5.44c1.38,0.8,1.42,1.05,0.61,2.45c-2.4,4.15-4.81,8.28-7.19,12.45c-3.33,5.83-3.39,11.72-0.05,17.54
			c5.95,10.39,11.98,20.75,17.97,31.12c2.12,3.68,5.23,6.1,9.31,7.2c0.73,0.2,1.49,0.76,2.35,0.36c-0.11-0.41-0.44-0.43-0.66-0.56
			c-8.98-5.3-12.19-16.47-7.13-25.61c4.82-8.69,9.91-17.24,14.86-25.86c0.53-0.92,1.18-1.1,2.08-0.55c1.03,0.62,2.07,1.21,3.1,1.81
			C102.05,139.91,104.49,141.32,107.16,142.86z M99.75,60.95c0.98,0.06,1.46-0.33,1.98-0.56c9.46-4.22,19.84-0.93,24.89,7.87
			c4.79,8.35,9.61,16.68,14.42,25.02c0.76,1.31,0.7,1.6-0.61,2.37c-3.14,1.83-6.29,3.63-9.43,5.45c-0.32,0.18-0.8,0.25-0.64,0.83
			c11.47,0,22.93-0.01,34.39,0.02c0.77,0,1.02-0.47,1.33-0.99c5.63-9.78,11.26-19.55,16.91-29.36c-0.49-0.13-0.8-0.08-1.18,0.15
			c-2.95,1.75-5.92,3.46-8.89,5.17c-1.56,0.89-1.77,0.82-2.69-0.76c-2.54-4.39-4.96-8.85-7.65-13.15c-3.26-5.21-8.1-7.96-14.27-8
			c-12.02-0.07-24.05-0.01-36.07-0.03c-1.7,0-3.33,0.21-4.94,0.73C104.31,56.66,102.02,58.54,99.75,60.95z M106.47,156.17
			c-6.47,0-12.94,0.01-19.42-0.01c-0.63,0-1.11,0.03-1.48,0.7c-1.35,2.45-2.83,4.83-4.16,7.29c-2.48,4.59-2.78,9.35-0.92,14.23
			c2.2,5.78,6.91,8.78,12.29,11c0.99,0.41,2.03,0.66,3.14,0.65c10.03,0,20.05,0,30.08,0.05c1.08,0.01,1.23-0.41,1.23-1.33
			c-0.02-10.48-0.03-20.95,0.01-31.43c0-1-0.33-1.18-1.24-1.17C119.49,156.18,112.98,156.17,106.47,156.17z M128.97,76.76
			c-0.12-0.25-0.22-0.47-0.33-0.68c-1.43-2.49-2.84-5-4.31-7.47c-3.33-5.61-10.38-8.8-16.82-7.76c-4.34,0.7-7.84,3-11.19,5.64
			c-0.66,0.52-1.15,1.21-1.57,1.95c-4.93,8.54-9.87,17.08-14.8,25.62c-0.84,1.45-0.82,1.46,0.64,2.3
			c9.02,5.21,18.04,10.4,27.04,15.64c0.8,0.47,1.01,0.11,1.35-0.48c6.54-11.35,13.09-22.69,19.64-34.03
			C128.75,77.26,128.85,77,128.97,76.76z M181.2,154.01c1.12,0,2.24,0.02,3.35,0c6.08-0.11,10.81-2.73,14.18-7.76
			c3.08-4.59,3.05-9.7,2.35-14.9c-0.13-0.95-0.39-1.87-0.88-2.71c-5.06-8.74-10.11-17.49-15.14-26.25c-0.47-0.82-0.8-0.94-1.65-0.44
			c-4.33,2.56-8.7,5.03-13.05,7.55c-4.73,2.73-9.45,5.49-14.2,8.2c-0.79,0.45-0.96,0.82-0.44,1.66c1.34,2.17,2.57,4.42,3.84,6.63
			c5.23,9.06,10.46,18.12,15.67,27.19c0.37,0.64,0.78,0.89,1.52,0.86C178.24,153.97,179.72,154.01,181.2,154.01z M116.29,125.51
			c-0.8,7.79,6.88,13.42,12.69,13.54c7.96,0.16,14.06-6.25,14.06-13.38c0-7.35-5.87-13.42-13.54-13.57
			C122.62,111.95,115.52,118.33,116.29,125.51z"/>
		<path fill="#043B73" d="M153.46,142.59c0.32,0.52,0.19,0.97,0.2,1.39c0.01,3.48,0,6.96,0.01,10.43c0,1.41,0.36,1.76,1.78,1.76
			c9.78,0,19.57,0.02,29.35-0.01c8.93-0.03,16.86-6.76,18.45-15.52c0.26-1.45,0.2-2.91,0.37-4.68c0.97,1.58,1.15,3.07,1.37,4.52
			c0.51,3.45-0.22,6.67-1.95,9.67c-6.07,10.51-12.06,21.07-18.23,31.52c-3.28,5.55-8.36,8.3-14.82,8.36
			c-4.79,0.05-9.58,0.01-14.38,0.01c-1.74,0-1.94,0.2-1.95,1.91c0,3.44,0.01,6.88-0.01,10.31c0,0.38,0.14,0.79-0.13,1.14
			c-0.42,0.08-0.45-0.28-0.57-0.49c-5.56-9.65-11.11-19.31-16.69-28.95c-0.36-0.62-0.43-1.07-0.05-1.73
			c5.66-9.78,11.28-19.58,16.92-29.38C153.19,142.77,153.31,142.72,153.46,142.59z M149.81,157.7c-0.51,0.78-0.94,1.4-1.33,2.05
			c-1.89,3.14-3.49,6.45-5.46,9.55c-0.68,1.06-1.53,2.05-1.86,3.33c-0.09,0.36-0.25,0.71,0.02,1.01c0.53,0.61,0.7,1.4,1.12,2.06
			c1.28,2.01,2.55,4.05,3.67,6.13c1.1,2.04,2.42,3.98,3.35,6.12c0.27,0.61,0.58,0.7,1.06,0.07c0.89-1.17,2.03-2.07,3.55-2.21
			c1.11-0.1,2.23-0.03,3.35-0.06c4.98-0.12,9.97,0.31,14.94-0.24c2.62-0.29,4.9-1.54,6.68-3.38c1.09-1.13,2.04-2.49,2.87-3.92
			c0.65-1.13,0.93-2.47,1.78-3.44c1.31-1.49,2.16-3.26,3.07-4.95c1.42-2.65,2.96-5.23,4.53-7.79c0.56-0.93,1.32-1.81,1.67-3.17
			c-4.29,1.8-8.55,1.73-12.81,1.72c-7.94-0.02-15.89-0.01-23.83-0.01C153.7,160.55,151.35,160.18,149.81,157.7z"/>
		<path fill="#043B73" d="M107.16,142.86c-2.67-1.54-5.11-2.95-7.55-4.37c-1.04-0.6-2.08-1.19-3.1-1.81
			c-0.9-0.54-1.55-0.37-2.08,0.55c-4.96,8.62-10.04,17.16-14.86,25.86c-5.06,9.13-1.85,20.31,7.13,25.61
			c0.23,0.13,0.56,0.15,0.66,0.56c-0.86,0.4-1.62-0.16-2.35-0.36c-4.08-1.1-7.19-3.52-9.31-7.2c-5.99-10.37-12.01-20.73-17.97-31.12
			c-3.34-5.83-3.28-11.71,0.05-17.54c2.37-4.16,4.79-8.3,7.19-12.45c0.81-1.4,0.76-1.66-0.61-2.45c-3.14-1.82-6.29-3.63-9.44-5.44
			c-0.27-0.15-0.7-0.22-0.61-0.62c0.08-0.36,0.47-0.17,0.73-0.17c11.02,0,22.04,0.02,33.07-0.02c1.02,0,1.58,0.31,2.08,1.18
			c5.59,9.73,11.21,19.44,16.82,29.15C107.06,142.32,107.06,142.45,107.16,142.86z M73.23,168.64c0.56-2.94,0.97-5.64,2.43-7.84
			c1.3-1.95,2.31-4.05,3.56-6.02c1.73-2.73,3.15-5.67,4.86-8.42c1.95-3.13,3.48-6.49,5.44-9.6c1.18-1.87,2.15-4.03,4.86-4.34
			c1.66-0.19,1.64-0.36,0.72-1.8c-0.09-0.13-0.23-0.25-0.27-0.4c-0.59-2.27-2.33-3.9-3.31-5.98c-1.15-2.45-2.69-4.74-4.02-7.12
			c-0.33-0.59-0.75-0.97-1.51-0.97c-5.43,0.02-10.86,0.02-16.3,0c-0.79,0-0.83,0.15-0.49,0.88c0.63,1.36,0.81,2.81,0.28,4.3
			c-0.69,1.93-2.02,3.5-2.87,5.33c-0.58,1.26-1.41,2.4-2.16,3.54c-0.89,1.35-1.36,2.89-2.35,4.21c-1.52,2.01-2.49,4.29-2.42,6.97
			c0.05,2.28,0.41,4.33,1.61,6.35c1.57,2.65,3.01,5.38,4.54,8.06c0.86,1.52,1.88,2.96,2.67,4.49c0.98,1.9,2.14,3.68,3.17,5.55
			C72.12,166.68,72.57,167.55,73.23,168.64z"/>
		<path fill="#043B73" d="M99.75,60.95c2.26-2.41,4.56-4.29,7.52-5.25c1.62-0.52,3.25-0.74,4.94-0.73
			c12.02,0.02,24.05-0.04,36.07,0.03c6.17,0.04,11.01,2.79,14.27,8c2.69,4.3,5.11,8.76,7.65,13.15c0.91,1.58,1.13,1.65,2.69,0.76
			c2.97-1.71,5.94-3.42,8.89-5.17c0.38-0.23,0.69-0.28,1.18-0.15c-5.65,9.8-11.28,19.58-16.91,29.36c-0.3,0.52-0.55,0.99-1.33,0.99
			c-11.46-0.02-22.92-0.02-34.39-0.02c-0.16-0.59,0.33-0.65,0.64-0.83c3.14-1.82,6.3-3.62,9.43-5.45c1.32-0.77,1.37-1.06,0.61-2.37
			c-4.81-8.34-9.63-16.67-14.42-25.02c-5.05-8.8-15.43-12.09-24.89-7.87C101.21,60.62,100.73,61.01,99.75,60.95z M138,59.3
			c-3.87,0-7.75,0-11.62,0.01c-0.29,0-0.71-0.16-0.85,0.22c-0.11,0.3,0.28,0.44,0.4,0.68c0.44,0.9,1.45,1.27,1.98,2.03
			c1.35,1.96,2.77,3.91,3.82,6.03c1.52,3.06,3.54,5.81,5.06,8.87c1.61,3.25,3.73,6.24,5.45,9.45c0.56,1.06,1.15,2.15,1.83,3.18
			c1.42,2.17,2.42,4.53,1.23,7.18c-0.33,0.73,0.11,0.71,0.59,0.71c5.47,0,10.94,0,16.41,0c0.41,0,0.82-0.02,0.95-0.53
			c0.58-2.27,2.28-3.94,3.33-5.97c1.1-2.13,2.07-4.44,3.74-6.31c0.43-0.48,0.84-1.14,1.12-1.8c0.3-0.7,0.43-1.12-0.61-1.28
			c-2.08-0.32-3.32-1.66-4.35-3.5c-1.15-2.04-2.34-4.06-3.55-6.07c-1-1.66-2.27-3.22-3.04-4.94c-0.87-1.96-2.05-3.53-3.53-4.96
			c-2.04-1.99-4.59-2.88-7.34-2.99C145.35,59.19,141.67,59.3,138,59.3z"/>
		<path fill="#043B73" d="M106.47,156.17c6.51,0,13.02,0.02,19.53-0.02c0.91-0.01,1.24,0.17,1.24,1.17
			c-0.04,10.48-0.03,20.95-0.01,31.43c0,0.92-0.15,1.34-1.23,1.33c-10.03-0.05-20.05-0.05-30.08-0.05c-1.1,0-2.14-0.24-3.14-0.65
			c-5.38-2.22-10.09-5.22-12.29-11c-1.85-4.88-1.56-9.64,0.92-14.23c1.33-2.46,2.81-4.84,4.16-7.29c0.37-0.67,0.85-0.7,1.48-0.7
			C93.53,156.17,100,156.17,106.47,156.17z M105.5,160.55c-5.35,0-10.7-0.01-16.05,0.01c-0.43,0-1.01-0.24-1.21,0.44
			c-0.61,2.02-2.19,3.49-3.09,5.36c-0.92,1.89-1.68,3.85-1.63,5.92c0.09,3.28,1.45,6.12,3.72,8.55c1.26,1.35,2.9,2.07,4.34,3.11
			c1.45,1.06,3.08,1.78,4.86,1.79c8.35,0.05,16.69,0.02,25.04,0.03c0.96,0,1.32-0.36,1.32-1.36c-0.03-7.55-0.04-15.11,0-22.66
			c0.01-0.99-0.32-1.2-1.24-1.19C116.2,160.57,110.85,160.55,105.5,160.55z"/>
		<path fill="#043B73" d="M128.97,76.76c-0.12,0.24-0.22,0.5-0.36,0.73c-6.55,11.34-13.1,22.68-19.64,34.03
			c-0.34,0.59-0.55,0.94-1.35,0.48c-9-5.24-18.02-10.44-27.04-15.64c-1.45-0.84-1.47-0.85-0.64-2.3c4.93-8.54,9.87-17.08,14.8-25.62
			c0.42-0.73,0.91-1.43,1.57-1.95c3.34-2.63,6.84-4.94,11.19-5.64c6.44-1.04,13.49,2.15,16.82,7.76c1.47,2.47,2.88,4.98,4.31,7.47
			C128.76,76.29,128.85,76.51,128.97,76.76z M110.41,65.01c-1.12,0.12-1.95-0.02-2.79,0.17c-2.12,0.49-4.04,1.47-5.83,2.64
			c-1.69,1.11-3.18,2.49-4.18,4.35c-1.53,2.87-3.08,5.73-4.8,8.49c-0.58,0.94-0.68,2.08-1.39,2.88c-2.2,2.47-3.25,5.62-5.05,8.32
			c-0.3,0.46-0.48,1-0.75,1.48c-0.21,0.37-0.14,0.57,0.17,0.9c0.6,0.62,1.49,0.6,2.08,1.09c2.57,2.11,5.68,3.29,8.48,5
			c2.97,1.82,6.04,3.45,9.03,5.23c1.5,0.89,1.49,0.96,2.38-0.64c0.73-1.32,1.31-2.73,2.15-3.97c1.51-2.24,2.66-4.68,4.15-6.93
			c0.67-1.01,0.93-2.26,1.65-3.17c1.67-2.1,2.39-4.7,3.94-6.87c1.28-1.79,2.25-3.82,3.37-5.72c0.66-1.13,0.6-1.91,0.11-2.94
			c-0.57-1.2-1.54-2.13-2.15-3.3C118.7,67.58,115.22,65.06,110.41,65.01z"/>
		<path fill="#043B73" d="M181.2,154.01c-1.48,0-2.96-0.04-4.43,0.02c-0.74,0.03-1.15-0.22-1.52-0.86
			c-5.21-9.07-10.45-18.13-15.67-27.19c-1.28-2.21-2.5-4.46-3.84-6.63c-0.52-0.84-0.36-1.21,0.44-1.66c4.75-2.71,9.47-5.46,14.2-8.2
			c4.35-2.51,8.73-4.99,13.05-7.55c0.84-0.5,1.18-0.37,1.65,0.44c5.02,8.76,10.08,17.51,15.14,26.25c0.49,0.85,0.75,1.77,0.88,2.71
			c0.7,5.2,0.73,10.31-2.35,14.9c-3.38,5.03-8.11,7.65-14.18,7.76C183.44,154.03,182.32,154.01,181.2,154.01z M182.18,149.76
			c1.46,0.12,3.25-0.01,5-0.36c3.75-0.75,6.25-3.21,8.29-6.27c1.12-1.67,1.6-3.58,1.74-5.52c0.19-2.86,0.21-5.77-1.59-8.25
			c-1.15-1.58-2.12-3.28-3.01-4.99c-1.59-3.06-3.62-5.86-5.11-8.98c-0.86-1.81-2.11-3.43-3.06-5.21c-0.39-0.74-0.81-1.45-1.29-2.13
			c-0.33-0.47-0.53-0.48-1.03-0.18c-1.28,0.78-2.62,1.48-3.94,2.18c-1.96,1.04-3.83,2.22-5.72,3.35c-1.24,0.74-2.52,1.49-3.77,2.15
			c-2.46,1.31-4.77,2.86-7.22,4.19c-0.41,0.22-0.24,0.39-0.09,0.65c0.55,0.92,0.99,1.92,1.63,2.77c1.77,2.35,2.9,5.07,4.42,7.57
			c1.59,2.62,3.21,5.26,4.57,8.04c1.32,2.69,3.11,5.13,4.48,7.82C178.12,149.8,178.21,149.76,182.18,149.76z"/>
		<path fill="#043B73" d="M116.29,125.51c-0.77-7.18,6.33-13.56,13.21-13.42c7.67,0.16,13.54,6.22,13.54,13.57
			c0,7.13-6.1,13.54-14.06,13.38C123.17,138.93,115.5,133.29,116.29,125.51z M129.46,134.88c5.03,0.44,9.42-4.51,9.4-9.24
			c-0.01-5.26-4.39-9.46-9.43-9.44c-5.02,0.02-9.31,4.39-9.34,9.29C120.05,130.28,124.32,135.29,129.46,134.88z"/>
		<path fill="#004C97" d="M149.81,157.7c1.54,2.48,3.89,2.86,6.39,2.86c7.94,0,15.89-0.02,23.83,0.01
			c4.26,0.01,8.52,0.08,12.81-1.72c-0.36,1.36-1.11,2.25-1.67,3.17c-1.57,2.57-3.1,5.14-4.53,7.79c-0.91,1.69-1.77,3.46-3.07,4.95
			c-0.85,0.97-1.13,2.31-1.78,3.44c-0.83,1.43-1.78,2.78-2.87,3.92c-1.78,1.84-4.06,3.09-6.68,3.38c-4.97,0.56-9.96,0.12-14.94,0.24
			c-1.12,0.03-2.24-0.04-3.35,0.06c-1.52,0.14-2.66,1.04-3.55,2.21c-0.48,0.63-0.79,0.54-1.06-0.07c-0.93-2.14-2.25-4.08-3.35-6.12
			c-1.12-2.08-2.39-4.12-3.67-6.13c-0.42-0.66-0.59-1.45-1.12-2.06c-0.27-0.31-0.11-0.65-0.02-1.01c0.33-1.28,1.18-2.26,1.86-3.33
			c1.98-3.1,3.57-6.41,5.46-9.55C148.87,159.1,149.3,158.48,149.81,157.7z"/>
		<path fill="#004C97" d="M73.23,168.64c-0.65-1.09-1.1-1.96-1.56-2.81c-1.02-1.87-2.18-3.65-3.17-5.55
			c-0.79-1.53-1.81-2.97-2.67-4.49c-1.53-2.68-2.97-5.41-4.54-8.06c-1.2-2.02-1.56-4.07-1.61-6.35c-0.06-2.68,0.91-4.96,2.42-6.97
			c0.99-1.32,1.46-2.86,2.35-4.21c0.75-1.14,1.58-2.27,2.16-3.54c0.85-1.84,2.18-3.41,2.87-5.33c0.53-1.49,0.36-2.93-0.28-4.3
			c-0.34-0.72-0.3-0.88,0.49-0.88c5.43,0.01,10.86,0.02,16.3,0c0.75,0,1.17,0.37,1.51,0.97c1.33,2.38,2.87,4.67,4.02,7.12
			c0.98,2.08,2.72,3.71,3.31,5.98c0.04,0.14,0.18,0.26,0.27,0.4c0.92,1.45,0.94,1.61-0.72,1.8c-2.71,0.32-3.68,2.47-4.86,4.34
			c-1.96,3.11-3.48,6.47-5.44,9.6c-1.72,2.75-3.13,5.68-4.86,8.42c-1.25,1.97-2.27,4.06-3.56,6.02
			C74.2,163,73.79,165.71,73.23,168.64z"/>
		<path fill="#004C97" d="M138,59.3c3.67,0,7.35-0.11,11.02,0.04c2.75,0.11,5.3,1,7.34,2.99c1.47,1.44,2.65,3.01,3.53,4.96
			c0.77,1.72,2.04,3.28,3.04,4.94c1.21,2.01,2.41,4.03,3.55,6.07c1.03,1.83,2.27,3.17,4.35,3.5c1.04,0.16,0.91,0.58,0.61,1.28
			c-0.28,0.67-0.69,1.32-1.12,1.8c-1.67,1.87-2.64,4.17-3.74,6.31c-1.05,2.03-2.75,3.7-3.33,5.97c-0.13,0.5-0.53,0.53-0.95,0.53
			c-5.47,0-10.94,0-16.41,0c-0.48,0-0.92,0.02-0.59-0.71c1.19-2.66,0.19-5.02-1.23-7.18c-0.67-1.03-1.26-2.12-1.83-3.18
			c-1.71-3.22-3.84-6.2-5.45-9.45c-1.52-3.06-3.54-5.81-5.06-8.87c-1.05-2.12-2.47-4.07-3.82-6.03c-0.53-0.77-1.54-1.13-1.98-2.03
			c-0.12-0.24-0.51-0.39-0.4-0.68c0.14-0.39,0.55-0.22,0.85-0.22C130.25,59.3,134.12,59.3,138,59.3z"/>
		<path fill="#004C97" d="M105.5,160.55c5.35,0,10.7,0.02,16.05-0.02c0.91-0.01,1.24,0.21,1.24,1.19c-0.04,7.55-0.04,15.11,0,22.66
			c0,1-0.36,1.36-1.32,1.36c-8.35-0.01-16.69,0.02-25.04-0.03c-1.78-0.01-3.4-0.73-4.86-1.79c-1.44-1.05-3.08-1.77-4.34-3.11
			c-2.27-2.43-3.63-5.26-3.72-8.55c-0.06-2.06,0.71-4.02,1.63-5.92c0.91-1.87,2.48-3.33,3.09-5.36c0.21-0.68,0.78-0.43,1.21-0.44
			C94.8,160.55,100.15,160.55,105.5,160.55z"/>
		<path fill="#004C97" d="M110.41,65.01c4.81,0.05,8.3,2.58,10.57,7c0.6,1.17,1.57,2.1,2.15,3.3c0.49,1.03,0.55,1.81-0.11,2.94
			c-1.12,1.9-2.09,3.93-3.37,5.72c-1.55,2.17-2.27,4.77-3.94,6.87c-0.72,0.9-0.98,2.16-1.65,3.17c-1.49,2.24-2.64,4.69-4.15,6.93
			c-0.84,1.24-1.42,2.66-2.15,3.97c-0.89,1.6-0.88,1.53-2.38,0.64c-2.99-1.78-6.06-3.41-9.03-5.23c-2.8-1.71-5.91-2.9-8.48-5
			c-0.59-0.48-1.48-0.47-2.08-1.09c-0.32-0.33-0.38-0.52-0.17-0.9c0.27-0.48,0.44-1.03,0.75-1.48c1.8-2.7,2.85-5.85,5.05-8.32
			c0.71-0.8,0.81-1.94,1.39-2.88c1.72-2.75,3.27-5.62,4.8-8.49c0.99-1.86,2.49-3.25,4.18-4.35c1.78-1.17,3.7-2.15,5.83-2.64
			C108.46,64.98,109.29,65.13,110.41,65.01z"/>
		<path fill="#004C97" d="M182.18,149.76c-3.97,0-4.06,0.05-5.69-3.15c-1.37-2.69-3.16-5.13-4.48-7.82
			c-1.36-2.78-2.98-5.42-4.57-8.04c-1.52-2.5-2.64-5.22-4.42-7.57c-0.64-0.85-1.08-1.85-1.63-2.77c-0.15-0.26-0.32-0.43,0.09-0.65
			c2.45-1.32,4.75-2.88,7.22-4.19c1.25-0.66,2.53-1.41,3.77-2.15c1.89-1.13,3.76-2.31,5.72-3.35c1.32-0.7,2.66-1.4,3.94-2.18
			c0.5-0.3,0.7-0.29,1.03,0.18c0.48,0.68,0.9,1.38,1.29,2.13c0.94,1.78,2.19,3.4,3.06,5.21c1.49,3.12,3.53,5.91,5.11,8.98
			c0.89,1.71,1.86,3.41,3.01,4.99c1.79,2.47,1.78,5.39,1.59,8.25c-0.13,1.94-0.62,3.84-1.74,5.52c-2.04,3.05-4.55,5.52-8.29,6.27
			C185.43,149.75,183.64,149.88,182.18,149.76z"/>
		<path fill="#004C97" d="M129.46,134.88c-5.13,0.41-9.4-4.6-9.37-9.39c0.03-4.91,4.32-9.28,9.34-9.29
			c5.04-0.02,9.42,4.19,9.43,9.44C138.87,130.37,134.49,135.32,129.46,134.88z"/>
	</g>
</g>
</svg>
