<?xml version="1.0" encoding="utf-8"?>
<!-- Generator: Adobe Illustrator 27.8.0, SVG Export Plug-In . SVG Version: 6.00 Build 0)  -->
<svg version="1.1" id="Capa_1" xmlns="http://www.w3.org/2000/svg" xmlns:xlink="http://www.w3.org/1999/xlink" x="0px" y="0px"
	 viewBox="0 0 259.2 259.2" enable-background="new 0 0 259.2 259.2" xml:space="preserve">
<g>
	<g>
		<path fill="#FEFEFE" d="M129.6,259.18c-42.83,0-85.65,0-128.48,0.02c-0.87,0-1.12-0.15-1.12-1.08C0.03,172.46,0.03,86.8,0,1.15
			C0,0.15,0.24,0,1.18,0C86.79,0.03,172.4,0.03,258.02,0c0.94,0,1.18,0.14,1.18,1.15c-0.03,85.61-0.03,171.23,0,256.84
			c0,1.05-0.27,1.21-1.24,1.21C215.17,259.17,172.39,259.18,129.6,259.18z M107.07,161.28c-0.43-0.62-0.74-1.08-1.05-1.54
			c-6.96-10.34-13.92-20.68-20.89-31c-0.87-1.29-1.67-2.65-2.89-3.65c-4.33-3.54-9.1-4.87-14.71-3.52
			c-6.7,1.61-11.41,7.63-11.61,14.63c-0.1,3.46,0.77,6.72,2.82,9.6c1.07,1.49,2.07,3.04,3.09,4.56c6.38,9.47,12.8,18.92,19.13,28.43
			c4.19,6.28,8.56,12.43,12.55,18.85c0.8,1.28,1.64,2.56,2.84,3.54c4.43,3.6,9.3,4.97,14.95,3.39c3.51-0.98,6.36-2.76,8.39-5.75
			c5.14-7.56,10.22-15.17,15.33-22.75c12.36-18.36,24.71-36.71,37.07-55.07c9.64-14.31,19.27-28.62,28.92-42.93
			c1.89-2.8,2.5-6.01,2.69-9.24c0.09-1.54-0.71-3.13-1.11-4.7c-0.26-1.02-0.72-1.94-1.28-2.82c-2.4-3.8-5.73-6.1-10.17-7.16
			c-5.3-1.26-12.68,1.08-15.97,6.03c-5.87,8.81-11.84,17.55-17.75,26.33c-14.19,21.07-28.38,42.14-42.56,63.21
			C112.31,153.52,109.74,157.33,107.07,161.28z"/>
		<path fill="#016B34" d="M107.07,161.28c2.67-3.95,5.23-7.76,7.8-11.56c14.19-21.07,28.37-42.15,42.56-63.21
			c5.91-8.78,11.88-17.52,17.75-26.33c3.3-4.95,10.67-7.29,15.97-6.03c4.43,1.05,7.76,3.36,10.17,7.16
			c0.56,0.88,1.02,1.81,1.28,2.82c0.4,1.57,1.2,3.16,1.11,4.7c-0.19,3.23-0.8,6.44-2.69,9.24c-9.65,14.3-19.29,28.62-28.92,42.93
			c-12.36,18.35-24.72,36.71-37.07,55.07c-5.11,7.59-10.19,15.19-15.33,22.75c-2.03,2.99-4.88,4.77-8.39,5.75
			c-5.65,1.58-10.53,0.21-14.95-3.39c-1.2-0.98-2.04-2.26-2.84-3.54c-3.99-6.41-8.36-12.57-12.55-18.85
			c-6.34-9.51-12.75-18.96-19.13-28.43c-1.03-1.52-2.03-3.07-3.09-4.56c-2.05-2.88-2.93-6.14-2.82-9.6
			c0.21-7,4.91-13.02,11.61-14.63c5.62-1.35,10.38-0.02,14.71,3.52c1.22,1,2.02,2.36,2.89,3.65c6.97,10.33,13.93,20.67,20.89,31
			C106.33,160.2,106.65,160.66,107.07,161.28z M107.11,174.52c-0.95-1.37-1.82-2.59-2.65-3.84c-5.12-7.6-10.24-15.2-15.35-22.81
			c-3.54-5.26-7.07-10.52-10.63-15.77c-1.03-1.51-2.37-2.69-4.15-3.28c-1.74-0.58-3.42-0.64-5.22,0.01
			c-1.49,0.55-2.87,1.14-3.87,2.41c-1.21,1.54-1.82,3.19-1.76,5.26c0.06,1.94,0.35,3.66,1.46,5.27c3.01,4.36,5.96,8.76,8.92,13.15
			c5.74,8.53,11.5,17.04,17.19,25.61c2.98,4.48,6.15,8.83,8.92,13.45c3.01,5.02,10.44,5.02,13.62,0.58c1.65-2.3,3.19-4.67,4.77-7.01
			c4.83-7.17,9.65-14.35,14.48-21.52c7.23-10.74,14.48-21.48,21.71-32.22c4.83-7.17,9.66-14.35,14.48-21.53
			c4.49-6.68,8.96-13.37,13.46-20.05c4.14-6.15,8.31-12.28,12.42-18.44c2.58-3.86,0.97-10.18-3.8-11.85
			c-4.46-1.56-7.82-0.55-10.5,3.41c-2.95,4.36-5.89,8.71-8.83,13.07c-4.53,6.71-9.06,13.41-13.58,20.12
			c-4.92,7.3-9.83,14.61-14.74,21.92c-4.55,6.78-9.08,13.58-13.65,20.35c-5.34,7.93-10.71,15.84-16.06,23.77
			C111.57,167.86,109.39,171.13,107.11,174.52z"/>
		<path fill="#019045" d="M107.11,174.52c2.28-3.39,4.47-6.67,6.67-9.93c5.35-7.93,10.72-15.84,16.06-23.77
			c4.56-6.77,9.09-13.57,13.65-20.35c4.91-7.31,9.82-14.62,14.74-21.92c4.52-6.71,9.05-13.41,13.58-20.12
			c2.94-4.36,5.88-8.72,8.83-13.07c2.68-3.96,6.04-4.98,10.5-3.41c4.77,1.67,6.38,7.99,3.8,11.85c-4.12,6.16-8.29,12.29-12.42,18.44
			c-4.49,6.68-8.97,13.37-13.46,20.05c-4.82,7.18-9.65,14.36-14.48,21.53c-7.23,10.74-14.48,21.48-21.71,32.22
			c-4.83,7.17-9.65,14.35-14.48,21.52c-1.58,2.35-3.13,4.71-4.77,7.01c-3.18,4.44-10.61,4.43-13.62-0.58
			c-2.77-4.62-5.95-8.97-8.92-13.45c-5.69-8.56-11.45-17.08-17.19-25.61c-2.96-4.39-5.91-8.79-8.92-13.15
			c-1.12-1.62-1.4-3.33-1.46-5.27c-0.07-2.06,0.55-3.72,1.76-5.26c1-1.27,2.37-1.86,3.87-2.41c1.79-0.66,3.47-0.59,5.22-0.01
			c1.78,0.59,3.12,1.77,4.15,3.28c3.56,5.24,7.09,10.51,10.63,15.77c5.12,7.6,10.23,15.21,15.35,22.81
			C105.29,171.93,106.16,173.15,107.11,174.52z"/>
	</g>
</g>
</svg>
