<?xml version="1.0" encoding="utf-8"?>
<!-- Generator: Adobe Illustrator 27.8.0, SVG Export Plug-In . SVG Version: 6.00 Build 0)  -->
<svg version="1.1" id="Capa_1" xmlns="http://www.w3.org/2000/svg" xmlns:xlink="http://www.w3.org/1999/xlink" x="0px" y="0px"
	 viewBox="0 0 259.2 259.2" enable-background="new 0 0 259.2 259.2" xml:space="preserve">
<g>
	<g>
		<path fill="#FEFEFE" d="M129.61,259.18c-42.79,0-85.57,0-128.36,0.02C0.3,259.2,0,259.08,0,258C0.03,172.39,0.03,86.77,0,1.16
			C0,0.17,0.22,0,1.18,0C86.79,0.03,172.4,0.03,258.01,0c0.92,0,1.19,0.12,1.19,1.14c-0.03,85.65-0.03,171.31-0.01,256.96
			c0,0.92-0.23,1.09-1.11,1.09C215.26,259.18,172.43,259.18,129.61,259.18z M129.79,204.21c12.94,0,25.89,0,38.83,0
			c1.48,0,2.96-0.07,4.41-0.33c9.41-1.68,16.32-9.99,16.33-19.7c0.02-21.43,0.01-42.87,0.01-64.3c0-1.44-0.15-2.87-0.43-4.28
			c-1.57-8.03-8.57-14.58-16.68-15.54c-3.86-0.46-7.74-0.14-11.61-0.18c-0.9-0.01-1.13-0.24-1.12-1.14
			c0.05-4.32,0.04-8.64,0.02-12.96c-0.01-2.28-0.08-4.54-0.54-6.79c-3.16-15.39-17.69-25.75-33.23-23.65
			c-14.71,1.99-25.71,14.52-25.77,29.36c-0.02,4.64-0.03,9.28,0.02,13.92c0.01,0.96-0.18,1.26-1.21,1.27
			c-3.91,0.02-7.83-0.27-11.73,0.19c-9.05,1.06-16.78,9.42-16.82,18.55c-0.1,21.99-0.04,43.99-0.06,65.98
			c0,2.89,0.54,5.66,1.87,8.21c3.8,7.28,9.77,11.3,18.05,11.36C103.34,204.28,116.56,204.2,129.79,204.21z"/>
		<path fill="#7F015C" d="M129.79,204.2c-13.22,0-26.45,0.07-39.67-0.03c-8.28-0.06-14.25-4.08-18.05-11.36
			c-1.33-2.55-1.88-5.32-1.87-8.21c0.02-21.99-0.04-43.99,0.06-65.98c0.04-9.13,7.77-17.48,16.82-18.55
			c3.9-0.46,7.82-0.17,11.73-0.19c1.03-0.01,1.23-0.3,1.21-1.27c-0.05-4.64-0.04-9.28-0.02-13.92
			c0.06-14.83,11.06-27.36,25.77-29.36c15.54-2.11,30.07,8.25,33.23,23.65c0.46,2.25,0.53,4.52,0.54,6.79
			c0.02,4.32,0.03,8.64-0.02,12.96c-0.01,0.9,0.21,1.13,1.12,1.14c3.87,0.04,7.75-0.28,11.61,0.18c8.11,0.96,15.11,7.51,16.68,15.54
			c0.28,1.42,0.43,2.84,0.43,4.28c0,21.43,0.01,42.87-0.01,64.3c-0.01,9.71-6.93,18.02-16.33,19.7c-1.46,0.26-2.93,0.33-4.41,0.33
			C155.67,204.2,142.73,204.21,129.79,204.2z M129.73,109.68c-12.94,0-25.88,0.02-38.83-0.02c-2-0.01-3.93,0.21-5.64,1.23
			c-2.96,1.76-5.13,4.22-5.14,7.82c-0.06,22.15-0.03,44.3-0.03,66.45c0,0.43,0.04,0.88,0.12,1.3c0.88,4.39,4.95,7.91,9.95,7.91
			c26.44,0.01,52.89,0.01,79.33,0c5.57,0,10.08-4.54,10.08-10.14c0.01-21.47,0.01-42.94,0-64.41c0-5.73-4.45-10.15-10.18-10.15
			C156.18,109.68,142.96,109.68,129.73,109.68z M129.73,99.8c5.39,0,10.78-0.03,16.17,0.02c0.97,0.01,1.18-0.29,1.17-1.21
			c-0.05-3.84-0.01-7.67-0.03-11.51c-0.01-1.79,0.06-3.58-0.27-5.37c-1.58-8.76-9.57-14.87-18.55-14.13
			c-8.72,0.72-15.71,8.2-15.78,16.95c-0.04,4.72,0.02,9.43-0.03,14.15c-0.01,0.92,0.27,1.13,1.14,1.12
			C118.95,99.78,124.34,99.8,129.73,99.8z"/>
		<path fill="#B9007C" d="M129.73,109.68c13.22,0,26.44,0,39.66,0c5.73,0,10.17,4.42,10.18,10.15c0.01,21.47,0.01,42.94,0,64.41
			c0,5.6-4.51,10.14-10.08,10.14c-26.44,0.01-52.89,0.01-79.33,0c-5,0-9.07-3.52-9.95-7.91c-0.09-0.43-0.12-0.87-0.12-1.3
			c-0.01-22.15-0.04-44.3,0.03-66.45c0.01-3.6,2.19-6.06,5.14-7.82c1.72-1.02,3.65-1.24,5.64-1.23
			C103.85,109.7,116.79,109.68,129.73,109.68z M122.29,161.8c0.18,2.64-0.25,5.92,0.22,9.18c0.51,3.59,4.76,6.59,8.32,5.81
			c4.07-0.9,6.31-3.72,6.32-7.95c0-4.76,0.08-9.52-0.04-14.27c-0.05-1.78,0.46-3.01,1.73-4.28c2.93-2.93,3.63-6.66,2.96-10.63
			c-0.93-5.55-6.52-10.21-12.49-9.87c-4.16,0.24-7.28,2.03-9.73,5.24c-1.87,2.45-2.27,5.28-2.09,8.27c0.2,3.3,1.71,5.92,4.07,8.09
			c0.49,0.45,0.75,0.84,0.75,1.5C122.28,155.66,122.29,158.41,122.29,161.8z"/>
		<path fill="#FEFEFE" d="M129.73,99.8c-5.39,0-10.78-0.02-16.17,0.02c-0.88,0.01-1.15-0.2-1.14-1.12
			c0.05-4.71-0.01-9.43,0.03-14.15c0.07-8.75,7.05-16.23,15.78-16.95c8.98-0.74,16.97,5.38,18.55,14.13
			c0.32,1.79,0.26,3.58,0.27,5.37c0.02,3.84-0.02,7.67,0.03,11.51c0.01,0.92-0.2,1.21-1.17,1.21
			C140.51,99.78,135.12,99.8,129.73,99.8z"/>
		<path fill="#7F015C" d="M122.29,161.8c0-3.39-0.01-6.15,0.01-8.9c0.01-0.66-0.25-1.05-0.75-1.5c-2.37-2.17-3.88-4.79-4.07-8.09
			c-0.18-2.99,0.22-5.82,2.09-8.27c2.45-3.21,5.57-5,9.73-5.24c5.97-0.34,11.56,4.31,12.49,9.87c0.67,3.97-0.03,7.7-2.96,10.63
			c-1.26,1.27-1.77,2.5-1.73,4.28c0.12,4.75,0.04,9.52,0.04,14.27c0,4.22-2.25,7.05-6.32,7.95c-3.56,0.79-7.81-2.22-8.32-5.81
			C122.05,167.72,122.47,164.44,122.29,161.8z"/>
	</g>
</g>
</svg>
