<?xml version="1.0" encoding="utf-8"?>
<!-- Generator: Adobe Illustrator 27.8.0, SVG Export Plug-In . SVG Version: 6.00 Build 0)  -->
<svg version="1.1" id="Capa_1" xmlns="http://www.w3.org/2000/svg" xmlns:xlink="http://www.w3.org/1999/xlink" x="0px" y="0px"
	 viewBox="0 0 259.2 259.2" enable-background="new 0 0 259.2 259.2" xml:space="preserve">
<g>
	<g>
		<path fill="#FEFEFE" d="M129.62,259.17c-42.83,0-85.66-0.01-128.48,0.03c-1.03,0-1.14-0.28-1.14-1.2C0.03,172.4,0.03,86.79,0,1.18
			C0,0.21,0.18,0,1.16,0c85.62,0.03,171.23,0.03,256.85,0c1.08,0,1.19,0.31,1.19,1.26c-0.02,85.61-0.02,171.22,0,256.83
			c0,0.89-0.19,1.11-1.1,1.11C215.28,259.17,172.45,259.17,129.62,259.17z M129.4,74.71c-3.95-0.11-8.14,0.35-12.3,1.15
			c-7.89,1.53-15.54,3.75-22.79,7.35c-4.66,2.32-9.06,5.02-13.28,8.05c-2.59,1.86-5.07,3.85-7.44,5.99
			c-2.55,2.31-4.91,4.8-7.38,7.18c-1.82,1.75-3.24,3.93-4.8,5.95c-3.46,4.49-6.56,9.16-7.44,14.94c-0.05,0.31-0.21,0.59-0.15,0.93
			c0.67,3.6,1.85,7.05,3.83,10.11c1.79,2.77,3.68,5.5,5.89,7.99c2.85,3.22,5.65,6.47,8.85,9.39c3.04,2.78,6.24,5.35,9.55,7.76
			c2.5,1.82,5.12,3.52,7.85,5.01c3.22,1.76,6.51,3.38,9.93,4.73c6.07,2.39,12.35,4.02,18.76,5.17c5.29,0.95,10.64,1.18,15.98,0.81
			c5.74-0.39,11.37-1.55,16.91-3.12c0.79-0.22,1.25-0.01,1.77,0.53c2.12,2.17,4.28,4.31,6.43,6.46c1.55,1.55,3.33,2.55,5.51,3.13
			c4.23,1.13,9.99-1.95,10.55-6.54c0.16-1.34,0.47-2.65,0.46-4.02c-0.03-3.36,0.01-6.72-0.03-10.08c-0.01-0.8,0.25-1.28,0.9-1.77
			c4.07-3.07,8.26-5.97,11.84-9.68c2.79-2.89,5.82-5.6,8.23-8.81c3.66-4.87,7.23-9.86,8.28-16.11c0.08-0.51,0.43-0.95,0.31-1.5
			c-0.84-3.81-2-7.51-4.29-10.7c-2.35-3.27-4.61-6.59-7.3-9.62c-3.56-4.01-7.43-7.68-11.51-11.13c-3.04-2.57-6.37-4.8-9.79-6.87
			c-6.33-3.84-12.98-7-20.11-9.05C145.15,76.18,137.56,74.53,129.4,74.71z"/>
		<path fill="#95690E" d="M129.4,74.71c8.16-0.17,15.75,1.48,23.24,3.63c7.13,2.05,13.77,5.2,20.11,9.05
			c3.42,2.07,6.75,4.3,9.79,6.87c4.07,3.45,7.95,7.12,11.51,11.13c2.69,3.03,4.95,6.35,7.3,9.62c2.29,3.19,3.45,6.9,4.29,10.7
			c0.12,0.55-0.23,1-0.31,1.5c-1.05,6.25-4.62,11.24-8.28,16.11c-2.41,3.2-5.44,5.91-8.23,8.81c-3.58,3.71-7.77,6.61-11.84,9.68
			c-0.65,0.49-0.91,0.97-0.9,1.77c0.04,3.36,0,6.72,0.03,10.08c0.01,1.37-0.3,2.68-0.46,4.02c-0.56,4.59-6.31,7.67-10.55,6.54
			c-2.19-0.59-3.96-1.58-5.51-3.13c-2.15-2.15-4.31-4.28-6.43-6.46c-0.53-0.54-0.98-0.75-1.77-0.53
			c-5.54,1.57-11.17,2.73-16.91,3.12c-5.34,0.36-10.69,0.14-15.98-0.81c-6.41-1.16-12.69-2.78-18.76-5.17
			c-3.42-1.35-6.7-2.97-9.93-4.73c-2.73-1.49-5.35-3.19-7.85-5.01c-3.31-2.41-6.51-4.98-9.55-7.76c-3.19-2.92-5.99-6.17-8.85-9.39
			c-2.21-2.49-4.1-5.21-5.89-7.99c-1.97-3.06-3.16-6.51-3.83-10.11c-0.06-0.34,0.1-0.62,0.15-0.93c0.88-5.78,3.98-10.45,7.44-14.94
			c1.56-2.02,2.97-4.2,4.8-5.95c2.47-2.38,4.84-4.87,7.38-7.18c2.37-2.14,4.85-4.13,7.44-5.99c4.22-3.03,8.61-5.73,13.28-8.05
			c7.24-3.6,14.9-5.82,22.79-7.35C121.27,75.05,125.46,74.6,129.4,74.71z M129.15,83.55c-1.89-0.46-4.13,0.39-6.43,0.51
			c-2.17,0.12-4.33,0.47-6.47,0.85c-4.16,0.75-8.12,2.14-12.06,3.68c-3.94,1.55-7.78,3.29-11.36,5.53
			c-3.34,2.08-6.61,4.31-9.65,6.83c-2.14,1.77-4.44,3.36-6.33,5.42c-1.42,1.55-2.82,3.13-4.26,4.67c-3.83,4.1-6.98,8.68-9.55,13.66
			c-0.44,0.86-0.44,1.78,0.02,2.64c0.79,1.48,1.58,2.96,2.47,4.38c4.25,6.71,9.53,12.51,15.53,17.7c3.32,2.87,6.83,5.47,10.56,7.76
			c5.86,3.6,12.09,6.42,18.67,8.44c5,1.53,10.12,2.56,15.32,2.79c6.96,0.3,13.88,0.02,20.65-2.07c2.6-0.8,5.34-1.18,7.81-2.43
			c0.65-0.33,1.09-0.08,1.56,0.41c3.39,3.49,6.8,6.97,10.22,10.43c0.31,0.32,0.6,0.98,1.08,0.75c0.44-0.21,0.18-0.87,0.18-1.33
			c0.01-5.12,0.04-10.24-0.01-15.36c-0.01-0.92,0.3-1.42,1.05-1.92c6.48-4.24,12.62-8.9,17.97-14.54c0.56-0.59,0.89-1.3,1.43-1.9
			c3.38-3.75,6.09-7.96,8.51-12.38c0.95-1.73,0.67-3.22-0.22-4.71c-2.45-4.06-5.06-8-8.23-11.55c-3.56-3.99-7.36-7.73-11.53-11.09
			c-5.34-4.3-11.23-7.7-17.33-10.76c-0.98-0.49-2.11-0.68-3.14-1.08c-1.4-0.55-2.73-1.28-4.15-1.75c-3.59-1.18-7.2-2.19-11.02-2.51
			C136.83,84.33,133.26,83.42,129.15,83.55z"/>
		<path fill="#DA9601" d="M129.15,83.55c4.11-0.12,7.68,0.78,11.3,1.08c3.82,0.31,7.43,1.33,11.02,2.51
			c1.42,0.47,2.75,1.2,4.15,1.75c1.03,0.41,2.16,0.59,3.14,1.08c6.1,3.06,11.98,6.46,17.33,10.76c4.17,3.36,7.97,7.1,11.53,11.09
			c3.17,3.55,5.78,7.49,8.23,11.55c0.9,1.49,1.17,2.98,0.22,4.71c-2.42,4.43-5.13,8.63-8.51,12.38c-0.53,0.59-0.87,1.31-1.43,1.9
			c-5.36,5.64-11.49,10.3-17.97,14.54c-0.75,0.49-1.06,0.99-1.05,1.92c0.05,5.12,0.03,10.24,0.01,15.36c0,0.46,0.26,1.12-0.18,1.33
			c-0.48,0.23-0.77-0.43-1.08-0.75c-3.42-3.47-6.83-6.94-10.22-10.43c-0.47-0.48-0.9-0.74-1.56-0.41c-2.47,1.25-5.21,1.63-7.81,2.43
			c-6.77,2.09-13.69,2.37-20.65,2.07c-5.21-0.23-10.32-1.26-15.32-2.79c-6.59-2.02-12.81-4.84-18.67-8.44
			c-3.73-2.29-7.24-4.89-10.56-7.76c-5.99-5.18-11.28-10.99-15.53-17.7c-0.89-1.41-1.68-2.9-2.47-4.38
			c-0.46-0.85-0.46-1.78-0.02-2.64c2.57-4.98,5.72-9.56,9.55-13.66c1.44-1.54,2.83-3.12,4.26-4.67c1.89-2.06,4.2-3.64,6.33-5.42
			c3.04-2.52,6.3-4.74,9.65-6.83c3.59-2.23,7.42-3.97,11.36-5.53c3.93-1.55,7.9-2.93,12.06-3.68c2.14-0.39,4.3-0.74,6.47-0.85
			C125.02,83.93,127.26,83.09,129.15,83.55z M93.73,125.92c-0.12,10.34,3.83,19.83,11.25,26.6c8.42,7.68,18.65,10.78,29.81,9.34
			c8.81-1.14,16.42-5.34,22.35-12.2c5.89-6.8,8.76-14.81,8.72-23.68c-0.09-20.08-16.04-35.82-35.83-36.05
			C110.06,89.69,93.37,106.04,93.73,125.92z"/>
		<path fill="#95690E" d="M93.73,125.92c-0.36-19.88,16.33-36.23,36.3-36c19.79,0.24,35.74,15.97,35.83,36.05
			c0.04,8.87-2.84,16.89-8.72,23.68c-5.94,6.86-13.55,11.06-22.35,12.2c-11.16,1.44-21.39-1.66-29.81-9.34
			C97.56,145.75,93.61,136.26,93.73,125.92z M129.81,110.64c-8.88-0.06-15.61,7.05-15.56,15.33c0.05,8.35,6.33,15.21,15.32,15.39
			c9.04,0.18,15.64-7.19,15.67-15.37C145.27,118,138.38,110.35,129.81,110.64z M133.56,99c-0.17-0.06-0.27-0.13-0.38-0.14
			c-7.66-0.8-14.45,1.08-20.48,6.05c-3.32,2.74-5.74,6.01-7.69,9.77c-2.72,5.27-3.02,10.85-2.13,16.56
			c0.42,2.71,1.62,5.14,2.92,7.54c1.32,2.44,2.84,4.78,4.82,6.66c2.98,2.84,6.44,5.04,10.36,6.49c3.45,1.28,7.01,1.46,10.61,1.35
			c5.03-0.14,9.44-2.06,13.52-4.87c3.71-2.56,6.5-5.91,8.67-9.87c1.52-2.77,2.79-5.59,3.02-8.74c0.31-4.18,0.57-8.38-1.22-12.38
			c-0.67-1.49-0.54-1.43-1.9-0.5c-0.96,0.65-1.16,1.27-0.79,2.35c2.11,6.19,1.03,12.16-1.52,17.93c-1.08,2.43-2.8,4.46-4.77,6.35
			c-4.15,3.97-9.15,6.12-14.68,6.6c-6.35,0.54-12.31-0.99-17.43-5.17c-3.89-3.19-6.62-7.07-7.91-11.96c-0.8-3.03-1.54-6.1-1.03-9.22
			c0.95-5.74,2.61-11.16,7.2-15.26c2.11-1.88,4.26-3.59,6.88-4.63c3.78-1.51,7.67-2.44,11.79-2.14c0.32,0.02,0.77,0.2,0.89-0.32
			C132.53,100.54,133.06,99.79,133.56,99z M144.69,111.35c2.64,0.07,4.71-1.61,4.62-5.5c-0.04-1.75-2.49-3.83-4.53-3.83
			c-2.6,0-4.75,2.12-4.74,4.69C140.06,109.25,142.15,111.34,144.69,111.35z"/>
		<path fill="#DA9601" d="M129.81,110.64c8.57-0.29,15.46,7.36,15.43,15.36c-0.04,8.17-6.63,15.54-15.67,15.37
			c-8.99-0.18-15.27-7.04-15.32-15.39C114.2,117.69,120.93,110.58,129.81,110.64z"/>
		<path fill="#FEFEFE" d="M133.56,99c-0.5,0.8-1.03,1.54-1.23,2.45c-0.12,0.52-0.58,0.34-0.89,0.32c-4.11-0.3-8.01,0.63-11.79,2.14
			c-2.62,1.05-4.77,2.75-6.88,4.63c-4.59,4.1-6.25,9.52-7.2,15.26c-0.51,3.12,0.23,6.19,1.03,9.22c1.29,4.89,4.01,8.77,7.91,11.96
			c5.11,4.19,11.07,5.72,17.43,5.17c5.53-0.47,10.53-2.62,14.68-6.6c1.97-1.89,3.69-3.92,4.77-6.35c2.55-5.76,3.63-11.74,1.52-17.93
			c-0.37-1.08-0.17-1.69,0.79-2.35c1.36-0.92,1.23-0.99,1.9,0.5c1.79,4,1.53,8.2,1.22,12.38c-0.23,3.15-1.5,5.97-3.02,8.74
			c-2.17,3.96-4.96,7.31-8.67,9.87c-4.07,2.81-8.49,4.72-13.52,4.87c-3.6,0.1-7.15-0.07-10.61-1.35c-3.92-1.45-7.38-3.65-10.36-6.49
			c-1.97-1.88-3.5-4.21-4.82-6.66c-1.3-2.4-2.5-4.84-2.92-7.54c-0.89-5.71-0.6-11.29,2.13-16.56c1.94-3.76,4.36-7.03,7.69-9.77
			c6.03-4.97,12.82-6.85,20.48-6.05C133.29,98.87,133.39,98.93,133.56,99z"/>
		<path fill="#DA9601" d="M144.69,111.35c-2.54,0-4.63-2.09-4.64-4.64c-0.01-2.57,2.13-4.69,4.74-4.69c2.03,0,4.49,2.08,4.53,3.83
			C149.4,109.73,147.33,111.41,144.69,111.35z"/>
	</g>
</g>
</svg>
