<?xml version="1.0" encoding="utf-8"?>
<!-- Generator: Adobe Illustrator 27.8.0, SVG Export Plug-In . SVG Version: 6.00 Build 0)  -->
<svg version="1.1" id="Capa_1" xmlns="http://www.w3.org/2000/svg" xmlns:xlink="http://www.w3.org/1999/xlink" x="0px" y="0px"
	 viewBox="0 0 259.2 259.2" enable-background="new 0 0 259.2 259.2" xml:space="preserve">
<g>
	<g>
		<path fill="#FEFEFE" d="M129.58,259.17c-42.83,0-85.66,0-128.49,0.03c-0.95,0-1.08-0.27-1.08-1.13C0.03,172.45,0.03,86.83,0,1.21
			c0-1.08,0.3-1.2,1.25-1.2C86.83,0.03,172.41,0.03,257.99,0c1.07,0,1.2,0.3,1.2,1.25c-0.02,85.58-0.02,171.16,0.01,256.74
			c0,1.08-0.3,1.2-1.25,1.2C215.16,259.17,172.37,259.17,129.58,259.17z M53.93,188.29c0.26,6.7,3.11,11.87,9.04,15.05
			c2.65,1.42,5.63,2.19,8.66,1.92c4.62-0.42,8.6-2.23,11.96-5.62c14.97-15.11,30.04-30.11,45.04-45.18
			c0.84-0.85,1.19-0.74,1.97,0.04c15.06,15.13,30.14,30.24,45.25,45.31c4.74,4.73,10.34,6.55,16.96,4.74
			c6.19-1.69,10.14-5.59,11.78-11.81c0.25-0.96,0.36-2,0.8-2.87c0.48-0.95,0.49-1.94,0.17-2.75c-0.31-0.78-0.62-1.55-0.75-2.35
			c-0.58-3.64-2.49-6.51-5.03-9.05c-15.06-15.07-30.11-30.15-45.2-45.19c-0.89-0.89-0.75-1.27,0.05-2.06
			c15.08-15.05,30.13-30.13,45.19-45.2c2.51-2.51,4.42-5.35,4.97-8.95c0.24-1.58,1.49-3.08,0.83-4.69
			c-0.58-1.42-0.84-2.89-1.24-4.33c-0.38-1.37-0.96-2.61-1.74-3.78c-2.62-3.96-6.19-6.42-10.89-7.34c-4.73-0.93-9.01-0.03-12.99,2.6
			c-1.41,0.93-2.59,2.12-3.78,3.31c-14.83,14.85-29.67,29.69-44.47,44.56c-0.78,0.78-1.1,0.65-1.79-0.04
			c-15.12-15.18-30.27-30.33-45.41-45.48c-1.51-1.51-3.14-2.9-5.11-3.71c-3.84-1.58-7.74-2.06-11.91-0.97
			C59.31,56.23,54.38,62.4,54,69.68c-0.27,5.29,1.59,9.81,5.38,13.59c15.12,15.07,30.17,30.2,45.29,45.27
			c0.85,0.85,0.73,1.2-0.04,1.98c-15.17,15.13-30.29,30.31-45.45,45.45C55.74,179.38,54.14,183.53,53.93,188.29z"/>
		<path fill="#811A18" d="M53.93,188.29c0.21-4.76,1.81-8.9,5.25-12.33c15.16-15.14,30.29-30.31,45.45-45.45
			c0.77-0.77,0.89-1.13,0.04-1.98c-15.12-15.07-30.18-30.2-45.29-45.27c-3.79-3.78-5.66-8.3-5.38-13.59
			c0.38-7.28,5.31-13.44,12.25-15.25c4.17-1.08,8.07-0.61,11.91,0.97c1.97,0.81,3.6,2.2,5.11,3.71
			c15.14,15.16,30.29,30.31,45.41,45.48c0.69,0.69,1.02,0.82,1.79,0.04c14.8-14.88,29.64-29.71,44.47-44.56
			c1.19-1.19,2.37-2.37,3.78-3.31c3.98-2.63,8.26-3.53,12.99-2.6c4.7,0.92,8.27,3.38,10.89,7.34c0.78,1.18,1.36,2.42,1.74,3.78
			c0.4,1.44,0.66,2.91,1.24,4.33c0.66,1.61-0.59,3.11-0.83,4.69c-0.55,3.6-2.46,6.44-4.97,8.95c-15.06,15.07-30.11,30.15-45.19,45.2
			c-0.79,0.79-0.94,1.17-0.05,2.06c15.09,15.04,30.14,30.12,45.2,45.19c2.54,2.54,4.45,5.41,5.03,9.05c0.13,0.8,0.44,1.58,0.75,2.35
			c0.32,0.81,0.31,1.8-0.17,2.75c-0.44,0.87-0.55,1.91-0.8,2.87c-1.64,6.22-5.58,10.12-11.78,11.81
			c-6.61,1.81-12.22-0.02-16.96-4.74c-15.11-15.08-30.19-30.19-45.25-45.31c-0.77-0.78-1.13-0.89-1.97-0.04
			c-15,15.08-30.07,30.08-45.04,45.18c-3.36,3.39-7.34,5.21-11.96,5.62c-3.03,0.27-6.02-0.51-8.66-1.92
			C57.04,200.16,54.19,194.99,53.93,188.29z M61.65,188.46c0.07,0.78-0.11,1.58,0.13,2.37c0.97,3.22,3.12,5.5,6.18,6.51
			c3.65,1.2,7.03,0.11,9.74-2.6c16.94-16.92,33.85-33.86,50.77-50.8c1.13-1.13,1.13-1.13,2.31,0.04
			c16.89,16.91,33.78,33.83,50.69,50.72c2.47,2.47,5.42,3.69,8.97,2.8c3.55-0.89,6.03-3.19,7.02-6.56c0.98-3.36,0.17-6.52-2.49-9.17
			c-17.07-17.01-34.09-34.08-51.12-51.13c-1.15-1.15-1.15-1.15,0.01-2.31c17.03-17.05,34.06-34.11,51.11-51.14
			c2.35-2.34,3.27-5.02,2.62-8.32c-0.87-4.37-5.07-7.89-9.44-7.61c-2.38,0.15-4.5,0.98-6.28,2.77
			c-16.89,16.97-33.82,33.89-50.75,50.83c-1.7,1.7-1.32,1.71-2.98,0.04c-17.01-17.02-34.01-34.04-51.02-51.06
			c-2.49-2.49-5.54-3.05-8.79-2.14c-4.38,1.22-6.62,4.47-6.7,9c-0.05,2.65,0.86,4.74,2.74,6.61c17,16.97,33.97,33.97,50.95,50.96
			c1.21,1.21,1.21,1.21,0.02,2.39c-16.95,16.97-33.89,33.94-50.86,50.89C62.53,183.49,61.26,185.61,61.65,188.46z"/>
		<path fill="#BE0811" d="M61.65,188.46c-0.39-2.84,0.89-4.97,2.81-6.9c16.96-16.95,33.91-33.93,50.86-50.89
			c1.19-1.19,1.19-1.19-0.02-2.39c-16.98-16.99-33.94-34-50.95-50.96c-1.87-1.87-2.78-3.96-2.74-6.61c0.08-4.54,2.32-7.78,6.7-9
			c3.25-0.9,6.3-0.35,8.79,2.14c17.01,17.02,34.01,34.04,51.02,51.06c1.67,1.67,1.29,1.65,2.98-0.04
			c16.92-16.93,33.86-33.86,50.75-50.83c1.78-1.79,3.9-2.62,6.28-2.77c4.37-0.28,8.57,3.23,9.44,7.61c0.66,3.29-0.27,5.97-2.62,8.32
			c-17.05,17.03-34.07,34.09-51.11,51.14c-1.16,1.16-1.16,1.16-0.01,2.31c17.03,17.05,34.05,34.12,51.12,51.13
			c2.66,2.65,3.47,5.81,2.49,9.17c-0.99,3.37-3.47,5.67-7.02,6.56c-3.55,0.89-6.5-0.33-8.97-2.8
			c-16.91-16.89-33.79-33.81-50.69-50.72c-1.17-1.18-1.17-1.18-2.31-0.04c-16.92,16.94-33.83,33.88-50.77,50.8
			c-2.71,2.71-6.1,3.81-9.74,2.6c-3.06-1.01-5.21-3.29-6.18-6.51C61.54,190.04,61.72,189.24,61.65,188.46z"/>
	</g>
</g>
</svg>
