<?xml version="1.0" encoding="utf-8"?>
<!-- Generator: Adobe Illustrator 27.8.0, SVG Export Plug-In . SVG Version: 6.00 Build 0)  -->
<svg version="1.1" id="Capa_1" xmlns="http://www.w3.org/2000/svg" xmlns:xlink="http://www.w3.org/1999/xlink" x="0px" y="0px"
	 viewBox="0 0 259.2 259.2" enable-background="new 0 0 259.2 259.2" xml:space="preserve">
<g>
	<g>
		<path fill="#FFFFFF" d="M259.2,259.2c-86.39,0-172.79,0-259.2,0C0,172.81,0,86.42,0,0c86.39,0,172.79,0,259.2,0
			C259.2,86.39,259.2,172.79,259.2,259.2z M144.07,129.7c-0.3,0.19-0.46,0.3-0.63,0.4c-6.85,3.7-13.7,7.41-20.55,11.11
			c-17.29,9.33-34.56,18.69-51.89,27.96c-5.31,2.84-8.77,6.91-10.12,12.9c-1.37,6.03-0.35,11.5,3.02,16.56
			c4.4,6.6,12.9,8.81,20.22,5.03c5.25-2.71,10.4-5.62,15.6-8.43c15.78-8.51,31.56-17.02,47.34-25.52
			c14.2-7.65,28.43-15.26,42.6-22.96c1.69-0.92,3.23-2.22,4.61-3.58c2.77-2.75,3.91-6.31,4.7-10.04c0.91-4.27,0.01-8.32-1.57-12.17
			c-1.73-4.22-5.04-6.93-9.16-9.02c-8.97-4.56-17.75-9.48-26.6-14.26c-14.13-7.62-28.25-15.25-42.38-22.87
			c-11.32-6.11-22.65-12.18-33.94-18.33c-2.8-1.52-5.78-2.64-8.87-2.56c-4.1,0.11-7.98,1.5-10.86,4.62
			c-4.47,4.84-6.13,10.64-5.17,17.15c0.93,6.28,3.98,11.11,9.68,14.16c6.41,3.42,12.79,6.9,19.19,10.35
			c12.97,7,25.94,13.99,38.91,20.98C133.45,123.97,138.68,126.79,144.07,129.7z"/>
		<path d="M144.07,129.7c-5.39-2.9-10.63-5.72-15.86-8.55c-12.97-6.99-25.94-13.99-38.91-20.98c-6.4-3.45-12.78-6.93-19.19-10.35
			c-5.7-3.04-8.75-7.88-9.68-14.16c-0.97-6.52,0.7-12.31,5.17-17.15c2.88-3.12,6.76-4.51,10.86-4.62c3.09-0.08,6.08,1.03,8.87,2.56
			c11.29,6.15,22.62,12.23,33.94,18.33c14.13,7.62,28.25,15.25,42.38,22.87c8.85,4.78,17.64,9.7,26.6,14.26
			c4.11,2.09,7.43,4.8,9.16,9.02c1.58,3.85,2.48,7.9,1.57,12.17c-0.8,3.74-1.94,7.3-4.7,10.04c-1.37,1.36-2.92,2.66-4.61,3.58
			c-14.17,7.71-28.4,15.32-42.6,22.96c-15.78,8.5-31.57,17.01-47.34,25.52c-5.2,2.81-10.35,5.72-15.6,8.43
			c-7.32,3.78-15.82,1.57-20.22-5.03c-3.37-5.05-4.39-10.53-3.02-16.56c1.36-5.99,4.81-10.05,10.12-12.9
			c17.32-9.27,34.59-18.63,51.89-27.96c6.85-3.7,13.7-7.4,20.55-11.11C143.62,130,143.78,129.88,144.07,129.7z"/>
	</g>
</g>
</svg>
