<?xml version="1.0" encoding="utf-8"?>
<!-- Generator: Adobe Illustrator 27.8.0, SVG Export Plug-In . SVG Version: 6.00 Build 0)  -->
<svg version="1.1" id="Capa_1" xmlns="http://www.w3.org/2000/svg" xmlns:xlink="http://www.w3.org/1999/xlink" x="0px" y="0px"
	 viewBox="0 0 259.2 259.2" enable-background="new 0 0 259.2 259.2" xml:space="preserve">
<g>
	<g>
		<path fill="#FFFFFF" d="M0,259.2C0,172.81,0,86.42,0,0c86.38,0,172.77,0,259.2,0c0,86.38,0,172.79,0,259.2
			C172.83,259.2,86.42,259.2,0,259.2z M174.07,73.8c-0.02-3.66,0.27-6.73-0.8-9.66c-0.83-2.3-2.4-4.16-4.69-4.79
			c-6.88-1.9-13.83-3.6-20.78-5.23c-2.36-0.55-4.83-0.01-6.7,1.44c-2.49,1.91-4.77,4.14-6.89,6.46c-1.54,1.68-3.14,2.48-5.41,2.21
			c-0.89-0.1-1.56-0.29-2.19-0.94c-2.03-2.1-4.09-4.17-6.18-6.2c-2.79-2.7-6.1-3.67-9.88-2.73c-6.08,1.51-12.14,3.11-18.23,4.59
			c-3.5,0.85-5.69,2.92-6.37,6.46c-0.3,1.56-0.49,3.15-0.54,4.73c-0.09,2.6,0.01,5.2-0.05,7.8c-0.01,0.49-0.26,1.08-0.59,1.44
			c-1.69,1.86-3.42,3.69-5.2,5.46c-0.34,0.34-0.96,0.55-1.45,0.56c-2.84,0.05-5.68-0.09-8.51,0.06c-1.97,0.11-4.02,0.33-5.87,0.97
			c-2.12,0.73-3.84,2.36-4.44,4.57c-1.76,6.52-3.35,13.08-4.94,19.64c-0.71,2.94-0.2,5.8,1.65,8.15c1.77,2.25,3.8,4.33,5.92,6.25
			c1.74,1.57,2.65,3.22,2.34,5.6c-0.12,0.92-0.29,1.63-0.98,2.3c-2.07,2-4.14,4.01-6.11,6.11c-2.62,2.8-3.67,6.13-2.76,9.91
			c1.41,5.91,2.91,11.79,4.34,17.69c0.9,3.72,3.03,6.18,6.92,6.83c1.37,0.23,2.76,0.45,4.14,0.49c2.64,0.08,5.28-0.02,7.91,0.06
			c0.6,0.02,1.32,0.31,1.75,0.71c1.78,1.67,3.51,3.39,5.17,5.17c0.41,0.43,0.69,1.15,0.7,1.75c0.07,3.12-0.13,6.25,0.09,9.36
			c0.14,1.86,0.61,3.81,1.43,5.49c1.17,2.41,3.4,3.62,6.05,4.24c6.1,1.42,12.16,3.02,18.26,4.48c2.65,0.64,5.28,0.06,7.38-1.51
			c2.35-1.76,4.49-3.86,6.45-6.06c1.66-1.85,3.44-2.87,5.9-2.38c0.65,0.13,1.4,0.35,1.85,0.79c2.2,2.09,4.28,4.32,6.48,6.41
			c2.63,2.49,5.79,3.51,9.34,2.68c6.49-1.52,12.97-3.09,19.4-4.82c2.53-0.68,4.47-2.48,5.21-5.04c0.58-2,0.72-4.15,0.84-6.25
			c0.14-2.31,0.09-4.64,0.01-6.96c-0.05-1.21,0.26-2.08,1.18-2.92c1.62-1.48,3.07-3.14,4.65-4.66c0.32-0.31,0.9-0.48,1.37-0.49
			c2.6-0.05,5.2,0.09,7.79-0.06c2.13-0.13,4.33-0.31,6.35-0.95c2.36-0.75,4.14-2.57,4.82-4.98c1.53-5.46,2.79-10.99,4.25-16.47
			c0.79-2.98,1.4-5.94,0.11-8.89c-0.61-1.4-1.4-2.8-2.4-3.94c-1.47-1.68-3.18-3.14-4.81-4.67c-1.55-1.46-2.66-3.04-2.24-5.37
			c0.14-0.78,0.25-1.41,0.84-1.99c2.12-2.06,4.24-4.14,6.28-6.28c2.65-2.79,3.69-6.12,2.8-9.89c-1.38-5.87-2.86-11.72-4.32-17.57
			c-0.95-3.82-3.17-6.38-7.18-7.07c-1.25-0.22-2.52-0.42-3.78-0.45c-2.76-0.07-5.52-0.04-8.27-0.01c-0.82,0.01-1.35-0.23-1.93-0.87
			c-1.53-1.68-3.22-3.21-4.8-4.85c-0.34-0.36-0.63-0.92-0.65-1.41C174.02,76.61,174.07,74.89,174.07,73.8z"/>
		<path d="M174.07,73.8c0,1.09-0.05,2.81,0.03,4.53c0.02,0.48,0.31,1.05,0.65,1.41c1.58,1.64,3.27,3.17,4.8,4.85
			c0.58,0.64,1.11,0.88,1.93,0.87c2.76-0.04,5.52-0.06,8.27,0.01c1.26,0.03,2.53,0.23,3.78,0.45c4.01,0.69,6.23,3.25,7.18,7.07
			c1.45,5.85,2.94,11.7,4.32,17.57c0.89,3.78-0.15,7.11-2.8,9.89c-2.04,2.14-4.16,4.21-6.28,6.28c-0.59,0.58-0.7,1.21-0.84,1.99
			c-0.42,2.33,0.69,3.91,2.24,5.37c1.63,1.53,3.35,2.99,4.81,4.67c1,1.14,1.79,2.54,2.4,3.94c1.29,2.94,0.68,5.91-0.11,8.89
			c-1.46,5.48-2.72,11.02-4.25,16.47c-0.68,2.4-2.46,4.22-4.82,4.98c-2.01,0.64-4.22,0.82-6.35,0.95c-2.59,0.15-5.19,0.01-7.79,0.06
			c-0.47,0.01-1.04,0.18-1.37,0.49c-1.58,1.52-3.03,3.18-4.65,4.66c-0.92,0.84-1.23,1.71-1.18,2.92c0.09,2.32,0.13,4.65-0.01,6.96
			c-0.12,2.1-0.26,4.25-0.84,6.25c-0.74,2.55-2.68,4.36-5.21,5.04c-6.43,1.74-12.91,3.3-19.4,4.82c-3.55,0.83-6.71-0.18-9.34-2.68
			c-2.2-2.09-4.28-4.32-6.48-6.41c-0.46-0.44-1.2-0.66-1.85-0.79c-2.47-0.49-4.25,0.53-5.9,2.38c-1.96,2.19-4.1,4.3-6.45,6.06
			c-2.1,1.57-4.72,2.14-7.38,1.51c-6.09-1.46-12.15-3.06-18.26-4.48c-2.65-0.61-4.87-1.83-6.05-4.24c-0.81-1.67-1.29-3.62-1.43-5.49
			c-0.23-3.1-0.03-6.24-0.09-9.36c-0.01-0.6-0.3-1.32-0.7-1.75c-1.66-1.78-3.39-3.51-5.17-5.17c-0.44-0.41-1.15-0.7-1.75-0.71
			c-2.64-0.08-5.28,0.02-7.91-0.06c-1.38-0.04-2.77-0.26-4.14-0.49c-3.89-0.65-6.02-3.11-6.92-6.83c-1.43-5.9-2.93-11.79-4.34-17.69
			c-0.9-3.78,0.14-7.11,2.76-9.91c1.97-2.1,4.03-4.11,6.11-6.11c0.69-0.66,0.86-1.37,0.98-2.3c0.31-2.38-0.6-4.03-2.34-5.6
			c-2.13-1.92-4.16-4-5.92-6.25c-1.85-2.35-2.36-5.21-1.65-8.15c1.59-6.56,3.18-13.12,4.94-19.64c0.6-2.21,2.32-3.84,4.44-4.57
			c1.85-0.64,3.89-0.86,5.87-0.97c2.83-0.15,5.67-0.01,8.51-0.06c0.49-0.01,1.11-0.22,1.45-0.56c1.78-1.78,3.51-3.6,5.2-5.46
			c0.33-0.37,0.58-0.95,0.59-1.44c0.06-2.6-0.04-5.2,0.05-7.8c0.05-1.58,0.24-3.18,0.54-4.73c0.68-3.54,2.87-5.6,6.37-6.46
			c6.09-1.48,12.15-3.08,18.23-4.59c3.79-0.94,7.1,0.03,9.88,2.73c2.1,2.03,4.15,4.1,6.18,6.2c0.63,0.65,1.3,0.84,2.19,0.94
			c2.27,0.27,3.87-0.54,5.41-2.21c2.12-2.32,4.41-4.55,6.89-6.46c1.88-1.45,4.35-1.99,6.7-1.44c6.96,1.62,13.9,3.32,20.78,5.23
			c2.29,0.63,3.85,2.49,4.69,4.79C174.33,67.08,174.04,70.14,174.07,73.8z M129.78,164.79c19.17,0.13,35.24-15.95,35.04-35.62
			c-0.2-18.85-15.93-34.49-35.06-34.5c-19.4-0.01-35.16,15.77-35.12,35.15C94.67,149.24,110.33,164.82,129.78,164.79z"/>
		<path fill="#FFFFFF" d="M129.78,164.79c-19.44,0.03-35.1-15.54-35.14-34.96c-0.04-19.38,15.72-35.16,35.12-35.15
			c19.14,0.01,34.86,15.65,35.06,34.5C165.02,148.84,148.94,164.92,129.78,164.79z M147.62,129.7c0-9.83-8.03-17.93-17.82-17.96
			c-9.89-0.03-18.03,8.1-18.02,18.02c0.01,9.85,8.12,17.96,17.96,17.96C139.57,147.71,147.62,139.6,147.62,129.7z"/>
		<path d="M147.62,129.7c0,9.91-8.04,18.02-17.88,18.02c-9.84,0-17.95-8.11-17.96-17.96c-0.01-9.91,8.13-18.05,18.02-18.02
			C139.58,111.77,147.62,119.86,147.62,129.7z M138.39,129.82c0.34-4.5-4.63-8.92-8.59-8.92c-4.56,0-8.71,4.6-8.8,8.77
			c-0.1,4.44,4.42,8.73,8.63,8.87C133.71,138.67,138.75,133.97,138.39,129.82z"/>
		<path fill="#FFFFFF" d="M138.39,129.82c0.37,4.16-4.68,8.85-8.76,8.72c-4.21-0.14-8.73-4.43-8.63-8.87
			c0.09-4.17,4.25-8.77,8.8-8.77C133.76,120.9,138.73,125.32,138.39,129.82z"/>
	</g>
</g>
</svg>
