<?xml version="1.0" encoding="utf-8"?>
<!-- Generator: Adobe Illustrator 27.8.0, SVG Export Plug-In . SVG Version: 6.00 Build 0)  -->
<svg version="1.1" id="Capa_1" xmlns="http://www.w3.org/2000/svg" xmlns:xlink="http://www.w3.org/1999/xlink" x="0px" y="0px"
	 viewBox="0 0 259.2 259.2" enable-background="new 0 0 259.2 259.2" xml:space="preserve">
<g>
	<g>
		<path fill="#FFFFFF" d="M259.2,259.2c-86.39,0-172.79,0-259.2,0C0,172.81,0,86.42,0,0c86.39,0,172.79,0,259.2,0
			C259.2,86.39,259.2,172.79,259.2,259.2z M115.29,129.74c0.42-0.23,0.63-0.35,0.84-0.46c7.8-4.21,15.6-8.43,23.4-12.64
			c16.03-8.64,32.06-17.27,48.09-25.92c2.74-1.48,5.43-3.01,7.41-5.56c1.83-2.36,2.93-4.97,3.62-7.86c1.48-6.23,0.32-11.9-3.4-17.03
			c-4.5-6.22-12.6-8.11-19.66-4.57c-4.28,2.15-8.45,4.51-12.67,6.78c-17.01,9.18-34.01,18.36-51.02,27.54
			c-8.79,4.74-17.57,9.48-26.36,14.22c-4.89,2.63-9.7,5.42-14.69,7.84c-4.01,1.94-7.08,4.71-8.8,8.74c-2.03,4.78-2.5,9.7-1.01,14.86
			c1.43,4.97,4.3,8.64,8.71,11.06c9.31,5.12,18.7,10.08,28.05,15.12c14.27,7.69,28.53,15.4,42.8,23.1
			c10.82,5.84,21.65,11.67,32.48,17.51c4.18,2.25,8.38,3.83,13.35,2.5c5.46-1.47,9.06-4.88,11.07-9.89
			c1.76-4.39,2.22-8.94,0.89-13.73c-1.43-5.14-4.23-9-8.83-11.52c-7.63-4.19-15.32-8.28-22.98-12.41
			c-13.32-7.18-26.64-14.37-39.96-21.56C122.89,133.85,119.17,131.84,115.29,129.74z"/>
		<path d="M115.29,129.74c3.88,2.09,7.6,4.11,11.32,6.11c13.32,7.19,26.64,14.37,39.96,21.56c7.66,4.13,15.35,8.22,22.98,12.41
			c4.61,2.53,7.4,6.38,8.83,11.52c1.33,4.78,0.87,9.34-0.89,13.73c-2.01,5.01-5.61,8.42-11.07,9.89c-4.97,1.33-9.17-0.24-13.35-2.5
			c-10.83-5.84-21.65-11.67-32.48-17.51c-14.27-7.7-28.53-15.41-42.8-23.1c-9.35-5.04-18.74-10-28.05-15.12
			c-4.4-2.42-7.27-6.09-8.71-11.06c-1.49-5.16-1.02-10.08,1.01-14.86c1.72-4.03,4.79-6.8,8.8-8.74c4.99-2.42,9.8-5.2,14.69-7.84
			c8.79-4.74,17.58-9.48,26.36-14.22c17.01-9.18,34.01-18.36,51.02-27.54c4.22-2.28,8.39-4.64,12.67-6.78
			c7.06-3.54,15.17-1.65,19.66,4.57c3.71,5.13,4.87,10.8,3.4,17.03c-0.69,2.9-1.78,5.5-3.62,7.86c-1.98,2.55-4.67,4.08-7.41,5.56
			c-16.03,8.64-32.06,17.27-48.09,25.92c-7.8,4.21-15.6,8.43-23.4,12.64C115.92,129.4,115.72,129.51,115.29,129.74z"/>
	</g>
</g>
</svg>
