<?xml version="1.0" encoding="utf-8"?>
<!-- Generator: Adobe Illustrator 27.8.0, SVG Export Plug-In . SVG Version: 6.00 Build 0)  -->
<svg version="1.1" id="Capa_1" xmlns="http://www.w3.org/2000/svg" xmlns:xlink="http://www.w3.org/1999/xlink" x="0px" y="0px"
	 viewBox="0 0 259.2 259.2" enable-background="new 0 0 259.2 259.2" xml:space="preserve">
<g>
	<g>
		<path fill="#FFFFFF" d="M0,0c86.39,0,172.78,0,259.2,0c0,86.38,0,172.77,0,259.2c-86.38,0-172.79,0-259.2,0C0,172.82,0,86.42,0,0z
			 M126.3,129.59c-0.28,0.19-0.39,0.29-0.52,0.36c-4.88,2.64-9.76,5.28-14.64,7.91c-7.23,3.9-14.47,7.8-21.71,11.7
			c-6.92,3.73-13.89,7.39-20.76,11.23c-2.35,1.31-4.78,2.76-6.58,4.71c-4.2,4.55-5.74,10.19-5.02,16.31
			c0.52,4.38,1.91,8.5,5.16,11.74c5.36,5.35,12.64,6.79,19.83,3.36c5.5-2.63,10.8-5.69,16.18-8.59c3.8-2.04,7.56-4.15,11.35-6.2
			c5.73-3.09,11.47-6.15,17.2-9.24c6.78-3.66,13.55-7.35,20.33-11.01c6.21-3.36,12.43-6.71,18.65-10.06
			c1.35-0.72,2.71-1.42,4.22-2.21c0,0.71,0,1.15,0,1.59c0,8.76,0.04,17.52-0.02,26.28c-0.02,2.67,0.33,5.24,0.98,7.82
			c0.99,3.98,3.31,6.99,6.43,9.54c2.45,2,5.3,2.8,8.27,3.53c4.26,1.05,8.36,0.17,11.98-1.68c6.95-3.56,10.44-9.76,10.47-17.46
			c0.13-31.68,0.04-63.37,0.08-95.05c0-3.85-0.11-7.61-1.46-11.31c-1.91-5.27-5.46-9.01-10.53-10.97
			c-3.77-1.46-7.78-1.93-11.97-0.79c-3.38,0.92-6.2,2.52-8.65,4.85c-3.89,3.68-5.44,8.47-5.54,13.63
			c-0.17,9.52-0.05,19.04-0.05,28.56c0,0.43,0,0.85,0,1.45c-0.48-0.2-0.81-0.3-1.11-0.46c-2.07-1.11-4.14-2.24-6.21-3.36
			c-5.79-3.14-11.58-6.29-17.38-9.41c-10.02-5.39-20.05-10.76-30.07-16.16c-5.76-3.11-11.49-6.28-17.25-9.39
			c-4.67-2.52-9.37-4.99-14.05-7.49c-4.5-2.41-9.09-3.55-14.25-2.06c-4.86,1.4-8.31,4.45-10.45,8.71
			c-2.98,5.94-3.13,12.24-0.62,18.48c1.99,4.96,5.91,8,10.49,10.38c3.86,2.01,7.69,4.08,11.52,6.15c3.48,1.88,6.93,3.79,10.41,5.67
			c3.79,2.05,7.6,4.06,11.4,6.1c3.69,1.98,7.39,3.96,11.07,5.95C117.72,124.93,121.93,127.22,126.3,129.59z"/>
		<path d="M126.3,129.59c-4.37-2.37-8.58-4.65-12.79-6.92c-3.69-1.99-7.38-3.97-11.07-5.95c-3.8-2.04-7.61-4.05-11.4-6.1
			c-3.48-1.88-6.93-3.79-10.41-5.67c-3.83-2.07-7.66-4.14-11.52-6.15c-4.58-2.38-8.5-5.42-10.49-10.38
			c-2.51-6.24-2.36-12.54,0.62-18.48c2.13-4.26,5.59-7.3,10.45-8.71c5.16-1.49,9.75-0.35,14.25,2.06c4.68,2.5,9.38,4.97,14.05,7.49
			c5.76,3.11,11.49,6.28,17.25,9.39c10.02,5.4,20.05,10.77,30.07,16.16c5.8,3.12,11.59,6.27,17.38,9.41
			c2.07,1.12,4.14,2.25,6.21,3.36c0.3,0.16,0.63,0.26,1.11,0.46c0-0.6,0-1.02,0-1.45c0-9.52-0.12-19.04,0.05-28.56
			c0.09-5.16,1.65-9.95,5.54-13.63c2.46-2.33,5.27-3.92,8.65-4.85c4.19-1.14,8.2-0.67,11.97,0.79c5.07,1.96,8.62,5.7,10.53,10.97
			c1.34,3.7,1.46,7.46,1.46,11.31c-0.04,31.68,0.06,63.37-0.08,95.05c-0.03,7.7-3.53,13.9-10.47,17.46
			c-3.63,1.86-7.73,2.73-11.98,1.68c-2.97-0.73-5.82-1.53-8.27-3.53c-3.12-2.55-5.44-5.56-6.43-9.54c-0.64-2.58-0.99-5.15-0.98-7.82
			c0.06-8.76,0.02-17.52,0.02-26.28c0-0.44,0-0.88,0-1.59c-1.51,0.79-2.87,1.48-4.22,2.21c-6.22,3.35-12.44,6.7-18.65,10.06
			c-6.78,3.67-13.55,7.35-20.33,11.01c-5.73,3.09-11.47,6.15-17.2,9.24c-3.79,2.05-7.56,4.15-11.35,6.2
			c-5.38,2.9-10.67,5.96-16.18,8.59c-7.19,3.43-14.47,1.99-19.83-3.36c-3.25-3.24-4.64-7.36-5.16-11.74
			c-0.73-6.12,0.82-11.76,5.02-16.31c1.79-1.94,4.23-3.39,6.58-4.71c6.86-3.84,13.83-7.5,20.76-11.23c7.24-3.9,14.47-7.8,21.71-11.7
			c4.88-2.63,9.76-5.27,14.64-7.91C125.91,129.88,126.03,129.78,126.3,129.59z"/>
	</g>
</g>
</svg>
