<?xml version="1.0" encoding="utf-8"?>
<!-- Generator: Adobe Illustrator 27.8.0, SVG Export Plug-In . SVG Version: 6.00 Build 0)  -->
<svg version="1.1" id="Capa_1" xmlns="http://www.w3.org/2000/svg" xmlns:xlink="http://www.w3.org/1999/xlink" x="0px" y="0px"
	 viewBox="0 0 259.2 259.2" enable-background="new 0 0 259.2 259.2" xml:space="preserve">
<g>
	<g>
		<path fill="#FFFFFF" d="M0,259.2C0,172.8,0,86.4,0,0c86.4,0,172.8,0,259.2,0c0,86.4,0,172.8,0,259.2
			C172.8,259.2,86.4,259.2,0,259.2z M124.74,109.43c-7.89-0.51-14.17,2.59-19.51,7.94c-13.03,13.03-26.03,26.08-39.08,39.09
			c-2.25,2.24-4.24,4.64-5.85,7.39c-3.66,6.23-3.97,12.77-1.53,19.37c2.27,6.16,6.6,10.66,12.66,13.22
			c8.94,3.76,18.19,2.16,25.52-5.01c14.21-13.9,28.21-28.02,42.17-42.19c3.41-3.46,5.95-7.63,6.57-12.66
			c0.23-1.87,0.38-3.76,0.57-5.63c22.52,10.29,47.01-0.73,56.78-19.12c8.53-16.07,7.14-37.11-7.82-51.9
			c-14.63-14.47-37-17.09-55.19-5.09C126.09,64.01,114.44,86.14,124.74,109.43z"/>
		<path d="M124.74,109.43c-10.31-23.29,1.35-45.41,15.28-54.61c18.19-12,40.55-9.38,55.19,5.09c14.96,14.8,16.36,35.83,7.82,51.9
			c-9.77,18.39-34.25,29.41-56.78,19.12c-0.19,1.88-0.34,3.76-0.57,5.63c-0.62,5.03-3.16,9.2-6.57,12.66
			c-13.95,14.17-27.95,28.29-42.17,42.19c-7.33,7.17-16.58,8.78-25.52,5.01c-6.06-2.55-10.39-7.06-12.66-13.22
			c-2.44-6.61-2.13-13.14,1.53-19.37c1.62-2.75,3.6-5.14,5.85-7.39c13.05-13,26.05-26.06,39.08-39.09
			C110.58,112.02,116.86,108.92,124.74,109.43z M129.05,91.02c-0.11,19.52,15.74,35.43,35.4,35.53
			c19.55,0.1,35.47-15.71,35.58-35.33c0.12-19.62-15.69-35.55-35.4-35.67C145.05,55.44,129.16,71.28,129.05,91.02z M123.72,126.91
			c0.01-2.12-1.2-3.43-2.73-3.54c-1.19-0.09-2.02,0.55-2.81,1.34c-14.4,14.43-28.81,28.85-43.22,43.27
			c-0.23,0.23-0.57,0.43-0.64,0.7c-0.25,0.88-0.7,1.86-0.52,2.68c0.53,2.36,3.25,2.89,5.1,1.06c4.17-4.14,8.31-8.31,12.46-12.47
			c10.34-10.35,20.69-20.69,31-31.07C123.03,128.22,123.45,127.31,123.72,126.91z"/>
		<path fill="#FFFFFF" d="M129.05,91.02c0.11-19.74,16-35.59,35.58-35.47c19.71,0.12,35.51,16.05,35.4,35.67
			c-0.12,19.62-16.04,35.43-35.58,35.33C144.79,126.45,128.94,110.54,129.05,91.02z"/>
		<path fill="#FFFFFF" d="M123.72,126.91c-0.27,0.4-0.69,1.31-1.36,1.98c-10.32,10.37-20.66,20.72-31,31.07
			c-4.15,4.16-8.29,8.33-12.46,12.47c-1.84,1.83-4.57,1.3-5.1-1.06c-0.18-0.82,0.27-1.8,0.52-2.68c0.08-0.27,0.42-0.47,0.64-0.7
			c14.41-14.42,28.82-28.84,43.22-43.27c0.79-0.79,1.62-1.43,2.81-1.34C122.52,123.48,123.73,124.79,123.72,126.91z"/>
	</g>
</g>
</svg>
