<?xml version="1.0" encoding="utf-8"?>
<!-- Generator: Adobe Illustrator 27.8.0, SVG Export Plug-In . SVG Version: 6.00 Build 0)  -->
<svg version="1.1" id="Capa_1" xmlns="http://www.w3.org/2000/svg" xmlns:xlink="http://www.w3.org/1999/xlink" x="0px" y="0px"
	 viewBox="0 0 259.2 259.2" enable-background="new 0 0 259.2 259.2" xml:space="preserve">
<g>
	<g>
		<path fill="#FFFFFF" d="M0,0c86.39,0,172.78,0,259.2,0c0,86.38,0,172.77,0,259.2c-86.38,0-172.79,0-259.2,0C0,172.82,0,86.42,0,0z
			 M149.22,65.36c-1.86-1.74-3.72-3.33-5.39-5.09c-2.84-2.99-6.14-4.99-10.24-5.77c-6.51-1.24-12.07,0.5-16.85,4.97
			c-2.07,1.94-4.08,3.94-6.15,5.88c-8.83,8.29-17.67,16.57-26.51,24.85c-6.04,5.66-12.09,11.3-18.12,16.96
			c-3.78,3.55-5.6,8.04-5.43,13.11c0.12,3.59,1.25,7.05,3.67,9.96c4.11,4.93,9.45,6.98,15.69,6.56c2.41-0.16,4.76-1.09,7.01-1.64
			c-0.19,1.78-0.57,3.71-0.58,5.64c-0.05,14.4-0.03,28.8-0.03,43.21c0,0.44,0.07,0.91-0.05,1.31c-0.99,3.49-0.14,6.87,1.24,9.93
			c3.01,6.73,8.33,10.07,15.9,10.16c17.5,0.21,35.01,0.13,52.51,0.03c6.36-0.03,11.71-2.42,15.19-8.02
			c2.17-3.49,3.09-7.33,2.52-11.46c-0.09-0.63-0.19-1.27-0.19-1.9c-0.01-14.2,0.01-28.4-0.04-42.61c-0.01-1.86-0.39-3.72-0.61-5.58
			c-0.04-0.34-0.12-0.68-0.2-1.14c0.44,0.18,0.72,0.32,1.02,0.42c3.04,1,6.09,2.1,9.35,1.59c3.65-0.57,7.13-1.58,10.08-4.07
			c4.29-3.62,6.3-8.31,6.15-13.73c-0.14-4.87-2.27-9.08-5.98-12.41c-2.88-2.59-5.66-5.3-8.52-7.92c-0.61-0.56-0.84-1.15-0.84-1.98
			c0.03-8.12,0.09-16.24-0.02-24.36c-0.05-3.42-0.78-6.76-2.66-9.71c-2.83-4.45-6.79-7.1-12.01-8.17
			c-4.25-0.87-8.14,0.01-11.82,1.84C153.56,58.13,150.98,61.29,149.22,65.36z"/>
		<path d="M149.22,65.36c1.76-4.07,4.33-7.23,8.11-9.11c3.68-1.83,7.57-2.71,11.82-1.84c5.22,1.06,9.19,3.72,12.01,8.17
			c1.88,2.96,2.61,6.3,2.66,9.71c0.11,8.12,0.05,16.24,0.02,24.36c0,0.83,0.23,1.42,0.84,1.98c2.86,2.62,5.64,5.33,8.52,7.92
			c3.71,3.33,5.84,7.53,5.98,12.41c0.16,5.42-1.86,10.11-6.15,13.73c-2.95,2.49-6.43,3.5-10.08,4.07c-3.26,0.51-6.31-0.59-9.35-1.59
			c-0.3-0.1-0.58-0.24-1.02-0.42c0.08,0.47,0.16,0.8,0.2,1.14c0.22,1.86,0.6,3.72,0.61,5.58c0.05,14.2,0.03,28.4,0.04,42.61
			c0,0.63,0.1,1.27,0.19,1.9c0.57,4.13-0.35,7.97-2.52,11.46c-3.48,5.6-8.83,7.98-15.19,8.02c-17.5,0.09-35.01,0.17-52.51-0.03
			c-7.57-0.09-12.89-3.43-15.9-10.16c-1.37-3.07-2.23-6.44-1.24-9.93c0.12-0.41,0.05-0.87,0.05-1.31c0-14.4-0.02-28.8,0.03-43.21
			c0.01-1.93,0.39-3.86,0.58-5.64c-2.25,0.55-4.61,1.48-7.01,1.64c-6.24,0.42-11.58-1.63-15.69-6.56c-2.42-2.91-3.54-6.36-3.67-9.96
			c-0.17-5.07,1.65-9.56,5.43-13.11c6.03-5.66,12.08-11.31,18.12-16.96c8.84-8.28,17.68-16.56,26.51-24.85
			c2.07-1.94,4.08-3.95,6.15-5.88c4.78-4.47,10.34-6.2,16.85-4.97c4.11,0.78,7.4,2.79,10.24,5.77
			C145.5,62.03,147.36,63.62,149.22,65.36z M101.69,121.94c0.05,0.09,0.1,0.17,0.15,0.26c2.65-0.72,5.15,0.1,7.68,0.68
			c3.21,0.73,5.76,2.57,7.93,4.91c3.35,3.6,4.66,8.06,4.7,12.87c0.07,9.56,0.02,19.12,0.02,28.68c0,0.47,0,0.93,0,1.44
			c5.18,0,10.19,0,15.35,0c0-0.55,0-1.02,0-1.49c0-8.76,0.04-17.52-0.02-26.28c-0.02-2.99,0.2-5.92,1.11-8.76
			c1.84-5.74,5.65-9.55,11.41-11.31c2.6-0.79,5.26-1.46,8.11-1c-9.4-8.81-18.8-17.63-28.22-26.45
			C120.43,104.37,111.06,113.16,101.69,121.94z"/>
		<path fill="#FFFFFF" d="M101.69,121.94c9.37-8.79,18.75-17.58,28.21-26.45c9.41,8.83,18.81,17.64,28.22,26.45
			c-2.85-0.46-5.51,0.21-8.11,1c-5.75,1.75-9.57,5.57-11.41,11.31c-0.91,2.84-1.13,5.77-1.11,8.76c0.07,8.76,0.02,17.52,0.02,26.28
			c0,0.47,0,0.94,0,1.49c-5.15,0-10.17,0-15.35,0c0-0.5,0-0.97,0-1.44c0-9.56,0.05-19.12-0.02-28.68c-0.04-4.81-1.35-9.27-4.7-12.87
			c-2.17-2.33-4.72-4.17-7.93-4.91c-2.53-0.58-5.03-1.4-7.68-0.68C101.79,122.12,101.74,122.03,101.69,121.94z"/>
	</g>
</g>
</svg>
