<?xml version="1.0" encoding="utf-8"?>
<!-- Generator: Adobe Illustrator 27.8.0, SVG Export Plug-In . SVG Version: 6.00 Build 0)  -->
<svg version="1.1" id="Capa_1" xmlns="http://www.w3.org/2000/svg" xmlns:xlink="http://www.w3.org/1999/xlink" x="0px" y="0px"
	 viewBox="0 0 259.2 259.2" enable-background="new 0 0 259.2 259.2" xml:space="preserve">
<g>
	<g>
		<path fill="#FFFFFF" d="M0,0c86.39,0,172.78,0,259.2,0c0,86.38,0,172.77,0,259.2c-86.38,0-172.79,0-259.2,0C0,172.83,0,86.42,0,0z
			 M113.31,118.66c-5.83,2.33-10.77,5.62-15.01,9.89c-8.46,8.52-12.54,19-12.85,30.89c-0.24,9.03-0.14,18.08,0,27.12
			c0.05,3.23,0.81,6.42,2.57,9.25c3.58,5.75,8.99,8.29,15.53,8.35c14.1,0.12,28.21,0.04,42.31,0.04c3.76,0,7.44-0.73,10.87-2.14
			c10.81-4.46,16.84-13.74,17.29-25.67c0.19-5.07,0-10.16,0.04-15.24c0.03-3.66-0.42-7.25-1.21-10.82
			c-3.11-14.18-11.42-24.19-24.27-30.61c-0.75-0.38-1.54-0.69-2.39-1.06c16.02-8.66,21.78-27.37,16.5-42.47
			c-4.68-13.36-16.61-23.28-32.68-23.45c-15.43-0.16-27.88,8.8-33.07,22.72c-2.87,7.7-2.99,15.55-0.36,23.4
			C99.52,107.63,105.22,114.04,113.31,118.66z"/>
		<path d="M113.31,118.66c-8.09-4.62-13.79-11.03-16.72-19.79c-2.62-7.85-2.51-15.7,0.36-23.4c5.19-13.92,17.64-22.88,33.07-22.72
			c16.07,0.16,28.01,10.09,32.68,23.45c5.28,15.1-0.48,33.81-16.5,42.47c0.84,0.37,1.63,0.68,2.39,1.06
			c12.85,6.42,21.17,16.43,24.27,30.61c0.78,3.57,1.24,7.16,1.21,10.82c-0.04,5.08,0.15,10.17-0.04,15.24
			c-0.45,11.93-6.48,21.21-17.29,25.67c-3.43,1.41-7.11,2.14-10.87,2.14c-14.1,0-28.21,0.08-42.31-0.04
			c-6.54-0.05-11.95-2.6-15.53-8.35c-1.76-2.83-2.52-6.02-2.57-9.25c-0.14-9.04-0.24-18.08,0-27.12
			c0.31-11.89,4.39-22.37,12.85-30.89C102.54,124.29,107.48,121,113.31,118.66z M110.95,152.67c-0.94,2.61-1.83,5.1-2.76,7.7
			c5.65,1.15,11.12,2.27,16.78,3.43c-3.92,5.03-7.72,9.89-11.55,14.81c2.31,1.6,4.5,3.11,6.78,4.68c3.23-5.41,6.39-10.7,9.62-16.13
			c3.21,5.45,6.32,10.73,9.5,16.13c2.31-1.6,4.52-3.13,6.77-4.69c-3.89-4.98-7.68-9.85-11.55-14.81c5.67-1.17,11.12-2.29,16.66-3.43
			c-0.9-2.67-1.74-5.15-2.59-7.7c-5.38,2.02-10.63,4-16.01,6.02c0.47-6.22,0.92-12.3,1.38-18.42c-2.86,0-5.63,0-8.47,0
			c0.46,6.16,0.91,12.21,1.37,18.42C121.46,156.64,116.25,154.67,110.95,152.67z"/>
		<path fill="#FFFFFF" d="M110.95,152.67c5.3,2,10.51,3.97,15.95,6.02c-0.46-6.21-0.91-12.27-1.37-18.42c2.84,0,5.61,0,8.47,0
			c-0.46,6.12-0.92,12.2-1.38,18.42c5.38-2.02,10.63-4,16.01-6.02c0.86,2.55,1.69,5.03,2.59,7.7c-5.55,1.14-11,2.26-16.66,3.43
			c3.87,4.96,7.66,9.82,11.55,14.81c-2.26,1.56-4.46,3.09-6.77,4.69c-3.18-5.4-6.29-10.69-9.5-16.13
			c-3.24,5.42-6.4,10.72-9.62,16.13c-2.28-1.58-4.47-3.09-6.78-4.68c3.84-4.92,7.63-9.78,11.55-14.81
			c-5.66-1.16-11.13-2.27-16.78-3.43C109.12,157.77,110.01,155.28,110.95,152.67z"/>
	</g>
</g>
</svg>
