<?xml version="1.0" encoding="utf-8"?>
<!-- Generator: Adobe Illustrator 27.8.0, SVG Export Plug-In . SVG Version: 6.00 Build 0)  -->
<svg version="1.1" id="Capa_1" xmlns="http://www.w3.org/2000/svg" xmlns:xlink="http://www.w3.org/1999/xlink" x="0px" y="0px"
	 viewBox="0 0 259.2 259.2" enable-background="new 0 0 259.2 259.2" xml:space="preserve">
<g>
	<g>
		<path fill="#FFFFFF" d="M0,259.2C0,172.81,0,86.41,0,0c86.39,0,172.78,0,259.2,0c0,86.39,0,172.79,0,259.2
			C172.81,259.2,86.41,259.2,0,259.2z M86.04,66.93c-2.1-0.65-4.1-1.38-6.17-1.89c-3.87-0.95-7.48,0.05-10.76,2.04
			c-5.08,3.09-7.18,7.98-7.19,13.68c-0.07,32.04-0.02,64.08-0.06,96.11c0,2.6,0.31,5.13,1.13,7.54c1.54,4.51,4.66,7.57,9.17,9.11
			c3.17,1.08,6.4,1.37,9.63,0.16c1.41-0.53,2.8-1.08,4.25-1.64c0.13,0.44,0.27,1.01,0.46,1.56c0.2,0.56,0.42,1.13,0.7,1.65
			c3.46,6.44,9.04,9.81,16.15,9.86c25.34,0.17,50.67,0.1,76.01,0.03c3.03-0.01,6.04-0.74,8.73-2.26c6.27-3.55,9.4-9.2,9.42-16.2
			c0.12-38.16,0.1-76.32-0.03-114.47c-0.01-2.82-0.78-5.87-2.02-8.42c-3.18-6.56-8.89-9.93-16.02-9.98
			c-25.42-0.18-50.83-0.13-76.25-0.01c-4.78,0.02-9.18,1.71-12.63,5.26C88.36,61.37,86.59,63.95,86.04,66.93z"/>
		<path d="M86.04,66.93c0.55-2.98,2.32-5.56,4.54-7.85c3.44-3.56,7.84-5.24,12.63-5.26c25.42-0.12,50.83-0.16,76.25,0.01
			c7.13,0.05,12.84,3.42,16.02,9.98c1.23,2.55,2.01,5.6,2.02,8.42c0.13,38.16,0.15,76.32,0.03,114.47c-0.02,7-3.15,12.65-9.42,16.2
			c-2.69,1.52-5.7,2.26-8.73,2.26c-25.34,0.07-50.67,0.15-76.01-0.03c-7.12-0.05-12.7-3.42-16.15-9.86c-0.28-0.53-0.5-1.09-0.7-1.65
			c-0.2-0.55-0.34-1.13-0.46-1.56c-1.45,0.56-2.84,1.12-4.25,1.64c-3.23,1.21-6.46,0.92-9.63-0.16c-4.51-1.54-7.63-4.6-9.17-9.11
			c-0.82-2.42-1.14-4.94-1.13-7.54c0.04-32.04-0.01-64.08,0.06-96.11c0.01-5.7,2.11-10.59,7.19-13.68c3.28-2,6.89-3,10.76-2.04
			C81.94,65.54,83.95,66.27,86.04,66.93z M141.19,93.83c10.43,0,20.86,0,31.28,0c3.93,0,6.42-2.51,6.43-6.46
			c0.01-2.96,0.01-5.92,0-8.88c-0.02-3.71-2.55-6.27-6.25-6.27c-20.94-0.01-41.87-0.01-62.81,0c-3.69,0-6.23,2.57-6.25,6.28
			c-0.01,2.88,0,5.76,0,8.64c0,4.27,2.41,6.69,6.68,6.69C120.57,93.83,130.88,93.83,141.19,93.83z M135.73,132.47
			c9.59,0,19.18,0,28.77,0c2.36,0,3.64-0.96,3.6-2.7c-0.04-1.69-1.28-2.59-3.6-2.59c-19.1,0-38.2,0-57.3,0c-0.4,0-0.8-0.02-1.2,0.02
			c-1.35,0.15-2.38,1.26-2.4,2.56c-0.03,1.37,1,2.53,2.4,2.68c0.4,0.04,0.8,0.02,1.2,0.02
			C116.71,132.47,126.22,132.47,135.73,132.47z M130.48,145.44c7.83,0,15.66,0,23.49,0c0.36,0,0.72,0.02,1.08-0.01
			c1.43-0.13,2.48-1.24,2.5-2.59c0.02-1.4-1.07-2.54-2.55-2.67c-0.28-0.02-0.56-0.01-0.84-0.01c-15.74,0-31.49,0-47.23,0
			c-0.28,0-0.56-0.01-0.84,0.01c-1.43,0.14-2.48,1.24-2.5,2.6c-0.02,1.41,1.06,2.54,2.55,2.66c0.36,0.03,0.72,0.01,1.08,0.01
			C114.98,145.44,122.73,145.44,130.48,145.44z M125.3,114.23c-5.47,0-10.95,0-16.42,0c-0.92,0-1.84-0.04-2.76,0.02
			c-1.44,0.09-2.49,1.2-2.53,2.56c-0.03,1.41,1.04,2.56,2.52,2.69c0.32,0.03,0.64,0.01,0.96,0.01c12.07,0,24.13,0,36.2,0
			c0.36,0,0.72,0.02,1.08-0.02c1.36-0.16,2.38-1.25,2.41-2.56c0.03-1.36-1-2.52-2.4-2.69c-0.35-0.04-0.72-0.02-1.08-0.02
			C137.29,114.23,131.29,114.23,125.3,114.23z M114.45,106.55c2.56,0,5.11,0.01,7.67,0c1.85-0.01,3.06-1.07,3.06-2.65
			c0-1.57-1.22-2.63-3.07-2.64c-5.15-0.01-10.3-0.01-15.46,0c-1.85,0-3.06,1.07-3.05,2.65c0.01,1.58,1.21,2.63,3.07,2.63
			C109.26,106.56,111.86,106.55,114.45,106.55z M92.71,187.63c0.06,0.5,0.09,1.02,0.19,1.51c1.11,5.12,5.46,8.56,10.84,8.57
			c11.95,0.01,23.9,0,35.85,0c13.11,0,26.22,0,39.33,0c3.43,0,6.32-1.24,8.56-3.86c1.06-1.24,1.83-2.62,2.11-4.25
			c-0.14,0.11-0.23,0.24-0.3,0.38c-2.31,5.1-6.31,7.56-11.85,7.56c-23.98,0.01-47.96,0.01-71.94-0.01c-1.22,0-2.49-0.11-3.67-0.43
			C96.94,195.78,94.08,192.48,92.71,187.63z M101.09,61.71c-4.18,0.31-8.78,5.76-8.17,9.48C93.91,66.6,96.58,63.51,101.09,61.71z
			 M189.12,66.57c-0.12,0.13-0.23,0.26-0.35,0.39c-1.04-1.88-2.45-3.37-4.34-4.38c0.12-0.12,0.23-0.23,0.35-0.35
			C186.23,63.68,187.68,65.13,189.12,66.57z"/>
		<path fill="#FFFFFF" d="M141.19,93.83c-10.31,0-20.62,0-30.92,0c-4.26,0-6.67-2.42-6.68-6.69c0-2.88-0.01-5.76,0-8.64
			c0.02-3.71,2.55-6.27,6.25-6.28c20.94-0.01,41.87-0.01,62.81,0c3.7,0,6.23,2.56,6.25,6.27c0.01,2.96,0.01,5.92,0,8.88
			c-0.01,3.95-2.5,6.46-6.43,6.46C162.05,93.84,151.62,93.83,141.19,93.83z"/>
		<path fill="#FFFFFF" d="M135.73,132.47c-9.51,0-19.02,0-28.53,0c-0.4,0-0.8,0.02-1.2-0.02c-1.41-0.16-2.43-1.31-2.4-2.68
			c0.03-1.31,1.05-2.41,2.4-2.56c0.4-0.04,0.8-0.02,1.2-0.02c19.1,0,38.2,0,57.3,0c2.32,0,3.56,0.89,3.6,2.59
			c0.04,1.74-1.24,2.7-3.6,2.7C154.91,132.47,145.32,132.47,135.73,132.47z"/>
		<path fill="#FFFFFF" d="M130.48,145.44c-7.75,0-15.5,0-23.25,0c-0.36,0-0.72,0.02-1.08-0.01c-1.49-0.12-2.57-1.26-2.55-2.66
			c0.02-1.36,1.07-2.46,2.5-2.6c0.28-0.03,0.56-0.01,0.84-0.01c15.74,0,31.49,0,47.23,0c0.28,0,0.56-0.01,0.84,0.01
			c1.48,0.12,2.57,1.26,2.55,2.67c-0.01,1.35-1.07,2.46-2.5,2.59c-0.36,0.03-0.72,0.01-1.08,0.01
			C146.14,145.44,138.31,145.44,130.48,145.44z"/>
		<path fill="#FFFFFF" d="M125.3,114.23c5.99,0,11.99,0,17.98,0c0.36,0,0.72-0.02,1.08,0.02c1.41,0.17,2.43,1.33,2.4,2.69
			c-0.03,1.31-1.04,2.4-2.41,2.56c-0.36,0.04-0.72,0.02-1.08,0.02c-12.07,0-24.13,0-36.2,0c-0.32,0-0.64,0.02-0.96-0.01
			c-1.48-0.13-2.55-1.28-2.52-2.69c0.03-1.36,1.09-2.47,2.53-2.56c0.92-0.06,1.84-0.02,2.76-0.02
			C114.35,114.23,119.83,114.23,125.3,114.23z"/>
		<path fill="#FFFFFF" d="M114.45,106.55c-2.6,0-5.19,0.01-7.79,0c-1.86-0.01-3.06-1.05-3.07-2.63c-0.01-1.57,1.21-2.64,3.05-2.65
			c5.15-0.01,10.3-0.01,15.46,0c1.85,0,3.06,1.06,3.07,2.64c0,1.58-1.21,2.64-3.06,2.65C119.56,106.56,117.01,106.55,114.45,106.55z
			"/>
		<path fill="#FFFFFF" d="M92.71,187.63c1.37,4.85,4.23,8.15,9.13,9.47c1.18,0.32,2.44,0.43,3.67,0.43
			c23.98,0.02,47.96,0.02,71.94,0.01c5.54,0,9.54-2.46,11.85-7.56c0.06-0.14,0.16-0.27,0.3-0.38c-0.28,1.62-1.06,3.01-2.11,4.25
			c-2.24,2.62-5.13,3.86-8.56,3.86c-13.11,0-26.22,0-39.33,0c-11.95,0-23.9,0.01-35.85,0c-5.38-0.01-9.73-3.45-10.84-8.57
			C92.8,188.65,92.78,188.14,92.71,187.63z"/>
		<path fill="#FFFFFF" d="M101.09,61.71c-4.51,1.8-7.18,4.88-8.17,9.48C92.31,67.47,96.91,62.02,101.09,61.71z"/>
		<path fill="#FFFFFF" d="M189.12,66.57c-1.45-1.44-2.89-2.89-4.34-4.33c-0.12,0.12-0.23,0.23-0.35,0.35
			c1.89,1.01,3.3,2.51,4.34,4.38C188.89,66.84,189.01,66.71,189.12,66.57z"/>
	</g>
</g>
</svg>
