<?xml version="1.0" encoding="utf-8"?>
<!-- Generator: Adobe Illustrator 27.8.0, SVG Export Plug-In . SVG Version: 6.00 Build 0)  -->
<svg version="1.1" id="Capa_1" xmlns="http://www.w3.org/2000/svg" xmlns:xlink="http://www.w3.org/1999/xlink" x="0px" y="0px"
	 viewBox="0 0 259.2 259.2" enable-background="new 0 0 259.2 259.2" xml:space="preserve">
<g>
	<g>
		<path fill="#FFFFFF" d="M0,259.2C0,172.81,0,86.41,0,0c86.38,0,172.77,0,259.2,0c0,86.39,0,172.79,0,259.2
			C172.81,259.2,86.41,259.2,0,259.2z M205.45,129.64c0-13.4,0.05-26.8-0.04-40.2c-0.02-2.85-0.53-5.71-0.92-8.55
			c-0.89-6.44-3.85-11.92-8.22-16.61c-6.63-7.1-15.17-10.31-24.6-10.39c-27.34-0.23-54.68-0.11-82.02-0.04
			c-2.85,0.01-5.7,0.52-8.54,0.92c-7,0.99-12.83,4.33-17.71,9.31c-6.37,6.51-9.23,14.65-9.3,23.52c-0.22,27.12-0.06,54.24-0.1,81.36
			c-0.01,3.51,0.52,6.9,1.15,10.33c1.11,6.09,3.99,11.21,8.11,15.64c6.62,7.11,15.18,10.28,24.62,10.36
			c27.34,0.22,54.68,0.11,82.02,0.04c2.85-0.01,5.7-0.53,8.54-0.93c6.43-0.9,11.91-3.87,16.59-8.24
			c7.06-6.6,10.16-15.11,10.36-24.51C205.67,157.65,205.45,143.64,205.45,129.64z"/>
		<path d="M205.45,129.64c0,14,0.22,28.01-0.08,42c-0.2,9.41-3.3,17.91-10.36,24.51c-4.68,4.38-10.15,7.34-16.59,8.24
			c-2.84,0.4-5.69,0.92-8.54,0.93c-27.34,0.07-54.68,0.19-82.02-0.04c-9.44-0.08-18-3.25-24.62-10.36c-4.12-4.42-7-9.55-8.11-15.64
			c-0.63-3.43-1.16-6.82-1.15-10.33c0.04-27.12-0.11-54.24,0.1-81.36c0.07-8.86,2.93-17.01,9.3-23.52
			c4.88-4.98,10.71-8.32,17.71-9.31c2.84-0.4,5.69-0.91,8.54-0.92c27.34-0.07,54.68-0.19,82.02,0.04
			c9.44,0.08,17.98,3.29,24.6,10.39c4.37,4.69,7.34,10.16,8.22,16.61c0.39,2.84,0.9,5.7,0.92,8.55
			C205.51,102.84,205.45,116.24,205.45,129.64z M160.34,74.45c-0.37-0.02-0.56-0.04-0.76-0.04c-24.18,0-48.36-0.01-72.54,0.02
			c-1.1,0-2.25,0.13-3.3,0.47c-5.58,1.76-9.23,6.95-9.2,12.88c0.11,24.52,0.05,49.04,0.05,73.56c0,3.6-0.05,7.2,0.01,10.8
			c0.08,5.05,2.5,8.7,6.83,11.18c2.01,1.15,4.17,1.48,6.45,1.48c27.86-0.02,55.71,0,83.57-0.03c1.42,0,2.91-0.07,4.26-0.48
			c5.57-1.71,9.23-6.91,9.21-12.87c-0.11-23.72-0.05-47.44-0.05-71.16c0-0.38,0-0.76,0-1.54c-1.74,1.96-3.73,2.85-5.92,2.73
			c-2.16-0.12-4.21-0.88-5.47-2.96c-0.26,0.23-0.41,0.35-0.56,0.48c-1.86,1.75-3.73,3.49-5.55,5.28c-0.22,0.21-0.29,0.68-0.25,1.01
			c0.11,1.07,0.45,2.13,0.45,3.19c0.03,14.08,0.07,28.16-0.02,42.24c-0.02,2.84-0.68,5.66-2.1,8.17c-3.19,5.66-8.28,8.48-14.59,8.56
			c-14.11,0.19-28.22,0.11-42.32,0.02c-2.83-0.02-5.65-0.69-8.15-2.14c-5.63-3.25-8.38-8.36-8.46-14.67
			c-0.18-14.04-0.11-28.08-0.01-42.12c0.02-2.95,0.71-5.89,2.26-8.49c3.35-5.63,8.53-8.23,14.89-8.29
			c13.79-0.12,27.58-0.04,41.36-0.03c0.83,0,1.73-0.02,2.49,0.25c1.4,0.51,2.29,0.19,3.01-1.12c0.33-0.61,0.97-1.05,1.49-1.55
			c1.13-1.12,2.26-2.23,3.4-3.36C157.37,83.15,156.68,78.47,160.34,74.45z M163.94,98.72c5.1-5.1,10.15-10.16,15.28-15.29
			c0,3.68,0,7.35,0,11.4c1.31-1.36,2.39-2.42,3.38-3.57c0.35-0.41,0.62-1.03,0.63-1.55c0.05-4.2,0.03-8.39,0.02-12.59
			c0-0.34-0.05-0.68-0.08-1.09c-4.73,0-9.36,0-13.99,0c-0.19,0-0.45-0.01-0.57,0.1c-1.3,1.24-2.57,2.51-3.85,3.77
			c0.06,0.09,0.12,0.18,0.18,0.27c3.65,0,7.3,0,11.19,0c-5.23,5.23-10.29,10.29-15.38,15.38C161.78,96.59,162.69,97.49,163.94,98.72
			z"/>
		<path fill="#FFFFFF" d="M160.34,74.45c-3.67,4.02-2.97,8.7,0.47,11.48c-1.14,1.13-2.28,2.24-3.4,3.36
			c-0.51,0.51-1.15,0.95-1.49,1.55c-0.72,1.31-1.61,1.62-3.01,1.12c-0.76-0.28-1.65-0.25-2.49-0.25
			c-13.79-0.01-27.58-0.09-41.36,0.03c-6.36,0.06-11.53,2.66-14.89,8.29c-1.55,2.6-2.24,5.54-2.26,8.49
			c-0.1,14.04-0.17,28.08,0.01,42.12c0.08,6.31,2.83,11.42,8.46,14.67c2.51,1.45,5.33,2.12,8.15,2.14
			c14.11,0.1,28.22,0.18,42.32-0.02c6.31-0.09,11.4-2.9,14.59-8.56c1.42-2.51,2.08-5.33,2.1-8.17c0.08-14.08,0.05-28.16,0.02-42.24
			c0-1.06-0.34-2.12-0.45-3.19c-0.04-0.33,0.04-0.8,0.25-1.01c1.83-1.79,3.7-3.53,5.55-5.28c0.14-0.13,0.29-0.25,0.56-0.48
			c1.26,2.09,3.31,2.84,5.47,2.96c2.19,0.12,4.17-0.77,5.92-2.73c0,0.77,0,1.16,0,1.54c0,23.72-0.07,47.44,0.05,71.16
			c0.03,5.96-3.64,11.16-9.21,12.87c-1.34,0.41-2.83,0.48-4.26,0.48c-27.86,0.03-55.71,0.01-83.57,0.03c-2.28,0-4.45-0.33-6.45-1.48
			c-4.33-2.47-6.75-6.13-6.83-11.18c-0.06-3.6-0.01-7.2-0.01-10.8c0-24.52,0.07-49.04-0.05-73.56c-0.03-5.93,3.62-11.12,9.2-12.88
			c1.05-0.33,2.2-0.46,3.3-0.47c24.18-0.03,48.36-0.02,72.54-0.02C159.78,74.41,159.97,74.43,160.34,74.45z"/>
		<path fill="#FFFFFF" d="M163.94,98.72c-1.25-1.24-2.16-2.13-3.2-3.17c5.09-5.09,10.15-10.15,15.38-15.38c-3.89,0-7.54,0-11.19,0
			c-0.06-0.09-0.12-0.18-0.18-0.27c1.28-1.26,2.55-2.53,3.85-3.77c0.12-0.11,0.38-0.1,0.57-0.1c4.63-0.01,9.26,0,13.99,0
			c0.03,0.4,0.08,0.75,0.08,1.09c0.01,4.2,0.03,8.4-0.02,12.59c-0.01,0.53-0.28,1.15-0.63,1.55c-0.99,1.15-2.08,2.21-3.38,3.57
			c0-4.05,0-7.72,0-11.4C174.09,88.56,169.04,93.62,163.94,98.72z"/>
	</g>
</g>
</svg>
