<?xml version="1.0" encoding="utf-8"?>
<!-- Generator: Adobe Illustrator 27.8.0, SVG Export Plug-In . SVG Version: 6.00 Build 0)  -->
<svg version="1.1" id="Capa_1" xmlns="http://www.w3.org/2000/svg" xmlns:xlink="http://www.w3.org/1999/xlink" x="0px" y="0px"
	 viewBox="0 0 768 768" enable-background="new 0 0 768 768" xml:space="preserve">
<g>
	<g>
		<path fill="#2E8D6A" d="M384.01,767.93c-126.85,0-253.7-0.01-380.55,0.07C0.68,768,0,767.41,0,764.57
			c0.08-253.7,0.08-507.4,0-761.11C0,0.68,0.59,0,3.43,0c253.7,0.08,507.4,0.08,761.11,0.01c2.78,0,3.46,0.58,3.46,3.43
			c-0.08,253.7-0.08,507.4-0.01,761.11c0,2.78-0.58,3.46-3.43,3.46C637.72,767.92,510.86,767.93,384.01,767.93z M385.3,624.7
			c50.99,0,101.97,0.01,152.96-0.01c11.6,0,17.34-6.51,14.92-17.82c-2.5-11.7-3.94-23.61-7.21-35.13c-0.94-3.31,0.06-4.12,3.3-4.1
			c15.24,0.12,30.49,0.16,45.74,0c4.84-0.05,9.73-0.47,14.49-1.3c13.03-2.26,23.41-9.46,32.91-18.22
			c5.4-4.98,9.24-11.06,12.99-17.28c5.71-9.47,9.71-19.47,9.73-30.62c0.11-47.24,0-94.47,0.11-141.71
			c0.02-9.38-1.52-18.21-5.53-26.81c-6.67-14.33-17.32-24.95-30.23-33.4c-2.82-1.85-4.32-3.6-5.03-6.71
			c-2.41-10.55-7.39-19.86-14.69-27.77c-12.21-13.21-27.6-19.26-45.47-19.28c-9.37-0.01-18.74,0-28.12,0
			c-5.16,0-5.18-0.01-5.18-5.16c-0.01-25.99-0.21-51.99,0.07-77.98c0.13-11.54-9.52-25.75-25.5-25.7
			c-79.1,0.26-158.21,0.11-237.31,0.17c-3.46,0-7.02,0.34-10.37,1.18c-10.27,2.58-16.98,11.61-17.08,22.71
			c-0.1,11.58-0.04,23.15-0.05,34.73c0,14.75,0.01,29.49-0.01,44.24c0,5.51-0.29,5.79-5.65,5.79c-10.5,0.01-21-0.23-31.49,0.09
			c-12.34,0.37-23.96,3.47-33.69,11.47c-12.09,9.93-20.77,22.12-23.58,37.87c-0.26,1.47-0.7,2.48-2.15,3.18
			c-10.7,5.17-18.94,13.08-25.77,22.73c-8.71,12.3-13.3,25.87-13.32,40.9c-0.06,43.86-0.03,87.73-0.01,131.59
			c0,13.72,2.58,27,9.92,38.65c14.19,22.53,33.47,37.05,61.53,36.73c15.12-0.17,30.24,0.02,45.36-0.07c3.16-0.02,4.2,0.85,3.5,4.19
			c-2.39,11.34-4.52,22.74-6.71,34.12c-0.52,2.69-0.98,5.43-0.55,8.16c1.05,6.57,6.45,10.57,14.21,10.57
			C283.33,624.71,334.32,624.7,385.3,624.7z"/>
		<path fill="#1D6E53" d="M385.3,624.7c-50.99,0-101.97,0.01-152.96-0.01c-7.76,0-13.16-4-14.21-10.57
			c-0.43-2.72,0.03-5.47,0.55-8.16c2.18-11.38,4.32-22.78,6.71-34.12c0.7-3.34-0.33-4.21-3.5-4.19c-15.12,0.09-30.24-0.1-45.36,0.07
			c-28.05,0.32-47.34-14.2-61.53-36.73c-7.34-11.65-9.91-24.92-9.92-38.65c-0.01-43.86-0.04-87.73,0.01-131.59
			c0.02-15.03,4.61-28.6,13.32-40.9c6.83-9.64,15.07-17.55,25.77-22.73c1.45-0.7,1.89-1.71,2.15-3.18
			c2.81-15.76,11.5-27.94,23.58-37.87c9.73-8,21.36-11.1,33.69-11.47c10.49-0.32,20.99-0.08,31.49-0.09
			c5.35-0.01,5.64-0.29,5.65-5.79c0.01-14.75,0-29.49,0.01-44.24c0-11.58-0.05-23.16,0.05-34.73c0.09-11.1,6.8-20.13,17.08-22.71
			c3.35-0.84,6.91-1.18,10.37-1.18c79.1-0.07,158.21,0.09,237.31-0.17c15.99-0.05,25.63,14.16,25.5,25.7
			c-0.29,25.99-0.09,51.99-0.07,77.98c0,5.14,0.02,5.15,5.18,5.16c9.37,0.01,18.74-0.01,28.12,0c17.87,0.02,33.26,6.06,45.47,19.28
			c7.31,7.91,12.28,17.23,14.69,27.77c0.71,3.1,2.21,4.86,5.03,6.71c12.92,8.45,23.57,19.07,30.23,33.4c4,8.6,5.55,17.44,5.53,26.81
			c-0.1,47.24,0,94.47-0.11,141.71c-0.03,11.15-4.03,21.15-9.73,30.62c-3.75,6.23-7.6,12.31-12.99,17.28
			c-9.5,8.76-19.88,15.96-32.91,18.22c-4.77,0.83-9.65,1.24-14.49,1.3c-15.24,0.16-30.49,0.12-45.74,0c-3.23-0.03-4.24,0.78-3.3,4.1
			c3.28,11.52,4.71,23.44,7.21,35.13c2.42,11.31-3.32,17.82-14.92,17.82C487.27,624.71,436.29,624.7,385.3,624.7z M385.88,309.15
			c0-0.01,0-0.02,0-0.03c-23.12,0-46.24-0.01-69.36,0c-48.61,0.02-97.23,0.1-145.84,0.02c-11.68-0.02-21.29,5.49-29.74,12.21
			c-4.47,3.56-8.48,8.91-10.81,14.82c-1.89,4.78-4.59,9.38-4.6,14.63c-0.14,48.86-0.09,97.73-0.27,146.59
			c-0.06,14.82,5.03,27.11,16.11,37.04c7.63,6.84,16.1,12.47,26.43,12.82c19.85,0.67,39.73,0.36,59.6,0.48
			c1.44,0.01,2.37-0.4,2.64-1.96c1.05-5.89,2.12-11.79,3.26-17.66c0.33-1.73-0.03-2.46-1.98-2.38c-3.49,0.13-7-0.11-10.49,0.04
			c-2.19,0.09-2.71-0.73-2.71-2.81c0.08-23.12,0.03-46.24,0.13-69.36c0.02-3.74,0.86-7.39,2.62-10.78
			c5.52-10.63,14.55-15.25,26.2-15.25c54.49-0.03,108.97-0.04,163.46-0.04c38.37,0,76.73-0.04,115.1,0.09
			c14.45,0.05,24.82,9.18,27.32,23.31c0.79,4.49,0.37,8.97,0.38,13.46c0.03,19.12-0.08,38.24,0.01,57.36
			c0.01,3.03-0.79,4.28-3.99,3.98c-2.97-0.28-6-0.01-8.99-0.13c-2-0.08-2.5,0.45-2.03,2.54c1.19,5.35,2.25,10.75,3.01,16.17
			c0.38,2.73,1.53,3.39,4.12,3.38c17.12-0.09,34.24,0.01,51.36-0.03c3.11-0.01,6.21-0.14,9.32-0.71
			c21.21-3.9,39.46-25.33,39.39-48.76c-0.14-46.99-0.65-93.99,0.14-140.96c0.42-25.15-24.49-48.47-47.97-48.28
			C527.1,309.51,456.49,309.15,385.88,309.15z M385.5,604.51c0-0.01,0-0.02,0-0.03c47.49,0,94.98-0.02,142.47,0.05
			c2.92,0,4.32-0.3,3.62-3.8c-8.68-43.07-17.3-86.16-25.74-129.28c-0.65-3.34-1.83-4.5-5-4.08c-0.98,0.13-2,0.02-3,0.01
			c-75.36-0.02-150.72-0.06-226.08-0.05c-7.21,0-5.55-1.35-6.95,5.65c-5.36,26.74-10.5,53.52-15.69,80.29
			c-3.08,15.88-6.03,31.78-9.23,47.64c-0.62,3.09,0.14,3.67,3.13,3.66C290.52,604.48,338.01,604.51,385.5,604.51z M385.89,156.18
			c0-0.02,0-0.03,0-0.05c-39.98,0-79.96,0.03-119.94-0.06c-2.77-0.01-3.86,0.46-3.85,3.56c0.04,38.73-0.05,77.46-0.13,116.19
			c-0.01,2.6,0.09,5.17-0.41,7.81c-0.5,2.63,0.35,4.74,3.99,4.52c4.73-0.29,9.49-0.09,14.24-0.08c75.09,0.01,150.18,0,225.26,0.08
			c3.03,0,4.27-0.41,4.26-3.98c-0.16-41.1-0.15-82.21-0.03-123.31c0.01-3.56-0.57-4.8-4.57-4.78
			C465.1,156.25,425.5,156.18,385.89,156.18z M605.6,288.2c-7.22-12.55-16.82-20.88-30.83-22.61c-13.26-1.64-26.67-0.21-40-0.75
			c-2.3-0.09-2.31,1.22-2.3,2.82c0.03,5.61,0.19,11.23-0.05,16.83c-0.13,2.99,0.82,3.73,3.73,3.72c20.45-0.1,40.91-0.03,61.36-0.02
			C599.95,288.21,602.4,288.2,605.6,288.2z M165.65,288.2c23.72,0,46.93-0.02,70.15,0.03c1.95,0,2.24-0.97,2.23-2.56
			c-0.02-5.75-0.1-11.5,0.12-17.24c0.11-2.91-0.99-3.56-3.7-3.52c-9.87,0.14-19.74,0.19-29.61,0c-10.8-0.21-20.56,2.55-28.8,9.63
			C171.79,278.18,168.12,282.44,165.65,288.2z"/>
		<path fill="#FCFDFD" d="M385.88,309.15c70.61,0,141.22,0.36,211.82-0.2c23.48-0.19,48.4,23.13,47.97,48.28
			c-0.79,46.97-0.28,93.97-0.14,140.96c0.07,23.44-18.18,44.86-39.39,48.76c-3.11,0.57-6.21,0.7-9.32,0.71
			c-17.12,0.04-34.24-0.06-51.36,0.03c-2.6,0.01-3.74-0.64-4.12-3.38c-0.76-5.43-1.82-10.82-3.01-16.17
			c-0.47-2.09,0.03-2.62,2.03-2.54c3,0.12,6.02-0.16,8.99,0.13c3.19,0.3,4-0.95,3.99-3.98c-0.09-19.12,0.02-38.24-0.01-57.36
			c-0.01-4.48,0.41-8.97-0.38-13.46c-2.49-14.13-12.87-23.26-27.32-23.31c-38.37-0.13-76.73-0.09-115.1-0.09
			c-54.49,0-108.97,0.01-163.46,0.04c-11.66,0.01-20.68,4.62-26.2,15.25c-1.76,3.4-2.6,7.05-2.62,10.78
			c-0.1,23.12-0.05,46.24-0.13,69.36c-0.01,2.08,0.52,2.9,2.71,2.81c3.49-0.15,7,0.09,10.49-0.04c1.95-0.07,2.31,0.65,1.98,2.38
			c-1.13,5.88-2.21,11.77-3.26,17.66c-0.28,1.56-1.2,1.97-2.64,1.96c-19.87-0.12-39.75,0.19-59.6-0.48
			c-10.33-0.35-18.8-5.98-26.43-12.82c-11.08-9.93-16.17-22.22-16.11-37.04c0.18-48.86,0.13-97.73,0.27-146.59
			c0.02-5.25,2.71-9.85,4.6-14.63c2.34-5.9,6.34-11.26,10.81-14.82c8.45-6.72,18.06-12.23,29.74-12.21
			c48.61,0.08,97.23-0.01,145.84-0.02c23.12-0.01,46.24,0,69.36,0C385.88,309.13,385.88,309.14,385.88,309.15z M388.14,341.01
			c-11.49,0-22.99-0.07-34.48,0.02c-9.33,0.08-14.72,5.27-14.95,14.54c-0.2,7.99-0.2,15.99-0.01,23.98c0.21,9,5.46,14.62,14.5,14.71
			c22.98,0.24,45.98,0.26,68.96-0.04c9.81-0.13,15.1-6.31,15.12-16.24c0.01-6.87,0.01-13.74-0.01-20.61
			c-0.03-11.35-5.04-16.34-16.52-16.37C409.88,340.98,399.01,341,388.14,341.01z M564.15,383.24c8.36,0,16.72,0.15,25.07-0.04
			c7.9-0.19,13.71-6.31,13.65-13.93c-0.07-8.14-5.72-13.74-14.05-13.76c-16.09-0.03-32.19,0.01-48.28,0.02
			c-2.91,0-5.71,0.42-8.21,2.06c-4.99,3.27-7.26,9.74-5.58,15.83c1.64,5.91,6.44,9.66,13.07,9.79
			C547.93,383.35,556.04,383.24,564.15,383.24z M200.8,368.66c-0.15,13.21,10.61,24.24,23.77,24.37
			c13.86,0.13,25.1-10.24,25.24-23.29c0.15-14.21-10.49-25.33-24.35-25.44C211.87,344.2,200.96,354.97,200.8,368.66z M477,378.98
			c0-0.01,0-0.02,0-0.03c4.87,0,9.74,0.14,14.6-0.04c4.6-0.17,7.99-3.72,8.14-8.12c0.15-4.31-2.81-8.19-7.41-8.32
			c-9.97-0.28-19.98-0.26-29.94,0.18c-5.1,0.22-7.98,4.01-7.59,8.41c0.44,4.89,3.55,7.78,8.71,7.89
			C468.01,379.06,472.51,378.98,477,378.98z M311.06,380.35c6.24-0.02,11.44-5.03,11.39-10.97c-0.05-6.16-5.07-11.04-11.28-10.96
			c-6.02,0.08-10.8,4.91-10.86,10.99C300.25,375.61,304.93,380.37,311.06,380.35z M281.01,380.31c6.42,0.01,11.41-4.63,11.52-10.71
			c0.11-6.01-4.74-11.07-10.67-11.14c-6.2-0.07-11.1,4.77-11.17,11.03C270.63,375.67,275.03,380.3,281.01,380.31z M180.79,379.54
			c5.71,0.08,10.23-4.41,10.21-10.14c-0.01-5.1-4.09-9.21-9.27-9.33c-5.46-0.13-9.85,4.09-9.87,9.5
			C171.84,375.25,175.62,379.47,180.79,379.54z"/>
		<path fill="#FCFDFD" d="M385.5,604.51c-47.49,0-94.98-0.03-142.47,0.06c-2.99,0.01-3.75-0.57-3.13-3.66
			c3.2-15.86,6.15-31.76,9.23-47.64c5.19-26.77,10.33-53.55,15.69-80.29c1.4-7-0.26-5.65,6.95-5.65
			c75.36-0.01,150.72,0.02,226.08,0.05c1,0,2.01,0.12,3-0.01c3.17-0.42,4.35,0.75,5,4.08c8.44,43.12,17.06,86.2,25.74,129.28
			c0.71,3.51-0.7,3.81-3.62,3.8c-47.49-0.07-94.98-0.05-142.47-0.05C385.5,604.49,385.5,604.5,385.5,604.51z"/>
		<path fill="#FCFDFD" d="M385.89,156.18c39.61,0,79.21,0.07,118.82-0.11c4-0.02,4.58,1.23,4.57,4.78
			c-0.12,41.1-0.12,82.21,0.03,123.31c0.01,3.57-1.23,3.98-4.26,3.98c-75.09-0.08-150.18-0.08-225.26-0.08
			c-4.75,0-9.51-0.21-14.24,0.08c-3.65,0.23-4.49-1.89-3.99-4.52c0.5-2.64,0.41-5.21,0.41-7.81c0.08-38.73,0.17-77.46,0.13-116.19
			c0-3.09,1.09-3.57,3.85-3.56c39.98,0.09,79.96,0.06,119.94,0.06C385.89,156.15,385.89,156.16,385.89,156.18z"/>
		<path fill="#FCFDFD" d="M605.6,288.2c-3.2,0-5.64,0-8.09,0c-20.45-0.01-40.91-0.08-61.36,0.02c-2.9,0.01-3.86-0.73-3.73-3.72
			c0.24-5.6,0.08-11.22,0.05-16.83c-0.01-1.61,0-2.92,2.3-2.82c13.33,0.55,26.73-0.88,40,0.75
			C588.77,267.33,598.37,275.65,605.6,288.2z"/>
		<path fill="#FCFDFD" d="M165.65,288.2c2.47-5.76,6.14-10.02,10.38-13.67c8.23-7.08,18-9.84,28.8-9.63
			c9.87,0.19,19.74,0.14,29.61,0c2.71-0.04,3.81,0.61,3.7,3.52c-0.22,5.74-0.14,11.49-0.12,17.24c0.01,1.59-0.28,2.57-2.23,2.56
			C212.59,288.18,189.37,288.2,165.65,288.2z"/>
		<path fill="#1D6E53" d="M388.14,341.01c10.87,0,21.74-0.03,32.61,0c11.48,0.03,16.49,5.02,16.52,16.37
			c0.02,6.87,0.02,13.74,0.01,20.61c-0.01,9.93-5.31,16.11-15.12,16.24c-22.98,0.3-45.98,0.28-68.96,0.04
			c-9.04-0.09-14.29-5.71-14.5-14.71c-0.19-7.99-0.18-15.99,0.01-23.98c0.23-9.28,5.61-14.47,14.95-14.54
			C365.15,340.94,376.64,341.01,388.14,341.01z"/>
		<path fill="#1D6E53" d="M564.15,383.24c-8.11,0-16.22,0.11-24.33-0.04c-6.63-0.12-11.44-3.87-13.07-9.79
			c-1.69-6.1,0.59-12.56,5.58-15.83c2.5-1.64,5.3-2.06,8.21-2.06c16.09-0.01,32.19-0.06,48.28-0.02
			c8.33,0.02,13.98,5.62,14.05,13.76c0.07,7.62-5.75,13.74-13.65,13.93C580.87,383.39,572.51,383.24,564.15,383.24z"/>
		<path fill="#1D6E53" d="M200.8,368.66c0.16-13.69,11.07-24.46,24.66-24.35c13.85,0.11,24.5,11.23,24.35,25.44
			c-0.14,13.05-11.38,23.42-25.24,23.29C211.42,392.91,200.65,381.87,200.8,368.66z"/>
		<path fill="#1D6E53" d="M477,378.98c-4.49,0-8.99,0.08-13.48-0.02c-5.16-0.11-8.28-3.01-8.71-7.89c-0.4-4.4,2.48-8.19,7.59-8.41
			c9.97-0.44,19.97-0.46,29.94-0.18c4.6,0.13,7.56,4.01,7.41,8.32c-0.15,4.4-3.54,7.96-8.14,8.12c-4.86,0.18-9.74,0.04-14.6,0.04
			C477,378.96,477,378.97,477,378.98z"/>
		<path fill="#1D6E53" d="M311.06,380.35c-6.14,0.02-10.81-4.74-10.75-10.94c0.06-6.08,4.84-10.92,10.86-10.99
			c6.21-0.08,11.23,4.8,11.28,10.96C322.5,375.32,317.31,380.33,311.06,380.35z"/>
		<path fill="#1D6E53" d="M281.01,380.31c-5.98-0.01-10.39-4.63-10.32-10.83c0.07-6.26,4.97-11.1,11.17-11.03
			c5.94,0.07,10.79,5.13,10.67,11.14C292.42,375.68,287.43,380.32,281.01,380.31z"/>
		<path fill="#1D6E53" d="M180.79,379.54c-5.17-0.07-8.95-4.29-8.93-9.97c0.02-5.41,4.41-9.63,9.87-9.5
			c5.17,0.12,9.25,4.23,9.27,9.33C191.02,375.14,186.5,379.62,180.79,379.54z"/>
	</g>
</g>
</svg>
