<?xml version="1.0" encoding="utf-8"?>
<!-- Generator: Adobe Illustrator 27.8.0, SVG Export Plug-In . SVG Version: 6.00 Build 0)  -->
<svg version="1.1" id="Capa_1" xmlns="http://www.w3.org/2000/svg" xmlns:xlink="http://www.w3.org/1999/xlink" x="0px" y="0px"
	 viewBox="0 0 259.2 259.2" enable-background="new 0 0 259.2 259.2" xml:space="preserve">
<g>
	<g>
		<path fill="#FFFFFF" d="M259.2,259.2c-86.39,0-172.79,0-259.2,0C0,172.81,0,86.42,0,0c86.39,0,172.79,0,259.2,0
			C259.2,86.39,259.2,172.8,259.2,259.2z M113.29,118.62c-0.46,0.2-0.74,0.33-1.03,0.45c-5.34,2.24-10.05,5.46-14.09,9.57
			c-8.37,8.49-12.41,18.9-12.73,30.7c-0.25,9.07-0.15,18.16,0,27.23c0.05,3.19,0.79,6.35,2.52,9.14c3.56,5.76,8.95,8.35,15.5,8.41
			c14.14,0.13,28.29,0.04,42.43,0.04c3.76,0,7.44-0.73,10.87-2.15c10.79-4.48,16.76-13.71,17.25-25.58
			c0.2-4.83-0.02-9.68,0.05-14.52c0.06-4.23-0.49-8.35-1.4-12.48c-1.98-8.94-6.5-16.36-13.2-22.47c-3.89-3.54-8.27-6.37-13.39-8.35
			c10.09-5.72,16.26-14.14,18.06-25.47c1.79-11.34-1.33-21.39-9.22-29.68c-13.6-14.3-36.67-14.53-50.67,0.17
			c-6.85,7.19-10.06,16.02-9.43,25.85C95.62,102.36,101.85,112.17,113.29,118.62z"/>
		<path d="M113.29,118.62c-11.43-6.46-17.66-16.26-18.49-29.13c-0.63-9.84,2.58-18.66,9.43-25.85c14-14.7,37.07-14.47,50.67-0.17
			c7.89,8.29,11.02,18.34,9.22,29.68c-1.79,11.34-7.96,19.76-18.06,25.47c5.12,1.98,9.5,4.8,13.39,8.35
			c6.7,6.11,11.22,13.53,13.2,22.47c0.91,4.12,1.46,8.25,1.4,12.48c-0.07,4.84,0.15,9.69-0.05,14.52
			c-0.49,11.87-6.45,21.1-17.25,25.58c-3.43,1.42-7.11,2.15-10.87,2.15c-14.14,0.01-28.29,0.09-42.43-0.04
			c-6.54-0.06-11.93-2.65-15.5-8.41c-1.73-2.8-2.47-5.95-2.52-9.14c-0.15-9.08-0.25-18.16,0-27.23c0.32-11.8,4.37-22.21,12.73-30.7
			c4.04-4.1,8.75-7.32,14.09-9.57C112.55,118.95,112.83,118.82,113.29,118.62z M126.33,157.8c-6.59,0-13.08,0-19.58,0
			c0,2.26,0,4.37,0,6.61c6.54,0,13.03,0,19.65,0c0,6.63,0,13.12,0,19.6c2.24,0,4.34,0,6.6,0c0-6.56,0-13.05,0-19.65
			c6.61,0,13.06,0,19.55,0c0-2.22,0-4.32,0-6.61c-6.55,0-13.03,0-19.65,0c0-6.65,0-13.1,0-19.57c-2.25,0-4.36,0-6.57,0
			C126.33,144.71,126.33,151.18,126.33,157.8z"/>
		<path fill="#FFFFFF" d="M126.33,157.8c0-6.62,0-13.08,0-19.63c2.21,0,4.31,0,6.57,0c0,6.46,0,12.92,0,19.57c6.62,0,13.1,0,19.65,0
			c0,2.29,0,4.39,0,6.61c-6.48,0-12.93,0-19.55,0c0,6.61,0,13.1,0,19.65c-2.26,0-4.36,0-6.6,0c0-6.48,0-12.97,0-19.6
			c-6.62,0-13.11,0-19.65,0c0-2.24,0-4.35,0-6.61C113.25,157.8,119.73,157.8,126.33,157.8z"/>
	</g>
</g>
</svg>
