<?xml version="1.0" encoding="utf-8"?>
<!-- Generator: Adobe Illustrator 27.8.0, SVG Export Plug-In . SVG Version: 6.00 Build 0)  -->
<svg version="1.1" id="Capa_1" xmlns="http://www.w3.org/2000/svg" xmlns:xlink="http://www.w3.org/1999/xlink" x="0px" y="0px"
	 viewBox="0 0 259.2 259.2" enable-background="new 0 0 259.2 259.2" xml:space="preserve">
<g>
	<g>
		<path fill="#FFFFFF" d="M0,259.2C0,172.81,0,86.41,0,0c86.39,0,172.78,0,259.2,0c0,86.39,0,172.79,0,259.2
			C172.81,259.2,86.4,259.2,0,259.2z M127.81,221.97c52.89,0.44,94.05-41.71,94.29-91.83c0.25-50.92-41.4-92.93-92.38-92.94
			c-50.8-0.01-92.54,41.81-92.36,92.33c0.1,26.76,10.03,49.47,29.36,67.68C84.26,213.74,105.43,222.04,127.81,221.97z"/>
		<path d="M127.81,221.97c-22.38,0.08-43.54-8.23-61.08-24.75c-19.33-18.22-29.26-40.92-29.36-67.68
			c-0.19-50.52,41.55-92.34,92.36-92.33c50.98,0.01,92.63,42.01,92.38,92.94C221.86,180.26,180.7,222.41,127.81,221.97z
			 M129.6,197.76c37.52,0.5,68.01-30.67,68.29-67.46c0.29-38.22-30.83-68.87-68.04-68.91c-37.58-0.04-68.33,30.65-68.35,68.3
			C61.47,166.93,92.19,198.16,129.6,197.76z"/>
		<path fill="#FFFFFF" d="M129.6,197.76c-37.4,0.39-68.12-30.83-68.1-68.06c0.02-37.65,30.77-68.34,68.35-68.3
			c37.22,0.03,68.34,30.69,68.04,68.91C197.61,167.09,167.12,198.27,129.6,197.76z M138.7,97.27c0-2.2,0-4.4,0-6.6
			c0-4,0.03-8-0.01-12c-0.03-4.04-2.36-7.66-5.65-8.87c-3.74-1.38-8.12,0.05-10.35,3.36c-1.16,1.72-1.63,3.61-1.63,5.66
			c0,12.44,0,24.87,0.01,37.31c0,0.76-0.15,1.27-0.81,1.82c-2.95,2.46-4.89,5.54-5.42,9.42c-0.05,0.35-0.21,0.81-0.48,0.97
			c-2.02,1.25-4.07,2.47-6.14,3.65c-1.56,0.89-3.18,1.65-4.74,2.54c-3.58,2.07-7.1,4.25-10.71,6.27c-3.89,2.18-6.72,7.53-3.88,12.35
			c2.6,4.41,7.48,5.59,11.47,3.84c2.18-0.95,4.18-2.3,6.25-3.5c5.4-3.14,10.79-6.32,16.21-9.43c0.43-0.25,1.12-0.2,1.65-0.09
			c1.36,0.27,2.69,0.84,4.06,0.94c5.24,0.41,9.56-1.45,13.06-5.41c2.26-2.56,3.32-5.53,3.49-8.83c0.27-5.05-1.41-9.34-5.41-12.57
			c-0.77-0.62-1-1.28-0.99-2.24C138.73,109.67,138.7,103.47,138.7,97.27z"/>
		<path d="M138.7,97.27c0,6.2,0.02,12.4-0.02,18.6c-0.01,0.96,0.23,1.62,0.99,2.24c4.01,3.22,5.68,7.51,5.41,12.57
			c-0.18,3.3-1.23,6.27-3.49,8.83c-3.5,3.96-7.82,5.82-13.06,5.41c-1.37-0.11-2.7-0.68-4.06-0.94c-0.53-0.1-1.22-0.15-1.65,0.09
			c-5.42,3.11-10.81,6.29-16.21,9.43c-2.06,1.2-4.07,2.55-6.25,3.5c-3.99,1.75-8.87,0.57-11.47-3.84
			c-2.84-4.82-0.01-10.17,3.88-12.35c3.61-2.02,7.13-4.2,10.71-6.27c1.55-0.9,3.18-1.66,4.74-2.54c2.07-1.18,4.12-2.4,6.14-3.65
			c0.26-0.16,0.43-0.62,0.48-0.97c0.53-3.88,2.47-6.96,5.42-9.42c0.65-0.54,0.81-1.06,0.81-1.82c-0.01-12.44-0.01-24.87-0.01-37.31
			c0-2.05,0.47-3.95,1.63-5.66c2.23-3.31,6.62-4.75,10.35-3.36c3.29,1.22,5.61,4.83,5.65,8.87c0.03,4,0.01,8,0.01,12
			C138.7,92.87,138.7,95.07,138.7,97.27z"/>
	</g>
</g>
</svg>
