<?xml version="1.0" encoding="utf-8"?>
<!-- Generator: Adobe Illustrator 27.8.0, SVG Export Plug-In . SVG Version: 6.00 Build 0)  -->
<svg version="1.1" id="Capa_1" xmlns="http://www.w3.org/2000/svg" xmlns:xlink="http://www.w3.org/1999/xlink" x="0px" y="0px"
	 viewBox="0 0 259.2 259.2" enable-background="new 0 0 259.2 259.2" xml:space="preserve">
<g>
	<g>
		<path fill="#FFFFFF" d="M0,0c86.39,0,172.78,0,259.2,0c0,86.38,0,172.77,0,259.2c-86.38,0-172.79,0-259.2,0C0,172.82,0,86.42,0,0z
			 M94.98,149.63c0.66,0.32,1.16,0.53,1.63,0.79c2.59,1.42,5.16,2.88,7.76,4.28c5.62,3.03,11.26,6.02,16.89,9.04
			c6.16,3.3,12.32,6.61,18.46,9.93c5.83,3.15,11.65,6.32,17.47,9.49c3.3,1.79,6.6,3.58,9.9,5.36c3.9,2.1,7.85,4.11,11.7,6.3
			c3.3,1.87,6.73,3.32,10.48,3.91c0.93,0.14,1.91,0.09,2.85-0.06c1.22-0.19,2.42-0.54,3.61-0.85c4.8-1.25,8.11-4.49,10.1-8.72
			c2.29-4.88,2.98-10.07,1.4-15.52c-1.4-4.83-3.94-8.61-8.17-11.22c-2.41-1.48-4.95-2.77-7.44-4.12c-5.85-3.19-11.7-6.39-17.57-9.55
			c-3.69-1.99-7.41-3.91-11.1-5.89c-5.91-3.17-11.8-6.36-17.7-9.55c-2.16-1.17-4.31-2.34-6.6-3.59c0.36-0.22,0.55-0.35,0.75-0.46
			c5.24-2.81,10.49-5.61,15.72-8.43c7.24-3.9,14.46-7.83,21.69-11.74c7.02-3.79,14.07-7.54,21.07-11.38
			c2.17-1.19,4.14-2.67,5.73-4.65c2.15-2.66,3.29-5.7,3.96-9c1.26-6.19-0.02-11.79-3.71-16.87c-3.23-4.46-7.91-6.35-13.11-6.64
			c-2.99-0.17-6,0.82-8.72,2.27c-5.56,2.97-11.09,6.01-16.64,9c-5.73,3.08-11.49,6.12-17.21,9.21c-6.92,3.73-13.82,7.51-20.74,11.26
			c-9.41,5.09-18.83,10.17-28.25,15.25c-1.35,0.73-2.71,1.41-4.22,2.2c0-0.7,0-1.14,0-1.58c0-8.84,0.06-17.68-0.04-26.52
			c-0.03-2.45-0.3-4.96-0.91-7.33c-1.82-7.05-6.44-11.24-13.47-13.13c-4.74-1.27-9.24-0.61-13.35,1.51
			c-6.87,3.55-10.3,9.72-10.33,17.3c-0.15,32.76-0.05,65.53-0.07,98.29c0,5.32,1.53,10.08,4.95,14.14c1.89,2.25,4.24,4.01,7.05,5
			c4.46,1.58,8.91,1.81,13.5,0.31c3.16-1.03,5.72-2.84,7.89-5.21c3.47-3.79,4.74-8.46,4.78-13.47c0.07-9.28,0.02-18.56,0.02-27.84
			C94.98,150.69,94.98,150.26,94.98,149.63z"/>
		<path d="M94.98,149.63c0,0.63,0,1.06,0,1.49c0,9.28,0.05,18.56-0.02,27.84c-0.04,5.01-1.31,9.68-4.78,13.47
			c-2.17,2.37-4.73,4.18-7.89,5.21c-4.59,1.5-9.04,1.27-13.5-0.31c-2.81-1-5.16-2.76-7.05-5c-3.42-4.06-4.95-8.82-4.95-14.14
			c0.02-32.76-0.07-65.53,0.07-98.29c0.03-7.58,3.46-13.75,10.33-17.3c4.11-2.12,8.61-2.78,13.35-1.51
			c7.03,1.89,11.65,6.08,13.47,13.13c0.61,2.37,0.88,4.88,0.91,7.33c0.11,8.84,0.04,17.68,0.04,26.52c0,0.44,0,0.88,0,1.58
			c1.51-0.78,2.88-1.47,4.22-2.2c9.42-5.08,18.84-10.16,28.25-15.25c6.92-3.74,13.82-7.52,20.74-11.26
			c5.73-3.09,11.48-6.13,17.21-9.21c5.55-2.99,11.08-6.02,16.64-9c2.72-1.45,5.73-2.44,8.72-2.27c5.21,0.29,9.88,2.18,13.11,6.64
			c3.69,5.09,4.96,10.68,3.71,16.87c-0.67,3.3-1.81,6.34-3.96,9c-1.6,1.98-3.56,3.46-5.73,4.65c-7,3.84-14.05,7.59-21.07,11.38
			c-7.23,3.91-14.46,7.84-21.69,11.74c-5.23,2.82-10.48,5.62-15.72,8.43c-0.2,0.11-0.39,0.24-0.75,0.46
			c2.29,1.25,4.44,2.42,6.6,3.59c5.9,3.19,11.79,6.38,17.7,9.55c3.69,1.98,7.41,3.9,11.1,5.89c5.87,3.17,11.72,6.36,17.57,9.55
			c2.49,1.36,5.02,2.64,7.44,4.12c4.24,2.6,6.77,6.39,8.17,11.22c1.58,5.45,0.9,10.65-1.4,15.52c-1.99,4.23-5.31,7.48-10.1,8.72
			c-1.2,0.31-2.39,0.66-3.61,0.85c-0.93,0.14-1.92,0.2-2.85,0.06c-3.75-0.58-7.18-2.03-10.48-3.91c-3.85-2.19-7.8-4.2-11.7-6.3
			c-3.3-1.78-6.6-3.57-9.9-5.36c-5.82-3.16-11.64-6.34-17.47-9.49c-6.15-3.32-12.3-6.63-18.46-9.93
			c-5.63-3.02-11.27-6.01-16.89-9.04c-2.6-1.4-5.17-2.86-7.76-4.28C96.14,150.16,95.64,149.95,94.98,149.63z"/>
	</g>
</g>
</svg>
