<?xml version="1.0" encoding="utf-8"?>
<!-- Generator: Adobe Illustrator 27.8.0, SVG Export Plug-In . SVG Version: 6.00 Build 0)  -->
<svg version="1.1" id="Capa_1" xmlns="http://www.w3.org/2000/svg" xmlns:xlink="http://www.w3.org/1999/xlink" x="0px" y="0px"
	 viewBox="0 0 259.2 259.2" enable-background="new 0 0 259.2 259.2" xml:space="preserve">
<g>
	<g>
		<path fill="#FFFFFF" d="M0,259.2C0,172.8,0,86.4,0,0c86.4,0,172.8,0,259.2,0c0,86.4,0,172.8,0,259.2
			C172.8,259.2,86.4,259.2,0,259.2z M63.98,176.52c-0.37,0.1-0.7,0.23-1.05,0.29c-2.79,0.48-4.86,2.05-6.61,4.2
			c-1.79,2.19-1.9,4.93-2.56,7.49c-0.07,0.29,0.02,0.64,0.1,0.95c0.32,1.28,0.7,2.54,1,3.82c0.43,1.83,1.49,3.2,2.9,4.4
			c2.24,1.91,4.95,2.76,7.73,2.8c2.12,0.04,4.48-0.37,6.34-1.34c3.07-1.62,5.23-4.27,5.88-7.9c0.05-0.3,0.49-0.68,0.8-0.74
			c1.6-0.33,3.24-0.47,4.81-0.87c4.9-1.25,7.83-4.58,9.21-9.28c0.59-2.02,0.75-4.18,1.13-6.41c4.56,1.45,9.41,1.14,14.23,1.21
			c0.47,0.01,1.04,0.35,1.4,0.7c2.68,2.68,5.64,4.91,9.14,6.45c3.51,1.55,7.17,2.57,10.94,2.94c6.86,0.68,13.35-0.98,19.37-4.21
			c2.07-1.11,3.89-2.75,5.63-4.35c1.12-1.03,2.14-1.6,3.73-1.62c3.5-0.03,7.03-0.13,10.49-0.61c6.92-0.97,12.82-4,17.74-9.09
			c2.32-2.39,4.01-5.13,5.7-7.92c0.33-0.55,0.76-1.08,0.91-1.67c0.78-2.97,1.48-5.96,2.24-8.93c0.08-0.32,0.27-0.65,0.5-0.9
			c0.98-1.09,2.08-2.08,2.99-3.22c2.84-3.54,4.62-7.61,5.81-11.97c1.45-5.3,1.85-10.64,0.3-15.96c-0.89-3.05-1.94-6.09-3.25-8.98
			c-1.08-2.37-2.58-4.57-4.68-6.28c-0.7-0.57-1.46-1.4-1.63-2.23c-0.89-4.35-1.94-8.6-4.28-12.48c-2.08-3.46-4.48-6.62-7.78-8.93
			c-2.3-1.61-4.81-2.97-7.35-4.21c-2.85-1.39-5.94-2.14-9.1-2.35c-3.18-0.22-6.38-0.19-9.57-0.36c-0.64-0.03-1.35-0.36-1.86-0.76
			c-1.96-1.56-3.68-3.51-5.81-4.76c-4.38-2.56-9.19-4.07-14.28-4.45c-8.98-0.67-17.22,1.49-23.97,7.56
			c-2.21,1.99-4.26,2.59-6.99,2.48c-6.45-0.26-12.6,0.93-18.36,4.03c-3.52,1.9-6.64,4.24-9.15,7.33c-1.15,1.41-2.09,3-3.04,4.57
			c-1.6,2.65-2.8,5.45-3.5,8.49c-0.57,2.45-0.83,4.83-3.07,6.82c-2.74,2.43-4.74,5.71-5.75,9.37c-0.89,3.22-1.97,6.46-2.29,9.76
			c-0.61,6.49,0.75,12.75,3.81,18.5c1.29,2.42,2.69,4.88,4.92,6.71c0.72,0.59,1.31,1.52,1.59,2.4c0.52,1.63,0.66,3.37,1.15,5.01
			c0.53,1.74,1.2,3.44,1.96,5.09c0.7,1.51,1.6,2.92,2.42,4.4C67.46,163.66,64.34,169.06,63.98,176.52z"/>
		<path d="M63.98,176.52c0.37-7.45,3.49-12.86,10.94-15.03c-0.82-1.48-1.73-2.89-2.42-4.4c-0.76-1.65-1.43-3.36-1.96-5.09
			c-0.49-1.64-0.63-3.38-1.15-5.01c-0.28-0.89-0.88-1.82-1.59-2.4c-2.23-1.82-3.63-4.29-4.92-6.71c-3.07-5.74-4.42-12.01-3.81-18.5
			c0.31-3.3,1.4-6.54,2.29-9.76c1.01-3.66,3.01-6.94,5.75-9.37c2.24-1.99,2.5-4.37,3.07-6.82c0.7-3.03,1.91-5.84,3.5-8.49
			c0.95-1.57,1.89-3.16,3.04-4.57c2.51-3.09,5.63-5.43,9.15-7.33c5.76-3.1,11.91-4.3,18.36-4.03c2.73,0.11,4.78-0.5,6.99-2.48
			c6.75-6.07,14.99-8.23,23.97-7.56c5.09,0.38,9.9,1.89,14.28,4.45c2.13,1.25,3.85,3.2,5.81,4.76c0.51,0.41,1.22,0.73,1.86,0.76
			c3.19,0.17,6.38,0.14,9.57,0.36c3.16,0.22,6.25,0.97,9.1,2.35c2.53,1.23,5.05,2.59,7.35,4.21c3.3,2.31,5.7,5.46,7.78,8.93
			c2.34,3.89,3.39,8.13,4.28,12.48c0.17,0.83,0.93,1.66,1.63,2.23c2.1,1.71,3.6,3.9,4.68,6.28c1.31,2.89,2.36,5.92,3.25,8.98
			c1.55,5.32,1.15,10.66-0.3,15.96c-1.19,4.36-2.98,8.42-5.81,11.97c-0.91,1.14-2.01,2.14-2.99,3.22c-0.22,0.25-0.41,0.58-0.5,0.9
			c-0.75,2.97-1.45,5.96-2.24,8.93c-0.16,0.6-0.58,1.13-0.91,1.67c-1.69,2.79-3.38,5.52-5.7,7.92c-4.92,5.08-10.82,8.12-17.74,9.09
			c-3.46,0.48-6.99,0.58-10.49,0.61c-1.59,0.01-2.61,0.59-3.73,1.62c-1.75,1.6-3.57,3.24-5.63,4.35
			c-6.02,3.23-12.51,4.89-19.37,4.21c-3.76-0.37-7.43-1.39-10.94-2.94c-3.49-1.54-6.46-3.77-9.14-6.45c-0.35-0.36-0.92-0.7-1.4-0.7
			c-4.82-0.06-9.67,0.25-14.23-1.21c-0.38,2.23-0.53,4.38-1.13,6.41c-1.38,4.71-4.31,8.04-9.21,9.28c-1.58,0.4-3.22,0.54-4.81,0.87
			c-0.32,0.07-0.75,0.45-0.8,0.74c-0.65,3.62-2.81,6.28-5.88,7.9c-1.85,0.97-4.22,1.38-6.34,1.34c-2.78-0.05-5.49-0.9-7.73-2.8
			c-1.41-1.2-2.47-2.57-2.9-4.4c-0.3-1.28-0.68-2.54-1-3.82c-0.08-0.31-0.17-0.66-0.1-0.95c0.66-2.56,0.77-5.29,2.56-7.49
			c1.75-2.15,3.82-3.72,6.61-4.2C63.27,176.75,63.61,176.62,63.98,176.52z M109.5,135.99c0-0.69,0.07-1.11-0.02-1.49
			c-0.12-0.48-0.26-1.08-0.6-1.35c-0.19-0.15-0.91,0.18-1.24,0.47c-1.84,1.6-3.91,2.41-6.37,2.24c-3.66-0.24-5.32-3.37-3.37-6.47
			c0.57-0.9,1.32-1.7,2.05-2.49c1.05-1.15,2.2-2.21,3.23-3.37c1.88-2.13,2.4-4.62,1.83-7.38c-0.4-1.93-0.38-1.93-2.37-1.93
			c-0.4,0-0.8,0-1.2,0c-1.69,0-2.01,0.41-1.49,2c0.65,1.98,0.42,3.79-1.03,5.35c-0.81,0.88-1.73,1.67-2.5,2.58
			c-1.24,1.45-2.63,2.84-3.54,4.48c-2.44,4.41-0.35,9.55,4.4,11.2c3.42,1.19,6.74,0.75,10.01-0.69
			C108.86,138.48,110.1,137.71,109.5,135.99z M150.05,98.99c0,0.61-0.06,0.95,0.01,1.25c0.15,0.56,0.38,1.1,0.57,1.65
			c0.5-0.22,1.08-0.35,1.48-0.69c2.19-1.88,4.66-2.58,7.46-1.86c2.04,0.53,3.28,2.34,2.75,4.38c-0.31,1.18-1.02,2.34-1.8,3.31
			c-1.04,1.3-2.36,2.38-3.5,3.61c-2.01,2.15-3.1,4.61-2.57,7.65c0.43,2.45,0.39,2.46,2.9,2.46c0.32,0,0.64,0,0.96,0
			c1.45-0.01,1.82-0.48,1.35-1.82c-0.76-2.17-0.43-4.1,1.18-5.76c0.83-0.86,1.75-1.65,2.53-2.56c1.16-1.36,2.44-2.68,3.3-4.23
			c2.45-4.44,0.4-9.57-4.37-11.23c-3.42-1.19-6.75-0.77-10.03,0.67C150.71,96.49,149.45,97.27,150.05,98.99z M84.38,175.78
			c0.01-3.23-2.58-5.85-5.75-5.81c-3.09,0.04-5.55,2.56-5.57,5.72c-0.02,3.2,2.5,5.75,5.66,5.74
			C81.79,181.41,84.37,178.84,84.38,175.78z M129.45,130.75c1.8-0.03,3.35-1.63,3.31-3.41c-0.04-1.82-1.61-3.33-3.41-3.3
			c-1.79,0.03-3.27,1.63-3.22,3.47C126.18,129.28,127.72,130.78,129.45,130.75z M141.42,124.04c-1.8-0.08-3.37,1.4-3.45,3.25
			c-0.08,1.79,1.44,3.42,3.24,3.46c1.74,0.04,3.31-1.44,3.39-3.2C144.69,125.73,143.23,124.12,141.42,124.04z M117.53,124.04
			c-1.79,0-3.31,1.58-3.29,3.41c0.03,1.77,1.55,3.3,3.28,3.3c1.81,0.01,3.35-1.54,3.34-3.36
			C120.86,125.55,119.37,124.04,117.53,124.04z M105.18,107.54c-0.02-1.75-1.56-3.3-3.29-3.3c-1.8-0.01-3.34,1.57-3.32,3.39
			c0.02,1.75,1.55,3.29,3.29,3.31C103.61,110.95,105.2,109.33,105.18,107.54z M157.72,124.04c-1.79-0.02-3.35,1.56-3.34,3.38
			c0.01,1.76,1.53,3.31,3.27,3.33c1.74,0.02,3.29-1.5,3.33-3.27C161.03,125.66,159.51,124.06,157.72,124.04z M65.94,191.56
			c1.83,0,3.18-1.35,3.16-3.16c-0.02-1.71-1.43-3.05-3.18-3.03c-1.72,0.02-3.1,1.42-3.08,3.13
			C62.85,190.3,64.12,191.56,65.94,191.56z"/>
		<path fill="#FFFFFF" d="M109.5,135.99c0.6,1.72-0.64,2.48-2.2,3.17c-3.27,1.44-6.59,1.88-10.01,0.69c-4.76-1.65-6.85-6.8-4.4-11.2
			c0.91-1.64,2.3-3.03,3.54-4.48c0.77-0.91,1.69-1.7,2.5-2.58c1.45-1.56,1.68-3.37,1.03-5.35c-0.52-1.59-0.21-2,1.49-2
			c0.4,0,0.8,0,1.2,0c2,0,1.97,0,2.37,1.93c0.58,2.76,0.05,5.25-1.83,7.38c-1.03,1.16-2.18,2.22-3.23,3.37
			c-0.73,0.79-1.48,1.59-2.05,2.49c-1.96,3.1-0.29,6.23,3.37,6.47c2.45,0.16,4.53-0.65,6.37-2.24c0.33-0.29,1.05-0.62,1.24-0.47
			c0.35,0.27,0.48,0.86,0.6,1.35C109.58,134.88,109.5,135.3,109.5,135.99z"/>
		<path fill="#FFFFFF" d="M150.05,98.99c-0.61-1.73,0.66-2.5,2.21-3.18c3.27-1.44,6.61-1.87,10.03-0.67
			c4.77,1.67,6.82,6.79,4.37,11.23c-0.85,1.55-2.14,2.87-3.3,4.23c-0.78,0.91-1.69,1.69-2.53,2.56c-1.61,1.67-1.93,3.59-1.18,5.76
			c0.47,1.34,0.1,1.81-1.35,1.82c-0.32,0-0.64,0-0.96,0c-2.51,0-2.47-0.01-2.9-2.46c-0.53-3.04,0.56-5.5,2.57-7.65
			c1.15-1.23,2.46-2.31,3.5-3.61c0.78-0.97,1.49-2.12,1.8-3.31c0.53-2.04-0.7-3.85-2.75-4.38c-2.8-0.73-5.27-0.02-7.46,1.86
			c-0.4,0.34-0.98,0.47-1.48,0.69c-0.19-0.55-0.42-1.09-0.57-1.65C149.99,99.94,150.05,99.6,150.05,98.99z"/>
		<path fill="#FFFFFF" d="M84.38,175.78c-0.01,3.07-2.59,5.63-5.66,5.65c-3.16,0.01-5.68-2.54-5.66-5.74
			c0.02-3.16,2.48-5.68,5.57-5.72C81.8,169.92,84.39,172.55,84.38,175.78z"/>
		<path fill="#FFFFFF" d="M129.45,130.75c-1.73,0.03-3.28-1.48-3.33-3.24c-0.05-1.84,1.43-3.44,3.22-3.47
			c1.8-0.03,3.37,1.49,3.41,3.3C132.8,129.13,131.26,130.72,129.45,130.75z"/>
		<path fill="#FFFFFF" d="M141.42,124.04c1.81,0.08,3.26,1.69,3.18,3.51c-0.08,1.76-1.65,3.24-3.39,3.2
			c-1.8-0.05-3.32-1.67-3.24-3.46C138.06,125.44,139.63,123.97,141.42,124.04z"/>
		<path fill="#FFFFFF" d="M117.53,124.04c1.83,0,3.33,1.51,3.34,3.35c0.01,1.82-1.53,3.36-3.34,3.36c-1.73-0.01-3.25-1.53-3.28-3.3
			C114.22,125.62,115.74,124.04,117.53,124.04z"/>
		<path fill="#FFFFFF" d="M105.18,107.54c0.02,1.79-1.56,3.41-3.32,3.4c-1.74-0.02-3.26-1.55-3.29-3.31
			c-0.02-1.82,1.52-3.4,3.32-3.39C103.62,104.24,105.15,105.79,105.18,107.54z"/>
		<path fill="#FFFFFF" d="M157.72,124.04c1.79,0.02,3.31,1.62,3.27,3.44c-0.05,1.77-1.59,3.29-3.33,3.27
			c-1.75-0.02-3.27-1.57-3.27-3.33C154.37,125.6,155.93,124.02,157.72,124.04z"/>
		<path fill="#FFFFFF" d="M65.94,191.56c-1.82,0-3.09-1.26-3.1-3.06c-0.01-1.71,1.36-3.1,3.08-3.13c1.75-0.02,3.16,1.32,3.18,3.03
			C69.12,190.21,67.77,191.56,65.94,191.56z"/>
	</g>
</g>
</svg>
