<?xml version="1.0" encoding="utf-8"?>
<!-- Generator: Adobe Illustrator 27.8.0, SVG Export Plug-In . SVG Version: 6.00 Build 0)  -->
<svg version="1.1" id="Capa_1" xmlns="http://www.w3.org/2000/svg" xmlns:xlink="http://www.w3.org/1999/xlink" x="0px" y="0px"
	 viewBox="0 0 259.2 259.2" enable-background="new 0 0 259.2 259.2" xml:space="preserve">
<g>
	<g>
		<path fill="#FFFFFF" d="M0,0c86.39,0,172.78,0,259.2,0c0,86.38,0,172.77,0,259.2c-86.38,0-172.79,0-259.2,0C0,172.83,0,86.42,0,0z
			 M86.19,172.65c0.15,0.65,0.27,1.31,0.46,1.95c0.27,0.87,0.43,1.84,0.93,2.56c1.02,1.47,2.16,2.88,3.41,4.16
			c2.2,2.26,4.5,4.42,6.77,6.61c4.46,4.3,9.47,7.81,14.99,10.63c5.71,2.92,11.8,4.56,18.06,5.76c10.29,1.97,20.35,0.86,30.27-2.1
			c2.16-0.64,3.7-2.29,4.49-4.37c0.81-2.14,1.14-4.4,0.24-6.66c-0.18-0.44-0.28-0.92-0.36-1.39c-0.18-1.04,0.42-2.17,1.39-2.54
			c1.02-0.39,1.96-0.12,2.53,0.78c1.49,2.37,3.62,3.56,6.34,4.01c2.17,0.36,4.19-0.08,5.95-1.15c3.63-2.21,6.38-5.44,9.06-8.66
			c5.41-6.51,9.61-13.69,11.93-21.93c1.54-5.47,2.41-11.05,2.99-16.68c0.21-2.02-0.09-4.12-0.32-6.16
			c-0.35-3.09-0.69-6.19-1.29-9.24c-1.66-8.31-4.72-16.03-9.61-23.04c-4.18-5.99-9.51-10.88-14.6-16.01
			c-1.48-1.5-3.21-2.63-5.38-2.9c-0.57-0.07-1.13-0.28-1.74-0.44c0.34-1.01,0.63-1.92,0.94-2.82c1.27-3.67,1.6-7.26-1.14-10.47
			c-1.9-2.23-4.56-3.21-7.27-2.8c-3.04,0.45-5.98,1.64-8.95,2.56c-2.19,0.68-4.35,1.43-6.58,2.17c-0.12-0.35-0.22-0.57-0.26-0.8
			c-0.74-3.68-1.44-7.37-2.23-11.04c-0.34-1.59-0.67-3.24-1.41-4.66c-1.19-2.31-3.23-3.62-5.88-4.03c-3.18-0.5-5.99,0.19-8.19,2.53
			c-2.63,2.79-5.11,5.73-7.65,8.6c-0.57,0.65-1.17,1.27-1.83,1.98c-2.56-2.89-5.02-5.67-7.47-8.46c-1.77-2.01-3.47-4-6.35-4.59
			c-2.1-0.43-4.12-0.28-5.98,0.52c-2.17,0.94-3.83,2.59-4.38,5.05c-0.76,3.43-1.47,6.87-2.21,10.31c-0.32,1.5-0.64,3.01-0.98,4.6
			c-3.87-1.28-7.57-2.51-11.27-3.74c-2.72-0.9-5.43-1.55-8.27-0.44c-2.29,0.9-3.93,2.43-4.76,4.72c-0.76,2.06-0.95,4.18-0.14,6.32
			c0.44,1.15,0.71,2.37,1.1,3.54c1.06,3.21,2.14,6.41,3.25,9.73c-0.61,0.14-1.11,0.27-1.6,0.37c-4.3,0.9-8.6,1.78-12.9,2.7
			c-3.51,0.76-6.67,4.93-6.26,8.49c0.34,2.96,1.46,5.54,3.9,7.54c3.21,2.62,6.24,5.47,9.4,8.28c-0.34,0.33-0.62,0.61-0.92,0.87
			c-2.98,2.66-5.94,5.34-8.97,7.95c-1.77,1.52-2.78,3.37-3.27,5.66c-0.88,4.1,1.73,9.24,6.19,9.96c2.64,0.43,5.23,1.09,7.85,1.64
			c2.13,0.45,4.27,0.89,6.49,1.35c-0.12,0.45-0.18,0.75-0.27,1.04c-1.18,3.56-2.33,7.13-3.55,10.67c-1.26,3.66-1.51,7.22,1.16,10.38
			c2.03,2.4,4.78,3.3,7.83,2.79C81.97,173.98,84,173.25,86.19,172.65z"/>
		<path d="M86.19,172.65c-2.18,0.6-4.22,1.33-6.32,1.68c-3.05,0.51-5.8-0.39-7.83-2.79c-2.67-3.15-2.42-6.72-1.16-10.38
			c1.22-3.55,2.37-7.11,3.55-10.67c0.1-0.29,0.16-0.6,0.27-1.04c-2.22-0.46-4.35-0.9-6.49-1.35c-2.62-0.55-5.21-1.22-7.85-1.64
			c-4.46-0.72-7.07-5.85-6.19-9.96c0.49-2.29,1.5-4.14,3.27-5.66c3.03-2.6,5.99-5.29,8.97-7.95c0.29-0.26,0.57-0.54,0.92-0.87
			c-3.16-2.8-6.19-5.65-9.4-8.28c-2.45-2-3.56-4.58-3.9-7.54c-0.41-3.56,2.74-7.73,6.26-8.49c4.29-0.93,8.6-1.8,12.9-2.7
			c0.5-0.1,0.99-0.23,1.6-0.37c-1.11-3.32-2.19-6.52-3.25-9.73c-0.39-1.17-0.66-2.39-1.1-3.54c-0.81-2.14-0.62-4.25,0.14-6.32
			c0.84-2.29,2.48-3.82,4.76-4.72c2.84-1.11,5.55-0.46,8.27,0.44c3.7,1.23,7.4,2.45,11.27,3.74c0.34-1.59,0.66-3.09,0.98-4.6
			c0.73-3.44,1.45-6.88,2.21-10.31c0.54-2.46,2.21-4.11,4.38-5.05c1.85-0.8,3.87-0.95,5.98-0.52c2.88,0.59,4.58,2.58,6.35,4.59
			c2.45,2.79,4.92,5.57,7.47,8.46c0.66-0.71,1.25-1.33,1.83-1.98c2.55-2.87,5.02-5.81,7.65-8.6c2.21-2.34,5.01-3.03,8.19-2.53
			c2.64,0.41,4.68,1.72,5.88,4.03c0.73,1.42,1.06,3.08,1.41,4.66c0.8,3.67,1.49,7.36,2.23,11.04c0.05,0.23,0.14,0.44,0.26,0.8
			c2.23-0.74,4.39-1.49,6.58-2.17c2.97-0.92,5.91-2.11,8.95-2.56c2.72-0.41,5.37,0.57,7.27,2.8c2.74,3.22,2.41,6.8,1.14,10.47
			c-0.31,0.9-0.61,1.81-0.94,2.82c0.61,0.16,1.16,0.37,1.74,0.44c2.18,0.27,3.9,1.4,5.38,2.9c5.09,5.13,10.42,10.01,14.6,16.01
			c4.89,7.01,7.95,14.73,9.61,23.04c0.61,3.04,0.95,6.15,1.29,9.24c0.23,2.04,0.53,4.14,0.32,6.16c-0.58,5.62-1.45,11.21-2.99,16.68
			c-2.32,8.23-6.52,15.42-11.93,21.93c-2.67,3.22-5.43,6.45-9.06,8.66c-1.76,1.07-3.78,1.51-5.95,1.15
			c-2.72-0.45-4.85-1.65-6.34-4.01c-0.57-0.91-1.51-1.17-2.53-0.78c-0.97,0.37-1.56,1.5-1.39,2.54c0.08,0.47,0.18,0.95,0.36,1.39
			c0.9,2.26,0.57,4.52-0.24,6.66c-0.79,2.08-2.33,3.73-4.49,4.37c-9.92,2.96-19.98,4.08-30.27,2.1c-6.26-1.2-12.35-2.83-18.06-5.76
			c-5.52-2.82-10.53-6.33-14.99-10.63c-2.27-2.19-4.58-4.35-6.77-6.61c-1.25-1.28-2.38-2.69-3.41-4.16
			c-0.5-0.72-0.66-1.69-0.93-2.56C86.45,173.96,86.34,173.3,86.19,172.65z M177.05,183.63c0.34-0.27,0.62-0.49,0.89-0.72
			c13.05-11.85,19.5-26.52,18.77-44.23c-0.38-9.16-2.95-17.67-7.6-25.58c-4.07-6.93-9.93-12.28-15.55-17.84
			c-1.09-1.08-2.84-1.13-4.13-0.36c-1.38,0.82-2.06,2.39-1.69,4.02c0.19,0.82,0.46,1.61,0.72,2.41c2.49,7.47,3.44,15.08,2.21,22.91
			c-1.93,12.31-7.27,22.86-16.28,31.45c-11.39,10.86-25.01,15.96-40.75,15.22c-4.83-0.23-9.39-1.76-13.95-3.22
			c-1.96-0.63-3.49-0.11-4.47,1.47c-0.91,1.46-0.73,3.23,0.64,4.6c2.96,2.98,5.84,6.05,8.98,8.82
			c13.79,12.16,29.83,16.16,47.8,12.93c1.71-0.31,3.38-0.81,5.08-1.23c-2.01-6.87-0.24-12.01,4.92-14.72
			C166.61,177.48,173,177.76,177.05,183.63z M100.02,158.79c-6.04-3.73-10.68-8.41-14.44-14.45c-2.46,7.37-4.8,14.38-7.25,21.72
			C85.67,163.59,92.68,161.25,100.02,158.79z M166.19,78.1c-7.34,2.46-14.34,4.8-21.66,7.25c6.03,3.71,10.67,8.42,14.45,14.41
			C161.43,92.38,163.76,85.39,166.19,78.1z M106.17,62.06c-1.55,7.57-3.02,14.81-4.56,22.34c6.25-3.35,12.66-5.02,19.67-5.33
			C116.16,73.3,111.27,67.79,106.17,62.06z M78.34,78.11c2.46,7.33,4.79,14.31,7.12,21.28c2.22-2.65,4.2-5.36,6.54-7.7
			c2.35-2.34,5.06-4.31,7.63-6.47C92.69,82.89,85.67,80.55,78.34,78.11z M84.24,142.66c0.08-0.09,0.15-0.18,0.23-0.27
			c-3.2-5.97-4.85-12.35-5.14-19.34c-5.74,5.11-11.27,10.02-17,15.12C69.83,139.71,77.04,141.19,84.24,142.66z M138.37,62.06
			c-5.1,5.74-10,11.26-15.11,17.02c7.07,0.26,13.43,2.01,19.66,5.29C141.38,76.85,139.9,69.6,138.37,62.06z M79.34,121.1
			c0.25-7.1,2.02-13.46,5.26-19.71c-7.51,1.54-14.72,3.02-22.27,4.57C68.13,111.12,73.61,115.99,79.34,121.1z"/>
		<path fill="#FFFFFF" d="M177.05,183.63c-4.05-5.87-10.44-6.15-14.42-4.06c-5.16,2.71-6.93,7.85-4.92,14.72
			c-1.7,0.41-3.37,0.92-5.08,1.23c-17.96,3.24-34.01-0.77-47.8-12.93c-3.14-2.77-6.03-5.84-8.98-8.82c-1.36-1.37-1.55-3.14-0.64-4.6
			c0.98-1.58,2.51-2.1,4.47-1.47c4.56,1.46,9.12,3,13.95,3.22c15.74,0.74,29.36-4.36,40.75-15.22c9-8.59,14.35-19.14,16.28-31.45
			c1.23-7.84,0.28-15.44-2.21-22.91c-0.27-0.8-0.54-1.59-0.72-2.41c-0.38-1.64,0.3-3.21,1.69-4.02c1.3-0.76,3.04-0.72,4.13,0.36
			c5.63,5.56,11.48,10.9,15.55,17.84c4.65,7.91,7.22,16.43,7.6,25.58c0.73,17.7-5.71,32.38-18.77,44.23
			C177.67,183.14,177.38,183.35,177.05,183.63z M182.13,141.84c3.99,0.03,7.32-3.29,7.31-7.31c-0.01-4-3.23-7.22-7.24-7.23
			c-3.99-0.01-7.28,3.23-7.31,7.19C174.85,138.56,178.05,141.81,182.13,141.84z M180.33,123.59c2.95,0,5.47-2.46,5.51-5.37
			c0.04-2.98-2.47-5.52-5.47-5.53c-3.03-0.01-5.48,2.45-5.48,5.5C174.88,121.14,177.35,123.59,180.33,123.59z M127.55,183.83
			c0,2.98,2.42,5.48,5.34,5.49c2.95,0.02,5.52-2.54,5.52-5.48c0-3.01-2.48-5.47-5.5-5.47C129.96,178.38,127.55,180.83,127.55,183.83
			z"/>
		<path fill="#FFFFFF" d="M100.02,158.79c-7.34,2.46-14.35,4.81-21.69,7.26c2.45-7.34,4.79-14.34,7.25-21.72
			C89.34,150.38,93.98,155.06,100.02,158.79z"/>
		<path fill="#FFFFFF" d="M166.19,78.1c-2.43,7.3-4.75,14.28-7.21,21.66c-3.78-5.99-8.41-10.7-14.45-14.41
			C151.85,82.9,158.85,80.55,166.19,78.1z"/>
		<path fill="#FFFFFF" d="M106.17,62.06c5.09,5.73,9.98,11.24,15.11,17.01c-7.01,0.31-13.42,1.98-19.67,5.33
			C103.15,76.87,104.63,69.63,106.17,62.06z"/>
		<path fill="#FFFFFF" d="M78.34,78.11c7.33,2.45,14.34,4.79,21.3,7.11c-2.58,2.15-5.29,4.13-7.63,6.47
			c-2.34,2.34-4.32,5.05-6.54,7.7C83.14,92.42,80.8,85.44,78.34,78.11z"/>
		<path fill="#FFFFFF" d="M84.24,142.66c-7.2-1.47-14.41-2.95-21.91-4.48c5.74-5.1,11.26-10.02,17-15.12
			c0.29,6.99,1.94,13.37,5.14,19.34C84.39,142.48,84.31,142.57,84.24,142.66z"/>
		<path fill="#FFFFFF" d="M138.37,62.06c1.54,7.54,3.02,14.79,4.55,22.31c-6.23-3.28-12.59-5.03-19.66-5.29
			C128.37,73.32,133.27,67.8,138.37,62.06z"/>
		<path fill="#FFFFFF" d="M79.34,121.1c-5.74-5.11-11.21-9.98-17.01-15.14c7.55-1.55,14.76-3.03,22.27-4.57
			C81.36,107.64,79.59,113.99,79.34,121.1z"/>
		<path d="M182.13,141.84c-4.08-0.03-7.28-3.28-7.25-7.36c0.03-3.96,3.32-7.19,7.31-7.19c4.01,0.01,7.24,3.23,7.24,7.23
			C189.45,138.55,186.12,141.87,182.13,141.84z"/>
		<path d="M180.33,123.59c-2.98,0-5.44-2.45-5.44-5.4c0-3.05,2.45-5.51,5.48-5.5c2.99,0.01,5.51,2.55,5.47,5.53
			C185.79,121.14,183.27,123.6,180.33,123.59z"/>
		<path d="M127.55,183.83c0-2.99,2.41-5.44,5.36-5.45c3.03-0.01,5.5,2.46,5.5,5.47c0,2.94-2.58,5.5-5.52,5.48
			C129.96,189.3,127.54,186.81,127.55,183.83z"/>
	</g>
</g>
</svg>
