<?xml version="1.0" encoding="utf-8"?>
<!-- Generator: Adobe Illustrator 27.8.0, SVG Export Plug-In . SVG Version: 6.00 Build 0)  -->
<svg version="1.1" id="Capa_1" xmlns="http://www.w3.org/2000/svg" xmlns:xlink="http://www.w3.org/1999/xlink" x="0px" y="0px"
	 viewBox="0 0 259.2 259.2" enable-background="new 0 0 259.2 259.2" xml:space="preserve">
<g>
	<g>
		<path fill="#AEA218" d="M0.3,0.03c85.92,0,171.84,0,257.76-0.03c1.01,0,1.14,0.26,1.14,1.19c-0.03,85.61-0.03,171.22,0,256.82
			c0,0.93-0.13,1.19-1.14,1.19c-85.92-0.03-171.84-0.03-257.76-0.03C0.3,172.79,0.3,86.41,0.3,0.03z M90.41,78.25
			c0,2.4-0.02,4.8,0.01,7.2c0.02,1.53,0.28,3.08,0.98,4.41c2.39,4.53,8.43,5.36,12.12,1.76c0.77-0.75,1.54-1.51,2.33-2.24
			c4.48-4.1,9.6-6.88,15.73-7.44c3.3-0.3,6.64-0.46,9.84,0.7c2.89,1.05,5.48,2.54,6.7,5.57c1.4,3.47,1.07,6.86-0.69,10.15
			c-2.86,5.35-7.18,9.47-11.52,13.54c-5.15,4.83-9.9,9.97-13.68,15.97c-3.44,5.46-5.04,11.45-5.13,17.86
			c-0.08,5.12,0.96,10.08,2.27,15c1.19,4.45,3.87,6.12,7.94,6.3c4.62,0.2,9.27,0.15,13.9,0.01c2.4-0.08,4.74-0.68,6.34-2.81
			c2.03-2.72,1.95-5.61,0.82-8.61c-0.97-2.58-1.82-5.15-2.01-7.97c-0.21-3.05,0.37-5.73,1.98-8.31c2.19-3.5,5.14-6.31,8.04-9.16
			c3.98-3.92,8.26-7.55,11.75-11.95c4.05-5.1,7.56-10.45,9.35-16.85c2.38-8.47,2.12-16.87-1.05-24.96
			c-3.72-9.48-10.87-15.81-20.3-19.37c-9.39-3.54-19.16-4.25-29.01-2.44c-7.51,1.38-14.66,3.91-21.23,7.89
			c-1.22,0.74-2.47,1.48-3.45,2.56c-1.51,1.67-1.92,3.75-2.02,5.88C90.33,73.36,90.41,75.81,90.41,78.25z M125.16,205.42
			c9.89,0.19,17.82-7.74,17.81-17.57c-0.01-10.08-7.78-17.85-17.78-17.85c-10.06,0-17.8,7.54-17.87,17.75
			C107.24,197.77,115.23,205.57,125.16,205.42z"/>
		<path fill="#FEFEFE" d="M0.3,0.03c0,86.38,0,172.76,0,259.14c-0.07-0.05-0.25,0.12-0.24-0.12c0.01-0.32,0-0.64,0-0.96
			c0-85.66,0-171.32,0.01-256.98C0.08,0.76-0.2,0.3,0.3,0.03z"/>
		<path fill="#FDF170" d="M90.41,78.25c0-2.44-0.08-4.88,0.02-7.32c0.09-2.13,0.51-4.21,2.02-5.88c0.98-1.09,2.23-1.82,3.45-2.56
			c6.57-3.98,13.72-6.51,21.23-7.89c9.86-1.81,19.62-1.1,29.01,2.44c9.43,3.56,16.58,9.89,20.3,19.37
			c3.17,8.09,3.43,16.48,1.05,24.96c-1.79,6.4-5.3,11.75-9.35,16.85c-3.5,4.4-7.77,8.03-11.75,11.95c-2.9,2.85-5.85,5.66-8.04,9.16
			c-1.61,2.58-2.19,5.26-1.98,8.31c0.19,2.82,1.04,5.39,2.01,7.97c1.13,3,1.21,5.9-0.82,8.61c-1.6,2.14-3.93,2.74-6.34,2.81
			c-4.63,0.15-9.27,0.2-13.9-0.01c-4.07-0.18-6.75-1.85-7.94-6.3c-1.31-4.92-2.35-9.89-2.27-15c0.1-6.4,1.7-12.4,5.13-17.86
			c3.78-6,8.53-11.14,13.68-15.97c4.34-4.07,8.66-8.19,11.52-13.54c1.76-3.29,2.08-6.68,0.69-10.15c-1.22-3.03-3.81-4.52-6.7-5.57
			c-3.2-1.16-6.54-1-9.84-0.7c-6.13,0.56-11.25,3.34-15.73,7.44c-0.79,0.73-1.56,1.49-2.33,2.24c-3.69,3.6-9.73,2.76-12.12-1.76
			c-0.7-1.33-0.96-2.88-0.98-4.41C90.38,83.04,90.41,80.64,90.41,78.25z"/>
		<path fill="#FDF170" d="M125.16,205.42c-9.93,0.14-17.92-7.65-17.85-17.66c0.07-10.21,7.81-17.75,17.87-17.75
			c10,0,17.77,7.77,17.78,17.85C142.98,197.69,135.05,205.61,125.16,205.42z"/>
	</g>
</g>
</svg>
