<?xml version="1.0" encoding="utf-8"?>
<!-- Generator: Adobe Illustrator 27.8.0, SVG Export Plug-In . SVG Version: 6.00 Build 0)  -->
<svg version="1.1" id="Capa_1" xmlns="http://www.w3.org/2000/svg" xmlns:xlink="http://www.w3.org/1999/xlink" x="0px" y="0px"
	 viewBox="0 0 259.2 259.2" enable-background="new 0 0 259.2 259.2" xml:space="preserve">
<g>
	<g>
		<path fill="#FDF171" d="M0.02,129.61c0-42.78,0-85.57-0.02-128.35C0,0.31,0.11,0,1.2,0c85.61,0.03,171.23,0.03,256.84,0
			c0.98,0,1.16,0.21,1.16,1.17c-0.03,85.61-0.03,171.22,0,256.83c0,0.92-0.11,1.19-1.14,1.19c-85.65-0.03-171.31-0.03-256.96-0.01
			c-0.91,0-1.1-0.22-1.1-1.11C0.02,215.26,0.02,172.44,0.02,129.61z M90.23,78.24c0,1.92,0.06,3.84-0.02,5.76
			c-0.07,1.7,0.22,3.34,0.64,4.97c0.72,2.83,4.54,5.36,7.43,4.94c2.25-0.32,4.14-1.22,5.73-2.91c2.08-2.22,4.43-4.13,7.1-5.65
			c6.31-3.6,13-4.55,20-2.73c2.75,0.72,5.17,2.24,6.53,4.9c1.86,3.62,1.54,7.25-0.33,10.78c-2.83,5.37-7.15,9.5-11.51,13.55
			c-5.23,4.87-10.03,10.08-13.83,16.16c-3.45,5.5-5.02,11.56-5.07,17.99c-0.04,5.02,1,9.91,2.3,14.75c1.18,4.39,3.88,6.12,7.96,6.28
			c4.63,0.18,9.28,0.14,13.91,0c2.37-0.07,4.66-0.64,6.26-2.71c2.1-2.73,2.06-5.65,0.91-8.69c-0.97-2.58-1.81-5.14-2.03-7.96
			c-0.24-3.11,0.4-5.81,2.04-8.4c2.31-3.66,5.39-6.63,8.5-9.55c5.54-5.21,11.06-10.42,15.24-16.85c1.92-2.96,3.7-6,4.76-9.38
			c1.74-5.54,2.67-11.19,1.98-17.01c-0.43-3.62-1.11-7.22-2.57-10.56c-4.26-9.71-11.69-16.02-21.65-19.4
			c-9.04-3.07-18.32-3.61-27.67-1.9c-7.39,1.36-14.43,3.85-20.92,7.74c-1.3,0.78-2.62,1.54-3.66,2.69
			c-1.52,1.67-1.92,3.75-2.01,5.88C90.15,73.36,90.23,75.8,90.23,78.24z M124.98,205.42c9.91,0.25,17.91-7.82,17.87-17.62
			c-0.05-10.01-7.84-17.83-17.83-17.81c-10.09,0.03-17.82,7.59-17.88,17.76C107.08,197.75,114.96,205.53,124.98,205.42z"/>
		<path fill="#AFA318" d="M90.23,78.24c0-2.44-0.08-4.88,0.02-7.32c0.09-2.13,0.49-4.21,2.01-5.88c1.04-1.14,2.36-1.91,3.66-2.69
			c6.48-3.89,13.52-6.39,20.92-7.74c9.35-1.72,18.63-1.17,27.67,1.9c9.96,3.38,17.38,9.69,21.65,19.4
			c1.46,3.33,2.14,6.93,2.57,10.56c0.69,5.83-0.24,11.47-1.98,17.01c-1.06,3.38-2.84,6.42-4.76,9.38
			c-4.18,6.43-9.7,11.64-15.24,16.85c-3.11,2.92-6.19,5.89-8.5,9.55c-1.64,2.59-2.28,5.29-2.04,8.4c0.22,2.82,1.06,5.38,2.03,7.96
			c1.15,3.05,1.19,5.97-0.91,8.69c-1.6,2.08-3.9,2.64-6.26,2.71c-4.63,0.13-9.28,0.18-13.91,0c-4.08-0.16-6.78-1.88-7.96-6.28
			c-1.3-4.83-2.34-9.72-2.3-14.75c0.05-6.43,1.62-12.49,5.07-17.99c3.81-6.07,8.6-11.28,13.83-16.16
			c4.35-4.05,8.68-8.19,11.51-13.55c1.86-3.54,2.18-7.16,0.33-10.78c-1.36-2.66-3.78-4.18-6.53-4.9c-7-1.83-13.68-0.88-20,2.73
			c-2.67,1.52-5.02,3.43-7.1,5.65c-1.59,1.69-3.48,2.59-5.73,2.91c-2.88,0.41-6.7-2.11-7.43-4.94c-0.42-1.63-0.71-3.26-0.64-4.97
			C90.29,82.08,90.23,80.16,90.23,78.24z M115.37,154.2c-0.76-4.39-0.88-8.8-0.55-13.23C114.36,145.4,114.23,149.83,115.37,154.2z
			 M131.41,159.53c0-0.03,0-0.06,0-0.09c-4.79,0-9.59,0-14.38,0c0,0.03,0,0.06,0,0.09C121.83,159.53,126.62,159.53,131.41,159.53z
			 M115.57,155.26c-0.03,0.02-0.08,0.05-0.08,0.07c0.01,0.07,0.04,0.13,0.06,0.2c0.03-0.02,0.08-0.05,0.08-0.07
			C115.62,155.39,115.59,155.32,115.57,155.26z"/>
		<path fill="#AFA319" d="M124.98,205.42c-10.02,0.11-17.9-7.67-17.84-17.67c0.06-10.17,7.79-17.73,17.88-17.76
			c9.99-0.03,17.78,7.8,17.83,17.81C142.89,197.6,134.88,205.68,124.98,205.42z"/>
		<path fill="#AFA319" d="M115.37,154.2c-1.13-4.38-1.01-8.8-0.55-13.23C114.49,145.4,114.6,149.81,115.37,154.2z"/>
		<path fill="#AFA319" d="M131.41,159.53c-4.79,0-9.59,0-14.38,0c0-0.03,0-0.06,0-0.09c4.79,0,9.59,0,14.38,0
			C131.41,159.47,131.41,159.5,131.41,159.53z"/>
		<path fill="#AFA319" d="M115.57,155.26c0.02,0.07,0.05,0.13,0.06,0.2c0,0.02-0.05,0.05-0.08,0.07c-0.02-0.07-0.05-0.13-0.06-0.2
			C115.49,155.31,115.54,155.28,115.57,155.26z"/>
	</g>
</g>
</svg>
