<?xml version="1.0" encoding="utf-8"?>
<!-- Generator: Adobe Illustrator 27.8.0, SVG Export Plug-In . SVG Version: 6.00 Build 0)  -->
<svg version="1.1" id="Capa_1" xmlns="http://www.w3.org/2000/svg" xmlns:xlink="http://www.w3.org/1999/xlink" x="0px" y="0px"
	 viewBox="0 0 259.2 259.2" enable-background="new 0 0 259.2 259.2" xml:space="preserve">
<g>
	<g>
		<path fill="#CE79AA" d="M0.3,0.03c85.92,0,171.84,0,257.76-0.03c1.01,0,1.14,0.26,1.14,1.19c-0.03,85.61-0.03,171.22,0,256.82
			c0,0.93-0.13,1.19-1.14,1.19c-85.92-0.03-171.84-0.03-257.76-0.03C0.3,172.79,0.3,86.41,0.3,0.03z M161.44,53.95
			c-1.35,0.01-2.94,0.14-4.53,0.28c-8.95,0.77-16.61,4.57-23.58,9.98c-4.04,3.14-6.94,7.23-9.58,11.56
			c-4.95,8.12-6.71,16.93-5.82,26.32c0.43,4.56,1.43,9,3.39,13.18c0.24,0.52,0.39,0.88-0.46,0.83c-7.16-0.35-13.13,2.45-18.08,7.36
			c-13.83,13.7-27.57,27.48-41.27,41.3c-4.22,4.26-6.93,9.36-7.29,15.49c-0.3,5.19,1.07,9.87,3.88,14.3
			c3.12,4.91,7.57,7.98,12.9,9.53c8.81,2.57,16.68,0.18,23.12-6.17c14-13.8,27.86-27.73,41.67-41.71
			c4.72-4.77,7.41-10.56,7.19-17.45c-0.03-1.03,0.15-1.26,1.15-0.78c4.65,2.22,9.63,3.21,14.71,3.53
			c12.32,0.76,23.24-3.16,32.12-11.52c11.14-10.47,16.05-23.57,13.61-38.94c-1.98-12.46-8.21-22.31-18.69-29.46
			C178.55,56.59,170.5,54.12,161.44,53.95z"/>
		<path fill="#FEFEFE" d="M0.3,0.03c0,86.38,0,172.76,0,259.14c-0.07-0.05-0.25,0.12-0.24-0.12c0.01-0.32,0-0.64,0-0.96
			c0-85.66,0-171.32,0.01-256.98C0.08,0.76-0.2,0.3,0.3,0.03z"/>
		<path fill="#7F005C" d="M161.44,53.95c9.06,0.17,17.11,2.64,24.43,7.64c10.48,7.16,16.71,17,18.69,29.46
			c2.44,15.37-2.47,28.47-13.61,38.94c-8.89,8.35-19.8,12.27-32.12,11.52c-5.08-0.31-10.06-1.31-14.71-3.53
			c-1-0.48-1.18-0.25-1.15,0.78c0.22,6.89-2.47,12.68-7.19,17.45c-13.81,13.98-27.68,27.91-41.67,41.71
			c-6.44,6.35-14.3,8.73-23.12,6.17c-5.34-1.55-9.79-4.62-12.9-9.53c-2.81-4.43-4.18-9.12-3.88-14.3
			c0.36-6.12,3.07-11.23,7.29-15.49c13.7-13.82,27.45-27.6,41.27-41.3c4.95-4.9,10.92-7.71,18.08-7.36
			c0.86,0.04,0.71-0.31,0.46-0.83c-1.96-4.18-2.96-8.62-3.39-13.18c-0.89-9.38,0.87-18.2,5.82-26.32c2.64-4.33,5.54-8.42,9.58-11.56
			c6.97-5.41,14.64-9.22,23.58-9.98C158.5,54.1,160.09,53.97,161.44,53.95z"/>
	</g>
</g>
</svg>
