<?xml version="1.0" encoding="utf-8"?>
<!-- Generator: Adobe Illustrator 27.8.0, SVG Export Plug-In . SVG Version: 6.00 Build 0)  -->
<svg version="1.1" id="Capa_1" xmlns="http://www.w3.org/2000/svg" xmlns:xlink="http://www.w3.org/1999/xlink" x="0px" y="0px"
	 viewBox="0 0 259.2 259.2" enable-background="new 0 0 259.2 259.2" xml:space="preserve">
<g>
	<g>
		<path fill="#7F005C" d="M0.3,0.03c85.92,0,171.84,0,257.76-0.03c1.01,0,1.14,0.26,1.14,1.19c-0.03,85.61-0.03,171.22,0,256.82
			c0,0.93-0.13,1.19-1.14,1.19c-85.92-0.03-171.84-0.03-257.76-0.03C0.3,172.79,0.3,86.41,0.3,0.03z M161.76,53.96
			c-2.2-0.02-4.37,0.23-6.55,0.5c-9.47,1.2-17.55,5.44-24.27,11.99c-6.94,6.77-11.33,15.05-12.75,24.81
			c-1.15,7.91-0.22,15.52,2.67,22.94c0.22,0.56,0.77,1.24,0.6,1.63c-0.29,0.68-1.11,0.15-1.69,0.16c-6.66,0.14-12.28,2.8-16.91,7.39
			c-13.34,13.22-26.55,26.58-39.87,39.81c-2.5,2.48-4.57,5.21-6.3,8.24c-1.93,3.37-2.55,7.06-2.5,10.85
			c0.06,4.67,1.63,8.87,4.25,12.77c3.2,4.77,7.69,7.72,13.04,9.15c8.83,2.37,16.54-0.21,22.92-6.53
			c13.51-13.38,26.87-26.91,40.36-40.31c2.51-2.49,4.46-5.32,6.11-8.39c1.73-3.21,2.15-6.74,2.13-10.34c-0.01-0.81,0.01-1.21,1-0.74
			c2.97,1.42,6.12,2.26,9.35,2.9c6.92,1.37,13.72,0.82,20.49-0.99c4.95-1.32,9.2-4.01,13.41-6.76c6.22-4.07,10.37-9.93,13.61-16.42
			c4.07-8.17,5.32-16.85,3.71-25.89c-2.18-12.28-8.25-22.04-18.62-29.12C178.61,56.63,170.57,54.12,161.76,53.96z"/>
		<path fill="#FEFEFE" d="M0.3,0.03c0,86.38,0,172.76,0,259.14c-0.07-0.05-0.25,0.12-0.24-0.12c0.01-0.32,0-0.64,0-0.96
			c0-85.66,0-171.32,0.01-256.98C0.08,0.76-0.2,0.3,0.3,0.03z"/>
		<path fill="#CE79AA" d="M161.76,53.96c8.81,0.16,16.85,2.67,24.17,7.67c10.36,7.08,16.43,16.85,18.62,29.12
			c1.61,9.03,0.36,17.72-3.71,25.89c-3.24,6.49-7.39,12.35-13.61,16.42c-4.21,2.76-8.46,5.44-13.41,6.76
			c-6.77,1.81-13.56,2.36-20.49,0.99c-3.23-0.64-6.38-1.48-9.35-2.9c-0.99-0.47-1.01-0.07-1,0.74c0.02,3.59-0.4,7.13-2.13,10.34
			c-1.65,3.06-3.6,5.89-6.11,8.39c-13.49,13.4-26.84,26.93-40.36,40.31c-6.38,6.32-14.09,8.9-22.92,6.53
			c-5.35-1.43-9.84-4.38-13.04-9.15c-2.62-3.9-4.19-8.1-4.25-12.77c-0.05-3.79,0.57-7.48,2.5-10.85c1.74-3.03,3.81-5.76,6.3-8.24
			c13.32-13.24,26.53-26.6,39.87-39.81c4.63-4.59,10.26-7.25,16.91-7.39c0.58-0.01,1.4,0.52,1.69-0.16c0.17-0.39-0.39-1.07-0.6-1.63
			c-2.89-7.41-3.83-15.02-2.67-22.94c1.42-9.76,5.82-18.05,12.75-24.81c6.71-6.55,14.8-10.78,24.27-11.99
			C157.39,54.19,159.56,53.94,161.76,53.96z"/>
	</g>
</g>
</svg>
