<?xml version="1.0" encoding="utf-8"?>
<!-- Generator: Adobe Illustrator 27.8.0, SVG Export Plug-In . SVG Version: 6.00 Build 0)  -->
<svg version="1.1" id="Capa_1" xmlns="http://www.w3.org/2000/svg" xmlns:xlink="http://www.w3.org/1999/xlink" x="0px" y="0px"
	 viewBox="0 0 259.2 259.2" enable-background="new 0 0 259.2 259.2" xml:space="preserve">
<g>
	<g>
		<path fill="#801815" d="M0.3,0.03c85.92,0,171.84,0,257.76-0.03c1.01,0,1.14,0.26,1.14,1.19c-0.03,85.61-0.03,171.22,0,256.82
			c0,0.93-0.13,1.19-1.14,1.19c-85.92-0.03-171.84-0.03-257.76-0.03C0.3,172.79,0.3,86.41,0.3,0.03z M53.96,188.14
			c0.21,6.91,3.17,12.07,9.14,15.26c2.57,1.37,5.5,2.17,8.44,1.9c4.69-0.43,8.75-2.28,12.18-5.74
			c14.93-15.08,29.98-30.05,44.95-45.09c0.8-0.8,1.19-0.72,1.93,0.03c15.01,15.07,30.03,30.11,45.07,45.14
			c4.86,4.86,10.55,6.75,17.37,4.89c3.72-1.02,6.57-3.09,8.92-6.07c2.4-3.04,2.99-6.7,3.72-10.31c0.27-1.35-0.8-2.53-1-3.88
			c-0.51-3.39-2.38-6.06-4.73-8.42c-15.05-15.08-30.11-30.15-45.17-45.23c-1.12-1.12-1.12-1.12,0-2.24
			c15.14-15.16,30.25-30.35,45.45-45.45c3.25-3.23,4.32-7.36,5.44-11.49c0.51-1.88-0.73-3.61-1.14-5.41
			c-1.59-6.99-7.9-11.81-15.11-12.21c-5.29-0.29-9.82,1.57-13.6,5.36c-15.06,15.12-30.17,30.2-45.23,45.33
			c-0.77,0.78-1.17,0.77-1.94,0c-15.06-15.12-30.14-30.23-45.24-45.31c-4.75-4.74-10.38-6.38-16.99-4.79
			c-7.13,1.72-12.24,8.22-12.41,15.74c-0.11,5.17,1.78,9.54,5.47,13.21c15.03,14.98,30.01,30.02,45.01,45.03
			c1.1,1.1,1.1,1.1-0.04,2.24c-15.14,15.16-30.28,30.31-45.42,45.47C55.67,179.47,54.15,183.6,53.96,188.14z"/>
		<path fill="#FEFEFE" d="M0.3,0.03c0,86.38,0,172.76,0,259.14c-0.07-0.05-0.25,0.12-0.24-0.12c0.01-0.32,0-0.64,0-0.96
			c0-85.66,0-171.32,0.01-256.98C0.08,0.76-0.2,0.3,0.3,0.03z"/>
		<path fill="#CE724E" d="M53.96,188.14c0.19-4.54,1.7-8.67,5.07-12.04c15.14-15.16,30.28-30.31,45.42-45.47
			c1.14-1.14,1.14-1.14,0.04-2.24c-15-15.02-29.98-30.05-45.01-45.03c-3.69-3.68-5.58-8.04-5.47-13.21
			c0.17-7.52,5.28-14.02,12.41-15.74c6.61-1.59,12.24,0.05,16.99,4.79c15.1,15.08,30.18,30.19,45.24,45.31
			c0.77,0.77,1.17,0.78,1.94,0c15.06-15.12,30.16-30.21,45.23-45.33c3.78-3.79,8.31-5.65,13.6-5.36c7.21,0.4,13.53,5.22,15.11,12.21
			c0.41,1.8,1.65,3.53,1.14,5.41c-1.13,4.13-2.19,8.26-5.44,11.49c-15.2,15.1-30.31,30.29-45.45,45.45c-1.12,1.12-1.12,1.12,0,2.24
			c15.06,15.07,30.12,30.14,45.17,45.23c2.35,2.36,4.22,5.04,4.73,8.42c0.2,1.35,1.28,2.52,1,3.88c-0.73,3.61-1.32,7.27-3.72,10.31
			c-2.35,2.98-5.2,5.05-8.92,6.07c-6.82,1.87-12.51-0.03-17.37-4.89c-15.04-15.03-30.07-30.08-45.07-45.14
			c-0.75-0.75-1.14-0.83-1.93-0.03c-14.97,15.04-30.02,30.01-44.95,45.09c-3.42,3.46-7.48,5.31-12.18,5.74
			c-2.93,0.27-5.87-0.53-8.44-1.9C57.13,200.22,54.17,195.06,53.96,188.14z"/>
	</g>
</g>
</svg>
