<?xml version="1.0" encoding="utf-8"?>
<!-- Generator: Adobe Illustrator 27.8.0, SVG Export Plug-In . SVG Version: 6.00 Build 0)  -->
<svg version="1.1" id="Capa_1" xmlns="http://www.w3.org/2000/svg" xmlns:xlink="http://www.w3.org/1999/xlink" x="0px" y="0px"
	 viewBox="0 0 259.2 259.2" enable-background="new 0 0 259.2 259.2" xml:space="preserve">
<g>
	<g>
		<path fill="#CE734F" d="M0.3,0.03c85.92,0,171.84,0,257.76-0.03c1.01,0,1.14,0.26,1.14,1.19c-0.03,85.61-0.03,171.22,0,256.82
			c0,0.93-0.13,1.19-1.14,1.19c-85.92-0.03-171.84-0.03-257.76-0.03C0.3,172.79,0.3,86.41,0.3,0.03z M53.99,187.54
			c0,7.16,3.31,12.88,9.01,15.8c2.71,1.39,5.71,2.22,8.79,1.91c4.67-0.46,8.63-2.39,12.02-5.81c14.85-15,29.8-29.89,44.72-44.82
			c1.23-1.23,0.95-1.23,2.17,0c15.03,15.04,30.04,30.1,45.09,45.12c4.77,4.76,10.38,6.58,17.07,4.82c3.68-0.97,6.51-2.99,8.92-5.87
			c2.49-2.97,2.94-6.65,3.9-10.16c0.37-1.35-0.72-2.48-0.9-3.79c-0.52-3.65-2.47-6.52-5.01-9.06
			c-15.06-15.07-30.11-30.15-45.19-45.2c-0.78-0.77-0.78-1.19,0-1.96c5.6-5.54,11.15-11.12,16.71-16.69
			c9.58-9.59,19.09-19.23,28.76-28.73c3.34-3.28,4.48-7.45,5.61-11.68c0.49-1.82-0.72-3.46-1.09-5.2
			c-1.55-7.19-8.12-12.18-15.57-12.41c-5.06-0.16-9.43,1.63-13.05,5.26c-15.04,15.09-30.1,30.15-45.16,45.22
			c-1.33,1.33-1.01,1.33-2.35-0.01c-15.06-15.07-30.11-30.15-45.18-45.21c-1.73-1.73-3.64-3.28-6-4.08
			c-3.58-1.21-7.15-1.56-10.94-0.59C59.3,56.21,54.26,62.53,54.02,70c-0.17,5.12,1.63,9.51,5.29,13.16
			c15.08,15.05,30.12,30.13,45.17,45.21c1.27,1.27,1.26,0.99-0.01,2.26c-15.11,15.13-30.21,30.27-45.34,45.38
			C55.73,179.42,54.16,183.56,53.99,187.54z"/>
		<path fill="#FEFEFE" d="M0.3,0.03c0,86.38,0,172.76,0,259.14c-0.07-0.05-0.25,0.12-0.24-0.12c0.01-0.32,0-0.64,0-0.96
			c0-85.66,0-171.32,0.01-256.98C0.08,0.76-0.2,0.3,0.3,0.03z"/>
		<path fill="#801815" d="M53.99,187.54c0.17-3.98,1.73-8.11,5.14-11.52c15.12-15.12,30.23-30.25,45.34-45.38
			c1.27-1.28,1.28-0.99,0.01-2.26C89.43,113.3,74.39,98.21,59.31,83.16c-3.66-3.66-5.46-8.05-5.29-13.16
			c0.24-7.47,5.29-13.79,12.31-15.59c3.78-0.97,7.36-0.62,10.94,0.59c2.36,0.8,4.26,2.34,6,4.08
			c15.07,15.06,30.12,30.14,45.18,45.21c1.34,1.34,1.02,1.34,2.35,0.01c15.06-15.07,30.13-30.13,45.16-45.22
			c3.62-3.63,7.98-5.42,13.05-5.26c7.46,0.23,14.02,5.22,15.57,12.41c0.37,1.73,1.58,3.37,1.09,5.2c-1.13,4.23-2.27,8.4-5.61,11.68
			c-9.67,9.49-19.18,19.14-28.76,28.73c-5.56,5.57-11.11,11.16-16.71,16.69c-0.78,0.77-0.78,1.19,0,1.96
			c15.08,15.05,30.13,30.13,45.19,45.2c2.54,2.54,4.49,5.42,5.01,9.06c0.19,1.3,1.27,2.44,0.9,3.79c-0.96,3.51-1.41,7.19-3.9,10.16
			c-2.41,2.88-5.23,4.91-8.92,5.87c-6.69,1.76-12.3-0.06-17.07-4.82c-15.05-15.02-30.06-30.08-45.09-45.12
			c-1.22-1.22-0.95-1.22-2.17,0c-14.92,14.93-29.87,29.82-44.72,44.82c-3.38,3.42-7.34,5.34-12.02,5.81
			c-3.08,0.31-6.08-0.52-8.79-1.91C57.3,200.41,53.99,194.7,53.99,187.54z"/>
	</g>
</g>
</svg>
