<?xml version="1.0" encoding="utf-8"?>
<!-- Generator: Adobe Illustrator 27.8.0, SVG Export Plug-In . SVG Version: 6.00 Build 0)  -->
<svg version="1.1" id="Capa_1" xmlns="http://www.w3.org/2000/svg" xmlns:xlink="http://www.w3.org/1999/xlink" x="0px" y="0px"
	 viewBox="0 0 259.2 259.2" enable-background="new 0 0 259.2 259.2" xml:space="preserve">
<g>
	<g>
		<path fill="#006B33" d="M0.3,0.03c85.92,0,171.84,0,257.76-0.03c1.01,0,1.14,0.26,1.14,1.19c-0.03,85.61-0.03,171.22,0,256.82
			c0,0.93-0.13,1.19-1.14,1.19c-85.92-0.03-171.84-0.03-257.76-0.03C0.3,172.79,0.3,86.41,0.3,0.03z M113.24,118.64
			c-0.44,0.2-0.65,0.31-0.87,0.4c-4.78,2.05-9.12,4.8-12.88,8.37c-5.94,5.63-10.25,12.3-12.25,20.33
			c-0.84,3.36-1.78,6.74-1.81,10.22c-0.09,9.32-0.03,18.63-0.03,27.95c0,2.63,0.48,5.24,1.53,7.58c3.32,7.44,8.71,10.41,15.97,10.61
			c13.57,0.37,27.16,0.1,40.74,0.12c2.64,0,5.23-0.2,7.84-0.68c5.06-0.93,9.48-3.06,13.28-6.45c6.2-5.53,8.99-12.66,9.29-20.82
			c0.16-4.31,0.03-8.64,0.03-12.95c0-4.59-0.39-9.12-1.34-13.65c-1.57-7.4-5.01-13.79-9.91-19.4c-4.34-4.96-9.69-8.64-15.76-11.25
			c-0.22-0.09-0.53-0.12-0.56-0.38c-0.04-0.33,0.3-0.44,0.53-0.58c1.62-0.95,3.15-2.03,4.64-3.18c4.19-3.24,7.4-7.33,9.58-12.09
			c2.61-5.72,3.87-11.79,3.26-18.15c-0.3-3.2-1.05-6.31-2.11-9.31c-2.3-6.46-6.42-11.62-11.86-15.74
			c-6.1-4.62-13.12-6.62-20.64-7.01c-3.88-0.2-7.6,0.88-11.25,1.99c-7.23,2.2-12.89,6.62-17.35,12.7
			c-4.46,6.09-6.31,12.98-6.56,20.4c-0.11,3.19,0.64,6.24,1.39,9.31c1.79,7.36,5.92,13.18,11.68,17.94
			C109.43,116.29,111.22,117.41,113.24,118.64z"/>
		<path fill="#FEFEFE" d="M0.3,0.03c0,86.38,0,172.76,0,259.14c-0.07-0.05-0.25,0.12-0.24-0.12c0.01-0.32,0-0.64,0-0.96
			c0-85.66,0-171.32,0.01-256.98C0.08,0.76-0.2,0.3,0.3,0.03z"/>
		<path fill="#008F45" d="M113.24,118.64c-2.02-1.23-3.81-2.35-5.43-3.69c-5.76-4.76-9.89-10.57-11.68-17.94
			c-0.75-3.07-1.5-6.12-1.39-9.31c0.25-7.43,2.1-14.31,6.56-20.4c4.45-6.08,10.12-10.51,17.35-12.7c3.65-1.11,7.38-2.19,11.25-1.99
			c7.52,0.39,14.54,2.38,20.64,7.01c5.44,4.12,9.57,9.27,11.86,15.74c1.06,3,1.81,6.11,2.11,9.31c0.6,6.36-0.65,12.43-3.26,18.15
			c-2.17,4.76-5.39,8.85-9.58,12.09c-1.49,1.15-3.02,2.22-4.64,3.18c-0.24,0.14-0.57,0.25-0.53,0.58c0.03,0.25,0.35,0.28,0.56,0.38
			c6.07,2.6,11.42,6.28,15.76,11.25c4.9,5.61,8.35,11.99,9.91,19.4c0.96,4.53,1.35,9.06,1.34,13.65c0,4.32,0.13,8.64-0.03,12.95
			c-0.3,8.16-3.09,15.29-9.29,20.82c-3.8,3.39-8.23,5.52-13.28,6.45c-2.61,0.48-5.2,0.69-7.84,0.68
			c-13.58-0.02-27.17,0.26-40.74-0.12c-7.26-0.2-12.65-3.17-15.97-10.61c-1.05-2.35-1.53-4.95-1.53-7.58
			c0-9.32-0.06-18.63,0.03-27.95c0.03-3.48,0.97-6.86,1.81-10.22c2-8.03,6.31-14.7,12.25-20.33c3.76-3.57,8.11-6.33,12.88-8.37
			C112.58,118.95,112.79,118.84,113.24,118.64z"/>
	</g>
</g>
</svg>
