<?xml version="1.0" encoding="utf-8"?>
<!-- Generator: Adobe Illustrator 27.8.0, SVG Export Plug-In . SVG Version: 6.00 Build 0)  -->
<svg version="1.1" id="Capa_1" xmlns="http://www.w3.org/2000/svg" xmlns:xlink="http://www.w3.org/1999/xlink" x="0px" y="0px"
	 viewBox="0 0 259.2 259.2" enable-background="new 0 0 259.2 259.2" xml:space="preserve">
<g>
	<g>
		<path fill="#75AC74" d="M0.3,0.03c85.92,0,171.84,0,257.76-0.03c1.01,0,1.14,0.26,1.14,1.19c-0.03,85.61-0.03,171.22,0,256.82
			c0,0.93-0.13,1.19-1.14,1.19c-85.92-0.03-171.84-0.03-257.76-0.03C0.3,172.79,0.3,86.41,0.3,0.03z M113.24,118.61
			c-0.47,0.23-0.71,0.36-0.96,0.47c-17.1,7.92-25.92,21.5-26.79,40.15c-0.42,9.1-0.16,18.23-0.03,27.34
			c0.05,3.24,0.82,6.42,2.6,9.24c3.6,5.73,9.02,8.26,15.55,8.31c14.06,0.11,28.12,0.03,42.18,0.04c3.8,0,7.52-0.72,10.99-2.16
			c10.76-4.47,16.74-13.64,17.24-25.46c0.23-5.43,0.03-10.87,0.05-16.31c0.01-2.97-0.37-5.89-0.95-8.8
			c-2.92-14.68-11.26-25.13-24.56-31.75c-0.7-0.35-1.42-0.65-2.37-1.07c10.25-5.86,16.39-14.45,18.04-25.94
			c1.65-11.51-1.69-21.62-9.91-29.79c-14.67-14.58-38.2-13.07-51.11,1.99c-6.29,7.34-9.16,15.98-8.32,25.53
			C95.98,102.81,102.11,112.28,113.24,118.61z"/>
		<path fill="#FEFEFE" d="M0.3,0.03c0,86.38,0,172.76,0,259.14c-0.07-0.05-0.25,0.12-0.24-0.12c0.01-0.32,0-0.64,0-0.96
			c0-85.66,0-171.32,0.01-256.98C0.08,0.76-0.2,0.3,0.3,0.03z"/>
		<path fill="#006B33" d="M113.24,118.61c-11.13-6.33-17.26-15.8-18.36-28.22c-0.84-9.55,2.03-18.19,8.32-25.53
			c12.91-15.06,36.44-16.57,51.11-1.99c8.22,8.17,11.56,18.29,9.91,29.79c-1.65,11.49-7.79,20.08-18.04,25.94
			c0.95,0.43,1.67,0.73,2.37,1.07c13.3,6.62,21.65,17.07,24.56,31.75c0.58,2.91,0.96,5.83,0.95,8.8
			c-0.02,5.44,0.18,10.88-0.05,16.31c-0.5,11.82-6.48,20.99-17.24,25.46c-3.47,1.44-7.18,2.16-10.99,2.16
			c-14.06,0-28.12,0.08-42.18-0.04c-6.54-0.05-11.95-2.58-15.55-8.31c-1.77-2.82-2.55-6.01-2.6-9.24
			c-0.14-9.11-0.4-18.25,0.03-27.34c0.86-18.65,9.68-32.23,26.79-40.15C112.53,118.96,112.77,118.84,113.24,118.61z"/>
	</g>
</g>
</svg>
