<?xml version="1.0" encoding="utf-8"?>
<!-- Generator: Adobe Illustrator 27.8.0, SVG Export Plug-In . SVG Version: 6.00 Build 0)  -->
<svg version="1.1" id="Capa_1" xmlns="http://www.w3.org/2000/svg" xmlns:xlink="http://www.w3.org/1999/xlink" x="0px" y="0px"
	 viewBox="0 0 259.2 259.2" enable-background="new 0 0 259.2 259.2" xml:space="preserve">
<g>
	<g>
		<path fill="#FFFFFF" d="M0,259.2C0,172.8,0,86.4,0,0c86.4,0,172.8,0,259.2,0c0,86.4,0,172.8,0,259.2
			C172.8,259.2,86.4,259.2,0,259.2z M68.51,91.37c0,0.71,0,1.22,0,1.74c0,25.96,0.01,51.92-0.01,77.88c0,4.48,0.98,8.55,3.81,12.18
			c3.81,4.89,8.68,7.66,14.85,7.68c22.02,0.08,44.04,0.03,66.06,0.03c0.48,0,0.96,0.03,1.44-0.02c2.14-0.21,3.32-1.35,3.34-3.49
			c0.06-5.32,0.05-10.64,0-15.96c-0.02-2.04-0.98-3.06-2.97-3.45c-0.5-0.1-1.03-0.11-1.55-0.11c-20.1-0.01-40.2,0-60.3,0
			c-0.51,0-1.01,0-1.65,0c0-0.69,0-1.24,0-1.79c0-37.08,0.01-74.16-0.05-111.24c0-1.7-0.32-3.59-1.09-5.08
			c-2.19-4.25-5.8-6.34-10.67-6.33c-6.23,0.02-11.4,4.9-11.23,11.2c0.11,4.12,0.02,8.24,0.02,12.36c0,0.42,0,0.85,0,1.38
			c-0.61,0-1.04,0-1.47,0c-4.24,0-8.47-0.02-12.71,0.01c-2.21,0.02-4.26,0.69-6.05,1.98c-3.39,2.44-4.72,5.81-4.69,9.95
			c0.05,6.35,5.24,11.17,11.1,11.11c4.08-0.04,8.15-0.01,12.23-0.01C67.39,91.37,67.86,91.37,68.51,91.37z M167.92,91.37
			c0,0.62,0,1.05,0,1.48c0,4.92,0,9.84,0,14.76c0,32.28,0,64.55,0,96.83c0,4.13,1.65,7.41,5.14,9.68c2.23,1.45,4.73,1.79,7.34,1.67
			c3.51-0.15,6.28-1.76,8.39-4.43c1.52-1.92,2.16-4.23,2.15-6.7c-0.02-4.12,0-8.24,0-12.36c0-0.43,0-0.85,0-1.42c0.57,0,1,0,1.43,0
			c4.16,0,8.31,0.03,12.47-0.01c7.24-0.07,12.16-6.3,10.83-13.79c-0.51-2.88-2.04-5.1-4.32-6.94c-1.67-1.35-3.54-2.1-5.56-2.18
			c-4.47-0.17-8.94-0.09-13.41-0.12c-0.43,0-0.86,0-1.44,0c0-0.63,0-1.14,0-1.65c0-25.64-0.01-51.27,0.01-76.91
			c0-4.94-0.69-9.68-4.16-13.5c-1.56-1.72-3.22-3.47-5.15-4.73c-2.95-1.92-6.36-2.71-9.91-2.71c-21.98-0.01-43.95,0-65.93,0
			c-0.32,0-0.64-0.01-0.96,0.02c-2.19,0.2-3.38,1.37-3.39,3.57c-0.05,5.28-0.04,10.56,0,15.84c0.02,2.08,0.99,3.14,3.04,3.52
			c0.47,0.09,0.95,0.09,1.43,0.09c20.1,0,40.2,0,60.3,0C166.72,91.37,167.23,91.37,167.92,91.37z"/>
		<path d="M68.51,91.37c-0.64,0-1.12,0-1.59,0c-4.08,0-8.15-0.03-12.23,0.01c-5.86,0.06-11.05-4.76-11.1-11.11
			c-0.03-4.14,1.3-7.51,4.69-9.95c1.79-1.29,3.84-1.96,6.05-1.98c4.24-0.03,8.47-0.01,12.71-0.01c0.43,0,0.86,0,1.47,0
			c0-0.53,0-0.95,0-1.38c0-4.12,0.09-8.24-0.02-12.36c-0.17-6.29,5-11.18,11.23-11.2c4.87-0.01,8.48,2.08,10.67,6.33
			c0.77,1.49,1.08,3.37,1.09,5.08c0.06,37.08,0.05,74.16,0.05,111.24c0,0.55,0,1.1,0,1.79c0.64,0,1.14,0,1.65,0
			c20.1,0,40.2,0,60.3,0c0.52,0,1.04,0.01,1.55,0.11c2,0.39,2.95,1.41,2.97,3.45c0.05,5.32,0.05,10.64,0,15.96
			c-0.02,2.14-1.2,3.28-3.34,3.49c-0.48,0.05-0.96,0.02-1.44,0.02c-22.02,0-44.04,0.05-66.06-0.03c-6.17-0.02-11.04-2.79-14.85-7.68
			c-2.83-3.63-3.82-7.71-3.81-12.18c0.02-25.96,0.01-51.92,0.01-77.88C68.51,92.59,68.51,92.07,68.51,91.37z"/>
		<path d="M167.92,91.37c-0.69,0-1.2,0-1.71,0c-20.1,0-40.2,0-60.3,0c-0.48,0-0.96,0-1.43-0.09c-2.05-0.38-3.02-1.44-3.04-3.52
			c-0.04-5.28-0.05-10.56,0-15.84c0.02-2.2,1.21-3.37,3.39-3.57c0.32-0.03,0.64-0.02,0.96-0.02c21.98,0,43.95,0,65.93,0
			c3.55,0,6.96,0.79,9.91,2.71c1.93,1.26,3.58,3.01,5.15,4.73c3.47,3.82,4.16,8.56,4.16,13.5c-0.01,25.64-0.01,51.27-0.01,76.91
			c0,0.51,0,1.02,0,1.65c0.58,0,1.01,0,1.44,0c4.47,0.02,8.95-0.06,13.41,0.12c2.02,0.08,3.89,0.83,5.56,2.18
			c2.28,1.85,3.81,4.06,4.32,6.94c1.32,7.49-3.59,13.72-10.83,13.79c-4.16,0.04-8.31,0.01-12.47,0.01c-0.43,0-0.86,0-1.43,0
			c0,0.57,0,1,0,1.42c0,4.12-0.01,8.24,0,12.36c0.01,2.48-0.63,4.78-2.15,6.7c-2.12,2.67-4.88,4.28-8.39,4.43
			c-2.61,0.11-5.11-0.22-7.34-1.67c-3.49-2.27-5.14-5.55-5.14-9.68c0-32.28,0-64.55,0-96.83c0-4.92,0-9.84,0-14.76
			C167.92,92.42,167.92,91.98,167.92,91.37z"/>
	</g>
</g>
</svg>
