<?xml version="1.0" encoding="utf-8"?>
<!-- Generator: Adobe Illustrator 27.8.0, SVG Export Plug-In . SVG Version: 6.00 Build 0)  -->
<svg version="1.1" id="Capa_1" xmlns="http://www.w3.org/2000/svg" xmlns:xlink="http://www.w3.org/1999/xlink" x="0px" y="0px"
	 viewBox="0 0 259.2 259.2" enable-background="new 0 0 259.2 259.2" xml:space="preserve">
<g>
	<g>
		<path fill="#FFFFFF" d="M0,259.2C0,172.8,0,86.4,0,0c86.4,0,172.8,0,259.2,0c0,86.4,0,172.8,0,259.2
			C172.8,259.2,86.4,259.2,0,259.2z M128.08,96.63c0-0.68,0-1.16,0-1.64c0-10.32-0.03-20.64,0.03-30.96
			c0.01-2.12-0.71-3.99-1.82-5.59c-3.43-4.91-10.97-4.76-14.58-1.05c-2.22,2.28-4.46,4.55-6.71,6.8
			c-5.5,5.49-11.01,10.96-16.51,16.44c-3.04,3.03-6.08,6.07-9.11,9.12c-3,3.02-5.99,6.05-8.98,9.08c-2.32,2.35-4.62,4.73-6.97,7.06
			c-1.95,1.94-3.95,3.81-5.9,5.75c-3.5,3.48-6.89,7.07-10.49,10.43c-2.1,1.96-3.51,4.12-3.49,7.02c0.01,2.26-0.11,4.61,1.54,6.48
			c1.26,1.43,2.57,2.82,3.93,4.16c2.99,2.97,6.04,5.89,9.04,8.86c3.84,3.81,7.65,7.65,11.49,11.47c4.65,4.64,9.33,9.26,13.97,13.91
			c6.42,6.43,12.81,12.88,19.22,19.32c2.92,2.94,5.91,5.81,8.77,8.82c1.5,1.58,3.14,2.66,5.35,2.75c0.12,0,0.23,0.06,0.35,0.08
			c6.03,0.67,10.71-2.69,10.84-9.06c0.21-10.44,0.06-20.88,0.06-31.32c0-0.46,0-0.93,0-1.49c0.68,0,1.2,0,1.71,0
			c25.38,0,50.75,0,76.13,0c0.64,0,1.31,0.11,1.91-0.06c1.44-0.4,3.07-0.64,4.23-1.47c2.56-1.85,4-4.34,3.95-7.74
			c-0.13-9.48-0.04-18.96-0.04-28.44c0-6.88,0-13.76-0.05-20.64c-0.01-0.85-0.18-1.78-0.53-2.55c-1.71-3.72-4.77-5.52-8.77-5.53
			c-25.62-0.04-51.23-0.02-76.85-0.02C129.26,96.63,128.75,96.63,128.08,96.63z"/>
		<path d="M128.08,96.63c0.67,0,1.18,0,1.69,0c25.62,0,51.23-0.02,76.85,0.02c4,0.01,7.06,1.81,8.77,5.53
			c0.35,0.77,0.53,1.69,0.53,2.55c0.05,6.88,0.05,13.76,0.05,20.64c0,9.48-0.09,18.96,0.04,28.44c0.05,3.4-1.4,5.9-3.95,7.74
			c-1.16,0.84-2.78,1.07-4.23,1.47c-0.6,0.17-1.27,0.06-1.91,0.06c-25.38,0-50.75,0-76.13,0c-0.51,0-1.03,0-1.71,0
			c0,0.56,0,1.02,0,1.49c0,10.44,0.15,20.88-0.06,31.32c-0.13,6.37-4.81,9.73-10.84,9.06c-0.12-0.01-0.23-0.07-0.35-0.08
			c-2.21-0.09-3.85-1.18-5.35-2.75c-2.85-3.01-5.84-5.88-8.77-8.82c-6.41-6.44-12.8-12.89-19.22-19.32
			c-4.64-4.65-9.32-9.27-13.97-13.91c-3.83-3.82-7.64-7.66-11.49-11.47c-3-2.97-6.04-5.89-9.04-8.86c-1.35-1.34-2.66-2.74-3.93-4.16
			c-1.65-1.87-1.53-4.22-1.54-6.48c-0.01-2.9,1.4-5.06,3.49-7.02c3.6-3.37,6.99-6.96,10.49-10.43c1.95-1.94,3.96-3.81,5.9-5.75
			c2.34-2.33,4.64-4.71,6.97-7.06c2.99-3.03,5.98-6.06,8.98-9.08c3.03-3.05,6.07-6.09,9.11-9.12c5.5-5.48,11.01-10.95,16.51-16.44
			c2.25-2.25,4.49-4.51,6.71-6.8c3.61-3.72,11.15-3.86,14.58,1.05c1.12,1.6,1.84,3.47,1.82,5.59c-0.06,10.32-0.03,20.64-0.03,30.96
			C128.08,95.47,128.08,95.95,128.08,96.63z M109.17,172.92c0-0.7,0-1.17,0-1.64c0.02-6.2-0.04-12.4,0.1-18.59
			c0.07-2.79,1.68-5.07,3.81-6.63c1.71-1.24,3.92-1.65,6.15-1.65c25.45,0.03,50.91,0.02,76.36,0.02c0.54,0,1.08,0,1.57,0
			c0-9.79,0-19.36,0-29.02c-0.59,0-1.06,0-1.54,0c-7.99,0-15.98,0-23.97,0c-17.38,0-34.76,0.01-52.15-0.01
			c-6.43,0-10.3-3.86-10.34-10.3c-0.03-5.56-0.01-11.12-0.01-16.68c0-0.42-0.04-0.83-0.05-1.09
			c-14.26,14.27-28.52,28.54-42.71,42.75C80.46,144.15,94.72,158.44,109.17,172.92z"/>
		<path fill="#FFFFFF" d="M109.17,172.92c-14.45-14.48-28.71-28.76-42.76-42.83c14.19-14.21,28.45-28.48,42.71-42.75
			c0.01,0.26,0.05,0.68,0.05,1.09c0,5.56-0.02,11.12,0.01,16.68c0.04,6.44,3.91,10.29,10.34,10.3c17.38,0.01,34.76,0,52.15,0.01
			c7.99,0,15.98,0,23.97,0c0.48,0,0.95,0,1.54,0c0,9.66,0,19.23,0,29.02c-0.5,0-1.03,0-1.57,0c-25.45,0-50.91,0.01-76.36-0.02
			c-2.24,0-4.44,0.4-6.15,1.65c-2.14,1.55-3.75,3.84-3.81,6.63c-0.15,6.2-0.08,12.4-0.1,18.59
			C109.17,171.75,109.17,172.22,109.17,172.92z"/>
	</g>
</g>
</svg>
