<?xml version="1.0" encoding="utf-8"?>
<!-- Generator: Adobe Illustrator 27.8.0, SVG Export Plug-In . SVG Version: 6.00 Build 0)  -->
<svg version="1.1" id="Capa_1" xmlns="http://www.w3.org/2000/svg" xmlns:xlink="http://www.w3.org/1999/xlink" x="0px" y="0px"
	 viewBox="0 0 259.2 259.2" enable-background="new 0 0 259.2 259.2" xml:space="preserve">
<g>
	<g>
		<path fill="#FFFFFF" d="M0,259.2C0,172.8,0,86.4,0,0c86.4,0,172.8,0,259.2,0c0,86.4,0,172.8,0,259.2
			C172.8,259.2,86.4,259.2,0,259.2z M131.6,163.08c0,0.68,0,1.12,0,1.55c0,10.48-0.04,20.96,0.03,31.44
			c0.02,2.69,1.1,5.09,3.19,6.83c3.36,2.79,7.16,2.45,11.01,1.28c0.32-0.1,0.62-0.37,0.87-0.62c5.81-5.8,11.6-11.6,17.4-17.41
			c5.83-5.83,11.64-11.68,17.48-17.49c3.25-3.23,6.58-6.38,9.81-9.61c2.84-2.84,5.59-5.77,8.42-8.63c1.62-1.64,3.34-3.19,4.97-4.82
			c2.47-2.48,4.83-5.08,7.38-7.47c2.1-1.96,3.9-3.95,3.93-7.05c0.03-3.05-0.11-5.88-2.7-8.17c-2.98-2.63-5.69-5.56-8.49-8.38
			c-3.34-3.36-6.64-6.75-9.98-10.11c-2.64-2.66-5.32-5.27-7.97-7.92c-4.55-4.56-9.08-9.15-13.64-13.71
			c-2.64-2.65-5.33-5.26-7.97-7.91c-5.4-5.41-10.8-10.82-16.16-16.27c-1.98-2.01-4.07-3.51-7.05-3.84
			c-5.81-0.64-10.48,3.49-10.53,9.1c-0.09,10.4-0.03,20.8-0.03,31.2c0,0.47,0,0.94,0,1.57c-0.62,0-1.13,0-1.64,0
			c-25.58,0-51.15-0.03-76.73,0.06c-1.76,0.01-3.71,0.49-5.24,1.35c-2.93,1.65-4.35,4.31-4.32,7.84
			c0.09,12.68,0.03,25.36,0.03,38.04c0,3.72-0.02,7.44,0.04,11.16c0.06,3.16,1.99,5.29,4.42,6.85c1.52,0.97,3.4,1.19,5.3,1.19
			c25.5-0.04,50.99-0.03,76.49-0.03C130.47,163.08,130.97,163.08,131.6,163.08z"/>
		<path d="M131.6,163.08c-0.63,0-1.14,0-1.64,0c-25.5,0-50.99-0.01-76.49,0.03c-1.9,0-3.78-0.22-5.3-1.19
			c-2.43-1.56-4.36-3.68-4.42-6.85c-0.07-3.72-0.04-7.44-0.04-11.16c0-12.68,0.05-25.36-0.03-38.04c-0.02-3.53,1.39-6.19,4.32-7.84
			c1.53-0.86,3.48-1.34,5.24-1.35c25.57-0.08,51.15-0.06,76.73-0.06c0.51,0,1.01,0,1.64,0c0-0.63,0-1.1,0-1.57
			c0-10.4-0.07-20.8,0.03-31.2c0.05-5.61,4.72-9.74,10.53-9.1c2.98,0.33,5.07,1.83,7.05,3.84c5.36,5.45,10.76,10.86,16.16,16.27
			c2.64,2.65,5.33,5.26,7.97,7.91c4.55,4.56,9.09,9.15,13.64,13.71c2.64,2.65,5.33,5.26,7.97,7.92c3.34,3.36,6.64,6.75,9.98,10.11
			c2.8,2.82,5.52,5.75,8.49,8.38c2.59,2.28,2.73,5.12,2.7,8.17c-0.03,3.1-1.83,5.09-3.93,7.05c-2.56,2.39-4.91,4.99-7.38,7.47
			c-1.63,1.63-3.35,3.18-4.97,4.82c-2.83,2.86-5.57,5.79-8.42,8.63c-3.24,3.24-6.57,6.38-9.81,9.61
			c-5.84,5.81-11.66,11.66-17.48,17.49c-5.8,5.8-11.6,11.61-17.4,17.41c-0.25,0.25-0.55,0.52-0.87,0.62
			c-3.85,1.18-7.65,1.52-11.01-1.28c-2.1-1.75-3.18-4.14-3.19-6.83c-0.07-10.48-0.03-20.96-0.03-31.44
			C131.6,164.2,131.6,163.76,131.6,163.08z M150.51,172.98c14.49-14.51,28.75-28.8,43.11-43.18
			c-14.25-14.25-28.52-28.52-42.79-42.79c-0.11,0.08-0.21,0.17-0.32,0.25c0,0.48,0,0.95,0,1.43c0,5.72,0.07,11.44-0.04,17.16
			c-0.06,3.32-1.36,6.14-4.26,8.02c-1.92,1.24-4.08,1.54-6.31,1.54c-25.29,0-50.59,0-75.88,0c-0.5,0-1,0-1.54,0
			c0,9.76,0,19.33,0,29.02c0.56,0,1.03,0,1.5,0c11.99,0,23.97,0,35.96,0c13.67,0,27.33-0.01,41,0.01c5.7,0.01,9.49,4.01,9.55,9.47
			c0.06,5.84,0.02,11.68,0.02,17.52C150.51,171.84,150.51,172.27,150.51,172.98z"/>
		<path fill="#FFFFFF" d="M150.51,172.98c0-0.7,0-1.13,0-1.56c0-5.84,0.04-11.68-0.02-17.52c-0.06-5.46-3.85-9.46-9.55-9.47
			c-13.67-0.02-27.33-0.01-41-0.01c-11.99,0-23.97,0-35.96,0c-0.47,0-0.94,0-1.5,0c0-9.69,0-19.27,0-29.02c0.53,0,1.04,0,1.54,0
			c25.29,0,50.59,0,75.88,0c2.23,0,4.39-0.31,6.31-1.54c2.9-1.87,4.19-4.7,4.26-8.02c0.11-5.72,0.04-11.44,0.04-17.16
			c0-0.48,0-0.95,0-1.43c0.11-0.08,0.21-0.17,0.32-0.25c14.27,14.27,28.54,28.54,42.79,42.79
			C179.26,144.18,165,158.46,150.51,172.98z"/>
	</g>
</g>
</svg>
