<?xml version="1.0" encoding="utf-8"?>
<!-- Generator: Adobe Illustrator 27.8.0, SVG Export Plug-In . SVG Version: 6.00 Build 0)  -->
<svg version="1.1" id="Capa_1" xmlns="http://www.w3.org/2000/svg" xmlns:xlink="http://www.w3.org/1999/xlink" x="0px" y="0px"
	 viewBox="0 0 259.2 259.2" enable-background="new 0 0 259.2 259.2" xml:space="preserve">
<g>
	<g>
		<path fill="#FFFFFF" d="M0,259.2C0,172.81,0,86.42,0,0c86.38,0,172.77,0,259.2,0c0,86.38,0,172.79,0,259.2
			C172.82,259.2,86.41,259.2,0,259.2z M72.18,167.49c0,0.72,0,1.24,0,1.75c0.01,13.52,0,27.04,0.08,40.56
			c0.01,1.27,0.28,2.71,0.92,3.77c2,3.27,5,4.78,8.91,4.78c31.46-0.04,62.91-0.02,94.37-0.02c0.68,0,1.36,0.02,2.04,0
			c4.41-0.15,8.81-3.84,8.79-8.8c-0.07-13.48-0.01-26.96,0-40.44c0-0.5,0-1.01,0-1.51c0.33-0.04,0.49-0.08,0.64-0.08
			c5.64,0,11.27,0,16.91-0.01c1.14,0,2.34,0.11,3.42-0.15c3.36-0.83,5.57-3.02,6.58-6.3c0.37-1.2,0.46-2.52,0.47-3.78
			c0.03-24.04-0.01-48.08,0.04-72.13c0.01-5.66-3.93-10.23-10.03-10.04c-5.55,0.17-11.11,0.04-16.67,0.04c-0.42,0-0.85,0-1.36,0
			c0-0.61,0-1.04,0-1.47c0-5.28,0.01-10.56-0.01-15.84c-0.01-1.56,0.04-3.13-0.17-4.67c-0.53-3.83-4.65-7.26-9.3-7.25
			c-21.62,0.05-43.25,0.03-64.87,0.03c-10.43,0-20.86,0-31.3,0c-5.02,0-9.65,3.94-9.48,9.3c0.19,6.11,0.03,12.24,0.02,18.36
			c0,0.47,0,0.94,0,1.55c-0.55,0-0.98,0-1.41,0c-5.88,0-11.75-0.04-17.63,0.04c-1.2,0.02-2.51,0.25-3.58,0.77
			c-3.75,1.82-5.42,5-5.42,9.12c0,9.8,0,19.6,0,29.4c0,14.48,0.07,28.96-0.04,43.44c-0.03,4.69,3.79,9.69,8.56,9.58
			c0.95-0.02,1.9,0.01,2.84,0.01c4.76,0,9.51,0,14.27,0C70.53,167.49,71.28,167.49,72.18,167.49z"/>
		<path d="M72.18,167.49c-0.9,0-1.65,0-2.4,0c-4.76,0-9.51,0-14.27,0c-0.95,0-1.9-0.03-2.84-0.01c-4.76,0.11-8.59-4.89-8.56-9.58
			c0.1-14.48,0.04-28.96,0.04-43.44c0-9.8,0-19.6,0-29.4c0-4.12,1.66-7.29,5.42-9.12c1.07-0.52,2.38-0.75,3.58-0.77
			c5.87-0.08,11.75-0.04,17.63-0.04c0.43,0,0.86,0,1.41,0c0-0.61,0-1.08,0-1.55c0.01-6.12,0.18-12.25-0.02-18.36
			c-0.17-5.35,4.46-9.3,9.48-9.3c10.43,0,20.86,0,31.3,0c21.62,0,43.25,0.03,64.87-0.03c4.66-0.01,8.77,3.42,9.3,7.25
			c0.21,1.53,0.16,3.11,0.17,4.67c0.02,5.28,0.01,10.56,0.01,15.84c0,0.43,0,0.87,0,1.47c0.52,0,0.94,0,1.36,0
			c5.56,0,11.12,0.14,16.67-0.04c6.1-0.19,10.05,4.38,10.03,10.04c-0.06,24.04-0.02,48.08-0.04,72.13c0,1.26-0.1,2.58-0.47,3.78
			c-1.01,3.28-3.23,5.47-6.58,6.3c-1.09,0.27-2.28,0.15-3.42,0.15c-5.64,0.01-11.27,0.01-16.91,0.01c-0.16,0-0.31,0.04-0.64,0.08
			c0,0.5,0,1.01,0,1.51c-0.01,13.48-0.08,26.96,0,40.44c0.03,4.96-4.38,8.65-8.79,8.8c-0.68,0.02-1.36,0-2.04,0
			c-31.46,0-62.91-0.02-94.37,0.02c-3.91,0-6.91-1.51-8.91-4.78c-0.65-1.06-0.91-2.5-0.92-3.77c-0.08-13.52-0.06-27.04-0.08-40.56
			C72.18,168.72,72.18,168.21,72.18,167.49z M200.91,153.3c0-21.31,0-42.53,0-63.74c-40.67,0-81.26,0-122.16,0
			c2.62,1.54,3.21,4.02,3.05,6.28c-0.28,3.92-2.31,6.22-6.8,6.68c-2.65,0.27-5.35,0.12-8.03,0.01c-2.76-0.11-4.88-1.61-5.89-4.05
			c-1.18-2.83-1.08-5.72,1.39-8.07c0.26-0.25,0.49-0.53,0.81-0.88c-1.73,0-3.23,0-4.73,0c0,21.3,0,42.52,0,63.73
			c4.57,0,9.05,0,13.62,0c0-0.53,0-0.97,0-1.4c0-5.72-0.06-11.44,0.05-17.16c0.03-1.46,0.35-3.07,1.04-4.34
			c1.77-3.28,4.75-4.65,8.43-4.65c26.81,0.01,53.63,0.01,80.44,0c5.2,0,10.39-0.06,15.58,0.03c1.45,0.02,3.03,0.18,4.31,0.79
			c3.55,1.69,5.33,4.58,5.27,8.62c-0.09,5.6-0.02,11.2-0.02,16.8c0,0.43,0,0.85,0,1.34C191.89,153.3,196.35,153.3,200.91,153.3z
			 M172.89,140.15c-28.84,0-57.56,0-86.3,0c0,21.31,0,42.53,0,63.76c28.81,0,57.56,0,86.3,0
			C172.89,182.62,172.89,161.42,172.89,140.15z M172.87,60.52c-28.82,0-57.54,0-86.28,0c0,4.86,0,9.64,0,14.49
			c28.78,0,57.5,0,86.28,0C172.87,70.16,172.87,65.38,172.87,60.52z"/>
		<path fill="#FFFFFF" d="M200.91,153.3c-4.56,0-9.02,0-13.63,0c0-0.49,0-0.91,0-1.34c0-5.6-0.07-11.2,0.02-16.8
			c0.06-4.05-1.72-6.94-5.27-8.62c-1.28-0.61-2.86-0.76-4.31-0.79c-5.19-0.09-10.39-0.03-15.58-0.03c-26.81,0-53.63,0-80.44,0
			c-3.69,0-6.67,1.38-8.43,4.65c-0.69,1.27-1.01,2.87-1.04,4.34c-0.12,5.72-0.05,11.44-0.05,17.16c0,0.44,0,0.87,0,1.4
			c-4.56,0-9.05,0-13.62,0c0-21.21,0-42.43,0-63.73c1.5,0,3,0,4.73,0c-0.33,0.36-0.56,0.64-0.81,0.88
			c-2.47,2.34-2.56,5.24-1.39,8.07c1.02,2.44,3.13,3.94,5.89,4.05c2.67,0.11,5.38,0.26,8.03-0.01c4.48-0.46,6.52-2.76,6.8-6.68
			c0.16-2.26-0.44-4.73-3.05-6.28c40.9,0,81.49,0,122.16,0C200.91,110.77,200.91,131.99,200.91,153.3z"/>
		<path fill="#FFFFFF" d="M172.89,140.15c0,21.28,0,42.47,0,63.76c-28.74,0-57.49,0-86.3,0c0-21.23,0-42.45,0-63.76
			C115.34,140.15,144.05,140.15,172.89,140.15z M129.86,164.43c-9.59,0-19.18,0-28.77,0c-2.77,0-4.97,1.41-6.02,3.68
			c-2.23,4.82-0.04,10.55,6.36,10.59c18.86,0.12,37.72,0.05,56.58,0.05c3.16,0,6.46-2.21,7.09-5.74c0.9-5-3.01-8.63-6.95-8.6
			C148.72,164.47,139.29,164.43,129.86,164.43z M129.57,198.06c9.51,0,19.01,0.01,28.52-0.01c3.52-0.01,6.26-2.09,6.9-5.37
			c0.98-5-1.92-8.8-6.96-8.84c-18.85-0.13-37.71-0.06-56.56-0.04c-3.5,0-6.53,2.47-7.06,5.88c-0.39,2.49-0.06,4.88,2.06,6.65
			c1.43,1.2,3.05,1.75,4.94,1.75C110.8,198.03,120.18,198.06,129.57,198.06z M137.19,145.61c0,0,0-0.01,0-0.01
			c-6.55,0-13.11-0.06-19.66,0.05c-1.63,0.03-3.3,0.47-4.86,0.99c-1.96,0.66-4.45,4.87-3.69,7.32c1.38,4.45,3.23,6.04,7.81,6.07
			c12.99,0.09,25.97,0.02,38.96,0.06c1.51,0,2.95-0.03,4.45-0.37c5.16-1.18,5.93-7.16,4.04-10.64c-1.38-2.53-3.83-3.37-6.44-3.42
			C150.93,145.53,144.06,145.61,137.19,145.61z"/>
		<path fill="#FFFFFF" d="M172.87,60.52c0,4.86,0,9.64,0,14.49c-28.78,0-57.5,0-86.28,0c0-4.85,0-9.63,0-14.49
			C115.33,60.52,144.05,60.52,172.87,60.52z"/>
		<path d="M129.86,164.43c9.43,0,18.86,0.04,28.29-0.02c3.94-0.03,7.85,3.6,6.95,8.6c-0.64,3.53-3.93,5.74-7.09,5.74
			c-18.86,0-37.72,0.07-56.58-0.05c-6.4-0.04-8.59-5.77-6.36-10.59c1.05-2.27,3.25-3.69,6.02-3.68
			C110.68,164.43,120.27,164.43,129.86,164.43z"/>
		<path d="M129.57,198.06c-9.39,0-18.77-0.02-28.16,0.02c-1.9,0.01-3.51-0.55-4.94-1.75c-2.12-1.77-2.45-4.16-2.06-6.65
			c0.53-3.41,3.56-5.88,7.06-5.88c18.85-0.02,37.71-0.09,56.56,0.04c5.05,0.04,7.94,3.84,6.96,8.84c-0.64,3.28-3.38,5.36-6.9,5.37
			C148.59,198.07,139.08,198.06,129.57,198.06z"/>
		<path d="M137.19,145.61c6.87,0,13.75-0.08,20.62,0.04c2.61,0.05,5.06,0.89,6.44,3.42c1.9,3.48,1.13,9.46-4.04,10.64
			c-1.51,0.35-2.94,0.38-4.45,0.37c-12.99-0.04-25.97,0.03-38.96-0.06c-4.59-0.03-6.44-1.62-7.81-6.07
			c-0.76-2.45,1.73-6.66,3.69-7.32c1.56-0.52,3.23-0.96,4.86-0.99c6.55-0.11,13.11-0.05,19.66-0.05
			C137.19,145.61,137.19,145.61,137.19,145.61z"/>
	</g>
</g>
</svg>
